<svg width="855" height="323" viewBox="0 0 855 323" fill="none" xmlns="http://www.w3.org/2000/svg">
<path opacity="0.1" d="M0 261.233H149.646V316.037H212.671V261.233H251.338V208.408H212.671V4.26257H130.16L0 209.321V261.233ZM150.864 208.408H66.3739V205.972L148.428 76.1169H150.864V208.408Z" fill="#1268B3"/>
<path opacity="0.1" d="M426.074 322.888C504.474 322.888 551.819 263.212 551.971 160.454C552.123 58.4578 504.17 0 426.074 0C347.826 0 300.329 58.3055 300.177 160.454C299.872 262.908 347.521 322.736 426.074 322.888ZM426.074 268.236C390.299 268.236 367.159 232.309 367.312 160.454C367.464 89.6657 390.451 54.043 426.074 54.043C461.544 54.043 484.684 89.6657 484.684 160.454C484.836 232.309 461.697 268.236 426.074 268.236Z" fill="#1268B3"/>
<path opacity="0.1" d="M602.828 261.233H752.474V316.037H815.499V261.233H854.166V208.408H815.499V4.26257H732.988L602.828 209.321V261.233ZM753.692 208.408H669.202V205.972L751.256 76.1169H753.692V208.408Z" fill="#1268B3"/>
</svg>
