<svg width="110" height="217" viewBox="0 0 110 217" fill="none" xmlns="http://www.w3.org/2000/svg">
<path fill-rule="evenodd" clip-rule="evenodd" d="M101.83 120.158C98.4817 115.949 94.5685 112.222 90.2013 109.081C90.2013 109.081 89.867 108.733 89.6489 108.558C89.867 108.384 90.2013 108.035 90.2013 108.035C94.5714 104.898 98.4851 101.17 101.83 96.958C105.662 92.4127 108.442 87.0765 109.971 81.3314C109.306 81.1806 108.63 81.0786 107.95 81.0261L108.241 78.8311C107.326 78.6884 106.404 78.5962 105.479 78.5549V76.4326C105.479 76.4326 103.488 76.2 102.485 76.2V73.6416C100.643 72.6814 98.8574 71.6186 97.1352 70.4581L97.3823 70.1819C96.9294 69.6257 96.444 69.0965 95.9287 68.5974C96.3227 66.2941 96.8764 64.0209 97.5858 61.7944L95.7688 59.9773C96.4956 59.2796 97.7457 57.6951 97.7457 57.6951L96.2921 56.2415C97.0771 55.3402 97.5132 54.7878 98.051 54.0901L96.2921 52.7527C96.7328 52.2346 97.136 51.6856 97.4986 51.1101C92.3579 48.122 86.619 46.31 80.6945 45.8043C75.374 45.1902 69.9946 45.3027 64.7044 46.1387C64.4478 46.1236 64.1906 46.1236 63.934 46.1387V45.3682C64.7818 40.0793 64.8992 34.699 64.2829 29.3781C63.7771 23.4536 61.9651 17.7147 58.9771 12.574C58.399 12.9329 57.8498 13.3362 57.3344 13.7805L55.9971 12.0216C55.2489 12.5689 54.5307 13.156 53.8457 13.7805L52.392 12.3269C52.392 12.3269 50.8076 13.577 50.1098 14.2893L48.2637 12.3996C46.2862 13.0322 44.2715 13.542 42.2311 13.9259V13.577C41.5177 13.4878 40.798 13.4587 40.0797 13.4898C38.7356 11.5771 37.5215 9.57618 36.4456 7.50076H33.7273C33.7273 6.49775 33.5092 4.49176 33.5092 4.49176H31.3869C31.3414 3.56642 31.2444 2.64431 31.0962 1.7298L28.9157 2.02054C28.8632 1.34049 28.7612 0.665205 28.6105 0C22.8687 1.52986 17.5337 4.30403 12.9838 8.12587C8.77681 11.4818 5.04554 15.394 1.89247 19.755C1.89247 19.755 1.55812 20.1039 1.38369 20.3219C1.20925 20.1039 0.860374 19.755 0.860374 19.755C-2.28753 15.3943 -6.01394 11.4821 -10.2164 8.12587C-14.7682 4.3068 -20.1025 1.53297 -25.8431 0C-25.9988 0.664811 -26.1057 1.34012 -26.1629 2.02054L-28.3433 1.7298C-28.4932 2.64374 -28.5854 3.56624 -28.6195 4.49176H-30.7128C-30.7128 4.49176 -30.9454 6.49775 -30.9308 7.50076H-33.5038C-34.5743 9.57926 -35.7886 11.5805 -37.1379 13.4898C-37.8562 13.459 -38.5758 13.4882 -39.2893 13.577V13.9259C-41.3252 13.5433 -43.3352 13.0336 -45.3074 12.3996L-47.1244 14.2166C-47.8367 13.5044 -49.4066 12.2542 -49.4066 12.2542L-50.8603 13.7079C-51.55 13.0829 -52.273 12.4957 -53.0262 11.949L-54.349 13.7079C-54.8694 13.2635 -55.4235 12.8601 -56.0062 12.5013C-58.9786 17.6437 -60.7896 23.3743 -61.312 29.2909C-61.9127 34.6125 -61.7953 39.9907 -60.9631 45.281C-60.9781 45.5376 -60.9781 45.7948 -60.9631 46.0514C-61.2196 46.0337 -61.477 46.0337 -61.7335 46.0514C-67.0226 45.2049 -72.4027 45.0874 -77.7236 45.7025C-83.6473 46.2125 -89.3853 48.0243 -94.5277 51.0084C-94.1598 51.5839 -93.7518 52.1328 -93.3067 52.651L-95.0656 53.9883C-94.5192 54.7372 -93.932 55.4554 -93.3067 56.1397L-94.7603 57.5934C-94.7603 57.5934 -93.5102 59.1633 -92.7979 59.8756L-94.615 61.6926C-93.9087 63.9211 -93.3503 66.1937 -92.9433 68.4957C-93.4663 68.9873 -93.9521 69.5169 -94.3969 70.0802L-94.1643 70.3564C-95.8806 71.5137 -97.6619 72.5717 -99.4992 73.5253V76.0982C-100.517 76.0982 -102.508 76.3163 -102.508 76.3163V78.6131C-103.438 78.6552 -104.365 78.7474 -105.285 78.8893L-104.979 81.0843C-105.66 81.1357 -106.335 81.2377 -107 81.3895C-105.476 87.1336 -102.701 92.4697 -98.8741 97.0162C-95.5218 101.222 -91.609 104.949 -87.245 108.093C-87.0671 108.279 -86.8778 108.454 -86.6781 108.616C-86.8778 108.779 -87.0671 108.954 -87.245 109.14C-91.6057 112.287 -95.5179 116.014 -98.8741 120.216C-102.701 124.763 -105.476 130.099 -107 135.843C-106.335 135.995 -105.66 136.097 -104.979 136.148L-105.285 138.343C-104.365 138.485 -103.438 138.577 -102.508 138.619V140.756C-102.508 140.756 -100.517 140.974 -99.4992 140.974V143.547C-97.656 144.496 -95.8742 145.559 -94.1643 146.731L-94.3969 146.992C-93.9557 147.559 -93.4696 148.089 -92.9433 148.577C-93.3486 150.879 -93.9071 153.152 -94.615 155.38L-92.9142 157.11C-93.6265 157.822 -94.8766 159.392 -94.8766 159.392L-93.423 160.846C-94.0483 161.53 -94.6355 162.248 -95.1819 162.997L-93.423 164.334C-93.8681 164.853 -94.2761 165.402 -94.644 165.977C-89.5015 168.961 -83.7636 170.773 -77.8399 171.283C-72.519 171.898 -67.1388 171.781 -61.8498 170.934C-61.5982 170.952 -61.3456 170.952 -61.0939 170.934V171.704C-61.9281 176.995 -62.0455 182.373 -61.4428 187.695C-60.93 193.618 -59.1185 199.355 -56.137 204.499C-55.551 204.145 -54.9966 203.741 -54.4798 203.292L-53.157 205.051C-52.4038 204.504 -51.6808 203.917 -50.9911 203.292L-49.5375 204.746C-49.5375 204.746 -47.9675 203.496 -47.2552 202.783L-45.4382 204.6C-43.466 203.966 -41.456 203.457 -39.4201 203.074V203.437C-38.7057 203.514 -37.9866 203.539 -37.2687 203.51C-35.9194 205.419 -34.7051 207.421 -33.6346 209.499H-31.0616C-31.0616 210.502 -30.8436 212.508 -30.8436 212.508H-28.7067C-28.6726 213.434 -28.5804 214.356 -28.4305 215.27L-26.2501 214.979C-26.193 215.66 -26.0861 216.335 -25.9303 217C-20.1875 215.473 -14.852 212.698 -10.3036 208.874C-6.10115 205.518 -2.37475 201.606 0.773163 197.245C0.773163 197.245 1.12203 196.896 1.29647 196.678C1.45527 196.876 1.62514 197.066 1.80526 197.245C4.95716 201.602 8.68308 205.514 12.882 208.874C17.4357 212.699 22.776 215.473 28.5232 217C28.674 216.335 28.776 215.659 28.8285 214.979L31.009 215.27C31.1572 214.356 31.2542 213.434 31.2997 212.508H33.422C33.422 212.508 33.6546 210.502 33.64 209.499H36.213C37.2835 207.421 38.4978 205.419 39.8471 203.51C40.5651 203.538 41.2841 203.514 41.9985 203.437V203.074C44.0389 203.458 46.0536 203.968 48.0311 204.6L49.8482 202.783C50.5459 203.496 52.1304 204.746 52.1304 204.746L53.584 203.292C54.2653 203.921 54.9838 204.508 55.7354 205.051L57.0583 203.292C57.5777 203.738 58.1318 204.141 58.7154 204.499C61.7683 199.396 63.6592 193.683 64.2538 187.767C64.8689 182.446 64.7515 177.066 63.9049 171.777V171.007C64.1614 171.025 64.4188 171.025 64.6753 171.007C69.9642 171.855 75.3446 171.972 80.6654 171.356C86.5895 170.847 92.3279 169.036 97.4696 166.05C97.0988 165.463 96.6858 164.905 96.2339 164.378L97.9929 163.041C97.455 162.299 97.0189 161.791 96.2339 160.889L97.6876 159.436C97.6876 159.436 96.4375 157.866 95.7106 157.153L97.5277 155.336C96.8167 153.11 96.2629 150.837 95.8705 148.533C96.3893 148.038 96.8749 147.508 97.3242 146.949L96.67 146.178L96.5538 146.062L94.9257 144.027C97.1497 143.838 99.1558 143.649 100.74 143.475C100.58 143.62 98.24 145.045 96.5828 146.033L96.6991 146.149L97.1062 146.658C98.8215 145.487 100.608 144.424 102.456 143.475V140.902C103.459 140.902 105.45 140.684 105.45 140.684V138.547C106.376 138.513 107.298 138.42 108.212 138.271L107.907 136.09C108.591 136.027 109.271 135.92 109.942 135.77C108.41 130.026 105.63 124.691 101.801 120.144L101.83 120.158ZM104.491 77.3048V79.2963C104.491 79.2963 106.991 79.5143 107.093 79.5579L106.831 80.7063C106.38 80.9244 98.3417 80.4446 89.1256 79.8341L91.8585 76.5925L104.491 77.3048ZM101.38 76.1273C101.234 76.2436 97.7167 76.0256 92.658 75.6622L94.1116 73.9905C96.5806 74.1114 99.041 74.3686 101.482 74.7609L101.38 76.1273ZM97.4991 71.6127L97.4998 71.6132C98.9859 72.5186 100.608 73.5073 100.74 73.6271C99.1267 73.4381 97.1207 73.2491 94.9257 73.0601L96.5828 71.0541C96.8715 71.2304 97.1822 71.4196 97.4991 71.6127ZM94.7512 69.6004L94.76 69.6097L94.7512 69.6441V69.6004ZM94.76 69.6097L95.4199 70.3128L74.313 95.0247C73.5404 95.9277 72.7726 96.834 72.0048 97.7402L72.0028 97.7425L72.0008 97.7448L71.9989 97.7471L71.9969 97.7494C70.456 99.5681 68.9151 101.387 67.3355 103.18C67.4791 102.512 67.5801 101.695 67.6859 100.84L67.6859 100.84L67.686 100.839L67.686 100.839L67.6861 100.839L67.6861 100.838L67.6862 100.838L67.6862 100.838L67.6862 100.838V100.838C67.7945 99.962 67.9078 99.0461 68.0769 98.2082C68.4112 96.551 68.7165 94.8503 68.7165 94.8503C68.9751 94.5098 70.8903 92.358 73.6404 89.2682C80.1643 81.9385 91.3864 69.3302 96.3357 63.1027C96.3357 63.4085 94.886 69.1141 94.76 69.6097ZM96.045 61.7653C96.1613 62.2886 75.5631 85.8522 68.4257 93.9199C62.8673 89.0086 56.7256 84.8002 50.1389 81.3895C56.6623 83.5024 62.7955 86.6696 68.2949 90.7655C73.4695 85.4616 81.714 75.9467 87.6706 69.0722L87.6713 69.0715L87.6715 69.0712L87.6735 69.0689C91.7555 64.3579 94.7624 60.8877 94.9693 60.8641L96.045 61.7653ZM52.2031 13.6642L53.6567 15.0307C53.6567 15.0307 55.5755 13.4026 55.6773 13.3589L56.3024 14.362C56.1425 14.8417 50.1098 20.1765 43.2196 26.2673L42.8707 22.0372L52.2031 13.6642ZM48.2782 13.9986L48.2925 14.015C46.277 15.4367 44.3499 16.9798 42.5218 18.6357L42.7108 20.8307C46.5048 17.5309 49.165 15.2051 49.165 15.0161L48.2925 14.015L48.3364 13.984L48.2782 13.9986ZM46.999 13.6933C45.7198 14.6963 44.179 15.9755 42.4782 17.4146L42.2601 14.8126C44.1208 14.3474 46.7955 13.6933 46.999 13.6933ZM39.8907 15.0307H40.8647C41.2059 19.3492 41.5643 23.6729 41.9228 27.9976C42.7553 38.0409 43.5882 48.0891 44.2081 58.0876C43.8393 57.5091 43.3302 56.8551 42.7971 56.1703C42.2586 55.4784 41.6956 54.7551 41.2281 54.0465L39.2947 51.2264C39.2399 50.8049 39.08 48.0435 38.8495 44.0605L38.8494 44.06C38.2847 34.3052 37.2957 17.2238 36.3874 9.24516C36.62 9.47774 39.9053 14.9871 39.9053 14.9871L39.8907 15.0307ZM33.8872 8.60555L35.239 8.50378C35.7042 8.80905 37.7975 40.0334 38.4952 50.7322C31.0865 51.1906 23.7628 52.5626 16.6906 54.8169C22.7898 51.6835 29.3676 49.5859 36.1548 48.6098C36.0383 41.4641 35.1916 29.5088 34.5553 20.5239C34.081 13.8264 33.7236 8.77938 33.8726 8.60555H33.8872ZM-32.3263 8.50378L-30.9599 8.60555C-30.8189 8.77713 -31.1688 13.6969 -31.636 20.2654L-31.6361 20.2674L-31.6362 20.2679L-31.6363 20.2687C-32.2773 29.2813 -33.1389 41.3963 -33.2566 48.6098C-26.4648 49.5859 -19.8822 51.6835 -13.7778 54.8169C-20.8505 52.5642 -28.174 51.1922 -35.5825 50.7322C-34.8993 40.0334 -32.7915 8.80905 -32.3408 8.50378H-32.3263ZM-37.9664 15.0307H-37.007C-37.007 15.0307 -33.7073 9.52135 -33.4892 9.28876C-34.428 17.442 -35.4432 35.116 -35.9964 44.7459L-35.9965 44.747L-35.9965 44.7483L-35.9966 44.75L-35.9966 44.7506C-36.2057 48.3899 -36.3487 50.8793 -36.3965 51.27L-38.3299 54.0901C-38.7851 54.8015 -39.3309 55.5129 -39.848 56.1868L-39.848 56.1868L-39.8481 56.1869L-39.8481 56.1869L-39.8482 56.187L-39.8482 56.187C-40.3876 56.8901 -40.8958 57.5523 -41.2371 58.1312C-40.6253 48.2618 -39.799 38.3439 -38.9729 28.4301C-38.6018 23.9757 -38.2307 19.5222 -37.8792 15.0743L-37.9664 15.0307ZM-39.3329 14.8126L-39.5509 17.4146C-41.2662 15.961 -42.8071 14.6963 -44.0863 13.6933C-43.8682 13.6933 -41.179 14.3474 -39.3329 14.8126ZM-45.4236 13.9695C-43.3955 15.4094 -41.454 16.9675 -39.6091 18.6357L-39.7835 20.8162C-43.592 17.5164 -46.2377 15.1905 -46.2522 15.0016L-45.4236 13.9695ZM-52.8227 13.3444C-52.7064 13.3444 -50.7876 15.0161 -50.7876 15.0161L-49.3339 13.6351L-39.987 21.9209L-40.4086 26.1801C-47.3425 20.0893 -53.3751 14.7545 -53.4914 14.2748L-52.8227 13.3444ZM-84.1074 69.8491L-84.1073 69.8492C-78.2219 76.6403 -70.4578 85.5993 -65.5275 90.6783C-60.0317 86.5768 -53.8975 83.4091 -47.3715 81.3023C-53.9582 84.713 -60.1 88.9214 -65.6584 93.8327C-72.7521 85.7795 -93.2776 62.2014 -93.2776 61.6781L-92.2019 60.7769C-91.9696 60.7769 -88.5813 64.6866 -84.1074 69.8491ZM-70.8297 89.1806L-70.8296 89.1807C-68.0794 92.2706 -66.1641 94.4225 -65.9055 94.763C-65.9055 94.763 -65.5711 96.6237 -65.2804 98.121C-65.1457 98.815 -65.039 99.6433 -64.933 100.467C-64.8102 101.42 -64.6883 102.367 -64.5245 103.092C-66.318 101.057 -68.0699 98.988 -69.8179 96.9237L-69.8198 96.9214L-69.8217 96.9191L-69.8237 96.9169L-69.8256 96.9146C-70.3844 96.2547 -70.9428 95.5952 -71.502 94.9375L-92.6089 70.2255L-91.9548 69.5132C-91.9548 69.5132 -93.5247 63.2916 -93.5393 62.9718L-93.5247 63.0154C-88.5755 69.2429 -77.3536 81.8508 -70.8297 89.1806ZM-93.7864 71.025L-93.7815 71.0308C-95.4237 72.0191 -97.7696 73.4384 -97.9147 73.5835C-96.3157 73.409 -94.3242 73.22 -92.1002 73.0311L-93.7815 71.0308L-93.7718 71.025H-93.7864ZM-91.3006 73.9323L-89.8325 75.7058C-94.8621 76.0546 -98.3799 76.2872 -98.5543 76.1709L-98.6561 74.8045C-96.2206 74.4104 -93.7649 74.1532 -91.3006 74.0341V73.9323ZM-101.723 79.3399V77.3484L-89.1638 76.6216L-86.4164 79.8777C-95.6325 80.4737 -103.686 80.968 -104.122 80.7499L-104.398 79.6015C-104.282 79.6015 -101.781 79.3399 -101.781 79.3399H-101.723ZM-93.83 146.077C-95.4726 145.088 -97.8275 143.664 -97.9729 143.518C-96.3593 143.693 -94.3678 143.882 -92.1583 144.071L-93.83 146.077ZM-98.7142 142.37L-98.6125 141.003C-98.4816 140.887 -94.9638 141.105 -89.8906 141.469L-91.3443 143.14C-93.8085 143.021 -96.2642 142.764 -98.6997 142.37H-98.7142ZM-91.9839 147.588L-92.638 146.876L-71.5311 122.164C-70.9137 121.438 -70.2973 120.71 -69.6806 119.981L-69.6801 119.981L-69.68 119.981L-69.6799 119.98L-69.6798 119.98L-69.6797 119.98C-67.988 117.982 -66.2937 115.98 -64.5681 114.009C-64.7118 114.677 -64.8129 115.495 -64.9187 116.35C-65.0271 117.226 -65.1404 118.143 -65.3095 118.981C-65.6438 120.638 -65.9346 122.339 -65.9346 122.339C-66.1852 122.663 -67.94 124.634 -70.4871 127.494C-76.9509 134.752 -88.5173 147.74 -93.5538 154.101C-93.5538 153.766 -91.9693 147.545 -91.9693 147.545L-91.9839 147.588ZM-93.2631 155.424C-93.3648 154.9 -72.7812 131.322 -65.6438 123.269C-60.0854 128.18 -53.9436 132.389 -47.357 135.799C-53.8829 133.693 -60.0171 130.525 -65.513 126.423C-70.6435 131.691 -78.792 141.093 -84.7362 147.951L-84.7367 147.952L-84.7384 147.954C-88.8981 152.753 -91.9779 156.307 -92.1874 156.325L-93.2631 155.424ZM-49.3776 203.626L-50.8312 202.245C-50.8312 202.245 -52.75 203.874 -52.8663 203.917L-53.4914 202.914C-53.3169 202.449 -47.2988 197.1 -40.4086 191.009L-40.0452 195.239L-49.3776 203.626ZM-45.4673 203.292L-45.4894 203.266C-43.4776 201.829 -41.5483 200.28 -39.7108 198.626L-39.8853 196.445C-43.6938 199.745 -46.354 202.071 -46.354 202.26L-45.4894 203.266L-45.5254 203.292H-45.4673ZM-44.188 203.568C-42.9088 202.565 -41.368 201.286 -39.6527 199.847L-39.4346 202.449C-41.3098 202.914 -43.97 203.568 -44.188 203.568ZM-37.0797 202.231H-38.0391C-38.3906 197.783 -38.7617 193.329 -39.1329 188.875L-39.1329 188.875L-39.1329 188.874L-39.1329 188.874L-39.1329 188.874L-39.133 188.873C-39.9589 178.96 -40.7853 169.043 -41.397 159.174C-41.0704 159.68 -40.6337 160.251 -40.1739 160.852L-40.1738 160.852C-39.5902 161.615 -38.9695 162.426 -38.4898 163.215L-36.5564 166.035C-36.5016 166.457 -36.3417 169.218 -36.1111 173.201L-36.1111 173.202C-35.5463 182.957 -34.5574 200.038 -33.6491 208.016C-33.8672 207.784 -37.1669 202.275 -37.1669 202.275L-37.0797 202.231ZM-31.1489 208.656L-32.5007 208.758C-32.9514 208.453 -35.0592 177.228 -35.7424 166.529C-28.3339 166.069 -21.0104 164.697 -13.9377 162.445C-20.0439 165.577 -26.6254 167.679 -33.4165 168.666C-33.3 175.801 -32.4538 187.748 -31.8176 196.73L-31.8176 196.731L-31.8176 196.731C-31.343 203.432 -30.9853 208.482 -31.1343 208.656H-31.1489ZM35.0646 208.758L33.7127 208.656C33.5637 208.482 33.9214 203.432 34.396 196.732L34.396 196.731L34.396 196.731L34.3961 196.73L34.3963 196.727L34.3964 196.726L34.3965 196.724C35.0326 187.742 35.8784 175.8 35.9949 168.666C29.2084 167.679 22.6317 165.577 16.5307 162.445C23.6029 164.699 30.9266 166.071 38.3353 166.529C37.6376 177.228 35.5443 208.453 35.0791 208.758H35.0646ZM40.7193 202.231H39.7453C39.7453 202.231 36.4601 207.74 36.2275 207.973C37.1664 199.818 38.1819 182.14 38.7349 172.511V172.511L38.7351 172.509C38.944 168.871 39.087 166.382 39.1348 165.992L41.0682 163.172C41.5741 162.381 42.1918 161.59 42.7694 160.851L42.7698 160.851L42.771 160.849L42.7717 160.848C43.2552 160.23 43.7105 159.647 44.0481 159.13C43.4499 168.781 42.6465 178.478 41.8434 188.172L41.843 188.176L41.8427 188.181L41.8423 188.185L41.8419 188.19L41.8416 188.194C41.4549 192.861 41.0683 197.527 40.7048 202.187L40.7193 202.231ZM42.1584 202.449L42.3764 199.847C44.0772 201.301 45.6181 202.565 46.8973 203.568C46.6938 203.568 43.99 202.914 42.1584 202.449ZM48.2346 203.292C46.2098 201.848 44.2685 200.29 42.42 198.626L42.609 196.445C46.403 199.745 49.0487 202.071 49.0632 202.26L48.2346 203.292ZM55.6337 203.917C55.5319 203.917 53.6131 202.245 53.6131 202.245L52.1595 203.626L42.7689 195.239L43.1178 191.009C50.0662 197.085 56.0988 202.449 56.2006 202.914L55.6337 203.917ZM94.9693 156.412C94.744 156.412 91.3787 152.529 86.9272 147.392C81.0366 140.595 73.2441 131.603 68.3094 126.511C62.8067 130.61 56.6682 133.777 50.1389 135.887C56.7325 132.48 62.8797 128.271 68.4403 123.356C75.5195 131.409 96.0595 154.988 96.0595 155.511L94.9693 156.412ZM95.3618 146.92L94.7076 147.632C94.7076 147.632 96.2776 153.854 96.2921 154.188C91.3324 147.937 80.0736 135.286 73.5559 127.962L73.5538 127.96L73.5536 127.96C70.8267 124.896 68.9301 122.765 68.6729 122.426C68.6729 122.426 68.3385 120.58 68.0333 119.068C67.883 118.324 67.7715 117.435 67.6623 116.565L67.6622 116.565L67.6622 116.564C67.5496 115.667 67.4395 114.79 67.2919 114.111C74.7412 122.53 82.0384 131.164 89.3449 139.809C91.3487 142.18 93.3532 144.551 95.3618 146.92ZM94.068 143.184L92.6144 141.512C97.6294 141.163 101.147 140.931 101.336 141.047L101.438 142.414C98.9974 142.806 96.537 143.063 94.068 143.184ZM89.1402 137.369L89.1787 137.367L91.9312 140.626L104.505 139.899V137.907C104.505 137.907 107.005 137.66 107.107 137.66L106.846 136.497C106.396 136.294 98.3786 136.772 89.1787 137.367L89.0072 137.164L88.5005 136.381C95.1146 135.988 101.511 135.581 108.779 135.116C107.645 130.334 104.433 125.159 100.595 120.158C98.8653 118.053 97.0059 116.057 95.0274 114.184C93.1522 112.265 90.7247 110.143 88.7913 109.677C87.0114 109.367 85.2041 109.24 83.3983 109.299C78.331 109.299 73.2755 109.206 68.2739 109.113L66.5796 109.081H66.5747L67.1618 109.648L65.851 110.83L66.4779 110.491L89.0072 137.164L89.1402 137.369ZM53.1797 122.255L61.9319 114.364C63.3525 113.64 64.7417 112.951 66.0854 112.309C66.2502 113.008 66.2104 113.741 65.9707 114.419C65.731 115.096 65.3016 115.691 64.7335 116.132C61.62 117.9 58.489 119.515 55.3888 121.114C54.6505 121.494 53.9139 121.874 53.1797 122.255ZM46.6218 128.168L49.4754 125.595C55.8922 122.459 62.4147 119.133 66.943 116.219C67.152 116.729 67.1569 117.301 66.9567 117.815C66.7565 118.329 66.3665 118.746 65.8673 118.981C59.8186 123.21 53.3847 126.858 46.6515 129.876L46.6218 128.168ZM46.7599 136.118L46.6765 131.316C52.5555 128.961 58.1664 125.976 63.4107 122.411L67.1611 119.78L67.6263 122.877C67.2919 123.182 65.9109 124.417 65.5475 124.723C60.0591 129.691 53.6799 133.555 46.7599 136.118ZM48.9033 137.355C48.2027 137.534 47.498 137.697 46.7898 137.843L46.8133 139.19C52.5441 138.935 59.1862 137.805 65.0242 134.666C65.4332 134.51 65.8437 134.366 66.2547 134.221L66.2564 134.221C67.1158 133.918 67.9776 133.615 68.8327 133.212C71.152 135.831 74.358 139.5 77.7504 143.383C85.8823 152.69 95.0849 163.222 95.7106 163.448L96.7137 162.808C96.67 162.706 95.0419 160.788 95.0419 160.788L96.4084 159.334L68.5566 128.11C68.1559 128.439 67.7497 128.703 67.3414 128.969C67.0832 129.136 66.8241 129.305 66.5651 129.491C61.7489 132.638 56.5126 135.09 51.0111 136.773L50.8156 136.83C50.2113 137.005 49.5455 137.198 48.9033 137.355ZM68.6147 135.014C61.8466 138.478 54.4075 140.388 46.8382 140.625L47.0617 153.493L47.8276 154.246C51.8397 158.098 55.8808 161.98 59.8638 165.963C61.102 167.284 62.4705 168.477 63.9485 169.524C65.6347 170.556 68.8473 170.745 71.5365 170.745C74.263 170.809 76.991 170.712 79.706 170.454C85.8985 169.626 91.9166 168.216 96.0741 165.657C94.77 164.179 93.5061 162.745 92.2684 161.34C84.5103 152.534 77.7788 144.893 68.6147 135.014ZM66.5941 108.035H65.4908L61.0858 103.781L66.536 106.727L88.5005 80.7354C93.0835 81.0073 97.5967 81.2932 102.33 81.5931C104.428 81.726 106.569 81.8616 108.779 82C107.645 86.7389 104.418 91.9575 100.595 96.958C98.862 99.0652 97.0027 101.065 95.0274 102.947C93.1377 104.851 90.6665 106.974 88.7913 107.453C87.0099 107.751 85.2035 107.873 83.3983 107.817C78.3603 107.817 73.3571 107.91 68.3783 108.002L68.3775 108.002C67.7827 108.013 67.1883 108.024 66.5941 108.035ZM66.1435 104.909C63.5595 103.685 60.8052 102.277 57.9828 100.785L50.4433 93.5046C51.9858 94.3205 53.5412 95.1225 55.1041 95.9283L55.1087 95.9307L55.1097 95.9312C58.3206 97.5866 61.5632 99.2585 64.7916 101.101C65.3613 101.537 65.7923 102.129 66.0322 102.805C66.2722 103.481 66.3109 104.212 66.1435 104.909ZM67.0012 100.999C60.6107 97.207 54.0517 93.7079 47.3445 90.5124L47.2905 90.4602L47.4373 87.6715C53.9066 90.6244 60.095 94.1607 65.9255 98.2373C66.4247 98.4719 66.8147 98.8894 67.0148 99.4034C67.215 99.9174 67.2101 100.489 67.0012 100.999ZM63.5706 94.8067C58.5334 91.3863 53.1504 88.5124 47.5131 86.2312L47.7662 81.4221C54.3506 84.008 60.429 87.7554 65.7074 92.4953C66.0708 92.8006 67.4518 94.0362 67.7861 94.3415L67.321 97.4378L63.5706 94.8067ZM49.0777 79.8632C48.6777 79.7613 48.2727 79.6643 47.8636 79.5722L47.9542 77.8494C53.3692 78.2058 59.4587 79.4049 64.8788 82.3198C65.3998 82.5294 65.9233 82.7168 66.4472 82.9044C67.195 83.1721 67.9437 83.4401 68.6874 83.7735C70.9836 81.1807 74.1491 77.5582 77.504 73.7188L77.5063 73.7161L77.5069 73.7155C85.6627 64.382 94.937 53.7685 95.5653 53.5522L96.5683 54.1773C96.5683 54.2791 94.8966 56.1978 94.8966 56.1978L96.263 57.6515L68.6147 88.9775C68.2199 88.6617 67.8198 88.3988 67.4175 88.1345L67.4172 88.1343C67.1532 87.9608 66.8882 87.7867 66.6232 87.5966C61.8348 84.5006 56.6326 82.0977 51.171 80.4592C50.4732 80.2557 49.7173 80.0376 49.0777 79.8632ZM68.4839 81.9855C62.1167 78.7115 55.1511 76.8033 48.0323 76.3661L48.7441 62.841L47.5899 62.861L47.6823 62.7683C51.6943 58.9162 55.75 55.0204 59.733 51.0374C60.9711 49.7158 62.3397 48.5226 63.8177 47.476C65.5039 46.4439 68.7165 46.2404 71.4057 46.2549C74.1322 46.1903 76.8602 46.2874 79.5752 46.5457C85.8259 47.3742 91.7858 48.7988 95.9432 51.3427C94.6391 52.8208 93.3752 54.2554 92.1374 55.6604L92.1365 55.6614C84.3789 64.4668 77.6476 72.1073 68.4839 81.9855ZM47.0136 61.9979L46.125 62.8865L39.7654 62.9969L46.0978 61.1112L43.1905 27.2122C44.9642 25.6472 46.7267 24.0821 48.5089 22.4996C51.6926 19.6725 54.9391 16.7897 58.4247 13.7515C60.9686 17.9089 62.3931 23.927 63.2072 30.1195C63.4782 32.8337 63.5802 35.5621 63.5124 38.289C63.5124 40.9637 63.3234 44.1762 62.2914 45.877C61.2404 47.3516 60.0476 48.7197 58.7299 49.9617C55.0043 53.6738 51.3677 57.4621 47.7607 61.2197L47.7595 61.2209L47.0136 61.9979ZM44.6151 60.0791C41.7611 61.0799 38.6375 62.0808 35.4061 63.0727L24.9411 63.2544C26.8668 62.6701 28.7888 62.057 30.7203 61.4409L30.7204 61.4409C34.0786 60.3696 37.4657 59.2891 40.9519 58.3347C41.6659 58.2379 42.3927 58.3514 43.0433 58.6612C43.6939 58.971 44.2401 59.4637 44.6151 60.0791ZM42.4637 56.6921C35.2192 58.5326 28.0643 60.7065 21.0217 63.2065L19.1401 61.124C25.8216 58.6261 32.7186 56.7434 39.7453 55.5001C41.0246 55.3111 41.5333 55.2966 42.4637 56.6921ZM35.6315 54.7588C29.633 55.8945 23.7759 57.6647 18.1584 60.0375L14.9392 56.4747C21.4408 53.6335 28.4099 51.9803 35.5152 51.6044L38.2917 51.4444L40.1378 53.9593L35.6315 54.7588ZM14.8299 54.4244C14.4524 54.648 14.0784 54.8772 13.7079 55.112L12.6569 53.9487C16.7535 50.334 21.9953 46.7789 27.9418 44.9903C28.4031 44.7941 28.8509 44.5863 29.2978 44.3789C30.0761 44.0177 30.8519 43.6577 31.6922 43.3622C31.4859 39.996 31.1731 35.356 30.8402 30.4171C29.9999 17.9526 29.0312 3.5838 29.3227 2.97995L30.4711 2.70376C30.4711 2.82005 30.7328 5.3203 30.7328 5.3203H32.7242L35.1082 47.0981C34.6063 47.15 34.1457 47.2482 33.6833 47.3469C33.3689 47.414 33.0537 47.4812 32.7242 47.5341C27.1472 48.7104 21.7641 50.6679 16.7342 53.3487L14.8299 54.4244ZM30.2967 42.272C23.4095 44.4733 17.0746 48.0927 11.6934 52.8824L2.60547 42.8243L1.99422 43.4545V43.3912C2.1105 37.8238 2.22681 32.2128 2.22681 26.5726C2.17056 24.7674 2.29229 22.9609 2.59022 21.1796C3.05538 19.2462 5.19225 16.8187 7.09652 14.9435C8.97835 12.9682 10.9784 11.1089 13.0855 9.37598C18.0861 5.53836 23.261 2.3258 28.0435 1.19195C28.1572 2.99634 28.2688 4.75075 28.3782 6.47044L28.3817 6.52524C29.1381 18.4146 29.7893 28.6502 30.2967 42.272ZM0.962143 43.3622V44.5184L-7.99216 53.7494C-13.499 48.5534 -20.0985 44.6279 -27.3258 42.272C-26.8184 28.6495 -26.1672 18.4137 -25.4107 6.52365V6.52354L-25.4091 6.49874L-25.4049 6.43277C-25.2963 4.72513 -25.1855 2.98316 -25.0726 1.19195C-20.3337 2.3258 -15.1152 5.55289 -10.1146 9.37598C-8.00914 11.1056 -6.01376 12.965 -4.14017 14.9435C-2.22135 16.8332 -0.0990219 19.3044 0.366142 21.1796C0.671288 22.9601 0.79306 24.7672 0.729553 26.5726C0.729553 31.2096 0.818443 35.8368 0.906677 40.4296C0.925484 41.4088 0.94426 42.3864 0.962143 43.3622ZM-25.0145 45.1938C-18.6996 47.093 -13.2279 50.9599 -9.01115 54.7999L-9.99969 55.8189C-10.6238 55.4062 -11.2583 55.0091 -11.9026 54.6279L-13.7924 53.5522C-18.8233 50.8737 -24.2061 48.9163 -29.7824 47.7377C-30.11 47.685 -30.4259 47.6182 -30.7413 47.5515C-31.2097 47.4525 -31.6771 47.3537 -32.1809 47.3015L-29.7824 5.52383H-27.7909C-27.7909 5.52383 -27.5874 3.02358 -27.5438 2.90729L-26.3809 3.18344C-26.1015 3.78361 -27.0596 17.9816 -27.8972 30.3927L-27.8974 30.3958C-28.2363 35.4186 -28.5555 40.1485 -28.7649 43.5657C-27.9246 43.8612 -27.1489 44.2212 -26.3706 44.5824L-26.3703 44.5825C-25.9235 44.7899 -25.4757 44.9976 -25.0145 45.1938ZM-32.588 51.8079C-25.1777 52.1794 -17.9191 53.9651 -11.1998 57.0561L-14.5552 60.5152C-20.3822 58.0134 -26.4674 56.1507 -32.7043 54.9623L-37.2106 54.1628L-35.3499 51.648L-32.588 51.8079ZM-36.8181 55.7036C-29.567 56.9859 -22.4537 58.9481 -15.5724 61.5638L-16.6844 62.7102L-20.8774 62.5005C-27.5264 60.2183 -34.344 58.0143 -39.5218 56.8956C-38.5915 55.442 -38.0682 55.442 -36.8181 55.7036ZM-37.5832 61.6652L-25.8796 62.2504C-26.4953 62.0548 -27.1117 61.8581 -27.729 61.661C-31.1018 60.5843 -34.5059 59.4976 -38.0101 58.5382C-38.7241 58.4415 -39.4509 58.5549 -40.1015 58.8647C-40.7521 59.1745 -41.2983 59.6673 -41.6732 60.2826C-40.3625 60.7438 -38.9938 61.205 -37.5832 61.6652ZM47.0882 155.02L47.7989 155.76C51.4078 159.52 55.047 163.311 58.7881 167.038C60.1023 168.284 61.2949 169.651 62.3495 171.123C63.3816 172.824 63.5706 176.036 63.5706 178.711C63.6383 181.438 63.5364 184.166 63.2653 186.88C62.4513 193.131 61.0267 199.106 58.4828 203.248C56.6945 201.671 54.9691 200.152 53.2829 198.669C49.8427 195.642 46.5653 192.758 43.2486 189.802L46.1559 155.889L45.5544 155.71L47.1015 155.787L47.0882 155.02ZM40.0756 155.436C41.6451 155.944 43.1655 156.454 44.6151 156.964C44.2269 157.548 43.6799 158.009 43.0387 158.292C42.3974 158.576 41.6885 158.67 40.9955 158.563C37.4882 157.603 34.0766 156.516 30.6969 155.438L30.6967 155.438L30.6964 155.438L30.6961 155.438L30.6958 155.438L30.6956 155.437C30.1101 155.251 29.5256 155.064 28.9417 154.879L40.0756 155.436ZM42.5073 160.206C37.3349 159.091 30.5484 156.897 23.9224 154.628L19.4823 154.406L18.4339 155.491C25.3487 158.13 32.499 160.108 39.789 161.398C41.0536 161.587 41.5624 161.66 42.5073 160.206ZM35.6751 162.227C29.3793 161.028 23.2384 159.14 17.3629 156.599L14.0214 160.057C20.782 163.193 28.0933 165.005 35.5589 165.381L38.3353 165.541L40.1814 163.026L35.6751 162.227ZM14.8735 162.561C14.1845 162.151 13.5065 161.724 12.84 161.28L11.8708 162.283C16.1078 166.157 21.6122 170.078 27.9854 171.995C28.4467 172.191 28.8945 172.399 29.3414 172.607L29.3416 172.607L29.3418 172.607L29.342 172.607L29.3422 172.607L29.3424 172.607C30.1204 172.968 30.8958 173.328 31.7358 173.623C31.5295 176.989 31.2167 181.629 30.8838 186.568C30.0435 199.033 29.0748 213.402 29.3663 214.005L30.5147 214.282C30.5583 214.165 30.7764 211.665 30.7764 211.665H32.7679L35.1518 169.887C34.65 169.835 34.1893 169.737 33.727 169.639L33.7261 169.638C33.4119 169.571 33.097 169.504 32.7679 169.451C27.1902 168.277 21.8067 166.32 16.7778 163.637L14.8735 162.561ZM30.3403 174.743C23.07 172.421 16.4241 168.51 10.8763 163.312L2.03782 172.458V173.652C2.15411 179.205 2.27041 184.816 2.27041 190.442C2.21397 192.252 2.33569 194.063 2.63382 195.849C3.09899 197.71 5.23586 200.181 7.14013 202.071C9.01704 204.046 11.0122 205.905 13.1146 207.639C18.1297 211.476 23.3483 214.703 28.0871 215.837C28.1861 214.265 28.2833 212.731 28.3787 211.225V211.224C29.1525 199.013 29.8097 188.64 30.3403 174.743ZM1.00574 173.667V173.526L0.294182 174.263L-8.77307 164.258C-14.1353 169.004 -20.4361 172.595 -27.2822 174.786C-26.7864 188.097 -26.1533 198.175 -25.4278 209.722C-25.3024 211.718 -25.1742 213.758 -25.0436 215.866C-20.2465 214.732 -15.0715 211.52 -10.071 207.682C-7.96533 205.953 -5.96994 204.093 -4.09653 202.115C-2.19226 200.239 -0.0554199 197.812 0.409752 195.879C0.71489 194.098 0.836662 192.291 0.773163 190.486C0.773163 185.843 0.861794 181.221 0.949898 176.626C0.968834 175.638 0.987747 174.652 1.00574 173.667ZM-24.9418 172.068C-19.026 170.292 -13.8239 166.775 -9.7435 163.187L-10.8046 162.016C-11.1388 162.226 -11.4758 162.432 -11.8154 162.634C-12.2154 162.876 -12.6214 163.1 -13.0295 163.325L-13.0311 163.326L-13.0326 163.327L-13.0341 163.327C-13.2622 163.453 -13.4909 163.579 -13.7197 163.709C-18.7494 166.391 -24.1325 168.348 -29.7097 169.524C-30.0372 169.577 -30.3529 169.643 -30.6682 169.71L-30.6685 169.71C-31.1369 169.809 -31.6044 169.908 -32.1083 169.96L-29.7243 211.738H-27.7183C-27.7183 211.738 -27.4711 214.238 -27.4711 214.354L-26.3228 214.078C-26.0312 213.474 -26.9998 199.107 -27.8401 186.643L-27.8402 186.642L-27.8402 186.641L-27.8403 186.639L-27.841 186.629L-27.8411 186.628C-28.1737 181.694 -28.4861 177.059 -28.6922 173.696C-27.852 173.4 -27.0763 173.04 -26.298 172.679L-26.2979 172.679C-25.8509 172.472 -25.4031 172.264 -24.9418 172.068ZM-32.5007 165.454C-25.4419 165.08 -18.5175 163.446 -12.0524 160.639L-15.4334 156.908C-21.0062 159.252 -26.8147 161.001 -32.7624 162.125L-37.2687 162.924L-35.2627 165.614L-32.5007 165.454ZM-36.8762 161.471C-29.8974 160.211 -23.0487 158.322 -16.4139 155.826L-18.2504 153.8C-25.2566 156.285 -32.374 158.447 -39.58 160.279C-38.6497 161.674 -38.1554 161.66 -36.8762 161.471ZM-27.7815 155.512L-27.7872 155.513C-31.16 156.59 -34.5641 157.677 -38.0682 158.636C-38.7823 158.733 -39.5091 158.619 -40.1596 158.31C-40.8102 158 -41.3564 157.507 -41.7314 156.892C-39.0301 155.942 -36.0835 154.993 -33.031 154.052L-22.5718 153.87C-24.3063 154.402 -26.0398 154.956 -27.7815 155.512ZM-43.3159 155.86L-37.3835 154.128L-43.4755 154.234L-44.2171 154.988L-44.5268 155.309L-45.1673 155.974L-45.6803 156.507L-45.6822 156.509L-45.6828 156.509L-45.6839 156.511L-45.6842 156.511L-45.6854 156.512C-49.0561 160.013 -52.456 163.544 -55.9335 167.009C-57.2551 168.247 -58.4483 169.616 -59.4949 171.094C-60.5415 172.867 -60.716 176.007 -60.716 178.682C-60.7952 181.408 -60.6981 184.137 -60.4252 186.851C-59.5967 193.044 -58.1866 199.077 -55.6428 203.219C-52.1516 200.147 -48.9108 197.284 -45.7333 194.476L-45.7138 194.459C-43.9366 192.888 -42.1791 191.335 -40.4086 189.773L-43.3159 155.86ZM-46.5907 155.746C-46.0755 155.25 -45.5612 154.755 -45.0481 154.261L-45.8736 154.275L-45.1552 140.627C-52.3332 140.206 -59.3583 138.289 -65.7747 134.985C-75.1096 145.048 -81.9317 152.789 -89.8774 161.804C-90.9764 163.051 -92.0969 164.323 -93.2485 165.628C-89.0911 168.172 -83.1166 169.597 -76.866 170.425C-74.1558 170.683 -71.4327 170.781 -68.711 170.716C-66.0218 170.73 -62.8092 170.527 -61.1085 169.495C-59.6353 168.448 -58.2717 167.255 -57.0383 165.933C-53.5865 162.482 -50.0693 159.096 -46.5907 155.746ZM-62.2132 134.738C-56.8455 137.356 -51.0194 138.869 -45.0802 139.202L-44.9937 137.557C-45.4193 137.462 -45.8437 137.36 -46.2668 137.253C-46.9064 137.079 -47.6623 136.861 -48.36 136.657C-53.8115 135.016 -59.0038 132.613 -63.7832 129.52C-64.0585 129.322 -64.3338 129.142 -64.6091 128.962C-65.0025 128.704 -65.3958 128.447 -65.7892 128.139L-93.641 159.363L-92.1874 160.817C-92.1874 160.817 -93.8591 162.735 -93.8591 162.837L-92.856 163.462C-92.221 163.244 -82.7423 152.399 -74.5351 143.01L-74.5324 143.006L-74.5209 142.993C-71.2742 139.279 -68.2275 135.793 -66.0072 133.285C-65.3177 133.586 -64.6281 133.835 -63.9385 134.084L-63.9378 134.085C-63.363 134.293 -62.7881 134.5 -62.2132 134.738ZM-62.9401 124.621C-57.6354 129.388 -51.5219 133.152 -44.8981 135.742L-44.6467 130.965C-50.3197 128.66 -55.7358 125.759 -60.8032 122.31C-61.1555 122.054 -61.4651 121.838 -61.9551 121.496L-61.9553 121.496L-61.9575 121.494C-62.4985 121.116 -63.2593 120.585 -64.5391 119.679L-65.0188 122.775L-62.9401 124.621ZM-63.2744 118.879C-57.3796 123.001 -51.1189 126.57 -44.5718 129.542L-44.4239 126.731C-51.2238 123.499 -57.8728 119.957 -64.3501 116.117C-64.559 116.628 -64.5639 117.199 -64.3637 117.713C-64.1636 118.227 -63.7736 118.644 -63.2744 118.879ZM-52.927 120.876L-52.9263 120.876L-52.9252 120.877L-52.9247 120.877L-52.9246 120.877C-51.0419 121.855 -49.1807 122.822 -47.3569 123.818L-55.115 116.321C-57.9329 114.832 -60.6823 113.428 -63.2599 112.207C-63.4268 112.908 -63.3865 113.642 -63.1439 114.321C-62.9014 115 -62.4669 115.593 -61.8934 116.03C-58.893 117.778 -55.8844 119.34 -52.9288 120.875L-52.9286 120.875L-52.927 120.876ZM-62.6069 109.081L-58.1991 113.341L-63.6669 110.39L-85.6052 136.377C-92.1981 135.986 -98.6494 135.58 -105.895 135.116C-104.761 130.377 -101.534 125.159 -97.6967 120.158C-95.9732 118.047 -94.1186 116.047 -92.1438 114.169C-90.254 112.265 -87.7828 110.143 -85.9076 109.677C-84.1228 109.367 -82.3108 109.24 -80.5001 109.299C-75.4573 109.299 -70.4263 109.206 -65.4383 109.113H-65.4382H-65.4381H-65.438H-65.4379L-65.4354 109.113L-63.7105 109.081H-62.6069ZM-86.3539 137.264L-85.6052 136.377L-85.5442 136.381L-86.3001 137.268L-86.3539 137.264ZM-86.3539 137.264C-95.5475 136.67 -103.57 136.178 -104.005 136.395L-104.282 137.544C-104.165 137.587 -101.665 137.805 -101.665 137.805V139.797L-89.1056 140.524L-86.3539 137.264ZM-65.4235 108.002L-63.6905 108.034L-64.2767 107.468L-63.1506 106.448L-63.6669 106.727L-85.5297 80.7354C-89.8305 80.9884 -94.0227 81.2534 -98.4059 81.5306L-98.4166 81.5313L-98.4593 81.534C-100.859 81.6857 -103.317 81.8411 -105.881 82C-104.747 86.7825 -101.534 91.9575 -97.6821 96.958C-95.9587 99.0689 -94.1041 101.069 -92.1292 102.947C-90.254 104.851 -87.8264 106.974 -85.8931 107.439C-84.1082 107.749 -82.2962 107.876 -80.4855 107.817C-75.4388 107.817 -70.4154 107.91 -65.4257 108.002H-65.4254H-65.4252H-65.4251H-65.4249L-65.4235 108.002ZM-50.8147 95.2697L-59.4522 103.096C-60.7581 103.758 -62.036 104.39 -63.2744 104.982C-63.442 104.283 -63.4021 103.551 -63.1593 102.874C-62.9166 102.198 -62.4817 101.607 -61.908 101.174C-58.723 99.3513 -55.5149 97.6958 -52.336 96.0555L-52.3359 96.0554C-51.828 95.7933 -51.3209 95.5317 -50.8147 95.2697ZM-46.9656 91.782C-52.8026 94.6597 -58.5289 97.7585 -64.132 101.072C-64.341 100.561 -64.3459 99.9901 -64.1457 99.4761C-63.9455 98.9621 -63.5555 98.5446 -63.0563 98.3099C-57.0147 94.0857 -50.5888 90.4416 -43.8641 87.4256L-43.8385 88.9484L-46.9656 91.782ZM-60.5851 94.8793C-55.352 91.3225 -49.7537 88.3427 -43.8883 85.9894L-43.9709 81.0869C-50.8827 83.6848 -57.2487 87.5777 -62.722 92.568L-64.8007 94.4142L-64.321 97.5104C-63.0394 96.6026 -62.2782 96.0711 -61.7371 95.6933C-61.2471 95.3511 -60.9374 95.1349 -60.5851 94.8793ZM-46.2231 79.8632C-45.486 79.6774 -44.7447 79.5092 -44 79.3586L-44.0244 77.9081C-49.7291 78.1791 -56.304 79.306 -62.0969 82.4216C-62.4898 82.5689 -62.8812 82.7066 -63.2717 82.844L-63.2718 82.844L-63.2719 82.8441L-63.2719 82.8441L-63.272 82.8441L-63.272 82.8441C-64.1531 83.1541 -65.0293 83.4623 -65.9055 83.8752C-68.2023 81.2818 -71.3687 77.6582 -74.7245 73.8177L-74.7252 73.817C-82.881 64.4836 -92.1551 53.8702 -92.7834 53.654L-93.7864 54.2791C-93.7428 54.3808 -92.1147 56.2996 -92.1147 56.2996L-93.5683 57.7533L-65.6729 88.9775C-65.255 88.6505 -64.8371 88.3802 -64.4192 88.1099C-64.1684 87.9477 -63.9176 87.7856 -63.6669 87.6111C-58.9146 84.5121 -53.7461 82.104 -48.3164 80.4592C-47.6768 80.2557 -46.9209 80.0376 -46.2231 79.8632ZM-65.6584 82.1454C-58.945 78.6856 -51.5651 76.757 -44.0485 76.4781L-44.2663 63.5435L-44.8858 62.9137C-45.4273 62.3919 -45.9698 61.8696 -46.5131 61.3466L-46.5133 61.3464L-46.5145 61.3452C-49.9816 58.0073 -53.479 54.6404 -56.922 51.1973C-58.1554 49.8762 -59.519 48.683 -60.9922 47.6359C-62.6929 46.6038 -65.9055 46.4148 -68.5947 46.4148C-71.3164 46.3503 -74.0395 46.4473 -76.7497 46.7056C-82.9567 47.5341 -88.9748 48.9587 -93.1322 51.5026C-91.6856 53.1398 -90.2885 54.7237 -88.922 56.273L-88.9183 56.2771L-88.9182 56.2773C-81.3197 64.8918 -74.6635 72.4381 -65.6584 82.1454ZM-45.8928 60.4598C-45.3582 61.0151 -44.8241 61.5699 -44.2902 62.1239L-44.3036 61.3292L-43.1229 61.3882L-43.2723 61.3438L-40.365 27.4448C-44.4479 23.8048 -48.452 20.2832 -52.7834 16.4738C-53.7105 15.6584 -54.6526 14.8298 -55.6137 13.984C-58.1576 18.1415 -59.5676 24.1014 -60.3962 30.3521C-60.6544 33.0671 -60.7515 35.7951 -60.6869 38.5216C-60.7014 41.1963 -60.4979 44.4088 -59.4658 46.1096C-58.4225 47.5857 -57.229 48.9497 -55.9044 50.1798C-52.5114 53.5852 -49.1921 57.0329 -45.8928 60.4598ZM18.0286 150.554L0.425003 168.739L-16.539 149.972L-41.847 150.409L-40.5678 125.13L-58.7674 107.541L-39.9863 90.5765L-40.4224 65.2831L-15.1581 66.5478L2.43105 48.3627L19.3951 67.1293L44.6885 66.6931L43.4093 91.9575L61.6089 109.547L42.8423 126.583L43.2785 151.877L18.0286 150.554ZM0.409576 72.5806L-29.9861 80.2995L0.278748 89.5882C1.09902 89.8527 1.9647 89.9467 2.82262 89.8644L33.9015 79.8052L3.66573 72.6969C3.06093 72.455 2.41251 72.3411 1.76147 72.3626C1.30312 72.3745 0.848442 72.4479 0.409576 72.5806ZM-14.9129 86.5066L-1.48126 92.1904C-0.568283 92.4726 0.383293 92.6099 1.33881 92.5974C2.22099 92.5848 3.09697 92.4478 3.94083 92.1904L18.7099 86.3758L18.8407 94.7779C17.253 96.4551 15.4079 97.8684 13.375 98.9644C9.70765 100.842 5.61488 101.734 1.49872 101.552C-3.26318 101.638 -7.93149 100.224 -11.8457 97.5107C-12.9015 96.7345 -13.8756 95.8529 -14.753 94.8796C-14.753 92.8034 -14.8018 90.7272 -14.8507 88.645C-14.8672 87.9427 -14.8837 87.2397 -14.8984 86.5357L-14.9129 86.5066ZM-9.76455 104.226C-12.1651 102.823 -14.4283 101.198 -16.524 99.3706L-16.4804 99.4288C-17.2986 101.86 -17.2003 104.507 -16.2042 106.871L-16.1933 106.891C-15.7712 107.648 -15.0967 108.858 -11.4217 111.654C-8.92417 113.555 -7.21687 114.558 -5.87328 115.348C-4.37036 116.231 -3.32256 116.847 -2.13292 118.152C-0.269173 120.277 0.950996 122.889 1.3849 125.682C1.40626 125.851 1.4891 126.007 1.61771 126.119C1.74632 126.232 1.91177 126.293 2.08265 126.292C2.22449 126.283 2.36066 126.233 2.47433 126.148C2.58801 126.063 2.6742 125.946 2.72225 125.812C3.42548 122.858 4.82052 120.113 6.79246 117.803C8.77451 115.477 11.26 113.633 14.0607 112.41C14.3805 112.323 20.0642 110.302 21.1109 105.054C21.4553 103.193 21.2061 101.271 20.3986 99.5596C18.473 101.679 16.1838 103.436 13.6391 104.749C12.4585 105.359 11.4204 105.762 10.4486 106.14L10.4485 106.14C8.82397 106.772 7.3848 107.332 5.7749 108.659C4.29135 109.88 3.07004 111.388 2.18441 113.093C0.998077 111.462 -0.399994 109.995 -1.97301 108.732C-3.65904 107.389 -5.04989 106.689 -6.67229 105.873C-7.59566 105.408 -8.59405 104.906 -9.76455 104.226ZM-34.4492 98.9638C-33.5334 100.417 -32.167 102.612 -30.5825 105.316C-28.6754 108.591 -27.4335 110.954 -26.5696 112.598L-26.5693 112.599C-26.1757 113.348 -25.8605 113.947 -25.5965 114.416C-23.6341 117.89 -19.8837 122.469 -11.9468 126.859C-11.7982 125.745 -11.9488 124.611 -12.3829 123.574C-12.906 122.46 -13.7008 121.495 -14.6942 120.768C-16.2208 119.455 -17.2421 118.762 -18.0368 118.223L-18.0369 118.223C-18.5967 117.843 -19.0442 117.539 -19.4767 117.149C-20.7414 116.015 -22.1078 113.936 -22.2968 109.881C-20.9594 110.651 -19.0115 111.799 -16.6566 113.224C-10.5368 116.974 -7.48415 118.85 -5.89967 120.492C-2.69492 123.94 -0.611664 128.279 0.0748062 132.935C0.724213 136.896 0.410088 140.955 -0.840988 144.768C-4.51694 143.46 -8.0368 141.749 -11.3363 139.666C-18.6292 135.043 -24.6308 128.646 -28.78 121.074C-32.4391 114.274 -34.385 106.685 -34.4492 98.9638ZM33.7862 105.316C35.3707 102.612 36.7371 100.417 37.6529 98.9638C37.5899 106.671 35.6596 114.247 32.0273 121.045C27.8797 128.618 21.8777 135.015 14.5836 139.637C11.2719 141.733 7.73714 143.454 4.04469 144.768C2.77872 140.958 2.4643 136.895 3.12888 132.935C3.81535 128.279 5.89861 123.94 9.10336 120.492C10.6878 118.85 13.7405 116.974 19.8603 113.224C22.2007 111.799 24.1631 110.651 25.4859 109.881C25.297 113.936 23.7416 116.204 22.6804 117.149C22.2501 117.532 21.8079 117.831 21.2616 118.201C20.4607 118.744 19.4362 119.438 17.8979 120.768C16.9046 121.499 16.1059 122.462 15.5721 123.574C15.1415 124.612 14.9959 125.746 15.1505 126.859C23.0874 122.469 26.8378 117.89 28.7857 114.416C29.0474 113.951 29.3609 113.358 29.7519 112.617C30.6206 110.973 31.8716 108.604 33.7862 105.316Z" fill="#1268B3" fill-opacity="0.05"/>
</svg>
