<svg width="109" height="217" viewBox="0 0 109 217" fill="none" xmlns="http://www.w3.org/2000/svg">
<path fill-rule="evenodd" clip-rule="evenodd" d="M209.304 120.158C205.955 115.949 202.042 112.222 197.675 109.081C197.675 109.081 197.341 108.733 197.123 108.558C197.341 108.384 197.675 108.035 197.675 108.035C202.045 104.898 205.959 101.17 209.304 96.958C213.136 92.4127 215.916 87.0765 217.445 81.3314C216.779 81.1806 216.104 81.0786 215.424 81.0261L215.715 78.8311C214.8 78.6884 213.878 78.5962 212.953 78.5549V76.4326C212.953 76.4326 210.961 76.2 209.958 76.2V73.6416C208.117 72.6814 206.331 71.6186 204.609 70.4581L204.856 70.1819C204.403 69.6257 203.918 69.0965 203.402 68.5974C203.796 66.2941 204.35 64.0209 205.059 61.7944L203.242 59.9773C203.969 59.2796 205.219 57.6951 205.219 57.6951L203.766 56.2415C204.551 55.3402 204.987 54.7878 205.525 54.0901L203.766 52.7527C204.206 52.2346 204.61 51.6856 204.972 51.1101C199.832 48.122 194.093 46.31 188.168 45.8043C182.848 45.1902 177.468 45.3027 172.178 46.1387C171.921 46.1236 171.664 46.1236 171.408 46.1387V45.3682C172.255 40.0793 172.373 34.699 171.757 29.3781C171.251 23.4536 169.439 17.7147 166.451 12.574C165.873 12.9329 165.323 13.3362 164.808 13.7805L163.471 12.0216C162.723 12.5689 162.004 13.156 161.319 13.7805L159.866 12.3269C159.866 12.3269 158.281 13.577 157.583 14.2893L155.737 12.3996C153.76 13.0322 151.745 13.542 149.705 13.9259V13.577C148.991 13.4878 148.272 13.4587 147.553 13.4898C146.209 11.5771 144.995 9.57618 143.919 7.50076H141.201C141.201 6.49775 140.983 4.49176 140.983 4.49176H138.861C138.815 3.56642 138.718 2.64431 138.57 1.7298L136.389 2.02054C136.337 1.34049 136.235 0.665205 136.084 0C130.342 1.52986 125.007 4.30403 120.457 8.12587C116.25 11.4818 112.519 15.394 109.366 19.755C109.366 19.755 109.032 20.1039 108.857 20.3219C108.683 20.1039 108.334 19.755 108.334 19.755C105.186 15.3943 101.46 11.4821 97.2572 8.12587C92.7055 4.3068 87.3711 1.53297 81.6306 0C81.4748 0.664811 81.3679 1.34012 81.3108 2.02054L79.1303 1.7298C78.9805 2.64374 78.8882 3.56624 78.8541 4.49176H76.7609C76.7609 4.49176 76.5283 6.49775 76.5428 7.50076H73.9699C72.8994 9.57926 71.6851 11.5805 70.3358 13.4898C69.6175 13.459 68.8978 13.4882 68.1844 13.577V13.9259C66.1484 13.5433 64.1385 13.0336 62.1663 12.3996L60.3492 14.2166C59.6369 13.5044 58.067 12.2542 58.067 12.2542L56.6134 13.7079C55.9237 13.0829 55.2006 12.4957 54.4474 11.949L53.1246 13.7079C52.6042 13.2635 52.0502 12.8601 51.4675 12.5013C48.495 17.6437 46.684 23.3743 46.1617 29.2909C45.561 34.6125 45.6783 39.9907 46.5105 45.281C46.4955 45.5376 46.4955 45.7948 46.5105 46.0514C46.254 46.0337 45.9966 46.0337 45.7401 46.0514C40.4511 45.2049 35.0709 45.0874 29.75 45.7025C23.8264 46.2125 18.0884 48.0243 12.9459 51.0084C13.3138 51.5839 13.7219 52.1328 14.167 52.651L12.4081 53.9883C12.9544 54.7372 13.5416 55.4554 14.167 56.1397L12.7133 57.5934C12.7133 57.5934 13.9634 59.1633 14.6757 59.8756L12.8587 61.6926C13.5649 63.9211 14.1234 66.1937 14.5304 68.4957C14.0074 68.9873 13.5215 69.5169 13.0767 70.0802L13.3093 70.3564C11.593 71.5137 9.81178 72.5717 7.97444 73.5253V76.0982C6.95688 76.0982 4.96539 76.3163 4.96539 76.3163V78.6131C4.03562 78.6552 3.10879 78.7474 2.18893 78.8893L2.4942 81.0843C1.81403 81.1357 1.13863 81.2377 0.473633 81.3895C1.99767 87.1336 4.77248 92.4697 8.5995 97.0162C11.9518 101.222 15.8646 104.949 20.2287 108.093C20.4065 108.279 20.5959 108.454 20.7956 108.616C20.5959 108.779 20.4065 108.954 20.2287 109.14C15.868 112.287 11.9557 116.014 8.5995 120.216C4.77248 124.763 1.99767 130.099 0.473633 135.843C1.13863 135.995 1.81403 136.097 2.4942 136.148L2.18893 138.343C3.10879 138.485 4.03562 138.577 4.96539 138.619V140.756C4.96539 140.756 6.95688 140.974 7.97444 140.974V143.547C9.81761 144.496 11.5994 145.559 13.3093 146.731L13.0767 146.992C13.5179 147.559 14.004 148.089 14.5304 148.577C14.125 150.879 13.5666 153.152 12.8587 155.38L14.5594 157.11C13.8472 157.822 12.597 159.392 12.597 159.392L14.0507 160.846C13.4253 161.53 12.8381 162.248 12.2918 162.997L14.0507 164.334C13.6056 164.853 13.1975 165.402 12.8296 165.977C17.9721 168.961 23.7101 170.773 29.6337 171.283C34.9547 171.898 40.3348 171.781 45.6238 170.934C45.8755 170.952 46.1281 170.952 46.3797 170.934V171.704C45.5455 176.995 45.4282 182.373 46.0308 187.695C46.5436 193.618 48.3552 199.355 51.3366 204.499C51.9226 204.145 52.477 203.741 52.9938 203.292L54.3166 205.051C55.0698 204.504 55.7928 203.917 56.4825 203.292L57.9362 204.746C57.9362 204.746 59.5061 203.496 60.2184 202.783L62.0355 204.6C64.0076 203.966 66.0176 203.457 68.0535 203.074V203.437C68.7679 203.514 69.487 203.539 70.2049 203.51C71.5542 205.419 72.7686 207.421 73.8391 209.499H76.412C76.412 210.502 76.63 212.508 76.63 212.508H78.7669C78.801 213.434 78.8932 214.356 79.0431 215.27L81.2235 214.979C81.2807 215.66 81.3876 216.335 81.5434 217C87.2862 215.473 92.6217 212.698 97.17 208.874C101.372 205.518 105.099 201.606 108.247 197.245C108.247 197.245 108.596 196.896 108.77 196.678C108.929 196.876 109.099 197.066 109.279 197.245C112.431 201.602 116.157 205.514 120.356 208.874C124.909 212.699 130.25 215.473 135.997 217C136.148 216.335 136.25 215.659 136.302 214.979L138.483 215.27C138.631 214.356 138.728 213.434 138.773 212.508H140.896C140.896 212.508 141.128 210.502 141.114 209.499H143.687C144.757 207.421 145.971 205.419 147.321 203.51C148.039 203.538 148.758 203.514 149.472 203.437V203.074C151.513 203.458 153.527 203.968 155.505 204.6L157.322 202.783C158.02 203.496 159.604 204.746 159.604 204.746L161.058 203.292C161.739 203.921 162.457 204.508 163.209 205.051L164.532 203.292C165.051 203.738 165.605 204.141 166.189 204.499C169.242 199.396 171.133 193.683 171.727 187.767C172.343 182.446 172.225 177.066 171.379 171.777V171.007C171.635 171.025 171.892 171.025 172.149 171.007C177.438 171.855 182.818 171.972 188.139 171.356C194.063 170.847 199.801 169.036 204.943 166.05C204.572 165.463 204.159 164.905 203.708 164.378L205.467 163.041C204.929 162.299 204.493 161.791 203.708 160.889L205.161 159.436C205.161 159.436 203.911 157.866 203.184 157.153L205.001 155.336C204.29 153.11 203.737 150.837 203.344 148.533C203.863 148.038 204.349 147.508 204.798 146.949L204.144 146.178L204.027 146.062L202.399 144.027C204.623 143.838 206.629 143.649 208.214 143.475C208.054 143.62 205.714 145.045 204.056 146.033L204.173 146.149L204.58 146.658C206.295 145.487 208.082 144.424 209.929 143.475V140.902C210.932 140.902 212.924 140.684 212.924 140.684V138.547C213.849 138.513 214.772 138.42 215.686 138.271L215.38 136.09C216.065 136.027 216.745 135.92 217.415 135.77C215.883 130.026 213.104 124.691 209.275 120.144L209.304 120.158ZM211.964 77.3048V79.2963C211.964 79.2963 214.465 79.5143 214.566 79.5579L214.305 80.7063C213.854 80.9244 205.815 80.4446 196.599 79.8341L199.332 76.5925L211.964 77.3048ZM208.853 76.1273C208.708 76.2436 205.19 76.0256 200.132 75.6622L201.585 73.9905C204.054 74.1114 206.515 74.3686 208.955 74.7609L208.853 76.1273ZM204.973 71.6127L204.973 71.6132C206.46 72.5186 208.082 73.5073 208.214 73.6271C206.6 73.4381 204.594 73.2491 202.399 73.0601L204.056 71.0541L204.393 71.2593L204.973 71.6127ZM202.225 69.6004L202.234 69.6097L202.225 69.6441V69.6004ZM202.234 69.6097L202.894 70.3128L181.787 95.0247C181.013 95.9293 180.244 96.837 179.474 97.7448L179.473 97.7471L179.471 97.7494C177.93 99.5681 176.389 101.387 174.809 103.18C174.953 102.512 175.054 101.695 175.16 100.84L175.16 100.84L175.16 100.839L175.16 100.839L175.16 100.839L175.16 100.838L175.16 100.838L175.16 100.838L175.16 100.838V100.838C175.268 99.962 175.381 99.0461 175.551 98.2082C175.885 96.551 176.19 94.8503 176.19 94.8503C176.449 94.5097 178.364 92.3578 181.114 89.2679C187.638 81.9381 198.86 69.3301 203.809 63.1027C203.809 63.4085 202.36 69.1141 202.234 69.6097ZM203.519 61.7653C203.635 62.2886 183.037 85.8522 175.899 93.9199C170.341 89.0086 164.199 84.8002 157.613 81.3895C164.136 83.5024 170.269 86.6696 175.769 90.7655C180.943 85.4616 189.188 75.9467 195.144 69.0722L195.145 69.0715L195.145 69.0712L195.147 69.0689C199.229 64.3579 202.236 60.8877 202.443 60.8641L203.519 61.7653ZM159.677 13.6642L161.13 15.0307C161.13 15.0307 163.049 13.4026 163.151 13.3589L163.776 14.362C163.616 14.8417 157.583 20.1765 150.693 26.2673L150.344 22.0372L159.677 13.6642ZM155.752 13.9986L155.766 14.015C153.751 15.4367 151.824 16.9798 149.995 18.6357L150.184 20.8307C153.978 17.5309 156.639 15.2051 156.639 15.0161L155.766 14.015L155.81 13.984L155.752 13.9986ZM154.473 13.6933C153.193 14.6963 151.653 15.9755 149.952 17.4146L149.734 14.8126C151.594 14.3474 154.269 13.6933 154.473 13.6933ZM147.364 15.0307H148.338C148.68 19.3492 149.038 23.6729 149.396 27.9976C150.229 38.0409 151.062 48.0891 151.682 58.0876C151.313 57.5091 150.804 56.8551 150.271 56.1703C149.732 55.4784 149.169 54.7551 148.702 54.0465L146.768 51.2264C146.714 50.8049 146.554 48.0435 146.323 44.0605L146.323 44.06C145.758 34.3052 144.769 17.2238 143.861 9.24516C144.094 9.47774 147.379 14.9871 147.379 14.9871L147.364 15.0307ZM141.361 8.60555L142.713 8.50378C143.178 8.80905 145.271 40.0334 145.969 50.7322C138.56 51.1906 131.236 52.5626 124.164 54.8169C130.263 51.6835 136.841 49.5859 143.628 48.6098C143.512 41.4641 142.665 29.5088 142.029 20.5239C141.555 13.8264 141.197 8.77938 141.346 8.60555H141.361ZM75.1473 8.50378L76.5137 8.60555C76.6547 8.77713 76.3048 13.6969 75.8376 20.2654L75.8375 20.2674L75.8374 20.2679L75.8374 20.2687C75.1964 29.2813 74.3347 41.3963 74.217 48.6098C81.0089 49.5859 87.5914 51.6835 93.6958 54.8169C86.6232 52.5642 79.2997 51.1922 71.8912 50.7322C72.5744 40.0334 74.6822 8.80905 75.1328 8.50378H75.1473ZM69.5072 15.0307H70.4666C70.4666 15.0307 73.7664 9.52135 73.9844 9.28876C73.0457 17.442 72.0304 35.116 71.4772 44.7459L71.4772 44.747L71.4771 44.7483L71.477 44.75L71.477 44.7506C71.268 48.3899 71.125 50.8793 71.0771 51.27L69.1438 54.0901C68.6886 54.8013 68.143 55.5125 67.6261 56.1862L67.6259 56.1865L67.6257 56.1867L67.6255 56.1869L67.6254 56.1871L67.6254 56.1871C67.086 56.8901 66.5779 57.5523 66.2365 58.1312C66.8483 48.2618 67.6747 38.3439 68.5007 28.4301C68.8718 23.9757 69.2429 19.5222 69.5944 15.0743L69.5072 15.0307ZM68.1408 14.8126L67.9227 17.4146C66.2074 15.961 64.6665 14.6963 63.3873 13.6933C63.6054 13.6933 66.2946 14.3474 68.1408 14.8126ZM62.05 13.9695C64.0781 15.4094 66.0197 16.9675 67.8646 18.6357L67.6901 20.8162C63.8816 17.5164 61.236 15.1905 61.2214 15.0016L62.05 13.9695ZM54.6509 13.3444C54.7672 13.3444 56.686 15.0161 56.686 15.0161L58.1397 13.6351L67.4866 21.9209L67.0651 26.1801C60.1312 20.0893 54.0986 14.7545 53.9823 14.2748L54.6509 13.3444ZM15.2717 60.7769C15.504 60.7769 18.8923 64.6866 23.3664 69.8492C29.2517 76.6403 37.0158 85.5993 41.9461 90.6783C47.442 86.5768 53.5762 83.4091 60.1021 81.3023C53.5155 84.713 47.3737 88.9214 41.8153 93.8327C34.7215 85.7795 14.196 62.2014 14.196 61.6781L15.2717 60.7769ZM13.9489 63.0154C18.8982 69.243 30.1202 81.8511 36.6441 89.1808L36.6451 89.1819L36.6455 89.1823L36.6472 89.1843C39.3957 92.2722 41.3096 94.4226 41.5681 94.763C41.5681 94.763 41.9025 96.6237 42.1932 98.121C42.328 98.815 42.4346 99.6433 42.5407 100.467L42.5407 100.467C42.6634 101.42 42.7853 102.367 42.9491 103.092C41.1556 101.057 39.4037 98.9879 37.6556 96.9235C37.0943 96.2606 36.5334 95.5982 35.9716 94.9375L14.8647 70.2255L15.5189 69.5132C15.5189 69.5132 13.9489 63.2916 13.9344 62.9718L13.9489 63.0154ZM13.6873 71.025L13.6921 71.0308C12.05 72.0191 9.70399 73.4384 9.55891 73.5835C11.1579 73.409 13.1494 73.22 15.3735 73.0311L13.6921 71.0308L13.7018 71.025H13.6873ZM16.173 73.9323L17.6412 75.7058C12.6116 76.0546 9.09374 76.2872 8.91931 76.1709L8.81755 74.8045C11.253 74.4104 13.7087 74.1532 16.173 74.0341V73.9323ZM5.75036 79.3399V77.3484L18.3098 76.6216L21.0572 79.8777C11.8411 80.4737 3.78794 80.968 3.35185 80.7499L3.07566 79.6015C3.19195 79.6015 5.69221 79.3399 5.69221 79.3399H5.75036ZM13.6436 146.077C12.001 145.088 9.64613 143.664 9.50077 143.518C11.1143 143.693 13.1058 143.882 15.3153 144.071L13.6436 146.077ZM8.7594 142.37L8.86116 141.003C8.99199 140.887 12.5098 141.105 17.583 141.469L16.1294 143.14C13.6651 143.021 11.2094 142.764 8.77394 142.37H8.7594ZM15.4898 147.588L14.8356 146.876L35.9425 122.164C36.56 121.438 37.1763 120.71 37.793 119.981C39.485 117.982 41.1797 115.98 42.9055 114.009C42.7618 114.677 42.6607 115.495 42.5549 116.35C42.4466 117.226 42.3332 118.143 42.1641 118.981C41.8298 120.638 41.5391 122.339 41.5391 122.339C41.2885 122.663 39.5341 124.633 36.9875 127.493L36.9866 127.494L36.9863 127.494L36.9857 127.495C30.5218 134.753 18.9561 147.74 13.9198 154.101C13.9198 153.766 15.5043 147.545 15.5043 147.545L15.4898 147.588ZM14.2106 155.424C14.1088 154.9 34.6924 131.322 41.8298 123.269C47.3882 128.18 53.53 132.389 60.1166 135.799C53.5907 133.693 47.4565 130.525 41.9606 126.423C36.8301 131.691 28.6816 141.093 22.7374 147.951L22.7369 147.952C18.5763 152.753 15.4958 156.307 15.2863 156.325L14.2106 155.424ZM58.0961 203.626L56.6424 202.245C56.6424 202.245 54.7236 203.874 54.6073 203.917L53.9823 202.914C54.1567 202.449 60.1748 197.1 67.0651 191.009L67.4285 195.239L58.0961 203.626ZM62.0064 203.292L61.9843 203.266C63.9961 201.829 65.9253 200.28 67.7628 198.626L67.5884 196.445C63.7798 199.745 61.1197 202.071 61.1197 202.26L61.9843 203.266L61.9482 203.292H62.0064ZM63.2856 203.568C64.5648 202.565 66.1057 201.286 67.821 199.847L68.039 202.449C66.1638 202.914 63.5036 203.568 63.2856 203.568ZM70.3939 202.231H69.4345C69.083 197.783 68.7119 193.329 68.3408 188.875L68.3408 188.875L68.3407 188.874L68.3407 188.874L68.3407 188.874L68.3407 188.873C67.5147 178.96 66.6884 169.043 66.0766 159.174C66.4032 159.68 66.84 160.251 67.2997 160.852C67.8834 161.615 68.5041 162.426 68.9839 163.215L70.9172 166.035C70.972 166.457 71.1319 169.218 71.3625 173.201L71.3625 173.202C71.9273 182.957 72.9162 200.038 73.8245 208.016C73.6065 207.784 70.3067 202.275 70.3067 202.275L70.3939 202.231ZM76.3248 208.656L74.9729 208.758C74.5223 208.453 72.4145 177.228 71.7313 166.529C79.1398 166.069 86.4632 164.697 93.5359 162.445C87.4297 165.577 80.8483 167.679 74.0571 168.666C74.1737 175.802 75.0199 187.749 75.6561 196.731C76.1306 203.432 76.4884 208.482 76.3393 208.656H76.3248ZM142.538 208.758L141.186 208.656C141.037 208.482 141.395 203.431 141.87 196.731C142.506 187.749 143.352 175.802 143.469 168.666C136.682 167.679 130.105 165.577 124.004 162.445C131.077 164.699 138.4 166.071 145.809 166.529C145.111 177.228 143.018 208.453 142.553 208.758H142.538ZM148.193 202.231H147.219C147.219 202.231 143.934 207.74 143.701 207.973C144.64 199.818 145.655 182.14 146.209 172.511V172.511L146.209 172.509C146.418 168.871 146.561 166.382 146.608 165.992L148.542 163.172C149.048 162.381 149.665 161.59 150.243 160.851L150.243 160.851L150.245 160.849L150.245 160.848C150.729 160.23 151.184 159.647 151.522 159.13C150.924 168.781 150.12 178.478 149.317 188.172L149.317 188.176L149.316 188.181L149.316 188.185L149.316 188.19L149.315 188.194C148.929 192.861 148.542 197.527 148.178 202.187L148.193 202.231ZM149.632 202.449L149.85 199.847C151.551 201.301 153.092 202.565 154.371 203.568C154.167 203.568 151.464 202.914 149.632 202.449ZM155.708 203.292C153.683 201.848 151.742 200.29 149.894 198.626L150.083 196.445C153.877 199.745 156.522 202.071 156.537 202.26L155.708 203.292ZM163.107 203.917C163.006 203.917 161.087 202.245 161.087 202.245L159.633 203.626L150.243 195.239L150.591 191.009C157.54 197.085 163.572 202.449 163.674 202.914L163.107 203.917ZM202.443 156.412C202.218 156.412 198.852 152.529 194.401 147.392C188.51 140.595 180.718 131.603 175.783 126.511C170.28 130.61 164.142 133.777 157.613 135.887C164.206 132.48 170.353 128.271 175.914 123.356C182.993 131.409 203.533 154.988 203.533 155.511L202.443 156.412ZM202.835 146.92L202.181 147.632C202.181 147.632 203.751 153.854 203.766 154.188C198.806 147.937 187.547 135.286 181.029 127.962L181.027 127.96L181.027 127.96C178.3 124.896 176.404 122.765 176.146 122.426C176.146 122.426 175.812 120.58 175.507 119.068C175.357 118.324 175.245 117.435 175.136 116.565L175.136 116.565L175.136 116.564L175.136 116.564L175.136 116.564L175.136 116.563C175.023 115.667 174.913 114.79 174.766 114.111C182.215 122.53 189.512 131.164 196.819 139.809C198.822 142.18 200.827 144.551 202.835 146.92ZM201.542 143.184L200.088 141.512C205.103 141.163 208.621 140.931 208.81 141.047L208.912 142.414C206.471 142.806 204.011 143.063 201.542 143.184ZM196.614 137.369L196.652 137.367L199.405 140.626L211.979 139.899V137.907C211.979 137.907 214.479 137.66 214.581 137.66L214.319 136.497C213.869 136.294 205.852 136.772 196.652 137.367L196.481 137.164L195.974 136.381C202.588 135.988 208.984 135.581 216.253 135.116C215.119 130.334 211.906 125.159 208.069 120.158C206.339 118.053 204.479 116.057 202.501 114.184C200.626 112.265 198.198 110.143 196.265 109.677C194.485 109.367 192.678 109.24 190.872 109.299C185.805 109.299 180.749 109.206 175.748 109.113L174.053 109.081H174.048L174.635 109.648L173.325 110.83L173.951 110.491L196.481 137.164L196.614 137.369ZM160.653 122.255L169.405 114.364C170.826 113.64 172.215 112.951 173.559 112.309C173.724 113.008 173.684 113.741 173.444 114.419C173.205 115.096 172.775 115.691 172.207 116.132C169.094 117.9 165.963 119.515 162.862 121.114C162.124 121.494 161.387 121.874 160.653 122.255ZM154.095 128.168L156.949 125.595C163.366 122.459 169.888 119.133 174.417 116.219C174.626 116.729 174.631 117.301 174.43 117.815C174.23 118.329 173.84 118.746 173.341 118.981C167.292 123.21 160.858 126.858 154.125 129.876L154.095 128.168ZM154.234 136.118L154.15 131.316C160.029 128.961 165.64 125.976 170.884 122.411L174.635 119.78L175.1 122.877C174.766 123.182 173.385 124.417 173.021 124.723C167.533 129.691 161.154 133.555 154.234 136.118ZM156.377 137.355C155.676 137.534 154.972 137.697 154.263 137.843L154.287 139.19C160.018 138.935 166.66 137.805 172.498 134.666C172.907 134.51 173.318 134.366 173.73 134.221L173.73 134.221C174.59 133.918 175.451 133.615 176.306 133.212C178.626 135.831 181.831 139.5 185.224 143.382C193.356 152.689 202.559 163.222 203.184 163.448L204.187 162.808C204.144 162.706 202.516 160.788 202.516 160.788L203.882 159.334L176.03 128.11C175.63 128.439 175.223 128.703 174.815 128.969C174.557 129.136 174.298 129.305 174.039 129.491C169.223 132.638 163.986 135.09 158.485 136.773L158.289 136.83C157.685 137.005 157.019 137.198 156.377 137.355ZM176.088 135.014C169.32 138.478 161.881 140.388 154.312 140.625L154.535 153.493L155.301 154.246C159.313 158.098 163.354 161.98 167.337 165.963C168.576 167.284 169.944 168.477 171.422 169.524C173.108 170.556 176.321 170.745 179.01 170.745C181.737 170.809 184.465 170.712 187.18 170.454C193.372 169.626 199.39 168.216 203.548 165.657C202.244 164.179 200.98 162.745 199.742 161.34C191.984 152.534 185.252 144.893 176.088 135.014ZM174.068 108.035H172.964L168.559 103.781L174.01 106.727L195.974 80.7354C200.552 81.007 205.061 81.2926 209.789 81.5922L209.799 81.5928L209.804 81.5931C211.902 81.726 214.043 81.8616 216.253 82C215.119 86.7389 211.892 91.9575 208.069 96.958C206.336 99.0652 204.476 101.065 202.501 102.947C200.611 104.851 198.14 106.974 196.265 107.453C194.484 107.751 192.677 107.873 190.872 107.817C185.834 107.817 180.831 107.91 175.852 108.002L175.851 108.002L175.03 108.017L174.068 108.035ZM173.617 104.909C171.033 103.685 168.279 102.277 165.456 100.785L157.917 93.5046C159.459 94.3205 161.015 95.1225 162.578 95.9283L162.582 95.9307L162.583 95.9312C165.794 97.5866 169.037 99.2585 172.265 101.101C172.835 101.537 173.266 102.129 173.506 102.805C173.746 103.481 173.785 104.212 173.617 104.909ZM174.475 100.999C168.084 97.207 161.525 93.7079 154.818 90.5124L154.764 90.4602L154.911 87.6715C161.38 90.6244 167.569 94.1607 173.399 98.2373C173.898 98.4719 174.288 98.8894 174.488 99.4034C174.689 99.9174 174.684 100.489 174.475 100.999ZM171.044 94.8067C166.007 91.3863 160.624 88.5124 154.987 86.2312L155.24 81.4221C161.824 84.008 167.903 87.7554 173.181 92.4953C173.544 92.8006 174.925 94.0362 175.26 94.3415L174.795 97.4378L171.044 94.8067ZM156.551 79.8632C156.151 79.7613 155.746 79.6643 155.337 79.5722L155.428 77.8494C160.843 78.2058 166.932 79.4049 172.352 82.3198C172.873 82.5294 173.397 82.7168 173.921 82.9044C174.669 83.1721 175.417 83.4401 176.161 83.7735C178.457 81.1807 181.623 77.5582 184.978 73.7188L184.98 73.7161L184.981 73.7155C193.136 64.382 202.411 53.7685 203.039 53.5522L204.042 54.1773C204.042 54.2791 202.37 56.1978 202.37 56.1978L203.737 57.6515L176.088 88.9775C175.694 88.6618 175.294 88.3989 174.891 88.1347L174.891 88.1345C174.627 87.9609 174.362 87.7867 174.097 87.5966C169.308 84.5006 164.106 82.0977 158.645 80.4592C157.947 80.2557 157.191 80.0376 156.551 79.8632ZM175.958 81.9855C169.59 78.7115 162.625 76.8033 155.506 76.3661L156.218 62.841L155.064 62.861L155.156 62.7683C159.168 58.9162 163.224 55.0204 167.207 51.0374C168.445 49.7158 169.813 48.5226 171.291 47.476C172.978 46.4439 176.19 46.2404 178.879 46.2549C181.606 46.1903 184.334 46.2874 187.049 46.5457C193.299 47.3742 199.259 48.7988 203.417 51.3427C202.118 52.8153 200.858 54.2449 199.625 55.6449L199.611 55.6604L199.61 55.6614C191.853 64.4668 185.121 72.1073 175.958 81.9855ZM154.487 61.9979L153.599 62.8865L147.239 62.9969L153.571 61.1112L150.664 27.2122C152.438 25.6472 154.2 24.0821 155.982 22.4996C159.166 19.6725 162.413 16.7897 165.898 13.7515C168.442 17.9089 169.867 23.927 170.681 30.1195C170.952 32.8337 171.054 35.5621 170.986 38.289C170.986 40.9637 170.797 44.1762 169.765 45.877C168.714 47.3516 167.521 48.7197 166.204 49.9617C162.478 53.6738 158.841 57.4621 155.234 61.2197L155.233 61.2209L154.487 61.9979ZM152.089 60.0791C149.235 61.0799 146.111 62.0808 142.88 63.0727L132.415 63.2544C134.34 62.6701 136.262 62.0571 138.194 61.4409C141.552 60.3697 144.939 59.2892 148.426 58.3347C149.14 58.2379 149.866 58.3514 150.517 58.6612C151.168 58.971 151.714 59.4637 152.089 60.0791ZM149.937 56.6921C142.693 58.5326 135.538 60.7065 128.495 63.2065L126.614 61.124C133.295 58.6261 140.192 56.7434 147.219 55.5001C148.498 55.3111 149.007 55.2966 149.937 56.6921ZM143.105 54.7588C137.107 55.8945 131.25 57.6647 125.632 60.0375L122.413 56.4747C128.914 53.6335 135.883 51.9803 142.989 51.6044L145.765 51.4444L147.611 53.9593L143.105 54.7588ZM122.304 54.4244C121.926 54.648 121.552 54.8772 121.182 55.112L120.131 53.9487C124.227 50.334 129.469 46.7789 135.415 44.9903C135.877 44.7941 136.324 44.5863 136.771 44.3789C137.55 44.0177 138.326 43.6577 139.166 43.3622C138.96 39.996 138.647 35.356 138.314 30.4171C137.473 17.9526 136.505 3.5838 136.796 2.97995L137.945 2.70376C137.945 2.82005 138.206 5.3203 138.206 5.3203H140.198L142.582 47.0981C142.08 47.15 141.619 47.2482 141.157 47.3469C140.843 47.414 140.527 47.4812 140.198 47.5341C134.621 48.7104 129.238 50.6679 124.208 53.3487L122.304 54.4244ZM137.77 42.272C130.883 44.4733 124.548 48.0927 119.167 52.8824L110.079 42.8243L109.468 43.4545V43.3912C109.584 37.8238 109.7 32.2128 109.7 26.5726C109.644 24.7674 109.766 22.9609 110.064 21.1796C110.529 19.2462 112.666 16.8187 114.57 14.9435C116.452 12.9682 118.452 11.1089 120.559 9.37598C125.56 5.53836 130.735 2.3258 135.517 1.19195C135.632 3.01489 135.745 4.78682 135.855 6.52347C136.612 18.4136 137.263 28.6495 137.77 42.272ZM108.436 43.3622V44.5184L99.4815 53.7494C93.9746 48.5534 87.3752 44.6279 80.1479 42.272C80.6552 28.6507 81.3063 18.4154 82.0627 6.52655L82.0628 6.52463L82.0629 6.52443C82.1734 4.78747 82.2861 3.01522 82.401 1.19195C87.1399 2.3258 92.3585 5.55289 97.359 9.37598C99.4645 11.1056 101.46 12.965 103.333 14.9435C105.252 16.8332 107.375 19.3044 107.84 21.1796C108.145 22.9601 108.267 24.7672 108.203 26.5726C108.203 31.2092 108.292 35.836 108.38 40.4284C108.399 41.408 108.418 42.386 108.436 43.3622ZM82.4591 45.1938C88.7741 47.093 94.2457 50.9599 98.4625 54.7999L97.4739 55.8189C96.8498 55.4062 96.2153 55.0091 95.571 54.6279L93.6813 53.5522C88.6503 50.8737 83.2676 48.9163 77.6912 47.7377C77.3636 47.685 77.0478 47.6182 76.7323 47.5515C76.264 47.4525 75.7965 47.3537 75.2927 47.3015L77.6912 5.52383H79.6827C79.6827 5.52383 79.8862 3.02358 79.9298 2.90729L81.0927 3.18344C81.3721 3.78361 80.414 17.9816 79.5765 30.3927L79.5763 30.3958C79.2373 35.4186 78.9181 40.1485 78.7088 43.5657C79.549 43.8612 80.3248 44.2212 81.1031 44.5824C81.55 44.7898 81.9978 44.9976 82.4591 45.1938ZM74.8857 51.8079C82.2959 52.1794 89.5546 53.9651 96.2738 57.0561L92.9185 60.5152C87.0914 58.0134 81.0062 56.1507 74.7694 54.9623L70.2631 54.1628L72.1237 51.648L74.8857 51.8079ZM70.6556 55.7036C77.9067 56.9859 85.0199 58.9481 91.9012 61.5638L90.7893 62.7102L86.5962 62.5005C79.9473 60.2183 73.1296 58.0143 67.9518 56.8956C68.8821 55.442 69.4054 55.442 70.6556 55.7036ZM69.8904 61.6652L81.594 62.2504C80.9783 62.0548 80.362 61.8581 79.7446 61.661C76.3718 60.5843 72.9677 59.4976 69.4636 58.5382C68.7495 58.4415 68.0227 58.5549 67.3721 58.8647C66.7215 59.1745 66.1754 59.6673 65.8004 60.2826C67.1112 60.7438 68.4798 61.205 69.8904 61.6652ZM154.562 155.02L155.272 155.76C158.881 159.52 162.521 163.311 166.262 167.038C167.576 168.284 168.768 169.651 169.823 171.123C170.855 172.824 171.044 176.036 171.044 178.711C171.112 181.438 171.01 184.166 170.739 186.88C169.925 193.131 168.5 199.106 165.956 203.248C164.168 201.671 162.443 200.152 160.757 198.669C157.316 195.642 154.039 192.758 150.722 189.802L153.63 155.889L153.028 155.71L154.575 155.787L154.562 155.02ZM147.549 155.436C149.119 155.944 150.639 156.454 152.089 156.964C151.701 157.548 151.154 158.009 150.512 158.292C149.871 158.576 149.162 158.67 148.469 158.563C144.962 157.603 141.55 156.516 138.171 155.438L138.17 155.438L138.17 155.438L138.17 155.438L138.169 155.438L138.169 155.437L138.135 155.427C137.561 155.244 136.988 155.061 136.415 154.879L147.549 155.436ZM149.981 160.206C144.808 159.091 138.022 156.897 131.396 154.628L126.956 154.406L125.908 155.491C132.822 158.13 139.973 160.108 147.263 161.398C148.527 161.587 149.036 161.66 149.981 160.206ZM143.149 162.227C136.853 161.028 130.712 159.14 124.836 156.599L121.495 160.057C128.256 163.193 135.567 165.005 143.032 165.381L145.809 165.541L147.655 163.026L143.149 162.227ZM122.347 162.561C121.658 162.151 120.98 161.724 120.314 161.28L119.344 162.283C123.581 166.157 129.086 170.078 135.459 171.995C135.92 172.191 136.368 172.399 136.815 172.607L136.815 172.607L136.815 172.607L136.816 172.607L136.816 172.607L136.816 172.607C137.594 172.968 138.369 173.328 139.209 173.623C139.003 176.989 138.69 181.629 138.357 186.568V186.569L138.357 186.57L138.357 186.571C137.517 199.035 136.548 213.402 136.84 214.005L137.988 214.282C138.032 214.165 138.25 211.665 138.25 211.665H140.241L142.625 169.887C142.124 169.835 141.663 169.737 141.201 169.639L141.2 169.638C140.886 169.571 140.571 169.504 140.241 169.451C134.664 168.277 129.28 166.32 124.251 163.637L122.347 162.561ZM137.814 174.743C130.544 172.421 123.898 168.51 118.35 163.312L109.511 172.458V173.652C109.628 179.205 109.744 184.816 109.744 190.442C109.688 192.252 109.809 194.063 110.107 195.849C110.573 197.71 112.709 200.181 114.614 202.071C116.491 204.046 118.486 205.905 120.588 207.639C125.603 211.476 130.822 214.703 135.561 215.837C135.656 214.318 135.75 212.834 135.843 211.376L135.847 211.312L135.852 211.225V211.224C136.626 199.013 137.283 188.64 137.814 174.743ZM108.479 173.667V173.526L107.768 174.263L98.7006 164.258C93.3383 169.004 87.0376 172.595 80.1915 174.786C80.6872 188.097 81.3204 198.175 82.0458 209.722C82.1712 211.718 82.2994 213.758 82.4301 215.866C87.2271 214.732 92.4021 211.52 97.4026 207.682C99.5083 205.953 101.504 204.093 103.377 202.115C105.281 200.239 107.418 197.812 107.883 195.879C108.189 194.098 108.31 192.291 108.247 190.486C108.247 185.843 108.335 181.221 108.424 176.626C108.442 175.638 108.461 174.652 108.479 173.667ZM82.5318 172.068C88.4476 170.292 93.6497 166.775 97.7301 163.187L96.6691 162.016C96.3348 162.226 95.9978 162.432 95.6582 162.634C95.2582 162.876 94.8522 163.1 94.4441 163.325L94.4426 163.326C94.2135 163.452 93.9837 163.579 93.754 163.709C88.7243 166.391 83.3411 168.348 77.7639 169.524C77.4364 169.577 77.1207 169.643 76.8055 169.71L76.8051 169.71C76.3367 169.809 75.8692 169.908 75.3654 169.96L77.7493 211.738H79.7554C79.7554 211.738 80.0025 214.238 80.0025 214.354L81.1509 214.078C81.4424 213.474 80.4737 199.106 79.6334 186.641C79.3005 181.702 78.9877 177.062 78.7814 173.696C79.6217 173.4 80.3974 173.04 81.1757 172.679L81.1763 172.679C81.6231 172.472 82.0707 172.264 82.5318 172.068ZM74.9729 165.454C82.0318 165.08 88.9561 163.446 95.4212 160.639L92.0403 156.908C86.4674 159.252 80.6589 161.001 74.7112 162.125L70.2049 162.924L72.211 165.614L74.9729 165.454ZM70.5974 161.471C77.5762 160.211 84.425 158.322 91.0597 155.826L89.2232 153.8C82.217 156.285 75.0996 158.447 67.8936 160.279C68.824 161.674 69.3182 161.66 70.5974 161.471ZM79.6921 155.512L79.6864 155.513C76.3137 156.59 72.9096 157.677 69.4054 158.636C68.6914 158.733 67.9646 158.619 67.314 158.31C66.6634 158 66.1172 157.507 65.7422 156.892C68.4436 155.942 71.3901 154.993 74.4427 154.052L84.9018 153.87C83.1673 154.402 81.4339 154.956 79.6921 155.512ZM64.1578 155.86L70.0901 154.128L63.9981 154.234L63.2565 154.988C62.7694 155.493 62.2818 156 61.7935 156.507C58.4211 160.009 55.0194 163.543 51.5401 167.009C50.2185 168.247 49.0253 169.616 47.9787 171.094C46.9321 172.867 46.7577 176.007 46.7577 178.682C46.6785 181.408 46.7756 184.137 47.0484 186.851C47.877 193.044 49.287 199.077 51.8309 203.219C55.3219 200.147 58.5626 197.284 61.74 194.476L61.7673 194.452C63.5419 192.884 65.297 191.333 67.0651 189.773L64.1578 155.86ZM60.8826 155.747C61.3979 155.251 61.9123 154.755 62.4256 154.261L61.6001 154.275L62.3184 140.627C55.1404 140.206 48.1154 138.289 41.699 134.985C32.3641 145.048 25.5421 152.789 17.5965 161.804L17.5962 161.805C16.4972 163.052 15.3767 164.323 14.2251 165.628C18.3825 168.172 24.357 169.597 30.6077 170.425C33.3178 170.683 36.0409 170.781 38.7626 170.716C41.4519 170.73 44.6644 170.527 46.3652 169.495C47.8383 168.448 49.202 167.255 50.4354 165.933C53.887 162.482 57.4041 159.096 60.8826 155.747ZM45.2604 134.738C50.6281 137.356 56.4542 138.869 62.3934 139.202L62.48 137.557C62.0543 137.462 61.6299 137.36 61.2069 137.253C60.5673 137.079 59.8114 136.861 59.1136 136.657C53.6622 135.016 48.4698 132.613 43.6905 129.52C43.4151 129.322 43.1398 129.142 42.8645 128.962C42.4712 128.704 42.0778 128.447 41.6844 128.139L13.8326 159.363L15.2863 160.817C15.2863 160.817 13.6146 162.735 13.6146 162.837L14.6176 163.462C15.2527 163.244 24.7313 152.399 32.9385 143.01C36.1905 139.289 39.2429 135.797 41.4664 133.285C42.156 133.586 42.8456 133.835 43.5352 134.084L43.5358 134.085C44.1107 134.293 44.6855 134.5 45.2604 134.738ZM44.5336 124.621C49.8382 129.388 55.9517 133.152 62.5755 135.742L62.8269 130.965C57.154 128.66 51.7379 125.759 46.6704 122.31C46.3182 122.054 46.0086 121.838 45.5188 121.496L45.5185 121.496L45.5179 121.495L45.5148 121.493L45.5141 121.493C44.9732 121.115 44.2127 120.584 42.9346 119.679L42.4549 122.775L44.5336 124.621ZM44.1992 118.879C50.094 123.001 56.3548 126.57 62.9018 129.542L63.0498 126.731C56.2499 123.499 49.6008 119.957 43.1235 116.117C42.9146 116.628 42.9097 117.199 43.1099 117.713C43.3101 118.227 43.7001 118.644 44.1992 118.879ZM54.545 120.875C56.4291 121.854 58.2916 122.821 60.1168 123.818L52.3586 116.321C49.5408 114.832 46.7913 113.428 44.2138 112.207C44.0469 112.908 44.0871 113.642 44.3297 114.321C44.5723 115 45.0067 115.593 45.5802 116.03C48.5806 117.777 51.5892 119.34 54.5448 120.875L54.5449 120.875L54.545 120.875ZM44.8667 109.081L49.2745 113.341L43.8068 110.39L21.8684 136.377C15.2756 135.986 8.82428 135.58 1.57841 135.116C2.71225 130.377 5.93934 125.159 9.77696 120.158C11.5004 118.047 13.355 116.047 15.3299 114.169C17.2196 112.265 19.6908 110.143 21.566 109.677C23.3509 109.367 25.1629 109.24 26.9736 109.299C32.0163 109.299 37.0473 109.206 42.0353 109.113H42.0354H42.0355H42.0356H42.0357L42.0382 109.113L43.7632 109.081H44.8667ZM21.1197 137.264L21.8684 136.377L21.9294 136.381L21.1735 137.268L21.1197 137.264ZM21.1197 137.264C11.9261 136.67 3.90339 136.178 3.46814 136.395L3.19195 137.544C3.30824 137.587 5.80851 137.805 5.80851 137.805V139.797L18.368 140.524L21.1197 137.264ZM42.0501 108.002L43.7832 108.034L43.1969 107.468L44.323 106.448L43.8068 106.727L21.944 80.7354C17.6431 80.9884 13.451 81.2534 9.06777 81.5306L9.05691 81.5313C6.64358 81.6839 4.17226 81.8401 1.59294 82C2.72678 86.7825 5.93933 91.9575 9.79149 96.958C11.5149 99.0689 13.3696 101.069 15.3444 102.947C17.2196 104.851 19.6472 106.974 21.5805 107.439C23.3654 107.749 25.1774 107.876 26.9881 107.817C32.0348 107.817 37.0583 107.91 42.048 108.002H42.0482H42.0483H42.0485H42.0487L42.0501 108.002ZM56.6589 95.2697L48.0214 103.096C46.7155 103.758 45.4376 104.39 44.1992 104.982C44.0316 104.283 44.0716 103.551 44.3143 102.874C44.557 102.198 44.9919 101.607 45.5657 101.174C48.7506 99.3513 51.9588 97.6958 55.1378 96.0554C55.6456 95.7933 56.1528 95.5316 56.6589 95.2697ZM60.508 91.782C54.6711 94.6597 48.9448 97.7585 43.3416 101.072C43.1326 100.561 43.1277 99.9901 43.3279 99.4761C43.5281 98.9621 43.9181 98.5446 44.4173 98.3099C50.4589 94.0857 56.8849 90.4416 63.6095 87.4256L63.6352 88.9484L60.508 91.782ZM46.8885 94.8793C52.1216 91.3225 57.72 88.3427 63.5853 85.9894L63.5028 81.0869C56.591 83.6848 50.2249 87.5777 44.7516 92.568L42.6729 94.4142L43.1526 97.5104C44.4291 96.6063 45.1893 96.0754 45.73 95.6978L45.7307 95.6973L45.7315 95.6968L45.734 95.6951L45.7361 95.6936L45.7365 95.6933L45.7371 95.6929C46.2268 95.351 46.5363 95.1348 46.8885 94.8793ZM61.2505 79.8632C61.9876 79.6774 62.7289 79.5092 63.4737 79.3586L63.4492 77.9081C57.7445 78.1791 51.1696 79.306 45.3767 82.4216C44.9839 82.5689 44.5924 82.7066 44.2019 82.844C43.3208 83.154 42.4445 83.4623 41.5681 83.8752C39.2723 81.2829 36.1074 77.661 32.7531 73.8223L32.7499 73.8187L32.7491 73.8178C24.5932 64.4842 15.3185 53.8702 14.6903 53.654L13.6873 54.2791C13.7309 54.3808 15.3589 56.2996 15.3589 56.2996L13.9053 57.7533L41.8007 88.9775C42.2186 88.6505 42.6366 88.3802 43.0545 88.1099C43.3052 87.9477 43.556 87.7856 43.8068 87.6111C48.559 84.5121 53.7275 82.104 59.1572 80.4592C59.7968 80.2557 60.5527 80.0376 61.2505 79.8632ZM41.8153 82.1454C48.5286 78.6856 55.9085 76.757 63.4252 76.4781L63.2073 63.5435L62.5878 62.9137C62.0464 62.3919 61.5038 61.8696 60.9605 61.3466L60.9603 61.3464L60.9591 61.3452C57.492 58.0073 53.9947 54.6404 50.5517 51.1973C49.3183 49.8762 47.9546 48.683 46.4815 47.6359C44.7807 46.6038 41.5681 46.4148 38.8789 46.4148C36.1572 46.3503 33.4341 46.4473 30.724 46.7056C24.5169 47.5341 18.4988 48.9587 14.3414 51.5026C15.7886 53.1404 17.1862 54.7249 18.5533 56.2747L18.5547 56.2763L18.5553 56.277C26.1538 64.8916 32.81 72.438 41.8153 82.1454ZM61.5805 60.4595C62.1152 61.0149 62.6495 61.5698 63.1834 62.1239L63.17 61.3292L64.3507 61.3882L64.2014 61.3438L67.1087 27.4448C63.0257 23.8048 59.0216 20.2832 54.6903 16.4738L54.6898 16.4734L54.6857 16.4697L54.6772 16.4623L54.6651 16.4516L54.6532 16.4412C53.738 15.6363 52.8082 14.8185 51.86 13.984C49.3161 18.1415 47.906 24.1014 47.0775 30.3521C46.8192 33.0671 46.7222 35.7951 46.7867 38.5216C46.7722 41.1963 46.9757 44.4088 48.0078 46.1096C49.0512 47.5857 50.2447 48.9497 51.5692 50.1798C54.9621 53.585 58.2811 57.0324 61.5802 60.4592L61.5805 60.4595ZM125.502 150.554L107.899 168.739L90.9346 149.972L65.6267 150.409L66.9059 125.13L48.7063 107.541L67.4873 90.5765L67.0512 65.2831L92.3156 66.5478L109.905 48.3627L126.869 67.1293L152.162 66.6931L150.883 91.9575L169.083 109.547L150.316 126.583L150.752 151.877L125.502 150.554ZM107.883 72.5806L77.4875 80.2995L107.752 89.5882C108.573 89.8527 109.438 89.9467 110.296 89.8644L141.375 79.8052L111.139 72.6969C110.535 72.455 109.886 72.3411 109.235 72.3626C108.777 72.3745 108.322 72.4479 107.883 72.5806ZM92.5607 86.5066L105.992 92.1904C106.905 92.4726 107.857 92.6099 108.812 92.5974C109.695 92.5848 110.571 92.4478 111.414 92.1904L126.183 86.3758L126.314 94.7779C124.727 96.4551 122.882 97.8684 120.849 98.9644C117.181 100.842 113.089 101.734 108.972 101.552C104.21 101.638 99.5421 100.224 95.6279 97.5107C94.5721 96.7345 93.598 95.8529 92.7206 94.8796C92.7206 92.8034 92.6718 90.7272 92.6229 88.645C92.6064 87.9427 92.5899 87.2397 92.5752 86.5357L92.5607 86.5066ZM97.7091 104.226C95.3085 102.823 93.0454 101.198 90.9496 99.3706L90.9932 99.4288C90.1751 101.86 90.2733 104.507 91.2694 106.871L91.2803 106.891C91.7024 107.648 92.3769 108.858 96.0519 111.654C98.5495 113.555 100.257 114.558 101.6 115.348C103.103 116.231 104.151 116.847 105.341 118.152C107.204 120.277 108.425 122.889 108.859 125.682C108.88 125.851 108.963 126.007 109.091 126.119C109.22 126.232 109.385 126.293 109.556 126.292C109.698 126.283 109.834 126.233 109.948 126.148C110.062 126.063 110.148 125.946 110.196 125.812C110.899 122.858 112.294 120.113 114.266 117.803C116.248 115.477 118.734 113.633 121.534 112.41C121.854 112.323 127.538 110.302 128.584 105.054C128.929 103.193 128.68 101.271 127.872 99.5596C125.947 101.679 123.657 103.436 121.113 104.749C119.932 105.359 118.894 105.762 117.922 106.14L117.922 106.14C116.298 106.772 114.858 107.332 113.249 108.659C111.765 109.88 110.544 111.388 109.658 113.093C108.472 111.462 107.074 109.995 105.501 108.732C103.815 107.389 102.424 106.689 100.801 105.873C99.878 105.408 98.8796 104.906 97.7091 104.226ZM73.0244 98.9638C73.9402 100.417 75.3066 102.612 76.8911 105.316C78.7983 108.591 80.0401 110.954 80.9041 112.598L80.9043 112.599C81.298 113.348 81.6132 113.947 81.8771 114.416C83.8395 117.89 87.5899 122.469 95.5268 126.859C95.6754 125.745 95.5249 124.611 95.0907 123.574C94.5677 122.46 93.7729 121.495 92.7794 120.768C91.2528 119.455 90.2316 118.762 89.4368 118.223L89.4367 118.223C88.8769 117.843 88.4295 117.539 87.9969 117.149C86.7323 116.015 85.3658 113.936 85.1769 109.881C86.5142 110.651 88.4621 111.799 90.817 113.224C96.9368 116.974 99.9895 118.85 101.574 120.492C104.779 123.94 106.862 128.279 107.548 132.935C108.198 136.896 107.884 140.955 106.633 144.768C102.957 143.46 99.4368 141.749 96.1373 139.666C88.8444 135.043 82.8428 128.646 78.6936 121.074C75.0345 114.274 73.0886 106.685 73.0244 98.9638ZM141.26 105.316C142.844 102.612 144.211 100.417 145.127 98.9638C145.064 106.671 143.133 114.247 139.501 121.045C135.353 128.618 129.351 135.015 122.057 139.637C118.745 141.733 115.211 143.454 111.518 144.768C110.252 140.958 109.938 136.895 110.603 132.935C111.289 128.279 113.372 123.94 116.577 120.492C118.161 118.85 121.214 116.974 127.334 113.224C129.674 111.799 131.637 110.651 132.96 109.881C132.771 113.936 131.215 116.204 130.154 117.149C129.724 117.532 129.282 117.831 128.735 118.201C127.934 118.744 126.91 119.438 125.372 120.768C124.378 121.499 123.58 122.462 123.046 123.574C122.615 124.612 122.47 125.746 122.624 126.859C130.561 122.469 134.311 117.89 136.259 114.416C136.521 113.951 136.835 113.358 137.226 112.617C138.094 110.973 139.345 108.604 141.26 105.316Z" fill="#1268B3" fill-opacity="0.05"/>
</svg>
