<svg width="308" height="616" viewBox="0 0 308 616" fill="none" xmlns="http://www.w3.org/2000/svg">
<path fill-rule="evenodd" clip-rule="evenodd" d="M592.809 341.094C583.303 329.145 572.194 318.565 559.797 309.651C559.797 309.651 558.848 308.66 558.229 308.165C558.848 307.67 559.797 306.679 559.797 306.679C572.203 297.776 583.313 287.194 592.809 275.236C603.687 262.333 611.578 247.185 615.917 230.876C614.029 230.448 612.112 230.159 610.182 230.01L611.007 223.779C608.41 223.374 605.792 223.112 603.167 222.995V216.97C603.167 216.97 597.513 216.31 594.666 216.31V209.047C589.439 206.321 584.369 203.304 579.481 200.01L580.182 199.226C578.896 197.647 577.518 196.145 576.056 194.728C577.174 188.19 578.746 181.737 580.76 175.416L575.602 170.258C577.665 168.278 581.214 163.78 581.214 163.78L577.087 159.653C579.315 157.095 580.553 155.527 582.08 153.546L577.087 149.75C578.338 148.279 579.483 146.72 580.512 145.087C565.919 136.604 549.628 131.461 532.81 130.025C517.707 128.282 502.436 128.601 487.419 130.974C486.691 130.932 485.96 130.932 485.232 130.974V128.787C487.639 113.774 487.972 98.5004 486.222 83.396C484.787 66.578 479.643 50.287 471.161 35.694C469.52 36.7126 467.961 37.8577 466.498 39.1189L462.701 34.1259C460.577 35.6793 458.539 37.3461 456.594 39.1189L452.468 34.9924C452.468 34.9924 447.97 38.5412 445.989 40.5632L440.749 35.1988C435.135 36.9948 429.416 38.4417 423.624 39.5316V38.5413C421.599 38.288 419.556 38.2052 417.517 38.2937C413.701 32.8639 410.255 27.184 407.2 21.2925H399.484C399.484 18.4452 398.865 12.7508 398.865 12.7508H392.84C392.711 10.124 392.436 7.50643 392.015 4.91039L385.825 5.73573C385.676 3.80528 385.387 1.88832 384.959 0C368.659 4.34282 353.515 12.2179 340.599 23.067C328.657 32.5934 318.065 43.699 309.114 56.0788C309.114 56.0788 308.165 57.0691 307.67 57.688C307.175 57.0691 306.184 56.0788 306.184 56.0788C297.248 43.7001 286.67 32.5943 274.741 23.067C261.819 12.2258 246.677 4.35165 230.381 0C229.939 1.8872 229.635 3.8042 229.473 5.73573L223.283 4.91039C222.858 7.50481 222.596 10.1235 222.499 12.7508H216.557C216.557 12.7508 215.897 18.4452 215.938 21.2925H208.634C205.596 27.1927 202.149 32.8737 198.318 38.2937C196.279 38.2062 194.236 38.289 192.211 38.5413V39.5316C186.432 38.4456 180.726 36.9985 175.128 35.1988L169.969 40.3569C167.947 38.3349 163.491 34.7861 163.491 34.7861L159.364 38.9126C157.407 37.1385 155.354 35.4718 153.216 33.9196L149.461 38.9126C147.984 37.6513 146.411 36.5061 144.757 35.4876C136.319 50.0852 131.178 66.3528 129.695 83.1484C127.99 98.2549 128.323 113.522 130.685 128.54C130.643 129.268 130.643 129.998 130.685 130.727C129.957 130.676 129.227 130.676 128.498 130.727C113.484 128.323 98.2117 127.99 83.1072 129.736C66.2916 131.184 50.0032 136.327 35.4051 144.798C36.4496 146.432 37.6078 147.99 38.8714 149.461L33.8784 153.257C35.4294 155.383 37.0963 157.422 38.8714 159.364L34.7449 163.491C34.7449 163.491 38.2937 167.947 40.3156 169.969L35.1576 175.127C37.1624 181.453 38.7476 187.905 39.903 194.439C38.4184 195.835 37.0391 197.338 35.7765 198.937L36.4368 199.721C31.5646 203.007 26.5083 206.01 21.2926 208.717V216.021C18.4041 216.021 12.7508 216.64 12.7508 216.64V223.16C10.1114 223.279 7.48044 223.541 4.86924 223.944L5.73581 230.175C3.805 230.321 1.88774 230.61 0 231.041C4.3263 247.347 12.2032 262.495 23.067 275.401C32.5833 287.34 43.6905 297.92 56.0788 306.845C56.5837 307.373 57.1212 307.869 57.6881 308.33C57.1212 308.791 56.5837 309.287 56.0788 309.816C43.7001 318.752 32.5943 329.33 23.067 341.259C12.2032 354.165 4.3263 369.313 0 385.619C1.88774 386.05 3.805 386.34 5.73581 386.485L4.86924 392.716C7.48044 393.119 10.1114 393.381 12.7508 393.5V399.566C12.7508 399.566 18.4041 400.185 21.2926 400.185V407.489C26.5249 410.182 31.5829 413.2 36.4368 416.526L35.7765 417.269C37.0289 418.877 38.4089 420.381 39.903 421.767C38.7524 428.303 37.167 434.754 35.1576 441.079L39.9855 445.989C37.9636 448.011 34.4148 452.468 34.4148 452.468L38.5413 456.594C36.7661 458.537 35.0993 460.576 33.5482 462.701L38.5413 466.498C37.2777 467.969 36.1194 469.527 35.075 471.161C49.673 479.632 65.9615 484.775 82.7771 486.222C97.8816 487.968 113.154 487.635 128.168 485.232C128.883 485.283 129.6 485.283 130.314 485.232V487.419C127.946 502.436 127.613 517.704 129.324 532.81C130.779 549.624 135.922 565.911 144.385 580.512C146.049 579.508 147.623 578.362 149.089 577.087L152.845 582.08C154.983 580.528 157.035 578.861 158.993 577.087L163.119 581.214C163.119 581.214 167.576 577.665 169.598 575.643L174.756 580.801C180.355 579.001 186.06 577.554 191.84 576.468V577.5C193.868 577.718 195.909 577.787 197.947 577.706C201.777 583.126 205.224 588.807 208.263 594.707H215.567C215.567 597.555 216.186 603.249 216.186 603.249H222.252C222.349 605.876 222.61 608.495 223.036 611.089L229.226 610.264C229.388 612.196 229.691 614.113 230.133 616C246.436 611.665 261.582 603.789 274.493 592.933C286.423 583.406 297.001 572.3 305.937 559.921C305.937 559.921 306.927 558.931 307.422 558.312C307.873 558.875 308.355 559.412 308.867 559.921C317.814 572.29 328.391 583.395 340.31 592.933C353.237 603.79 368.396 611.665 384.711 616C385.139 614.112 385.429 612.195 385.578 610.264L391.767 611.089C392.188 608.493 392.464 605.876 392.593 603.249H398.617C398.617 603.249 399.278 597.555 399.236 594.707H406.54C409.579 588.807 413.026 583.126 416.856 577.706C418.894 577.786 420.935 577.717 422.963 577.5V576.468C428.756 577.558 434.475 579.005 440.088 580.801L445.246 575.643C447.227 577.665 451.725 581.214 451.725 581.214L455.851 577.087C457.785 578.872 459.825 580.54 461.959 582.08L465.714 577.087C467.188 578.352 468.761 579.498 470.418 580.512C479.084 566.028 484.452 549.811 486.14 533.017C487.886 517.912 487.553 502.639 485.149 487.625V485.438C485.878 485.489 486.608 485.489 487.336 485.438C502.35 487.846 517.623 488.179 532.728 486.429C549.544 484.986 565.834 479.843 580.43 471.367C579.377 469.702 578.205 468.116 576.922 466.622L581.915 462.825C580.388 460.721 579.15 459.277 576.922 456.718L581.049 452.592C581.049 452.592 577.5 448.135 575.437 446.113L580.595 440.955C578.576 434.636 577.004 428.183 575.891 421.643C577.363 420.236 578.742 418.733 580.017 417.145L578.16 414.958L577.83 414.628L573.208 408.851C579.522 408.315 585.216 407.778 589.714 407.283C589.26 407.696 582.617 411.74 577.913 414.546L578.243 414.876L579.398 416.32C584.267 412.995 589.339 409.977 594.583 407.283V399.979C597.431 399.979 603.084 399.36 603.084 399.36V393.294C605.711 393.197 608.33 392.936 610.924 392.51L610.058 386.32C612.001 386.141 613.93 385.838 615.835 385.413C611.486 369.107 603.596 353.961 592.727 341.053L592.809 341.094ZM600.361 219.446V225.099C600.361 225.099 607.458 225.718 607.747 225.842L607.004 229.102C605.725 229.721 582.906 228.359 556.744 226.626L564.502 217.424L600.361 219.446ZM591.53 216.103C591.117 216.434 581.131 215.815 566.771 214.783L570.898 210.037C577.906 210.381 584.891 211.111 591.819 212.225L591.53 216.103ZM577.913 201.702L578.72 202.195C579.301 202.549 579.905 202.917 580.517 203.29C584.735 205.86 589.34 208.666 589.714 209.006C585.134 208.469 579.439 207.933 573.208 207.396L577.913 201.702ZM572.713 197.575L572.738 197.602L572.713 197.699V197.575ZM572.738 197.602L574.611 199.598L514.695 269.748C512.494 272.32 510.307 274.901 508.12 277.482C503.746 282.645 499.372 287.808 494.888 292.897C495.296 291.001 495.583 288.681 495.883 286.252V286.252L495.883 286.251C496.191 283.765 496.512 281.164 496.992 278.785C497.941 274.08 498.808 269.252 498.808 269.252C499.542 268.286 504.978 262.178 512.784 253.408L512.786 253.406C531.305 232.599 563.161 196.808 577.211 179.13C577.211 179.998 573.096 196.195 572.738 197.602ZM576.386 175.334C576.716 176.819 518.244 243.709 497.983 266.611C482.204 252.67 464.769 240.723 446.072 231.041C464.59 237.039 482 246.03 497.611 257.657C512.3 242.601 535.702 215.593 552.611 196.079L552.614 196.076L552.615 196.075L552.615 196.074C564.206 182.697 572.745 172.843 573.332 172.775L576.386 175.334ZM451.931 38.7888L456.058 42.6677C456.058 42.6677 461.505 38.046 461.794 37.9222L463.568 40.7695C463.114 42.1312 445.989 57.2754 426.43 74.5653L425.439 62.5572L451.931 38.7888ZM440.79 39.7378L440.83 39.7844C435.109 43.8204 429.638 48.2007 424.449 52.9013L424.985 59.1323C435.755 49.7652 443.307 43.1629 443.307 42.6264L440.83 39.7844L440.955 39.6967L440.79 39.7378ZM437.159 38.8713C433.527 41.7186 429.153 45.3499 424.325 49.4351L423.706 42.0487C428.988 40.7282 436.581 38.8713 437.159 38.8713ZM416.98 42.6677H419.745C420.714 54.9275 421.731 67.2023 422.749 79.4797C425.112 107.989 427.476 136.512 429.236 164.894C428.189 163.252 426.744 161.395 425.231 159.451L425.23 159.451C423.702 157.487 422.104 155.434 420.776 153.422L415.288 145.417C415.133 144.221 414.679 136.381 414.024 125.075L414.024 125.073L414.024 125.071L414.023 125.06C412.42 97.367 409.613 48.8899 407.035 26.2443C407.696 26.9045 417.021 42.5439 417.021 42.5439L416.98 42.6677ZM399.938 24.4287L403.775 24.1398C405.096 25.0063 411.038 113.643 413.019 144.014C391.988 145.315 371.198 149.21 351.122 155.609C368.436 146.715 387.108 140.76 406.375 137.989C406.044 117.705 403.641 83.7685 401.835 58.2633L401.835 58.2614L401.834 58.259L401.834 58.2538L401.834 58.2526C400.488 39.2446 399.474 24.922 399.897 24.4287H399.938ZM211.977 24.1398L215.856 24.4287C216.256 24.9158 215.262 38.8856 213.936 57.5359L213.936 57.5373C212.116 83.1212 209.67 117.512 209.336 137.989C228.616 140.76 247.302 146.714 264.631 155.609C244.553 149.214 223.764 145.32 202.734 144.014C204.673 113.643 210.656 25.0063 211.936 24.1398H211.977ZM195.966 42.6677H198.69C198.69 42.6677 208.057 27.0283 208.676 26.3681C206.011 49.5166 203.128 99.7002 201.558 127.034V127.034C200.965 137.365 200.559 144.432 200.423 145.541L194.935 153.546C193.642 155.566 192.093 157.585 190.625 159.498L190.624 159.499L190.624 159.499L190.624 159.499L190.624 159.5L190.624 159.5C189.093 161.495 187.651 163.375 186.682 165.018C188.418 137.002 190.764 108.85 193.109 80.7083L193.109 80.7045C194.163 68.06 195.216 55.4178 196.214 42.7915L195.966 42.6677ZM192.087 42.0487L191.468 49.4351C186.599 45.3086 182.225 41.7186 178.594 38.8713C179.213 38.8713 186.847 40.7282 192.087 42.0487ZM174.797 39.6554C180.555 43.7428 186.066 48.1658 191.303 52.9013L190.808 59.091C179.997 49.7239 172.487 43.1216 172.445 42.5851L174.797 39.6554ZM153.794 37.881C154.124 37.881 159.571 42.6264 159.571 42.6264L163.697 38.7062L190.23 62.2272L189.034 74.3177C169.35 57.0278 152.226 41.8836 151.895 40.5219L153.794 37.881ZM42.0075 172.528C42.6669 172.528 52.2853 183.627 64.9857 198.282C81.6926 217.56 103.733 242.992 117.728 257.409C133.329 245.766 150.743 236.774 169.268 230.794C150.57 240.476 133.136 252.422 117.357 266.364C97.2197 243.503 38.9539 176.572 38.9539 175.086L42.0075 172.528ZM38.2524 178.883C52.302 196.561 84.158 232.351 102.678 253.159C110.484 261.93 115.921 268.038 116.655 269.005C116.655 269.005 117.604 274.287 118.43 278.537C118.812 280.507 119.115 282.858 119.416 285.196C119.765 287.902 120.111 290.591 120.576 292.649C115.486 286.872 110.514 281.001 105.553 275.142L105.55 275.139L105.549 275.137C103.955 273.256 102.363 271.375 100.768 269.5L40.8521 199.35L42.709 197.328C42.709 197.328 38.2524 179.667 38.2111 178.759L38.2524 178.883ZM37.5096 201.619L37.5235 201.636C32.8619 204.441 26.2023 208.47 25.7905 208.882C30.3296 208.387 35.9828 207.85 42.2963 207.314L37.5235 201.636L37.5509 201.619H37.5096ZM44.5659 209.872L48.7337 214.907C34.4561 215.897 24.47 216.557 23.9748 216.227L23.686 212.348C30.5996 211.23 37.5705 210.499 44.5659 210.161V209.872ZM14.9791 225.223V219.57L50.6318 217.506L58.4309 226.75C32.269 228.442 9.40836 229.845 8.17041 229.226L7.38639 225.966C7.71651 225.966 14.814 225.223 14.814 225.223H14.9791ZM37.3858 414.669C32.7229 411.863 26.0381 407.819 25.6254 407.407C30.2058 407.902 35.8591 408.438 42.1313 408.975L37.3858 414.669ZM23.5209 404.147L23.8098 400.268C24.1811 399.938 34.1672 400.557 48.5686 401.588L44.4421 406.334C37.4467 405.996 30.4758 405.266 23.5622 404.147H23.5209ZM42.6265 418.961L40.7696 416.939L100.686 346.789C102.436 344.73 104.184 342.666 105.932 340.6L105.934 340.598L105.935 340.596L105.937 340.594L105.939 340.592L105.939 340.591L105.94 340.591L105.943 340.587L105.944 340.586L105.945 340.585C110.746 334.913 115.555 329.232 120.452 323.639C120.044 325.536 119.757 327.856 119.456 330.285C119.149 332.772 118.827 335.372 118.347 337.752C117.398 342.456 116.573 347.284 116.573 347.284C115.861 348.205 110.88 353.799 103.65 361.918C85.3006 382.522 52.4669 419.391 38.1699 437.447C38.1699 436.498 42.6677 418.837 42.6677 418.837L42.6265 418.961ZM38.9952 441.203C38.7063 439.717 97.1372 372.786 117.398 349.925C133.177 363.867 150.612 375.813 169.309 385.495C150.784 379.515 133.371 370.522 117.77 358.879C103.207 373.831 80.0779 400.517 63.2044 419.986L63.203 419.988L63.2022 419.989L63.2002 419.991C51.3888 433.619 42.6435 443.71 42.0488 443.761L38.9952 441.203ZM163.573 578.036L159.447 574.116C159.447 574.116 154 578.738 153.67 578.862L151.895 576.014C152.391 574.694 169.474 559.509 189.034 542.219L190.065 554.227L163.573 578.036ZM174.674 577.087L174.611 577.014C180.322 572.935 185.798 568.537 191.014 563.841L190.519 557.652C179.708 567.019 172.156 573.621 172.156 574.158L174.611 577.014L174.509 577.087H174.674ZM178.305 577.871C181.936 575.024 186.31 571.393 191.179 567.308L191.798 574.694C186.475 576.014 178.924 577.871 178.305 577.871ZM198.483 574.075H195.76C194.762 561.448 193.709 548.806 192.655 536.161C190.31 508.019 187.965 479.865 186.228 451.849C187.154 453.284 188.393 454.903 189.697 456.608L189.698 456.61L189.699 456.612L189.7 456.612C191.357 458.778 193.119 461.081 194.481 463.32L199.969 471.326C200.124 472.522 200.578 480.361 201.233 491.668C202.836 519.359 205.643 567.849 208.222 590.498C207.603 589.838 198.236 574.199 198.236 574.199L198.483 574.075ZM215.319 592.314L211.482 592.603C210.203 591.736 204.219 503.1 202.28 472.729C223.31 471.423 244.1 467.528 264.177 461.133C246.843 470.024 228.16 475.992 208.882 478.795C209.213 499.05 211.615 532.964 213.421 558.462L213.421 558.463L213.421 558.464L213.421 558.465C214.768 577.484 215.784 591.82 215.361 592.314H215.319ZM403.28 592.603L399.443 592.314C399.019 591.82 400.035 577.483 401.382 558.464L401.382 558.463C403.188 532.964 405.59 499.05 405.921 478.795C386.656 475.992 367.987 470.024 350.668 461.133C370.744 467.533 391.534 471.427 412.565 472.729C410.584 503.1 404.642 591.736 403.321 592.603H403.28ZM419.332 574.075H416.567C416.567 574.075 407.242 589.714 406.581 590.375C409.247 567.227 412.129 517.045 413.699 489.711L413.699 489.71L413.699 489.709C414.293 479.378 414.698 472.311 414.834 471.202L420.323 463.197C421.759 460.953 423.512 458.708 425.152 456.61C426.527 454.85 427.822 453.193 428.782 451.725C427.084 479.119 424.803 506.645 422.523 534.163C421.424 547.433 420.325 560.701 419.291 573.951L419.332 574.075ZM423.417 574.694L424.036 567.308C428.864 571.434 433.238 575.024 436.87 577.871C436.292 577.871 428.617 576.014 423.417 574.694ZM440.666 577.087C434.918 572.987 429.407 568.565 424.16 563.841L424.697 557.652C435.467 567.019 442.977 573.621 443.018 574.158L440.666 577.087ZM461.67 578.862C461.381 578.862 455.934 574.116 455.934 574.116L451.807 578.036L425.151 554.227L426.141 542.219C445.865 559.467 462.99 574.694 463.279 576.014L461.67 578.862ZM573.332 444.008C572.693 444.008 563.139 432.985 550.503 418.403C533.781 399.107 511.661 373.582 497.653 359.127C482.032 370.763 464.607 379.755 446.072 385.743C464.789 376.073 482.239 364.125 498.024 350.173C518.12 373.033 576.427 439.965 576.427 441.45L573.332 444.008ZM574.446 417.063L572.589 419.085C572.589 419.085 577.046 436.746 577.087 437.695C563.007 419.949 531.043 384.033 512.542 363.244L512.54 363.242L512.54 363.241C504.798 354.543 499.415 348.493 498.684 347.532C498.684 347.532 497.735 342.291 496.869 337.999C496.442 335.887 496.126 333.366 495.816 330.897L495.816 330.896L495.815 330.894V330.894C495.496 328.347 495.183 325.856 494.764 323.928C515.908 347.824 536.62 372.33 557.359 396.868L557.359 396.869L557.36 396.87L557.361 396.871L557.362 396.872L557.364 396.875C563.053 403.606 568.744 410.339 574.446 417.063ZM570.774 406.458L566.647 401.712C580.884 400.722 590.87 400.062 591.406 400.392L591.695 404.271C584.767 405.384 577.782 406.115 570.774 406.458ZM556.785 389.952L556.894 389.945L564.708 399.195L600.402 397.132V391.479C600.402 391.479 607.499 390.777 607.788 390.777L607.045 387.476C605.768 386.899 583.01 388.256 556.894 389.945L556.407 389.368L554.969 387.146C573.745 386.032 591.901 384.876 612.534 383.556C609.315 369.98 600.195 355.289 589.302 341.094C584.392 335.117 579.113 329.453 573.497 324.134C568.174 318.688 561.283 312.663 555.795 311.342C550.742 310.461 545.612 310.101 540.485 310.269C526.102 310.269 511.752 310.003 497.554 309.739L497.484 309.738C495.901 309.709 494.321 309.679 492.742 309.651H492.727L494.394 311.26L490.672 314.616L492.453 313.653L556.407 389.368L556.785 389.952ZM454.702 347.048L479.547 324.647C483.58 322.592 487.524 320.634 491.339 318.811C491.807 320.798 491.694 322.877 491.014 324.801C490.333 326.725 489.114 328.413 487.502 329.664C478.664 334.685 469.776 339.268 460.976 343.806L460.975 343.806C458.878 344.888 456.786 345.966 454.702 347.048ZM436.087 363.831L444.186 356.528C462.402 347.626 480.919 338.184 493.774 329.911C494.367 331.361 494.381 332.982 493.812 334.441C493.244 335.901 492.137 337.086 490.72 337.752C473.549 349.757 455.285 360.112 436.171 368.68L436.087 363.831ZM436.479 386.4L436.242 372.769C452.931 366.082 468.859 357.609 483.746 347.49L494.393 340.021L495.713 348.811C494.764 349.677 490.844 353.185 489.812 354.051C474.232 368.155 456.123 379.124 436.479 386.4ZM442.564 389.91C440.575 390.42 438.574 390.882 436.564 391.295L436.63 395.121C452.899 394.397 471.754 391.19 488.327 382.276C489.489 381.836 490.656 381.425 491.825 381.014L491.825 381.014L491.825 381.013L491.825 381.013L491.826 381.013L491.826 381.013C494.265 380.155 496.711 379.294 499.138 378.15C505.722 385.584 514.822 396 524.452 407.021L524.455 407.024L524.455 407.025C547.539 433.444 573.661 463.34 575.437 463.981L578.284 462.165C578.16 461.876 573.538 456.429 573.538 456.429L577.417 452.303L498.354 363.666C497.217 364.601 496.064 365.351 494.905 366.104L494.904 366.104L494.904 366.105C494.171 366.581 493.436 367.059 492.701 367.586C479.029 376.521 464.165 383.48 448.548 388.26L447.994 388.42C446.279 388.917 444.388 389.464 442.564 389.91ZM498.519 383.267C479.306 393.099 458.188 398.521 436.701 399.194L437.335 435.721L439.511 437.86C450.9 448.795 462.371 459.813 473.678 471.119C477.193 474.871 481.077 478.258 485.273 481.229C490.06 484.159 499.179 484.696 506.813 484.696C514.553 484.878 522.297 484.602 530.004 483.87C547.583 481.518 564.667 477.516 576.468 470.253C572.795 466.089 569.233 462.047 565.746 458.088L565.707 458.044L565.664 457.995L565.661 457.992L565.659 457.99C543.639 432.995 524.531 411.307 498.519 383.267ZM492.783 306.679H489.65L477.145 294.604L492.618 302.966L554.969 229.184C567.958 229.955 580.75 230.765 594.164 231.615L594.191 231.617L594.226 231.619L594.227 231.619C600.182 231.996 606.261 232.381 612.534 232.774C609.315 246.227 600.154 261.041 589.302 275.236C584.382 281.217 579.105 286.895 573.497 292.237C568.133 297.642 561.118 303.667 555.795 305.029C550.738 305.875 545.61 306.22 540.485 306.06C526.184 306.06 511.981 306.324 497.848 306.586C496.159 306.617 494.471 306.649 492.783 306.679ZM491.504 297.808C484.168 294.331 476.349 290.334 468.336 286.098L446.934 265.431C451.318 267.75 455.739 270.03 460.181 272.32L460.181 272.32L460.182 272.32L460.182 272.32L460.182 272.321L460.183 272.321C469.297 277.02 478.502 281.766 487.667 286.996C489.284 288.234 490.507 289.914 491.188 291.833C491.869 293.752 491.979 295.827 491.504 297.808ZM493.939 286.707C475.798 275.942 457.178 266.009 438.138 256.938L437.985 256.79L438.402 248.873C456.767 257.256 474.334 267.295 490.885 278.867C492.302 279.533 493.409 280.718 493.978 282.177C494.546 283.637 494.532 285.258 493.939 286.707ZM484.2 269.129C469.901 259.419 454.62 251.261 438.617 244.785L439.335 231.133C458.027 238.474 475.282 249.112 490.266 262.567C491.298 263.434 495.218 266.942 496.167 267.808L494.847 276.598L484.2 269.129ZM443.059 226.708C441.923 226.419 440.773 226.144 439.612 225.882L439.869 220.992C455.241 222.003 472.528 225.407 487.914 233.682C489.392 234.277 490.878 234.809 492.364 235.341L492.365 235.341L492.365 235.341L492.365 235.341L492.366 235.341L492.366 235.341L492.367 235.342C494.489 236.101 496.615 236.862 498.726 237.809C505.245 230.447 514.233 220.161 523.759 209.26C546.912 182.764 573.241 152.633 575.024 152.019L577.871 153.794C577.871 154.082 573.126 159.529 573.126 159.529L577.005 163.656L498.519 252.581C497.398 251.685 496.263 250.938 495.121 250.188L495.119 250.187L495.119 250.187L495.118 250.187L495.118 250.186L495.117 250.186C494.369 249.694 493.617 249.2 492.866 248.661C479.273 239.873 464.505 233.052 449.002 228.4C447.021 227.823 444.875 227.204 443.059 226.708ZM498.148 232.733C480.073 223.439 460.299 218.022 440.091 216.781L442.112 178.387L438.836 178.444L439.098 178.181C450.487 167.246 462 156.187 473.306 144.88C476.821 141.129 480.706 137.741 484.902 134.771C489.689 131.841 498.808 131.263 506.442 131.304C514.182 131.121 521.926 131.397 529.633 132.13C547.377 134.482 564.295 138.526 576.097 145.747C572.395 149.943 568.806 154.016 565.292 158.005C543.27 183.002 524.161 204.691 498.148 232.733ZM437.2 175.994L434.677 178.517L416.624 178.83L434.6 173.477L426.347 77.2476C431.382 72.8049 436.385 68.3622 441.444 63.8698L441.446 63.8688C450.483 55.8438 459.699 47.6606 469.593 39.0364C476.814 50.8381 480.858 67.9218 483.169 85.5005C483.938 93.2054 484.228 100.951 484.035 108.691C484.035 116.284 483.499 125.404 480.569 130.232C477.586 134.417 474.2 138.301 470.459 141.827C459.882 152.365 449.558 163.12 439.318 173.787L437.2 175.994ZM430.391 170.547C422.289 173.388 413.422 176.229 404.249 179.045L374.542 179.561C380.008 177.903 385.462 176.163 390.943 174.414L390.948 174.413C400.481 171.372 410.096 168.305 419.992 165.595C422.019 165.321 424.083 165.643 425.929 166.522C427.776 167.402 429.327 168.8 430.391 170.547ZM424.284 160.932C403.719 166.157 383.408 172.328 363.416 179.425L358.074 173.514C377.041 166.423 396.62 161.078 416.567 157.549C420.199 157.012 421.643 156.971 424.284 160.932ZM404.889 155.444C387.861 158.668 371.234 163.694 355.288 170.429L346.149 160.316C364.606 152.25 384.389 147.557 404.559 146.49L412.441 146.036L417.682 153.175L404.889 155.444ZM345.84 154.495C344.768 155.13 343.706 155.781 342.654 156.447L339.671 153.145C351.3 142.884 366.18 132.792 383.06 127.714C384.37 127.157 385.641 126.567 386.91 125.979C389.119 124.953 391.322 123.931 393.707 123.093C393.121 113.537 392.233 100.365 391.288 86.3452C388.903 50.9619 386.153 10.1734 386.981 8.45922L390.241 7.67518C390.241 8.0053 390.983 15.1028 390.983 15.1028H396.637L403.404 133.698C401.979 133.845 400.672 134.124 399.359 134.404C398.467 134.594 397.572 134.785 396.637 134.936C380.805 138.275 365.524 143.831 351.245 151.442L345.84 154.495ZM389.745 119.998C370.194 126.247 352.211 136.522 336.936 150.118L311.137 121.566L309.403 123.354V123.175C309.733 107.371 310.063 91.4427 310.063 75.4319C309.904 70.3074 310.249 65.1795 311.095 60.1226C312.415 54.6344 318.481 47.7433 323.887 42.4201C329.229 36.8128 334.906 31.5349 340.888 26.6157C355.083 15.7218 369.773 6.60226 383.349 3.38361C383.675 8.55885 383.995 13.5893 384.309 18.5195C386.457 52.2717 388.305 81.3281 389.745 119.998ZM306.473 123.093V126.374L281.054 152.579C265.422 137.829 246.688 126.686 226.172 119.998C227.612 81.3277 229.461 52.2711 231.608 18.5185C231.922 13.5886 232.242 8.55849 232.568 3.38361C246.02 6.60226 260.834 15.7631 275.029 26.6157C281.006 31.5254 286.671 36.8039 291.989 42.4201C297.436 47.7846 303.461 54.7995 304.781 60.1226C305.648 65.177 305.993 70.307 305.813 75.4319C305.813 88.5958 306.065 101.732 306.316 114.77C306.369 117.549 306.422 120.323 306.473 123.093ZM232.733 128.292C250.659 133.683 266.191 144.66 278.161 155.561L275.355 158.453C273.584 157.282 271.783 156.155 269.954 155.073L264.589 152.019C250.308 144.416 235.028 138.859 219.198 135.513C218.268 135.364 217.372 135.174 216.476 134.985C215.147 134.704 213.82 134.423 212.39 134.275L219.198 15.6806H224.852C224.852 15.6806 225.429 8.58307 225.553 8.25295L228.854 9.03686C229.647 10.7405 226.928 51.0418 224.55 86.2726L224.55 86.2737V86.274L224.55 86.2744L224.55 86.2755V86.2757C223.588 100.537 222.681 113.968 222.087 123.67C224.472 124.509 226.674 125.531 228.884 126.556C230.152 127.145 231.423 127.735 232.733 128.292ZM211.234 147.067C232.27 148.122 252.874 153.191 271.948 161.966L262.423 171.785C245.882 164.683 228.608 159.396 210.904 156.022L198.112 153.752L203.394 146.614L211.234 147.067ZM199.226 158.126C219.81 161.766 240.002 167.337 259.536 174.762L256.379 178.016L244.477 177.421C225.603 170.942 206.249 164.686 191.551 161.51C194.192 157.384 195.677 157.384 199.226 158.126ZM197.054 175.05L230.278 176.711C228.535 176.157 226.791 175.601 225.044 175.043L225.027 175.038C215.453 171.981 205.79 168.896 195.842 166.173C193.815 165.898 191.752 166.22 189.905 167.1C188.059 167.979 186.508 169.378 185.444 171.125C189.165 172.434 193.05 173.743 197.054 175.05ZM437.411 440.055L439.427 442.155L439.429 442.158L439.429 442.158L439.429 442.158L439.43 442.158L439.43 442.159C449.674 452.83 460.005 463.592 470.624 474.173C474.355 477.708 477.74 481.591 480.734 485.769C483.664 490.596 484.2 499.716 484.2 507.309C484.393 515.049 484.103 522.795 483.334 530.499C481.023 548.243 476.979 565.203 469.758 576.964C464.681 572.484 459.784 568.175 454.997 563.963C445.231 555.37 435.927 547.184 426.512 538.794L434.765 442.523L433.058 442.015L437.449 442.234L437.411 440.055ZM417.505 441.237C421.961 442.681 426.276 444.129 430.391 445.577C429.289 447.234 427.737 448.542 425.916 449.346C424.096 450.15 422.083 450.417 420.116 450.116C410.159 447.39 400.473 444.301 390.878 441.242L390.834 441.228L390.665 441.174C389.074 440.667 387.486 440.16 385.899 439.657L417.505 441.237ZM424.408 454.779C409.725 451.613 390.46 445.385 371.651 438.944L359.046 438.314L356.07 441.394C375.699 448.886 395.997 454.501 416.691 458.162C420.281 458.699 421.725 458.905 424.408 454.779ZM405.013 460.514C387.141 457.113 369.708 451.753 353.029 444.54L343.544 454.356C362.736 463.257 383.49 468.4 404.683 469.469L412.565 469.923L417.805 462.784L405.013 460.514ZM345.963 461.464C344.008 460.301 342.083 459.088 340.191 457.826L337.439 460.673C349.467 471.673 365.092 482.803 383.184 488.244C384.493 488.801 385.763 489.39 387.031 489.979L387.032 489.979L387.034 489.98L387.035 489.98C389.244 491.005 391.446 492.027 393.831 492.866C393.245 502.422 392.357 515.593 391.412 529.613C389.027 564.997 386.277 605.785 387.104 607.5L390.364 608.283C390.488 607.953 391.107 600.856 391.107 600.856H396.76L403.528 482.261C402.103 482.114 400.796 481.835 399.483 481.555C398.591 481.364 397.696 481.173 396.76 481.023C380.927 477.69 365.645 472.133 351.369 464.517L345.963 461.464ZM389.869 496.043C369.231 489.452 350.365 478.352 334.616 463.595L309.527 489.559V492.949C309.857 508.712 310.187 524.64 310.187 540.609C310.027 545.748 310.372 550.889 311.219 555.96C312.539 561.242 318.605 568.257 324.011 573.621C329.339 579.228 335.002 584.506 340.97 589.426C355.207 600.319 370.021 609.48 383.473 612.699C383.743 608.407 384.009 604.215 384.27 600.097L384.298 599.658L384.301 599.604C386.497 564.94 388.363 535.495 389.869 496.043ZM306.597 492.99V492.59L304.576 494.682L278.837 466.28C263.615 479.754 245.73 489.946 226.296 496.167C227.703 533.953 229.5 562.56 231.56 595.338L231.56 595.339L231.562 595.383C231.918 601.035 232.28 606.812 232.651 612.781C246.268 609.563 260.958 600.443 275.153 589.549C281.131 584.64 286.795 579.362 292.113 573.745C297.519 568.422 303.585 561.531 304.905 556.042C305.771 550.988 306.117 545.858 305.937 540.733C305.937 527.558 306.188 514.439 306.438 501.399L306.438 501.397L306.438 501.39C306.492 498.586 306.546 495.786 306.597 492.99ZM232.939 488.451C249.732 483.409 264.499 473.425 276.082 463.24L273.07 459.917C272.122 460.513 271.165 461.098 270.201 461.67C269.066 462.356 267.914 462.992 266.755 463.631C266.103 463.991 265.45 464.352 264.796 464.723C250.518 472.335 235.237 477.892 219.405 481.229C218.475 481.379 217.578 481.568 216.683 481.758L216.682 481.758L216.682 481.758C215.353 482.039 214.026 482.319 212.596 482.467L219.363 601.062H225.058C225.058 601.062 225.759 608.16 225.759 608.49L229.019 607.706C229.847 605.992 227.097 565.203 224.712 529.82L224.711 529.815L224.71 529.789L224.708 529.769L224.707 529.75L224.706 529.736C223.763 515.747 222.877 502.609 222.293 493.072C224.678 492.234 226.881 491.212 229.09 490.186L229.092 490.185L229.093 490.185C230.361 489.597 231.631 489.007 232.939 488.451ZM211.482 469.675C231.52 468.615 251.176 463.976 269.528 456.008L259.93 445.417C244.111 452.07 227.623 457.036 210.739 460.226L197.947 462.495L203.641 470.129L211.482 469.675ZM199.061 458.369C218.872 454.794 238.313 449.43 257.147 442.346L251.934 436.593C232.045 443.647 211.841 449.785 191.386 454.985C194.027 458.946 195.43 458.905 199.061 458.369ZM239.667 436.794C234.738 438.305 229.812 439.877 224.862 441.457L224.861 441.458L224.859 441.458C215.286 444.514 205.623 447.599 195.677 450.322C193.65 450.597 191.587 450.275 189.74 449.395C187.894 448.516 186.343 447.117 185.279 445.37C192.947 442.675 201.311 439.98 209.977 437.309L239.667 436.794ZM180.781 442.441L197.621 437.524L180.328 437.824L178.222 439.965C176.846 441.393 175.467 442.825 174.088 444.258L174.067 444.279C164.495 454.222 154.839 464.251 144.963 474.091C141.211 477.605 137.824 481.49 134.853 485.686C131.882 490.72 131.387 499.633 131.387 507.226C131.162 514.966 131.438 522.712 132.212 530.417C134.564 547.996 138.567 565.121 145.788 576.881C155.697 568.161 164.895 560.034 173.913 552.065C178.979 547.59 183.988 543.164 189.034 538.711L180.781 442.441ZM171.484 442.119C172.947 440.711 174.407 439.305 175.864 437.902L173.519 437.943L175.558 399.2C155.183 398.003 135.241 392.562 117.027 383.184C90.5278 411.75 71.1622 433.723 48.6069 459.315L48.5571 459.372L48.5166 459.418C45.4255 462.925 42.2743 466.5 39.0364 470.17C50.8382 477.392 67.798 481.436 85.5418 483.788C93.2352 484.521 100.965 484.796 108.691 484.613C116.325 484.654 125.445 484.077 130.273 481.147C134.455 478.174 138.326 474.787 141.827 471.037C151.625 461.239 161.61 451.626 171.484 442.119ZM127.137 382.483C142.374 389.915 158.912 394.21 175.771 395.153L176.017 390.485C174.809 390.214 173.605 389.926 172.404 389.622C170.588 389.126 168.443 388.507 166.462 387.93C150.987 383.271 136.247 376.45 122.68 367.669C121.898 367.108 121.117 366.596 120.335 366.084C119.219 365.353 118.102 364.622 116.986 363.749L37.9223 452.385L42.0488 456.512C42.0488 456.512 37.3033 461.959 37.3033 462.248L40.1506 464.022C41.9534 463.401 68.8594 432.619 92.1571 405.964L92.1593 405.962C101.39 395.4 110.055 385.488 116.367 378.356C118.325 379.212 120.283 379.92 122.241 380.628C123.873 381.218 125.505 381.808 127.137 382.483ZM125.073 353.763C140.131 367.294 157.486 377.98 176.288 385.331L177.002 371.771C160.898 365.228 145.524 356.994 131.139 347.201C130.139 346.476 129.26 345.862 127.869 344.891L127.866 344.889C126.33 343.816 124.17 342.308 120.534 339.733L119.173 348.522L125.073 353.763ZM124.124 337.463C140.858 349.163 158.63 359.295 177.215 367.733L177.635 359.751C158.332 350.577 139.458 340.524 121.071 329.623C120.478 331.072 120.464 332.693 121.032 334.153C121.6 335.612 122.707 336.797 124.124 337.463ZM153.493 343.129C158.841 345.907 164.127 348.652 169.307 351.482L147.284 330.201C139.286 325.974 131.482 321.99 124.166 318.522C123.692 320.513 123.806 322.598 124.495 324.524C125.183 326.451 126.416 328.136 128.044 329.375C136.562 334.336 145.103 338.772 153.493 343.129ZM126.018 309.651L138.529 321.74L123.01 313.364L60.7336 387.135C42.0184 386.024 23.7051 384.872 3.13613 383.556C6.35478 370.103 15.5155 355.289 26.4094 341.094C31.3018 335.102 36.5666 329.424 42.1726 324.093C47.537 318.688 54.552 312.663 59.8751 311.342C64.9418 310.461 70.0855 310.101 75.2256 310.269C89.5416 310.269 103.824 310.004 117.985 309.741L117.987 309.741C119.622 309.711 121.255 309.68 122.886 309.651H126.018ZM58.6083 389.653L60.7336 387.135L60.9067 387.146L58.761 389.663L58.6083 389.653ZM58.6083 389.653C32.5102 387.966 9.73607 386.569 8.50054 387.187L7.71652 390.447C8.04663 390.571 15.1442 391.19 15.1442 391.19V396.843L50.7969 398.906L58.6083 389.653ZM118.021 306.587C119.663 306.618 121.303 306.648 122.942 306.678L121.278 305.07L124.474 302.175L123.01 302.966L60.948 229.184C48.7394 229.902 36.8394 230.655 24.3971 231.442C17.5363 231.875 10.5106 232.32 3.17739 232.774C6.39603 246.35 15.5155 261.041 26.4507 275.236C31.343 281.228 36.6078 286.906 42.2138 292.237C47.537 297.642 54.4282 303.667 59.9164 304.988C64.9831 305.869 70.1268 306.229 75.2669 306.06C89.5942 306.06 103.855 306.325 118.021 306.587ZM159.492 270.444L134.973 292.662C131.266 294.54 127.639 296.334 124.124 298.014C123.648 296.03 123.762 293.95 124.451 292.03C125.14 290.109 126.375 288.431 128.003 287.202C137.044 282.03 146.15 277.331 155.173 272.675L155.175 272.674L155.184 272.669C156.622 271.927 158.058 271.186 159.492 270.444ZM170.418 260.543C153.85 268.712 137.595 277.508 121.69 286.914C121.097 285.465 121.083 283.843 121.651 282.384C122.219 280.925 123.326 279.74 124.743 279.073C141.893 267.082 160.135 256.738 179.224 248.176L179.296 252.499L170.418 260.543ZM131.758 269.335C146.613 259.238 162.505 250.78 179.155 244.099L178.921 230.182C159.3 237.557 141.229 248.608 125.692 262.774L119.792 268.014L121.153 276.804C124.791 274.227 126.952 272.718 128.488 271.646L128.489 271.645L128.492 271.643C129.881 270.673 130.759 270.06 131.758 269.335ZM172.528 226.708C174.62 226.181 176.724 225.704 178.838 225.276L178.769 221.159C162.575 221.928 143.911 225.127 127.467 233.971C126.352 234.389 125.242 234.78 124.134 235.169L124.134 235.169L124.133 235.17L124.133 235.17L124.132 235.17L124.132 235.17L124.132 235.17L124.131 235.17L124.131 235.17L124.131 235.17L124.131 235.17C121.63 236.05 119.143 236.925 116.655 238.097C110.14 230.74 101.159 220.462 91.6392 209.568L91.6296 209.557L91.6272 209.555L91.6222 209.549L91.621 209.548C68.4687 183.052 42.1403 152.922 40.3569 152.308L37.5096 154.083C37.6334 154.371 42.2551 159.818 42.2551 159.818L38.1286 163.945L117.316 252.581C118.502 251.653 119.688 250.886 120.875 250.118C121.587 249.658 122.298 249.198 123.01 248.703C136.5 239.905 151.172 233.07 166.586 228.4C168.401 227.823 170.547 227.204 172.528 226.708ZM117.357 233.187C136.414 223.366 157.363 217.891 178.7 217.099L178.082 180.381L176.324 178.594C174.787 177.113 173.247 175.63 171.705 174.146L171.705 174.145C161.861 164.669 151.932 155.109 142.157 145.334C138.656 141.584 134.785 138.197 130.603 135.225C125.775 132.295 116.655 131.758 109.021 131.758C101.295 131.575 93.5653 131.85 85.8719 132.583C68.2519 134.936 51.1683 138.98 39.3666 146.201C43.4769 150.853 47.4461 155.353 51.3286 159.754C72.8985 184.209 91.7937 205.63 117.357 233.187ZM173.502 171.665C175.007 173.229 176.511 174.791 178.014 176.351L177.976 174.096L181.329 174.263L180.905 174.137L189.158 77.9077C177.566 67.5744 166.2 57.5771 153.903 46.7626C151.272 44.4484 148.598 42.0969 145.871 39.6967C138.65 51.4984 134.647 68.4168 132.295 86.1607C131.562 93.8678 131.286 101.612 131.469 109.352C131.428 116.944 132.006 126.064 134.936 130.892C137.897 135.082 141.286 138.954 145.046 142.446C154.677 152.113 164.099 161.899 173.465 171.627L173.465 171.628L173.466 171.628L173.502 171.665ZM354.919 427.379L304.948 479.001L256.792 425.728L184.95 426.966L188.581 355.207L136.918 305.276L190.232 257.121L188.994 185.32L260.712 188.91L310.642 137.288L358.798 190.561L430.599 189.323L426.967 261.041L478.631 310.971L425.358 359.333L426.596 431.134L354.919 427.379ZM304.904 206.035L218.619 227.947L304.532 254.315C306.861 255.066 309.318 255.333 311.754 255.099L399.978 226.544L314.147 206.365C312.43 205.679 310.589 205.356 308.741 205.416C307.44 205.45 306.15 205.659 304.904 206.035ZM261.408 245.567L299.536 261.702C302.128 262.503 304.829 262.893 307.542 262.857C310.046 262.821 312.533 262.432 314.928 261.702L356.853 245.196L357.224 269.047C352.717 273.808 347.48 277.82 341.709 280.931C331.298 286.262 319.68 288.793 307.996 288.276C294.478 288.52 281.226 284.507 270.115 276.805C267.118 274.601 264.352 272.099 261.862 269.336C261.862 263.442 261.723 257.548 261.584 251.636L261.584 251.619L261.584 251.603C261.537 249.621 261.49 247.636 261.449 245.65L261.408 245.567ZM276.024 295.867C269.209 291.885 262.785 287.271 256.836 282.084L256.959 282.25C254.637 289.152 254.916 296.666 257.743 303.377L257.774 303.433C258.973 305.582 260.887 309.017 271.319 316.953C278.409 322.348 283.256 325.197 287.07 327.439C291.336 329.946 294.311 331.695 297.688 335.399C302.978 341.431 306.442 348.845 307.674 356.774C307.734 357.255 307.969 357.697 308.335 358.017C308.7 358.336 309.169 358.511 309.654 358.507C310.057 358.482 310.444 358.34 310.766 358.098C311.089 357.856 311.334 357.525 311.47 357.145C313.466 348.758 317.426 340.965 323.024 334.408C328.651 327.805 335.706 322.57 343.657 319.099C344.564 318.851 360.699 313.116 363.67 298.219C364.648 292.936 363.94 287.48 361.648 282.621C356.182 288.637 349.684 293.626 342.46 297.352C339.108 299.082 336.161 300.228 333.403 301.301C328.791 303.094 324.706 304.683 320.136 308.453C315.924 311.918 312.457 316.199 309.943 321.038C306.576 316.407 302.607 312.244 298.142 308.659C293.355 304.846 289.407 302.859 284.802 300.542C282.18 299.224 279.346 297.798 276.024 295.867ZM205.951 280.929C208.551 285.056 212.43 291.287 216.928 298.962C222.341 308.259 225.867 314.967 228.319 319.633L228.319 319.634C229.437 321.76 230.332 323.463 231.081 324.794C236.652 334.656 247.298 347.655 269.829 360.116C270.251 356.953 269.824 353.734 268.591 350.791C267.106 347.628 264.85 344.889 262.03 342.827C257.696 339.098 254.797 337.131 252.541 335.6L252.541 335.6C250.952 334.522 249.682 333.66 248.454 332.552C244.864 329.333 240.985 323.432 240.449 311.919C244.245 314.106 249.774 317.366 256.459 321.41C273.832 332.056 282.497 337.38 286.995 342.043C296.092 351.829 302.006 364.146 303.955 377.365C305.798 388.608 304.907 400.129 301.355 410.955C290.92 407.241 280.928 402.383 271.562 396.471C250.86 383.348 233.823 365.189 222.044 343.693C211.657 324.391 206.133 302.848 205.951 280.929ZM399.651 298.962C404.149 291.287 408.028 285.056 410.627 280.929C410.449 302.807 404.969 324.315 394.658 343.611C382.884 365.11 365.846 383.269 345.14 396.388C335.739 402.339 325.705 407.224 315.223 410.955C311.63 400.138 310.737 388.606 312.624 377.365C314.572 364.146 320.486 351.829 329.584 342.043C334.081 337.38 342.747 332.056 360.119 321.41C366.763 317.366 372.334 314.106 376.089 311.919C375.552 323.432 371.137 329.869 368.125 332.552C366.903 333.639 365.648 334.489 364.097 335.539C361.824 337.079 358.915 339.049 354.549 342.827C351.729 344.901 349.462 347.635 347.946 350.791C346.724 353.737 346.311 356.957 346.75 360.116C369.28 347.655 379.927 334.656 385.456 324.794C386.199 323.475 387.089 321.79 388.199 319.688C390.665 315.02 394.216 308.296 399.651 298.962Z" fill="#1268B3" fill-opacity="0.05"/>
</svg>
