<svg width="24" height="24" viewBox="0 0 24 24" fill="none" xmlns="http://www.w3.org/2000/svg">
<path fill-rule="evenodd" clip-rule="evenodd" d="M6.96342 5.5H17.0366C17.9483 5.49999 18.6832 5.49998 19.2612 5.57768C19.8612 5.65836 20.3665 5.83096 20.7678 6.23223C21.169 6.63351 21.3416 7.13876 21.4223 7.73883C21.5 8.31681 21.5 9.05168 21.5 9.9634V17.0366C21.5 17.9483 21.5 18.6832 21.4223 19.2612C21.3416 19.8612 21.169 20.3665 20.7678 20.7678C20.3665 21.169 19.8612 21.3416 19.2612 21.4223C18.6832 21.5 17.9483 21.5 17.0366 21.5H6.96343C6.0517 21.5 5.31681 21.5 4.73883 21.4223C4.13876 21.3416 3.63351 21.169 3.23223 20.7678C2.83096 20.3665 2.65836 19.8612 2.57768 19.2612C2.49998 18.6832 2.49999 17.9483 2.5 17.0366V9.96342C2.49999 9.05169 2.49998 8.31681 2.57768 7.73883C2.65836 7.13876 2.83096 6.63351 3.23223 6.23223C3.63351 5.83096 4.13876 5.65836 4.73883 5.57768C5.31681 5.49998 6.05169 5.49999 6.96342 5.5ZM4.87208 6.56877C4.3829 6.63453 4.12385 6.75483 3.93934 6.93934C3.75483 7.12385 3.63453 7.3829 3.56877 7.87208C3.50106 8.37565 3.5 9.04306 3.5 10V17C3.5 17.9569 3.50106 18.6244 3.56877 19.1279C3.63453 19.6171 3.75483 19.8762 3.93934 20.0607C4.12385 20.2452 4.3829 20.3655 4.87208 20.4312C5.37565 20.4989 6.04306 20.5 7 20.5H17C17.9569 20.5 18.6244 20.4989 19.1279 20.4312C19.6171 20.3655 19.8762 20.2452 20.0607 20.0607C20.2452 19.8762 20.3655 19.6171 20.4312 19.1279C20.4989 18.6244 20.5 17.9569 20.5 17V10C20.5 9.04306 20.4989 8.37565 20.4312 7.87208C20.3655 7.3829 20.2452 7.12385 20.0607 6.93934C19.8762 6.75483 19.6171 6.63453 19.1279 6.56877C18.6244 6.50106 17.9569 6.5 17 6.5H7C6.04306 6.5 5.37565 6.50106 4.87208 6.56877Z" fill="white"/>
<path d="M3 10C3 8.11438 3 7.17157 3.58579 6.58579C4.17157 6 5.11438 6 7 6H17C18.8856 6 19.8284 6 20.4142 6.58579C21 7.17157 21 8.11438 21 10H3Z" fill="white"/>
<path fill-rule="evenodd" clip-rule="evenodd" d="M7 2.5C7.27614 2.5 7.5 2.72386 7.5 3L7.5 6C7.5 6.27614 7.27614 6.5 7 6.5C6.72386 6.5 6.5 6.27614 6.5 6L6.5 3C6.5 2.72386 6.72386 2.5 7 2.5Z" fill="white"/>
<path fill-rule="evenodd" clip-rule="evenodd" d="M17 2.5C17.2761 2.5 17.5 2.72386 17.5 3L17.5 6C17.5 6.27614 17.2761 6.5 17 6.5C16.7239 6.5 16.5 6.27614 16.5 6L16.5 3C16.5 2.72386 16.7239 2.5 17 2.5Z" fill="white"/>
<path d="M7 13C7 12.5286 7 12.2929 7.14645 12.1464C7.29289 12 7.5286 12 8 12H10C10.4714 12 10.7071 12 10.8536 12.1464C11 12.2929 11 12.5286 11 13C11 13.4714 11 13.7071 10.8536 13.8536C10.7071 14 10.4714 14 10 14H8C7.5286 14 7.29289 14 7.14645 13.8536C7 13.7071 7 13.4714 7 13Z" fill="white"/>
<path d="M7 17C7 16.5286 7 16.2929 7.14645 16.1464C7.29289 16 7.5286 16 8 16H10C10.4714 16 10.7071 16 10.8536 16.1464C11 16.2929 11 16.5286 11 17C11 17.4714 11 17.7071 10.8536 17.8536C10.7071 18 10.4714 18 10 18H8C7.5286 18 7.29289 18 7.14645 17.8536C7 17.7071 7 17.4714 7 17Z" fill="white"/>
<path d="M13 13C13 12.5286 13 12.2929 13.1464 12.1464C13.2929 12 13.5286 12 14 12H16C16.4714 12 16.7071 12 16.8536 12.1464C17 12.2929 17 12.5286 17 13C17 13.4714 17 13.7071 16.8536 13.8536C16.7071 14 16.4714 14 16 14H14C13.5286 14 13.2929 14 13.1464 13.8536C13 13.7071 13 13.4714 13 13Z" fill="white"/>
<path d="M13 17C13 16.5286 13 16.2929 13.1464 16.1464C13.2929 16 13.5286 16 14 16H16C16.4714 16 16.7071 16 16.8536 16.1464C17 16.2929 17 16.5286 17 17C17 17.4714 17 17.7071 16.8536 17.8536C16.7071 18 16.4714 18 16 18H14C13.5286 18 13.2929 18 13.1464 17.8536C13 17.7071 13 17.4714 13 17Z" fill="white"/>
</svg>
