<svg width="38" height="38" viewBox="0 0 38 38" fill="none" xmlns="http://www.w3.org/2000/svg">
<path d="M30.5993 9.14803L29.7678 9.7036L29.7678 9.70361L30.5993 9.14803ZM30.5993 25.6853L31.4308 26.2408L30.5993 25.6853ZM28.8519 27.4326L28.2964 26.6011V26.6012L28.8519 27.4326ZM22.1666 28.4978L22.1623 27.4978C21.6117 27.5002 21.1666 27.9472 21.1666 28.4978H22.1666ZM22.1666 28.5L23.0611 28.9472C23.1305 28.8083 23.1666 28.6552 23.1666 28.5H22.1666ZM19.8944 33.0445L19 32.5972V32.5972L19.8944 33.0445ZM18.1056 33.0445L19 32.5972V32.5972L18.1056 33.0445ZM15.8333 28.5H14.8333C14.8333 28.6552 14.8695 28.8083 14.9389 28.9472L15.8333 28.5ZM15.8333 28.4978H16.8333C16.8333 27.9472 16.3883 27.5002 15.8377 27.4978L15.8333 28.4978ZM9.14803 27.4326L9.70361 26.6012L9.7036 26.6011L9.14803 27.4326ZM7.40067 25.6853L6.5692 26.2408H6.5692L7.40067 25.6853ZM7.40067 9.14803L6.5692 8.59246L6.5692 8.59246L7.40067 9.14803ZM9.14803 7.40067L8.59246 6.5692L8.59246 6.5692L9.14803 7.40067ZM28.8519 7.40067L28.2964 8.23214V8.23214L28.8519 7.40067ZM32.6666 17.4166C32.6666 15.2137 32.6679 13.4863 32.5281 12.1124C32.3866 10.7218 32.0925 9.58287 31.4308 8.59246L29.7678 9.70361C30.1734 10.3106 30.413 11.0823 30.5384 12.3148C30.6654 13.564 30.6666 15.1721 30.6666 17.4166H32.6666ZM31.4308 26.2408C32.0925 25.2504 32.3866 24.1115 32.5281 22.7209C32.6679 21.347 32.6666 19.6196 32.6666 17.4166H30.6666C30.6666 19.6612 30.6654 21.2693 30.5384 22.5185C30.413 23.751 30.1734 24.5227 29.7678 25.1297L31.4308 26.2408ZM29.4075 28.2641C30.2082 27.7291 30.8957 27.0416 31.4308 26.2408L29.7678 25.1297C29.3787 25.712 28.8787 26.212 28.2964 26.6011L29.4075 28.2641ZM22.171 29.4978C23.8744 29.4904 25.2595 29.4581 26.404 29.2999C27.5646 29.1394 28.5424 28.8421 29.4075 28.2641L28.2964 26.6012C27.7659 26.9556 27.1093 27.1834 26.1302 27.3187C25.135 27.4563 23.8752 27.4904 22.1623 27.4978L22.171 29.4978ZM23.1666 28.5V28.4978H21.1666V28.5H23.1666ZM20.7888 33.4917L23.0611 28.9472L21.2722 28.0528L19 32.5972L20.7888 33.4917ZM17.2111 33.4917C17.9482 34.9658 20.0518 34.9658 20.7888 33.4917L19 32.5972L19 32.5972L17.2111 33.4917ZM14.9389 28.9472L17.2111 33.4917L19 32.5972L16.7277 28.0528L14.9389 28.9472ZM14.8333 28.4978V28.5H16.8333V28.4978H14.8333ZM8.59246 28.2641C9.45752 28.8421 10.4353 29.1394 11.5959 29.2999C12.7404 29.4581 14.1255 29.4904 15.829 29.4978L15.8377 27.4978C14.1247 27.4904 12.8649 27.4563 11.8698 27.3187C10.8907 27.1834 10.234 26.9556 9.70361 26.6012L8.59246 28.2641ZM6.5692 26.2408C7.10423 27.0416 7.79174 27.7291 8.59246 28.2641L9.7036 26.6011C9.12126 26.212 8.62125 25.712 8.23214 25.1297L6.5692 26.2408ZM5.33331 17.4166C5.33331 19.6196 5.3321 21.347 5.47187 22.7209C5.61333 24.1115 5.90744 25.2504 6.5692 26.2408L8.23214 25.1297C7.82655 24.5227 7.58697 23.751 7.4616 22.5185C7.33452 21.2693 7.33331 19.6612 7.33331 17.4166H5.33331ZM6.5692 8.59246C5.90744 9.58287 5.61333 10.7218 5.47187 12.1124C5.3321 13.4863 5.33331 15.2137 5.33331 17.4166H7.33331C7.33331 15.1721 7.33452 13.564 7.4616 12.3148C7.58697 11.0823 7.82655 10.3106 8.23214 9.7036L6.5692 8.59246ZM8.59246 6.5692C7.79174 7.10423 7.10423 7.79174 6.5692 8.59246L8.23214 9.7036C8.62125 9.12126 9.12126 8.62125 9.7036 8.23214L8.59246 6.5692ZM17.4166 5.33331C15.2137 5.33331 13.4863 5.3321 12.1124 5.47187C10.7218 5.61333 9.58287 5.90744 8.59246 6.5692L9.7036 8.23214C10.3106 7.82655 11.0823 7.58697 12.3148 7.4616C13.564 7.33452 15.1721 7.33331 17.4166 7.33331V5.33331ZM20.5833 5.33331H17.4166V7.33331H20.5833V5.33331ZM29.4075 6.5692C28.4171 5.90744 27.2782 5.61333 25.8876 5.47187C24.5137 5.3321 22.7862 5.33331 20.5833 5.33331V7.33331C22.8279 7.33331 24.436 7.33452 25.6852 7.4616C26.9177 7.58697 27.6893 7.82655 28.2964 8.23214L29.4075 6.5692ZM31.4308 8.59246C30.8957 7.79174 30.2082 7.10423 29.4075 6.5692L28.2964 8.23214C28.8787 8.62125 29.3787 9.12126 29.7678 9.7036L31.4308 8.59246Z" fill="#1268B3"/>
<ellipse cx="25.3333" cy="17.4166" rx="1.58333" ry="1.58333" fill="#1268B3"/>
<ellipse cx="19" cy="17.4166" rx="1.58333" ry="1.58333" fill="#1268B3"/>
<circle cx="12.6666" cy="17.4166" r="1.58333" fill="#1268B3"/>
</svg>
