<svg width="33" height="32" viewBox="0 0 33 32" fill="none" xmlns="http://www.w3.org/2000/svg">
<path fill-rule="evenodd" clip-rule="evenodd" d="M9.95122 7.33333H23.3821C24.5977 7.33331 25.5776 7.3333 26.3482 7.43691C27.1483 7.54448 27.822 7.7746 28.357 8.30964C28.8921 8.84468 29.1222 9.51834 29.2298 10.3184C29.3334 11.0891 29.3334 12.0689 29.3333 13.2845V22.7155C29.3334 23.9311 29.3334 24.9109 29.2298 25.6816C29.1222 26.4816 28.8921 27.1553 28.357 27.6904C27.822 28.2254 27.1483 28.4555 26.3482 28.5631C25.5776 28.6667 24.5977 28.6667 23.3821 28.6667H9.95124C8.7356 28.6667 7.75575 28.6667 6.98511 28.5631C6.18501 28.4555 5.51135 28.2254 4.97631 27.6904C4.44127 27.1553 4.21115 26.4816 4.10358 25.6816C3.99997 24.9109 3.99998 23.9311 4 22.7154V13.2846C3.99998 12.0689 3.99997 11.0891 4.10358 10.3184C4.21115 9.51834 4.44127 8.84468 4.97631 8.30964C5.51135 7.7746 6.18502 7.54448 6.98511 7.43691C7.75575 7.3333 8.73559 7.33331 9.95122 7.33333ZM7.16277 8.75835C6.51053 8.84604 6.16513 9.00644 5.91912 9.25245C5.67311 9.49846 5.51271 9.84386 5.42502 10.4961C5.33475 11.1675 5.33333 12.0574 5.33333 13.3333V22.6667C5.33333 23.9426 5.33475 24.8325 5.42502 25.5039C5.51271 26.1561 5.67311 26.5015 5.91912 26.7475C6.16513 26.9936 6.51053 27.154 7.16277 27.2416C7.8342 27.3319 8.72408 27.3333 10 27.3333H23.3333C24.6093 27.3333 25.4991 27.3319 26.1706 27.2416C26.8228 27.154 27.1682 26.9936 27.4142 26.7475C27.6602 26.5015 27.8206 26.1561 27.9083 25.5039C27.9986 24.8325 28 23.9426 28 22.6667V13.3333C28 12.0574 27.9986 11.1675 27.9083 10.4961C27.8206 9.84386 27.6602 9.49846 27.4142 9.25245C27.1682 9.00644 26.8228 8.84604 26.1706 8.75835C25.4991 8.66808 24.6093 8.66666 23.3333 8.66666H10C8.72408 8.66666 7.8342 8.66808 7.16277 8.75835Z" fill="white"/>
<path d="M4.66797 13.3333C4.66797 10.8192 4.66797 9.5621 5.44902 8.78105C6.23007 8 7.48714 8 10.0013 8H23.3346C25.8488 8 27.1059 8 27.8869 8.78105C28.668 9.5621 28.668 10.8192 28.668 13.3333H4.66797Z" fill="white"/>
<path fill-rule="evenodd" clip-rule="evenodd" d="M10.0013 3.33333C10.3695 3.33333 10.668 3.63181 10.668 3.99999L10.668 8C10.668 8.36819 10.3695 8.66666 10.0013 8.66666C9.63311 8.66666 9.33463 8.36818 9.33463 7.99999L9.33463 3.99999C9.33463 3.6318 9.63311 3.33333 10.0013 3.33333Z" fill="white"/>
<path fill-rule="evenodd" clip-rule="evenodd" d="M23.3333 3.33333C23.7015 3.33333 24 3.63181 24 3.99999L24 8C24 8.36819 23.7015 8.66666 23.3333 8.66666C22.9651 8.66666 22.6667 8.36818 22.6667 7.99999L22.6667 3.99999C22.6667 3.6318 22.9651 3.33333 23.3333 3.33333Z" fill="white"/>
<path d="M10 17.3333C10 16.7048 10 16.3905 10.1953 16.1953C10.3905 16 10.7048 16 11.3333 16H14C14.6285 16 14.9428 16 15.1381 16.1953C15.3333 16.3905 15.3333 16.7048 15.3333 17.3333C15.3333 17.9619 15.3333 18.2761 15.1381 18.4714C14.9428 18.6667 14.6285 18.6667 14 18.6667H11.3333C10.7048 18.6667 10.3905 18.6667 10.1953 18.4714C10 18.2761 10 17.9619 10 17.3333Z" fill="white"/>
<path d="M10 22.6667C10 22.0381 10 21.7239 10.1953 21.5286C10.3905 21.3333 10.7048 21.3333 11.3333 21.3333H14C14.6285 21.3333 14.9428 21.3333 15.1381 21.5286C15.3333 21.7239 15.3333 22.0381 15.3333 22.6667C15.3333 23.2952 15.3333 23.6095 15.1381 23.8047C14.9428 24 14.6285 24 14 24H11.3333C10.7048 24 10.3905 24 10.1953 23.8047C10 23.6095 10 23.2952 10 22.6667Z" fill="white"/>
<path d="M18 17.3333C18 16.7048 18 16.3905 18.1953 16.1953C18.3905 16 18.7048 16 19.3333 16H22C22.6285 16 22.9428 16 23.1381 16.1953C23.3333 16.3905 23.3333 16.7048 23.3333 17.3333C23.3333 17.9619 23.3333 18.2761 23.1381 18.4714C22.9428 18.6667 22.6285 18.6667 22 18.6667H19.3333C18.7048 18.6667 18.3905 18.6667 18.1953 18.4714C18 18.2761 18 17.9619 18 17.3333Z" fill="white"/>
<path d="M18 22.6667C18 22.0381 18 21.7239 18.1953 21.5286C18.3905 21.3333 18.7048 21.3333 19.3333 21.3333H22C22.6285 21.3333 22.9428 21.3333 23.1381 21.5286C23.3333 21.7239 23.3333 22.0381 23.3333 22.6667C23.3333 23.2952 23.3333 23.6095 23.1381 23.8047C22.9428 24 22.6285 24 22 24H19.3333C18.7048 24 18.3905 24 18.1953 23.8047C18 23.6095 18 23.2952 18 22.6667Z" fill="white"/>
</svg>
