<svg width="113" height="77" viewBox="0 0 113 77" fill="none" xmlns="http://www.w3.org/2000/svg">
<g clip-path="url(#clip0_129_12067)">
<path d="M90.3996 11.3047H79.0996V22.6094H90.3996V11.3047Z" fill="#154A9F"/>
<path d="M101.7 0H90.4004V11.3047H101.7V0Z" fill="#154A9F"/>
<path d="M113 11.3047H101.7V22.6094H113V11.3047Z" fill="#154A9F"/>
<path d="M79.0998 22.6094V33.9141H90.3998V22.6094H79.0998V11.3047H67.7998V22.6094H79.0998Z" fill="#2B66B1"/>
<path d="M67.8 33.9141H79.1V22.6094H67.8V11.3047H67.7225C61.5201 11.3435 56.5 16.385 56.5 22.6094H67.8V33.9141Z" fill="#3575BB"/>
<path d="M101.7 22.6094H90.4004V33.9141H101.7V22.6094Z" fill="#154A9F"/>
<path d="M113 22.6094H101.7V33.9141H113V22.6094Z" fill="#2B66B1"/>
<path d="M79.0998 33.9141H67.7998V45.2188H79.0998V33.9141Z" fill="#488FCC"/>
<path d="M90.3996 33.9141H79.0996V45.2188H90.3996V33.9141Z" fill="#3575BB"/>
<path d="M101.7 33.9141H90.4004V45.2188H101.7V33.9141Z" fill="#2B66B1"/>
<path d="M67.8 22.6094H56.5V33.9141H67.8V22.6094Z" fill="#488FCC"/>
<path d="M67.8 33.9141H56.5V45.2188H67.8V33.9141Z" fill="#71B3E2"/>
<path d="M67.8 45.2188H56.5V56.5235H67.8V45.2188Z" fill="#95C8EC"/>
<path d="M79.0998 45.2188H67.7998V56.5235H79.0998V45.2188Z" fill="#71B3E2"/>
<path d="M90.3996 45.2188H79.0996V56.5235H90.3996V45.2188Z" fill="#488FCC"/>
<path d="M113 45.2188H101.7V56.5235H113V45.2188Z" fill="#2B66B1"/>
<path d="M79.0998 56.5236H67.7998V67.8283H79.0998V56.5236Z" fill="#95C8EC"/>
<path d="M90.3996 56.5236H79.0996V67.8283H90.3996V56.5236Z" fill="#71B3E2"/>
<path d="M101.7 56.5236H90.4004V67.8283H101.7V56.5236Z" fill="#488FCC"/>
<path d="M56.5 77C56.5775 77 56.6357 77 56.7132 76.9806C57.1202 74.8476 58.1281 72.9279 59.5624 71.4155C61.617 69.2243 64.505 67.867 67.7419 67.8476H67.8194V56.5429H56.5194V77H56.5Z" fill="#BEDDF4"/>
<path d="M56.5 22.6094V77C56.4418 77 56.3643 77 56.3062 76.9806C55.8991 74.8476 54.8719 72.9086 53.4376 71.3961C51.383 69.2244 48.495 67.867 45.2969 67.8476C45.2775 67.8476 45.2581 67.8476 45.2388 67.8476H11.3C6.62882 67.8476 2.59726 64.9972 0.891595 60.9446C0.31012 59.5872 0 58.1135 0 56.5429V11.3047H45.2775C45.9172 11.3047 46.5568 11.3629 47.1576 11.4792C52.4684 12.41 56.5 17.0443 56.5 22.6094Z" fill="#154A9F"/>
<path d="M15.8933 49.1939H16.7268V53.964H16.0484V50.7839L16.0678 50.2604H16.0484L15.8352 50.7258L14.2652 53.964H13.7419L12.1719 50.7451L11.9587 50.2798H11.9393V50.8033V53.964H11.2803V49.1939H12.1137L13.7612 52.6066L13.9744 53.072H13.9938L14.207 52.6066L15.8933 49.1939ZM22.5803 51.5983C22.5803 53.2077 21.9213 54.0609 20.235 54.0609C18.665 54.0609 17.9091 53.3629 17.8897 51.6371C17.8897 51.5208 17.8897 51.385 17.9091 51.2687H21.7856C21.7081 50.1634 21.2235 49.7174 20.0024 49.7174C19.3434 49.7174 18.7425 49.8338 18.3549 49.9889L18.258 49.3878C18.7038 49.2133 19.3434 49.0776 20.0993 49.0776C21.7468 49.0969 22.5803 49.892 22.5803 51.5983ZM21.805 51.8504H18.6844V51.8698C18.6844 52.9557 19.1108 53.421 20.235 53.421C21.3592 53.421 21.7468 52.9363 21.805 51.8504ZM26.3792 51.8698L27.8523 53.964H26.9607L25.7202 52.0055H24.5185V53.964H23.782V49.1939H25.759C26.9413 49.1939 27.5034 49.6787 27.5034 50.59C27.484 51.2881 27.0964 51.7728 26.3792 51.8698ZM26.7087 50.6094C26.7087 50.0471 26.418 49.795 25.7202 49.795H24.4991V51.4626H25.6815C26.3986 51.4626 26.7087 51.2105 26.7087 50.6094ZM32.9887 49.1939H32.0971L30.372 51.1911H29.4804V49.1939H28.7439V53.964H29.4804V51.7922H30.372L32.1746 53.964H33.1244L31.031 51.4432L32.9887 49.1939ZM38.222 51.5983C38.222 53.2077 37.563 54.0609 35.8767 54.0609C34.3067 54.0609 33.5508 53.3629 33.5314 51.6371C33.5314 51.5208 33.5314 51.385 33.5508 51.2687H37.4273C37.3497 50.1634 36.8652 49.7174 35.6441 49.7174C34.9851 49.7174 34.3842 49.8338 33.9966 49.9889L33.8997 49.3878C34.3455 49.2133 34.9851 49.0776 35.741 49.0776C37.3885 49.0969 38.222 49.892 38.222 51.5983ZM37.4273 51.8504H34.3067V51.8698C34.3067 52.9557 34.7331 53.421 35.8573 53.421C36.9815 53.421 37.3885 52.9363 37.4273 51.8504ZM39.947 53.2853L40.2765 52.9169L42.8544 49.7368V49.1939H39.0748L39.0554 49.8532H41.8852V49.8726L41.5557 50.2604L38.9585 53.4986V53.964H42.835L42.8544 53.3047L39.947 53.2853ZM44.0755 53.964H44.8314V49.1939H44.0755V53.964ZM44.8314 47.6814H44.0755V48.4377H44.8314V47.6814ZM13.2961 31.2576H11.2997V26.4875H13.2767C14.9629 26.4875 15.6801 27.2631 15.6801 28.8726C15.6801 30.5208 14.866 31.2576 13.2961 31.2576ZM13.2573 30.5789C14.3815 30.5789 14.8854 30.1717 14.8854 28.8338C14.8854 27.5734 14.4202 27.1274 13.2573 27.1274H12.0362V30.5789H13.2573ZM16.688 28.8532C16.688 27.205 17.347 26.3906 19.0333 26.3906C20.7196 26.3906 21.3786 27.205 21.3786 28.8532C21.3786 30.5208 20.7389 31.3352 19.0333 31.3352C17.347 31.3352 16.688 30.5208 16.688 28.8532ZM17.4633 28.8532C17.4633 30.2105 17.8897 30.6759 19.0333 30.6759C20.1575 30.6759 20.6033 30.2105 20.6033 28.8532C20.6033 27.4958 20.1768 27.0305 19.0333 27.0305C17.9091 27.0499 17.4633 27.4958 17.4633 28.8532ZM24.693 31.2576L26.7475 26.4875H25.9722L24.4991 30.1136L24.3247 30.5983H24.3053L24.1115 30.1136L22.6578 26.4875H21.8437L23.8983 31.2576H24.693ZM31.0504 30.5789H28.3756V26.4681H27.6391V31.2382H31.031L31.0504 30.5789ZM31.5931 28.9307C31.5931 28.8144 31.5931 28.6787 31.6125 28.5623H35.489C35.4115 27.4571 34.9269 27.0111 33.7058 27.0111C33.0468 27.0111 32.446 27.1274 32.0583 27.2825L31.9614 26.6814C32.4072 26.5069 33.0468 26.3712 33.8027 26.3712C35.4309 26.3712 36.2643 27.1468 36.2643 28.8532C36.2643 30.4626 35.6053 31.3158 33.919 31.3158C32.3684 31.3352 31.6125 30.6371 31.5931 28.9307ZM32.3878 29.144C32.3878 30.2299 32.8142 30.6953 33.9384 30.6953C35.0626 30.6953 35.4503 30.2105 35.5084 29.1246L32.3878 29.144ZM38.4158 31.2576H39.1523V27.1468H40.8386L40.8192 26.4875H36.7295L36.7101 27.1468H38.3964V31.2576H38.4158ZM20.0605 25.1884H19.4209V25.8282H20.0605V25.1884ZM18.6456 25.1884H18.006V25.8282H18.6456V25.1884ZM13.548 37.928V42.698H14.207V39.5568V39.0332H14.2264L14.4396 39.4986L16.0096 42.7174H16.5329L18.1029 39.4792L18.3161 39.0138H18.3355L18.3161 39.5374V42.7174H18.9945V37.9474H18.1611L16.4942 41.3601L16.281 41.8255H16.2616L16.0484 41.3601L14.4009 37.9474H13.548V37.928ZM22.2702 42.7174V38.6066H23.9564L23.937 37.9474H19.8473L19.828 38.6066H21.5142V42.7174H22.2702ZM28.9184 42.7174H28.0849L27.6197 41.5928H25.0612L24.5961 42.7174H23.8014L25.9334 37.9474H26.7863L28.9184 42.7174ZM27.3871 40.9723L26.5537 38.9169L26.3792 38.4321H26.3599L26.166 38.9169L25.3132 40.9723H27.3871ZM33.9966 42.7174V37.9474H33.26V39.9252H30.5271V37.9474H29.7906V42.7174H30.5271V40.5845H33.26V42.7174H33.9966ZM39.1329 42.7174L38.6678 41.5928H36.1093L35.6441 42.7174H34.8494L36.9815 37.9474H37.8343L39.9664 42.7174H39.1329ZM38.4352 40.9723L37.6017 38.9169L37.4273 38.4321H37.4079L37.2141 38.9169L36.3612 40.9723H38.4352ZM44.405 37.928V41.0111L44.4244 41.5152H44.405L44.0755 41.108L41.4782 37.928H40.8192V42.698H41.4976V39.518V38.9945H41.517L41.8271 39.4017L44.5794 42.698H45.0834V37.928H44.405ZM11.2997 42.7174H12.0556V37.9474H11.2997V42.7174ZM12.0556 36.4349H11.2997V37.1911H12.0556V36.4349Z" fill="white"/>
</g>
<defs>
<clipPath id="clip0_129_12067">
<rect width="113" height="77" fill="white"/>
</clipPath>
</defs>
</svg>
