<svg width="50" height="50" viewBox="0 0 50 50" fill="none" xmlns="http://www.w3.org/2000/svg">
<path fill-rule="evenodd" clip-rule="evenodd" d="M22.8133 5H27.1867C31.0874 4.99998 34.1225 4.99997 36.4857 5.3177C38.8956 5.6417 40.7638 6.31337 42.2252 7.77478C43.6866 9.23619 44.3583 11.1044 44.6823 13.5143C45 15.8775 45 18.9125 45 22.8132V27.1868C45 31.0875 45 34.1225 44.6823 36.4857C44.3583 38.8956 43.6866 40.7638 42.2252 42.2252C40.7638 43.6866 38.8956 44.3583 36.4857 44.6823C34.1225 45 31.0875 45 27.1868 45H22.8132C18.9125 45 15.8775 45 13.5143 44.6823C11.1044 44.3583 9.23619 43.6866 7.77478 42.2252C6.31337 40.7638 5.6417 38.8956 5.3177 36.4857C4.99997 34.1225 4.99998 31.0874 5 27.1867V22.8133C4.99998 18.9126 4.99997 15.8775 5.3177 13.5143C5.6417 11.1044 6.31337 9.23619 7.77478 7.77478C9.23619 6.31337 11.1044 5.6417 13.5143 5.3177C15.8775 4.99997 18.9126 4.99998 22.8133 5ZM13.7948 7.40419C11.6184 7.6968 10.2685 8.25837 9.26342 9.26342C8.25837 10.2685 7.6968 11.6184 7.40419 13.7948C7.1075 16.0015 7.10526 18.8953 7.10526 22.8947V27.1053C7.10526 31.1047 7.1075 33.9985 7.40419 36.2052C7.6968 38.3816 8.25837 39.7315 9.26342 40.7366C10.2685 41.7416 11.6184 42.3032 13.7948 42.5958C16.0015 42.8925 18.8953 42.8947 22.8947 42.8947H27.1053C31.1047 42.8947 33.9985 42.8925 36.2052 42.5958C38.3816 42.3032 39.7315 41.7416 40.7366 40.7366C41.7416 39.7315 42.3032 38.3816 42.5958 36.2052C42.8925 33.9985 42.8947 31.1047 42.8947 27.1053V22.8947C42.8947 18.8953 42.8925 16.0015 42.5958 13.7948C42.3032 11.6184 41.7416 10.2685 40.7366 9.26342C39.7315 8.25837 38.3816 7.6968 36.2052 7.40419C33.9985 7.1075 31.1047 7.10526 27.1053 7.10526H22.8947C18.8953 7.10526 16.0015 7.1075 13.7948 7.40419Z" fill="white"/>
<path d="M37.6316 15.5263C37.6316 17.2704 36.2177 18.6842 34.4737 18.6842C32.7296 18.6842 31.3158 17.2704 31.3158 15.5263C31.3158 13.7823 32.7296 12.3684 34.4737 12.3684C36.2177 12.3684 37.6316 13.7823 37.6316 15.5263Z" fill="white"/>
<path fill-rule="evenodd" clip-rule="evenodd" d="M10.2632 28.5273V25.3206C10.9283 24.6014 11.73 23.788 12.593 23.0265C13.7399 22.0145 15.0679 21.0284 16.3763 20.5165C17.6952 20.0004 19.2664 19.883 20.4812 21.0978L20.5341 21.1507L20.5789 21.2106C22.1413 23.2937 22.7589 25.8371 23.2349 27.7976C23.2878 28.0158 23.339 28.2267 23.3896 28.429C23.6578 29.5017 23.8902 30.2711 24.1921 30.7743C24.333 31.0091 24.461 31.1355 24.5685 31.2051C24.6651 31.2676 24.7925 31.3159 25 31.3159C25.4656 31.3159 25.8959 31.1315 26.393 30.7285C26.8428 30.3637 27.2635 29.8932 27.7684 29.3285C27.8541 29.2326 27.9422 29.134 28.0334 29.0327C29.2114 27.7238 30.8081 26.0527 33.421 26.0527C35.5147 26.0527 37.3461 27.3371 38.5502 28.4317C39.0164 28.8556 39.4174 29.2776 39.7368 29.6396V32.711C39.622 32.5916 39.4753 32.44 39.3213 32.2809C38.929 31.8755 38.4901 31.422 38.415 31.3319C38.1081 30.9636 37.668 30.4749 37.134 29.9895C36.0223 28.9788 34.6958 28.158 33.421 28.158C31.8235 28.158 30.7885 29.1185 29.5982 30.4411C29.5196 30.5284 29.4395 30.6182 29.3579 30.7097C28.8622 31.2658 28.312 31.8828 27.7189 32.3638C26.9988 32.9476 26.1133 33.4211 25 33.4211C24.418 33.4211 23.8875 33.272 23.4249 32.9726C22.9732 32.6804 22.6407 32.2805 22.3868 31.8574C21.8993 31.0448 21.6053 29.9721 21.3472 28.9396C21.2952 28.7317 21.2439 28.5221 21.1922 28.3114C20.7059 26.3279 20.1949 24.2443 18.9445 22.5408C18.5816 22.2131 18.0533 22.1209 17.1434 22.477C16.1821 22.8531 15.0758 23.6434 13.9859 24.6051C12.9122 25.5525 11.9244 26.603 11.2005 27.4234C10.8399 27.8321 10.5478 28.1802 10.3468 28.425L10.2632 28.5273Z" fill="white"/>
</svg>
