<svg width="50" height="50" viewBox="0 0 50 50" fill="none" xmlns="http://www.w3.org/2000/svg">
<path fill-rule="evenodd" clip-rule="evenodd" d="M13.8467 18.0134C14.2535 17.6066 14.9131 17.6066 15.3199 18.0134L23.9583 26.6519L23.9583 10.4167C23.9583 9.84137 24.4247 9.375 25 9.375C25.5753 9.375 26.0416 9.84137 26.0416 10.4167L26.0416 26.6519L34.6801 18.0134C35.0869 17.6066 35.7464 17.6066 36.1532 18.0134C36.56 18.4202 36.56 19.0798 36.1532 19.4866L25 30.6398L13.8467 19.4866C13.4399 19.0798 13.4399 18.4202 13.8467 18.0134Z" fill="#1268B3"/>
<path fill-rule="evenodd" clip-rule="evenodd" d="M10.4167 32.2917C10.992 32.2917 11.4583 32.758 11.4583 33.3333V35.4167C11.4583 37.1425 12.8574 38.5417 14.5833 38.5417L35.4167 38.5417C37.1426 38.5417 38.5417 37.1425 38.5417 35.4167V33.3333C38.5417 32.758 39.008 32.2917 39.5833 32.2917C40.1586 32.2917 40.625 32.758 40.625 33.3333V35.4167C40.625 38.2931 38.2931 40.625 35.4167 40.625L14.5833 40.625C11.7069 40.625 9.375 38.2931 9.375 35.4167V33.3333C9.375 32.758 9.84137 32.2917 10.4167 32.2917Z" fill="#1268B3"/>
</svg>
