<svg width="23" height="23" viewBox="0 0 23 23" fill="none" xmlns="http://www.w3.org/2000/svg">
<path d="M11.5 2.07831C14.5482 2.07831 14.9639 2.07831 16.2108 2.07831C17.3193 2.07831 17.8735 2.35542 18.2892 2.49398C18.8434 2.77108 19.259 2.90964 19.6747 3.3253C20.0904 3.74096 20.3675 4.15663 20.506 4.71084C20.6446 5.12651 20.7831 5.68072 20.9217 6.78916C20.9217 8.03615 20.9217 8.31325 20.9217 11.5C20.9217 14.6867 20.9217 14.9639 20.9217 16.2108C20.9217 17.3193 20.6446 17.8735 20.506 18.2892C20.2289 18.8434 20.0904 19.259 19.6747 19.6747C19.259 20.0904 18.8434 20.3675 18.2892 20.506C17.8735 20.6446 17.3193 20.7831 16.2108 20.9217C14.9639 20.9217 14.6867 20.9217 11.5 20.9217C8.31325 20.9217 8.03615 20.9217 6.78916 20.9217C5.68072 20.9217 5.12651 20.6446 4.71084 20.506C4.15663 20.2289 3.74096 20.0904 3.3253 19.6747C2.90964 19.259 2.63253 18.8434 2.49398 18.2892C2.35542 17.8735 2.21687 17.3193 2.07831 16.2108C2.07831 14.9639 2.07831 14.6867 2.07831 11.5C2.07831 8.31325 2.07831 8.03615 2.07831 6.78916C2.07831 5.68072 2.35542 5.12651 2.49398 4.71084C2.77108 4.15663 2.90964 3.74096 3.3253 3.3253C3.74096 2.90964 4.15663 2.63253 4.71084 2.49398C5.12651 2.35542 5.68072 2.21687 6.78916 2.07831C8.03615 2.07831 8.45181 2.07831 11.5 2.07831ZM11.5 0C8.31325 0 8.03615 0 6.78916 0C5.54217 0 4.71084 0.277109 4.01807 0.554218C3.3253 0.831326 2.63253 1.24699 1.93976 1.93976C1.24699 2.63253 0.96988 3.18675 0.554218 4.01807C0.277109 4.71084 0.138554 5.54217 0 6.78916C0 8.03615 0 8.45181 0 11.5C0 14.6867 0 14.9639 0 16.2108C0 17.4578 0.277109 18.2892 0.554218 18.9819C0.831326 19.6747 1.24699 20.3675 1.93976 21.0602C2.63253 21.753 3.18675 22.0301 4.01807 22.4458C4.71084 22.7229 5.54217 22.8614 6.78916 23C8.03615 23 8.45181 23 11.5 23C14.5482 23 14.9639 23 16.2108 23C17.4578 23 18.2892 22.7229 18.9819 22.4458C19.6747 22.1687 20.3675 21.753 21.0602 21.0602C21.753 20.3675 22.0301 19.8133 22.4458 18.9819C22.7229 18.2892 22.8614 17.4578 23 16.2108C23 14.9639 23 14.5482 23 11.5C23 8.45181 23 8.03615 23 6.78916C23 5.54217 22.7229 4.71084 22.4458 4.01807C22.1687 3.3253 21.753 2.63253 21.0602 1.93976C20.3675 1.24699 19.8133 0.96988 18.9819 0.554218C18.2892 0.277109 17.4578 0.138554 16.2108 0C14.9639 0 14.6867 0 11.5 0Z" fill="white"/>
<path d="M11.5 5.54217C8.1747 5.54217 5.54217 8.1747 5.54217 11.5C5.54217 14.8253 8.1747 17.4578 11.5 17.4578C14.8253 17.4578 17.4578 14.8253 17.4578 11.5C17.4578 8.1747 14.8253 5.54217 11.5 5.54217ZM11.5 15.3795C9.42169 15.3795 7.62048 13.7169 7.62048 11.5C7.62048 9.42169 9.28313 7.62048 11.5 7.62048C13.5783 7.62048 15.3795 9.28313 15.3795 11.5C15.3795 13.5783 13.5783 15.3795 11.5 15.3795Z" fill="white"/>
<path d="M17.5964 6.78916C18.3616 6.78916 18.9819 6.16883 18.9819 5.40362C18.9819 4.6384 18.3616 4.01807 17.5964 4.01807C16.8312 4.01807 16.2108 4.6384 16.2108 5.40362C16.2108 6.16883 16.8312 6.78916 17.5964 6.78916Z" fill="white"/>
</svg>
