<svg width="15" height="16" viewBox="0 0 15 16" fill="none" xmlns="http://www.w3.org/2000/svg">
<path d="M7.5 1.85542C9.48795 1.85542 9.75904 1.85542 10.5723 1.85542C11.2952 1.85542 11.6566 2.03614 11.9277 2.12651C12.2892 2.30723 12.5602 2.39759 12.8313 2.66868C13.1024 2.93976 13.2831 3.21084 13.3735 3.57229C13.4639 3.84337 13.5542 4.20482 13.6446 4.92771C13.6446 5.74096 13.6446 5.92169 13.6446 8C13.6446 10.0783 13.6446 10.259 13.6446 11.0723C13.6446 11.7952 13.4639 12.1566 13.3735 12.4277C13.1928 12.7892 13.1024 13.0602 12.8313 13.3313C12.5602 13.6024 12.2892 13.7831 11.9277 13.8735C11.6566 13.9639 11.2952 14.0542 10.5723 14.1446C9.75904 14.1446 9.57831 14.1446 7.5 14.1446C5.42169 14.1446 5.24096 14.1446 4.42771 14.1446C3.70482 14.1446 3.34337 13.9639 3.07229 13.8735C2.71084 13.6928 2.43976 13.6024 2.16868 13.3313C1.89759 13.0602 1.71687 12.7892 1.62651 12.4277C1.53614 12.1566 1.44578 11.7952 1.35542 11.0723C1.35542 10.259 1.35542 10.0783 1.35542 8C1.35542 5.92169 1.35542 5.74096 1.35542 4.92771C1.35542 4.20482 1.53614 3.84337 1.62651 3.57229C1.80723 3.21084 1.89759 2.93976 2.16868 2.66868C2.43976 2.39759 2.71084 2.21687 3.07229 2.12651C3.34337 2.03614 3.70482 1.94578 4.42771 1.85542C5.24096 1.85542 5.51205 1.85542 7.5 1.85542ZM7.5 0.5C5.42169 0.5 5.24096 0.5 4.42771 0.5C3.61446 0.5 3.07229 0.680723 2.62048 0.861446C2.16868 1.04217 1.71687 1.31325 1.26506 1.76506C0.813254 2.21687 0.632531 2.57831 0.361446 3.12048C0.180723 3.57229 0.0903615 4.11446 0 4.92771C0 5.74096 0 6.01205 0 8C0 10.0783 0 10.259 0 11.0723C0 11.8855 0.180723 12.4277 0.361446 12.8795C0.542169 13.3313 0.813254 13.7831 1.26506 14.2349C1.71687 14.6867 2.07831 14.8675 2.62048 15.1386C3.07229 15.3193 3.61446 15.4096 4.42771 15.5C5.24096 15.5 5.51205 15.5 7.5 15.5C9.48795 15.5 9.75904 15.5 10.5723 15.5C11.3855 15.5 11.9277 15.3193 12.3795 15.1386C12.8313 14.9578 13.2831 14.6867 13.7349 14.2349C14.1867 13.7831 14.3675 13.4217 14.6386 12.8795C14.8193 12.4277 14.9096 11.8855 15 11.0723C15 10.259 15 9.98795 15 8C15 6.01205 15 5.74096 15 4.92771C15 4.11446 14.8193 3.57229 14.6386 3.12048C14.4578 2.66868 14.1867 2.21687 13.7349 1.76506C13.2831 1.31325 12.9217 1.13253 12.3795 0.861446C11.9277 0.680723 11.3855 0.590361 10.5723 0.5C9.75904 0.5 9.57831 0.5 7.5 0.5Z" fill="white"/>
<path d="M7.5 4.11446C5.33133 4.11446 3.61446 5.83133 3.61446 8C3.61446 10.1687 5.33133 11.8855 7.5 11.8855C9.66868 11.8855 11.3855 10.1687 11.3855 8C11.3855 5.83133 9.66868 4.11446 7.5 4.11446ZM7.5 10.5301C6.14458 10.5301 4.96988 9.44578 4.96988 8C4.96988 6.64458 6.05422 5.46988 7.5 5.46988C8.85542 5.46988 10.0301 6.55422 10.0301 8C10.0301 9.35542 8.85542 10.5301 7.5 10.5301Z" fill="white"/>
<path d="M11.4759 4.92771C11.975 4.92771 12.3795 4.52315 12.3795 4.0241C12.3795 3.52504 11.975 3.12048 11.4759 3.12048C10.9769 3.12048 10.5723 3.52504 10.5723 4.0241C10.5723 4.52315 10.9769 4.92771 11.4759 4.92771Z" fill="white"/>
</svg>
