<svg width="44" height="34" viewBox="0 0 44 34" fill="none" xmlns="http://www.w3.org/2000/svg">
<path d="M22 1L22.4915 0.129123C22.1864 -0.0430409 21.8136 -0.0430409 21.5085 0.129123L22 1ZM1 12.8519L0.5085 11.981C0.206976 12.1511 0.0149314 12.4652 0.000829756 12.8111C-0.0132719 13.1571 0.152576 13.4857 0.439249 13.6798L1 12.8519ZM43 12.8519L43.5607 13.6798C43.8474 13.4857 44.0133 13.1571 43.9992 12.8111C43.9851 12.4652 43.793 12.1511 43.4915 11.981L43 12.8519ZM25.6667 19.963C25.6667 20.5152 26.1144 20.963 26.6667 20.963C27.219 20.963 27.6667 20.5152 27.6667 19.963H25.6667ZM8 27.0741H7C7 27.4757 7.24032 27.8384 7.6102 27.995L8 27.0741ZM36 27.0741L36.3898 27.995C36.7597 27.8384 37 27.4757 37 27.0741H36ZM22 33L21.6102 33.9209C21.8594 34.0264 22.1406 34.0264 22.3898 33.9209L22 33ZM21.5085 0.129123L0.5085 11.981L1.4915 13.7227L22.4915 1.87088L21.5085 0.129123ZM43.4915 11.981L22.4915 0.129123L21.5085 1.87088L42.5085 13.7227L43.4915 11.981ZM0.439249 13.6798L7.43925 18.4206L8.56075 16.7646L1.56075 12.0239L0.439249 13.6798ZM36.5607 18.4206L43.5607 13.6798L42.4392 12.0239L35.4392 16.7646L36.5607 18.4206ZM25.6667 3.37037V19.963H27.6667V3.37037H25.6667ZM9 27.0741V17.5926H7V27.0741H9ZM8 17.5926C8.89721 18.0342 8.89679 18.035 8.89638 18.0359C8.89626 18.0361 8.89585 18.0369 8.8956 18.0374C8.8951 18.0385 8.89462 18.0394 8.89419 18.0403C8.89331 18.042 8.89256 18.0435 8.89195 18.0447C8.89073 18.0471 8.89005 18.0484 8.88993 18.0486C8.88971 18.049 8.89174 18.0452 8.89625 18.0373C8.90526 18.0216 8.92417 17.9899 8.9546 17.9443C9.0154 17.8533 9.12254 17.7066 9.2893 17.5218C9.62183 17.1533 10.1973 16.6268 11.127 16.0871C12.9841 15.009 16.3018 13.8519 22 13.8519V11.8519C16.0315 11.8519 12.3492 13.065 10.123 14.3574C9.01107 15.0028 8.27401 15.6615 7.80445 16.1819C7.57017 16.4416 7.40387 16.6652 7.2915 16.8334C7.23534 16.9175 7.19272 16.9876 7.16185 17.0414C7.14642 17.0683 7.13393 17.091 7.12416 17.1094C7.11928 17.1186 7.11507 17.1267 7.11152 17.1336C7.10974 17.1371 7.10813 17.1403 7.10667 17.1432C7.10595 17.1446 7.10526 17.146 7.10461 17.1473C7.10429 17.148 7.10383 17.1489 7.10367 17.1492C7.10322 17.1501 7.10279 17.151 8 17.5926ZM22 13.8519C27.6982 13.8519 31.0159 15.009 32.873 16.0871C33.8027 16.6268 34.3782 17.1533 34.7107 17.5218C34.8775 17.7066 34.9846 17.8533 35.0454 17.9443C35.0758 17.9899 35.0947 18.0216 35.1037 18.0373C35.1083 18.0452 35.1103 18.049 35.1101 18.0486C35.11 18.0484 35.1093 18.0471 35.108 18.0447C35.1074 18.0435 35.1067 18.042 35.1058 18.0403C35.1054 18.0394 35.1049 18.0385 35.1044 18.0374C35.1041 18.0369 35.1037 18.0361 35.1036 18.0359C35.1032 18.035 35.1028 18.0342 36 17.5926C36.8972 17.151 36.8968 17.1501 36.8963 17.1492C36.8962 17.1489 36.8957 17.148 36.8954 17.1473C36.8947 17.146 36.8941 17.1446 36.8933 17.1432C36.8919 17.1403 36.8903 17.1371 36.8885 17.1336C36.8849 17.1267 36.8807 17.1186 36.8758 17.1094C36.8661 17.091 36.8536 17.0683 36.8381 17.0414C36.8073 16.9876 36.7647 16.9175 36.7085 16.8334C36.5961 16.6652 36.4298 16.4416 36.1956 16.1819C35.726 15.6615 34.9889 15.0028 33.877 14.3574C31.6508 13.065 27.9685 11.8519 22 11.8519V13.8519ZM35 17.5926V27.0741H37V17.5926H35ZM35.6102 26.1532L21.6102 32.0791L22.3898 33.9209L36.3898 27.995L35.6102 26.1532ZM22.3898 32.0791L8.3898 26.1532L7.6102 27.995L21.6102 33.9209L22.3898 32.0791Z" fill="#1268B3"/>
</svg>
