<svg width="50" height="50" viewBox="0 0 50 50" fill="none" xmlns="http://www.w3.org/2000/svg">
<path fill-rule="evenodd" clip-rule="evenodd" d="M22.8376 5.2085L25 5.2085C25.5753 5.2085 26.0417 5.67487 26.0417 6.25016C26.0417 6.82546 25.5753 7.29183 25 7.29183H22.9167C19.9409 7.29183 17.8139 7.29404 16.1975 7.51136C14.6111 7.72466 13.6733 8.12783 12.9838 8.81732C12.2943 9.50681 11.8912 10.4446 11.6779 12.031C11.4605 13.6474 11.4583 15.7744 11.4583 18.7502V31.2502C11.4583 34.2259 11.4605 36.3529 11.6779 37.9693C11.8912 39.5558 12.2943 40.4935 12.9838 41.183C13.6733 41.8725 14.6111 42.2757 16.1975 42.489C17.8139 42.7063 19.9409 42.7085 22.9167 42.7085H27.0833C30.0591 42.7085 32.1861 42.7063 33.8025 42.489C35.3889 42.2757 36.3267 41.8725 37.0162 41.183C37.7057 40.4935 38.1088 39.5558 38.3221 37.9693C38.5395 36.3529 38.5417 34.2259 38.5417 31.2502V27.0835C38.5417 26.5082 39.008 26.0418 39.5833 26.0418C40.1586 26.0418 40.625 26.5082 40.625 27.0835V31.3292C40.625 34.2085 40.625 36.4756 40.3869 38.2469C40.1425 40.0644 39.6304 41.5151 38.4893 42.6562C37.3482 43.7972 35.8976 44.3094 34.0801 44.5537C32.3088 44.7919 30.0417 44.7919 27.1625 44.7918H22.8375C19.9583 44.7919 17.6912 44.7919 15.9199 44.5537C14.1024 44.3094 12.6518 43.7972 11.5107 42.6562C10.3696 41.5151 9.85746 40.0644 9.61311 38.2469C9.37496 36.4756 9.37498 34.2085 9.375 31.3293V18.6711C9.37498 15.7919 9.37496 13.5247 9.61311 11.7534C9.85746 9.93594 10.3696 8.48527 11.5107 7.34418C12.6518 6.20308 14.1024 5.69096 15.9199 5.44661C17.6912 5.20846 19.9584 5.20848 22.8376 5.2085Z" fill="#1268B3"/>
<path fill-rule="evenodd" clip-rule="evenodd" d="M37.4997 5.2085C38.075 5.2085 38.5413 5.67487 38.5413 6.25016L38.5413 18.7502C38.5413 19.3255 38.075 19.7918 37.4997 19.7918C36.9244 19.7918 36.458 19.3255 36.458 18.7502L36.458 6.25016C36.458 5.67487 36.9244 5.2085 37.4997 5.2085Z" fill="#1268B3"/>
<path fill-rule="evenodd" clip-rule="evenodd" d="M44.792 12.5002C44.792 13.0755 44.3256 13.5418 43.7503 13.5418L31.2503 13.5418C30.675 13.5418 30.2087 13.0755 30.2087 12.5002C30.2087 11.9249 30.675 11.4585 31.2503 11.4585L43.7503 11.4585C44.3256 11.4585 44.792 11.9249 44.792 12.5002Z" fill="#1268B3"/>
<path fill-rule="evenodd" clip-rule="evenodd" d="M17.708 27.0832C17.708 26.5079 18.1744 26.0415 18.7497 26.0415L31.2497 26.0415C31.825 26.0415 32.2913 26.5079 32.2913 27.0832C32.2913 27.6585 31.825 28.1248 31.2497 28.1248L18.7497 28.1248C18.1744 28.1248 17.708 27.6585 17.708 27.0832Z" fill="#1268B3"/>
<path fill-rule="evenodd" clip-rule="evenodd" d="M17.708 18.7502C17.708 18.1749 18.1744 17.7085 18.7497 17.7085L27.083 17.7085C27.6583 17.7085 28.1247 18.1749 28.1247 18.7502C28.1247 19.3255 27.6583 19.7918 27.083 19.7918L18.7497 19.7918C18.1744 19.7918 17.708 19.3255 17.708 18.7502Z" fill="#1268B3"/>
<path fill-rule="evenodd" clip-rule="evenodd" d="M17.708 35.4167C17.708 34.8414 18.1744 34.375 18.7497 34.375L27.083 34.375C27.6583 34.375 28.1247 34.8414 28.1247 35.4167C28.1247 35.992 27.6583 36.4583 27.083 36.4583L18.7497 36.4583C18.1744 36.4583 17.708 35.992 17.708 35.4167Z" fill="#1268B3"/>
</svg>
