<svg width="23" height="23" viewBox="0 0 23 23" fill="none" xmlns="http://www.w3.org/2000/svg">
<path d="M5.17501 23H0.287496V7.61875H5.17501V23ZM2.73125 5.4625C1.15 5.4625 0 4.3125 0 2.73125C0 1.15 1.29375 0 2.73125 0C4.3125 0 5.4625 1.15 5.4625 2.73125C5.4625 4.3125 4.3125 5.4625 2.73125 5.4625ZM23 23H18.1125V14.6625C18.1125 12.2188 17.1062 11.5 15.6687 11.5C14.2312 11.5 12.7937 12.65 12.7937 14.8062V23H7.90625V7.61875H12.5062V9.775C12.9375 8.76875 14.6625 7.1875 17.1062 7.1875C19.8375 7.1875 22.7125 8.76875 22.7125 13.5125V23H23Z" fill="white"/>
</svg>
