<svg width="15" height="16" viewBox="0 0 15 16" fill="none" xmlns="http://www.w3.org/2000/svg">
<path d="M3.37501 15.5H0.187497V5.46875H3.37501V15.5ZM1.78125 4.0625C0.750001 4.0625 0 3.3125 0 2.28125C0 1.25 0.843751 0.5 1.78125 0.5C2.8125 0.5 3.5625 1.25 3.5625 2.28125C3.5625 3.3125 2.8125 4.0625 1.78125 4.0625ZM15 15.5H11.8125V10.0625C11.8125 8.46875 11.1562 8 10.2187 8C9.28124 8 8.34374 8.75 8.34374 10.1562V15.5H5.15625V5.46875H8.15625V6.875C8.4375 6.21875 9.56249 5.1875 11.1562 5.1875C12.9375 5.1875 14.8125 6.21875 14.8125 9.3125V15.5H15Z" fill="white"/>
</svg>
