<svg width="165" height="46" viewBox="0 0 165 46" fill="none" xmlns="http://www.w3.org/2000/svg">
<path fill-rule="evenodd" clip-rule="evenodd" d="M43.3359 25.345C42.641 24.4715 41.8289 23.6981 40.9226 23.0464C40.9226 23.0464 40.8533 22.974 40.808 22.9378C40.8533 22.9016 40.9226 22.8292 40.9226 22.8292C41.8295 22.1783 42.6417 21.4048 43.3359 20.5306C44.1311 19.5874 44.7079 18.48 45.0252 17.2878C44.8871 17.2565 44.747 17.2354 44.6059 17.2245L44.6662 16.769C44.4763 16.7393 44.285 16.7202 44.0931 16.7116V16.2712C44.0931 16.2712 43.6798 16.223 43.4716 16.223V15.692C43.0895 15.4928 42.7189 15.2722 42.3615 15.0314L42.4128 14.9741C42.3188 14.8587 42.2181 14.7489 42.1112 14.6453C42.1929 14.1673 42.3078 13.6956 42.4551 13.2335L42.078 12.8565C42.2288 12.7117 42.4882 12.3829 42.4882 12.3829L42.1866 12.0812C42.3495 11.8942 42.44 11.7796 42.5516 11.6348L42.1866 11.3572C42.278 11.2497 42.3617 11.1358 42.437 11.0164C41.3702 10.3963 40.1793 10.0203 38.9498 9.91533C37.8457 9.7879 36.7294 9.81124 35.6316 9.98472C35.5784 9.9816 35.525 9.9816 35.4717 9.98472C35.4717 9.9274 35.4717 9.82484 35.4717 9.82484C35.6477 8.7273 35.672 7.61079 35.5441 6.50662C35.4392 5.27718 35.0632 4.08627 34.4431 3.01948C34.3231 3.09395 34.2091 3.17765 34.1022 3.26985L33.8247 2.90485C33.6694 3.01841 33.5204 3.14025 33.3782 3.26985L33.0766 2.96819C33.0766 2.96819 32.7478 3.22762 32.603 3.37543L32.2199 2.98328C31.8095 3.11457 31.3914 3.22035 30.968 3.30002V3.22762C30.82 3.20911 30.6706 3.20306 30.5215 3.20952C30.2426 2.81259 29.9907 2.39738 29.7674 1.96669H29.2033C29.2033 1.75855 29.1581 1.34227 29.1581 1.34227H28.7176C28.7082 1.15025 28.6881 0.958896 28.6573 0.769118L28.2048 0.829453C28.1939 0.688332 28.1728 0.548198 28.1415 0.410156C26.95 0.727628 25.8429 1.30332 24.8987 2.09641C24.0257 2.79282 23.2514 3.60467 22.597 4.50966C22.597 4.50966 22.5277 4.58205 22.4915 4.6273C22.4553 4.58205 22.3829 4.50966 22.3829 4.50966C21.7296 3.60474 20.9563 2.79289 20.0843 2.09641C19.1397 1.30389 18.0327 0.728273 16.8415 0.410156C16.8091 0.548116 16.7869 0.688253 16.7751 0.829453L16.3226 0.769118C16.2915 0.958777 16.2724 1.15021 16.2653 1.34227H15.8309C15.8309 1.34227 15.7826 1.75855 15.7857 1.96669H15.2517C15.0296 2.39802 14.7776 2.81331 14.4976 3.20952C14.3485 3.20313 14.1992 3.20918 14.0511 3.22762V3.30002C13.6286 3.22063 13.2115 3.11485 12.8023 2.98328L12.4252 3.36035C12.2774 3.21254 11.9516 2.95311 11.9516 2.95311L11.65 3.25477C11.5068 3.12508 11.3568 3.00324 11.2005 2.88977L10.926 3.25477C10.818 3.16256 10.703 3.07885 10.5821 3.00439C9.96525 4.07152 9.58945 5.26072 9.48105 6.48852C9.35639 7.59284 9.38074 8.70891 9.55345 9.80674C9.55033 9.85999 9.55033 9.91337 9.55345 9.96662C9.50022 9.96294 9.4468 9.96294 9.39357 9.96662C8.296 9.79094 7.17953 9.76657 6.07535 9.89421C4.84609 10 3.65536 10.376 2.58821 10.9953C2.66456 11.1147 2.74923 11.2286 2.8416 11.3361L2.4766 11.6137C2.58998 11.7691 2.71183 11.9181 2.8416 12.0601L2.53994 12.3618C2.53994 12.3618 2.79937 12.6875 2.94718 12.8354L2.57011 13.2124C2.71667 13.6749 2.83255 14.1465 2.91701 14.6242C2.80848 14.7262 2.70765 14.8361 2.61536 14.953L2.66362 15.0103C2.30746 15.2505 1.93782 15.47 1.55654 15.6679V16.2018C1.34539 16.2018 0.932117 16.2471 0.932117 16.2471V16.7237C0.739173 16.7325 0.54684 16.7516 0.355954 16.781L0.419303 17.2365C0.278155 17.2472 0.137999 17.2684 0 17.2999C0.316264 18.4919 0.892084 19.5992 1.68626 20.5427C2.38192 21.4155 3.19389 22.1889 4.0995 22.8413C4.13642 22.8799 4.17571 22.9162 4.21715 22.9499C4.17571 22.9836 4.13642 23.0199 4.0995 23.0585C3.19459 23.7117 2.38273 24.485 1.68626 25.3571C0.892084 26.3006 0.316264 27.4079 0 28.5999C0.137999 28.6314 0.278155 28.6526 0.419303 28.6632L0.355954 29.1188C0.54684 29.1482 0.739173 29.1673 0.932117 29.1761V29.6195C0.932117 29.6195 1.34539 29.6647 1.55654 29.6647V30.1987C1.93904 30.3955 2.30879 30.6161 2.66362 30.8593L2.61536 30.9136C2.70691 31.0311 2.80779 31.1411 2.91701 31.2424C2.8329 31.7202 2.71701 32.1918 2.57011 32.6542L2.92305 33.0131C2.77524 33.1609 2.51581 33.4867 2.51581 33.4867L2.81747 33.7884C2.6877 33.9304 2.56585 34.0794 2.45246 34.2348L2.81747 34.5124C2.7251 34.6199 2.64043 34.7338 2.56408 34.8532C3.63123 35.4725 4.82196 35.8484 6.05122 35.9543C7.1554 36.0819 8.27187 36.0576 9.36944 35.8819C9.42166 35.8856 9.47407 35.8856 9.5263 35.8819C9.5263 35.9392 9.5263 36.0418 9.5263 36.0418C9.35319 37.1396 9.32884 38.2557 9.4539 39.36C9.56031 40.5891 9.93624 41.7797 10.5549 42.8471C10.6765 42.7737 10.7916 42.6899 10.8988 42.5967L11.1733 42.9618C11.3296 42.8483 11.4797 42.7264 11.6228 42.5967L11.9245 42.8984C11.9245 42.8984 12.2502 42.639 12.3981 42.4912L12.7751 42.8682C13.1844 42.7367 13.6015 42.6309 14.024 42.5515V42.6269C14.1722 42.6428 14.3215 42.6479 14.4704 42.642C14.7504 43.0382 15.0024 43.4535 15.2246 43.8848H15.7585C15.7585 44.093 15.8038 44.5092 15.8038 44.5092H16.2472C16.2543 44.7013 16.2734 44.8927 16.3045 45.0824L16.757 45.0221C16.7688 45.1633 16.791 45.3034 16.8234 45.4414C18.0151 45.1245 19.1223 44.5487 20.0662 43.7551C20.9382 43.0586 21.7115 42.2468 22.3648 41.3419C22.3648 41.3419 22.4372 41.2695 22.4734 41.2242C22.5063 41.2654 22.5416 41.3047 22.579 41.3419C23.233 42.2461 24.0062 43.0578 24.8776 43.7551C25.8225 44.5488 26.9307 45.1245 28.1234 45.4414C28.1547 45.3033 28.1758 45.1632 28.1867 45.0221L28.6392 45.0824C28.67 44.8926 28.6901 44.7013 28.6995 44.5092H29.14C29.14 44.5092 29.1882 44.093 29.1852 43.8848H29.7191C29.9413 43.4535 30.1933 43.0382 30.4733 42.642C30.6223 42.6478 30.7715 42.6428 30.9197 42.6269V42.5515C31.3432 42.6312 31.7612 42.737 32.1716 42.8682L32.5487 42.4912C32.6935 42.639 33.0223 42.8984 33.0223 42.8984L33.3239 42.5967C33.4653 42.7272 33.6144 42.8491 33.7704 42.9618L34.0449 42.5967C34.1527 42.6892 34.2677 42.7729 34.3888 42.8471C35.0223 41.7883 35.4147 40.6028 35.5381 39.3751C35.6657 38.2709 35.6414 37.1544 35.4657 36.0568C35.4657 36.0568 35.4657 35.9543 35.4657 35.897C35.5189 35.9007 35.5723 35.9007 35.6256 35.897C36.7231 36.0729 37.8396 36.0973 38.9438 35.9694C40.1731 35.8639 41.3639 35.4879 42.4309 34.8683C42.354 34.7466 42.2683 34.6307 42.1745 34.5214L42.5395 34.2439C42.4279 34.09 42.3374 33.9845 42.1745 33.7974L42.4762 33.4958C42.4762 33.4958 42.2168 33.17 42.0659 33.0222L42.443 32.6451C42.2954 32.1832 42.1805 31.7114 42.0991 31.2334C42.2068 31.1305 42.3075 31.0207 42.4008 30.9046L42.265 30.7447L42.2409 30.7205L41.903 30.2982C42.3646 30.259 42.7809 30.2198 43.1097 30.1836C43.0765 30.2138 42.5908 30.5094 42.2469 30.7145L42.2711 30.7386L42.3555 30.8442C42.7115 30.6012 43.0822 30.3805 43.4656 30.1836V29.6497C43.6738 29.6497 44.087 29.6044 44.087 29.6044V29.161C44.2791 29.1539 44.4705 29.1348 44.6602 29.1037L44.5968 28.6512C44.7389 28.6381 44.8799 28.6159 45.0191 28.5848C44.7012 27.3929 44.1245 26.2857 43.3299 25.342L43.3359 25.345ZM43.8879 16.4522V16.8655C43.8879 16.8655 44.4068 16.9107 44.4279 16.9198L44.3736 17.1581C44.2801 17.2033 42.6119 17.1038 40.6994 16.9771L41.2665 16.3044L43.8879 16.4522ZM43.2424 16.2079C43.2122 16.232 42.4822 16.1868 41.4324 16.1113L41.7341 15.7644C42.2465 15.7895 42.757 15.8429 43.2635 15.9243L43.2424 16.2079ZM42.2469 15.1551C42.5878 15.3632 43.0765 15.6589 43.1097 15.689C42.7748 15.6498 42.3585 15.6106 41.903 15.5714L42.2469 15.1551ZM41.8668 14.8534L42.0056 15.0013L37.6255 20.1294C37.1429 20.6935 36.6693 21.2636 36.1776 21.8217C36.2379 21.5412 36.2621 21.1339 36.3314 20.79C36.4008 20.4461 36.4642 20.0932 36.4642 20.0932C36.6452 19.8549 40.7356 15.3421 42.1956 13.505C42.1956 13.5714 41.8668 14.8625 41.8668 14.8625V14.8534ZM42.1353 13.2275C42.1594 13.3361 37.885 18.226 36.4038 19.9001C35.2504 18.881 33.9759 18.0076 32.609 17.2999C33.9627 17.7383 35.2355 18.3956 36.3767 19.2455C38.1866 17.3904 41.8065 13.0526 41.9121 13.0405L42.1353 13.2275ZM33.0374 3.24572L33.339 3.52928C33.339 3.52928 33.7372 3.19142 33.7583 3.18237L33.888 3.39051C33.8549 3.49006 32.603 4.59713 31.1731 5.86107L31.1007 4.98325L33.0374 3.24572ZM32.2229 3.3151L32.4069 3.52626C32.4069 3.56547 31.8549 4.04812 31.0675 4.73288L31.0283 4.27738C31.4104 3.93126 31.8134 3.6089 32.235 3.31209L32.2229 3.3151ZM31.9574 3.25175C31.692 3.45989 31.3722 3.72535 31.0193 4.02399L30.974 3.48402C31.3602 3.38749 31.9152 3.25175 31.9574 3.25175ZM30.4823 3.52928H30.6844C30.9197 6.50662 31.1942 9.49603 31.3783 12.4643C31.2244 12.223 30.9529 11.9183 30.7599 11.6257L30.3587 11.0405C30.3194 10.7389 30.0208 4.66048 29.7553 2.32868C29.8036 2.37695 30.4854 3.52023 30.4854 3.52023L30.4823 3.52928ZM29.2365 2.19595L29.517 2.17484C29.6136 2.23818 30.048 8.71776 30.1927 10.9379C28.6553 11.0331 27.1355 11.3178 25.6679 11.7856C26.9336 11.1354 28.2986 10.7001 29.7071 10.4975C29.6648 7.90932 29.1611 2.28042 29.2335 2.19595H29.2365ZM15.4961 2.17484L15.7796 2.19595C15.849 2.28042 15.3452 7.90932 15.303 10.4975C16.7124 10.7001 18.0784 11.1354 19.3452 11.7856C17.8775 11.3181 16.3577 11.0334 14.8204 10.9379C14.9621 8.71776 15.3995 2.23818 15.4931 2.17484H15.4961ZM14.3256 3.52928H14.5247C14.5247 3.52928 15.2095 2.386 15.2547 2.33773C14.9863 4.66953 14.6876 10.7539 14.6514 11.0496L14.2502 11.6348C14.0572 11.9364 13.7857 12.2381 13.6469 12.4734C13.8309 9.50508 14.1084 6.51567 14.3437 3.53833L14.3256 3.52928ZM14.0421 3.48402L13.9968 4.02399C13.6409 3.72233 13.3211 3.45989 13.0557 3.25175C13.1009 3.25175 13.659 3.38749 14.0421 3.48402ZM12.7781 3.30907C13.199 3.60787 13.6019 3.9312 13.9848 4.27738L13.9486 4.72986C13.1582 4.0451 12.6092 3.56245 12.6062 3.52324L12.7781 3.30907ZM11.2427 3.17936C11.2669 3.17936 11.665 3.52626 11.665 3.52626L11.9667 3.23968L13.9063 4.95912L13.8189 5.84297C12.38 4.57904 11.1281 3.47196 11.104 3.37241L11.2427 3.17936ZM3.07086 13.0224C3.18247 13.0224 6.80536 17.3723 8.60625 19.2274C9.74673 18.3763 11.0197 17.719 12.3739 17.2818C11.0071 17.9895 9.73256 18.8629 8.5791 19.882C7.10702 18.2109 2.84763 13.318 2.84763 13.2094L3.07086 13.0224ZM2.79635 13.4869C4.25637 15.324 8.34682 19.8368 8.52781 20.0751C8.52781 20.0751 8.5972 20.4612 8.65753 20.7719C8.71786 21.0826 8.75104 21.5231 8.81439 21.8036C8.32269 21.2455 7.84607 20.6754 7.36644 20.1113L2.98639 14.9832L3.12214 14.8353C3.12214 14.8353 2.79635 13.5443 2.79333 13.4779L2.79635 13.4869ZM2.74205 15.1491L3.09197 15.5654C2.63044 15.6046 2.21717 15.6438 1.88535 15.68C1.91552 15.6498 2.4042 15.3542 2.74507 15.1491H2.74205ZM3.25789 15.7524L3.56256 16.1204C2.51883 16.1928 1.78882 16.2411 1.75262 16.2169L1.73151 15.9334C2.23691 15.8516 2.7465 15.7982 3.25789 15.7735V15.7524ZM1.09501 16.8745V16.4613L3.70132 16.3104L4.27145 16.9861C2.35895 17.1098 0.687775 17.2124 0.597279 17.1671L0.539964 16.9288C0.564097 16.9288 1.08294 16.8745 1.08294 16.8745H1.09501ZM2.733 30.7236C2.39213 30.5184 1.90345 30.2228 1.87328 30.1926C2.20812 30.2288 2.62139 30.2681 3.07991 30.3073L2.733 30.7236ZM1.71944 29.9543L1.74056 29.6708C1.7677 29.6467 2.49771 29.6919 3.55049 29.7673L3.24884 30.1142C2.73745 30.0895 2.22786 30.0361 1.72246 29.9543H1.71944ZM3.11611 31.0373L2.98036 30.8895L7.36041 25.7613C7.84004 25.1972 8.31666 24.6271 8.80534 24.069C8.74501 24.3496 8.72087 24.7568 8.65149 25.1007C8.58211 25.4446 8.52178 25.7975 8.52178 25.7975C8.33777 26.0358 4.24732 30.5486 2.79032 32.3887C2.79032 32.3193 3.11912 31.0282 3.11912 31.0282L3.11611 31.0373ZM2.85065 32.6632C2.82953 32.5546 7.10098 27.6618 8.58211 25.9906C9.73557 27.0098 11.0101 27.8831 12.3769 28.5909C11.0227 28.1537 9.74975 27.4963 8.60926 26.6452C6.79933 28.5034 3.17945 32.8412 3.07388 32.8502L2.85065 32.6632ZM11.9576 42.6661L11.656 42.3795C11.656 42.3795 11.2578 42.7174 11.2337 42.7265L11.104 42.5183C11.1402 42.4218 12.389 41.3117 13.8189 40.0478L13.8943 40.9256L11.9576 42.6661ZM12.7691 42.5967L12.5851 42.3826C12.5851 42.3434 13.1371 41.8607 13.9275 41.1759L13.9637 41.6284C13.5801 41.9737 13.1772 42.297 12.757 42.5967H12.7691ZM13.0346 42.6541C13.3 42.4459 13.6198 42.1805 13.9757 41.8818L14.021 42.4218C13.6318 42.5183 13.0798 42.6541 13.0346 42.6541ZM14.5097 42.3765H14.3106C14.0753 39.3992 13.7977 36.4098 13.6137 33.4415C13.7676 33.6798 14.0391 33.9875 14.217 34.2801L14.6182 34.8653C14.6575 35.167 14.9561 41.2453 15.2216 43.5771C15.1763 43.5289 14.4916 42.3856 14.4916 42.3856L14.5097 42.3765ZM15.7404 43.7099L15.4599 43.731C15.3664 43.6676 14.929 37.1881 14.7872 34.9679C16.3246 34.8724 17.8443 34.5877 19.312 34.1202C18.0449 34.7702 16.6791 35.2064 15.2698 35.4113C15.3121 37.9965 15.8158 43.6254 15.7434 43.7099H15.7404ZM29.4808 43.731L29.2003 43.7099C29.1279 43.6254 29.6317 37.9965 29.6739 35.4113C28.2656 35.2064 26.9008 34.7702 25.6347 34.1202C27.1023 34.588 28.6221 34.8727 30.1596 34.9679C30.0148 37.1881 29.5804 43.6676 29.4839 43.731H29.4808ZM30.6543 42.3765H30.4522C30.4522 42.3765 29.7704 43.5198 29.7222 43.5681C29.9906 41.2363 30.2893 35.1519 30.3255 34.8562L30.7267 34.271C30.9197 33.9694 31.1912 33.6677 31.3451 33.4324C31.1611 36.4007 30.8835 39.3901 30.6513 42.3675L30.6543 42.3765ZM30.9529 42.4218L30.9982 41.8818C31.3511 42.1835 31.6709 42.4459 31.9363 42.6541C31.8941 42.6541 31.333 42.5183 30.9529 42.4218ZM32.2138 42.5967C31.7937 42.297 31.3908 41.9737 31.0072 41.6284L31.0464 41.1759C31.8338 41.8607 32.3828 42.3434 32.3858 42.3826L32.2138 42.5967ZM33.7493 42.7265C33.7282 42.7265 33.33 42.3795 33.33 42.3795L33.0283 42.6661L31.0796 40.9256L31.152 40.0478C32.5939 41.3087 33.8458 42.4218 33.8669 42.5183L33.7493 42.7265ZM41.9121 32.8683C41.8035 32.8683 38.1776 28.5185 36.3797 26.6633C35.2378 27.5139 33.964 28.1712 32.609 28.609C33.9773 27.9021 35.2529 27.0287 36.4069 26.0087C37.8759 27.6799 42.1383 32.5727 42.1383 32.6813L41.9121 32.8683ZM41.9935 30.8985L41.8578 31.0463C41.8578 31.0463 42.1836 32.3374 42.1866 32.4068C40.7266 30.5667 36.6361 26.0539 36.4551 25.8156C36.4551 25.8156 36.3857 25.4325 36.3224 25.1188C36.259 24.8051 36.2289 24.3677 36.1685 24.0902C38.1384 26.3164 40.0569 28.615 41.9935 30.8985ZM41.7251 30.1233L41.4234 29.7764C42.4641 29.704 43.1941 29.6557 43.2333 29.6798L43.2545 29.9634C42.748 30.0448 42.2374 30.0982 41.7251 30.1233ZM40.7024 28.9166C42.6149 28.793 44.2831 28.6934 44.3766 28.7357L44.4309 28.977C44.4098 28.977 43.8909 29.0283 43.8909 29.0283V29.4415L41.2816 29.5924L35.9996 23.339L33.6105 24.6301L33.517 24.5426L33.3028 24.7387L33.342 24.7779L33.1369 24.8865L32.3828 25.5683C33.5894 24.9107 34.8262 24.238 35.9182 23.7161C35.9524 23.8613 35.9441 24.0133 35.8944 24.154C35.8446 24.2946 35.7555 24.418 35.6376 24.5094C34.4642 25.1761 33.2787 25.7372 32.1414 26.3646C31.9635 26.4612 31.5713 26.6663 31.1309 26.9136V27.1218C32.8292 26.3043 34.8352 25.339 36.0962 24.5275C36.1395 24.6335 36.1405 24.752 36.099 24.8587C36.0574 24.9654 35.9765 25.052 35.8729 25.1007C34.5474 26.0275 33.1326 26.8198 31.6497 27.4657L31.1399 27.6919V27.9423C32.6341 27.4185 34.0537 26.7026 35.3631 25.8126L36.1414 25.2666L36.2379 25.9091C36.1686 25.9725 35.882 26.2289 35.8066 26.2922C34.4688 27.5032 32.8761 28.398 31.146 28.9106V29.1399C31.5527 29.0909 31.9558 29.0153 32.3526 28.9136C32.5004 28.8774 32.6543 28.8322 32.79 28.793C33.9317 28.4436 35.0183 27.9348 36.0177 27.2817C36.1565 27.1821 36.2952 27.1067 36.431 26.9951L42.2107 33.4747L41.9272 33.7763C41.9272 33.7763 42.265 34.1745 42.2741 34.1956L42.0659 34.3284C41.8819 34.262 38.1233 29.9 36.4883 28.0539C36.2259 28.1776 35.9604 28.256 35.698 28.3556C34.2229 29.1489 32.5004 29.3239 31.1731 29.3058V29.5893C33.0003 29.661 34.8152 29.261 36.4431 28.428C38.6482 30.805 40.1745 32.5576 42.1413 34.7869C41.2786 35.3178 40.0298 35.6104 38.7447 35.7823C38.1813 35.8359 37.6152 35.856 37.0494 35.8427C36.4913 35.8427 35.8247 35.8035 35.4747 35.5893C35.168 35.3721 34.884 35.1245 34.6271 34.8502C33.8005 34.0237 32.9619 33.2183 32.1294 32.4189L31.2093 31.5139V31.8156L31.9695 32.5727C32.7689 33.4053 33.5743 34.2469 34.4039 35.0734C34.6766 35.3319 34.9241 35.6157 35.1429 35.9211C35.3571 36.274 35.3963 36.9407 35.3963 37.4957C35.4104 38.0616 35.3892 38.6278 35.333 39.1911C35.164 40.4882 34.8684 41.728 34.3405 42.5877C33.2123 41.5922 32.2048 40.7114 31.1792 39.7974L31.7825 32.7597L29.1792 31.9845C29.1792 31.9423 29.1792 31.9 29.1792 31.8578H28.8926V31.9121L28.6694 31.8457L27.6528 31.7944C28.971 32.1806 30.3225 32.5818 31.4627 32.983C31.3822 33.1041 31.2687 33.1997 31.1356 33.2585C31.0025 33.3173 30.8554 33.3368 30.7116 33.3148C29.4115 32.9588 28.1747 32.5184 26.9258 32.1564C26.7328 32.0991 26.3074 31.9694 25.8248 31.8306L25.68 31.9815C27.4597 32.6029 29.5562 33.3389 31.0253 33.6557C30.8292 33.9573 30.7237 33.9422 30.4612 33.903C28.8699 33.6215 27.3107 33.1819 25.8067 32.5908L25.2818 32.4098L25.1098 32.5878C26.5374 33.2784 28.0496 33.7784 29.6075 34.075L30.5427 34.2409L30.1596 34.7627L29.5834 34.7296C27.7815 34.6387 26.023 34.1449 24.4371 33.2846L24.2773 33.4505C24.6 33.7032 24.9385 33.9349 25.2908 34.1443L25.686 34.3676C26.7296 34.9243 27.8468 35.3306 29.0042 35.5742C29.1731 35.6013 29.324 35.6466 29.4989 35.6647L29.0042 44.3343H28.591C28.591 44.3343 28.5457 44.8531 28.5367 44.8773L28.2983 44.82C28.2139 44.645 28.6392 38.9015 28.79 36.4399C28.5155 36.3434 28.2742 36.2137 28.0118 36.1021C26.407 35.6194 25.0676 34.5244 24.1415 33.5772L23.9455 33.7824C25.1904 35.1208 26.7591 36.1161 28.5005 36.6722C28.3768 39.912 28.2199 42.2287 28.0329 45.2C27.0495 44.9647 25.9665 44.2951 24.9258 43.4987C24.4896 43.139 24.0755 42.7532 23.686 42.3434C23.2909 41.9512 22.8474 41.4384 22.7509 41.0523C22.689 40.6816 22.6638 40.3057 22.6755 39.9301C22.6755 38.7627 22.6513 37.5983 22.6272 36.446V35.1549L22.413 35.3751V36.449C22.3919 37.6043 22.3648 38.7687 22.3648 39.9392C22.378 40.3138 22.3527 40.6888 22.2894 41.0583C22.1928 41.4595 21.7494 41.9633 21.3542 42.3524C20.9655 42.763 20.5514 43.1489 20.1144 43.5077C19.0767 44.3041 18.0028 44.9708 17.0074 45.2061C16.8234 42.2378 16.6635 39.9211 16.5428 36.6813C18.2082 36.1482 19.718 35.2162 20.941 33.9664L20.7419 33.7492C19.8369 34.6541 18.5458 35.6617 17.0285 36.1172C16.766 36.2288 16.5247 36.3585 16.2502 36.455C16.401 38.9165 16.8264 44.6601 16.7419 44.835L16.5036 44.8923C16.5036 44.8682 16.4523 44.3494 16.4523 44.3494H16.036L15.5413 35.6798C15.7163 35.6617 15.8701 35.6164 16.039 35.5893C17.1964 35.3453 18.3135 34.9391 19.3573 34.3827C19.49 34.3072 19.6227 34.2379 19.7524 34.1594C20.0438 33.9865 20.3257 33.7982 20.5971 33.5953L20.4221 33.4053C18.881 34.1967 17.1899 34.6531 15.4599 34.7446L14.8867 34.7778L14.4704 34.2198L15.4056 34.0539C16.904 33.7708 18.3599 33.2963 19.7374 32.6421L19.5654 32.4521L19.2095 32.5878C17.705 33.185 16.1448 33.6307 14.5519 33.9181C14.2864 33.9573 14.1839 33.9603 13.9908 33.6707C15.7493 33.2237 17.4823 32.6819 19.1823 32.0478L19.0405 31.888L18.0873 32.1715C16.8384 32.5335 15.6047 32.9739 14.3045 33.3299C14.1563 33.3499 14.0055 33.3264 13.8705 33.2621C13.7355 33.1978 13.6222 33.0956 13.5444 32.9679C14.8747 32.5003 16.4915 32.0328 18.0089 31.5893L17.1039 31.6044L16.1205 31.9061C16.1205 31.8125 16.1205 31.719 16.1205 31.6285H15.84C15.84 31.7492 15.84 31.8668 15.84 31.9875L13.2155 32.7537L13.8189 39.7913C12.7932 40.6963 11.7887 41.5862 10.6575 42.5817C10.1296 41.7219 9.837 40.4701 9.66506 39.185C9.60845 38.6218 9.58829 38.0555 9.60473 37.4897C9.60473 36.9347 9.64093 36.2831 9.85812 35.9151C10.0753 35.6083 10.3229 35.3244 10.5972 35.0674C11.4237 34.2439 12.2291 33.4023 13.0285 32.5727L13.9335 31.6527H13.6318L12.8686 32.4098C12.0391 33.2092 11.1945 34.0177 10.3679 34.8442C10.112 35.1183 9.82898 35.3659 9.52328 35.5832C9.17034 35.7974 8.50368 35.8396 7.94562 35.8366C7.38083 35.85 6.81573 35.8299 6.25333 35.7763C4.95621 35.6044 3.7164 35.3087 2.85367 34.7808C4.82046 32.5516 6.34986 30.799 8.55496 28.4219C10.1101 29.2226 11.8375 29.6307 13.5866 29.6105V29.3088C12.1013 29.3437 10.6293 29.022 9.29402 28.3706C9.03158 28.262 8.76914 28.1836 8.5067 28.069C6.88077 29.9061 3.11912 34.268 2.93511 34.3314L2.72697 34.2017C2.72697 34.1805 3.07388 33.7824 3.07388 33.7824L2.77222 33.4807L8.55195 27.0011C8.69071 27.1097 8.82947 27.1882 8.96823 27.2877C9.96003 27.9296 11.0375 28.4283 12.1688 28.7688C12.3136 28.8111 12.4705 28.8563 12.6032 28.8925C12.9314 28.9757 13.2637 29.0421 13.5987 29.0916V28.8322C11.9498 28.3016 10.4315 27.4289 9.14319 26.2711L8.71183 25.888L8.81137 25.2455C9.31815 25.6045 9.43278 25.6799 9.58663 25.7915C10.847 26.6495 12.2114 27.3439 13.6469 27.8578V27.5984L13.297 27.4446C11.8141 26.7987 10.3994 26.0064 9.07381 25.0796C8.97022 25.0309 8.8893 24.9442 8.84775 24.8376C8.80621 24.7309 8.80722 24.6124 8.85059 24.5064C10.4135 25.4331 12.0246 26.2759 13.6771 27.0313V26.8171C13.294 26.606 12.9652 26.428 12.8053 26.3435C11.7073 25.7161 10.5308 25.1701 9.36039 24.4883C9.24137 24.3978 9.15122 24.2746 9.10089 24.1337C9.05055 23.9929 9.04219 23.8405 9.07683 23.695C10.3498 24.2983 11.8249 25.1158 13.2125 25.876L12.561 25.2455L11.656 24.7568C11.7224 24.6874 11.7857 24.6241 11.8521 24.5607L11.65 24.3647C11.5625 24.4461 11.472 24.5245 11.3845 24.609L8.99236 23.3179L3.71339 29.5712L1.10708 29.4204V29.0071C1.10708 29.0071 0.58823 28.9619 0.564098 28.9528L0.621412 28.7145C0.711909 28.6693 2.38308 28.7719 4.29558 28.8955L4.45244 28.7115C3.07991 28.6301 1.73754 28.5456 0.229259 28.4491C0.464551 27.4657 1.13423 26.3827 1.9306 25.345C2.28824 24.907 2.67311 24.4919 3.08292 24.1022C3.47508 23.707 3.98789 23.2666 4.37703 23.1701C4.74742 23.1057 5.12344 23.0794 5.49919 23.0917C6.6666 23.0917 7.83099 23.0675 8.98332 23.0464H10.2835L10.0602 22.8292H8.99236C7.83702 22.8081 6.67263 22.784 5.50221 22.784C5.12645 22.7963 4.75043 22.77 4.38004 22.7055C3.97884 22.609 3.47508 22.1686 3.08594 21.7734C2.67613 21.3837 2.29126 20.9687 1.93361 20.5306C1.13423 19.4929 0.467567 18.419 0.232275 17.4266C1.74056 17.333 3.07086 17.2456 4.45546 17.1641L8.99236 22.5577L11.3815 21.2666L11.478 21.3541L11.6922 21.1611L11.653 21.1218L11.8581 21.0102L12.6122 20.3436C11.4056 21.0012 10.1658 21.6739 9.07381 22.1958C9.03902 22.0507 9.04732 21.8987 9.09769 21.7583C9.14806 21.6179 9.23831 21.4952 9.35737 21.4054C10.5278 20.7357 11.7133 20.1747 12.8536 19.5472C13.0315 19.4507 13.4237 19.2456 13.8611 18.9982V18.7901C12.1617 19.5672 10.5043 20.4331 8.89583 21.3843C8.85247 21.2784 8.85146 21.1598 8.893 21.0531C8.93454 20.9465 9.01547 20.8598 9.11906 20.8111C10.4446 19.8843 11.8594 19.0921 13.3422 18.4462L13.8551 18.2199V17.9695C12.361 18.4933 10.9413 19.2092 9.63188 20.0992C9.47803 20.2109 9.3634 20.2863 8.85662 20.6452L8.75707 20.0027L9.18844 19.6196C10.5169 18.4084 12.0988 17.5087 13.8189 16.9861V16.7569C13.4124 16.8075 13.0094 16.883 12.6122 16.9831C12.4674 17.0193 12.3106 17.0646 12.1779 17.1068C11.0511 17.4481 9.97854 17.9479 8.99236 18.591C8.8536 18.6875 8.71484 18.7659 8.57608 18.8745L2.7873 12.3949L3.08896 12.0933C3.08896 12.0933 2.7511 11.6951 2.74205 11.674L2.9502 11.5443C3.13421 11.6076 6.89284 15.9696 8.52781 17.8157C8.79026 17.692 9.0527 17.6136 9.31815 17.514C10.7933 16.7207 12.5127 16.5487 13.843 16.5638V16.2803C12.0165 16.2143 10.2037 16.6195 8.5791 17.4567C6.37399 15.0797 4.84761 13.3271 2.8778 11.0978C3.74053 10.5699 4.98939 10.2743 6.27746 10.1024C6.83987 10.0488 7.40496 10.0286 7.96975 10.042C8.52781 10.042 9.19447 10.0812 9.54741 10.2954C9.85311 10.5127 10.1361 10.7603 10.392 11.0345C11.2186 11.861 12.0602 12.6664 12.8898 13.4658L13.7947 14.3859V14.0842L13.0376 13.3271C12.2352 12.4945 11.4297 11.6529 10.6032 10.8233C10.3283 10.5681 10.0807 10.285 9.86415 9.97869C9.64997 9.62575 9.60774 8.95909 9.61076 8.40404C9.59736 7.83824 9.6175 7.27214 9.67109 6.70873C9.84303 5.4116 10.1356 4.17482 10.6635 3.31209C11.7947 4.30755 12.7993 5.18838 13.8279 6.10541L13.2246 13.14L15.8279 13.9153C15.8279 13.9575 15.8279 13.9998 15.8279 14.045H16.1295V13.9907L16.3498 14.0571L17.3663 14.1083C16.0481 13.7222 14.6967 13.321 13.5564 12.9198C13.6342 12.7921 13.7476 12.6899 13.8826 12.6256C14.0176 12.5613 14.1684 12.5378 14.3166 12.5578C15.6167 12.9138 16.8505 13.3542 18.0994 13.7162C18.2954 13.7735 18.7208 13.9032 19.2004 14.042L19.3482 13.8942C17.5684 13.2697 15.4689 12.5337 14.0029 12.217C14.1959 11.9153 14.3045 11.9153 14.564 11.9696C16.1562 12.2512 17.7164 12.6908 19.2215 13.2818L19.7434 13.4809L19.9183 13.3029C18.4895 12.6128 16.9764 12.1128 15.4176 11.8158L14.4825 11.6499L14.8686 11.128L15.4418 11.1612C17.2447 11.2516 19.0043 11.7453 20.591 12.6061L20.7479 12.4402C20.4257 12.1868 20.0871 11.9551 19.7343 11.7464L19.3422 11.5232C18.2982 10.9673 17.1812 10.5611 16.024 10.3165C15.855 10.2894 15.7012 10.2441 15.5262 10.226L16.024 1.55645H16.4372C16.4372 1.55645 16.4795 1.0376 16.4885 1.01347L16.7298 1.07077C16.8113 1.24573 16.386 6.98927 16.2351 9.45079C16.5096 9.54732 16.751 9.67703 17.0134 9.78864C18.6182 10.2713 19.9606 11.3663 20.8836 12.3135L21.0827 12.1084C19.8432 10.7582 18.2764 9.75038 16.5338 9.18231C16.6544 5.94252 16.8143 3.6258 17.0013 0.657507C17.9847 0.892799 19.0677 1.56248 20.1054 2.35583C20.5423 2.71475 20.9564 3.10062 21.3452 3.51118C21.7434 3.90333 22.1838 4.41614 22.2803 4.80528C22.3436 5.17477 22.3689 5.54978 22.3557 5.92443C22.3557 7.09184 22.3829 8.25623 22.404 9.40855V10.7117L22.6182 10.4885V9.41458C22.6423 8.25924 22.6664 7.09485 22.6664 5.92443C22.6548 5.54981 22.68 5.17494 22.7418 4.80528C22.8384 4.40407 23.2818 3.90032 23.677 3.51118C24.0675 3.10127 24.4825 2.71544 24.9198 2.35583C25.9575 1.55946 27.0314 0.892799 28.0238 0.657507C28.2109 3.6258 28.3707 5.94252 28.4914 9.18231C26.8257 9.71471 25.3157 10.6468 24.0933 11.8972L24.2893 12.1144C25.1943 11.2094 26.4884 10.2019 28.0027 9.7464C28.2652 9.63479 28.5065 9.50508 28.781 9.40855C28.6302 6.94704 28.2048 1.20351 28.2893 1.02855L28.5276 0.971232C28.5276 0.995364 28.5819 1.51421 28.5819 1.51421H28.9952L29.4899 10.1838C29.3149 10.2019 29.1641 10.2472 28.9952 10.2743C27.8378 10.5184 26.7207 10.9246 25.677 11.4809L25.2818 11.7041C24.991 11.8764 24.71 12.0647 24.4402 12.2683L24.6121 12.4583C26.1532 11.6669 27.8443 11.2105 29.5744 11.1189L30.1505 11.0858L30.5336 11.6076L29.5985 11.7735C28.1002 12.0572 26.6444 12.5317 25.2667 13.1853L25.4417 13.3753L25.7976 13.2396C27.3016 12.6485 28.8609 12.2089 30.4522 11.9274C30.7176 11.8882 30.8232 11.8852 31.0163 12.1747C29.2568 12.6218 27.5228 13.1635 25.8218 13.7976L25.9665 13.9575L26.9168 13.674C28.1686 13.312 29.4024 12.8716 30.7025 12.5156C30.8507 12.4955 31.0015 12.5191 31.1366 12.5834C31.2716 12.6476 31.3849 12.7499 31.4627 12.8776C30.1294 13.3452 28.5125 13.8127 26.9952 14.2592L27.9002 14.2441L29.1671 13.864L28.8866 13.9485C28.8866 14.042 28.8866 14.1355 28.8866 14.226H29.1671C29.1671 14.1053 29.1671 13.9877 29.1671 13.867L31.7704 13.0918L31.1671 6.05716C32.1927 5.15219 33.2003 4.24722 34.3285 3.26382C34.8563 4.12656 35.152 5.37541 35.3209 6.66047C35.3772 7.22371 35.3983 7.78991 35.3842 8.35577C35.3842 8.91082 35.345 9.57748 35.1309 9.93042C34.9128 10.2364 34.6652 10.5203 34.3918 10.7781C33.5653 11.6016 32.7598 12.4432 31.9604 13.2758L31.0404 14.1958H31.3421L32.0992 13.4357C32.9318 12.6363 33.7734 11.8278 34.5999 11.0013C34.8569 10.727 35.1409 10.4794 35.4476 10.2622C35.7975 10.0481 36.4642 10.0058 37.0222 10.0088C37.588 9.99544 38.1541 10.0156 38.7175 10.0692C40.0147 10.2411 41.2515 10.5367 42.1142 11.0646C40.1474 13.2939 38.621 15.0465 36.4159 17.4236C34.8605 16.6238 33.1331 16.2168 31.3843 16.238L31.3692 16.5397C32.6603 16.5397 34.2711 16.7418 35.6678 17.4929C35.9302 17.5985 36.1957 17.6769 36.4581 17.7946C38.0931 15.9484 41.8517 11.5865 42.0358 11.5232L42.2439 11.6529C42.2439 11.674 41.897 12.0722 41.897 12.0722L42.1806 12.3738L36.4431 18.8745C36.3073 18.7659 36.1686 18.6875 36.0298 18.5879C35.0361 17.9455 33.9566 17.4468 32.8232 17.1068C32.6784 17.0646 32.5215 17.0193 32.3888 16.9831C32.069 16.9017 31.7342 16.8353 31.3933 16.784L31.3783 17.0435C33.0293 17.5733 34.5496 18.446 35.8397 19.6045C35.9152 19.6679 36.2017 19.9243 36.2711 19.9876L36.1746 20.6302L35.3963 20.0842C34.1299 19.2242 32.7582 18.5308 31.3149 18.0208V18.2772L31.6618 18.4311C33.1447 19.077 34.5594 19.8692 35.885 20.7961C35.9886 20.8448 36.0695 20.9314 36.1111 21.0381C36.1526 21.1447 36.1516 21.2633 36.1082 21.3692C34.5457 20.442 32.9345 19.5991 31.2817 18.8444V19.0615L32.1535 19.5351C33.2938 20.1596 34.4763 20.7207 35.6497 21.3903C35.7679 21.4808 35.8574 21.6036 35.9072 21.7439C35.9569 21.8842 35.965 22.0359 35.9302 22.1807C34.6573 21.5774 33.1852 20.7599 31.7976 20.0027L32.4491 20.6332L33.3541 21.1218L33.158 21.3149L33.3571 21.511C33.4476 21.4295 33.5381 21.3511 33.6226 21.2666L36.0117 22.5577L40.5697 17.1641C41.9422 17.2456 43.2846 17.333 44.7778 17.4266C44.5425 18.41 43.8728 19.4929 43.0795 20.5306C42.7199 20.9679 42.3341 21.3829 41.9241 21.7734C41.532 22.1686 41.0192 22.609 40.63 22.7086C40.2604 22.7704 39.8855 22.7956 39.5109 22.784C38.3405 22.784 37.1791 22.8081 36.0238 22.8292H34.7236L34.9468 23.0464H36.0207C37.1731 23.0675 38.3405 23.0917 39.5109 23.0917C39.8857 23.0794 40.2607 23.1056 40.63 23.1701C41.0312 23.2666 41.535 23.707 41.9241 24.1052C42.3347 24.494 42.7206 24.9081 43.0795 25.345C43.8759 26.3827 44.5425 27.4566 44.7778 28.4491C43.2695 28.5456 41.9422 28.6301 40.5697 28.7115L40.7024 28.9166Z" fill="#1268B3"/>
<path d="M36.1415 23.164L32.0178 19.1821L32.3195 13.4507L26.588 13.5502L22.7449 9.29688L18.7419 13.4235L13.0105 13.137L13.107 18.8684L8.86572 22.7115L12.9863 26.6934L12.6847 32.4248L18.4162 32.3253L22.2653 36.5726L26.2471 32.452L31.9786 32.7386L31.8791 27.0071L36.1415 23.164ZM25.9455 31.6526L22.2924 35.4263L18.7721 31.5319L13.5203 31.6224L13.7857 26.3766L10.009 22.7266L13.9064 19.2063L13.8159 13.9575L19.0587 14.2199L22.7087 10.4462L26.229 14.3406L31.4779 14.2501L31.2124 19.4928L34.9891 23.1429L31.0948 26.6783L31.1852 31.9271L25.9455 31.6526Z" fill="#1268B3"/>
<path d="M15.9814 17.0736L22.2891 15.4718C22.3801 15.4443 22.4745 15.429 22.5696 15.4266C22.7047 15.4221 22.8393 15.4457 22.9648 15.4959L29.2392 16.971L22.7898 19.0585C22.6118 19.0756 22.4321 19.0561 22.2619 19.0012L15.9814 17.0736Z" fill="#1268B3"/>
<path d="M19.1095 18.3616L21.8968 19.5411C22.0863 19.5997 22.2837 19.6282 22.482 19.6256C22.6651 19.623 22.8469 19.5945 23.022 19.5411L26.0868 18.3345L26.1139 20.078C25.7845 20.4261 25.4016 20.7194 24.9797 20.9468C24.2187 21.3365 23.3694 21.5216 22.5152 21.4838C21.527 21.5016 20.5583 21.2082 19.746 20.6452C19.5269 20.4841 19.3248 20.3011 19.1427 20.0992C19.1427 19.523 19.1246 18.9468 19.1125 18.3677" fill="#1268B3"/>
<path d="M18.7753 21.0312C19.2102 21.4104 19.6798 21.7477 20.178 22.0388C20.8477 22.4279 21.2458 22.5365 21.7949 22.9739C22.1213 23.236 22.4114 23.5403 22.6576 23.8789C22.8414 23.5251 23.0948 23.2121 23.4027 22.9588C23.9366 22.5184 24.38 22.4852 25.0346 22.1474C25.5627 21.875 26.0378 21.5102 26.4373 21.0705C26.6049 21.4257 26.6566 21.8245 26.5851 22.2107C26.368 23.2997 25.1885 23.719 25.1221 23.7371C24.5409 23.9908 24.0251 24.3736 23.6138 24.8562C23.2046 25.3356 22.9151 25.9053 22.7692 26.5184C22.7592 26.5461 22.7413 26.5703 22.7178 26.588C22.6942 26.6057 22.6659 26.6161 22.6365 26.6179C22.601 26.6182 22.5667 26.6054 22.54 26.5821C22.5133 26.5587 22.4961 26.5264 22.4917 26.4912C22.4016 25.9116 22.1484 25.3696 21.7617 24.9287C21.2941 24.4158 20.9321 24.4158 19.8341 23.5802C19.0649 22.995 18.9291 22.7447 18.8416 22.5878C18.6349 22.0972 18.6145 21.5479 18.7843 21.0433" fill="#1268B3"/>
<path d="M15.0554 20.9468C15.2455 21.2484 15.529 21.7039 15.8578 22.265C16.434 23.2544 16.7175 23.8427 16.8925 24.1534C17.2997 24.8743 18.078 25.8246 19.7251 26.7356C19.7559 26.5043 19.7247 26.269 19.6346 26.0538C19.526 25.8226 19.3611 25.6224 19.1549 25.4716C18.615 25.0071 18.3797 24.9166 18.1625 24.7205C17.9 24.4852 17.6165 24.0538 17.5773 23.2122C17.8548 23.3721 18.259 23.6104 18.7477 23.906C20.0177 24.6843 20.6511 25.0734 20.9799 25.4143C21.645 26.1297 22.0773 27.0301 22.2197 27.9965C22.3545 28.8184 22.2893 29.6606 22.0297 30.452C21.2669 30.1805 20.5365 29.8253 19.8518 29.3931C18.3383 28.4338 17.0929 27.1064 16.2319 25.535C15.4726 24.1239 15.0687 22.5491 15.0554 20.9468Z" fill="#1268B3"/>
<path d="M30.0177 20.9468C29.8277 21.2484 29.5441 21.7039 29.2153 22.265C28.6392 23.2544 28.3526 23.8427 28.1776 24.1534C27.7734 24.8743 26.9951 25.8246 25.3481 26.7356C25.316 26.5046 25.3462 26.2692 25.4356 26.0538C25.5464 25.8232 25.7121 25.6232 25.9182 25.4716C26.4552 25.0071 26.6905 24.9166 26.9107 24.7205C27.1309 24.5244 27.4537 24.0538 27.4929 23.2122C27.2184 23.3721 26.8111 23.6104 26.3255 23.906C25.0555 24.6843 24.422 25.0734 24.0932 25.4143C23.4282 26.1297 22.9959 27.0301 22.8534 27.9965C22.7155 28.8182 22.7807 29.6612 23.0434 30.452C23.8097 30.1792 24.5432 29.8221 25.2304 29.3871C26.7441 28.4281 27.9896 27.1006 28.8503 25.5289C29.6041 24.1183 30.0046 22.5461 30.0177 20.9468Z" fill="#1268B3"/>
<path d="M54.5815 25.9605H53.9752V20.3889H52.7384V19.7795H55.8183V20.3889H54.5815V25.9605Z" fill="#1268B3"/>
<path d="M57.2574 21.8761C57.4688 21.6442 57.7265 21.4592 58.0138 21.3329C58.3011 21.2067 58.6117 21.142 58.9255 21.1431C59.2466 21.1384 59.5652 21.1988 59.8623 21.3206C60.1594 21.4424 60.4287 21.6232 60.654 21.852C60.886 22.0741 61.0695 22.3417 61.193 22.6381C61.3166 22.9346 61.3775 23.2533 61.3719 23.5744C61.3857 24.2289 61.142 24.8625 60.6932 25.3391C60.4789 25.5827 60.214 25.7766 59.917 25.9074C59.6201 26.0382 59.2982 26.1026 58.9738 26.0963C58.653 26.1027 58.3344 26.0422 58.0384 25.9186C57.7423 25.7949 57.4753 25.6109 57.2543 25.3783C57.0278 25.15 56.8491 24.8786 56.729 24.5802C56.6088 24.2818 56.5495 23.9624 56.5545 23.6408H60.7445V23.6167C60.754 23.3686 60.7141 23.1211 60.6271 22.8886C60.5401 22.656 60.4077 22.4431 60.2377 22.2622C60.0691 22.0836 59.8643 21.943 59.6369 21.8499C59.4096 21.7567 59.165 21.7132 58.9195 21.7223C58.6881 21.7202 58.459 21.7678 58.2477 21.862C58.0364 21.9562 57.8478 22.0948 57.6948 22.2683C57.5552 22.4189 57.4393 22.5897 57.3509 22.775H56.6933C56.8125 22.4356 57.0051 22.1266 57.2574 21.8701V21.8761ZM60.6842 24.1415H57.2574C57.334 24.4516 57.4899 24.7364 57.7098 24.9681C57.8717 25.1453 58.0695 25.286 58.2901 25.3807C58.5106 25.4754 58.7489 25.5219 58.9889 25.5171C59.2261 25.5212 59.4615 25.4744 59.679 25.3797C59.8965 25.2849 60.0912 25.1446 60.2498 24.9681C60.4698 24.737 60.6249 24.4519 60.6993 24.1415" fill="#1268B3"/>
<path d="M62.5303 19.7825H63.1336V21.8518C63.3067 21.6408 63.5266 21.4731 63.7759 21.3621C64.0251 21.251 64.2969 21.1998 64.5695 21.2123C65.2875 21.2123 65.7942 21.4416 66.0778 21.8941C66.3553 22.4184 66.4817 23.0095 66.4428 23.6014V25.9755H65.8395V23.5924C65.868 23.1534 65.7915 22.7139 65.6163 22.3103C65.4142 21.9574 65.0522 21.7855 64.5122 21.7855C64.2719 21.7673 64.0314 21.8171 63.818 21.9291C63.6046 22.0411 63.4271 22.2108 63.3056 22.4189C63.1421 22.8265 63.074 23.2661 63.1065 23.704V25.9755H62.5032L62.5303 19.7825Z" fill="#1268B3"/>
<path d="M67.5526 24.4944H68.1559V24.5125C68.1491 24.7624 68.2279 25.0072 68.3791 25.2063C68.454 25.3064 68.5515 25.3873 68.6638 25.4423C68.776 25.4974 68.8997 25.5251 69.0246 25.523C69.2397 25.5298 69.4488 25.4518 69.6068 25.3058C69.6847 25.235 69.7462 25.1482 69.7874 25.0514C69.8285 24.9545 69.8482 24.8499 69.8452 24.7448C69.8498 24.632 69.8298 24.5197 69.7866 24.4154C69.7434 24.3112 69.6779 24.2177 69.5948 24.1414C69.4147 24.0034 69.21 23.901 68.9915 23.8398C68.6669 23.7399 68.3611 23.587 68.0865 23.3873C67.965 23.2752 67.8701 23.1374 67.8085 22.984C67.7469 22.8306 67.7203 22.6654 67.7305 22.5004C67.7271 22.3257 67.7609 22.1523 67.8295 21.9916C67.8981 21.8309 68.0001 21.6866 68.1287 21.5683C68.386 21.3203 68.7307 21.1837 69.088 21.1882C69.2624 21.1719 69.4382 21.1928 69.6039 21.2496C69.7695 21.3063 69.9213 21.3976 70.049 21.5174C70.1768 21.6371 70.2776 21.7827 70.3449 21.9444C70.4122 22.106 70.4444 22.2801 70.4394 22.4552H69.7969C69.8032 22.3588 69.7897 22.2622 69.7571 22.1712C69.7246 22.0803 69.6737 21.997 69.6077 21.9265C69.5417 21.856 69.4619 21.7998 69.3733 21.7614C69.2847 21.723 69.1891 21.7032 69.0925 21.7032C68.9959 21.7032 68.9004 21.723 68.8118 21.7614C68.7232 21.7998 68.6434 21.856 68.5773 21.9265C68.5113 21.997 68.4605 22.0803 68.4279 22.1712C68.3954 22.2622 68.3818 22.3588 68.3881 22.4552C68.3861 22.5777 68.4173 22.6985 68.4784 22.8047C68.5395 22.9109 68.6282 22.9986 68.7351 23.0585C68.8795 23.1412 69.0335 23.2061 69.1936 23.2516C69.444 23.327 69.6008 23.3783 69.6672 23.4084C69.8801 23.4995 70.067 23.6422 70.211 23.8235C70.3551 24.0048 70.4519 24.2191 70.4926 24.447C70.5332 24.675 70.5166 24.9095 70.4441 25.1295C70.3717 25.3494 70.2457 25.5479 70.0774 25.707C69.7856 25.9604 69.4077 26.0922 69.0216 26.0751C68.8175 26.0841 68.6139 26.0477 68.4255 25.9684C68.2372 25.8891 68.0688 25.7689 67.9327 25.6166C67.6752 25.2951 67.5376 24.8941 67.5435 24.4823" fill="#1268B3"/>
<path d="M72.3008 20.7447H71.6975V19.7825H72.3008V20.7447ZM71.6975 21.2938H72.3008V25.9634H71.6975V21.2938Z" fill="#1268B3"/>
<path d="M74.3341 19.7795H73.7368V25.9605H74.3341V19.7795Z" fill="#1268B3"/>
<path d="M80.0896 25.9605H79.4833V20.3889H78.2465V19.7795H81.3264V20.3889H80.0896V25.9605Z" fill="#1268B3"/>
<path d="M82.7685 21.8761C82.9799 21.6442 83.2376 21.4592 83.5249 21.3329C83.8122 21.2067 84.1228 21.142 84.4366 21.1431C84.7577 21.1384 85.0764 21.1988 85.3734 21.3206C85.6705 21.4424 85.9398 21.6232 86.1651 21.852C86.3971 22.0741 86.5806 22.3417 86.7042 22.6381C86.8277 22.9346 86.8886 23.2533 86.8831 23.5744C86.8955 24.2286 86.652 24.8619 86.2043 25.3391C85.9897 25.5824 85.7248 25.7761 85.4279 25.9068C85.131 26.0376 84.8092 26.1022 84.4849 26.0963C84.1641 26.1027 83.8455 26.0422 83.5495 25.9186C83.2534 25.7949 82.9864 25.6109 82.7654 25.3783C82.5389 25.15 82.3602 24.8786 82.2401 24.5802C82.1199 24.2818 82.0606 23.9624 82.0656 23.6408H86.2556V23.6167C86.2651 23.3686 86.2252 23.1211 86.1382 22.8886C86.0512 22.656 85.9188 22.4431 85.7488 22.2622C85.5802 22.0836 85.3754 21.943 85.148 21.8499C84.9207 21.7567 84.6761 21.7132 84.4306 21.7223C84.1992 21.7202 83.9701 21.7678 83.7588 21.862C83.5475 21.9562 83.3589 22.0948 83.2059 22.2683C83.0643 22.4173 82.9482 22.5885 82.862 22.775H82.2044C82.3226 22.4351 82.5153 22.1259 82.7685 21.8701V21.8761ZM86.1953 24.1415H82.7534C82.83 24.4516 82.986 24.7364 83.2059 24.9681C83.3677 25.1453 83.5655 25.286 83.7861 25.3807C84.0067 25.4754 84.2449 25.5219 84.4849 25.5171C84.7221 25.5212 84.9575 25.4744 85.175 25.3797C85.3926 25.2849 85.5872 25.1446 85.7458 24.9681C85.9659 24.737 86.1209 24.4519 86.1953 24.1415Z" fill="#1268B3"/>
<path d="M88.6505 19.7795H88.0532V25.9605H88.6505V19.7795Z" fill="#1268B3"/>
<path d="M90.5298 21.8761C90.7413 21.6442 90.999 21.4592 91.2863 21.3329C91.5736 21.2067 91.8841 21.142 92.198 21.1431C92.519 21.1384 92.8377 21.1988 93.1348 21.3206C93.4319 21.4424 93.7012 21.6232 93.9265 21.852C94.1584 22.0741 94.342 22.3417 94.4655 22.6381C94.5891 22.9346 94.65 23.2533 94.6444 23.5744C94.6569 24.2286 94.4133 24.8619 93.9657 25.3391C93.7513 25.5827 93.4864 25.7766 93.1895 25.9074C92.8925 26.0382 92.5706 26.1026 92.2462 26.0963C91.9255 26.1027 91.6069 26.0422 91.3108 25.9186C91.0148 25.7949 90.7478 25.6109 90.5268 25.3783C90.3002 25.15 90.1216 24.8786 90.0014 24.5802C89.8812 24.2818 89.8219 23.9624 89.827 23.6408H94.017V23.6167C94.0264 23.3686 93.9865 23.1211 93.8995 22.8886C93.8125 22.656 93.6802 22.4431 93.5102 22.2622C93.3415 22.0836 93.1367 21.943 92.9094 21.8499C92.682 21.7567 92.4374 21.7132 92.1919 21.7223C91.9606 21.7202 91.7315 21.7678 91.5202 21.862C91.3089 21.9562 91.1203 22.0948 90.9672 22.2683C90.8267 22.4181 90.7106 22.5891 90.6233 22.775H89.9657C90.0839 22.4351 90.2766 22.1259 90.5298 21.8701V21.8761ZM93.9566 24.1415H90.5147C90.5914 24.4516 90.7473 24.7364 90.9672 24.9681C91.1291 25.1453 91.3269 25.286 91.5474 25.3807C91.768 25.4754 92.0062 25.5219 92.2462 25.5171C92.4835 25.5212 92.7188 25.4744 92.9364 25.3797C93.1539 25.2849 93.3486 25.1446 93.5072 24.9681C93.7272 24.737 93.8823 24.4519 93.9566 24.1415Z" fill="#1268B3"/>
<path d="M96.382 19.7825V22.0781C96.5987 21.7989 96.877 21.5736 97.1951 21.4197C97.5133 21.2659 97.8627 21.1877 98.2161 21.1912C98.5311 21.1846 98.8438 21.2452 99.1336 21.369C99.4233 21.4928 99.6833 21.677 99.8963 21.9091C100.33 22.3854 100.569 23.0082 100.563 23.6526C100.557 24.297 100.308 24.9156 99.8661 25.3842C99.6386 25.6155 99.3658 25.7974 99.0647 25.9183C98.7636 26.0393 98.4408 26.0967 98.1165 26.0871C97.7835 26.089 97.4544 26.0153 97.1539 25.8716C96.8535 25.7279 96.5896 25.518 96.382 25.2575V25.9634H95.7787V19.7825H96.382ZM96.382 23.6738C96.3785 24.1501 96.559 24.6093 96.8858 24.9559C97.0382 25.1359 97.2282 25.2805 97.4423 25.3795C97.6565 25.4785 97.8896 25.5295 98.1256 25.529C98.3718 25.535 98.6163 25.4864 98.8416 25.3868C99.0669 25.2872 99.2674 25.139 99.4287 24.9528C99.764 24.5824 99.9453 24.098 99.9355 23.5984C99.9399 23.357 99.8967 23.1171 99.8081 22.8924C99.7196 22.6677 99.5876 22.4627 99.4197 22.2892C99.2578 22.114 99.0607 21.975 98.8413 21.8814C98.6219 21.7878 98.3852 21.7417 98.1467 21.7462C97.9022 21.7436 97.6603 21.7965 97.4392 21.901C97.2182 22.0055 97.0238 22.1589 96.8707 22.3496C96.5506 22.7112 96.3764 23.1789 96.382 23.6618" fill="#1268B3"/>
<path d="M102.204 21.8761C102.416 21.6442 102.673 21.4592 102.961 21.3329C103.248 21.2067 103.558 21.142 103.872 21.1431C104.193 21.1384 104.512 21.1988 104.809 21.3206C105.106 21.4424 105.375 21.6232 105.601 21.852C105.833 22.0741 106.016 22.3417 106.14 22.6381C106.263 22.9346 106.324 23.2533 106.319 23.5744C106.331 24.2286 106.088 24.8619 105.64 25.3391C105.425 25.5824 105.16 25.7761 104.864 25.9068C104.567 26.0376 104.245 26.1022 103.921 26.0963C103.6 26.1027 103.281 26.0422 102.985 25.9186C102.689 25.7949 102.422 25.6109 102.201 25.3783C101.975 25.15 101.796 24.8786 101.676 24.5802C101.556 24.2818 101.496 23.9624 101.501 23.6408H105.691V23.6167C105.701 23.3686 105.661 23.1211 105.574 22.8886C105.487 22.656 105.354 22.4431 105.184 22.2622C105.016 22.0836 104.811 21.943 104.584 21.8499C104.356 21.7567 104.112 21.7132 103.866 21.7223C103.635 21.7202 103.406 21.7678 103.194 21.862C102.983 21.9562 102.795 22.0948 102.642 22.2683C102.5 22.4173 102.384 22.5885 102.298 22.775H101.64C101.758 22.4351 101.951 22.1259 102.204 21.8701V21.8761ZM105.631 24.1415H102.177C102.254 24.4516 102.41 24.7364 102.629 24.9681C102.791 25.1453 102.989 25.286 103.21 25.3807C103.43 25.4754 103.668 25.5219 103.908 25.5171C104.146 25.5212 104.381 25.4744 104.599 25.3797C104.816 25.2849 105.011 25.1446 105.169 24.9681C105.389 24.737 105.545 24.4519 105.619 24.1415" fill="#1268B3"/>
<path d="M111.067 24.057V25.9635H110.47V19.7795H111.067V23.2154L113.93 19.7795H114.651L112.153 22.769L114.608 25.9635H113.86L111.764 23.2245L111.067 24.057Z" fill="#1268B3"/>
<path d="M116.111 25.9635H115.507V21.2938H116.08V21.8338C116.199 21.6518 116.361 21.5017 116.551 21.3965C116.742 21.2914 116.955 21.2344 117.172 21.2305V21.882C117.016 21.8826 116.861 21.9155 116.718 21.9789C116.574 22.0422 116.446 22.1345 116.34 22.2501C116.17 22.5199 116.093 22.8375 116.12 23.155L116.111 25.9635Z" fill="#1268B3"/>
<path d="M122.717 23.8156H118.493C118.511 24.28 118.706 24.7201 119.036 25.0464C119.202 25.2046 119.397 25.328 119.611 25.4093C119.825 25.4906 120.054 25.5283 120.282 25.52C120.623 25.5334 120.959 25.4412 121.246 25.256C121.532 25.0708 121.754 24.8016 121.881 24.4853H122.56C122.113 25.5592 121.36 26.0962 120.3 26.0962C119.978 26.1016 119.658 26.0401 119.36 25.9154C119.063 25.7908 118.794 25.6059 118.572 25.3722C118.344 25.1424 118.164 24.8691 118.044 24.5685C117.924 24.2679 117.865 23.9462 117.872 23.6226C117.858 23.2965 117.913 22.9711 118.031 22.667C118.15 22.3629 118.33 22.0867 118.561 21.856C118.792 21.6252 119.068 21.4448 119.372 21.3262C119.676 21.2076 120.001 21.1535 120.328 21.1671C120.659 21.1535 120.989 21.2151 121.293 21.3473C121.597 21.4795 121.867 21.6788 122.083 21.9303C122.512 22.4464 122.734 23.103 122.708 23.7734L122.717 23.8156ZM122.056 23.3089C121.831 22.2551 121.227 21.7292 120.246 21.7312C119.812 21.7188 119.39 21.8781 119.073 22.1746C118.764 22.4785 118.568 22.8786 118.518 23.3089H122.056Z" fill="#1268B3"/>
<path d="M127.799 22.0328V19.7825H128.402V25.9634H127.799V25.2575C127.589 25.5219 127.32 25.7335 127.014 25.8755C126.707 26.0174 126.372 26.0857 126.034 26.075C125.714 26.0821 125.396 26.0212 125.1 25.8964C124.805 25.7717 124.539 25.5858 124.321 25.351C124.097 25.1208 123.922 24.8483 123.805 24.5495C123.688 24.2506 123.631 23.9314 123.639 23.6105C123.63 23.2908 123.686 22.9726 123.803 22.675C123.92 22.3775 124.096 22.1067 124.321 21.879C124.542 21.6493 124.809 21.4685 125.104 21.3479C125.399 21.2274 125.716 21.1699 126.034 21.1791C126.376 21.1658 126.715 21.2354 127.023 21.382C127.332 21.5286 127.6 21.7478 127.805 22.0208L127.799 22.0328ZM127.823 23.6618C127.83 23.1707 127.653 22.6949 127.325 22.3284C127.172 22.1393 126.978 21.987 126.757 21.8827C126.537 21.7783 126.296 21.7244 126.052 21.7251C125.813 21.7209 125.576 21.7671 125.355 21.8606C125.135 21.9542 124.937 22.093 124.773 22.2681C124.606 22.4418 124.474 22.6468 124.386 22.8715C124.298 23.0962 124.256 23.3361 124.261 23.5773C124.25 24.0765 124.43 24.561 124.764 24.9317C124.926 25.1179 125.126 25.2661 125.352 25.3657C125.577 25.4653 125.821 25.5138 126.068 25.5079C126.304 25.5081 126.538 25.4569 126.753 25.358C126.968 25.259 127.16 25.1146 127.313 24.9348C127.643 24.5895 127.826 24.1299 127.823 23.6527" fill="#1268B3"/>
<path d="M130.415 20.7447H129.812V19.7825H130.415V20.7447ZM129.812 21.2938H130.415V25.9634H129.812V21.2938Z" fill="#1268B3"/>
<path d="M132.252 25.9605V21.8942H131.362V21.2908H132.252V19.7795H132.849V21.2908H133.736V21.8942H132.849V25.9605H132.252Z" fill="#1268B3"/>
<path d="M135.281 20.7447H134.677V19.7825H135.281V20.7447ZM134.677 21.2938H135.281V25.9634H134.677V21.2938Z" fill="#1268B3"/>
<path d="M139.718 25.9605V19.7795H142.771V20.3889H140.315V22.5518H142.771V23.1641H140.315V25.9605H139.718Z" fill="#1268B3"/>
<path d="M143.833 23.6317C143.821 22.9866 144.065 22.3632 144.511 21.8972C144.723 21.6568 144.984 21.465 145.277 21.3348C145.569 21.2046 145.887 21.1392 146.207 21.143C146.527 21.1387 146.845 21.1993 147.142 21.3211C147.438 21.443 147.707 21.6235 147.932 21.8519C148.164 22.074 148.348 22.3417 148.471 22.6381C148.595 22.9345 148.656 23.2533 148.65 23.5744C148.664 24.2288 148.42 24.8625 147.971 25.3391C147.757 25.5828 147.492 25.7769 147.195 25.9076C146.898 26.0384 146.576 26.1028 146.252 26.0962C145.931 26.1027 145.613 26.0421 145.317 25.9185C145.021 25.7949 144.754 25.6109 144.533 25.3783C144.305 25.1489 144.126 24.876 144.005 24.576C143.885 24.276 143.826 23.9549 143.833 23.6317ZM144.46 23.6317C144.447 24.1257 144.625 24.6058 144.958 24.9711C145.12 25.1528 145.32 25.2971 145.543 25.394C145.767 25.4908 146.009 25.538 146.252 25.5321C146.495 25.538 146.736 25.4899 146.959 25.3914C147.181 25.2928 147.378 25.1461 147.537 24.962C147.861 24.5936 148.035 24.1164 148.023 23.6257C148.04 23.1269 147.86 22.6413 147.522 22.2742C147.352 22.0955 147.146 21.9547 146.918 21.8611C146.69 21.7676 146.444 21.7233 146.198 21.7313C145.958 21.7275 145.72 21.7779 145.502 21.8787C145.284 21.9795 145.092 22.1281 144.94 22.3135C144.622 22.6784 144.451 23.1481 144.46 23.6317Z" fill="#1268B3"/>
<path d="M149.827 21.2937H150.406V21.8246C150.588 21.6172 150.815 21.4534 151.069 21.3454C151.324 21.2373 151.599 21.1877 151.875 21.2001C152.176 21.1747 152.478 21.2298 152.75 21.3596C153.023 21.4895 153.256 21.6895 153.425 21.9392C153.624 22.2409 153.727 22.7748 153.727 23.5229V25.9633H153.124V23.36C153.154 22.959 153.059 22.5585 152.852 22.2137C152.724 22.0627 152.56 21.9449 152.377 21.8704C152.193 21.7958 151.994 21.7666 151.796 21.7854C151.556 21.7665 151.316 21.8157 151.102 21.9272C150.889 22.0387 150.711 22.208 150.59 22.4158C150.424 22.8238 150.355 23.2647 150.388 23.7039V25.9754H149.808L149.827 21.2937Z" fill="#1268B3"/>
<path d="M159.063 22.0328V19.7825H159.667V25.9634H159.063V25.2575C158.854 25.5251 158.585 25.7397 158.277 25.8838C157.969 26.028 157.632 26.0976 157.293 26.0871C156.972 26.0936 156.654 26.0325 156.359 25.9077C156.063 25.783 155.798 25.5974 155.579 25.3631C155.356 25.1327 155.181 24.86 155.065 24.5612C154.948 24.2623 154.892 23.9432 154.9 23.6225C154.891 23.3031 154.946 22.985 155.063 22.6875C155.18 22.3899 155.355 22.119 155.579 21.891C155.8 21.6614 156.067 21.4805 156.362 21.36C156.657 21.2395 156.974 21.182 157.293 21.1912C157.634 21.1779 157.973 21.2475 158.282 21.394C158.59 21.5406 158.858 21.7598 159.063 22.0328ZM159.081 23.6738C159.088 23.1827 158.911 22.7069 158.584 22.3405C158.43 22.1514 158.236 21.9991 158.015 21.8947C157.795 21.7903 157.554 21.7365 157.311 21.7372C157.071 21.733 156.834 21.7791 156.613 21.8727C156.393 21.9662 156.195 22.1051 156.032 22.2802C155.864 22.4538 155.733 22.6589 155.645 22.8836C155.557 23.1083 155.514 23.3481 155.519 23.5894C155.508 24.0886 155.688 24.5731 156.023 24.9438C156.184 25.1302 156.385 25.2785 156.611 25.3781C156.837 25.4777 157.082 25.5261 157.329 25.52C157.565 25.5201 157.799 25.4689 158.013 25.37C158.228 25.271 158.418 25.1266 158.572 24.9468C158.901 24.6016 159.084 24.142 159.081 23.6648" fill="#1268B3"/>
<path d="M161.054 21.2937H161.658V23.7733C161.629 24.2011 161.712 24.629 161.896 25.0161C162.015 25.1906 162.179 25.3295 162.371 25.4182C162.563 25.5069 162.775 25.542 162.985 25.5199C163.309 25.5333 163.629 25.4354 163.89 25.2424C164.135 25.0444 164.298 24.763 164.348 24.452C164.387 24.1662 164.403 23.8777 164.397 23.5893V21.2937H165V25.9633H164.397V25.4716C164.226 25.6801 164.009 25.8457 163.763 25.9552C163.516 26.0647 163.248 26.115 162.979 26.1021C162.253 26.1021 161.74 25.8829 161.44 25.4445C161.16 24.9245 161.033 24.3354 161.075 23.7462L161.054 21.2937Z" fill="#1268B3"/>
</svg>
