<svg width="46" height="46" viewBox="0 0 46 46" fill="none" xmlns="http://www.w3.org/2000/svg">
<path fill-rule="evenodd" clip-rule="evenodd" d="M43.3359 24.9349C42.641 24.0614 41.8289 23.2879 40.9226 22.6363C40.9226 22.6363 40.8533 22.5639 40.808 22.5277C40.8533 22.4915 40.9226 22.4191 40.9226 22.4191C41.8295 21.7682 42.6417 20.9946 43.3359 20.1205C44.1311 19.1772 44.7079 18.0699 45.0252 16.8776C44.8871 16.8464 44.747 16.8252 44.6059 16.8143L44.6662 16.3588C44.4763 16.3292 44.285 16.3101 44.0931 16.3015V15.8611C44.0931 15.8611 43.6798 15.8128 43.4716 15.8128V15.2819C43.0895 15.0826 42.7189 14.8621 42.3615 14.6213L42.4128 14.564C42.3188 14.4485 42.2181 14.3387 42.1112 14.2351C42.1929 13.7572 42.3078 13.2854 42.4551 12.8234L42.078 12.4463C42.2288 12.3015 42.4882 11.9727 42.4882 11.9727L42.1866 11.6711C42.3495 11.484 42.44 11.3694 42.5516 11.2246L42.1866 10.9471C42.278 10.8396 42.3617 10.7256 42.437 10.6062C41.3702 9.98614 40.1793 9.61012 38.9498 9.50517C37.8457 9.37774 36.7294 9.40109 35.6316 9.57456C35.5784 9.57145 35.525 9.57145 35.4717 9.57456C35.4717 9.51724 35.4717 9.41468 35.4717 9.41468C35.6477 8.31714 35.672 7.20063 35.5441 6.09647C35.4392 4.86703 35.0632 3.67611 34.4431 2.60932C34.3231 2.68379 34.2091 2.7675 34.1022 2.85969L33.8247 2.49469C33.6694 2.60825 33.5204 2.73009 33.3782 2.85969L33.0766 2.55804C33.0766 2.55804 32.7478 2.81746 32.603 2.96527L32.2199 2.57313C31.8095 2.70441 31.3914 2.81019 30.968 2.88986V2.81747C30.82 2.79895 30.6706 2.7929 30.5215 2.79937C30.2426 2.40244 29.9907 1.98722 29.7674 1.55654H29.2033C29.2033 1.34839 29.1581 0.932116 29.1581 0.932116H28.7176C28.7082 0.740094 28.6881 0.54874 28.6573 0.358962L28.2048 0.419297C28.1939 0.278176 28.1728 0.138041 28.1415 0C26.95 0.317472 25.8429 0.893159 24.8987 1.68626C24.0257 2.38266 23.2514 3.19451 22.597 4.0995C22.597 4.0995 22.5277 4.1719 22.4915 4.21714C22.4553 4.1719 22.3829 4.0995 22.3829 4.0995C21.7296 3.19459 20.9563 2.38273 20.0843 1.68626C19.1397 0.893735 18.0327 0.318117 16.8415 0C16.8091 0.13796 16.7869 0.278097 16.7751 0.419297L16.3226 0.358962C16.2915 0.548621 16.2724 0.740055 16.2653 0.932116H15.8309C15.8309 0.932116 15.7826 1.34839 15.7857 1.55654H15.2517C15.0296 1.98786 14.7776 2.40315 14.4976 2.79937C14.3485 2.79297 14.1992 2.79902 14.0511 2.81747V2.88986C13.6286 2.81047 13.2115 2.70469 12.8023 2.57313L12.4252 2.9502C12.2774 2.80238 11.9516 2.54296 11.9516 2.54296L11.65 2.84461C11.5068 2.71492 11.3568 2.59308 11.2005 2.47961L10.926 2.84461C10.818 2.75241 10.703 2.66869 10.5821 2.59423C9.96525 3.66136 9.58945 4.85057 9.48105 6.07837C9.35639 7.18269 9.38074 8.29875 9.55345 9.39658C9.55033 9.44983 9.55033 9.50321 9.55345 9.55646C9.50022 9.55279 9.4468 9.55279 9.39357 9.55646C8.296 9.38078 7.17953 9.35641 6.07535 9.48406C4.84609 9.58989 3.65536 9.96586 2.58821 10.5851C2.66456 10.7045 2.74923 10.8185 2.8416 10.926L2.4766 11.2035C2.58998 11.3589 2.71183 11.5079 2.8416 11.65L2.53994 11.9516C2.53994 11.9516 2.79937 12.2774 2.94718 12.4252L2.57011 12.8023C2.71667 13.2647 2.83255 13.7363 2.91701 14.214C2.80848 14.316 2.70765 14.4259 2.61536 14.5428L2.66362 14.6001C2.30746 14.8403 1.93782 15.0599 1.55654 15.2578V15.7917C1.34539 15.7917 0.932117 15.8369 0.932117 15.8369V16.3136C0.739173 16.3223 0.54684 16.3414 0.355954 16.3709L0.419303 16.8264C0.278155 16.837 0.137999 16.8582 0 16.8897C0.316264 18.0817 0.892084 19.189 1.68626 20.1325C2.38192 21.0053 3.19389 21.7787 4.0995 22.4311C4.13642 22.4698 4.17571 22.506 4.21715 22.5397C4.17571 22.5735 4.13642 22.6097 4.0995 22.6483C3.19459 23.3016 2.38273 24.0749 1.68626 24.9469C0.892084 25.8904 0.316264 26.9978 0 28.1897C0.137999 28.2213 0.278155 28.2424 0.419303 28.2531L0.355954 28.7086C0.54684 28.738 0.739173 28.7572 0.932117 28.7659V29.2093C0.932117 29.2093 1.34539 29.2546 1.55654 29.2546V29.7885C1.93904 29.9853 2.30879 30.206 2.66362 30.4491L2.61536 30.5035C2.70691 30.621 2.80779 30.7309 2.91701 30.8323C2.8329 31.31 2.71701 31.7817 2.57011 32.244L2.92305 32.603C2.77524 32.7508 2.51581 33.0766 2.51581 33.0766L2.81747 33.3782C2.6877 33.5202 2.56585 33.6693 2.45246 33.8247L2.81747 34.1022C2.7251 34.2097 2.64043 34.3236 2.56408 34.4431C3.63123 35.0623 4.82196 35.4383 6.05122 35.5441C7.1554 35.6718 8.27187 35.6474 9.36944 35.4717C9.42166 35.4754 9.47407 35.4754 9.5263 35.4717C9.5263 35.529 9.5263 35.6316 9.5263 35.6316C9.35319 36.7294 9.32884 37.8455 9.4539 38.9498C9.56031 40.179 9.93624 41.3696 10.5549 42.437C10.6765 42.3635 10.7916 42.2798 10.8988 42.1866L11.1733 42.5516C11.3296 42.4381 11.4797 42.3163 11.6228 42.1866L11.9245 42.4882C11.9245 42.4882 12.2502 42.2288 12.3981 42.081L12.7751 42.4581C13.1844 42.3265 13.6015 42.2207 14.024 42.1413V42.2168C14.1722 42.2327 14.3215 42.2377 14.4704 42.2318C14.7504 42.6281 15.0024 43.0433 15.2246 43.4747H15.7585C15.7585 43.6828 15.8038 44.0991 15.8038 44.0991H16.2472C16.2543 44.2911 16.2734 44.4826 16.3045 44.6722L16.757 44.6119C16.7688 44.7531 16.791 44.8932 16.8234 45.0312C18.0151 44.7143 19.1223 44.1385 20.0662 43.3449C20.9382 42.6485 21.7115 41.8366 22.3648 40.9317C22.3648 40.9317 22.4372 40.8593 22.4734 40.8141C22.5063 40.8552 22.5416 40.8945 22.579 40.9317C23.233 41.8359 24.0062 42.6477 24.8776 43.3449C25.8225 44.1386 26.9307 44.7143 28.1234 45.0312C28.1547 44.8932 28.1758 44.753 28.1867 44.6119L28.6392 44.6722C28.67 44.4825 28.6901 44.2911 28.6995 44.0991H29.14C29.14 44.0991 29.1882 43.6828 29.1852 43.4747H29.7191C29.9413 43.0433 30.1933 42.6281 30.4733 42.2318C30.6223 42.2377 30.7715 42.2326 30.9197 42.2168V42.1413C31.3432 42.221 31.7612 42.3268 32.1716 42.4581L32.5487 42.081C32.6935 42.2288 33.0223 42.4882 33.0223 42.4882L33.3239 42.1866C33.4653 42.3171 33.6144 42.439 33.7704 42.5516L34.0449 42.1866C34.1527 42.2791 34.2677 42.3628 34.3888 42.437C35.0223 41.3781 35.4147 40.1926 35.5381 38.9649C35.6657 37.8607 35.6414 36.7443 35.4657 35.6467C35.4657 35.6467 35.4657 35.5441 35.4657 35.4868C35.5189 35.4905 35.5723 35.4905 35.6256 35.4868C36.7231 35.6628 37.8396 35.6871 38.9438 35.5592C40.1731 35.4538 41.3639 35.0778 42.4309 34.4582C42.354 34.3365 42.2683 34.2205 42.1745 34.1113L42.5395 33.8337C42.4279 33.6799 42.3374 33.5743 42.1745 33.3873L42.4762 33.0856C42.4762 33.0856 42.2168 32.7598 42.0659 32.612L42.443 32.235C42.2954 31.773 42.1805 31.3013 42.0991 30.8232C42.2068 30.7203 42.3075 30.6105 42.4008 30.4944L42.265 30.3345L42.2409 30.3104L41.903 29.8881C42.3646 29.8489 42.7809 29.8096 43.1097 29.7734C43.0765 29.8036 42.5908 30.0992 42.2469 30.3044L42.2711 30.3285L42.3555 30.4341C42.7115 30.191 43.0822 29.9704 43.4656 29.7734V29.2395C43.6738 29.2395 44.087 29.1943 44.087 29.1943V28.7508C44.2791 28.7438 44.4705 28.7246 44.6602 28.6935L44.5968 28.241C44.7389 28.2279 44.8799 28.2058 45.0191 28.1747C44.7012 26.9827 44.1245 25.8755 43.3299 24.9319L43.3359 24.9349ZM43.8879 16.0421V16.4553C43.8879 16.4553 44.4068 16.5006 44.4279 16.5096L44.3736 16.7479C44.2801 16.7932 42.6119 16.6936 40.6994 16.5669L41.2665 15.8942L43.8879 16.0421ZM43.2424 15.7977C43.2122 15.8219 42.4822 15.7766 41.4324 15.7012L41.7341 15.3543C42.2465 15.3794 42.757 15.4327 43.2635 15.5142L43.2424 15.7977ZM42.2469 14.7449C42.5878 14.9531 43.0765 15.2487 43.1097 15.2789C42.7748 15.2397 42.3585 15.2004 41.903 15.1612L42.2469 14.7449ZM41.8668 14.4433L42.0056 14.5911L37.6255 19.7193C37.1429 20.2833 36.6693 20.8535 36.1776 21.4115C36.2379 21.131 36.2621 20.7238 36.3314 20.3799C36.4008 20.036 36.4642 19.6831 36.4642 19.6831C36.6452 19.4447 40.7356 14.932 42.1956 13.0949C42.1956 13.1612 41.8668 14.4523 41.8668 14.4523V14.4433ZM42.1353 12.8174C42.1594 12.926 37.885 17.8158 36.4038 19.49C35.2504 18.4708 33.9759 17.5975 32.609 16.8897C33.9627 17.3282 35.2355 17.9854 36.3767 18.8354C38.1866 16.9802 41.8065 12.6424 41.9121 12.6303L42.1353 12.8174ZM33.0374 2.83556L33.339 3.11912C33.339 3.11912 33.7372 2.78126 33.7583 2.77221L33.888 2.98035C33.8549 3.0799 32.603 4.18698 31.1731 5.45092L31.1007 4.5731L33.0374 2.83556ZM32.2229 2.90494L32.4069 3.1161C32.4069 3.15532 31.8549 3.63797 31.0675 4.32273L31.0283 3.86722C31.4104 3.52111 31.8134 3.19874 32.235 2.90193L32.2229 2.90494ZM31.9574 2.84159C31.692 3.04974 31.3722 3.31519 31.0193 3.61383L30.974 3.07387C31.3602 2.97734 31.9152 2.84159 31.9574 2.84159ZM30.4823 3.11912H30.6844C30.9197 6.09647 31.1942 9.08588 31.3783 12.0542C31.2244 11.8128 30.9529 11.5082 30.7599 11.2156L30.3587 10.6304C30.3194 10.3287 30.0208 4.25033 29.7553 1.91853C29.8036 1.96679 30.4854 3.11007 30.4854 3.11007L30.4823 3.11912ZM29.2365 1.7858L29.517 1.76468C29.6136 1.82803 30.048 8.3076 30.1927 10.5278C28.6553 10.6229 27.1355 10.9076 25.6679 11.3754C26.9336 10.7252 28.2986 10.2899 29.7071 10.0874C29.6648 7.49916 29.1611 1.87026 29.2335 1.7858H29.2365ZM15.4961 1.76468L15.7796 1.7858C15.849 1.87026 15.3452 7.49916 15.303 10.0874C16.7124 10.2899 18.0784 10.7252 19.3452 11.3754C17.8775 10.908 16.3577 10.6233 14.8204 10.5278C14.9621 8.3076 15.3995 1.82803 15.4931 1.76468H15.4961ZM14.3256 3.11912H14.5247C14.5247 3.11912 15.2095 1.97584 15.2547 1.92758C14.9863 4.25938 14.6876 10.3438 14.6514 10.6394L14.2502 11.2246C14.0572 11.5263 13.7857 11.8279 13.6469 12.0632C13.8309 9.09493 14.1084 6.10552 14.3437 3.12817L14.3256 3.11912ZM14.0421 3.07387L13.9968 3.61383C13.6409 3.31218 13.3211 3.04974 13.0557 2.84159C13.1009 2.84159 13.659 2.97734 14.0421 3.07387ZM12.7781 2.89891C13.199 3.19771 13.6019 3.52104 13.9848 3.86722L13.9486 4.31971C13.1582 3.63495 12.6092 3.1523 12.6062 3.11308L12.7781 2.89891ZM11.2427 2.7692C11.2669 2.7692 11.665 3.1161 11.665 3.1161L11.9667 2.82953L13.9063 4.54897L13.8189 5.43282C12.38 4.16888 11.1281 3.0618 11.104 2.96226L11.2427 2.7692ZM3.07086 12.6122C3.18247 12.6122 6.80536 16.9621 8.60625 18.8173C9.74673 17.9662 11.0197 17.3088 12.3739 16.8716C11.0071 17.5794 9.73256 18.4527 8.5791 19.4719C7.10702 17.8007 2.84763 12.9079 2.84763 12.7993L3.07086 12.6122ZM2.79635 13.0768C4.25637 14.9139 8.34682 19.4266 8.52781 19.6649C8.52781 19.6649 8.5972 20.0511 8.65753 20.3618C8.71786 20.6725 8.75104 21.1129 8.81439 21.3934C8.32269 20.8354 7.84607 20.2652 7.36644 19.7012L2.98639 14.573L3.12214 14.4252C3.12214 14.4252 2.79635 13.1341 2.79333 13.0677L2.79635 13.0768ZM2.74205 14.7389L3.09197 15.1552C2.63044 15.1944 2.21717 15.2336 1.88535 15.2698C1.91552 15.2397 2.4042 14.944 2.74507 14.7389H2.74205ZM3.25789 15.3422L3.56256 15.7102C2.51883 15.7826 1.78882 15.8309 1.75262 15.8068L1.73151 15.5232C2.23691 15.4414 2.7465 15.3881 3.25789 15.3633V15.3422ZM1.09501 16.4644V16.0511L3.70132 15.9003L4.27145 16.576C2.35895 16.6997 0.687775 16.8022 0.597279 16.757L0.539964 16.5187C0.564097 16.5187 1.08294 16.4644 1.08294 16.4644H1.09501ZM2.733 30.3134C2.39213 30.1083 1.90345 29.8127 1.87328 29.7825C2.20812 29.8187 2.62139 29.8579 3.07991 29.8971L2.733 30.3134ZM1.71944 29.5442L1.74056 29.2606C1.7677 29.2365 2.49771 29.2817 3.55049 29.3572L3.24884 29.7041C2.73745 29.6794 2.22786 29.626 1.72246 29.5442H1.71944ZM3.11611 30.6271L2.98036 30.4793L7.36041 25.3512C7.84004 24.7871 8.31666 24.2169 8.80534 23.6589C8.74501 23.9394 8.72087 24.3466 8.65149 24.6905C8.58211 25.0344 8.52178 25.3874 8.52178 25.3874C8.33777 25.6257 4.24732 30.1384 2.79032 31.9785C2.79032 31.9092 3.11912 30.6181 3.11912 30.6181L3.11611 30.6271ZM2.85065 32.2531C2.82953 32.1445 7.10098 27.2516 8.58211 25.5804C9.73557 26.5996 11.0101 27.4729 12.3769 28.1807C11.0227 27.7435 9.74975 27.0861 8.60926 26.235C6.79933 28.0932 3.17945 32.431 3.07388 32.4401L2.85065 32.2531ZM11.9576 42.256L11.656 41.9694C11.656 41.9694 11.2578 42.3073 11.2337 42.3163L11.104 42.1082C11.1402 42.0116 12.389 40.9015 13.8189 39.6376L13.8943 40.5154L11.9576 42.256ZM12.7691 42.1866L12.5851 41.9724C12.5851 41.9332 13.1371 41.4505 13.9275 40.7658L13.9637 41.2183C13.5801 41.5636 13.1772 41.8869 12.757 42.1866H12.7691ZM13.0346 42.2439C13.3 42.0358 13.6198 41.7703 13.9757 41.4717L14.021 42.0116C13.6318 42.1082 13.0798 42.2439 13.0346 42.2439ZM14.5097 41.9664H14.3106C14.0753 38.989 13.7977 35.9996 13.6137 33.0313C13.7676 33.2696 14.0391 33.5773 14.217 33.8699L14.6182 34.4552C14.6575 34.7568 14.9561 40.8352 15.2216 43.167C15.1763 43.1187 14.4916 41.9754 14.4916 41.9754L14.5097 41.9664ZM15.7404 43.2997L15.4599 43.3208C15.3664 43.2575 14.929 36.7779 14.7872 34.5577C16.3246 34.4622 17.8443 34.1775 19.312 33.7101C18.0449 34.36 16.6791 34.7962 15.2698 35.0011C15.3121 37.5863 15.8158 43.2152 15.7434 43.2997H15.7404ZM29.4808 43.3208L29.2003 43.2997C29.1279 43.2152 29.6317 37.5863 29.6739 35.0011C28.2656 34.7962 26.9008 34.36 25.6347 33.7101C27.1023 34.1779 28.6221 34.4626 30.1596 34.5577C30.0148 36.7779 29.5804 43.2575 29.4839 43.3208H29.4808ZM30.6543 41.9664H30.4522C30.4522 41.9664 29.7704 43.1097 29.7222 43.1579C29.9906 40.8261 30.2893 34.7417 30.3255 34.4461L30.7267 33.8609C30.9197 33.5592 31.1912 33.2576 31.3451 33.0223C31.1611 35.9906 30.8835 38.98 30.6513 41.9573L30.6543 41.9664ZM30.9529 42.0116L30.9982 41.4717C31.3511 41.7733 31.6709 42.0358 31.9363 42.2439C31.8941 42.2439 31.333 42.1082 30.9529 42.0116ZM32.2138 42.1866C31.7937 41.8869 31.3908 41.5636 31.0072 41.2183L31.0464 40.7658C31.8338 41.4505 32.3828 41.9332 32.3858 41.9724L32.2138 42.1866ZM33.7493 42.3163C33.7282 42.3163 33.33 41.9694 33.33 41.9694L33.0283 42.256L31.0796 40.5154L31.152 39.6376C32.5939 40.8985 33.8458 42.0116 33.8669 42.1082L33.7493 42.3163ZM41.9121 32.4582C41.8035 32.4582 38.1776 28.1083 36.3797 26.2531C35.2378 27.1037 33.964 27.761 32.609 28.1988C33.9773 27.4919 35.2529 26.6185 36.4069 25.5985C37.8759 27.2697 42.1383 32.1626 42.1383 32.2712L41.9121 32.4582ZM41.9935 30.4884L41.8578 30.6362C41.8578 30.6362 42.1836 31.9273 42.1866 31.9966C40.7266 30.1565 36.6361 25.6438 36.4551 25.4055C36.4551 25.4055 36.3857 25.0224 36.3224 24.7086C36.259 24.3949 36.2289 23.9575 36.1685 23.68C38.1384 25.9062 40.0569 28.2048 41.9935 30.4884ZM41.7251 29.7131L41.4234 29.3662C42.4641 29.2938 43.1941 29.2456 43.2333 29.2697L43.2545 29.5532C42.748 29.6347 42.2374 29.688 41.7251 29.7131ZM40.7024 28.5065C42.6149 28.3828 44.2831 28.2833 44.3766 28.3255L44.4309 28.5668C44.4098 28.5668 43.8909 28.6181 43.8909 28.6181V29.0314L41.2816 29.1822L35.9996 22.9289L33.6105 24.22L33.517 24.1325L33.3028 24.3286L33.342 24.3678L33.1369 24.4764L32.3828 25.1581C33.5894 24.5005 34.8262 23.8278 35.9182 23.3059C35.9524 23.4512 35.9441 23.6031 35.8944 23.7438C35.8446 23.8845 35.7555 24.0079 35.6376 24.0993C34.4642 24.766 33.2787 25.327 32.1414 25.9545C31.9635 26.051 31.5713 26.2561 31.1309 26.5035V26.7116C32.8292 25.8941 34.8352 24.9288 36.0962 24.1174C36.1395 24.2233 36.1405 24.3419 36.099 24.4485C36.0574 24.5552 35.9765 24.6418 35.8729 24.6905C34.5474 25.6174 33.1326 26.4096 31.6497 27.0555L31.1399 27.2818V27.5321C32.6341 27.0083 34.0537 26.2924 35.3631 25.4025L36.1414 24.8565L36.2379 25.499C36.1686 25.5623 35.882 25.8187 35.8066 25.8821C34.4688 27.093 32.8761 27.9879 31.146 28.5005V28.7297C31.5527 28.6807 31.9558 28.6051 32.3526 28.5035C32.5004 28.4673 32.6543 28.422 32.79 28.3828C33.9317 28.0334 35.0183 27.5246 36.0177 26.8715C36.1565 26.772 36.2952 26.6965 36.431 26.5849L42.2107 33.0645L41.9272 33.3662C41.9272 33.3662 42.265 33.7644 42.2741 33.7855L42.0659 33.9182C41.8819 33.8518 38.1233 29.4899 36.4883 27.6438C36.2259 27.7674 35.9604 27.8459 35.698 27.9454C34.2229 28.7388 32.5004 28.9137 31.1731 28.8956V29.1792C33.0003 29.2508 34.8152 28.8509 36.4431 28.0178C38.6482 30.3949 40.1745 32.1475 42.1413 34.3767C41.2786 34.9076 40.0298 35.2002 38.7447 35.3722C38.1813 35.4257 37.6152 35.4459 37.0494 35.4325C36.4913 35.4325 35.8247 35.3933 35.4747 35.1791C35.168 34.9619 34.884 34.7143 34.6271 34.4401C33.8005 33.6135 32.9619 32.8081 32.1294 32.0087L31.2093 31.1037V31.4054L31.9695 32.1626C32.7689 32.9951 33.5743 33.8367 34.4039 34.6633C34.6766 34.9217 34.9241 35.2056 35.1429 35.5109C35.3571 35.8639 35.3963 36.5305 35.3963 37.0856C35.4104 37.6515 35.3892 38.2177 35.333 38.7809C35.164 40.078 34.8684 41.3178 34.3405 42.1775C33.2123 41.1821 32.2048 40.3012 31.1792 39.3872L31.7825 32.3496L29.1792 31.5743C29.1792 31.5321 29.1792 31.4899 29.1792 31.4476H28.8926V31.5019L28.6694 31.4356L27.6528 31.3843C28.971 31.7704 30.3225 32.1716 31.4627 32.5728C31.3822 32.694 31.2687 32.7896 31.1356 32.8484C31.0025 32.9071 30.8554 32.9267 30.7116 32.9046C29.4115 32.5487 28.1747 32.1083 26.9258 31.7463C26.7328 31.689 26.3074 31.5592 25.8248 31.4205L25.68 31.5713C27.4597 32.1927 29.5562 32.9288 31.0253 33.2455C30.8292 33.5472 30.7237 33.5321 30.4612 33.4929C28.8699 33.2113 27.3107 32.7717 25.8067 32.1807L25.2818 31.9997L25.1098 32.1776C26.5374 32.8683 28.0496 33.3683 29.6075 33.6648L30.5427 33.8307L30.1596 34.3526L29.5834 34.3194C27.7815 34.2285 26.023 33.7348 24.4371 32.8745L24.2773 33.0404C24.6 33.293 24.9385 33.5248 25.2908 33.7342L25.686 33.9574C26.7296 34.5142 27.8468 34.9204 29.0042 35.164C29.1731 35.1912 29.324 35.2364 29.4989 35.2545L29.0042 43.9241H28.591C28.591 43.9241 28.5457 44.443 28.5367 44.4671L28.2983 44.4098C28.2139 44.2348 28.6392 38.4913 28.79 36.0298C28.5155 35.9333 28.2742 35.8035 28.0118 35.6919C26.407 35.2093 25.0676 34.1143 24.1415 33.1671L23.9455 33.3722C25.1904 34.7107 26.7591 35.706 28.5005 36.2621C28.3768 39.5019 28.2199 41.8186 28.0329 44.7899C27.0495 44.5546 25.9665 43.8849 24.9258 43.0885C24.4896 42.7289 24.0755 42.3431 23.686 41.9332C23.2909 41.541 22.8474 41.0282 22.7509 40.6421C22.689 40.2714 22.6638 39.8956 22.6755 39.5199C22.6755 38.3525 22.6513 37.1881 22.6272 36.0358V34.7447L22.413 34.9649V36.0388C22.3919 37.1942 22.3648 38.3586 22.3648 39.529C22.378 39.9036 22.3527 40.2787 22.2894 40.6481C22.1928 41.0494 21.7494 41.5531 21.3542 41.9422C20.9655 42.3528 20.5514 42.7387 20.1144 43.0976C19.0767 43.894 18.0028 44.5606 17.0074 44.7959C16.8234 41.8276 16.6635 39.5109 16.5428 36.2711C18.2082 35.738 19.718 34.806 20.941 33.5562L20.7419 33.339C19.8369 34.244 18.5458 35.2515 17.0285 35.707C16.766 35.8186 16.5247 35.9483 16.2502 36.0449C16.401 38.5064 16.8264 44.2499 16.7419 44.4249L16.5036 44.4822C16.5036 44.4581 16.4523 43.9392 16.4523 43.9392H16.036L15.5413 35.2696C15.7163 35.2515 15.8701 35.2063 16.039 35.1791C17.1964 34.9352 18.3135 34.5289 19.3573 33.9725C19.49 33.8971 19.6227 33.8277 19.7524 33.7493C20.0438 33.5763 20.3257 33.388 20.5971 33.1852L20.4221 32.9951C18.881 33.7865 17.1899 34.243 15.4599 34.3345L14.8867 34.3677L14.4704 33.8096L15.4056 33.6437C16.904 33.3606 18.3599 32.8862 19.7374 32.2319L19.5654 32.0419L19.2095 32.1776C17.705 32.7749 16.1448 33.2205 14.5519 33.5079C14.2864 33.5472 14.1839 33.5502 13.9908 33.2606C15.7493 32.8135 17.4823 32.2718 19.1823 31.6377L19.0405 31.4778L18.0873 31.7614C16.8384 32.1233 15.6047 32.5638 14.3045 32.9197C14.1563 32.9398 14.0055 32.9162 13.8705 32.852C13.7355 32.7877 13.6222 32.6854 13.5444 32.5577C14.8747 32.0902 16.4915 31.6226 18.0089 31.1792L17.1039 31.1942L16.1205 31.4959C16.1205 31.4024 16.1205 31.3089 16.1205 31.2184H15.84C15.84 31.339 15.84 31.4567 15.84 31.5773L13.2155 32.3436L13.8189 39.3812C12.7932 40.2862 11.7887 41.176 10.6575 42.1715C10.1296 41.3118 9.837 40.0599 9.66506 38.7749C9.60845 38.2116 9.58829 37.6454 9.60473 37.0796C9.60473 36.5245 9.64093 35.8729 9.85812 35.5049C10.0753 35.1982 10.3229 34.9142 10.5972 34.6573C11.4237 33.8337 12.2291 32.9921 13.0285 32.1626L13.9335 31.2425H13.6318L12.8686 31.9997C12.0391 32.7991 11.1945 33.6075 10.3679 34.434C10.112 34.7082 9.82898 34.9558 9.52328 35.1731C9.17034 35.3873 8.50368 35.4295 7.94562 35.4265C7.38083 35.4399 6.81573 35.4197 6.25333 35.3661C4.95621 35.1942 3.7164 34.8986 2.85367 34.3707C4.82046 32.1414 6.34986 30.3888 8.55496 28.0118C10.1101 28.8125 11.8375 29.2205 13.5866 29.2003V28.8986C12.1013 28.9335 10.6293 28.6118 9.29402 27.9605C9.03158 27.8519 8.76914 27.7735 8.5067 27.6588C6.88077 29.4959 3.11912 33.8579 2.93511 33.9212L2.72697 33.7915C2.72697 33.7704 3.07388 33.3722 3.07388 33.3722L2.77222 33.0705L8.55195 26.591C8.69071 26.6996 8.82947 26.778 8.96823 26.8775C9.96003 27.5195 11.0375 28.0181 12.1688 28.3587C12.3136 28.4009 12.4705 28.4462 12.6032 28.4824C12.9314 28.5655 13.2637 28.632 13.5987 28.6814V28.422C11.9498 27.8915 10.4315 27.0187 9.14319 25.861L8.71183 25.4779L8.81137 24.8353C9.31815 25.1943 9.43278 25.2697 9.58663 25.3813C10.847 26.2394 12.2114 26.9337 13.6469 27.4477V27.1882L13.297 27.0344C11.8141 26.3885 10.3994 25.5962 9.07381 24.6694C8.97022 24.6207 8.8893 24.5341 8.84775 24.4274C8.80621 24.3208 8.80722 24.2022 8.85059 24.0963C10.4135 25.0229 12.0246 25.8657 13.6771 26.6211V26.407C13.294 26.1958 12.9652 26.0178 12.8053 25.9334C11.7073 25.3059 10.5308 24.7599 9.36039 24.0782C9.24137 23.9876 9.15122 23.8644 9.10089 23.7236C9.05055 23.5827 9.04219 23.4303 9.07683 23.2848C10.3498 23.8881 11.8249 24.7056 13.2125 25.4658L12.561 24.8353L11.656 24.3467C11.7224 24.2773 11.7857 24.2139 11.8521 24.1506L11.65 23.9545C11.5625 24.0359 11.472 24.1144 11.3845 24.1988L8.99236 22.9077L3.71339 29.1611L1.10708 29.0103V28.597C1.10708 28.597 0.58823 28.5517 0.564098 28.5427L0.621412 28.3044C0.711909 28.2591 2.38308 28.3617 4.29558 28.4854L4.45244 28.3014C3.07991 28.2199 1.73754 28.1355 0.229259 28.0389C0.464551 27.0555 1.13423 25.9726 1.9306 24.9349C2.28824 24.4968 2.67311 24.0817 3.08292 23.6921C3.47508 23.2969 3.98789 22.8565 4.37703 22.7599C4.74742 22.6955 5.12344 22.6692 5.49919 22.6815C6.6666 22.6815 7.83099 22.6574 8.98332 22.6363H10.2835L10.0602 22.4191H8.99236C7.83702 22.398 6.67263 22.3738 5.50221 22.3738C5.12645 22.3861 4.75043 22.3598 4.38004 22.2954C3.97884 22.1989 3.47508 21.7584 3.08594 21.3633C2.67613 20.9736 2.29126 20.5585 1.93361 20.1205C1.13423 19.0828 0.467567 18.0089 0.232275 17.0164C1.74056 16.9229 3.07086 16.8354 4.45546 16.754L8.99236 22.1476L11.3815 20.8565L11.478 20.944L11.6922 20.7509L11.653 20.7117L11.8581 20.6001L12.6122 19.9334C11.4056 20.591 10.1658 21.2637 9.07381 21.7856C9.03902 21.6406 9.04732 21.4885 9.09769 21.3481C9.14806 21.2077 9.23831 21.0851 9.35737 20.9953C10.5278 20.3256 11.7133 19.7645 12.8536 19.137C13.0315 19.0405 13.4237 18.8354 13.8611 18.588V18.3799C12.1617 19.157 10.5043 20.023 8.89583 20.9741C8.85247 20.8682 8.85146 20.7497 8.893 20.643C8.93454 20.5363 9.01547 20.4497 9.11906 20.401C10.4446 19.4742 11.8594 18.6819 13.3422 18.036L13.8551 17.8098V17.5594C12.361 18.0832 10.9413 18.7991 9.63188 19.6891C9.47803 19.8007 9.3634 19.8761 8.85662 20.2351L8.75707 19.5926L9.18844 19.2095C10.5169 17.9982 12.0988 17.0986 13.8189 16.576V16.3467C13.4124 16.3973 13.0094 16.4729 12.6122 16.573C12.4674 16.6092 12.3106 16.6544 12.1779 16.6967C11.0511 17.038 9.97854 17.5377 8.99236 18.1808C8.8536 18.2773 8.71484 18.3558 8.57608 18.4644L2.7873 11.9848L3.08896 11.6831C3.08896 11.6831 2.7511 11.285 2.74205 11.2638L2.9502 11.1341C3.13421 11.1975 6.89284 15.5594 8.52781 17.4055C8.79026 17.2819 9.0527 17.2034 9.31815 17.1039C10.7933 16.3105 12.5127 16.1386 13.843 16.1537V15.8701C12.0165 15.8042 10.2037 16.2093 8.5791 17.0466C6.37399 14.6695 4.84761 12.9169 2.8778 10.6877C3.74053 10.1598 4.98939 9.86414 6.27746 9.6922C6.83987 9.63861 7.40496 9.61847 7.96975 9.63187C8.52781 9.63187 9.19447 9.67109 9.54741 9.88526C9.85311 10.1026 10.1361 10.3502 10.392 10.6243C11.2186 11.4509 12.0602 12.2563 12.8898 13.0557L13.7947 13.9757V13.6741L13.0376 12.9169C12.2352 12.0843 11.4297 11.2427 10.6032 10.4132C10.3283 10.1579 10.0807 9.87485 9.86415 9.56853C9.64997 9.21559 9.60774 8.54893 9.61076 7.99388C9.59736 7.42809 9.6175 6.86198 9.67109 6.29857C9.84303 5.00145 10.1356 3.76467 10.6635 2.90193C11.7947 3.89739 12.7993 4.77822 13.8279 5.69526L13.2246 12.7299L15.8279 13.5051C15.8279 13.5474 15.8279 13.5896 15.8279 13.6348H16.1295V13.5806L16.3498 13.6469L17.3663 13.6982C16.0481 13.3121 14.6967 12.9109 13.5564 12.5097C13.6342 12.382 13.7476 12.2797 13.8826 12.2154C14.0176 12.1511 14.1684 12.1276 14.3166 12.1477C15.6167 12.5036 16.8505 12.9441 18.0994 13.306C18.2954 13.3634 18.7208 13.4931 19.2004 13.6318L19.3482 13.484C17.5684 12.8596 15.4689 12.1236 14.0029 11.8068C14.1959 11.5052 14.3045 11.5052 14.564 11.5595C16.1562 11.841 17.7164 12.2806 19.2215 12.8717L19.7434 13.0708L19.9183 12.8928C18.4895 12.2026 16.9764 11.7026 15.4176 11.4056L14.4825 11.2397L14.8686 10.7178L15.4418 10.751C17.2447 10.8414 19.0043 11.3352 20.591 12.196L20.7479 12.03C20.4257 11.7767 20.0871 11.5449 19.7343 11.3362L19.3422 11.113C18.2982 10.5572 17.1812 10.151 16.024 9.90638C15.855 9.87923 15.7012 9.83398 15.5262 9.81588L16.024 1.14629H16.4372C16.4372 1.14629 16.4795 0.627445 16.4885 0.603312L16.7298 0.660618C16.8113 0.835579 16.386 6.57912 16.2351 9.04063C16.5096 9.13716 16.751 9.26687 17.0134 9.37848C18.6182 9.86113 19.9606 10.9561 20.8836 11.9033L21.0827 11.6982C19.8432 10.348 18.2764 9.34023 16.5338 8.77215C16.6544 5.53237 16.8143 3.21565 17.0013 0.247351C17.9847 0.482643 19.0677 1.15232 20.1054 1.94568C20.5423 2.30459 20.9564 2.69046 21.3452 3.10102C21.7434 3.49318 22.1838 4.00598 22.2803 4.39512C22.3436 4.76461 22.3689 5.13963 22.3557 5.51427C22.3557 6.68168 22.3829 7.84607 22.404 8.99839V10.3016L22.6182 10.0783V9.00442C22.6423 7.84908 22.6664 6.6847 22.6664 5.51427C22.6548 5.13965 22.68 4.76479 22.7418 4.39512C22.8384 3.99392 23.2818 3.49016 23.677 3.10102C24.0675 2.69111 24.4825 2.30528 24.9198 1.94568C25.9575 1.1493 27.0314 0.482643 28.0238 0.247351C28.2109 3.21565 28.3707 5.53237 28.4914 8.77215C26.8257 9.30456 25.3157 10.2367 24.0933 11.4871L24.2893 11.7042C25.1943 10.7993 26.4884 9.79175 28.0027 9.33625C28.2652 9.22464 28.5065 9.09492 28.781 8.99839C28.6302 6.53688 28.2048 0.793352 28.2893 0.618391L28.5276 0.561076C28.5276 0.585208 28.5819 1.10405 28.5819 1.10405H28.9952L29.4899 9.77365C29.3149 9.79175 29.1641 9.837 28.9952 9.86415C27.8378 10.1082 26.7207 10.5144 25.677 11.0708L25.2818 11.294C24.991 11.4663 24.71 11.6546 24.4402 11.8581L24.6121 12.0481C26.1532 11.2567 27.8443 10.8003 29.5744 10.7088L30.1505 10.6756L30.5336 11.1975L29.5985 11.3634C28.1002 11.6471 26.6444 12.1215 25.2667 12.7751L25.4417 12.9652L25.7976 12.8294C27.3016 12.2384 28.8609 11.7988 30.4522 11.5172C30.7176 11.478 30.8232 11.475 31.0163 11.7646C29.2568 12.2116 27.5228 12.7534 25.8218 13.3875L25.9665 13.5474L26.9168 13.2638C28.1686 12.9018 29.4024 12.4614 30.7025 12.1054C30.8507 12.0854 31.0015 12.1089 31.1366 12.1732C31.2716 12.2375 31.3849 12.3397 31.4627 12.4674C30.1294 12.935 28.5125 13.4026 26.9952 13.849L27.9002 13.8339L29.1671 13.4539L28.8866 13.5383C28.8866 13.6318 28.8866 13.7253 28.8866 13.8158H29.1671C29.1671 13.6952 29.1671 13.5775 29.1671 13.4569L31.7704 12.6816L31.1671 5.647C32.1927 4.74203 33.2003 3.83706 34.3285 2.85366C34.8563 3.7164 35.152 4.96526 35.3209 6.25031C35.3772 6.81355 35.3983 7.37975 35.3842 7.94562C35.3842 8.50067 35.345 9.16733 35.1309 9.52026C34.9128 9.82626 34.6652 10.1102 34.3918 10.3679C33.5653 11.1914 32.7598 12.0331 31.9604 12.8656L31.0404 13.7857H31.3421L32.0992 13.0255C32.9318 12.2261 33.7734 11.4177 34.5999 10.5911C34.8569 10.3169 35.1409 10.0693 35.4476 9.85208C35.7975 9.6379 36.4642 9.59567 37.0222 9.59869C37.588 9.58529 38.1541 9.60543 38.7175 9.65902C40.0147 9.83097 41.2515 10.1266 42.1142 10.6545C40.1474 12.8837 38.621 14.6363 36.4159 17.0134C34.8605 16.2136 33.1331 15.8066 31.3843 15.8279L31.3692 16.1295C32.6603 16.1295 34.2711 16.3316 35.6678 17.0828C35.9302 17.1884 36.1957 17.2668 36.4581 17.3844C38.0931 15.5383 41.8517 11.1764 42.0358 11.113L42.2439 11.2427C42.2439 11.2638 41.897 11.662 41.897 11.662L42.1806 11.9637L36.4431 18.4644C36.3073 18.3558 36.1686 18.2773 36.0298 18.1778C35.0361 17.5353 33.9566 17.0367 32.8232 16.6967C32.6784 16.6544 32.5215 16.6092 32.3888 16.573C32.069 16.4915 31.7342 16.4252 31.3933 16.3739L31.3783 16.6333C33.0293 17.1631 34.5496 18.0359 35.8397 19.1944C35.9152 19.2577 36.2017 19.5141 36.2711 19.5775L36.1746 20.22L35.3963 19.674C34.1299 18.8141 32.7582 18.1206 31.3149 17.6107V17.8671L31.6618 18.0209C33.1447 18.6668 34.5594 19.4591 35.885 20.3859C35.9886 20.4346 36.0695 20.5212 36.1111 20.6279C36.1526 20.7346 36.1516 20.8531 36.1082 20.9591C34.5457 20.0318 32.9345 19.189 31.2817 18.4342V18.6514L32.1535 19.125C33.2938 19.7494 34.4763 20.3105 35.6497 20.9802C35.7679 21.0706 35.8574 21.1935 35.9072 21.3337C35.9569 21.474 35.965 21.6258 35.9302 21.7705C34.6573 21.1672 33.1852 20.3497 31.7976 19.5926L32.4491 20.223L33.3541 20.7117L33.158 20.9048L33.3571 21.1008C33.4476 21.0194 33.5381 20.941 33.6226 20.8565L36.0117 22.1476L40.5697 16.754C41.9422 16.8354 43.2846 16.9229 44.7778 17.0164C44.5425 17.9998 43.8728 19.0828 43.0795 20.1205C42.7199 20.5577 42.3341 20.9728 41.9241 21.3633C41.532 21.7584 41.0192 22.1989 40.63 22.2984C40.2604 22.3602 39.8855 22.3855 39.5109 22.3738C38.3405 22.3738 37.1791 22.398 36.0238 22.4191H34.7236L34.9468 22.6363H36.0207C37.1731 22.6574 38.3405 22.6815 39.5109 22.6815C39.8857 22.6692 40.2607 22.6955 40.63 22.7599C41.0312 22.8565 41.535 23.2969 41.9241 23.6951C42.3347 24.0839 42.7206 24.4979 43.0795 24.9349C43.8759 25.9726 44.5425 27.0465 44.7778 28.0389C43.2695 28.1355 41.9422 28.2199 40.5697 28.3014L40.7024 28.5065Z" fill="#1268B3"/>
<path d="M36.1415 22.7538L32.0178 18.772L32.3195 13.0405L26.588 13.1401L22.7449 8.88672L18.7419 13.0134L13.0105 12.7268L13.107 18.4583L8.86572 22.3014L12.9863 26.2832L12.6847 32.0147L18.4162 31.9151L22.2653 36.1624L26.2471 32.0418L31.9786 32.3284L31.8791 26.5969L36.1415 22.7538ZM25.9455 31.2424L22.2924 35.0162L18.7721 31.1218L13.5203 31.2123L13.7857 25.9665L10.009 22.3164L13.9064 18.7961L13.8159 13.5473L19.0587 13.8097L22.7087 10.036L26.229 13.9304L31.4779 13.8399L31.2124 19.0827L34.9891 22.7327L31.0948 26.2681L31.1852 31.5169L25.9455 31.2424Z" fill="#1268B3"/>
<path d="M15.9814 16.6637L22.2891 15.0619C22.3801 15.0343 22.4745 15.0191 22.5696 15.0166C22.7047 15.0122 22.8393 15.0358 22.9648 15.086L29.2392 16.5611L22.7898 18.6486C22.6118 18.6656 22.4321 18.6461 22.2619 18.5913L15.9814 16.6637Z" fill="#1268B3"/>
<path d="M19.1096 17.9515L21.8969 19.1309C22.0864 19.1895 22.2838 19.218 22.4821 19.2154C22.6652 19.2128 22.847 19.1844 23.0221 19.1309L26.0869 17.9243L26.1141 19.6679C25.7846 20.0159 25.4017 20.3092 24.9798 20.5367C24.2188 20.9264 23.3695 21.1114 22.5153 21.0736C21.5271 21.0914 20.5584 20.798 19.7461 20.235C19.527 20.0739 19.3249 19.891 19.1428 19.689C19.1428 19.1128 19.1247 18.5367 19.1126 17.9575" fill="#1268B3"/>
<path d="M18.7752 20.6211C19.21 21.0002 19.6797 21.3376 20.1779 21.6286C20.8475 22.0178 21.2457 22.1264 21.7947 22.5638C22.1212 22.8258 22.4113 23.1302 22.6575 23.4687C22.8412 23.1149 23.0947 22.802 23.4026 22.5487C23.9365 22.1083 24.3799 22.0751 25.0345 21.7372C25.5626 21.4648 26.0376 21.1001 26.4372 20.6603C26.6048 21.0155 26.6565 21.4144 26.585 21.8006C26.3678 22.8895 25.1884 23.3088 25.122 23.3269C24.5408 23.5807 24.025 23.9634 23.6137 24.4461C23.2045 24.9254 22.915 25.4951 22.7691 26.1082C22.7591 26.136 22.7412 26.1602 22.7176 26.1779C22.694 26.1956 22.6658 26.206 22.6363 26.2078C22.6009 26.208 22.5666 26.1953 22.5399 26.1719C22.5132 26.1486 22.496 26.1163 22.4916 26.0811C22.4015 25.5015 22.1483 24.9595 21.7615 24.5185C21.294 24.0057 20.932 24.0057 19.834 23.1701C19.0647 22.5849 18.929 22.3345 18.8415 22.1776C18.6348 21.687 18.6144 21.1378 18.7842 20.6332" fill="#1268B3"/>
<path d="M15.0554 20.5366C15.2455 20.8383 15.529 21.2938 15.8578 21.8549C16.434 22.8443 16.7175 23.4325 16.8925 23.7432C17.2997 24.4642 18.078 25.4144 19.7251 26.3254C19.7559 26.0941 19.7247 25.8589 19.6346 25.6437C19.526 25.4124 19.3611 25.2122 19.1549 25.0615C18.615 24.5969 18.3797 24.5064 18.1625 24.3103C17.9 24.075 17.6165 23.6437 17.5773 22.8021C17.8548 22.9619 18.259 23.2002 18.7477 23.4959C20.0177 24.2741 20.6511 24.6633 20.9799 25.0041C21.645 25.7196 22.0773 26.62 22.2197 27.5863C22.3545 28.4082 22.2893 29.2504 22.0297 30.0418C21.2669 29.7703 20.5365 29.4152 19.8518 28.983C18.3383 28.0236 17.0929 26.6962 16.2319 25.1248C15.4726 23.7138 15.0687 22.1389 15.0554 20.5366Z" fill="#1268B3"/>
<path d="M30.0177 20.5366C29.8277 20.8383 29.5441 21.2938 29.2153 21.8549C28.6392 22.8443 28.3526 23.4325 28.1776 23.7432C27.7734 24.4642 26.9951 25.4144 25.3481 26.3254C25.316 26.0944 25.3462 25.8591 25.4356 25.6437C25.5464 25.413 25.7121 25.2131 25.9182 25.0615C26.4552 24.5969 26.6905 24.5064 26.9107 24.3103C27.1309 24.1143 27.4537 23.6437 27.4929 22.8021C27.2184 22.9619 26.8111 23.2002 26.3255 23.4959C25.0555 24.2741 24.422 24.6633 24.0932 25.0041C23.4282 25.7196 22.9959 26.62 22.8534 27.5863C22.7155 28.4081 22.7807 29.2511 23.0434 30.0418C23.8097 29.7691 24.5432 29.4119 25.2304 28.977C26.7441 28.0179 27.9896 26.6904 28.8503 25.1188C29.6041 23.7082 30.0046 22.1359 30.0177 20.5366Z" fill="#1268B3"/>
</svg>
