<svg width="38" height="38" viewBox="0 0 38 38" fill="none" xmlns="http://www.w3.org/2000/svg">
<path d="M30.5992 9.14803L29.7678 9.7036L29.7678 9.70361L30.5992 9.14803ZM30.5992 25.6853L31.4307 26.2408L30.5992 25.6853ZM28.8519 27.4326L28.2963 26.6011V26.6012L28.8519 27.4326ZM22.1666 28.4978L22.1622 27.4978C21.6116 27.5002 21.1666 27.9472 21.1666 28.4978H22.1666ZM22.1666 28.5L23.061 28.9472C23.1304 28.8083 23.1666 28.6552 23.1666 28.5H22.1666ZM18.1055 33.0445L18.9999 32.5972V32.5972L18.1055 33.0445ZM15.8333 28.5H14.8333C14.8333 28.6552 14.8694 28.8083 14.9388 28.9472L15.8333 28.5ZM15.8333 28.4978H16.8333C16.8333 27.9472 16.3882 27.5002 15.8376 27.4978L15.8333 28.4978ZM9.14797 27.4326L9.70354 26.6012L9.70354 26.6011L9.14797 27.4326ZM7.40061 25.6853L6.56914 26.2408H6.56914L7.40061 25.6853ZM7.40061 9.14803L6.56914 8.59246L6.56914 8.59246L7.40061 9.14803ZM9.14797 7.40067L8.5924 6.5692L8.5924 6.5692L9.14797 7.40067ZM28.8519 7.40067L28.2963 8.23214V8.23214L28.8519 7.40067ZM32.6666 17.4166C32.6666 15.2137 32.6678 13.4863 32.528 12.1124C32.3866 10.7218 32.0925 9.58287 31.4307 8.59246L29.7678 9.70361C30.1733 10.3106 30.4129 11.0823 30.5383 12.3148C30.6654 13.564 30.6666 15.1721 30.6666 17.4166H32.6666ZM31.4307 26.2408C32.0925 25.2504 32.3866 24.1115 32.528 22.7209C32.6678 21.347 32.6666 19.6196 32.6666 17.4166H30.6666C30.6666 19.6612 30.6654 21.2693 30.5383 22.5185C30.4129 23.751 30.1733 24.5227 29.7678 25.1297L31.4307 26.2408ZM29.4074 28.2641C30.2082 27.7291 30.8957 27.0416 31.4307 26.2408L29.7678 25.1297C29.3786 25.712 28.8786 26.212 28.2963 26.6011L29.4074 28.2641ZM22.1709 29.4978C23.8744 29.4904 25.2595 29.4581 26.404 29.2999C27.5646 29.1394 28.5424 28.8421 29.4074 28.2641L28.2963 26.6012C27.7659 26.9556 27.1092 27.1834 26.1301 27.3187C25.135 27.4563 23.8752 27.4904 22.1622 27.4978L22.1709 29.4978ZM23.1666 28.5V28.4978H21.1666V28.5H23.1666ZM20.7888 33.4917L23.061 28.9472L21.2722 28.0528L18.9999 32.5972L20.7888 33.4917ZM17.2111 33.4917C17.9481 34.9658 20.0517 34.9658 20.7888 33.4917L18.9999 32.5972L18.9999 32.5972L17.2111 33.4917ZM14.9388 28.9472L17.2111 33.4917L18.9999 32.5972L16.7277 28.0528L14.9388 28.9472ZM14.8333 28.4978V28.5H16.8333V28.4978H14.8333ZM8.5924 28.2641C9.45746 28.8421 10.4353 29.1394 11.5959 29.2999C12.7404 29.4581 14.1255 29.4904 15.8289 29.4978L15.8376 27.4978C14.1247 27.4904 12.8649 27.4563 11.8697 27.3187C10.8906 27.1834 10.234 26.9556 9.70354 26.6012L8.5924 28.2641ZM6.56914 26.2408C7.10417 27.0416 7.79168 27.7291 8.5924 28.2641L9.70354 26.6011C9.1212 26.212 8.62119 25.712 8.23208 25.1297L6.56914 26.2408ZM5.33325 17.4166C5.33325 19.6196 5.33204 21.347 5.47181 22.7209C5.61327 24.1115 5.90737 25.2504 6.56914 26.2408L8.23208 25.1297C7.82649 24.5227 7.58691 23.751 7.46154 22.5185C7.33446 21.2693 7.33325 19.6612 7.33325 17.4166H5.33325ZM6.56914 8.59246C5.90737 9.58287 5.61327 10.7218 5.47181 12.1124C5.33204 13.4863 5.33325 15.2137 5.33325 17.4166H7.33325C7.33325 15.1721 7.33446 13.564 7.46154 12.3148C7.58691 11.0823 7.82649 10.3106 8.23208 9.7036L6.56914 8.59246ZM8.5924 6.5692C7.79168 7.10423 7.10417 7.79174 6.56914 8.59246L8.23208 9.7036C8.62119 9.12126 9.1212 8.62125 9.70354 8.23214L8.5924 6.5692ZM17.4166 5.33331C15.2137 5.33331 13.4862 5.3321 12.1123 5.47187C10.7217 5.61333 9.58281 5.90744 8.5924 6.5692L9.70354 8.23214C10.3106 7.82655 11.0822 7.58697 12.3147 7.4616C13.5639 7.33452 15.172 7.33331 17.4166 7.33331V5.33331ZM20.5833 5.33331H17.4166V7.33331H20.5833V5.33331ZM29.4074 6.5692C28.417 5.90744 27.2781 5.61333 25.8875 5.47187C24.5136 5.3321 22.7862 5.33331 20.5833 5.33331V7.33331C22.8278 7.33331 24.4359 7.33452 25.6851 7.4616C26.9176 7.58697 27.6893 7.82655 28.2963 8.23214L29.4074 6.5692ZM31.4307 8.59246C30.8957 7.79174 30.2082 7.10423 29.4074 6.5692L28.2963 8.23214C28.8786 8.62125 29.3786 9.12126 29.7678 9.7036L31.4307 8.59246Z" fill="#1268B3"/>
<ellipse cx="25.3333" cy="17.4166" rx="1.58333" ry="1.58333" fill="#1268B3" stroke="#1268B3" stroke-linecap="round"/>
<ellipse cx="19.0001" cy="17.4166" rx="1.58333" ry="1.58333" fill="#1268B3" stroke="#1268B3" stroke-linecap="round"/>
<circle cx="12.6666" cy="17.4166" r="1.58333" fill="#1268B3" stroke="#1268B3" stroke-linecap="round"/>
</svg>
