<svg width="50" height="50" viewBox="0 0 50 50" fill="none" xmlns="http://www.w3.org/2000/svg">
<g clip-path="url(#clip0_166_1401)">
<path d="M43.3688 45H7.59014C6.37276 45 5.20535 44.5189 4.34452 43.6624C3.4837 42.806 3 41.6444 3 40.4332V7.56883C2.99991 6.89454 3.26629 6.24723 3.74168 5.76664C4.21706 5.28605 4.86331 5.0107 5.54096 5H40.4181C41.0957 5.0107 41.742 5.28605 42.2173 5.76664C42.6927 6.24723 42.9591 6.89454 42.959 7.56883V10.2192H45.459C46.1329 10.2192 46.7792 10.4856 47.2557 10.9597C47.7323 11.4338 47.9999 12.0767 47.9999 12.7472V40.4332C47.9891 41.6482 47.4965 42.8096 46.6291 43.6649C45.7618 44.5202 44.5899 45 43.3688 45ZM5.54096 6.95723C5.37792 6.95723 5.2215 7.02159 5.10621 7.13629C4.99092 7.25099 4.92611 7.40662 4.92611 7.56883V40.4332C4.93669 41.1329 5.22076 41.8009 5.71807 42.2956C6.21538 42.7904 6.88692 43.073 7.59014 43.0836H43.3688C44.0791 43.0836 44.761 42.8057 45.2671 42.3098C45.7732 41.8139 46.063 41.1399 46.0738 40.4332V12.7472C46.0738 12.585 46.009 12.4295 45.8937 12.3148C45.7784 12.2001 45.622 12.1356 45.459 12.1356H42.959V38.476C42.959 38.6382 43.0238 38.7938 43.1391 38.9085C43.2544 39.0232 43.4108 39.0877 43.5739 39.0877H44.1064C44.2336 39.0822 44.3608 39.1023 44.4799 39.147C44.599 39.1916 44.7079 39.2599 44.7998 39.3475C44.8917 39.4352 44.9648 39.5404 45.0147 39.6569C45.0646 39.7734 45.0904 39.8988 45.0902 40.0255C45.0902 40.285 44.9865 40.5339 44.8021 40.7174C44.6176 40.901 44.3673 41.0041 44.1064 41.0041H43.5739C42.9 41.0041 42.2536 40.7377 41.7771 40.2636C41.3006 39.7895 41.0327 39.1465 41.0327 38.476V7.56883C41.0327 7.40662 40.9681 7.25099 40.8528 7.13629C40.7375 7.02159 40.5811 6.95723 40.4181 6.95723H5.54096Z" fill="white"/>
<path d="M36.3599 13.1549H9.39266C9.14266 13.1549 8.9028 13.0562 8.72602 12.8803C8.54925 12.7044 8.45011 12.4658 8.45011 12.2171C8.44458 12.0905 8.46476 11.9643 8.50965 11.8458C8.55453 11.7272 8.62318 11.6189 8.71126 11.5275C8.79935 11.436 8.90507 11.3633 9.02219 11.3137C9.13931 11.264 9.26534 11.2384 9.39266 11.2385H36.3599C36.6208 11.2385 36.8709 11.3417 37.0553 11.5252C37.2398 11.7087 37.3435 11.9575 37.3435 12.2171C37.3436 12.3437 37.3179 12.4691 37.268 12.5857C37.218 12.7022 37.145 12.8075 37.0531 12.8951C36.9612 12.9828 36.8523 13.0509 36.7332 13.0956C36.614 13.1402 36.4871 13.1604 36.3599 13.1549Z" fill="white"/>
<path d="M36.3615 18.2926H25.009C24.7481 18.2926 24.498 18.1894 24.3136 18.0059C24.1291 17.8224 24.0254 17.5735 24.0254 17.3139C24.0253 17.1873 24.051 17.062 24.1009 16.9455C24.1508 16.829 24.2239 16.7237 24.3158 16.636C24.4077 16.5484 24.5166 16.4802 24.6357 16.4355C24.7549 16.3909 24.8818 16.3707 25.009 16.3762H36.4025C36.5297 16.3707 36.6566 16.3909 36.7757 16.4355C36.8949 16.4802 37.0038 16.5484 37.0957 16.636C37.1876 16.7237 37.2606 16.829 37.3105 16.9455C37.3605 17.062 37.3862 17.1873 37.3861 17.3139C37.3862 17.4459 37.3593 17.5767 37.3073 17.6982C37.2553 17.8197 37.1794 17.9294 37.0837 18.0208C36.9879 18.1123 36.8746 18.1834 36.7505 18.2301C36.6264 18.2769 36.4941 18.2981 36.3615 18.2926Z" fill="white"/>
<path d="M36.3615 23.3894H25.009C24.8818 23.3949 24.7549 23.3747 24.6357 23.3301C24.5166 23.2854 24.4077 23.2173 24.3158 23.1296C24.2239 23.042 24.1508 22.9367 24.1009 22.8202C24.051 22.7036 24.0253 22.5782 24.0254 22.4516C24.0254 22.192 24.1291 21.9431 24.3136 21.7596C24.498 21.5761 24.7481 21.473 25.009 21.473H36.4025C36.6634 21.473 36.9135 21.5761 37.0979 21.7596C37.2824 21.9431 37.3861 22.192 37.3861 22.4516C37.3866 22.5819 37.3597 22.7109 37.3073 22.8304C37.2549 22.9498 37.1781 23.0571 37.0817 23.1453C36.9853 23.2335 36.8715 23.3009 36.7475 23.3429C36.6235 23.3849 36.492 23.4008 36.3615 23.3894Z" fill="white"/>
<path d="M36.3615 28.5269H25.009C24.8818 28.5325 24.7549 28.5124 24.6357 28.4677C24.5166 28.4231 24.4077 28.3548 24.3158 28.2671C24.2239 28.1795 24.1508 28.0743 24.1009 27.9578C24.051 27.8413 24.0253 27.7159 24.0254 27.5892C24.0254 27.3297 24.1291 27.0808 24.3136 26.8972C24.498 26.7137 24.7481 26.6107 25.009 26.6107H36.4025C36.6634 26.6107 36.9135 26.7137 37.0979 26.8972C37.2824 27.0808 37.3861 27.3297 37.3861 27.5892C37.3866 27.7195 37.3597 27.8485 37.3073 27.968C37.2549 28.0874 37.1781 28.1947 37.0817 28.2829C36.9853 28.3712 36.8715 28.4384 36.7475 28.4804C36.6235 28.5224 36.492 28.5383 36.3615 28.5269Z" fill="white"/>
<path d="M36.3615 33.6646H25.009C24.7481 33.6646 24.498 33.5616 24.3136 33.378C24.1291 33.1945 24.0254 32.9456 24.0254 32.6861C24.0253 32.5594 24.051 32.434 24.1009 32.3175C24.1508 32.201 24.2239 32.0957 24.3158 32.008C24.4077 31.9204 24.5166 31.8522 24.6357 31.8076C24.7549 31.7629 24.8818 31.7427 25.009 31.7482H36.4025C36.5297 31.7427 36.6566 31.7629 36.7757 31.8076C36.8949 31.8522 37.0038 31.9204 37.0957 32.008C37.1876 32.0957 37.2606 32.201 37.3105 32.3175C37.3605 32.434 37.3862 32.5594 37.3861 32.6861C37.3862 32.8181 37.3593 32.9487 37.3073 33.0702C37.2553 33.1917 37.1794 33.3014 37.0837 33.3929C36.9879 33.4843 36.8746 33.5554 36.7505 33.6022C36.6264 33.6489 36.4941 33.6701 36.3615 33.6646Z" fill="white"/>
<path d="M36.3615 38.7614H25.009C24.8818 38.767 24.7549 38.7468 24.6357 38.7021C24.5166 38.6574 24.4077 38.5893 24.3158 38.5016C24.2239 38.414 24.1508 38.3087 24.1009 38.1922C24.051 38.0756 24.0253 37.9504 24.0254 37.8237C24.0254 37.5642 24.1291 37.3153 24.3136 37.1317C24.498 36.9482 24.7481 36.845 25.009 36.845H36.4025C36.6634 36.845 36.9135 36.9482 37.0979 37.1317C37.2824 37.3153 37.3861 37.5642 37.3861 37.8237C37.3866 37.954 37.3597 38.0829 37.3073 38.2024C37.2549 38.3218 37.1781 38.4292 37.0817 38.5174C36.9853 38.6057 36.8715 38.6729 36.7475 38.7149C36.6235 38.7569 36.492 38.7728 36.3615 38.7614Z" fill="white"/>
<path d="M20.9103 33.6646H9.51677C9.2559 33.6646 9.00583 33.5616 8.82137 33.378C8.63691 33.1945 8.5332 32.9456 8.5332 32.6861C8.53308 32.5594 8.55883 32.434 8.60875 32.3175C8.65866 32.201 8.7317 32.0957 8.82362 32.008C8.91554 31.9204 9.02442 31.8522 9.14356 31.8076C9.26269 31.7629 9.38958 31.7427 9.51677 31.7482H20.9103C21.0375 31.7427 21.1644 31.7629 21.2835 31.8076C21.4027 31.8522 21.5116 31.9204 21.6035 32.008C21.6954 32.0957 21.7684 32.201 21.8184 32.3175C21.8683 32.434 21.894 32.5594 21.8939 32.6861C21.8939 32.9456 21.7902 33.1945 21.6057 33.378C21.4213 33.5616 21.1712 33.6646 20.9103 33.6646Z" fill="white"/>
<path d="M20.9103 38.7614H9.51677C9.38958 38.767 9.26269 38.7468 9.14356 38.7021C9.02442 38.6574 8.91554 38.5893 8.82362 38.5016C8.7317 38.414 8.65866 38.3087 8.60875 38.1922C8.55883 38.0756 8.53308 37.9504 8.5332 37.8237C8.5332 37.5642 8.63691 37.3153 8.82137 37.1317C9.00583 36.9482 9.2559 36.845 9.51677 36.845H20.9103C21.1712 36.845 21.4213 36.9482 21.6057 37.1317C21.7902 37.3153 21.8939 37.5642 21.8939 37.8237C21.894 37.9504 21.8683 38.0756 21.8184 38.1922C21.7684 38.3087 21.6954 38.414 21.6035 38.5016C21.5116 38.5893 21.4027 38.6574 21.2835 38.7021C21.1644 38.7468 21.0375 38.767 20.9103 38.7614Z" fill="white"/>
<path d="M20.0496 28.7717H9.63984C9.34636 28.7717 9.06491 28.6556 8.85739 28.4492C8.64987 28.2427 8.5332 27.9627 8.5332 27.6707V17.3139C8.5332 17.0219 8.64987 16.7419 8.85739 16.5354C9.06491 16.329 9.34636 16.213 9.63984 16.213H20.0496C20.3431 16.213 20.6245 16.329 20.832 16.5354C21.0396 16.7419 21.1562 17.0219 21.1562 17.3139V27.6707C21.1562 27.9627 21.0396 28.2427 20.832 28.4492C20.6245 28.6556 20.3431 28.7717 20.0496 28.7717ZM10.7465 26.5698H18.9432V18.4149H10.7465V26.5698Z" fill="white"/>
</g>
<defs>
<clipPath id="clip0_166_1401">
<rect width="45" height="40" fill="white" transform="translate(3 5)"/>
</clipPath>
</defs>
</svg>
