<svg width="50" height="50" viewBox="0 0 50 50" fill="none" xmlns="http://www.w3.org/2000/svg">
<g clip-path="url(#clip0_150_662)">
<path d="M19.9321 39.908C20.3392 39.8081 20.5537 40.0286 20.7227 40.4239C21.4985 42.2361 23.4822 42.8137 25.1074 41.7173C25.3645 41.5424 25.6128 41.3513 25.8582 41.1603C26.4313 40.7193 26.468 40.7355 26.9632 41.2925C27.2112 41.5844 27.5014 41.8376 27.8243 42.0436C28.1297 42.233 28.4713 42.3564 28.8273 42.4057C29.1833 42.455 29.5456 42.4292 29.891 42.33C30.2364 42.2307 30.5571 42.0601 30.8326 41.8293C31.1081 41.5985 31.3322 41.3125 31.4904 40.9898C31.7725 40.4122 32.0782 40.0668 32.7379 39.9463C33.5123 39.7993 34.081 39.2805 34.4116 38.5559C34.4747 38.3853 34.5867 38.2372 34.7336 38.13C34.8805 38.0228 35.0557 37.9614 35.2374 37.9533C36.4834 37.8063 37.3548 37.1758 37.6839 35.9177C37.7127 35.7548 37.7914 35.6048 37.909 35.4884C38.0267 35.372 38.1775 35.2951 38.3407 35.2681C39.9012 34.9403 40.9857 33.0752 40.1143 31.4629C39.9439 31.1484 40.0085 30.9162 40.3083 30.7163C41.1164 30.1769 41.9055 29.6052 42.7298 29.0923C42.8357 29.0426 42.9517 29.0185 43.0686 29.0218C43.1855 29.0251 43.2999 29.0558 43.4028 29.1114C44.0038 29.5523 44.6298 29.5743 45.2792 29.323C46.4548 28.8689 47.6303 28.4029 48.8058 27.9121C49.8887 27.455 50.2605 26.579 49.827 25.4855C48.2293 21.4565 46.6228 17.4314 45.0074 13.4102C44.5166 12.1918 43.6849 11.8522 42.4389 12.3343C41.3119 12.7752 40.1922 13.2338 39.0681 13.6806C38.7292 13.801 38.4304 14.0132 38.205 14.2934C37.9795 14.5737 37.8363 14.911 37.7912 15.2679C37.7442 15.5398 37.4885 15.9014 37.2446 15.9881C36.526 16.2438 35.7752 16.4878 35.0214 16.5436C33.0671 16.6906 31.1069 16.7479 29.1438 16.792C28.7272 16.785 28.3194 16.6711 27.9595 16.4613C26.6333 15.6903 25.0952 15.3643 23.5704 15.531C21.0386 15.8044 18.5098 16.1189 15.9721 16.3202C15.1757 16.3834 14.3558 16.1556 13.5461 16.0263C13.1685 15.9631 12.9584 15.6883 12.9378 15.2811C12.8849 14.5007 12.4441 13.9966 11.7402 13.7115C10.5853 13.2426 9.43183 12.7708 8.26807 12.3226C7.07786 11.8625 6.23295 12.2211 5.75246 13.4175C4.13514 17.4348 2.52811 21.4599 0.931366 25.4929C0.499363 26.5849 0.872593 27.4638 1.95995 27.9194C3.09138 28.3956 4.23604 28.8409 5.37923 29.2892C6.11393 29.5831 6.79867 29.5743 7.44521 29.0305C7.53936 28.9772 7.64486 28.9472 7.75296 28.9428C7.86106 28.9385 7.96863 28.96 8.06676 29.0055C8.61631 29.3333 9.12766 29.7257 9.65665 30.0902C9.97551 30.3092 9.93436 30.6017 9.86383 30.9265C9.68163 31.776 9.69485 32.6049 10.1842 33.3707C10.7646 34.276 11.5933 34.7552 12.6572 34.7699C13.1758 34.7699 13.4771 34.9345 13.7034 35.4445C14.1692 36.4894 15.0008 37.1244 16.172 37.1934C16.6407 37.2214 16.892 37.386 17.0345 37.8548C17.4239 39.132 18.5538 39.9213 19.9321 39.908ZM30.7719 18.6086L30.8233 18.4499C30.9547 18.4057 31.09 18.3742 31.2274 18.3558C32.2707 18.3103 33.3125 18.2544 34.3557 18.2397C35.5988 18.2221 36.8052 18.0428 37.9352 17.5048C38.3069 17.327 38.4965 17.4093 38.6464 17.7885C39.8366 20.7927 41.0341 23.7948 42.2391 26.7951C42.3742 27.1346 42.336 27.3829 42.0142 27.599C41.0797 28.2148 40.1657 28.86 39.215 29.4509C39.0681 29.5449 38.7154 29.4964 38.5612 29.3788C38.2746 29.1613 38.0777 28.8306 37.8265 28.569C36.2469 26.9523 33.8811 27.5402 33.2434 29.7022C33.2142 29.8538 33.1385 29.9926 33.0269 30.0993C32.9152 30.2059 32.7732 30.2752 32.6204 30.2974C32.2125 30.3761 31.8298 30.5525 31.505 30.8115C31.1802 31.0706 30.9231 31.4046 30.7557 31.7848C30.6913 31.9553 30.5771 32.1025 30.428 32.2073C30.279 32.3121 30.1018 32.3698 29.9196 32.3727C28.7735 32.4727 28.0094 33.0841 27.5421 34.1467C27.4305 34.4024 27.119 34.6023 26.8559 34.7507C26.5929 34.8992 26.2182 34.9345 25.9376 35.0947C24.5622 35.8795 24.1743 37.5579 25.003 38.916C25.1235 39.1114 25.2205 39.5156 25.122 39.6126C24.7586 39.9728 24.3436 40.277 23.8907 40.515C23.64 40.6363 23.3546 40.6656 23.0844 40.5979C22.8143 40.5303 22.5765 40.3698 22.4125 40.1447C22.2464 39.8977 22.173 39.6 22.2053 39.3041C22.2375 39.0082 22.3734 38.7333 22.5888 38.528C22.7813 38.334 23.0076 38.1723 23.2133 37.99C23.8481 37.4271 23.9833 36.948 23.6291 36.5424C23.275 36.1367 22.8665 36.194 22.1847 36.729C21.6513 37.1493 21.1282 37.5829 20.5684 37.9709C20.0086 38.3589 19.2371 38.2649 18.8565 37.824C18.4348 37.3287 18.4804 36.6041 18.9785 36.0794C19.1548 35.8927 19.3532 35.7281 19.5457 35.5591C20.0703 35.1005 20.6095 34.6567 21.1179 34.182C21.2801 34.0412 21.3811 33.8429 21.3998 33.629C21.4184 33.4151 21.3532 33.2023 21.2179 33.0356C20.8961 32.6681 20.5214 32.6725 20.1364 32.9341C19.9703 33.0473 19.8161 33.1781 19.6574 33.303C18.8081 33.9732 17.9778 34.6684 17.1021 35.3034C16.9743 35.4036 16.8274 35.4767 16.6703 35.518C16.5132 35.5592 16.3494 35.5679 16.1888 35.5434C16.0283 35.5189 15.8745 35.4617 15.7369 35.3754C15.5993 35.2892 15.4808 35.1756 15.3888 35.0417C15.2013 34.7771 15.1184 34.4524 15.1561 34.1303C15.1938 33.8081 15.3495 33.5113 15.593 33.2972C15.8781 33.0385 16.1808 32.8033 16.4746 32.5623C16.9801 32.139 17.5032 31.729 17.9867 31.2836C18.3599 30.9427 18.3966 30.4812 18.1336 30.1475C17.8706 29.8139 17.44 29.7522 17.0007 30.0388C16.7745 30.1951 16.5572 30.3639 16.3498 30.5444C15.4446 31.2925 14.5527 32.0552 13.6343 32.7872C13.3928 32.9894 13.0913 33.1065 12.7766 33.1203C12.4619 33.1341 12.1514 33.0439 11.8931 32.8636C11.6603 32.6938 11.4923 32.4497 11.4167 32.1716C11.3411 31.8935 11.3625 31.5979 11.4772 31.3336C11.6264 31.0213 11.8462 30.748 12.1194 30.5355C13.6608 29.3201 15.2051 28.109 16.7906 26.9509C17.1447 26.6922 17.6487 26.5746 18.0983 26.5217C18.8227 26.4364 19.5677 26.5217 20.2907 26.4247C22.4007 26.1543 24.236 25.2268 25.9155 23.9526C26.6502 23.3956 26.6429 23.4073 27.4422 23.9144C28.5869 24.6492 29.7183 25.3959 30.8997 26.0617C32.3089 26.8583 33.8826 26.4497 34.773 25.1401C35.5489 23.9981 35.2139 22.2477 34.031 21.2806C33.4432 20.8044 32.8555 20.3429 32.2677 19.8667C31.7681 19.4523 31.2715 19.0216 30.7719 18.6086ZM24.2845 17.1213C25.5482 17.1742 26.6429 17.4402 27.5686 18.178C29.4024 19.6477 31.2264 21.1253 33.0406 22.6107C33.2583 22.8056 33.412 23.0617 33.4814 23.3456C33.5489 23.5782 33.54 23.8263 33.4562 24.0535C33.3724 24.2807 33.218 24.4751 33.0156 24.6081C32.5528 24.9373 32.0694 24.8771 31.6197 24.6007C30.3369 23.8159 29.0674 23.0105 27.7993 22.2124C26.9177 21.6613 26.2505 21.6789 25.4086 22.2844C24.9678 22.6048 24.5269 22.9517 24.0729 23.253C22.2362 24.4552 20.2304 25.0431 18.0249 24.8609C17.1917 24.7918 16.5055 25.0622 15.8531 25.5884C14.4807 26.6922 13.0612 27.7357 11.6683 28.8115C11.3744 29.0349 11.1187 29.1334 10.7866 28.8835C10.1533 28.4147 9.50383 27.9664 8.85289 27.5211C8.52962 27.3021 8.43705 27.039 8.58399 26.6731C9.75951 23.7414 10.9291 20.8073 12.0929 17.8708C12.2589 17.4534 12.4926 17.4299 12.9128 17.5357C13.7563 17.7503 14.6232 17.9766 15.4857 17.9928C16.4849 18.0193 17.4915 17.8458 18.4936 17.74C20.4494 17.5313 22.4154 17.3182 24.2845 17.1213ZM39.6617 15.9352C39.6051 15.7934 39.5998 15.6364 39.6468 15.4912C39.6937 15.346 39.79 15.2218 39.9189 15.14C39.9393 15.1281 39.9604 15.1173 39.9821 15.1077C40.9269 14.7035 41.8923 14.342 42.8356 13.9466C43.3396 13.735 43.7819 13.9334 44.0111 14.7344C44.1067 15.0636 44.208 15.3928 44.3344 15.7118L47.7992 24.3979C47.9239 24.699 48.0642 24.9933 48.2195 25.2798C48.5913 25.9823 48.3664 26.3233 47.8242 26.532C46.9676 26.8597 46.1212 27.2125 45.2704 27.552C44.4637 27.8738 44.4167 27.8547 44.0949 27.0581C42.6373 23.4083 41.1806 19.7584 39.7249 16.1086L39.6617 15.9352ZM2.5815 25.7515C2.62852 25.6325 2.94738 24.7962 2.94738 24.7962L6.18005 16.6862L7.04259 14.6874C7.39818 13.9378 7.49076 13.7041 8.14758 14.0627C8.24922 14.1183 8.35424 14.1673 8.46202 14.2097L10.3722 14.9784C11.1642 15.143 11.3259 15.4193 11.0981 15.941C10.8704 16.4628 10.6573 17.0301 10.4413 17.5769C9.16783 20.7662 7.89435 23.9555 6.62087 27.1449C6.47393 27.5079 6.35785 27.9091 5.81124 27.6872C4.82527 27.286 3.83343 26.9023 2.85334 26.4908C2.83278 26.4831 2.81308 26.4732 2.79457 26.4614C2.68089 26.387 2.59716 26.2748 2.55817 26.1447C2.51918 26.0145 2.52745 25.8747 2.5815 25.7501V25.7515ZM32.2633 33.3839C32.1803 33.2038 32.1524 33.0031 32.1833 32.8072C32.2141 32.6113 32.3023 32.4289 32.4367 32.2831C32.5174 32.1874 32.6115 32.1037 32.7159 32.0347C32.8873 31.9201 33.0946 31.8719 33.299 31.8989C33.5034 31.926 33.691 32.0264 33.8268 32.1816C34.5541 33.0003 35.2697 33.8336 35.9442 34.6978C36.2777 35.1226 36.1381 35.7487 35.734 36.0853C35.5329 36.2501 35.2754 36.33 35.0163 36.3077C34.7572 36.2855 34.517 36.1629 34.3469 35.9662C33.649 35.1681 32.9921 34.3348 32.3368 33.5C32.3089 33.4633 32.2847 33.424 32.2648 33.3824L32.2633 33.3839ZM31.8989 38.403C31.7843 38.3472 31.4772 38.2884 31.3111 38.1091C30.5911 37.2831 29.8902 36.438 29.2305 35.5635C29.083 35.3713 29.0159 35.1293 29.0433 34.8886C29.0707 34.6479 29.1905 34.4272 29.3774 34.2731C29.736 33.9571 30.3384 33.8895 30.6808 34.2613C31.4717 35.0947 32.208 35.9784 32.8849 36.9068C33.3448 37.5403 32.8202 38.381 31.8945 38.4016L31.8989 38.403ZM26.3622 37.8916C26.2778 37.714 26.2468 37.5157 26.2729 37.3208C26.299 37.1259 26.381 36.9428 26.5092 36.7937C26.6097 36.6713 26.7281 36.5648 26.8603 36.4777C27.2909 36.2117 27.7243 36.4115 28.0359 36.7716C28.6662 37.5065 29.2804 38.2575 29.88 39.0174C30.3105 39.5641 30.2782 40.1697 29.8418 40.543C29.4053 40.9163 28.7544 40.856 28.2945 40.3181C27.6891 39.6097 27.1013 38.888 26.5312 38.1532C26.4647 38.0728 26.4084 37.9844 26.3637 37.8901L26.3622 37.8916ZM34.8465 30.5179C34.8333 29.5582 35.5651 29.0482 36.2351 29.398C36.4441 29.5113 36.6293 29.664 36.7802 29.8477C37.3518 30.5179 37.9161 31.1925 38.4583 31.8848C38.9109 32.4609 38.8668 33.0752 38.3848 33.4486C37.9029 33.8219 37.2945 33.7131 36.8331 33.1708C36.2748 32.5153 35.7164 31.8583 35.1874 31.1793C35.0491 30.9721 34.9352 30.7497 34.848 30.5164L34.8465 30.5179Z" fill="#1268B3"/>
</g>
<defs>
<clipPath id="clip0_150_662">
<rect width="49.2424" height="30.303" fill="white" transform="matrix(-1 0 0 1 50 12.1212)"/>
</clipPath>
</defs>
</svg>
