<svg width="50" height="50" viewBox="0 0 50 50" fill="none" xmlns="http://www.w3.org/2000/svg">
<g clip-path="url(#clip0_134_13911)">
<path d="M19.9318 39.908C20.3388 39.8081 20.5533 40.0286 20.7223 40.4239C21.4981 42.2361 23.4818 42.8137 25.107 41.7173C25.3641 41.5424 25.6125 41.3513 25.8579 41.1603C26.4309 40.7193 26.4677 40.7355 26.9628 41.2925C27.2108 41.5844 27.5011 41.8376 27.8239 42.0436C28.1293 42.233 28.471 42.3564 28.8269 42.4057C29.1829 42.455 29.5453 42.4292 29.8906 42.33C30.236 42.2307 30.5568 42.0601 30.8323 41.8293C31.1077 41.5985 31.3318 41.3125 31.49 40.9898C31.7722 40.4122 32.0778 40.0668 32.7376 39.9463C33.5119 39.7993 34.0806 39.2805 34.4112 38.5559C34.4743 38.3853 34.5864 38.2372 34.7332 38.13C34.8801 38.0228 35.0554 37.9614 35.237 37.9533C36.4831 37.8063 37.3544 37.1758 37.6836 35.9177C37.7124 35.7548 37.791 35.6048 37.9087 35.4884C38.0263 35.372 38.1771 35.2951 38.3404 35.2681C39.9009 34.9403 40.9853 33.0752 40.1139 31.4629C39.9435 31.1484 40.0081 30.9162 40.3079 30.7163C41.1161 30.1769 41.9051 29.6052 42.7295 29.0923C42.8353 29.0426 42.9513 29.0185 43.0682 29.0218C43.1851 29.0251 43.2996 29.0558 43.4024 29.1114C44.0034 29.5523 44.6294 29.5743 45.2789 29.323C46.4544 28.8689 47.6299 28.4029 48.8054 27.9121C49.8884 27.455 50.2601 26.579 49.8267 25.4855C48.2289 21.4565 46.6224 17.4314 45.007 13.4102C44.5162 12.1918 43.6846 11.8522 42.4385 12.3343C41.3115 12.7752 40.1918 13.2338 39.0677 13.6806C38.7288 13.801 38.43 14.0132 38.2046 14.2934C37.9791 14.5737 37.8359 14.911 37.7908 15.2679C37.7438 15.5398 37.4881 15.9014 37.2442 15.9881C36.5257 16.2438 35.7748 16.4878 35.021 16.5436C33.0667 16.6906 31.1065 16.7479 29.1434 16.792C28.7269 16.785 28.3191 16.6711 27.9591 16.4613C26.6329 15.6903 25.0948 15.3643 23.57 15.531C21.0382 15.8044 18.5094 16.1189 15.9718 16.3202C15.1753 16.3834 14.3554 16.1556 13.5458 16.0263C13.1681 15.9631 12.958 15.6883 12.9374 15.2811C12.8845 14.5007 12.4437 13.9966 11.7399 13.7115C10.5849 13.2426 9.43147 12.7708 8.2677 12.3226C7.07749 11.8625 6.23259 12.2211 5.75209 13.4175C4.13477 17.4348 2.52774 21.4599 0.931 25.4929C0.498997 26.5849 0.872227 27.4638 1.95958 27.9194C3.09101 28.3956 4.23568 28.8409 5.37887 29.2892C6.11357 29.5831 6.79831 29.5743 7.44484 29.0305C7.53899 28.9772 7.64449 28.9472 7.75259 28.9428C7.86069 28.9385 7.96827 28.96 8.06639 29.0055C8.61594 29.3333 9.1273 29.7257 9.65628 30.0902C9.97514 30.3092 9.93399 30.6017 9.86346 30.9265C9.68126 31.776 9.69448 32.6049 10.1838 33.3707C10.7642 34.276 11.5929 34.7552 12.6568 34.7699C13.1755 34.7699 13.4767 34.9345 13.703 35.4445C14.1688 36.4894 15.0005 37.1244 16.1716 37.1934C16.6403 37.2214 16.8916 37.386 17.0341 37.8548C17.4235 39.132 18.5535 39.9213 19.9318 39.908ZM30.7715 18.6086L30.8229 18.4499C30.9543 18.4057 31.0896 18.3742 31.227 18.3558C32.2703 18.3103 33.3121 18.2544 34.3554 18.2397C35.5985 18.2221 36.8049 18.0428 37.9348 17.5048C38.3066 17.327 38.4961 17.4093 38.646 17.7885C39.8362 20.7927 41.0338 23.7948 42.2387 26.7951C42.3739 27.1346 42.3357 27.3829 42.0139 27.599C41.0793 28.2148 40.1654 28.86 39.2147 29.4509C39.0677 29.5449 38.7151 29.4964 38.5608 29.3788C38.2743 29.1613 38.0774 28.8306 37.8261 28.569C36.2465 26.9523 33.8808 27.5402 33.243 29.7022C33.2138 29.8538 33.1382 29.9926 33.0265 30.0993C32.9149 30.2059 32.7728 30.2752 32.62 30.2974C32.2121 30.3761 31.8294 30.5525 31.5046 30.8115C31.1799 31.0706 30.9227 31.4046 30.7554 31.7848C30.6909 31.9553 30.5767 32.1025 30.4277 32.2073C30.2786 32.3121 30.1015 32.3698 29.9193 32.3727C28.7731 32.4727 28.009 33.0841 27.5418 34.1467C27.4301 34.4024 27.1186 34.6023 26.8556 34.7507C26.5925 34.8992 26.2179 34.9345 25.9372 35.0947C24.5618 35.8795 24.1739 37.5579 25.0027 38.916C25.1232 39.1114 25.2201 39.5156 25.1217 39.6126C24.7582 39.9728 24.3432 40.277 23.8903 40.515C23.6396 40.6363 23.3542 40.6656 23.0841 40.5979C22.8139 40.5303 22.5761 40.3698 22.4121 40.1447C22.246 39.8977 22.1726 39.6 22.2049 39.3041C22.2372 39.0082 22.373 38.7333 22.5884 38.528C22.7809 38.334 23.0072 38.1723 23.2129 37.99C23.8477 37.4271 23.9829 36.948 23.6288 36.5424C23.2747 36.1367 22.8662 36.194 22.1844 36.729C21.651 37.1493 21.1279 37.5829 20.568 37.9709C20.0082 38.3589 19.2367 38.2649 18.8562 37.824C18.4345 37.3287 18.48 36.6041 18.9781 36.0794C19.1545 35.8927 19.3528 35.7281 19.5453 35.5591C20.0699 35.1005 20.6092 34.6567 21.1176 34.182C21.2797 34.0412 21.3807 33.8429 21.3994 33.629C21.418 33.4151 21.3528 33.2023 21.2175 33.0356C20.8957 32.6681 20.521 32.6725 20.136 32.9341C19.97 33.0473 19.8157 33.1781 19.657 33.303C18.8077 33.9732 17.9775 34.6684 17.1017 35.3034C16.974 35.4036 16.827 35.4767 16.6699 35.518C16.5129 35.5592 16.349 35.5679 16.1885 35.5434C16.0279 35.5189 15.8741 35.4617 15.7365 35.3754C15.5989 35.2892 15.4804 35.1756 15.3884 35.0417C15.2009 34.7771 15.118 34.4524 15.1557 34.1303C15.1935 33.8081 15.3491 33.5113 15.5926 33.2972C15.8777 33.0385 16.1804 32.8033 16.4743 32.5623C16.9798 32.139 17.5029 31.729 17.9863 31.2836C18.3595 30.9427 18.3963 30.4812 18.1332 30.1475C17.8702 29.8139 17.4397 29.7522 17.0003 30.0388C16.7741 30.1951 16.5568 30.3639 16.3494 30.5444C15.4442 31.2925 14.5523 32.0552 13.6339 32.7872C13.3924 32.9894 13.091 33.1065 12.7763 33.1203C12.4615 33.1341 12.151 33.0439 11.8927 32.8636C11.6599 32.6938 11.4919 32.4497 11.4163 32.1716C11.3407 31.8935 11.3621 31.5979 11.4769 31.3336C11.626 31.0213 11.8458 30.748 12.119 30.5355C13.6604 29.3201 15.2047 28.109 16.7902 26.9509C17.1443 26.6922 17.6483 26.5746 18.098 26.5217C18.8224 26.4364 19.5674 26.5217 20.2903 26.4247C22.4004 26.1543 24.2356 25.2268 25.9152 23.9526C26.6499 23.3956 26.6425 23.4073 27.4419 23.9144C28.5865 24.6492 29.718 25.3959 30.8994 26.0617C32.3085 26.8583 33.8822 26.4497 34.7727 25.1401C35.5485 23.9981 35.2135 22.2477 34.0306 21.2806C33.4429 20.8044 32.8551 20.3429 32.2674 19.8667C31.7678 19.4523 31.2711 19.0216 30.7715 18.6086ZM24.2841 17.1213C25.5478 17.1742 26.6425 17.4402 27.5682 18.178C29.402 19.6477 31.226 21.1253 33.0403 22.6107C33.258 22.8056 33.4117 23.0617 33.4811 23.3456C33.5485 23.5782 33.5397 23.8263 33.4558 24.0535C33.372 24.2807 33.2176 24.4751 33.0153 24.6081C32.5524 24.9373 32.069 24.8771 31.6194 24.6007C30.3366 23.8159 29.067 23.0105 27.7989 22.2124C26.9173 21.6613 26.2502 21.6789 25.4082 22.2844C24.9674 22.6048 24.5266 22.9517 24.0725 23.253C22.2358 24.4552 20.2301 25.0431 18.0245 24.8609C17.1913 24.7918 16.5051 25.0622 15.8527 25.5884C14.4803 26.6922 13.0609 27.7357 11.6679 28.8115C11.374 29.0349 11.1183 29.1334 10.7862 28.8835C10.1529 28.4147 9.50346 27.9664 8.85252 27.5211C8.52925 27.3021 8.43668 27.039 8.58362 26.6731C9.75914 23.7414 10.9288 20.8073 12.0925 17.8708C12.2586 17.4534 12.4922 17.4299 12.9125 17.5357C13.7559 17.7503 14.6228 17.9766 15.4854 17.9928C16.4846 18.0193 17.4911 17.8458 18.4932 17.74C20.449 17.5313 22.4151 17.3182 24.2841 17.1213ZM39.6614 15.9352C39.6047 15.7934 39.5995 15.6364 39.6464 15.4912C39.6934 15.346 39.7896 15.2218 39.9185 15.14C39.939 15.1281 39.9601 15.1173 39.9817 15.1077C40.9265 14.7035 41.8919 14.342 42.8353 13.9466C43.3393 13.735 43.7816 13.9334 44.0108 14.7344C44.1063 15.0636 44.2077 15.3928 44.334 15.7118L47.7989 24.3979C47.9236 24.699 48.0638 24.9933 48.2191 25.2798C48.5909 25.9823 48.3661 26.3233 47.8239 26.532C46.9672 26.8597 46.1208 27.2125 45.2701 27.552C44.4634 27.8738 44.4163 27.8547 44.0945 27.0581C42.6369 23.4083 41.1802 19.7584 39.7245 16.1086L39.6614 15.9352ZM2.58113 25.7515C2.62815 25.6325 2.94701 24.7962 2.94701 24.7962L6.17969 16.6862L7.04222 14.6874C7.39782 13.9378 7.49039 13.7041 8.14721 14.0627C8.24885 14.1183 8.35387 14.1673 8.46166 14.2097L10.3719 14.9784C11.1639 15.143 11.3255 15.4193 11.0978 15.941C10.87 16.4628 10.6569 17.0301 10.4409 17.5769C9.16746 20.7662 7.89398 23.9555 6.62051 27.1449C6.47356 27.5079 6.35749 27.9091 5.81087 27.6872C4.82491 27.286 3.83306 26.9023 2.85297 26.4908C2.83241 26.4831 2.81271 26.4732 2.7942 26.4614C2.68052 26.387 2.59679 26.2748 2.5578 26.1447C2.51882 26.0145 2.52708 25.8747 2.58113 25.7501V25.7515ZM32.263 33.3839C32.1799 33.2038 32.152 33.0031 32.1829 32.8072C32.2138 32.6113 32.3019 32.4289 32.4363 32.2831C32.5171 32.1874 32.6111 32.1037 32.7155 32.0347C32.887 31.9201 33.0942 31.8719 33.2986 31.8989C33.503 31.926 33.6906 32.0264 33.8264 32.1816C34.5537 33.0003 35.2693 33.8336 35.9438 34.6978C36.2773 35.1226 36.1377 35.7487 35.7337 36.0853C35.5325 36.2501 35.275 36.33 35.0159 36.3077C34.7568 36.2855 34.5167 36.1629 34.3466 35.9662C33.6486 35.1681 32.9918 34.3348 32.3364 33.5C32.3085 33.4633 32.2844 33.424 32.2644 33.3824L32.263 33.3839ZM31.8985 38.403C31.7839 38.3472 31.4768 38.2884 31.3108 38.1091C30.5908 37.2831 29.8899 36.438 29.2301 35.5635C29.0826 35.3713 29.0155 35.1293 29.0429 34.8886C29.0703 34.6479 29.1901 34.4272 29.3771 34.2731C29.7356 33.9571 30.338 33.8895 30.6804 34.2613C31.4714 35.0947 32.2076 35.9784 32.8845 36.9068C33.3444 37.5403 32.8199 38.381 31.8941 38.4016L31.8985 38.403ZM26.3619 37.8916C26.2775 37.714 26.2464 37.5157 26.2725 37.3208C26.2986 37.1259 26.3807 36.9428 26.5088 36.7937C26.6093 36.6713 26.7277 36.5648 26.86 36.4777C27.2905 36.2117 27.724 36.4115 28.0355 36.7716C28.6659 37.5065 29.2801 38.2575 29.8796 39.0174C30.3101 39.5641 30.2778 40.1697 29.8414 40.543C29.405 40.9163 28.754 40.856 28.2941 40.3181C27.6887 39.6097 27.101 38.888 26.5308 38.1532C26.4643 38.0728 26.408 37.9844 26.3633 37.8901L26.3619 37.8916ZM34.8461 30.5179C34.8329 29.5582 35.5647 29.0482 36.2347 29.398C36.4438 29.5113 36.6289 29.664 36.7799 29.8477C37.3515 30.5179 37.9157 31.1925 38.4579 31.8848C38.9105 32.4609 38.8664 33.0752 38.3845 33.4486C37.9025 33.8219 37.2942 33.7131 36.8328 33.1708C36.2744 32.5153 35.716 31.8583 35.187 31.1793C35.0488 30.9721 34.9349 30.7497 34.8476 30.5164L34.8461 30.5179Z" fill="#1268B3"/>
</g>
<defs>
<clipPath id="clip0_134_13911">
<rect width="49.2424" height="30.303" fill="white" transform="matrix(-1 0 0 1 50 12.1212)"/>
</clipPath>
</defs>
</svg>
