<svg width="24" height="24" viewBox="0 0 24 24" fill="none" xmlns="http://www.w3.org/2000/svg">
<path fill-rule="evenodd" clip-rule="evenodd" d="M10.688 1.27213e-07H13.312C15.6525 -9.05818e-06 17.4735 -1.6129e-05 18.8914 0.190617C20.3374 0.385019 21.4583 0.78802 22.3351 1.66487C23.212 2.54171 23.615 3.66264 23.8094 5.10858C24 6.52649 24 8.34752 24 10.6879V13.3121C24 15.6525 24 17.4735 23.8094 18.8914C23.615 20.3374 23.212 21.4583 22.3351 22.3351C21.4583 23.212 20.3374 23.615 18.8914 23.8094C17.4735 24 15.6525 24 13.3121 24H10.6879C8.34752 24 6.52648 24 5.10858 23.8094C3.66264 23.615 2.54171 23.212 1.66487 22.3351C0.78802 21.4583 0.385019 20.3374 0.190617 18.8914C-1.6129e-05 17.4735 -9.05818e-06 15.6525 1.27213e-07 13.312V10.688C-9.05818e-06 8.34753 -1.6129e-05 6.52649 0.190617 5.10858C0.385019 3.66264 0.78802 2.54171 1.66487 1.66487C2.54171 0.78802 3.66264 0.385019 5.10858 0.190617C6.52649 -1.6129e-05 8.34753 -9.05818e-06 10.688 1.27213e-07ZM5.27689 1.44251C3.97102 1.61808 3.16109 1.95502 2.55805 2.55805C1.95502 3.16109 1.61808 3.97102 1.44251 5.27689C1.2645 6.60092 1.26316 8.33716 1.26316 10.7368V13.2632C1.26316 15.6628 1.2645 17.3991 1.44251 18.7231C1.61808 20.029 1.95502 20.8389 2.55805 21.4419C3.16109 22.045 3.97102 22.3819 5.27689 22.5575C6.60092 22.7355 8.33716 22.7368 10.7368 22.7368H13.2632C15.6628 22.7368 17.3991 22.7355 18.7231 22.5575C20.029 22.3819 20.8389 22.045 21.4419 21.4419C22.045 20.8389 22.3819 20.029 22.5575 18.7231C22.7355 17.3991 22.7368 15.6628 22.7368 13.2632V10.7368C22.7368 8.33715 22.7355 6.60092 22.5575 5.27689C22.3819 3.97102 22.045 3.16109 21.4419 2.55805C20.8389 1.95502 20.029 1.61808 18.7231 1.44251C17.3991 1.2645 15.6628 1.26316 13.2632 1.26316H10.7368C8.33715 1.26316 6.60092 1.2645 5.27689 1.44251Z" fill="#1268B3"/>
<path d="M19.5789 6.31579C19.5789 7.36222 18.7306 8.21053 17.6842 8.21053C16.6378 8.21053 15.7895 7.36222 15.7895 6.31579C15.7895 5.26936 16.6378 4.42105 17.6842 4.42105C18.7306 4.42105 19.5789 5.26936 19.5789 6.31579Z" fill="#1268B3"/>
<path fill-rule="evenodd" clip-rule="evenodd" d="M3.15789 14.1164V12.1923C3.557 11.7608 4.038 11.2728 4.55581 10.8159C5.24397 10.2087 6.04071 9.61707 6.82577 9.30988C7.61712 9.00022 8.55983 8.92982 9.2887 9.6587L9.32043 9.69044L9.34736 9.72634C10.2848 10.9762 10.6553 12.5023 10.9409 13.6786C10.9727 13.8095 11.0034 13.936 11.0338 14.0574C11.1947 14.701 11.3341 15.1627 11.5153 15.4646C11.5998 15.6055 11.6766 15.6813 11.7411 15.7231C11.7991 15.7606 11.8755 15.7895 12 15.7895C12.2794 15.7895 12.5375 15.6789 12.8358 15.4371C13.1057 15.2182 13.3581 14.9359 13.661 14.5971C13.7124 14.5396 13.7653 14.4804 13.82 14.4196C14.5269 13.6343 15.4849 12.6316 17.0526 12.6316C18.3088 12.6316 19.4077 13.4023 20.1301 14.059C20.4098 14.3133 20.6505 14.5665 20.8421 14.7837V16.6266C20.7732 16.555 20.6852 16.464 20.5928 16.3685C20.3574 16.1253 20.0941 15.8532 20.049 15.7991C19.8649 15.5781 19.6008 15.2849 19.2804 14.9937C18.6134 14.3873 17.8175 13.8948 17.0526 13.8948C16.0941 13.8948 15.4731 14.4711 14.7589 15.2647C14.7118 15.317 14.6637 15.3709 14.6148 15.4258C14.3173 15.7595 13.9872 16.1297 13.6313 16.4183C13.1993 16.7686 12.668 17.0527 12 17.0527C11.6508 17.0527 11.3325 16.9632 11.0549 16.7836C10.7839 16.6082 10.5844 16.3683 10.4321 16.1145C10.1396 15.6269 9.9632 14.9833 9.80832 14.3637C9.77715 14.239 9.74632 14.1133 9.71532 13.9869C9.42351 12.7968 9.11697 11.5466 8.36671 10.5245C8.14895 10.3279 7.832 10.2726 7.28606 10.4862C6.70927 10.7119 6.04549 11.186 5.39154 11.7631C4.74732 12.3315 4.15465 12.9618 3.72029 13.4541C3.50393 13.6993 3.32871 13.9081 3.20809 14.055L3.15789 14.1164Z" fill="#1268B3"/>
</svg>
