<svg width="50" height="50" viewBox="0 0 50 50" fill="none" xmlns="http://www.w3.org/2000/svg">
<path fill-rule="evenodd" clip-rule="evenodd" d="M17.708 14.5834C17.708 14.0081 18.1744 13.5417 18.7497 13.5417L27.083 13.5417C27.6583 13.5417 28.1247 14.0081 28.1247 14.5834C28.1247 15.1587 27.6583 15.625 27.083 15.625L18.7497 15.625C18.1744 15.625 17.708 15.1587 17.708 14.5834Z" fill="#1268B3"/>
<path fill-rule="evenodd" clip-rule="evenodd" d="M17.708 31.25C17.708 30.6747 18.1744 30.2083 18.7497 30.2083L24.9997 30.2083C25.575 30.2083 26.0413 30.6747 26.0413 31.25C26.0413 31.8253 25.575 32.2916 24.9997 32.2916L18.7497 32.2916C18.1744 32.2916 17.708 31.8253 17.708 31.25Z" fill="#1268B3"/>
<path fill-rule="evenodd" clip-rule="evenodd" d="M17.708 22.9167C17.708 22.3414 18.1744 21.875 18.7497 21.875L31.2497 21.875C31.825 21.875 32.2913 22.3414 32.2913 22.9167C32.2913 23.492 31.825 23.9583 31.2497 23.9583L18.7497 23.9583C18.1744 23.9583 17.708 23.492 17.708 22.9167Z" fill="#1268B3"/>
<path fill-rule="evenodd" clip-rule="evenodd" d="M22.8376 44.7917L25 44.7917C25.5753 44.7917 26.0417 44.3253 26.0417 43.75C26.0417 43.1747 25.5753 42.7084 25 42.7084H22.9167C19.9409 42.7084 17.8139 42.7061 16.1975 42.4888C14.6111 42.2755 13.6733 41.8724 12.9838 41.1829C12.2943 40.4934 11.8912 39.5556 11.6779 37.9692C11.4605 36.3527 11.4583 34.2257 11.4583 31.25V18.75C11.4583 15.7743 11.4605 13.6473 11.6779 12.0309C11.8912 10.4444 12.2943 9.50666 12.9838 8.81717C13.6733 8.12768 14.6111 7.72451 16.1975 7.51122C17.8139 7.2939 19.9409 7.29168 22.9167 7.29168H27.0833C30.0591 7.29168 32.1861 7.2939 33.8025 7.51122C35.3889 7.72451 36.3267 8.12768 37.0162 8.81717C37.7057 9.50666 38.1088 10.4444 38.3221 12.0309C38.5395 13.6473 38.5417 15.7743 38.5417 18.75V22.9167C38.5417 23.492 39.008 23.9584 39.5833 23.9584C40.1586 23.9584 40.625 23.492 40.625 22.9167V18.671C40.625 15.7917 40.625 13.5246 40.3869 11.7533C40.1425 9.9358 39.6304 8.48512 38.4893 7.34403C37.3482 6.20294 35.8976 5.69081 34.0801 5.44646C32.3088 5.20831 30.0417 5.20833 27.1625 5.20835H22.8375C19.9583 5.20833 17.6912 5.20831 15.9199 5.44646C14.1024 5.69081 12.6518 6.20294 11.5107 7.34403C10.3696 8.48512 9.85746 9.9358 9.61311 11.7533C9.37496 13.5246 9.37498 15.7917 9.375 18.6709V31.3291C9.37498 34.2083 9.37496 36.4755 9.61311 38.2468C9.85746 40.0642 10.3696 41.5149 11.5107 42.656C12.6518 43.7971 14.1024 44.3092 15.9199 44.5536C17.6912 44.7917 19.9584 44.7917 22.8376 44.7917Z" fill="#1268B3"/>
<path fill-rule="evenodd" clip-rule="evenodd" d="M36.458 32.2916C34.1568 32.2916 32.2913 34.1571 32.2913 36.4583C32.2913 38.7595 34.1568 40.625 36.458 40.625C38.7592 40.625 40.6247 38.7595 40.6247 36.4583C40.6247 34.1571 38.7592 32.2916 36.458 32.2916ZM30.208 36.4583C30.208 33.0065 33.0062 30.2083 36.458 30.2083C39.9098 30.2083 42.708 33.0065 42.708 36.4583C42.708 39.9101 39.9098 42.7083 36.458 42.7083C33.0062 42.7083 30.208 39.9101 30.208 36.4583Z" fill="#1268B3"/>
<path fill-rule="evenodd" clip-rule="evenodd" d="M39.8881 39.8884C40.2949 39.4816 40.9544 39.4816 41.3612 39.8884L44.4862 43.0134C44.893 43.4202 44.893 44.0798 44.4862 44.4866C44.0795 44.8933 43.4199 44.8933 43.0131 44.4866L39.8881 41.3616C39.4813 40.9548 39.4813 40.2952 39.8881 39.8884Z" fill="#1268B3"/>
</svg>
