<svg width="67" height="63" viewBox="0 0 67 63" fill="none" xmlns="http://www.w3.org/2000/svg">
<path d="M67 0V10.2908C63.7731 10.9602 61.0558 12.5498 58.8479 15.0598C56.8099 17.5697 55.2814 20.749 54.2624 24.5976C53.4132 28.2789 52.9886 32.3785 52.9886 36.8964H64.7072V63H39.7414V39.6574C39.7414 29.9522 41.1001 22.4223 43.8175 17.0677C46.7047 11.5458 50.2712 7.52989 54.5171 5.01993C58.763 2.34263 62.924 0.669324 67 0ZM27.5133 0V10.2908C24.2864 10.9602 21.5691 12.5498 19.3612 15.0598C17.3232 17.5697 15.7947 20.749 14.7757 24.5976C13.9265 28.2789 13.5019 32.3785 13.5019 36.8964H24.9658V63H0V39.6574C0 29.9522 1.4436 22.4223 4.3308 17.0677C7.218 11.5458 10.7845 7.52989 15.0304 5.01993C19.2763 2.34263 23.4373 0.669324 27.5133 0Z" fill="#1268B3" fill-opacity="0.2"/>
</svg>
