<svg width="38" height="38" viewBox="0 0 38 38" fill="none" xmlns="http://www.w3.org/2000/svg">
<path fill-rule="evenodd" clip-rule="evenodd" d="M11.6697 9.56211C10.9265 9.62282 10.4558 9.73894 10.0779 9.93145C9.33313 10.311 8.72758 10.9165 8.34808 11.6613C8.15556 12.0391 8.03945 12.5099 7.97873 13.253C7.91726 14.0054 7.91665 14.9652 7.91665 16.3084V28.9638L10.8514 26.029C11.2968 25.5836 11.9009 25.3334 12.5308 25.3334H23.275C24.6182 25.3334 25.5779 25.3327 26.3303 25.2713C27.0734 25.2106 27.5442 25.0944 27.922 24.9019C28.6668 24.5224 29.2724 23.9169 29.6519 23.1721C29.8444 22.7942 29.9605 22.3235 30.0212 21.5803C30.0827 20.828 30.0833 19.8682 30.0833 18.525V16.3084C30.0833 14.9652 30.0827 14.0054 30.0212 13.253C29.9605 12.5099 29.8444 12.0391 29.6519 11.6613C29.2724 10.9165 28.6668 10.311 27.922 9.93145C27.5442 9.73894 27.0734 9.62282 26.3303 9.56211C25.5779 9.50064 24.6182 9.50002 23.275 9.50002H14.725C13.3818 9.50002 12.422 9.50064 11.6697 9.56211ZM14.6898 7.91669H23.3101C24.6105 7.91668 25.6349 7.91668 26.4592 7.98403C27.3003 8.05275 28.0026 8.19549 28.6408 8.52069C29.6836 9.05199 30.5313 9.89976 31.0626 10.9425C31.3878 11.5807 31.5306 12.2831 31.5993 13.1241C31.6667 13.9485 31.6667 14.9728 31.6666 16.2732V18.5602C31.6667 19.8605 31.6667 20.8849 31.5993 21.7093C31.5306 22.5503 31.3878 23.2526 31.0626 23.8909C30.5313 24.9336 29.6836 25.7814 28.6408 26.3127C28.0026 26.6379 27.3003 26.7806 26.4592 26.8493C25.6349 26.9167 24.6105 26.9167 23.3102 26.9167H12.5308C12.3209 26.9167 12.1195 27.0001 11.971 27.1486L8.90109 30.2185C7.95351 31.1661 6.33331 30.495 6.33331 29.1549L6.33331 16.2732C6.33331 14.9728 6.3333 13.9485 6.40066 13.1241C6.46937 12.2831 6.61212 11.5807 6.93732 10.9425C7.46862 9.89976 8.31638 9.05199 9.35912 8.52069C9.99736 8.19549 10.6997 8.05275 11.5407 7.98403C12.3651 7.91668 13.3895 7.91668 14.6898 7.91669Z" fill="#1268B3"/>
<path fill-rule="evenodd" clip-rule="evenodd" d="M12.6666 15.0417C12.6666 14.6044 13.0211 14.25 13.4583 14.25L24.5416 14.25C24.9789 14.25 25.3333 14.6044 25.3333 15.0417C25.3333 15.4789 24.9789 15.8333 24.5416 15.8333L13.4583 15.8333C13.0211 15.8333 12.6666 15.4789 12.6666 15.0417Z" fill="#1268B3"/>
<path fill-rule="evenodd" clip-rule="evenodd" d="M12.6666 19.7917C12.6666 19.3544 13.0211 19 13.4583 19L21.375 19C21.8122 19 22.1666 19.3544 22.1666 19.7917C22.1666 20.2289 21.8122 20.5833 21.375 20.5833L13.4583 20.5833C13.0211 20.5833 12.6666 20.2289 12.6666 19.7917Z" fill="#1268B3"/>
</svg>
