<svg width="50" height="50" viewBox="0 0 50 50" fill="none" xmlns="http://www.w3.org/2000/svg">
<path fill-rule="evenodd" clip-rule="evenodd" d="M5.20898 43.75C5.20898 43.1747 5.67535 42.7083 6.25065 42.7083H43.7506C44.3259 42.7083 44.7923 43.1747 44.7923 43.75C44.7923 44.3253 44.3259 44.7916 43.7506 44.7916H6.25065C5.67535 44.7916 5.20898 44.3253 5.20898 43.75Z" fill="white"/>
<path fill-rule="evenodd" clip-rule="evenodd" d="M8.33268 28.125C8.90798 28.125 9.37435 28.5914 9.37435 29.1667V33.3333C9.37435 33.9086 8.90798 34.375 8.33268 34.375C7.75739 34.375 7.29102 33.9086 7.29102 33.3333V29.1667C7.29102 28.5914 7.75739 28.125 8.33268 28.125Z" fill="white"/>
<path fill-rule="evenodd" clip-rule="evenodd" d="M25.0007 17.7083C25.5759 17.7083 26.0423 18.1747 26.0423 18.75V25C26.0423 25.5753 25.5759 26.0416 25.0007 26.0416C24.4254 26.0416 23.959 25.5753 23.959 25V18.75C23.959 18.1747 24.4254 17.7083 25.0007 17.7083Z" fill="white"/>
<path fill-rule="evenodd" clip-rule="evenodd" d="M16.6667 19.7917C17.242 19.7917 17.7083 20.2581 17.7083 20.8334V33.3334C17.7083 33.9087 17.242 34.375 16.6667 34.375C16.0914 34.375 15.625 33.9087 15.625 33.3334V20.8334C15.625 20.2581 16.0914 19.7917 16.6667 19.7917Z" fill="white"/>
<path fill-rule="evenodd" clip-rule="evenodd" d="M33.3327 21.875C33.908 21.875 34.3744 22.3414 34.3744 22.9167V27.0833C34.3744 27.6586 33.908 28.125 33.3327 28.125C32.7574 28.125 32.291 27.6586 32.291 27.0833V22.9167C32.291 22.3414 32.7574 21.875 33.3327 21.875Z" fill="white"/>
<path fill-rule="evenodd" clip-rule="evenodd" d="M41.6667 9.375C42.242 9.375 42.7083 9.84137 42.7083 10.4167V31.25C42.7083 31.8253 42.242 32.2917 41.6667 32.2917C41.0914 32.2917 40.625 31.8253 40.625 31.25V10.4167C40.625 9.84137 41.0914 9.375 41.6667 9.375Z" fill="white"/>
</svg>
