<svg width="50" height="50" viewBox="0 0 50 50" fill="none" xmlns="http://www.w3.org/2000/svg">
<path fill-rule="evenodd" clip-rule="evenodd" d="M5.20801 43.75C5.20801 43.1747 5.67438 42.7083 6.24967 42.7083H43.7497C44.325 42.7083 44.7913 43.1747 44.7913 43.75C44.7913 44.3253 44.325 44.7916 43.7497 44.7916H6.24967C5.67438 44.7916 5.20801 44.3253 5.20801 43.75Z" fill="#1268B3"/>
<path fill-rule="evenodd" clip-rule="evenodd" d="M8.33366 28.125C8.90896 28.125 9.37533 28.5914 9.37533 29.1667V33.3333C9.37533 33.9086 8.90896 34.375 8.33366 34.375C7.75836 34.375 7.29199 33.9086 7.29199 33.3333V29.1667C7.29199 28.5914 7.75836 28.125 8.33366 28.125Z" fill="#1268B3"/>
<path fill-rule="evenodd" clip-rule="evenodd" d="M24.9997 17.7083C25.575 17.7083 26.0413 18.1747 26.0413 18.75V25C26.0413 25.5753 25.575 26.0416 24.9997 26.0416C24.4244 26.0416 23.958 25.5753 23.958 25V18.75C23.958 18.1747 24.4244 17.7083 24.9997 17.7083Z" fill="#1268B3"/>
<path fill-rule="evenodd" clip-rule="evenodd" d="M16.6667 19.7917C17.242 19.7917 17.7083 20.2581 17.7083 20.8334V33.3334C17.7083 33.9087 17.242 34.375 16.6667 34.375C16.0914 34.375 15.625 33.9087 15.625 33.3334V20.8334C15.625 20.2581 16.0914 19.7917 16.6667 19.7917Z" fill="#1268B3"/>
<path fill-rule="evenodd" clip-rule="evenodd" d="M33.3337 21.875C33.909 21.875 34.3753 22.3414 34.3753 22.9167V27.0833C34.3753 27.6586 33.909 28.125 33.3337 28.125C32.7584 28.125 32.292 27.6586 32.292 27.0833V22.9167C32.292 22.3414 32.7584 21.875 33.3337 21.875Z" fill="#1268B3"/>
<path fill-rule="evenodd" clip-rule="evenodd" d="M41.6667 9.375C42.242 9.375 42.7083 9.84137 42.7083 10.4167V31.25C42.7083 31.8253 42.242 32.2917 41.6667 32.2917C41.0914 32.2917 40.625 31.8253 40.625 31.25V10.4167C40.625 9.84137 41.0914 9.375 41.6667 9.375Z" fill="#1268B3"/>
</svg>
