<svg width="331" height="619" viewBox="0 0 331 619" fill="none" xmlns="http://www.w3.org/2000/svg">
<mask id="mask0_177_1906" style="mask-type:alpha" maskUnits="userSpaceOnUse" x="0" y="0" width="331" height="619">
<rect width="330.888" height="618.179" transform="matrix(-1 0 0 1 330.888 0)" fill="#01325C" fill-opacity="0.05"/>
<rect width="330.888" height="618.179" transform="matrix(-1 0 0 1 330.888 0)" fill="#E9EBEE"/>
</mask>
<g mask="url(#mask0_177_1906)">
<path fill-rule="evenodd" clip-rule="evenodd" d="M-278.921 339.094C-269.415 327.145 -258.307 316.565 -245.91 307.651C-245.91 307.651 -244.961 306.66 -244.342 306.165C-244.961 305.67 -245.91 304.679 -245.91 304.679C-258.315 295.776 -269.425 285.194 -278.921 273.236C-289.799 260.333 -297.69 245.185 -302.03 228.876C-300.141 228.448 -298.224 228.159 -296.294 228.01L-297.119 221.779C-294.522 221.374 -291.905 221.112 -289.279 220.995V214.97C-289.279 214.97 -283.626 214.31 -280.778 214.31V207.047C-275.551 204.321 -270.482 201.304 -265.593 198.01L-266.294 197.226C-265.008 195.647 -263.631 194.145 -262.168 192.728C-263.286 186.19 -264.858 179.737 -266.872 173.416L-261.714 168.258C-263.777 166.278 -267.326 161.78 -267.326 161.78L-263.2 157.653C-265.428 155.095 -266.666 153.527 -268.193 151.546L-263.2 147.75C-264.451 146.279 -265.595 144.72 -266.625 143.087C-252.031 134.604 -235.74 129.461 -218.922 128.025C-203.819 126.282 -188.549 126.601 -173.531 128.974C-172.803 128.932 -172.073 128.932 -171.344 128.974V126.787C-173.751 111.774 -174.084 96.5004 -172.335 81.396C-170.899 64.578 -165.755 48.287 -157.273 33.694C-155.632 34.7126 -154.073 35.8577 -152.61 37.1189L-148.814 32.1259C-146.69 33.6793 -144.651 35.3461 -142.707 37.1189L-138.58 32.9924C-138.58 32.9924 -134.082 36.5412 -132.102 38.5632L-126.861 33.1988C-121.247 34.9948 -115.528 36.4417 -109.736 37.5316V36.5413C-107.711 36.288 -105.668 36.2052 -103.629 36.2937C-99.8135 30.8639 -96.367 25.184 -93.3126 19.2925H-85.5961C-85.5961 16.4452 -84.9772 10.7508 -84.9772 10.7508H-78.9525C-78.8235 8.12404 -78.548 5.50643 -78.1272 2.91039L-71.9375 3.73573C-71.7885 1.80528 -71.4989 -0.111677 -71.071 -2C-54.7718 2.34282 -39.6274 10.2179 -26.7114 21.067C-14.769 30.5934 -4.17706 41.699 4.77359 54.0788C4.77359 54.0788 5.72272 55.0691 6.2179 55.688C6.71307 55.0691 7.70343 54.0788 7.70343 54.0788C16.6394 41.7001 27.2176 30.5943 39.1471 21.067C52.0684 10.2258 67.2109 2.35165 83.5067 -2C83.949 -0.112795 84.2523 1.8042 84.4145 3.73573L90.6042 2.91039C91.0296 5.50481 91.2915 8.12351 91.3883 10.7508H97.3304C97.3304 10.7508 97.9906 16.4452 97.9494 19.2925H105.253C108.292 25.1927 111.739 30.8737 115.569 36.2937C117.608 36.2062 119.651 36.289 121.677 36.5413V37.5316C127.456 36.4456 133.162 34.9985 138.76 33.1988L143.918 38.3569C145.94 36.3349 150.397 32.7861 150.397 32.7861L154.523 36.9126C156.481 35.1385 158.534 33.4718 160.672 31.9196L164.427 36.9126C165.904 35.6513 167.477 34.5061 169.131 33.4876C177.569 48.0852 182.71 64.3528 184.193 81.1484C185.898 96.2549 185.565 111.522 183.202 126.54C183.245 127.268 183.245 127.998 183.202 128.727C183.93 128.676 184.661 128.676 185.389 128.727C200.403 126.323 215.676 125.99 230.781 127.736C247.596 129.184 263.885 134.327 278.483 142.798C277.438 144.432 276.28 145.99 275.016 147.461L280.009 151.257C278.458 153.383 276.791 155.422 275.016 157.364L279.143 161.491C279.143 161.491 275.594 165.947 273.572 167.969L278.73 173.127C276.725 179.453 275.14 185.905 273.985 192.439C275.469 193.835 276.849 195.338 278.111 196.937L277.451 197.721C282.323 201.007 287.379 204.01 292.595 206.717V214.021C295.484 214.021 301.137 214.64 301.137 214.64V221.16C303.776 221.279 306.407 221.541 309.018 221.944L308.152 228.175C310.083 228.321 312 228.61 313.888 229.041C309.561 245.347 301.685 260.495 290.821 273.401C281.304 285.34 270.197 295.92 257.809 304.845C257.304 305.373 256.766 305.869 256.2 306.33C256.766 306.791 257.304 307.287 257.809 307.816C270.188 316.752 281.293 327.33 290.821 339.259C301.685 352.165 309.561 367.313 313.888 383.619C312 384.05 310.083 384.34 308.152 384.485L309.018 390.716C306.407 391.119 303.776 391.381 301.137 391.5V397.566C301.137 397.566 295.484 398.185 292.595 398.185V405.489C287.363 408.182 282.305 411.2 277.451 414.526L278.111 415.269C276.859 416.877 275.479 418.381 273.985 419.767C275.135 426.303 276.721 432.754 278.73 439.079L273.902 443.989C275.924 446.011 279.473 450.468 279.473 450.468L275.346 454.594C277.122 456.537 278.788 458.576 280.339 460.701L275.346 464.498C276.61 465.969 277.768 467.527 278.813 469.161C264.215 477.632 247.926 482.775 231.111 484.222C216.006 485.968 200.733 485.635 185.719 483.232C185.005 483.283 184.288 483.283 183.574 483.232V485.419C185.942 500.436 186.275 515.704 184.564 530.81C183.108 547.624 177.966 563.911 169.502 578.512C167.839 577.508 166.265 576.362 164.798 575.087L161.043 580.08C158.905 578.528 156.853 576.861 154.895 575.087L150.768 579.214C150.768 579.214 146.312 575.665 144.29 573.643L139.132 578.801C133.533 577.001 127.827 575.554 122.048 574.468V575.5C120.02 575.718 117.979 575.787 115.941 575.706C112.111 581.126 108.663 586.807 105.625 592.707H98.3207C98.3207 595.555 97.7018 601.249 97.7018 601.249H91.6358C91.5391 603.876 91.2772 606.495 90.8518 609.089L84.6621 608.264C84.5 610.196 84.1965 612.113 83.7543 614C67.4521 609.665 52.3062 601.789 39.3947 590.933C27.4651 581.406 16.887 570.3 7.95099 557.921C7.95099 557.921 6.96063 556.931 6.46545 556.312C6.01468 556.875 5.53247 557.412 5.02118 557.921C-3.92618 570.29 -14.503 581.395 -26.4225 590.933C-39.3491 601.79 -54.5086 609.665 -70.8234 614C-71.2513 612.112 -71.5409 610.195 -71.6899 608.264L-77.8797 609.089C-78.3004 606.493 -78.5759 603.876 -78.7049 601.249H-84.7296C-84.7296 601.249 -85.3898 595.555 -85.3486 592.707H-92.6524C-95.6913 586.807 -99.1384 581.126 -102.969 575.706C-105.007 575.786 -107.048 575.717 -109.076 575.5V574.468C-114.868 575.558 -120.587 577.005 -126.201 578.801L-131.359 573.643C-133.339 575.665 -137.837 579.214 -137.837 579.214L-141.964 575.087C-143.898 576.872 -145.937 578.54 -148.071 580.08L-151.826 575.087C-153.301 576.352 -154.874 577.498 -156.53 578.512C-165.196 564.028 -170.564 547.811 -172.252 531.017C-173.998 515.912 -173.665 500.639 -171.262 485.625V483.438C-171.99 483.489 -172.721 483.489 -173.449 483.438C-188.462 485.846 -203.736 486.179 -218.84 484.429C-235.657 482.986 -251.946 477.843 -266.542 469.367C-265.49 467.702 -264.317 466.116 -263.034 464.622L-268.028 460.825C-266.501 458.721 -265.263 457.277 -263.034 454.718L-267.161 450.592C-267.161 450.592 -263.612 446.135 -261.549 444.113L-266.707 438.955C-264.689 432.636 -263.117 426.183 -262.003 419.643C-263.476 418.236 -264.854 416.733 -266.129 415.145L-264.272 412.958L-263.942 412.628L-259.321 406.851C-265.634 406.315 -271.329 405.778 -275.827 405.283C-275.373 405.696 -268.729 409.74 -264.025 412.546L-264.355 412.876L-265.51 414.32C-270.38 410.995 -275.451 407.977 -280.696 405.283V397.979C-283.543 397.979 -289.196 397.36 -289.196 397.36V391.294C-291.824 391.197 -294.442 390.936 -297.037 390.51L-296.17 384.32C-298.113 384.141 -300.043 383.838 -301.947 383.413C-297.598 367.107 -289.708 351.961 -278.839 339.053L-278.921 339.094ZM-286.473 217.446V223.099C-286.473 223.099 -293.57 223.718 -293.859 223.842L-293.116 227.102C-291.837 227.721 -269.018 226.359 -242.856 224.626L-250.614 215.424L-286.473 217.446ZM-277.642 214.103C-277.229 214.434 -267.243 213.815 -252.883 212.783L-257.01 208.037C-264.018 208.381 -271.003 209.111 -277.931 210.225L-277.642 214.103ZM-264.025 199.702L-264.832 200.195C-265.414 200.549 -266.017 200.917 -266.629 201.29C-270.847 203.86 -275.453 206.666 -275.827 207.006C-271.246 206.469 -265.552 205.933 -259.321 205.396L-264.025 199.702ZM-258.825 195.575L-258.85 195.602L-258.825 195.699V195.575ZM-258.85 195.602L-260.724 197.598L-200.807 267.748C-198.607 270.32 -196.42 272.901 -194.233 275.482C-189.859 280.645 -185.484 285.808 -181 290.897C-181.408 289.001 -181.695 286.681 -181.995 284.252V284.252L-181.995 284.251C-182.303 281.765 -182.625 279.164 -183.105 276.785C-184.054 272.08 -184.92 267.252 -184.92 267.252C-185.655 266.286 -191.091 260.178 -198.897 251.408L-198.898 251.406C-217.418 230.599 -249.274 194.808 -263.323 177.13C-263.323 177.998 -259.208 194.195 -258.85 195.602ZM-262.498 173.334C-262.828 174.819 -204.356 241.709 -184.095 264.611C-168.316 250.67 -150.882 238.723 -132.184 229.041C-150.702 235.039 -168.113 244.03 -183.724 255.657C-198.412 240.601 -221.814 213.593 -238.723 194.079L-238.726 194.076L-238.727 194.075L-238.727 194.074C-250.318 180.697 -258.857 170.843 -259.444 170.775L-262.498 173.334ZM-138.044 36.7888L-142.17 40.6677C-142.17 40.6677 -147.617 36.046 -147.906 35.9222L-149.68 38.7695C-149.226 40.1312 -132.101 55.2754 -112.542 72.5653L-111.552 60.5572L-138.044 36.7888ZM-126.902 37.7378L-126.943 37.7844C-121.221 41.8204 -115.751 46.2007 -110.561 50.9013L-111.098 57.1323C-121.868 47.7652 -129.419 41.1629 -129.419 40.6264L-126.943 37.7844L-127.067 37.6967L-126.902 37.7378ZM-123.271 36.8713C-119.64 39.7186 -115.266 43.3499 -110.438 47.4351L-109.819 40.0487C-115.1 38.7282 -122.693 36.8713 -123.271 36.8713ZM-103.092 40.6677H-105.857C-106.826 52.9275 -107.843 65.2023 -108.861 77.4797C-111.224 105.989 -113.589 134.512 -115.348 162.894C-114.301 161.252 -112.856 159.395 -111.343 157.451L-111.343 157.451C-109.814 155.487 -108.216 153.434 -106.889 151.422L-101.401 143.417C-101.245 142.221 -100.791 134.381 -100.137 123.075L-100.136 123.073L-100.136 123.071L-100.136 123.06C-98.5323 95.367 -95.7256 46.8899 -93.1476 24.2443C-93.8078 24.9045 -103.134 40.5439 -103.134 40.5439L-103.092 40.6677ZM-86.05 22.4287L-89.8876 22.1398C-91.2081 23.0063 -97.1503 111.643 -99.131 142.014C-78.0998 143.315 -57.31 147.21 -37.2339 153.609C-54.548 144.715 -73.2203 138.76 -92.4873 135.989C-92.1564 115.705 -89.7531 81.7685 -87.9469 56.2633L-87.9468 56.2614L-87.9467 56.259L-87.9463 56.2538L-87.9462 56.2526C-86.6002 37.2446 -85.5859 22.922 -86.0088 22.4287H-86.05ZM101.911 22.1398L98.0319 22.4287C97.6317 22.9158 98.6253 36.8856 99.9518 55.5359L99.9519 55.5373C101.772 81.1212 104.218 115.512 104.552 135.989C85.2716 138.76 66.5856 144.714 49.257 153.609C69.3342 147.214 90.1235 143.32 111.154 142.014C109.215 111.643 103.231 23.0063 101.952 22.1398H101.911ZM117.921 40.6677H115.198C115.198 40.6677 105.831 25.0283 105.212 24.3681C107.877 47.5166 110.76 97.7002 112.33 125.034V125.034C112.923 135.365 113.329 142.432 113.465 143.541L118.953 151.546C120.246 153.566 121.795 155.585 123.263 157.498L123.263 157.499L123.263 157.499L123.264 157.499L123.264 157.5L123.264 157.5C124.795 159.495 126.237 161.375 127.206 163.018C125.469 135.002 123.124 106.85 120.779 78.7083L120.779 78.7045C119.725 66.06 118.672 53.4178 117.674 40.7915L117.921 40.6677ZM121.8 40.0487L122.419 47.4351C127.289 43.3086 131.663 39.7186 135.294 36.8713C134.675 36.8713 127.041 38.7282 121.8 40.0487ZM139.09 37.6554C133.333 41.7428 127.822 46.1658 122.584 50.9013L123.08 57.091C133.891 47.7239 141.401 41.1216 141.442 40.5851L139.09 37.6554ZM160.094 35.881C159.764 35.881 154.317 40.6264 154.317 40.6264L150.191 36.7062L123.657 60.2272L124.854 72.3177C144.537 55.0278 161.662 39.8836 161.992 38.5219L160.094 35.881ZM271.88 170.528C271.221 170.528 261.602 181.627 248.902 196.282C232.195 215.56 210.155 240.992 196.159 255.409C180.558 243.766 163.145 234.774 144.62 228.794C163.317 238.476 180.752 250.422 196.531 264.364C216.668 241.503 274.934 174.572 274.934 173.086L271.88 170.528ZM275.635 176.883C261.586 194.561 229.73 230.351 211.21 251.159C203.403 259.93 197.966 266.038 197.232 267.005C197.232 267.005 196.283 272.287 195.458 276.537C195.075 278.507 194.773 280.858 194.472 283.196C194.123 285.902 193.777 288.591 193.312 290.649C198.402 284.872 203.374 279.001 208.335 273.142L208.338 273.139L208.339 273.137C209.932 271.256 211.525 269.375 213.119 267.5L273.036 197.35L271.179 195.328C271.179 195.328 275.635 177.667 275.677 176.759L275.635 176.883ZM276.378 199.619L276.364 199.636C281.026 202.441 287.685 206.47 288.097 206.882C283.558 206.387 277.905 205.85 271.591 205.314L276.364 199.636L276.337 199.619H276.378ZM269.322 207.872L265.154 212.907C279.432 213.897 289.418 214.557 289.913 214.227L290.202 210.348C283.288 209.23 276.317 208.499 269.322 208.161V207.872ZM298.909 223.223V217.57L263.256 215.506L255.457 224.75C281.619 226.442 304.479 227.845 305.717 227.226L306.501 223.966C306.171 223.966 299.074 223.223 299.074 223.223H298.909ZM276.502 412.669C281.165 409.863 287.85 405.819 288.262 405.407C283.682 405.902 278.029 406.438 271.756 406.975L276.502 412.669ZM290.367 402.147L290.078 398.268C289.707 397.938 279.72 398.557 265.319 399.588L269.446 404.334C276.441 403.996 283.412 403.266 290.326 402.147H290.367ZM271.261 416.961L273.118 414.939L213.202 344.789C211.451 342.73 209.704 340.666 207.956 338.6L207.954 338.598L207.952 338.596L207.951 338.594L207.949 338.592L207.948 338.591L207.948 338.591L207.945 338.587L207.943 338.586L207.943 338.585C203.142 332.913 198.333 327.232 193.436 321.639C193.844 323.536 194.131 325.856 194.431 328.285C194.739 330.772 195.06 333.372 195.54 335.752C196.49 340.456 197.315 345.284 197.315 345.284C198.026 346.205 203.008 351.799 210.238 359.918C228.587 380.522 261.421 417.391 275.718 435.447C275.718 434.498 271.22 416.837 271.22 416.837L271.261 416.961ZM274.893 439.203C275.181 437.717 216.751 370.786 196.49 347.925C180.711 361.867 163.276 373.813 144.579 383.495C163.104 377.515 180.517 368.522 196.118 356.879C210.681 371.831 233.81 398.517 250.683 417.986L250.685 417.988L250.685 417.989L250.687 417.991C262.499 431.619 271.244 441.71 271.839 441.761L274.893 439.203ZM150.314 576.036L154.441 572.116C154.441 572.116 159.888 576.738 160.218 576.862L161.992 574.014C161.497 572.694 144.413 557.509 124.854 540.219L123.822 552.227L150.314 576.036ZM139.214 575.087L139.277 575.014C133.566 570.935 128.089 566.537 122.873 561.841L123.368 555.652C134.18 565.019 141.731 571.621 141.731 572.158L139.277 575.014L139.379 575.087H139.214ZM135.583 575.871C131.951 573.024 127.577 569.393 122.708 565.308L122.089 572.694C127.412 574.014 134.964 575.871 135.583 575.871ZM115.404 572.075H118.128C119.126 559.448 120.179 546.806 121.233 534.161C123.577 506.019 125.923 477.865 127.66 449.849C126.733 451.284 125.495 452.903 124.191 454.608L124.19 454.61L124.188 454.612L124.188 454.612C122.531 456.778 120.769 459.081 119.407 461.32L113.919 469.326C113.763 470.522 113.309 478.361 112.655 489.668C111.052 517.359 108.244 565.849 105.666 588.498C106.285 587.838 115.652 572.199 115.652 572.199L115.404 572.075ZM98.5683 590.314L102.406 590.603C103.685 589.736 109.669 501.1 111.608 470.729C90.5774 469.423 69.7881 465.528 49.7109 459.133C67.0446 468.024 85.7275 473.992 105.006 476.795C104.675 497.05 102.273 530.964 100.467 556.462L100.467 556.463L100.467 556.464L100.466 556.465C99.1194 575.484 98.104 589.82 98.5271 590.314H98.5683ZM-89.3925 590.603L-85.5549 590.314C-85.1318 589.82 -86.1472 575.483 -87.4943 556.464L-87.4944 556.463C-89.3004 530.964 -91.7025 497.05 -92.0334 476.795C-72.7684 473.992 -54.0991 468.024 -36.78 459.133C-56.8561 465.533 -77.6459 469.427 -98.6771 470.729C-96.6964 501.1 -90.7542 589.736 -89.4337 590.603H-89.3925ZM-105.444 572.075H-102.68C-102.68 572.075 -93.3539 587.714 -92.6937 588.375C-95.3588 565.227 -98.2413 515.045 -99.8113 487.711L-99.8114 487.71L-99.8115 487.709C-100.405 477.378 -100.811 470.311 -100.947 469.202L-106.435 461.197C-107.871 458.953 -109.625 456.708 -111.264 454.61C-112.639 452.85 -113.934 451.193 -114.894 449.725C-113.196 477.119 -110.915 504.645 -108.636 532.163C-107.536 545.433 -106.437 558.701 -105.403 571.951L-105.444 572.075ZM-109.53 572.694L-110.149 565.308C-114.977 569.434 -119.351 573.024 -122.982 575.871C-122.404 575.871 -114.729 574.014 -109.53 572.694ZM-126.778 575.087C-121.031 570.987 -115.52 566.565 -110.272 561.841L-110.809 555.652C-121.579 565.019 -129.089 571.621 -129.13 572.158L-126.778 575.087ZM-147.782 576.862C-147.493 576.862 -142.046 572.116 -142.046 572.116L-137.92 576.036L-111.263 552.227L-112.253 540.219C-131.978 557.467 -149.103 572.694 -149.391 574.014L-147.782 576.862ZM-259.444 442.008C-258.805 442.008 -249.252 430.985 -236.615 416.403C-219.894 397.107 -197.773 371.582 -183.765 357.127C-168.144 368.763 -150.719 377.755 -132.184 383.743C-150.901 374.073 -168.351 362.125 -184.136 348.173C-204.232 371.033 -262.539 437.965 -262.539 439.45L-259.444 442.008ZM-260.559 415.063L-258.702 417.085C-258.702 417.085 -263.158 434.746 -263.2 435.695C-249.119 417.949 -217.156 382.033 -198.654 361.244L-198.652 361.242L-198.652 361.241C-190.911 352.543 -185.527 346.493 -184.797 345.532C-184.797 345.532 -183.847 340.291 -182.981 335.999C-182.554 333.887 -182.238 331.366 -181.928 328.897L-181.928 328.896L-181.928 328.894V328.894C-181.608 326.347 -181.295 323.856 -180.876 321.928C-202.02 345.824 -222.732 370.33 -243.471 394.868L-243.472 394.869L-243.473 394.87L-243.473 394.871L-243.474 394.872L-243.477 394.875C-249.165 401.606 -254.856 408.339 -260.559 415.063ZM-256.886 404.458L-252.76 399.712C-266.996 398.722 -276.982 398.062 -277.518 398.392L-277.807 402.271C-270.879 403.384 -263.895 404.115 -256.886 404.458ZM-242.897 387.952L-243.007 387.945L-250.82 397.195L-286.514 395.132V389.479C-286.514 389.479 -293.612 388.777 -293.9 388.777L-293.158 385.476C-291.88 384.899 -269.123 386.256 -243.007 387.945L-242.52 387.368L-241.082 385.146C-259.857 384.032 -278.014 382.876 -298.646 381.556C-295.427 367.98 -286.308 353.289 -275.414 339.094C-270.504 333.117 -265.226 327.453 -259.609 322.134C-254.286 316.688 -247.395 310.663 -241.907 309.342C-236.854 308.461 -231.724 308.101 -226.598 308.269C-212.214 308.269 -197.864 308.003 -183.667 307.739L-183.596 307.738C-182.014 307.709 -180.433 307.679 -178.854 307.651H-178.84L-180.506 309.26L-176.784 312.616L-178.566 311.653L-242.52 387.368L-242.897 387.952ZM-140.814 345.048L-165.659 322.647C-169.692 320.592 -173.636 318.634 -177.451 316.811C-177.919 318.798 -177.806 320.877 -177.126 322.801C-176.445 324.725 -175.226 326.413 -173.614 327.664C-164.776 332.685 -155.888 337.268 -147.088 341.806L-147.087 341.806C-144.99 342.888 -142.899 343.966 -140.814 345.048ZM-122.199 361.831L-130.299 354.528C-148.515 345.626 -167.031 336.184 -179.886 327.911C-180.479 329.361 -180.493 330.982 -179.925 332.441C-179.357 333.901 -178.25 335.086 -176.832 335.752C-159.662 347.757 -141.397 358.112 -122.283 366.68L-122.199 361.831ZM-122.591 384.4L-122.354 370.769C-139.043 364.082 -154.972 355.609 -169.859 345.49L-180.505 338.021L-181.826 346.811C-180.876 347.677 -176.956 351.185 -175.925 352.051C-160.344 366.155 -142.235 377.124 -122.591 384.4ZM-128.677 387.91C-126.687 388.42 -124.687 388.882 -122.676 389.295L-122.743 393.121C-139.011 392.397 -157.866 389.19 -174.439 380.276C-175.602 379.836 -176.768 379.425 -177.937 379.014L-177.937 379.014L-177.937 379.013L-177.938 379.013L-177.938 379.013L-177.938 379.013C-180.377 378.155 -182.823 377.294 -185.25 376.15C-191.834 383.584 -200.935 394 -210.564 405.021L-210.567 405.024L-210.568 405.025C-233.651 431.444 -259.773 461.34 -261.549 461.981L-264.396 460.165C-264.272 459.876 -259.651 454.429 -259.651 454.429L-263.53 450.303L-184.466 361.666C-183.329 362.601 -182.176 363.351 -181.017 364.104L-181.017 364.104L-181.016 364.105C-180.284 364.581 -179.548 365.059 -178.813 365.586C-165.141 374.521 -150.277 381.48 -134.66 386.26L-134.107 386.42C-132.391 386.917 -130.5 387.464 -128.677 387.91ZM-184.632 381.267C-165.419 391.099 -144.301 396.521 -122.813 397.194L-123.448 433.721L-125.623 435.86C-137.012 446.795 -148.484 457.813 -159.79 469.119C-163.305 472.871 -167.19 476.258 -171.385 479.229C-176.172 482.159 -185.292 482.696 -192.926 482.696C-200.665 482.878 -208.409 482.602 -216.117 481.87C-233.695 479.518 -250.779 475.516 -262.581 468.253C-258.907 464.089 -255.346 460.047 -251.858 456.088L-251.819 456.044L-251.776 455.995L-251.773 455.992L-251.772 455.99C-229.751 430.995 -210.643 409.307 -184.632 381.267ZM-178.896 304.679H-175.763L-163.257 292.604L-178.731 300.966L-241.082 227.184C-254.071 227.955 -266.862 228.765 -280.276 229.615L-280.303 229.617L-280.338 229.619L-280.339 229.619C-286.295 229.996 -292.373 230.381 -298.646 230.774C-295.427 244.227 -286.267 259.041 -275.414 273.236C-270.495 279.217 -265.217 284.895 -259.609 290.237C-254.245 295.642 -247.23 301.667 -241.907 303.029C-236.85 303.875 -231.722 304.22 -226.598 304.06C-212.296 304.06 -198.094 304.324 -183.96 304.586C-182.271 304.617 -180.583 304.649 -178.896 304.679ZM-177.616 295.808C-170.281 292.331 -162.461 288.334 -154.449 284.098L-133.046 263.431C-137.43 265.75 -141.851 268.03 -146.293 270.32L-146.294 270.32L-146.294 270.32L-146.294 270.32L-146.295 270.321L-146.295 270.321C-155.41 275.02 -164.614 279.766 -173.779 284.996C-175.396 286.234 -176.619 287.914 -177.301 289.833C-177.982 291.752 -178.092 293.827 -177.616 295.808ZM-180.051 284.707C-161.91 273.942 -143.29 264.009 -124.25 254.938L-124.097 254.79L-124.514 246.873C-142.879 255.256 -160.446 265.295 -176.997 276.867C-178.415 277.533 -179.522 278.718 -180.09 280.177C-180.658 281.637 -180.644 283.258 -180.051 284.707ZM-170.313 267.129C-156.013 257.419 -140.732 249.261 -124.729 242.785L-125.448 229.133C-144.139 236.474 -161.394 247.112 -176.379 260.567C-177.41 261.434 -181.33 264.942 -182.279 265.808L-180.959 274.598L-170.313 267.129ZM-129.172 224.708C-128.036 224.419 -126.886 224.144 -125.724 223.882L-125.982 218.992C-141.353 220.003 -158.64 223.407 -174.026 231.682C-175.505 232.277 -176.99 232.809 -178.477 233.341L-178.477 233.341L-178.477 233.341L-178.478 233.341L-178.478 233.341L-178.479 233.341L-178.479 233.342C-180.602 234.101 -182.727 234.862 -184.838 235.809C-191.357 228.447 -200.346 218.161 -209.871 207.26C-233.024 180.764 -259.353 150.633 -261.136 150.019L-263.984 151.794C-263.984 152.082 -259.238 157.529 -259.238 157.529L-263.117 161.656L-184.632 250.581C-183.511 249.685 -182.375 248.938 -181.233 248.188L-181.232 248.187L-181.231 248.187L-181.231 248.187L-181.23 248.186L-181.23 248.186C-180.481 247.694 -179.73 247.2 -178.978 246.661C-165.385 237.873 -150.618 231.052 -135.114 226.4C-133.133 225.823 -130.987 225.204 -129.172 224.708ZM-184.26 230.733C-166.185 221.439 -146.412 216.022 -126.203 214.781L-128.224 176.387L-124.948 176.444L-125.21 176.181C-136.599 165.246 -148.112 154.187 -159.419 142.88C-162.934 139.129 -166.818 135.741 -171.014 132.771C-175.801 129.841 -184.92 129.263 -192.554 129.304C-200.294 129.121 -208.038 129.397 -215.745 130.13C-233.489 132.482 -250.407 136.526 -262.209 143.747C-258.507 147.943 -254.919 152.016 -251.405 156.005C-229.382 181.002 -210.274 202.691 -184.26 230.733ZM-123.312 173.994L-120.79 176.517L-102.736 176.83L-120.712 171.477L-112.459 75.2476C-117.495 70.8049 -122.498 66.3622 -127.557 61.8698L-127.558 61.8688C-136.595 53.8438 -145.811 45.6606 -155.705 37.0364C-162.926 48.8381 -166.97 65.9218 -169.281 83.5005C-170.051 91.2054 -170.34 98.9506 -170.148 106.691C-170.148 114.284 -169.611 123.404 -166.681 128.232C-163.698 132.417 -160.312 136.301 -156.571 139.827C-145.995 150.365 -135.671 161.12 -125.431 171.787L-123.312 173.994ZM-116.503 168.547C-108.402 171.388 -99.5347 174.229 -90.3616 177.045L-60.6547 177.561C-66.1198 175.903 -71.5742 174.163 -77.0558 172.414L-77.0601 172.413C-86.5932 169.372 -96.2084 166.305 -106.105 163.595C-108.132 163.321 -110.195 163.643 -112.042 164.522C-113.889 165.402 -115.439 166.8 -116.503 168.547ZM-110.396 158.932C-89.8312 164.157 -69.5202 170.328 -49.528 177.425L-44.1866 171.514C-63.1537 164.423 -82.7326 159.078 -102.68 155.549C-106.311 155.012 -107.755 154.971 -110.396 158.932ZM-91.0018 153.444C-73.9735 156.668 -57.3466 161.694 -41.3999 168.429L-32.2617 158.316C-50.7179 150.25 -70.5014 145.557 -90.6717 144.49L-98.5533 144.036L-103.794 151.175L-91.0018 153.444ZM-31.952 152.495C-30.8803 153.13 -29.8183 153.781 -28.7665 154.447L-25.7829 151.145C-37.4122 140.884 -52.2923 130.792 -69.1728 125.714C-70.4824 125.157 -71.7535 124.567 -73.0223 123.979C-75.2317 122.953 -77.4338 121.931 -79.8191 121.093C-79.2336 111.537 -78.3456 98.3654 -77.4005 84.3452C-75.0151 48.9619 -72.2654 8.17337 -73.0929 6.45922L-76.3528 5.67518C-76.3528 6.0053 -77.0956 13.1028 -77.0956 13.1028H-82.7489L-89.5163 131.698C-88.0916 131.845 -86.7839 132.124 -85.4713 132.404C-84.5789 132.594 -83.6841 132.785 -82.7489 132.936C-66.9172 136.275 -51.6361 141.831 -37.3577 149.442L-31.952 152.495ZM-75.8577 117.998C-56.3067 124.247 -38.3236 134.522 -23.0479 148.118L2.75046 119.566L4.48477 121.354V121.175C4.15466 105.371 3.82452 89.4427 3.82452 73.4319C3.98416 68.3074 3.63861 63.1795 2.79291 58.1226C1.47244 52.6344 -4.59351 45.7433 -9.99918 40.4201C-15.3412 34.8128 -21.0186 29.5349 -27.0002 24.6157C-41.1953 13.7218 -55.8855 4.60226 -69.4616 1.38361C-69.7877 6.55885 -70.1077 11.5893 -70.4214 16.5195C-72.5688 50.2717 -74.4174 79.3281 -75.8577 117.998ZM7.41452 121.093V124.374L32.8336 150.579C48.4659 135.829 67.1997 124.686 87.7157 117.998C86.2755 79.3277 84.4268 50.2711 82.2794 16.5185C81.9657 11.5886 81.6457 6.55849 81.3197 1.38361C67.8674 4.60226 53.0534 13.7631 38.8583 24.6157C32.8814 29.5254 27.2171 34.8039 21.8985 40.4201C16.4515 45.7846 10.4269 52.7995 9.10641 58.1226C8.24017 63.177 7.8945 68.307 8.07477 73.4319C8.07477 86.5958 7.82242 99.7315 7.57193 112.77C7.51855 115.549 7.46527 118.323 7.41452 121.093ZM81.1546 126.292C63.2286 131.683 47.6964 142.66 35.7262 153.561L38.5325 156.453C40.304 155.282 42.105 154.155 43.9338 153.073L49.2983 150.019C63.5797 142.416 78.8598 136.859 94.6895 133.513C95.6194 133.364 96.5159 133.174 97.4113 132.985C98.7409 132.704 100.068 132.423 101.498 132.275L94.6895 13.6806H89.0362C89.0362 13.6806 88.4585 6.58307 88.3347 6.25295L85.0335 7.03686C84.2404 8.74052 86.96 49.0418 89.3374 84.2726L89.3375 84.2737V84.274L89.3376 84.2744L89.3377 84.2755V84.2757C90.3001 98.5373 91.2064 111.968 91.8009 121.67C89.4156 122.509 87.2135 123.531 85.0042 124.556C83.7354 125.145 82.4642 125.735 81.1546 126.292ZM102.654 145.067C81.6181 146.122 61.0132 151.191 41.9393 159.966L51.4642 169.785C68.0053 162.683 85.2793 157.396 102.984 154.022L115.776 151.752L110.494 144.614L102.654 145.067ZM114.662 156.126C94.078 159.766 73.8858 165.337 54.3519 172.762L57.5088 176.016L69.4104 175.421C88.2849 168.942 107.638 162.686 122.337 159.51C119.696 155.384 118.21 155.384 114.662 156.126ZM116.833 173.05L83.6101 174.711C85.3526 174.157 87.0969 173.601 88.8442 173.043L88.8605 173.038C98.4347 169.981 108.098 166.896 118.045 164.173C120.072 163.898 122.135 164.22 123.982 165.1C125.829 165.979 127.38 167.378 128.444 169.125C124.723 170.434 120.838 171.743 116.833 173.05ZM-123.523 438.055L-125.539 440.155L-125.541 440.158L-125.542 440.158L-125.542 440.158L-125.542 440.158L-125.542 440.159C-135.786 450.83 -146.117 461.592 -156.737 472.173C-160.467 475.708 -163.853 479.591 -166.846 483.769C-169.776 488.596 -170.313 497.716 -170.313 505.309C-170.505 513.049 -170.216 520.795 -169.446 528.499C-167.135 546.243 -163.091 563.203 -155.87 574.964C-150.794 570.484 -145.896 566.175 -141.109 561.963C-131.343 553.37 -122.04 545.184 -112.625 536.794L-120.878 440.523L-119.17 440.015L-123.561 440.234L-123.523 438.055ZM-103.617 439.237C-108.073 440.681 -112.389 442.129 -116.503 443.577C-115.402 445.234 -113.849 446.542 -112.028 447.346C-110.208 448.15 -108.196 448.417 -106.229 448.116C-96.2712 445.39 -86.5855 442.301 -76.9904 439.242L-76.946 439.228L-76.7774 439.174C-75.1866 438.667 -73.5983 438.16 -72.0116 437.657L-103.617 439.237ZM-110.52 452.779C-95.8371 449.613 -76.5722 443.385 -57.7632 436.944L-45.1579 436.314L-42.1821 439.394C-61.8115 446.886 -82.1094 452.501 -102.804 456.162C-106.394 456.699 -107.838 456.905 -110.52 452.779ZM-91.1256 458.514C-73.2532 455.113 -55.8208 449.753 -39.1418 442.54L-29.6563 452.356C-48.8478 461.257 -69.6027 466.4 -90.7955 467.469L-98.6771 467.923L-103.918 460.784L-91.1256 458.514ZM-32.0758 459.464C-30.1198 458.301 -28.1949 457.088 -26.3029 455.826L-23.5516 458.673C-35.5791 469.673 -51.2047 480.803 -69.2966 486.244C-70.6053 486.801 -71.8756 487.39 -73.1435 487.979L-73.1443 487.979L-73.1461 487.98L-73.1468 487.98C-75.356 489.005 -77.5579 490.027 -79.9429 490.866C-79.3574 500.422 -78.4695 513.593 -77.5243 527.613C-75.1389 562.997 -72.3892 603.785 -73.2167 605.5L-76.4766 606.283C-76.6004 605.953 -77.2194 598.856 -77.2194 598.856H-82.8727L-89.6401 480.261C-88.2155 480.114 -86.9078 479.835 -85.5954 479.555C-84.7028 479.364 -83.808 479.173 -82.8727 479.023C-67.0392 475.69 -51.7572 470.133 -37.4814 462.517L-32.0758 459.464ZM-75.9814 494.043C-55.3431 487.452 -36.4771 476.352 -20.7286 461.595L4.36099 487.559V490.949C4.03085 506.712 3.70074 522.64 3.70074 538.609C3.86093 543.748 3.51541 548.889 2.6691 553.96C1.34863 559.242 -4.71729 566.257 -10.123 571.621C-15.451 577.228 -21.1147 582.506 -27.0828 587.426C-41.3191 598.319 -56.1332 607.48 -69.5855 610.699C-69.8557 606.407 -70.1212 602.215 -70.3821 598.097L-70.4099 597.658L-70.4133 597.604C-72.6097 562.94 -74.4754 533.495 -75.9814 494.043ZM7.29074 490.99V490.59L9.31152 492.682L35.0505 464.28C50.2722 477.754 68.158 487.946 87.5919 494.167C86.1846 531.953 84.3874 560.56 82.3281 593.338L82.328 593.339L82.3253 593.383C81.9701 599.035 81.6072 604.812 81.2372 610.781C67.6198 607.563 52.9295 598.443 38.7344 587.549C32.757 582.64 27.0927 577.362 21.7746 571.745C16.369 566.422 10.3031 559.531 8.9826 554.042C8.11639 548.988 7.77072 543.858 7.95099 538.733C7.95099 525.558 7.69949 512.439 7.44949 499.399L7.4494 499.397L7.44931 499.39C7.39554 496.586 7.34186 493.786 7.29074 490.99ZM80.9483 486.451C64.1554 481.409 49.3883 471.425 37.8052 461.24L40.8174 457.917C41.7661 458.513 42.7224 459.098 43.6863 459.67C44.8217 460.356 45.974 460.992 47.1324 461.631C47.7843 461.991 48.4381 462.352 49.0919 462.723C63.3697 470.335 78.651 475.892 94.4831 479.229C95.413 479.379 96.3095 479.568 97.2048 479.758L97.2053 479.758L97.2056 479.758C98.535 480.039 99.8618 480.319 101.292 480.467L94.5244 599.062H88.8298C88.8298 599.062 88.1283 606.16 88.1283 606.49L84.8684 605.706C84.0409 603.992 86.7906 563.203 89.176 527.82L89.1763 527.815L89.1781 527.789L89.1794 527.769L89.1808 527.75L89.1817 527.736C90.1247 513.747 91.0103 500.609 91.5946 491.072C89.2093 490.234 87.0072 489.212 84.7978 488.186L84.796 488.185L84.7946 488.185C83.5269 487.597 82.2568 487.007 80.9483 486.451ZM102.406 467.675C82.3681 466.615 62.712 461.976 44.3597 454.008L53.9573 443.417C69.7768 450.07 86.2651 455.036 103.149 458.226L115.941 460.495L110.246 468.129L102.406 467.675ZM114.827 456.369C95.0161 452.794 75.5746 447.43 56.7408 440.346L61.9541 434.593C81.8425 441.647 102.046 447.785 122.502 452.985C119.861 456.946 118.458 456.905 114.827 456.369ZM74.2207 434.794C79.1499 436.305 84.0759 437.877 89.0257 439.457L89.027 439.458L89.0288 439.458C98.602 442.514 108.264 445.599 118.21 448.322C120.237 448.597 122.3 448.275 124.147 447.395C125.994 446.516 127.545 445.117 128.609 443.37C120.941 440.675 112.576 437.98 103.911 435.309L74.2207 434.794ZM133.107 440.441L116.267 435.524L133.56 435.824L135.665 437.965C137.042 439.393 138.42 440.825 139.8 442.258L139.82 442.279C149.393 452.222 159.049 462.251 168.925 472.091C172.676 475.605 176.064 479.49 179.035 483.686C182.006 488.72 182.501 497.633 182.501 505.226C182.726 512.966 182.45 520.712 181.675 528.417C179.323 545.996 175.321 563.121 168.099 574.881C158.191 566.161 148.993 558.034 139.975 550.065C134.909 545.59 129.9 541.164 124.854 536.711L133.107 440.441ZM142.403 440.119C140.941 438.711 139.481 437.305 138.024 435.902L140.368 435.943L138.329 397.2C158.705 396.003 178.647 390.562 196.861 381.184C223.36 409.75 242.726 431.723 265.281 457.315L265.331 457.372L265.371 457.418C268.462 460.925 271.613 464.5 274.851 468.17C263.05 475.392 246.09 479.436 228.346 481.788C220.653 482.521 212.922 482.796 205.196 482.613C197.562 482.654 188.443 482.077 183.615 479.147C179.433 476.174 175.562 472.787 172.061 469.037C162.262 459.239 152.278 449.626 142.403 440.119ZM186.751 380.483C171.514 387.915 154.976 392.21 138.116 393.153L137.871 388.485C139.079 388.214 140.283 387.926 141.484 387.622C143.299 387.126 145.445 386.507 147.426 385.93C162.901 381.271 177.64 374.45 191.208 365.669C191.989 365.108 192.771 364.596 193.553 364.084C194.669 363.353 195.786 362.622 196.902 361.749L275.965 450.385L271.839 454.512C271.839 454.512 276.584 459.959 276.584 460.248L273.737 462.022C271.934 461.401 245.028 430.619 221.731 403.964L221.728 403.962C212.497 393.4 203.833 383.488 197.521 376.356C195.563 377.212 193.605 377.92 191.646 378.628C190.015 379.218 188.383 379.808 186.751 380.483ZM188.814 351.763C173.756 365.294 156.402 375.98 137.599 383.331L136.886 369.771C152.989 363.228 168.364 354.994 182.748 345.201C183.749 344.476 184.628 343.862 186.019 342.891L186.022 342.889C187.558 341.816 189.718 340.308 193.353 337.733L194.715 346.522L188.814 351.763ZM189.763 335.463C173.03 347.163 155.258 357.295 136.673 365.733L136.253 357.751C155.556 348.577 174.43 338.524 192.817 327.623C193.41 329.072 193.424 330.693 192.856 332.153C192.287 333.612 191.18 334.797 189.763 335.463ZM160.395 341.129C155.047 343.907 149.761 346.652 144.58 349.482L166.603 328.201C174.602 323.974 182.406 319.99 189.722 316.522C190.196 318.513 190.082 320.598 189.393 322.524C188.704 324.451 187.471 326.136 185.843 327.375C177.326 332.336 168.785 336.772 160.395 341.129ZM187.87 307.651L175.358 319.74L190.878 311.364L253.154 385.135C271.869 384.024 290.183 382.872 310.752 381.556C307.533 368.103 298.372 353.289 287.478 339.094C282.586 333.102 277.321 327.424 271.715 322.093C266.351 316.688 259.336 310.663 254.013 309.342C248.946 308.461 243.802 308.101 238.662 308.269C224.346 308.269 210.063 308.004 195.903 307.741L195.9 307.741C194.266 307.711 192.633 307.68 191.001 307.651H187.87ZM255.279 387.653L253.154 385.135L252.981 385.146L255.127 387.663L255.279 387.653ZM255.279 387.653C281.377 385.966 304.152 384.569 305.387 385.187L306.171 388.447C305.841 388.571 298.744 389.19 298.744 389.19V394.843L263.091 396.906L255.279 387.653ZM195.867 304.587C194.225 304.618 192.585 304.648 190.945 304.678L192.609 303.07L189.414 300.175L190.878 300.966L252.94 227.184C265.148 227.902 277.048 228.655 289.491 229.442C296.351 229.875 303.377 230.32 310.71 230.774C307.492 244.35 298.372 259.041 287.437 273.236C282.545 279.228 277.28 284.906 271.674 290.237C266.351 295.642 259.46 301.667 253.971 302.988C248.905 303.869 243.761 304.229 238.621 304.06C224.293 304.06 210.032 304.325 195.867 304.587ZM154.396 268.444L178.915 290.662C182.622 292.54 186.249 294.334 189.763 296.014C190.239 294.03 190.126 291.95 189.437 290.03C188.748 288.109 187.513 286.431 185.885 285.202C176.844 280.03 167.738 275.331 158.715 270.675L158.712 270.674L158.704 270.669C157.265 269.927 155.829 269.186 154.396 268.444ZM143.469 258.543C160.038 266.712 176.293 275.508 192.198 284.914C192.791 283.465 192.805 281.843 192.237 280.384C191.668 278.925 190.561 277.74 189.144 277.073C171.994 265.082 153.753 254.738 134.664 246.176L134.591 250.499L143.469 258.543ZM182.129 267.335C167.274 257.238 151.383 248.78 134.733 242.099L134.967 228.182C154.587 235.557 172.659 246.608 188.195 260.774L194.096 266.014L192.734 274.804C189.097 272.227 186.936 270.718 185.4 269.646L185.399 269.645L185.395 269.643C184.007 268.673 183.128 268.06 182.129 267.335ZM141.36 224.708C139.268 224.181 137.164 223.704 135.05 223.276L135.119 219.159C151.313 219.928 169.977 223.127 186.421 231.971C187.535 232.389 188.646 232.78 189.753 233.169L189.754 233.169L189.754 233.17L189.755 233.17L189.755 233.17L189.756 233.17L189.756 233.17L189.756 233.17L189.756 233.17L189.757 233.17L189.757 233.17C192.258 234.05 194.745 234.925 197.232 236.097C203.748 228.74 212.729 218.462 222.249 207.568L222.258 207.557L222.261 207.555L222.265 207.549L222.267 207.548C245.419 181.052 271.747 150.922 273.531 150.308L276.378 152.083C276.254 152.371 271.633 157.818 271.633 157.818L275.759 161.945L196.572 250.581C195.386 249.653 194.199 248.886 193.013 248.118C192.301 247.658 191.589 247.198 190.878 246.703C177.387 237.905 162.715 231.07 147.302 226.4C145.486 225.823 143.341 225.204 141.36 224.708ZM196.531 231.187C177.474 221.366 156.525 215.891 135.187 215.099L135.806 178.381L137.564 176.594C139.1 175.113 140.64 173.63 142.182 172.146L142.183 172.145C152.026 162.669 161.956 153.109 171.731 143.334C175.232 139.584 179.103 136.197 183.285 133.225C188.113 130.295 197.232 129.758 204.866 129.758C212.592 129.575 220.322 129.85 228.016 130.583C245.636 132.936 262.719 136.98 274.521 144.201C270.411 148.853 266.442 153.353 262.559 157.754C240.989 182.209 222.094 203.63 196.531 231.187ZM140.386 169.665C138.881 171.229 137.377 172.791 135.874 174.351L135.912 172.096L132.559 172.263L132.983 172.137L124.73 75.9077C136.321 65.5744 147.688 55.5771 159.984 44.7626C162.616 42.4484 165.289 40.0969 168.017 37.6967C175.238 49.4984 179.241 66.4168 181.593 84.1607C182.326 91.8678 182.602 99.6118 182.418 107.352C182.46 114.944 181.882 124.064 178.952 128.892C175.99 133.082 172.602 136.954 168.842 140.446C159.211 150.113 149.789 159.899 140.423 169.627L140.422 169.628L140.422 169.628L140.386 169.665ZM-41.0314 425.379L8.94016 477.001L57.0961 423.728L128.938 424.966L125.307 353.207L176.97 303.276L123.656 255.121L124.894 183.32L53.1759 186.91L3.24561 135.288L-44.9103 188.561L-116.711 187.323L-113.08 259.041L-164.743 308.971L-111.47 357.333L-112.708 429.134L-41.0314 425.379ZM8.98398 204.035L95.2686 225.947L9.35538 252.315C7.02686 253.066 4.56946 253.333 2.13406 253.099L-86.0899 224.544L-0.259308 204.365C1.45758 203.679 3.29822 203.356 5.14636 203.416C6.44748 203.45 7.73819 203.659 8.98398 204.035ZM52.48 243.567L14.3514 259.702C11.7597 260.503 9.05844 260.893 6.34601 260.857C3.8418 260.821 1.35513 260.432 -1.04037 259.702L-42.9653 243.196L-43.3367 267.047C-38.8297 271.808 -33.592 275.82 -27.8212 278.931C-17.4107 284.262 -5.79251 286.793 5.89209 286.276C19.4097 286.52 32.6617 282.507 43.7731 274.805C46.7701 272.601 49.5353 270.099 52.0261 267.336C52.0261 261.442 52.1645 255.548 52.3034 249.636L52.3038 249.619L52.3041 249.603C52.3507 247.621 52.3973 245.636 52.4387 243.65L52.48 243.567ZM37.864 293.867C44.6786 289.885 51.103 285.271 57.0522 280.084L56.9283 280.25C59.2509 287.152 58.9721 294.666 56.1443 301.377L56.1133 301.433C54.9151 303.582 53.0003 307.017 42.5682 314.953C35.4785 320.348 30.6319 323.197 26.8179 325.439C22.5515 327.946 19.5771 329.695 16.2 333.399C10.9094 339.431 7.44571 346.845 6.21399 354.774C6.15335 355.255 5.91821 355.697 5.5531 356.017C5.18802 356.336 4.71838 356.511 4.23328 356.507C3.83066 356.482 3.44409 356.34 3.1214 356.098C2.79871 355.856 2.55405 355.525 2.41763 355.145C0.421387 346.758 -3.53873 338.965 -9.13651 332.408C-14.7629 325.805 -21.8187 320.57 -29.7689 317.099C-30.6767 316.851 -46.8112 311.116 -49.7823 296.219C-50.76 290.936 -50.0527 285.48 -47.7603 280.621C-42.2943 286.637 -35.7958 291.626 -28.5722 295.352C-25.2206 297.082 -22.2736 298.228 -19.515 299.301C-14.9034 301.094 -10.818 302.683 -6.24796 306.453C-2.03659 309.918 1.43036 314.199 3.94443 319.038C7.31207 314.407 11.2808 310.244 15.7461 306.659C20.5323 302.846 24.4805 300.859 29.086 298.542C31.7072 297.224 34.5413 295.798 37.864 293.867ZM107.937 278.929C105.337 283.056 101.458 289.287 96.9601 296.962C91.5462 306.259 88.021 312.967 85.5685 317.633L85.5683 317.634C84.4505 319.76 83.5556 321.463 82.8063 322.794C77.2355 332.656 66.5892 345.655 44.0587 358.116C43.6369 354.953 44.0642 351.734 45.2967 348.791C46.7814 345.628 49.0376 342.889 51.8577 340.827C56.1914 337.098 59.0904 335.131 61.3465 333.6L61.3467 333.6C62.9358 332.522 64.206 331.66 65.4338 330.552C69.0239 327.333 72.9028 321.432 73.4392 309.919C69.6428 312.106 64.1134 315.366 57.4285 319.41C40.056 330.056 31.3904 335.38 26.8926 340.043C17.7952 349.829 11.8815 362.146 9.93277 375.365C8.08929 386.608 8.98099 398.129 12.5324 408.955C22.9674 405.241 32.9593 400.383 42.3256 394.471C63.028 381.348 80.0648 363.189 91.8433 341.693C102.23 322.391 107.754 300.848 107.937 278.929ZM-85.7633 296.962C-90.2612 289.287 -94.1401 283.056 -96.7398 278.929C-96.5608 300.807 -91.0812 322.315 -80.7703 341.611C-68.9963 363.11 -51.9586 381.269 -31.2527 394.388C-21.8516 400.339 -11.8175 405.224 -1.33572 408.955C2.258 398.138 3.15051 386.606 1.26398 375.365C-0.684723 362.146 -6.59848 349.829 -15.6958 340.043C-20.1937 335.38 -28.8593 330.056 -46.2318 319.41C-52.8754 315.366 -58.4461 312.106 -62.2012 309.919C-61.6648 321.432 -57.2495 327.869 -54.2371 330.552C-53.0157 331.639 -51.7603 332.489 -50.2096 333.539C-47.9361 335.079 -45.0278 337.049 -40.661 340.827C-37.8413 342.901 -35.5742 345.635 -34.0587 348.791C-32.8363 351.737 -32.4232 354.957 -32.862 358.116C-55.3925 345.655 -66.0388 332.656 -71.5683 322.794C-72.3112 321.475 -73.2012 319.79 -74.311 317.688C-76.7769 313.02 -80.3282 306.296 -85.7633 296.962Z" fill="#1268B3" fill-opacity="0.05"/>
</g>
</svg>
