<svg width="331" height="619" viewBox="0 0 331 619" fill="none" xmlns="http://www.w3.org/2000/svg">
<mask id="mask0_177_1896" style="mask-type:alpha" maskUnits="userSpaceOnUse" x="0" y="0" width="331" height="619">
<rect y="0.000244141" width="330.888" height="618.179" fill="#01325C" fill-opacity="0.05"/>
<rect y="0.000244141" width="330.888" height="618.179" fill="#E9EBEE"/>
</mask>
<g mask="url(#mask0_177_1896)">
<path fill-rule="evenodd" clip-rule="evenodd" d="M609.809 339.094C600.303 327.146 589.194 316.565 576.797 307.651C576.797 307.651 575.848 306.66 575.229 306.165C575.848 305.67 576.797 304.68 576.797 304.68C589.203 295.776 600.313 285.194 609.809 273.236C620.687 260.333 628.578 245.185 632.917 228.876C631.029 228.448 629.112 228.159 627.182 228.01L628.007 221.779C625.41 221.374 622.792 221.112 620.167 220.995V214.97C620.167 214.97 614.513 214.31 611.666 214.31V207.047C606.439 204.322 601.369 201.305 596.481 198.01L597.182 197.226C595.896 195.647 594.518 194.145 593.056 192.728C594.174 186.19 595.746 179.737 597.76 173.417L592.602 168.258C594.665 166.278 598.214 161.78 598.214 161.78L594.087 157.653C596.315 155.095 597.553 153.527 599.08 151.546L594.087 147.75C595.338 146.279 596.483 144.721 597.512 143.087C582.919 134.605 566.628 129.461 549.81 128.025C534.707 126.282 519.436 126.601 504.419 128.974C503.691 128.932 502.96 128.932 502.232 128.974V126.787C504.639 111.774 504.972 96.5006 503.222 81.3962C501.787 64.5783 496.643 48.2872 488.161 33.6942C486.52 34.7129 484.961 35.858 483.498 37.1191L479.701 32.1261C477.577 33.6796 475.539 35.3463 473.594 37.1191L469.468 32.9927C469.468 32.9927 464.97 36.5415 462.989 38.5634L457.749 33.1991C452.135 34.995 446.416 36.442 440.624 37.5318V36.5415C438.599 36.2883 436.556 36.2054 434.517 36.2939C430.701 30.8642 427.255 25.1842 424.2 19.2927H416.484C416.484 16.4455 415.865 10.751 415.865 10.751H409.84C409.711 8.12428 409.436 5.50668 409.015 2.91063L402.825 3.73598C402.676 1.80552 402.387 -0.111433 401.959 -1.99976C385.659 2.34307 370.515 10.2181 357.599 21.0672C345.657 30.5936 335.065 41.6992 326.114 54.079C326.114 54.079 325.165 55.0693 324.67 55.6883C324.175 55.0693 323.184 54.079 323.184 54.079C314.248 41.7003 303.67 30.5946 291.741 21.0672C278.819 10.226 263.677 2.35189 247.381 -1.99976C246.939 -0.112551 246.635 1.80444 246.473 3.73598L240.283 2.91063C239.858 5.50505 239.596 8.12375 239.499 10.751H233.557C233.557 10.751 232.897 16.4455 232.938 19.2927H225.634C222.596 25.193 219.149 30.8739 215.318 36.2939C213.279 36.2064 211.236 36.2892 209.211 36.5415V37.5318C203.432 36.4458 197.726 34.9988 192.128 33.1991L186.969 38.3572C184.947 36.3352 180.491 32.7864 180.491 32.7864L176.364 36.9129C174.407 35.1388 172.354 33.472 170.216 31.9199L166.461 36.9129C164.984 35.6515 163.411 34.5064 161.757 33.4878C153.319 48.0855 148.178 64.3531 146.695 81.1487C144.99 96.2551 145.323 111.522 147.685 126.54C147.643 127.268 147.643 127.999 147.685 128.727C146.957 128.677 146.227 128.677 145.498 128.727C130.484 126.324 115.212 125.99 100.107 127.736C83.2916 129.184 67.0032 134.327 52.4051 142.798C53.4496 144.432 54.6078 145.99 55.8714 147.461L50.8784 151.257C52.4294 153.383 54.0963 155.422 55.8714 157.365L51.7449 161.491C51.7449 161.491 55.2937 165.948 57.3156 167.97L52.1576 173.128C54.1624 179.454 55.7476 185.905 56.903 192.44C55.4184 193.835 54.0391 195.338 52.7765 196.938L53.4368 197.722C48.5646 201.007 43.5083 204.01 38.2926 206.717V214.021C35.4041 214.021 29.7508 214.64 29.7508 214.64V221.16C27.1114 221.28 24.4804 221.541 21.8692 221.944L22.7358 228.175C20.805 228.321 18.8877 228.61 17 229.041C21.3263 245.347 29.2032 260.495 40.067 273.401C49.5833 285.341 60.6905 295.92 73.0788 304.845C73.5837 305.373 74.1212 305.869 74.6881 306.33C74.1212 306.792 73.5837 307.288 73.0788 307.816C60.7001 316.752 49.5943 327.33 40.067 339.26C29.2032 352.166 21.3263 367.314 17 383.619C18.8877 384.05 20.805 384.34 22.7358 384.486L21.8692 390.717C24.4804 391.119 27.1114 391.381 29.7508 391.501V397.567C29.7508 397.567 35.4041 398.186 38.2926 398.186V405.49C43.5249 408.182 48.5829 411.2 53.4368 414.526L52.7765 415.269C54.0289 416.877 55.4089 418.381 56.903 419.767C55.7524 426.303 54.167 432.754 52.1576 439.079L56.9855 443.99C54.9636 446.011 51.4148 450.468 51.4148 450.468L55.5413 454.595C53.7661 456.537 52.0993 458.576 50.5482 460.702L55.5413 464.498C54.2777 465.969 53.1194 467.527 52.075 469.161C66.673 477.632 82.9615 482.775 99.7771 484.223C114.882 485.969 130.154 485.635 145.168 483.232C145.883 483.283 146.6 483.283 147.314 483.232V485.419C144.946 500.437 144.613 515.704 146.324 530.811C147.779 547.625 152.922 563.911 161.385 578.513C163.049 577.508 164.623 576.362 166.089 575.088L169.845 580.081C171.983 578.529 174.035 576.862 175.993 575.088L180.119 579.214C180.119 579.214 184.576 575.665 186.598 573.643L191.756 578.801C197.355 577.002 203.06 575.555 208.84 574.469V575.5C210.868 575.718 212.909 575.787 214.947 575.707C218.777 581.127 222.224 586.807 225.263 592.708H232.567C232.567 595.555 233.186 601.249 233.186 601.249H239.252C239.349 603.877 239.61 606.495 240.036 609.09L246.226 608.264C246.388 610.196 246.691 612.113 247.133 614C263.436 609.665 278.582 601.789 291.493 590.933C303.423 581.406 314.001 570.3 322.937 557.921C322.937 557.921 323.927 556.931 324.422 556.312C324.873 556.875 325.355 557.412 325.867 557.921C334.814 570.291 345.391 581.395 357.31 590.933C370.237 601.79 385.396 609.666 401.711 614C402.139 612.112 402.429 610.195 402.578 608.264L408.767 609.09C409.188 606.494 409.464 603.876 409.593 601.249H415.617C415.617 601.249 416.278 595.555 416.236 592.708H423.54C426.579 586.807 430.026 581.127 433.856 575.707C435.894 575.786 437.935 575.717 439.963 575.5V574.469C445.756 575.558 451.475 577.005 457.088 578.801L462.246 573.643C464.227 575.665 468.725 579.214 468.725 579.214L472.851 575.088C474.785 576.873 476.825 578.54 478.959 580.081L482.714 575.088C484.188 576.352 485.761 577.498 487.418 578.513C496.084 564.028 501.452 547.811 503.14 531.017C504.886 515.912 504.553 500.64 502.149 485.626V483.439C502.878 483.489 503.608 483.489 504.336 483.439C519.35 485.846 534.623 486.179 549.728 484.429C566.544 482.987 582.834 477.843 597.43 469.367C596.377 467.702 595.205 466.117 593.922 464.622L598.915 460.825C597.388 458.721 596.15 457.277 593.922 454.718L598.049 450.592C598.049 450.592 594.5 446.135 592.437 444.113L597.595 438.955C595.576 432.636 594.004 426.183 592.891 419.643C594.363 418.236 595.742 416.734 597.017 415.145L595.16 412.958L594.83 412.628L590.208 406.851C596.522 406.315 602.216 405.778 606.714 405.283C606.26 405.696 599.617 409.74 594.913 412.546L595.243 412.876L596.398 414.32C601.267 410.995 606.339 407.977 611.583 405.283V397.979C614.431 397.979 620.084 397.36 620.084 397.36V391.294C622.711 391.198 625.33 390.936 627.924 390.51L627.058 384.321C629.001 384.141 630.93 383.838 632.835 383.413C628.486 367.108 620.596 351.962 609.727 339.053L609.809 339.094ZM617.361 217.446V223.099C617.361 223.099 624.458 223.718 624.747 223.842L624.004 227.102C622.725 227.721 599.906 226.359 573.744 224.626L581.502 215.424L617.361 217.446ZM608.53 214.104C608.117 214.434 598.131 213.815 583.771 212.783L587.898 208.038C594.906 208.381 601.891 209.111 608.819 210.225L608.53 214.104ZM594.913 199.702L595.72 200.195C596.301 200.549 596.905 200.917 597.517 201.29C601.735 203.86 606.34 206.666 606.714 207.006C602.134 206.47 596.439 205.933 590.208 205.397L594.913 199.702ZM589.713 195.576L589.738 195.602L589.713 195.699V195.576ZM589.738 195.602L591.611 197.598L531.695 267.748C529.494 270.32 527.307 272.901 525.12 275.482C520.746 280.645 516.372 285.808 511.888 290.897C512.296 289.001 512.583 286.681 512.883 284.252V284.252L512.883 284.251C513.191 281.765 513.512 279.164 513.992 276.785C514.941 272.081 515.808 267.253 515.808 267.253C516.542 266.286 521.978 260.178 529.784 251.408L529.786 251.407C548.305 230.6 580.161 194.809 594.211 177.13C594.211 177.999 590.096 194.195 589.738 195.602ZM593.386 173.334C593.716 174.82 535.244 241.71 514.983 264.612C499.204 250.67 481.769 238.723 463.072 229.041C481.59 235.039 499 244.03 514.611 255.657C529.3 240.602 552.702 213.594 569.611 194.079L569.614 194.076L569.615 194.075L569.615 194.074C581.206 180.697 589.745 170.843 590.332 170.776L593.386 173.334ZM468.931 36.7891L473.058 40.668C473.058 40.668 478.505 36.0462 478.794 35.9224L480.568 38.7697C480.114 40.1314 462.989 55.2756 443.43 72.5655L442.439 60.5575L468.931 36.7891ZM457.79 37.7381L457.83 37.7847C452.109 41.8207 446.638 46.201 441.449 50.9015L441.985 57.1326C452.755 47.7655 460.307 41.1631 460.307 40.6267L457.83 37.7847L457.955 37.6969L457.79 37.7381ZM454.159 36.8716C450.527 39.7188 446.153 43.3501 441.325 47.4353L440.706 40.0489C445.988 38.7284 453.581 36.8716 454.159 36.8716ZM433.98 40.668H436.745C437.714 52.9278 438.731 65.2026 439.749 77.4799C442.112 105.989 444.476 134.512 446.236 162.894C445.189 161.252 443.744 159.395 442.231 157.451L442.23 157.451C440.702 155.487 439.104 153.434 437.776 151.423L432.288 143.417C432.133 142.221 431.679 134.382 431.024 123.075L431.024 123.073L431.024 123.071L431.023 123.061C429.42 95.3673 426.613 46.8901 424.035 24.2446C424.696 24.9048 434.021 40.5442 434.021 40.5442L433.98 40.668ZM416.938 22.4289L420.775 22.14C422.096 23.0066 428.038 111.643 430.019 142.014C408.988 143.316 388.198 147.21 368.122 153.61C385.436 144.715 404.108 138.76 423.375 135.989C423.044 115.705 420.641 81.7688 418.835 56.2636L418.835 56.2617L418.834 56.2592L418.834 56.254L418.834 56.2528C417.488 37.2448 416.474 22.9223 416.897 22.4289H416.938ZM228.977 22.14L232.856 22.4289C233.256 22.916 232.262 36.8859 230.936 55.5361L230.936 55.5375C229.116 81.1215 226.67 115.512 226.336 135.989C245.616 138.76 264.302 144.715 281.631 153.61C261.553 147.215 240.764 143.32 219.734 142.014C221.673 111.643 227.656 23.0066 228.936 22.14H228.977ZM212.966 40.668H215.69C215.69 40.668 225.057 25.0286 225.676 24.3683C223.011 47.5168 220.128 97.7005 218.558 125.034V125.034C217.965 135.365 217.559 142.432 217.423 143.541L211.935 151.546C210.642 153.566 209.093 155.585 207.625 157.498L207.624 157.499L207.624 157.499L207.624 157.5L207.624 157.5L207.624 157.5C206.093 159.495 204.651 161.375 203.682 163.018C205.418 135.003 207.764 106.85 210.109 78.7086L210.109 78.7048C211.163 66.0602 212.216 53.4181 213.214 40.7918L212.966 40.668ZM209.087 40.0489L208.468 47.4353C203.599 43.3088 199.225 39.7188 195.594 36.8716C196.213 36.8716 203.847 38.7284 209.087 40.0489ZM191.797 37.6556C197.555 41.7431 203.066 46.166 208.303 50.9015L207.808 57.0913C196.997 47.7242 189.487 41.1218 189.445 40.5854L191.797 37.6556ZM170.794 35.8812C171.124 35.8812 176.571 40.6267 176.571 40.6267L180.697 36.7065L207.23 60.2274L206.034 72.318C186.35 55.028 169.226 39.8839 168.895 38.5221L170.794 35.8812ZM59.0075 170.528C59.6669 170.528 69.2853 181.627 81.9857 196.282C98.6926 215.56 120.733 240.992 134.728 255.41C150.329 243.767 167.743 234.774 186.268 228.794C167.57 238.476 150.136 250.422 134.357 264.364C114.22 241.503 55.9539 174.572 55.9539 173.087L59.0075 170.528ZM55.2524 176.883C69.302 194.561 101.158 230.352 119.678 251.159C127.484 259.93 132.921 266.038 133.655 267.005C133.655 267.005 134.604 272.287 135.43 276.537C135.812 278.507 136.115 280.859 136.416 283.197C136.765 285.903 137.111 288.591 137.576 290.65C132.486 284.873 127.514 279.001 122.553 273.143L122.55 273.139L122.549 273.138C120.955 271.256 119.363 269.376 117.768 267.5L57.8521 197.35L59.709 195.328C59.709 195.328 55.2524 177.667 55.2111 176.759L55.2524 176.883ZM54.5096 199.62L54.5235 199.636C49.8619 202.442 43.2023 206.47 42.7905 206.882C47.3296 206.387 52.9828 205.851 59.2963 205.314L54.5235 199.636L54.5509 199.62H54.5096ZM61.5659 207.873L65.7337 212.907C51.4561 213.897 41.47 214.558 40.9748 214.227L40.686 210.349C47.5996 209.23 54.5705 208.5 61.5659 208.162V207.873ZM31.9791 223.223V217.57L67.6318 215.507L75.4309 224.75C49.269 226.442 26.4084 227.845 25.1704 227.226L24.3864 223.966C24.7165 223.966 31.814 223.223 31.814 223.223H31.9791ZM54.3858 412.67C49.7229 409.864 43.0381 405.82 42.6254 405.407C47.2058 405.902 52.8591 406.439 59.1313 406.975L54.3858 412.67ZM40.5209 402.147L40.8098 398.268C41.1811 397.938 51.1672 398.557 65.5686 399.589L61.4421 404.334C54.4467 403.996 47.4758 403.266 40.5622 402.147H40.5209ZM59.6265 416.961L57.7696 414.939L117.686 344.789C119.436 342.731 121.184 340.666 122.932 338.601L122.934 338.599L122.935 338.597L122.937 338.595L122.939 338.593L122.939 338.592L122.94 338.591L122.943 338.588L122.944 338.586L122.945 338.585C127.746 332.913 132.555 327.232 137.452 321.64C137.044 323.536 136.757 325.856 136.456 328.285C136.149 330.772 135.827 333.373 135.347 335.752C134.398 340.456 133.573 345.284 133.573 345.284C132.861 346.206 127.88 351.799 120.65 359.918C102.301 380.522 69.4669 417.391 55.1699 435.448C55.1699 434.499 59.6677 416.837 59.6677 416.837L59.6265 416.961ZM55.9952 439.203C55.7063 437.717 114.137 370.786 134.398 347.925C150.177 361.867 167.612 373.813 186.309 383.495C167.784 377.515 150.371 368.523 134.77 356.88C120.207 371.831 97.0779 398.517 80.2044 417.986L80.203 417.988L80.2022 417.989L80.2002 417.991C68.3888 431.62 59.6435 441.71 59.0488 441.761L55.9952 439.203ZM180.573 576.037L176.447 572.116C176.447 572.116 171 576.738 170.67 576.862L168.895 574.015C169.391 572.694 186.474 557.509 206.034 540.219L207.065 552.227L180.573 576.037ZM191.674 575.088L191.611 575.015C197.322 570.935 202.798 566.537 208.014 561.842L207.519 555.652C196.708 565.019 189.156 571.621 189.156 572.158L191.611 575.015L191.509 575.088H191.674ZM195.305 575.872C198.936 573.024 203.31 569.393 208.179 565.308L208.798 572.694C203.475 574.015 195.924 575.872 195.305 575.872ZM215.483 572.075H212.76C211.762 559.449 210.709 546.806 209.655 534.161C207.31 506.019 204.965 477.865 203.228 449.849C204.154 451.284 205.393 452.904 206.697 454.608L206.698 454.61L206.699 454.612L206.7 454.612C208.357 456.778 210.119 459.082 211.481 461.321L216.969 469.326C217.124 470.523 217.578 478.362 218.233 489.669C219.836 517.36 222.643 565.849 225.222 588.499C224.603 587.838 215.236 572.199 215.236 572.199L215.483 572.075ZM232.319 590.314L228.482 590.603C227.203 589.737 221.219 501.1 219.28 470.729C240.31 469.423 261.1 465.529 281.177 459.134C263.843 468.025 245.16 473.992 225.882 476.795C226.213 497.05 228.615 530.964 230.421 556.462L230.421 556.463L230.421 556.464L230.421 556.466C231.768 575.484 232.784 589.821 232.361 590.314H232.319ZM420.28 590.603L416.443 590.314C416.019 589.821 417.035 575.484 418.382 556.464L418.382 556.463C420.188 530.965 422.59 497.05 422.921 476.795C403.656 473.992 384.987 468.024 367.668 459.134C387.744 465.533 408.534 469.428 429.565 470.729C427.584 501.1 421.642 589.737 420.321 590.603H420.28ZM436.332 572.075H433.567C433.567 572.075 424.242 587.715 423.581 588.375C426.247 565.227 429.129 515.045 430.699 487.711L430.699 487.71L430.699 487.709C431.293 477.378 431.698 470.311 431.834 469.202L437.323 461.197C438.759 458.953 440.512 456.709 442.152 454.611C443.527 452.851 444.822 451.194 445.782 449.725C444.084 477.12 441.803 504.645 439.523 532.163C438.424 545.433 437.325 558.701 436.291 571.951L436.332 572.075ZM440.417 572.694L441.036 565.308C445.864 569.434 450.238 573.024 453.87 575.872C453.292 575.872 445.617 574.015 440.417 572.694ZM457.666 575.088C451.918 570.988 446.407 566.565 441.16 561.842L441.697 555.652C452.467 565.019 459.977 571.621 460.018 572.158L457.666 575.088ZM478.67 576.862C478.381 576.862 472.934 572.116 472.934 572.116L468.807 576.037L442.151 552.227L443.141 540.219C462.865 557.468 479.99 572.694 480.279 574.015L478.67 576.862ZM590.332 442.009C589.693 442.009 580.139 430.985 567.503 416.403C550.781 397.108 528.661 371.582 514.653 357.127C499.032 368.763 481.607 377.755 463.072 383.743C481.789 374.073 499.239 362.126 515.024 348.173C535.12 371.033 593.427 437.965 593.427 439.45L590.332 442.009ZM591.446 415.063L589.589 417.085C589.589 417.085 594.046 434.746 594.087 435.695C580.007 417.95 548.043 382.033 529.542 361.244L529.54 361.242L529.54 361.241C521.798 352.543 516.415 346.494 515.684 345.532C515.684 345.532 514.735 340.291 513.869 336C513.442 333.888 513.126 331.366 512.816 328.897L512.816 328.896L512.815 328.895V328.894C512.496 326.347 512.183 323.856 511.764 321.928C532.908 345.825 553.62 370.331 574.359 394.868L574.359 394.869L574.36 394.87L574.361 394.871L574.362 394.872L574.364 394.875C580.053 401.606 585.744 408.339 591.446 415.063ZM587.774 404.458L583.647 399.712C597.884 398.722 607.87 398.062 608.406 398.392L608.695 402.271C601.767 403.385 594.782 404.115 587.774 404.458ZM573.785 387.952L573.894 387.945L581.708 397.195L617.402 395.132V389.479C617.402 389.479 624.499 388.777 624.788 388.777L624.045 385.476C622.768 384.899 600.01 386.256 573.894 387.945L573.407 387.369L571.969 385.146C590.745 384.032 608.901 382.876 629.534 381.556C626.315 367.98 617.195 353.29 606.302 339.094C601.392 333.118 596.113 327.453 590.497 322.135C585.174 316.688 578.283 310.663 572.795 309.343C567.742 308.461 562.612 308.101 557.485 308.27C543.102 308.27 528.752 308.003 514.554 307.74L514.484 307.738C512.901 307.709 511.321 307.68 509.742 307.651H509.727L511.394 309.26L507.672 312.616L509.453 311.653L573.407 387.369L573.785 387.952ZM471.702 345.048L496.547 322.647C500.58 320.592 504.524 318.635 508.339 316.812C508.807 318.798 508.694 320.877 508.014 322.801C507.333 324.725 506.114 326.413 504.502 327.664C495.664 332.685 486.776 337.268 477.976 341.806L477.975 341.807C475.878 342.888 473.786 343.966 471.702 345.048ZM453.087 361.831L461.186 354.529C479.402 345.626 497.919 336.184 510.774 327.912C511.367 329.361 511.381 330.983 510.812 332.442C510.244 333.901 509.137 335.086 507.72 335.752C490.549 347.758 472.285 358.112 453.171 366.68L453.087 361.831ZM453.479 384.4L453.242 370.769C469.931 364.082 485.859 355.609 500.746 345.491L511.393 338.022L512.713 346.811C511.764 347.678 507.844 351.185 506.812 352.052C491.232 366.155 473.123 377.124 453.479 384.4ZM459.564 387.911C457.575 388.42 455.574 388.882 453.564 389.295L453.63 393.122C469.899 392.397 488.754 389.19 505.327 380.277C506.489 379.836 507.656 379.425 508.825 379.014L508.825 379.014L508.825 379.014L508.825 379.014L508.826 379.014L508.826 379.013C511.265 378.155 513.711 377.294 516.138 376.15C522.722 383.584 531.822 394 541.452 405.021L541.455 405.024L541.455 405.025C564.539 431.444 590.661 461.34 592.437 461.981L595.284 460.165C595.16 459.876 590.538 454.429 590.538 454.429L594.417 450.303L515.354 361.666C514.217 362.602 513.064 363.351 511.905 364.104L511.904 364.105L511.904 364.105C511.171 364.581 510.436 365.059 509.701 365.586C496.029 374.521 481.165 381.481 465.548 386.26L464.994 386.42C463.279 386.917 461.388 387.464 459.564 387.911ZM515.519 381.267C496.306 391.1 475.188 396.522 453.701 397.195L454.335 433.721L456.511 435.86C467.9 446.795 479.371 457.813 490.678 469.12C494.193 472.871 498.077 476.259 502.273 479.23C507.06 482.159 516.179 482.696 523.813 482.696C531.553 482.878 539.297 482.603 547.004 481.87C564.583 479.518 581.667 475.516 593.468 468.253C589.795 464.089 586.233 460.047 582.746 456.088L582.707 456.044L582.664 455.995L582.661 455.992L582.659 455.99C560.639 430.996 541.531 409.307 515.519 381.267ZM509.783 304.68H506.65L494.145 292.604L509.618 300.966L571.969 227.185C584.958 227.955 597.75 228.766 611.164 229.615L611.191 229.617L611.226 229.619L611.227 229.619C617.182 229.997 623.261 230.382 629.534 230.775C626.315 244.227 617.154 259.041 606.302 273.236C601.382 279.218 596.105 284.895 590.497 290.237C585.133 295.643 578.118 301.667 572.795 303.029C567.738 303.875 562.61 304.22 557.485 304.061C543.184 304.061 528.981 304.324 514.848 304.586C513.159 304.618 511.471 304.649 509.783 304.68ZM508.504 295.808C501.168 292.331 493.349 288.334 485.336 284.098L463.934 263.432C468.318 265.751 472.739 268.03 477.181 270.32L477.181 270.32L477.182 270.321L477.182 270.321L477.182 270.321L477.183 270.321C486.297 275.02 495.502 279.766 504.667 284.996C506.284 286.234 507.507 287.914 508.188 289.833C508.869 291.752 508.979 293.828 508.504 295.808ZM510.939 284.708C492.798 273.942 474.178 264.009 455.138 254.938L454.985 254.791L455.402 246.874C473.767 255.256 491.334 265.295 507.885 276.867C509.302 277.534 510.409 278.719 510.978 280.178C511.546 281.637 511.532 283.258 510.939 284.708ZM501.2 267.129C486.901 257.419 471.62 249.261 455.617 242.785L456.335 229.134C475.027 236.474 492.282 247.112 507.266 260.568C508.298 261.434 512.218 264.942 513.167 265.808L511.847 274.598L501.2 267.129ZM460.059 224.709C458.923 224.419 457.773 224.144 456.612 223.882L456.869 218.992C472.241 220.004 489.528 223.408 504.914 231.682C506.392 232.277 507.878 232.809 509.364 233.341L509.365 233.341L509.365 233.341L509.365 233.341L509.366 233.342L509.366 233.342L509.367 233.342C511.489 234.102 513.615 234.863 515.726 235.809C522.245 228.447 531.233 218.161 540.759 207.26C563.912 180.764 590.241 150.633 592.024 150.02L594.871 151.794C594.871 152.083 590.126 157.53 590.126 157.53L594.005 161.656L515.519 250.582C514.398 249.685 513.263 248.939 512.121 248.188L512.119 248.188L512.119 248.187L512.118 248.187L512.118 248.186L512.117 248.186C511.369 247.694 510.617 247.2 509.866 246.661C496.273 237.873 481.505 231.052 466.002 226.4C464.021 225.823 461.875 225.204 460.059 224.709ZM515.148 230.733C497.073 221.439 477.299 216.022 457.091 214.781L459.112 176.388L455.836 176.445L456.098 176.181C467.487 165.246 479 154.187 490.306 142.881C493.821 139.129 497.706 135.742 501.902 132.771C506.689 129.841 515.808 129.263 523.442 129.305C531.182 129.121 538.926 129.397 546.633 130.13C564.377 132.482 581.295 136.526 593.097 143.747C589.395 147.943 585.806 152.016 582.292 156.005C560.27 181.002 541.161 202.691 515.148 230.733ZM454.2 173.994L451.677 176.517L433.624 176.83L451.6 171.477L443.347 75.2478C448.382 70.8051 453.385 66.3624 458.444 61.8701L458.446 61.8691C467.483 53.8441 476.699 45.6608 486.593 37.0367C493.814 48.8384 497.858 65.922 500.169 83.5008C500.938 91.2056 501.228 98.9508 501.035 106.692C501.035 114.284 500.499 123.404 497.569 128.232C494.586 132.418 491.2 136.301 487.459 139.827C476.882 150.365 466.558 161.12 456.318 171.788L454.2 173.994ZM447.391 168.547C439.289 171.388 430.422 174.23 421.249 177.045L391.542 177.561C397.008 175.903 402.462 174.163 407.943 172.415L407.948 172.413C417.481 169.372 427.096 166.305 436.992 163.596C439.019 163.321 441.083 163.643 442.929 164.522C444.776 165.402 446.327 166.801 447.391 168.547ZM441.284 158.933C420.719 164.158 400.408 170.328 380.416 177.425L375.074 171.514C394.041 164.423 413.62 159.078 433.567 155.549C437.199 155.013 438.643 154.971 441.284 158.933ZM421.889 153.444C404.861 156.668 388.234 161.694 372.288 168.43L363.149 158.316C381.606 150.25 401.389 145.557 421.559 144.49L429.441 144.036L434.682 151.175L421.889 153.444ZM362.84 152.495C361.768 153.13 360.706 153.781 359.654 154.448L356.671 151.145C368.3 140.884 383.18 130.792 400.06 125.715C401.37 125.158 402.641 124.568 403.91 123.979C406.119 122.954 408.322 121.932 410.707 121.093C410.121 111.537 409.233 98.3656 408.288 84.3454C405.903 48.9622 403.153 8.17361 403.981 6.45947L407.241 5.67543C407.241 6.00554 407.983 13.103 407.983 13.103H413.637L420.404 131.698C418.979 131.845 417.672 132.124 416.359 132.404C415.467 132.595 414.572 132.786 413.637 132.936C397.805 136.275 382.524 141.832 368.245 149.442L362.84 152.495ZM406.745 117.998C387.194 124.247 369.211 134.522 353.936 148.118L328.137 119.566L326.403 121.354V121.175C326.733 105.371 327.063 89.4429 327.063 73.4322C326.904 68.3076 327.249 63.1797 328.095 58.1229C329.415 52.6347 335.481 45.7435 340.887 40.4204C346.229 34.8131 351.906 29.5351 357.888 24.6159C372.083 13.722 386.773 4.60251 400.349 1.38386C400.675 6.55909 400.995 11.5895 401.309 16.5198C403.457 50.2719 405.305 79.3283 406.745 117.998ZM323.473 121.093V124.374L298.054 150.579C282.422 135.829 263.688 124.686 243.172 117.998C244.612 79.3279 246.461 50.2713 248.608 16.5188C248.922 11.5888 249.242 6.55874 249.568 1.38386C263.02 4.60251 277.834 13.7633 292.029 24.6159C298.006 29.5257 303.671 34.8042 308.989 40.4204C314.436 45.7848 320.461 52.7997 321.781 58.1229C322.648 63.1773 322.993 68.3073 322.813 73.4322C322.813 86.596 323.065 99.7318 323.316 112.77C323.369 115.549 323.422 118.324 323.473 121.093ZM249.733 126.292C267.659 131.684 283.191 142.66 295.161 153.561L292.355 156.454C290.584 155.282 288.783 154.155 286.954 153.073L281.589 150.02C267.308 142.416 252.028 136.859 236.198 133.514C235.268 133.364 234.372 133.175 233.476 132.985C232.147 132.704 230.82 132.424 229.39 132.276L236.198 13.6808H241.852C241.852 13.6808 242.429 6.58331 242.553 6.25319L245.854 7.03711C246.647 8.74076 243.928 49.042 241.55 84.2729L241.55 84.274V84.2742L241.55 84.2747L241.55 84.2757V84.276C240.588 98.5375 239.681 111.968 239.087 121.671C241.472 122.509 243.674 123.531 245.884 124.557C247.152 125.145 248.423 125.735 249.733 126.292ZM228.234 145.068C249.27 146.122 269.874 151.191 288.948 159.966L279.423 169.785C262.882 162.683 245.608 157.396 227.904 154.022L215.112 151.753L220.394 144.614L228.234 145.068ZM216.226 156.127C236.81 159.767 257.002 165.337 276.536 172.762L273.379 176.016L261.477 175.421C242.603 168.943 223.249 162.686 208.551 159.51C211.192 155.384 212.677 155.384 216.226 156.127ZM214.054 173.05L247.278 174.711C245.535 174.158 243.791 173.601 242.044 173.043L242.027 173.038C232.453 169.981 222.79 166.897 212.842 164.173C210.815 163.899 208.752 164.221 206.905 165.1C205.059 165.98 203.508 167.378 202.444 169.125C206.165 170.434 210.05 171.744 214.054 173.05ZM454.411 438.056L456.427 440.156L456.429 440.158L456.429 440.158L456.429 440.158L456.43 440.159L456.43 440.159C466.674 450.831 477.005 461.592 487.624 472.173C491.355 475.708 494.74 479.591 497.734 483.769C500.664 488.597 501.2 497.716 501.2 505.309C501.393 513.05 501.103 520.795 500.334 528.5C498.023 546.244 493.979 563.203 486.758 574.964C481.681 570.485 476.784 566.175 471.997 561.964C462.231 553.371 452.927 545.184 443.512 536.794L451.765 440.523L450.058 440.015L454.449 440.234L454.411 438.056ZM434.505 439.237C438.961 440.681 443.276 442.129 447.391 443.577C446.289 445.234 444.737 446.542 442.916 447.346C441.096 448.15 439.083 448.417 437.116 448.116C427.159 445.39 417.473 442.302 407.878 439.242L407.834 439.228L407.665 439.174C406.074 438.667 404.486 438.161 402.899 437.657L434.505 439.237ZM441.408 452.779C426.725 449.613 407.46 443.385 388.651 436.945L376.046 436.314L373.07 439.394C392.699 446.886 412.997 452.501 433.691 456.163C437.281 456.699 438.725 456.905 441.408 452.779ZM422.013 458.515C404.141 455.113 386.708 449.753 370.029 442.54L360.544 452.356C379.736 461.258 400.49 466.401 421.683 467.469L429.565 467.923L434.805 460.784L422.013 458.515ZM362.963 459.464C361.008 458.301 359.083 457.088 357.191 455.826L354.439 458.674C366.467 469.673 382.092 480.803 400.184 486.245C401.493 486.801 402.763 487.391 404.031 487.979L404.032 487.979L404.034 487.98L404.035 487.981C406.244 489.006 408.446 490.027 410.831 490.866C410.245 500.422 409.357 513.593 408.412 527.614C406.027 562.997 403.277 603.786 404.104 605.5L407.364 606.284C407.488 605.954 408.107 598.856 408.107 598.856H413.76L420.528 480.261C419.103 480.114 417.796 479.835 416.483 479.555C415.591 479.364 414.696 479.174 413.76 479.023C397.927 475.691 382.645 470.134 368.369 462.517L362.963 459.464ZM406.869 494.044C386.231 487.453 367.365 476.352 351.616 461.595L326.527 487.559V490.949C326.857 506.712 327.187 522.64 327.187 538.609C327.027 543.748 327.372 548.889 328.219 553.96C329.539 559.242 335.605 566.257 341.011 571.621C346.339 577.228 352.002 582.506 357.97 587.426C372.207 598.32 387.021 607.48 400.473 610.699C400.743 606.407 401.009 602.215 401.27 598.097L401.298 597.659L401.301 597.604C403.497 562.941 405.363 533.495 406.869 494.044ZM323.597 490.99V490.591L321.576 492.682L295.837 464.28C280.615 477.755 262.73 487.947 243.296 494.167C244.703 531.953 246.5 560.56 248.56 593.338L248.56 593.339L248.562 593.383C248.918 599.035 249.28 604.812 249.651 610.782C263.268 607.563 277.958 598.443 292.153 587.55C298.131 582.64 303.795 577.362 309.113 571.745C314.519 566.422 320.585 559.531 321.905 554.043C322.771 548.988 323.117 543.858 322.937 538.733C322.937 525.559 323.188 512.44 323.438 499.4L323.438 499.397L323.438 499.39C323.492 496.587 323.546 493.786 323.597 490.99ZM249.939 486.451C266.732 481.41 281.499 471.426 293.082 461.241L290.07 457.917C289.122 458.513 288.165 459.098 287.201 459.67C286.066 460.357 284.914 460.992 283.755 461.632C283.103 461.991 282.45 462.352 281.796 462.724C267.518 470.335 252.237 475.892 236.405 479.23C235.475 479.379 234.578 479.569 233.683 479.758L233.682 479.758L233.682 479.758C232.353 480.039 231.026 480.32 229.596 480.467L236.363 599.062H242.058C242.058 599.062 242.759 606.16 242.759 606.49L246.019 605.706C246.847 603.992 244.097 563.203 241.712 527.82L241.711 527.816L241.71 527.789L241.708 527.769L241.707 527.75L241.706 527.736C240.763 513.747 239.877 500.609 239.293 491.073C241.678 490.234 243.881 489.212 246.09 488.187L246.092 488.186L246.093 488.185C247.361 487.597 248.631 487.007 249.939 486.451ZM228.482 467.675C248.52 466.615 268.176 461.977 286.528 454.008L276.93 443.418C261.111 450.071 244.623 455.036 227.739 458.226L214.947 460.495L220.641 468.129L228.482 467.675ZM216.061 456.369C235.872 452.794 255.313 447.431 274.147 440.346L268.934 434.593C249.045 441.648 228.841 447.785 208.386 452.985C211.027 456.947 212.43 456.905 216.061 456.369ZM256.667 434.794C251.738 436.305 246.812 437.878 241.862 439.458L241.861 439.458L241.859 439.459C232.286 442.515 222.623 445.599 212.677 448.322C210.65 448.597 208.587 448.275 206.74 447.395C204.894 446.516 203.343 445.117 202.279 443.371C209.947 440.675 218.311 437.98 226.977 435.31L256.667 434.794ZM197.781 440.441L214.621 435.524L197.328 435.825L195.222 437.965C193.846 439.394 192.467 440.825 191.088 442.258L191.067 442.279C181.495 452.222 171.839 462.251 161.963 472.091C158.211 475.606 154.824 479.49 151.853 483.686C148.882 488.72 148.387 497.634 148.387 505.226C148.162 512.966 148.438 520.713 149.212 528.417C151.564 545.996 155.567 563.121 162.788 574.881C172.697 566.162 181.895 558.034 190.913 550.066C195.979 545.59 200.988 541.164 206.034 536.711L197.781 440.441ZM188.484 440.119C189.947 438.711 191.407 437.306 192.864 435.902L190.519 435.943L192.558 397.2C172.183 396.003 152.241 390.563 134.027 381.185C107.528 409.75 88.1622 431.723 65.6069 457.315L65.5571 457.372L65.5166 457.418C62.4255 460.925 59.2743 464.501 56.0364 468.171C67.8382 475.392 84.798 479.436 102.542 481.788C110.235 482.521 117.965 482.797 125.691 482.613C133.325 482.654 142.445 482.077 147.273 479.147C151.455 476.175 155.326 472.787 158.827 469.037C168.625 459.239 178.61 449.626 188.484 440.119ZM144.137 380.483C159.374 387.915 175.912 392.21 192.771 393.153L193.017 388.485C191.809 388.214 190.605 387.926 189.404 387.622C187.588 387.127 185.443 386.508 183.462 385.93C167.987 381.271 153.247 374.45 139.68 365.669C138.898 365.108 138.117 364.596 137.335 364.085C136.219 363.354 135.102 362.623 133.986 361.749L54.9223 450.385L59.0488 454.512C59.0488 454.512 54.3033 459.959 54.3033 460.248L57.1506 462.022C58.9534 461.402 85.8594 430.619 109.157 403.964L109.159 403.962C118.39 393.401 127.055 383.488 133.367 376.357C135.325 377.212 137.283 377.92 139.241 378.628C140.873 379.218 142.505 379.808 144.137 380.483ZM142.073 351.763C157.131 365.295 174.486 375.98 193.288 383.332L194.002 369.771C177.898 363.228 162.524 354.994 148.139 345.202C147.139 344.476 146.26 343.862 144.869 342.891L144.866 342.889C143.33 341.816 141.17 340.308 137.534 337.733L136.173 346.522L142.073 351.763ZM141.124 335.463C157.858 347.163 175.63 357.295 194.215 365.733L194.635 357.752C175.332 348.577 156.458 338.524 138.071 327.623C137.478 329.072 137.464 330.694 138.032 332.153C138.6 333.612 139.707 334.797 141.124 335.463ZM170.493 341.13C175.841 343.907 181.127 346.653 186.307 349.482L164.284 328.201C156.286 323.975 148.482 319.99 141.166 316.523C140.692 318.513 140.806 320.598 141.495 322.525C142.183 324.451 143.416 326.136 145.044 327.375C153.562 332.336 162.103 336.772 170.493 341.13ZM143.018 307.651L155.529 319.741L140.01 311.365L77.7336 385.136C59.0184 384.025 40.7051 382.872 20.1361 381.556C23.3548 368.104 32.5155 353.29 43.4094 339.094C48.3018 333.102 53.5666 327.424 59.1726 322.093C64.537 316.688 71.552 310.663 76.8751 309.343C81.9418 308.461 87.0855 308.102 92.2256 308.27C106.542 308.27 120.824 308.004 134.985 307.741L134.987 307.741C136.622 307.711 138.255 307.681 139.886 307.651H143.018ZM75.6083 387.653L77.7336 385.136L77.9067 385.146L75.761 387.663L75.6083 387.653ZM75.6083 387.653C49.5102 385.966 26.7361 384.569 25.5005 385.187L24.7165 388.447C25.0466 388.571 32.1442 389.19 32.1442 389.19V394.843L67.7969 396.906L75.6083 387.653ZM135.021 304.588C136.663 304.618 138.303 304.648 139.942 304.678L138.278 303.07L141.474 300.175L140.01 300.966L77.948 227.185C65.7394 227.903 53.8394 228.655 41.3971 229.442C34.5363 229.876 27.5106 230.32 20.1774 230.775C23.396 244.351 32.5155 259.041 43.4507 273.236C48.343 279.228 53.6078 284.906 59.2138 290.237C64.537 295.643 71.4282 301.667 76.9164 302.988C81.9831 303.869 87.1268 304.229 92.2669 304.061C106.594 304.061 120.855 304.325 135.021 304.588ZM176.492 268.444L151.973 290.662C148.266 292.54 144.639 294.334 141.124 296.014C140.648 294.03 140.762 291.95 141.451 290.03C142.14 288.109 143.375 286.432 145.003 285.203C154.044 280.03 163.15 275.331 172.173 270.675L172.175 270.674L172.184 270.669C173.622 269.927 175.058 269.186 176.492 268.444ZM187.418 258.544C170.85 266.712 154.595 275.509 138.69 284.914C138.097 283.465 138.083 281.843 138.651 280.384C139.219 278.925 140.326 277.74 141.743 277.074C158.893 265.082 177.135 254.738 196.224 246.176L196.296 250.499L187.418 258.544ZM148.758 267.335C163.613 257.239 179.505 248.78 196.155 242.1L195.921 228.183C176.3 235.557 158.229 246.608 142.692 260.774L136.792 266.015L138.153 274.804C141.791 272.227 143.952 270.719 145.488 269.646L145.489 269.645L145.492 269.643C146.881 268.673 147.759 268.06 148.758 267.335ZM189.528 224.709C191.62 224.181 193.724 223.704 195.838 223.277L195.769 219.159C179.575 219.928 160.911 223.127 144.467 231.971C143.352 232.389 142.242 232.78 141.134 233.169L141.134 233.17L141.133 233.17L141.133 233.17L141.132 233.17L141.132 233.17L141.132 233.17L141.131 233.17L141.131 233.171L141.131 233.171L141.131 233.171C138.63 234.05 136.143 234.926 133.655 236.098C127.14 228.741 118.159 218.463 108.639 207.569L108.63 207.558L108.627 207.555L108.622 207.549L108.621 207.548C85.4687 181.052 59.1403 150.922 57.3569 150.308L54.5096 152.083C54.6334 152.372 59.2551 157.818 59.2551 157.818L55.1286 161.945L134.316 250.582C135.502 249.653 136.688 248.886 137.875 248.119C138.587 247.658 139.298 247.198 140.01 246.703C153.5 237.906 168.172 231.07 183.586 226.4C185.401 225.823 187.547 225.204 189.528 224.709ZM134.357 231.187C153.414 221.366 174.363 215.891 195.7 215.099L195.082 178.381L193.324 176.594C191.787 175.113 190.247 173.631 188.705 172.146L188.705 172.145C178.861 162.669 168.932 153.11 159.157 143.335C155.656 139.584 151.785 136.197 147.603 133.225C142.775 130.295 133.655 129.759 126.021 129.759C118.295 129.575 110.565 129.851 102.872 130.584C85.2519 132.936 68.1683 136.98 56.3666 144.201C60.4769 148.853 64.4461 153.353 68.3286 157.755C89.8985 182.209 108.794 203.631 134.357 231.187ZM190.502 169.666C192.007 171.229 193.511 172.791 195.014 174.351L194.976 172.096L198.329 172.264L197.905 172.137L206.158 75.908C194.566 65.5746 183.2 55.5773 170.903 44.7628C168.272 42.4487 165.598 40.0972 162.871 37.6969C155.65 49.4986 151.647 66.4171 149.295 84.1609C148.562 91.8681 148.286 99.612 148.469 107.352C148.428 114.945 149.006 124.064 151.936 128.892C154.897 133.082 158.286 136.954 162.046 140.446C171.677 150.113 181.099 159.899 190.465 169.627L190.465 169.628L190.466 169.629L190.502 169.666ZM371.919 425.379L321.948 477.001L273.792 423.728L201.95 424.966L205.581 353.207L153.918 303.277L207.232 255.121L205.994 183.32L277.712 186.91L327.642 135.288L375.798 188.561L447.599 187.323L443.967 259.041L495.631 308.971L442.358 357.334L443.596 429.134L371.919 425.379ZM321.904 204.036L235.619 225.947L321.532 252.315C323.861 253.066 326.318 253.333 328.754 253.099L416.978 224.544L331.147 204.366C329.43 203.679 327.589 203.356 325.741 203.417C324.44 203.451 323.15 203.659 321.904 204.036ZM278.408 243.567L316.536 259.702C319.128 260.503 321.829 260.893 324.542 260.857C327.046 260.822 329.533 260.433 331.928 259.702L373.853 243.196L374.224 267.047C369.717 271.808 364.48 275.82 358.709 278.931C348.298 284.262 336.68 286.794 324.996 286.276C311.478 286.52 298.226 282.507 287.115 274.805C284.118 272.601 281.352 270.099 278.862 267.336C278.862 261.442 278.723 255.548 278.584 249.637L278.584 249.62L278.584 249.603C278.537 247.621 278.49 245.637 278.449 243.65L278.408 243.567ZM293.024 293.867C286.209 289.886 279.785 285.271 273.836 280.085L273.959 280.25C271.637 287.152 271.916 294.666 274.743 301.377L274.774 301.433C275.973 303.582 277.887 307.017 288.319 314.953C295.409 320.349 300.256 323.197 304.07 325.439C308.336 327.947 311.311 329.695 314.688 333.399C319.978 339.431 323.442 346.845 324.674 354.774C324.734 355.255 324.969 355.698 325.335 356.017C325.7 356.336 326.169 356.511 326.654 356.507C327.057 356.482 327.444 356.34 327.766 356.098C328.089 355.856 328.334 355.525 328.47 355.145C330.466 346.758 334.426 338.965 340.024 332.408C345.651 325.806 352.706 320.57 360.657 317.099C361.564 316.852 377.699 311.116 380.67 296.219C381.648 290.936 380.94 285.48 378.648 280.621C373.182 286.637 366.684 291.626 359.46 295.353C356.108 297.083 353.161 298.229 350.403 299.301C345.791 301.095 341.706 302.683 337.136 306.453C332.924 309.918 329.457 314.199 326.943 319.039C323.576 314.407 319.607 310.244 315.142 306.659C310.355 302.846 306.407 300.86 301.802 298.543C299.18 297.224 296.346 295.798 293.024 293.867ZM222.951 278.93C225.551 283.056 229.43 289.287 233.928 296.962C239.341 306.259 242.867 312.967 245.319 317.633L245.319 317.634C246.437 319.761 247.332 321.463 248.081 322.794C253.652 332.656 264.298 345.655 286.829 358.117C287.251 354.953 286.824 351.735 285.591 348.791C284.106 345.628 281.85 342.889 279.03 340.827C274.696 337.098 271.797 335.131 269.541 333.601L269.541 333.6C267.952 332.522 266.682 331.66 265.454 330.552C261.864 327.333 257.985 321.432 257.449 309.92C261.245 312.107 266.774 315.366 273.459 319.41C290.832 330.057 299.497 335.38 303.995 340.043C313.092 349.83 319.006 362.146 320.955 375.365C322.798 386.608 321.907 398.13 318.355 408.955C307.92 405.241 297.928 400.383 288.562 394.471C267.86 381.348 250.823 363.189 239.044 341.693C228.657 322.392 223.133 300.848 222.951 278.93ZM416.651 296.962C421.149 289.287 425.028 283.056 427.627 278.93C427.449 300.807 421.969 322.315 411.658 341.611C399.884 363.11 382.846 381.269 362.14 394.388C352.739 400.339 342.705 405.224 332.223 408.955C328.63 398.138 327.737 386.606 329.624 375.365C331.572 362.146 337.486 349.83 346.584 340.043C351.081 335.38 359.747 330.057 377.119 319.41C383.763 315.366 389.334 312.107 393.089 309.92C392.552 321.432 388.137 327.87 385.125 330.552C383.903 331.64 382.648 332.49 381.097 333.54C378.824 335.079 375.915 337.049 371.549 340.827C368.729 342.901 366.462 345.636 364.946 348.791C363.724 351.737 363.311 354.957 363.75 358.117C386.28 345.655 396.927 332.656 402.456 322.794C403.199 321.475 404.089 319.79 405.199 317.689C407.665 313.02 411.216 306.296 416.651 296.962Z" fill="#1268B3" fill-opacity="0.05"/>
</g>
</svg>
