<svg width="33" height="32" viewBox="0 0 33 32" fill="none" xmlns="http://www.w3.org/2000/svg">
<path fill-rule="evenodd" clip-rule="evenodd" d="M16.3359 28C22.9634 28 28.3359 22.6274 28.3359 16C28.3359 9.37258 22.9634 4 16.3359 4C9.70852 4 4.33594 9.37258 4.33594 16C4.33594 22.6274 9.70852 28 16.3359 28ZM17.3359 8.66667C17.3359 8.11438 16.8882 7.66667 16.3359 7.66667C15.7837 7.66667 15.3359 8.11438 15.3359 8.66667V15.75C15.3359 16.4404 15.8956 17 16.5859 17H21.0026C21.5549 17 22.0026 16.5523 22.0026 16C22.0026 15.4477 21.5549 15 21.0026 15H17.3359V8.66667Z" fill="white"/>
</svg>
