<svg width="208" height="57" viewBox="0 0 208 57" fill="none" xmlns="http://www.w3.org/2000/svg">
<path fill-rule="evenodd" clip-rule="evenodd" d="M54.6295 31.433C53.7534 30.3319 52.7297 29.3569 51.5873 28.5354C51.5873 28.5354 51.4999 28.4441 51.4428 28.3985C51.4999 28.3529 51.5873 28.2616 51.5873 28.2616C52.7305 27.4411 53.7543 26.4659 54.6295 25.364C55.6319 24.1749 56.359 22.779 56.759 21.2761C56.585 21.2366 56.4083 21.2099 56.2304 21.1962L56.3065 20.622C56.0671 20.5847 55.8259 20.5606 55.5839 20.5497V19.9946C55.5839 19.9946 55.063 19.9337 54.8006 19.9337V19.2644C54.3189 19.0132 53.8517 18.7352 53.4012 18.4317L53.4658 18.3594C53.3473 18.2139 53.2204 18.0755 53.0856 17.9449C53.1886 17.3423 53.3335 16.7477 53.5191 16.1652L53.0437 15.6899C53.2339 15.5074 53.5609 15.0929 53.5609 15.0929L53.1806 14.7126C53.386 14.4768 53.5001 14.3323 53.6408 14.1498L53.1806 13.8C53.2959 13.6644 53.4014 13.5208 53.4963 13.3703C52.1515 12.5886 50.6502 12.1146 49.1004 11.9823C47.7085 11.8216 46.3013 11.8511 44.9174 12.0697C44.8503 12.0658 44.783 12.0658 44.7159 12.0697C44.7159 11.9975 44.7159 11.8682 44.7159 11.8682C44.9376 10.4846 44.9684 9.07716 44.8071 7.68524C44.6748 6.1354 44.2008 4.63413 43.4191 3.28933C43.2679 3.3832 43.1242 3.48872 42.9894 3.60494L42.6396 3.14482C42.4439 3.28798 42.256 3.44157 42.0768 3.60494L41.6965 3.22468C41.6965 3.22468 41.282 3.55171 41.0995 3.73804L40.6166 3.2437C40.0992 3.4092 39.5722 3.54254 39.0384 3.64297V3.55171C38.8518 3.52838 38.6635 3.52075 38.4756 3.5289C38.124 3.02853 37.8064 2.5051 37.525 1.96218H36.8139C36.8139 1.69979 36.7568 1.17503 36.7568 1.17503H36.2016C36.1897 0.932966 36.1643 0.691745 36.1256 0.45251L35.5552 0.528568C35.5414 0.35067 35.5147 0.174016 35.4753 0C33.9733 0.400206 32.5777 1.12592 31.3874 2.1257C30.2869 3.0036 29.3108 4.02702 28.486 5.16786C28.486 5.16786 28.3985 5.25912 28.3529 5.31616C28.3072 5.25912 28.216 5.16786 28.216 5.16786C27.3925 4.02712 26.4177 3.00368 25.3183 2.1257C24.1276 1.12665 22.7321 0.40102 21.2304 0C21.1897 0.173913 21.1617 0.350571 21.1468 0.528568L20.5764 0.45251C20.5372 0.691595 20.513 0.932917 20.5041 1.17503H19.9565C19.9565 1.17503 19.8957 1.69979 19.8995 1.96218H19.2264C18.9464 2.50591 18.6287 3.02943 18.2757 3.5289C18.0878 3.52083 17.8996 3.52847 17.7129 3.55171V3.64297C17.1803 3.5429 16.6545 3.40955 16.1386 3.2437L15.6633 3.71903C15.477 3.5327 15.0663 3.20567 15.0663 3.20567L14.686 3.58594C14.5056 3.42245 14.3164 3.26885 14.1194 3.12581L13.7734 3.58594C13.6372 3.4697 13.4923 3.36417 13.3398 3.27031C12.5623 4.61553 12.0885 6.11465 11.9519 7.66242C11.7947 9.05453 11.8254 10.4615 12.0431 11.8454C12.0392 11.9125 12.0392 11.9798 12.0431 12.0469C11.976 12.0423 11.9087 12.0423 11.8416 12.0469C10.458 11.8255 9.05056 11.7947 7.65862 11.9557C6.10901 12.0891 4.60797 12.563 3.26271 13.3436C3.35896 13.4942 3.4657 13.6378 3.58214 13.7734L3.12201 14.1232C3.26495 14.3191 3.41855 14.507 3.58214 14.686L3.20187 15.0663C3.20187 15.0663 3.5289 15.4769 3.71523 15.6633L3.23989 16.1386C3.42465 16.7216 3.57073 17.3161 3.6772 17.9183C3.54039 18.0469 3.41328 18.1854 3.29693 18.3328L3.35778 18.405C2.90879 18.7078 2.44283 18.9846 1.96219 19.234V19.9071C1.696 19.9071 1.17503 19.9641 1.17503 19.9641V20.565C0.931805 20.576 0.68935 20.6001 0.448718 20.6372L0.528575 21.2114C0.350644 21.2249 0.173962 21.2516 0 21.2913C0.398684 22.7939 1.12457 24.1898 2.1257 25.3792C3.00267 26.4794 4.02624 27.4544 5.16786 28.2768C5.21439 28.3255 5.26392 28.3712 5.31616 28.4137C5.26392 28.4562 5.21439 28.5019 5.16786 28.5506C4.02712 29.3741 3.00368 30.3489 2.1257 31.4483C1.12457 32.6376 0.398684 34.0335 0 35.5362C0.173962 35.5759 0.350644 35.6026 0.528575 35.616L0.448718 36.1902C0.68935 36.2273 0.931805 36.2514 1.17503 36.2625V36.8215C1.17503 36.8215 1.696 36.8785 1.96219 36.8785V37.5516C2.44436 37.7997 2.91047 38.0778 3.35778 38.3844L3.29693 38.4528C3.41235 38.601 3.53952 38.7396 3.6772 38.8673C3.57117 39.4696 3.42508 40.0641 3.23989 40.647L3.68481 41.0995C3.49848 41.2858 3.17144 41.6965 3.17144 41.6965L3.55171 42.0768C3.38813 42.2558 3.23452 42.4437 3.09159 42.6396L3.55171 42.9894C3.43527 43.125 3.32853 43.2686 3.23229 43.4191C4.57755 44.1998 6.07859 44.6737 7.6282 44.8071C9.02014 44.968 10.4276 44.9373 11.8112 44.7159C11.877 44.7205 11.9431 44.7205 12.0089 44.7159C12.0089 44.7881 12.0089 44.9174 12.0089 44.9174C11.7907 46.3013 11.76 47.7083 11.9176 49.1004C12.0518 50.6498 12.5257 52.1507 13.3056 53.4963C13.4589 53.4037 13.6039 53.2981 13.7391 53.1806L14.0852 53.6408C14.2822 53.4977 14.4713 53.3441 14.6518 53.1806L15.032 53.5609C15.032 53.5609 15.4427 53.2339 15.6291 53.0476L16.1044 53.5229C16.6203 53.357 17.1461 53.2237 17.6787 53.1236V53.2187C17.8656 53.2388 18.0537 53.2451 18.2415 53.2377C18.5945 53.7372 18.9121 54.2607 19.1922 54.8044H19.8653C19.8653 55.0668 19.9223 55.5915 19.9223 55.5915H20.4813C20.4902 55.8337 20.5143 56.075 20.5535 56.3141L21.124 56.238C21.1389 56.416 21.1669 56.5927 21.2076 56.7666C22.7099 56.3671 24.1057 55.6413 25.2955 54.6409C26.3949 53.7629 27.3697 52.7395 28.1932 51.5987C28.1932 51.5987 28.2844 51.5075 28.3301 51.4504C28.3716 51.5023 28.416 51.5518 28.4632 51.5987C29.2877 52.7386 30.2624 53.7619 31.3608 54.6409C32.552 55.6414 33.949 56.3671 35.4525 56.7666C35.4919 56.5926 35.5186 56.4159 35.5324 56.238L36.1028 56.3141C36.1415 56.0748 36.1669 55.8336 36.1788 55.5915H36.734C36.734 55.5915 36.7948 55.0668 36.791 54.8044H37.4641C37.7442 54.2607 38.0618 53.7372 38.4148 53.2377C38.6026 53.2451 38.7907 53.2387 38.9776 53.2187V53.1236C39.5114 53.224 40.0384 53.3574 40.5557 53.5229L41.031 53.0476C41.2136 53.2339 41.6281 53.5609 41.6281 53.5609L42.0083 53.1806C42.1866 53.3451 42.3745 53.4988 42.5711 53.6408L42.9172 53.1806C43.0531 53.2972 43.198 53.4028 43.3507 53.4963C44.1493 52.1615 44.644 50.6671 44.7995 49.1194C44.9604 47.7274 44.9297 46.32 44.7082 44.9364C44.7082 44.9364 44.7082 44.8071 44.7082 44.7349C44.7753 44.7395 44.8427 44.7395 44.9098 44.7349C46.2933 44.9567 47.7008 44.9874 49.0927 44.8261C50.6425 44.6932 52.1436 44.2192 53.4887 43.4381C53.3917 43.2847 53.2836 43.1386 53.1654 43.0008L53.6256 42.651C53.4849 42.4571 53.3708 42.324 53.1654 42.0882L53.5457 41.7079C53.5457 41.7079 53.2187 41.2972 53.0285 41.1109L53.5039 40.6356C53.3179 40.0532 53.173 39.4585 53.0704 38.8559C53.2061 38.7262 53.3331 38.5878 53.4506 38.4414L53.2795 38.2399L53.2491 38.2094L52.8232 37.6771C53.405 37.6276 53.9298 37.5782 54.3443 37.5326C54.3024 37.5706 53.6902 37.9433 53.2567 38.2018L53.2871 38.2323L53.3936 38.3654C53.8423 38.059 54.3097 37.7808 54.793 37.5326V36.8595C55.0554 36.8595 55.5763 36.8025 55.5763 36.8025V36.2435C55.8185 36.2345 56.0598 36.2104 56.2989 36.1712L56.219 35.6008C56.3981 35.5843 56.5759 35.5563 56.7514 35.5171C56.3506 34.0146 55.6235 32.6188 54.6219 31.4292L54.6295 31.433ZM55.3254 20.2227V20.7437C55.3254 20.7437 55.9794 20.8007 56.006 20.8121L55.9376 21.1125C55.8197 21.1696 53.7168 21.0441 51.3059 20.8844L52.0208 20.0364L55.3254 20.2227ZM54.5116 19.9147C54.4736 19.9451 53.5533 19.8881 52.23 19.793L52.6102 19.3557C53.2561 19.3873 53.8997 19.4546 54.5382 19.5572L54.5116 19.9147ZM53.2567 18.5876C53.6864 18.8499 54.3024 19.2226 54.3443 19.2606C53.9222 19.2112 53.3974 19.1618 52.8232 19.1123L53.2567 18.5876ZM52.7776 18.2073L52.9525 18.3936L47.431 24.8582C46.8225 25.5693 46.2255 26.288 45.6057 26.9915C45.6817 26.6379 45.7122 26.1245 45.7996 25.691C45.8871 25.2575 45.9669 24.8126 45.9669 24.8126C46.1951 24.5122 51.3516 18.8233 53.1921 16.5075C53.1921 16.5911 52.7776 18.2187 52.7776 18.2187V18.2073ZM53.116 16.1576C53.1464 16.2945 47.758 22.4587 45.8909 24.5692C44.4368 23.2844 42.8301 22.1835 41.1071 21.2913C42.8136 21.844 44.418 22.6725 45.8567 23.744C48.1383 21.4053 52.7015 15.9371 52.8346 15.9219L53.116 16.1576ZM41.6471 3.57453L42.0274 3.93198C42.0274 3.93198 42.5293 3.50607 42.5559 3.49466L42.7194 3.75705C42.6776 3.88254 41.0995 5.27813 39.297 6.87146L39.2057 5.76487L41.6471 3.57453ZM40.6203 3.66198L40.8523 3.92818C40.8523 3.97761 40.1564 4.58604 39.1639 5.44925L39.1145 4.87504C39.5962 4.43873 40.1042 4.03235 40.6356 3.65819L40.6203 3.66198ZM40.2857 3.58213C39.9511 3.84452 39.548 4.17915 39.1031 4.55562L39.046 3.87493C39.5328 3.75325 40.2325 3.58213 40.2857 3.58213ZM38.4262 3.93198H38.681C38.9776 7.68524 39.3236 11.4537 39.5556 15.1956C39.3617 14.8913 39.0194 14.5073 38.776 14.1384L38.2703 13.4007C38.2209 13.0204 37.8444 5.35799 37.5098 2.41851C37.5706 2.47935 38.43 3.92057 38.43 3.92057L38.4262 3.93198ZM36.8557 2.25119L37.2093 2.22457C37.331 2.30442 37.8786 10.4726 38.0611 13.2714C36.123 13.3913 34.2072 13.7502 32.3571 14.3399C33.9527 13.5203 35.6734 12.9715 37.4489 12.7162C37.3957 9.45348 36.7606 2.35766 36.8519 2.25119H36.8557ZM19.5344 2.22457L19.8919 2.25119C19.9793 2.35766 19.3443 9.45348 19.2911 12.7162C21.0678 12.9715 22.7898 13.5203 24.3867 14.3399C22.5365 13.7506 20.6207 13.3917 18.6826 13.2714C18.8614 10.4726 19.4127 2.30442 19.5306 2.22457H19.5344ZM18.059 3.93198H18.31C18.31 3.93198 19.1732 2.49076 19.2302 2.42991C18.8918 5.3694 18.5153 13.0394 18.4697 13.4121L17.9639 14.1498C17.7205 14.5301 17.3783 14.9104 17.2034 15.207C17.4353 11.4651 17.7852 7.69665 18.0818 3.94339L18.059 3.93198ZM17.7015 3.87493L17.6445 4.55562C17.1958 4.17535 16.7927 3.84452 16.458 3.58213C16.5151 3.58213 17.2186 3.75325 17.7015 3.87493ZM16.1082 3.65438C16.6388 4.03106 17.1467 4.43865 17.6293 4.87504L17.5836 5.44545C16.5873 4.58224 15.8953 3.9738 15.8914 3.92437L16.1082 3.65438ZM14.1726 3.49087C14.2031 3.49087 14.705 3.92818 14.705 3.92818L15.0853 3.56692L17.5304 5.73446L17.4201 6.84864C15.6062 5.25531 14.0281 3.85972 13.9977 3.73424L14.1726 3.49087ZM3.87114 15.8991C4.01184 15.8991 8.57887 21.3825 10.8491 23.7212C12.2868 22.6483 13.8915 21.8196 15.5986 21.2685C13.8756 22.1607 12.2689 23.2616 10.8149 24.5464C8.95914 22.4397 3.58974 16.2717 3.58974 16.1348L3.87114 15.8991ZM3.5251 16.4847C5.3656 18.8005 10.522 24.4893 10.7502 24.7897C10.7502 24.7897 10.8377 25.2765 10.9137 25.6682C10.9898 26.0599 11.0316 26.615 11.1115 26.9687C10.4916 26.2652 9.8908 25.5465 9.28617 24.8354L3.76467 18.3708L3.93579 18.1845C3.93579 18.1845 3.5251 16.5569 3.52129 16.4733L3.5251 16.4847ZM3.45665 18.5799L3.89776 19.1047C3.31595 19.1542 2.79498 19.2036 2.37668 19.2492C2.41471 19.2112 3.03075 18.8385 3.46045 18.5799H3.45665ZM4.10691 19.3405L4.49098 19.8044C3.17525 19.8957 2.255 19.9565 2.20936 19.9261L2.18275 19.5687C2.81986 19.4655 3.46226 19.3983 4.10691 19.3671V19.3405ZM1.38038 20.7551V20.2341L4.6659 20.044L5.38461 20.8958C2.9737 21.0517 0.867014 21.181 0.752933 21.124L0.680682 20.8235C0.711104 20.8235 1.36517 20.7551 1.36517 20.7551H1.38038ZM3.44524 38.2133C3.01554 37.9547 2.3995 37.582 2.36147 37.544C2.78357 37.5896 3.30454 37.639 3.88255 37.6885L3.44524 38.2133ZM2.16753 37.2436L2.19415 36.8861C2.22838 36.8557 3.14863 36.9127 4.47577 37.0078L4.0955 37.4451C3.45085 37.414 2.80845 37.3467 2.17134 37.2436H2.16753ZM3.92818 38.6087L3.75706 38.4224L9.27857 31.9578C9.8832 31.2467 10.484 30.528 11.1001 29.8245C11.024 30.1782 10.9936 30.6915 10.9061 31.125C10.8187 31.5585 10.7426 32.0034 10.7426 32.0034C10.5106 32.3039 5.35419 37.9927 3.51749 40.3123C3.51749 40.2249 3.93198 38.5973 3.93198 38.5973L3.92818 38.6087ZM3.59354 40.6584C3.56693 40.5215 8.95154 34.3535 10.8187 32.2468C12.2727 33.5316 13.8794 34.6325 15.6024 35.5247C13.8953 34.9736 12.2906 34.1449 10.8529 33.072C8.57127 35.4145 4.00804 40.8827 3.87494 40.8941L3.59354 40.6584ZM15.0739 53.2681L14.6936 52.9068C14.6936 52.9068 14.1916 53.3328 14.1612 53.3442L13.9977 53.0818C14.0433 52.9601 15.6177 51.5607 17.4201 49.9674L17.5152 51.074L15.0739 53.2681ZM16.0968 53.1806L15.8648 52.9107C15.8648 52.8612 16.5607 52.2528 17.557 51.3896L17.6027 51.96C17.1191 52.3953 16.6113 52.8028 16.0816 53.1806H16.0968ZM16.4314 53.2529C16.7661 52.9905 17.1692 52.6559 17.6179 52.2794L17.6749 52.9601C17.1844 53.0818 16.4885 53.2529 16.4314 53.2529ZM18.2909 52.9031H18.04C17.7434 49.1498 17.3935 45.3813 17.1615 41.6395C17.3555 41.9399 17.6977 42.3278 17.9221 42.6966L18.4278 43.4344C18.4773 43.8146 18.8537 51.477 19.1884 54.4165C19.1313 54.3557 18.2681 52.9145 18.2681 52.9145L18.2909 52.9031ZM19.8424 54.5838L19.4888 54.6105C19.3709 54.5306 18.8195 46.3624 18.6408 43.5636C20.5788 43.4433 22.4946 43.0844 24.3448 42.4951C22.7475 43.3144 21.0258 43.8643 19.2492 44.1226C19.3025 47.3815 19.9375 54.4774 19.8462 54.5838H19.8424ZM37.1637 54.6105L36.8101 54.5838C36.7188 54.4774 37.3538 47.3815 37.4071 44.1226C35.6317 43.8643 33.9113 43.3144 32.3153 42.4951C34.1654 43.0848 36.0812 43.4437 38.0193 43.5636C37.8368 46.3624 37.2892 54.5306 37.1675 54.6105H37.1637ZM38.643 52.9031H38.3882C38.3882 52.9031 37.5288 54.3443 37.4679 54.4051C37.8064 51.4656 38.1828 43.7956 38.2285 43.4229L38.7342 42.6852C38.9776 42.305 39.3198 41.9247 39.5138 41.6281C39.2818 45.3699 38.932 49.1384 38.6391 52.8916L38.643 52.9031ZM39.0194 52.9601L39.0765 52.2794C39.5214 52.6597 39.9245 52.9905 40.2591 53.2529C40.2059 53.2529 39.4986 53.0818 39.0194 52.9601ZM40.6089 53.1806C40.0793 52.8028 39.5714 52.3953 39.0879 51.96L39.1373 51.3896C40.1298 52.2528 40.8219 52.8612 40.8257 52.9107L40.6089 53.1806ZM42.5445 53.3442C42.5179 53.3442 42.0159 52.9068 42.0159 52.9068L41.6357 53.2681L39.1791 51.074L39.2704 49.9674C41.0881 51.5569 42.6662 52.9601 42.6928 53.0818L42.5445 53.3442ZM52.8346 40.917C52.6977 40.917 48.1269 35.4335 45.8605 33.0948C44.421 34.1671 42.8151 34.9957 41.1071 35.5476C42.832 34.6564 44.44 33.5555 45.8947 32.2696C47.7466 34.3763 53.1198 40.5443 53.1198 40.6812L52.8346 40.917ZM52.9373 38.4338L52.7661 38.6201C52.7661 38.6201 53.1768 40.2477 53.1806 40.3351C51.3401 38.0155 46.1837 32.3267 45.9555 32.0263C45.9555 32.0263 45.8681 31.5433 45.7882 31.1478C45.7084 30.7524 45.6703 30.201 45.5943 29.8511C48.0774 32.6575 50.4959 35.5552 52.9373 38.4338ZM52.5988 37.4565L52.2186 37.0192C53.5305 36.9279 54.4507 36.8671 54.5002 36.8975L54.5268 37.255C53.8883 37.3576 53.2447 37.4249 52.5988 37.4565ZM51.3097 35.9354C53.7206 35.7795 55.8235 35.654 55.9414 35.7073L56.0098 36.0115C55.9832 36.0115 55.3292 36.0761 55.3292 36.0761V36.5971L52.0398 36.7872L45.3813 28.9043L42.3696 30.5318L42.2517 30.4215L41.9817 30.6687L42.0312 30.7181L41.7726 30.855L40.8219 31.7145C42.343 30.8855 43.9021 30.0375 45.2786 29.3796C45.3218 29.5627 45.3113 29.7543 45.2486 29.9316C45.1859 30.1089 45.0736 30.2644 44.925 30.3797C43.4458 31.2201 41.9513 31.9274 40.5177 32.7184C40.2933 32.84 39.799 33.0986 39.2438 33.4104V33.6728C41.3847 32.6423 43.9135 31.4254 45.503 30.4025C45.5577 30.5361 45.5589 30.6855 45.5066 30.82C45.4542 30.9544 45.3522 31.0636 45.2216 31.125C43.5506 32.2934 41.7672 33.2921 39.8978 34.1063L39.2552 34.3915V34.7072C41.1387 34.0469 42.9283 33.1444 44.579 32.0225L45.56 31.3342L45.6817 32.1442C45.5943 32.224 45.233 32.5472 45.138 32.6271C43.4516 34.1536 41.4437 35.2817 39.2628 35.9278V36.2168C39.7755 36.1551 40.2836 36.0598 40.7839 35.9316C40.9702 35.886 41.1641 35.829 41.3353 35.7795C42.7744 35.3391 44.1442 34.6977 45.4041 33.8744C45.5791 33.7489 45.754 33.6538 45.9251 33.5131L53.2111 41.6813L52.8536 42.0616C52.8536 42.0616 53.2795 42.5635 53.2909 42.5902L53.0285 42.7575C52.7966 42.6738 48.0584 37.1751 45.9974 34.8479C45.6665 35.0038 45.3319 35.1026 45.0011 35.2281C43.1415 36.2282 40.9702 36.4488 39.297 36.426V36.7834C41.6004 36.8738 43.8883 36.3696 45.9403 35.3194C48.7201 38.3159 50.6442 40.5253 53.1236 43.3355C52.036 44.0048 50.4617 44.3736 48.8418 44.5904C48.1315 44.6578 47.4179 44.6832 46.7047 44.6664C46.0012 44.6664 45.1608 44.617 44.7197 44.347C44.333 44.0732 43.975 43.7611 43.6511 43.4153C42.6092 42.3734 41.552 41.3581 40.5025 40.3504L39.3426 39.2096V39.5898L40.3009 40.5443C41.3086 41.5938 42.324 42.6548 43.3697 43.6967C43.7135 44.0225 44.0255 44.3803 44.3014 44.7653C44.5714 45.2102 44.6208 46.0506 44.6208 46.7503C44.6385 47.4636 44.6118 48.1774 44.5409 48.8874C44.328 50.5226 43.9553 52.0855 43.2898 53.1692C41.8676 51.9143 40.5975 50.804 39.3046 49.6517L40.0652 40.7801L36.7834 39.8028C36.7834 39.7495 36.7834 39.6963 36.7834 39.6431H36.4222V39.7115L36.1408 39.6279L34.8593 39.5632C36.521 40.0499 38.2247 40.5557 39.6621 41.0615C39.5605 41.2142 39.4174 41.3347 39.2497 41.4088C39.0819 41.4829 38.8965 41.5075 38.7152 41.4798C37.0762 41.031 35.5171 40.4759 33.9428 40.0195C33.6995 39.9473 33.1633 39.7838 32.5548 39.6088L32.3723 39.799C34.6159 40.5823 37.2588 41.5102 39.1107 41.9095C38.8635 42.2897 38.7304 42.2707 38.3996 42.2213C36.3936 41.8664 34.428 41.3122 32.532 40.5671L31.8704 40.339L31.6536 40.5633C33.4533 41.4339 35.3595 42.0642 37.3234 42.438L38.5023 42.6472L38.0193 43.305L37.293 43.2632C35.0215 43.1487 32.8047 42.5263 30.8056 41.4417L30.6041 41.6509C31.0109 41.9694 31.4376 42.2615 31.8818 42.5255L32.3799 42.8069C33.6955 43.5088 35.1038 44.0209 36.5629 44.328C36.7758 44.3622 36.966 44.4192 37.1865 44.4421L36.5629 55.371H36.0419C36.0419 55.371 35.9849 56.0251 35.9735 56.0555L35.673 55.9832C35.5666 55.7627 36.1028 48.5223 36.2929 45.4193C35.9468 45.2977 35.6426 45.1341 35.3118 44.9934C33.2888 44.385 31.6004 43.0046 30.4329 41.8106L30.1858 42.0692C31.7552 43.7565 33.7327 45.0111 35.9278 45.7122C35.7719 49.7963 35.5742 52.7167 35.3384 56.4624C34.0987 56.1658 32.7336 55.3216 31.4216 54.3177C30.8717 53.8643 30.3497 53.3779 29.8587 52.8612C29.3606 52.3669 28.8016 51.7204 28.6799 51.2337C28.6019 50.7664 28.5701 50.2926 28.5848 49.8191C28.5848 48.3474 28.5544 46.8796 28.524 45.427V43.7994L28.254 44.077V45.4308C28.2274 46.8872 28.1932 48.355 28.1932 49.8305C28.2098 50.3027 28.1779 50.7755 28.0981 51.2413C27.9764 51.747 27.4174 52.3821 26.9193 52.8726C26.4292 53.3902 25.9072 53.8767 25.3564 54.3291C24.0482 55.333 22.6945 56.1734 21.4396 56.47C21.2076 52.7281 21.0061 49.8077 20.854 45.7236C22.9533 45.0516 24.8567 43.8767 26.3983 42.3011L26.1473 42.0274C25.0065 43.1682 23.3789 44.4383 21.4662 45.0125C21.1354 45.1532 20.8311 45.3167 20.4851 45.4384C20.6752 48.5414 21.2114 55.7817 21.1049 56.0022L20.8045 56.0745C20.8045 56.0441 20.7399 55.39 20.7399 55.39H20.2151L19.5915 44.4611C19.812 44.4383 20.006 44.3812 20.2189 44.347C21.6779 44.0394 23.0861 43.5274 24.4019 42.8259C24.5692 42.7309 24.7365 42.6434 24.9 42.5445C25.2673 42.3265 25.6227 42.0891 25.9648 41.8334L25.7442 41.5938C23.8015 42.5915 21.6697 43.1669 19.4888 43.2822L18.7663 43.3241L18.2415 42.6206L19.4203 42.4114C21.3093 42.0546 23.1446 41.4565 24.881 40.6318L24.6643 40.3922L24.2155 40.5633C22.3191 41.3162 20.3522 41.878 18.3442 42.2403C18.0095 42.2897 17.8803 42.2935 17.6369 41.9285C19.8536 41.3649 22.0383 40.682 24.1813 39.8826L24.0026 39.6811L22.8009 40.0385C21.2266 40.4949 19.6713 41.0501 18.0324 41.4988C17.8456 41.5241 17.6554 41.4944 17.4852 41.4134C17.3151 41.3323 17.1722 41.2034 17.0741 41.0425C18.7511 40.453 20.7893 39.8636 22.7021 39.3046L21.5613 39.3236L20.3216 39.7039C20.3216 39.586 20.3216 39.4681 20.3216 39.3541H19.9679C19.9679 39.5062 19.9679 39.6545 19.9679 39.8066L16.6596 40.7725L17.4201 49.6441C16.1272 50.785 14.8609 51.9067 13.4349 53.1616C12.7694 52.0779 12.4006 50.4997 12.1838 48.8798C12.1125 48.1698 12.0871 47.456 12.1078 46.7427C12.1078 46.043 12.1534 45.2216 12.4272 44.7577C12.701 44.371 13.0131 44.013 13.3589 43.6891C14.4008 42.651 15.4161 41.59 16.4238 40.5443L17.5646 39.3845H17.1844L16.2223 40.339C15.1765 41.3467 14.1118 42.3658 13.0699 43.4077C12.7472 43.7533 12.3905 44.0655 12.0051 44.3394C11.5602 44.6094 10.7198 44.6626 10.0163 44.6588C9.30431 44.6757 8.59195 44.6503 7.88298 44.5828C6.24782 44.366 4.68492 43.9933 3.59735 43.3279C6.0767 40.5177 8.00467 38.3083 10.7844 35.3118C12.7448 36.3212 14.9225 36.8356 17.1273 36.8101V36.4298C15.255 36.4737 13.3994 36.0682 11.7161 35.2471C11.3853 35.1102 11.0544 35.0114 10.7236 34.8669C8.67394 37.1827 3.93198 42.6814 3.70002 42.7613L3.43763 42.5978C3.43763 42.5711 3.87494 42.0692 3.87494 42.0692L3.49467 41.6889L10.7806 33.5207C10.9556 33.6576 11.1305 33.7565 11.3054 33.882C12.5557 34.6912 13.914 35.3198 15.3401 35.7491C15.5226 35.8023 15.7203 35.8594 15.8876 35.905C16.3014 36.0098 16.7203 36.0936 17.1425 36.156V35.829C15.064 35.1601 13.15 34.06 11.526 32.6005L10.9822 32.1175L11.1077 31.3076C11.7465 31.7601 11.891 31.8551 12.085 31.9958C13.6738 33.0775 15.3938 33.9528 17.2034 34.6007V34.2737L16.7623 34.0797C14.8929 33.2655 13.1095 32.2668 11.4385 31.0984C11.3079 31.037 11.2059 30.9278 11.1535 30.7933C11.1012 30.6589 11.1024 30.5094 11.1571 30.3759C13.1273 31.544 15.1583 32.6065 17.2414 33.5588V33.2888C16.7585 33.0226 16.344 32.7982 16.1424 32.6917C14.7582 31.9008 13.2752 31.2125 11.7998 30.3531C11.6497 30.2389 11.5361 30.0836 11.4726 29.9061C11.4092 29.7285 11.3986 29.5364 11.4423 29.353C13.047 30.1135 14.9066 31.144 16.6558 32.1023L15.8344 31.3076L14.6936 30.6915C14.7773 30.6041 14.8571 30.5242 14.9408 30.4444L14.686 30.1972C14.5757 30.2998 14.4616 30.3987 14.3514 30.5052L11.3358 28.8776L4.68111 36.7606L1.39559 36.5705V36.0495C1.39559 36.0495 0.741526 35.9925 0.711104 35.9811L0.783355 35.6807C0.897436 35.6236 3.00413 35.7529 5.41503 35.9088L5.61277 35.6768C3.88255 35.5742 2.19035 35.4677 0.289005 35.346C0.585615 34.1063 1.42981 32.7412 2.43372 31.433C2.88457 30.8808 3.36974 30.3576 3.88635 29.8663C4.3807 29.3682 5.02716 28.813 5.51771 28.6913C5.98462 28.6101 6.45863 28.5769 6.93231 28.5924C8.40395 28.5924 9.87179 28.562 11.3244 28.5354H12.9634L12.682 28.2616H11.3358C9.87939 28.235 8.41155 28.2046 6.93611 28.2046C6.46244 28.22 5.98842 28.1869 5.52151 28.1057C5.01575 27.984 4.3807 27.4288 3.89015 26.9307C3.37354 26.4394 2.88837 25.9162 2.43753 25.364C1.42981 24.0558 0.589417 22.7021 0.292807 21.451C2.19415 21.3331 3.87114 21.2228 5.61658 21.1201L11.3358 27.9194L14.3476 26.2918L14.4692 26.4021L14.7392 26.1587L14.6898 26.1093L14.9484 25.9686L15.8991 25.1282C14.378 25.9572 12.8151 26.8052 11.4385 27.463C11.3946 27.2802 11.4051 27.0885 11.4686 26.9116C11.5321 26.7346 11.6459 26.58 11.7959 26.4667C13.2714 25.6225 14.7659 24.9152 16.2033 24.1243C16.4276 24.0026 16.922 23.744 17.4734 23.4322V23.1698C15.3311 24.1495 13.2418 25.2411 11.2141 26.4401C11.1595 26.3066 11.1582 26.1571 11.2106 26.0227C11.2629 25.8882 11.365 25.779 11.4955 25.7176C13.1666 24.5492 14.95 23.5505 16.8193 22.7363L17.4658 22.4511V22.1355C15.5823 22.7958 13.7927 23.6982 12.142 24.8202C11.9481 24.9609 11.8036 25.0559 11.1647 25.5085L11.0392 24.6985L11.583 24.2155C13.2576 22.6887 15.2518 21.5545 17.4201 20.8958V20.6068C16.9077 20.6706 16.3998 20.7658 15.8991 20.892C15.7165 20.9376 15.5188 20.9947 15.3515 21.0479C13.9311 21.4782 12.579 22.1081 11.3358 22.9188C11.1609 23.0405 10.986 23.1394 10.8111 23.2763L3.51369 15.1081L3.89396 14.7278C3.89396 14.7278 3.46805 14.2259 3.45665 14.1993L3.71903 14.0357C3.951 14.1156 8.68915 19.6143 10.7502 21.9415C11.081 21.7856 11.4119 21.6867 11.7465 21.5613C13.606 20.5611 15.7736 20.3444 17.4506 20.3634V20.006C15.148 19.9228 12.8629 20.4335 10.8149 21.489C8.03509 18.4925 6.11093 16.2831 3.62777 13.4729C4.71534 12.8075 6.28965 12.4348 7.9134 12.218C8.62237 12.1505 9.33473 12.1251 10.0467 12.142C10.7502 12.142 11.5906 12.1914 12.0355 12.4614C12.4209 12.7353 12.7776 13.0475 13.1003 13.3931C14.1422 14.435 15.2032 15.4503 16.2489 16.4581L17.3897 17.6179V17.2376L16.4352 16.2831C15.4237 15.2336 14.4084 14.1726 13.3665 13.1269C13.02 12.8051 12.7077 12.4483 12.4348 12.0621C12.1648 11.6172 12.1116 10.7768 12.1154 10.0771C12.0985 9.36389 12.1239 8.65025 12.1914 7.94001C12.4082 6.30485 12.777 4.74576 13.4425 3.65819C14.8685 4.91308 16.1348 6.02345 17.4315 7.17947L16.671 16.0474L19.9527 17.0246C19.9527 17.0779 19.9527 17.1311 19.9527 17.1882H20.333V17.1197L20.6106 17.2034L21.8921 17.268C20.2303 16.7813 18.5267 16.2755 17.0893 15.7698C17.1874 15.6088 17.3303 15.4799 17.5005 15.3988C17.6707 15.3178 17.8608 15.2881 18.0476 15.3134C19.6865 15.7622 21.2418 16.3173 22.8162 16.7737C23.0633 16.8459 23.5995 17.0094 24.2041 17.1844L24.3905 16.998C22.1469 16.2109 19.5002 15.283 17.6521 14.8837C17.8955 14.5035 18.0324 14.5035 18.3594 14.5719C20.3666 14.9269 22.3335 15.481 24.2308 16.2261L24.8886 16.4771L25.1092 16.2527C23.308 15.3827 21.4005 14.7524 19.4356 14.378L18.2567 14.1688L18.7435 13.511L19.466 13.5528C21.7387 13.6668 23.9569 14.2892 25.9572 15.3743L26.1549 15.1651C25.7487 14.8458 25.3219 14.5536 24.8772 14.2905L24.3829 14.0091C23.0668 13.3084 21.6587 12.7964 20.1999 12.488C19.9869 12.4538 19.793 12.3968 19.5725 12.374L20.1999 1.44502H20.7209C20.7209 1.44502 20.7741 0.79096 20.7855 0.760538L21.0897 0.832779C21.1924 1.05334 20.6562 8.29367 20.4661 11.3967C20.8121 11.5184 21.1163 11.6819 21.4472 11.8226C23.4702 12.431 25.1624 13.8114 26.326 15.0054L26.577 14.7468C25.0144 13.0448 23.0394 11.7743 20.8426 11.0582C20.9947 6.97413 21.1962 4.05366 21.432 0.311812C22.6716 0.608422 24.0368 1.45262 25.3449 2.45273C25.8957 2.90518 26.4177 3.39161 26.9078 3.90917C27.4098 4.40352 27.965 5.04997 28.0867 5.54051C28.1665 6.00629 28.1984 6.47904 28.1817 6.95132C28.1817 8.42296 28.216 9.8908 28.2426 11.3434V12.9862L28.5126 12.7048V11.351C28.543 9.8946 28.5734 8.42677 28.5734 6.95132C28.5587 6.47907 28.5906 6.00652 28.6685 5.54051C28.7902 5.03476 29.3492 4.39971 29.8473 3.90917C30.3396 3.39243 30.8628 2.90605 31.414 2.45273C32.7222 1.44882 34.0759 0.608422 35.327 0.311812C35.5628 4.05366 35.7643 6.97413 35.9164 11.0582C33.8167 11.7294 31.9131 12.9044 30.3721 14.4806L30.6193 14.7544C31.7601 13.6136 33.3914 12.3435 35.3004 11.7693C35.6312 11.6286 35.9354 11.4651 36.2815 11.3434C36.0913 8.24043 35.5552 1.0001 35.6616 0.779547L35.9621 0.707295C35.9621 0.737717 36.0305 1.39178 36.0305 1.39178H36.5515L37.1751 12.3207C36.9546 12.3435 36.7644 12.4006 36.5515 12.4348C35.0925 12.7425 33.6843 13.2546 32.3685 13.9559L31.8704 14.2373C31.5038 14.4544 31.1496 14.6918 30.8094 14.9484L31.0262 15.1879C32.9689 14.1903 35.1007 13.6149 37.2816 13.4996L38.0079 13.4577L38.4908 14.1156L37.312 14.3247C35.4233 14.6823 33.5881 15.2804 31.8513 16.1044L32.0719 16.344L32.5206 16.1728C34.4166 15.4277 36.3822 14.8736 38.3882 14.5187C38.7228 14.4692 38.8559 14.4654 39.0993 14.8305C36.8813 15.394 34.6953 16.0769 32.551 16.8763L32.7336 17.0779L33.9314 16.7204C35.5095 16.2641 37.0648 15.7089 38.7038 15.2602C38.8906 15.2349 39.0807 15.2646 39.2509 15.3456C39.4211 15.4267 39.564 15.5555 39.6621 15.7165C37.9813 16.3059 35.943 16.8954 34.0303 17.4582L35.1711 17.4391L36.7682 16.96L36.4146 17.0665C36.4146 17.1844 36.4146 17.3022 36.4146 17.4163H36.7682C36.7682 17.2642 36.7682 17.1159 36.7682 16.9638L40.0499 15.9865L39.2894 7.11864C40.5823 5.97783 41.8524 4.83702 43.2746 3.59734C43.9401 4.68491 44.3128 6.25923 44.5257 7.87918C44.5966 8.5892 44.6233 9.30295 44.6056 10.0163C44.6056 10.716 44.5561 11.5564 44.2861 12.0013C44.0112 12.387 43.6992 12.7449 43.3545 13.0699C42.3125 14.108 41.2972 15.1689 40.2895 16.2185L39.1297 17.3783H39.51L40.4644 16.42C41.514 15.4123 42.5749 14.3932 43.6169 13.3512C43.9408 13.0055 44.2988 12.6934 44.6854 12.4196C45.1265 12.1496 45.9669 12.0964 46.6704 12.1002C47.3837 12.0833 48.0973 12.1087 48.8075 12.1762C50.4427 12.393 52.0018 12.7656 53.0894 13.4311C50.61 16.2413 48.6859 18.4507 45.9061 21.4472C43.9454 20.439 41.7678 19.9259 39.5632 19.9527L39.5442 20.333C41.1717 20.333 43.2024 20.5878 44.963 21.5346C45.2939 21.6677 45.6285 21.7666 45.9593 21.9149C48.0204 19.5877 52.7585 14.089 52.9905 14.0091L53.2529 14.1726C53.2529 14.1992 52.8156 14.7012 52.8156 14.7012L53.173 15.0815L45.9403 23.2763C45.7692 23.1394 45.5943 23.0405 45.4193 22.915C44.1667 22.1051 42.8058 21.4765 41.3771 21.0479C41.1946 20.9947 40.9968 20.9376 40.8295 20.892C40.4264 20.7893 40.0043 20.7057 39.5746 20.641L39.5556 20.968C41.6369 21.6359 43.5535 22.7361 45.1798 24.1965C45.2748 24.2764 45.6361 24.5996 45.7236 24.6795L45.6019 25.4894L44.6208 24.8012C43.0244 23.7171 41.2952 22.843 39.4757 22.2001V22.5233L39.913 22.7173C41.7824 23.5315 43.5658 24.5302 45.2368 25.6986C45.3674 25.76 45.4694 25.8692 45.5218 26.0037C45.5742 26.1381 45.5729 26.2876 45.5182 26.4211C43.5484 25.2522 41.5174 24.1897 39.4339 23.2382V23.512L40.5329 24.1091C41.9703 24.8962 43.461 25.6035 44.9402 26.4477C45.0892 26.5618 45.202 26.7166 45.2648 26.8934C45.3275 27.0703 45.3376 27.2615 45.2939 27.444C43.6891 26.6835 41.8334 25.653 40.0842 24.6985L40.9056 25.4932L42.0464 26.1093L41.7992 26.3527L42.0502 26.5998C42.1642 26.4972 42.2783 26.3983 42.3848 26.2918L45.3965 27.9194L51.1424 21.1201C52.8726 21.2228 54.5648 21.3331 56.4472 21.451C56.1505 22.6907 55.3063 24.0558 54.3062 25.364C53.8529 25.9152 53.3665 26.4384 52.8498 26.9307C52.3555 27.4288 51.709 27.984 51.2185 28.1095C50.7525 28.1874 50.2799 28.2193 49.8077 28.2046C48.3322 28.2046 46.8682 28.235 45.4117 28.2616H43.7728L44.0542 28.5354H45.4079C46.8606 28.562 48.3322 28.5924 49.8077 28.5924C50.2801 28.5769 50.7528 28.61 51.2185 28.6913C51.7242 28.813 52.3593 29.3682 52.8498 29.8701C53.3674 30.3603 53.8538 30.8822 54.3062 31.433C55.3102 32.7412 56.1505 34.0949 56.4472 35.346C54.5458 35.4677 52.8726 35.5742 51.1424 35.6768L51.3097 35.9354Z" fill="white"/>
<path d="M45.5601 28.6837L40.3618 23.6642L40.7421 16.4391L33.517 16.5646L28.6723 11.2028L23.6262 16.4048L16.401 16.0436L16.5227 23.2687L11.1761 28.1133L16.3706 33.1329L15.9904 40.358L23.2155 40.2325L28.0677 45.5867L33.0873 40.3922L40.3124 40.7535L40.1869 33.5284L45.5601 28.6837ZM32.707 39.3845L28.1019 44.1417L23.6642 39.2324L17.0437 39.3465L17.3783 32.7336L12.6174 28.1323L17.5304 23.6946L17.4164 17.0779L24.0254 17.4088L28.6267 12.6516L33.0644 17.5609L39.6811 17.4468L39.3465 24.0559L44.1075 28.6571L39.1982 33.1139L39.3123 39.7306L32.707 39.3845Z" fill="white"/>
<path d="M20.1465 21.0061L28.0979 18.9869C28.2127 18.9522 28.3317 18.933 28.4516 18.9299C28.6219 18.9243 28.7915 18.954 28.9497 19.0173L36.8593 20.8768L28.7292 23.5083C28.5047 23.5298 28.2783 23.5052 28.0637 23.436L20.1465 21.0061Z" fill="white"/>
<path d="M24.0897 22.6299L27.6034 24.1168C27.8422 24.1906 28.0912 24.2265 28.3411 24.2233C28.5719 24.22 28.8011 24.1841 29.0218 24.1168L32.8853 22.5957L32.9196 24.7937C32.5042 25.2324 32.0216 25.6021 31.4898 25.8888C30.5304 26.3801 29.4597 26.6134 28.383 26.5657C27.1373 26.5882 25.916 26.2183 24.8921 25.5086C24.6159 25.3055 24.3611 25.0749 24.1316 24.8203C24.1316 24.094 24.1087 23.3677 24.0935 22.6375" fill="white"/>
<path d="M23.6684 25.9951C24.2166 26.4731 24.8086 26.8983 25.4366 27.2652C26.2808 27.7558 26.7828 27.8927 27.4749 28.4441C27.8864 28.7744 28.2521 29.1581 28.5624 29.5849C28.7941 29.1389 29.1136 28.7444 29.5017 28.425C30.1748 27.8699 30.7338 27.828 31.5589 27.4021C32.2246 27.0587 32.8235 26.5989 33.3272 26.0446C33.5385 26.4923 33.6036 26.9951 33.5135 27.482C33.2397 28.8547 31.7529 29.3833 31.6692 29.4061C30.9366 29.726 30.2864 30.2085 29.7679 30.8169C29.252 31.4212 28.8871 32.1393 28.7031 32.9122C28.6906 32.9472 28.668 32.9777 28.6383 33C28.6085 33.0223 28.5729 33.0354 28.5358 33.0377C28.4911 33.038 28.4478 33.022 28.4142 32.9925C28.3805 32.9631 28.3589 32.9223 28.3533 32.878C28.2398 32.1473 27.9206 31.4641 27.433 30.9082C26.8436 30.2617 26.3873 30.2617 25.0031 29.2084C24.0334 28.4707 23.8623 28.155 23.752 27.9573C23.4914 27.3388 23.4657 26.6464 23.6798 26.0103" fill="white"/>
<path d="M18.9791 25.8887C19.2187 26.2689 19.5762 26.8431 19.9906 27.5504C20.717 28.7977 21.0744 29.5393 21.295 29.9309C21.8083 30.8398 22.7894 32.0376 24.8657 33.186C24.9046 32.8945 24.8652 32.5979 24.7516 32.3266C24.6148 32.0352 24.4069 31.7828 24.147 31.5927C23.4663 31.0071 23.1697 30.893 22.8959 30.6458C22.5651 30.3492 22.2076 29.8054 22.1582 28.7445C22.508 28.946 23.0176 29.2464 23.6336 29.6191C25.2346 30.6002 26.0331 31.0908 26.4476 31.5205C27.286 32.4223 27.8309 33.5574 28.0105 34.7756C28.1804 35.8116 28.0982 36.8734 27.771 37.871C26.8093 37.5287 25.8885 37.081 25.0254 36.5362C23.1176 35.3269 21.5476 33.6535 20.4622 31.6726C19.505 29.8938 18.9959 27.9085 18.9791 25.8887Z" fill="white"/>
<path d="M37.8408 25.8887C37.6012 26.2689 37.2437 26.8431 36.8293 27.5504C36.1029 28.7977 35.7417 29.5393 35.5211 29.9309C35.0116 30.8398 34.0305 32.0376 31.9542 33.186C31.9138 32.8949 31.9518 32.5982 32.0645 32.3266C32.2041 32.0359 32.4131 31.7838 32.6729 31.5927C33.3498 31.0071 33.6464 30.893 33.924 30.6458C34.2016 30.3987 34.6085 29.8054 34.6579 28.7445C34.3119 28.946 33.7985 29.2464 33.1863 29.6191C31.5853 30.6002 30.7868 31.0908 30.3723 31.5205C29.5339 32.4223 28.989 33.5574 28.8094 34.7756C28.6355 35.8115 28.7178 36.8742 29.0489 37.871C30.0149 37.5272 30.9396 37.0769 31.8059 36.5286C33.714 35.3196 35.2841 33.6462 36.3691 31.665C37.3193 29.8868 37.8243 27.9047 37.8408 25.8887Z" fill="white"/>
<path d="M68.8059 32.2087H68.0415V25.1851H66.4824V24.417H70.365V25.1851H68.8059V32.2087Z" fill="white"/>
<path d="M72.179 27.0601C72.4456 26.7678 72.7704 26.5346 73.1326 26.3754C73.4948 26.2163 73.8863 26.1347 74.2819 26.1361C74.6866 26.1301 75.0883 26.2063 75.4628 26.3599C75.8373 26.5134 76.1768 26.7413 76.4608 27.0297C76.7532 27.3097 76.9846 27.6471 77.1404 28.0208C77.2961 28.3944 77.3729 28.7963 77.3659 29.201C77.3832 30.026 77.076 30.8248 76.5103 31.4256C76.2401 31.7327 75.9062 31.9771 75.5318 32.142C75.1575 32.3068 74.7517 32.3881 74.3427 32.3801C73.9384 32.3882 73.5368 32.3119 73.1636 32.1561C72.7904 32.0002 72.4537 31.7683 72.1752 31.475C71.8896 31.1872 71.6644 30.8451 71.5129 30.469C71.3614 30.0928 71.2866 29.6902 71.293 29.2847H76.5749V29.2543C76.5869 28.9415 76.5366 28.6295 76.4269 28.3364C76.3172 28.0433 76.1504 27.7749 75.9361 27.5469C75.7235 27.3216 75.4653 27.1444 75.1787 27.027C74.8921 26.9096 74.5838 26.8548 74.2743 26.8662C73.9826 26.8635 73.6938 26.9236 73.4275 27.0424C73.1611 27.1611 72.9234 27.3358 72.7304 27.5545C72.5545 27.7443 72.4083 27.9597 72.2969 28.1933H71.4679C71.6182 27.7654 71.861 27.3759 72.179 27.0525V27.0601ZM76.4989 29.9159H72.179C72.2756 30.3068 72.4722 30.6659 72.7494 30.9579C72.9534 31.1813 73.2028 31.3587 73.4808 31.478C73.7589 31.5974 74.0592 31.656 74.3618 31.65C74.6608 31.6552 74.9575 31.5961 75.2317 31.4767C75.506 31.3573 75.7514 31.1804 75.9513 30.9579C76.2287 30.6666 76.4242 30.3071 76.5179 29.9159" fill="white"/>
<path d="M78.8262 24.4208H79.5868V27.0294C79.8049 26.7634 80.0821 26.552 80.3964 26.412C80.7106 26.2721 81.0532 26.2074 81.3968 26.2232C82.3019 26.2232 82.9407 26.5123 83.2982 27.0827C83.6481 27.7436 83.8074 28.4888 83.7583 29.235V32.2277H82.9978V29.2236C83.0337 28.6701 82.9372 28.1161 82.7164 27.6074C82.4616 27.1625 82.0053 26.9458 81.3246 26.9458C81.0217 26.9229 80.7184 26.9856 80.4495 27.1268C80.1805 27.268 79.9567 27.482 79.8035 27.7443C79.5975 28.2581 79.5116 28.8122 79.5525 29.3643V32.2277H78.792L78.8262 24.4208Z" fill="white"/>
<path d="M85.1573 30.3606H85.9178V30.3834C85.9093 30.6985 86.0086 31.007 86.1992 31.258C86.2936 31.3842 86.4166 31.4861 86.558 31.5555C86.6995 31.625 86.8554 31.6598 87.013 31.6573C87.2841 31.6658 87.5476 31.5674 87.7469 31.3835C87.845 31.2942 87.9226 31.1848 87.9745 31.0627C88.0263 30.9406 88.0512 30.8088 88.0473 30.6762C88.0532 30.5341 88.028 30.3924 87.9735 30.2611C87.919 30.1297 87.8365 30.0118 87.7317 29.9156C87.5047 29.7416 87.2466 29.6125 86.9711 29.5354C86.562 29.4095 86.1765 29.2168 85.8303 28.965C85.6772 28.8236 85.5575 28.65 85.4799 28.4566C85.4023 28.2632 85.3687 28.055 85.3816 27.847C85.3773 27.6267 85.4198 27.4081 85.5064 27.2055C85.5929 27.003 85.7215 26.8211 85.8836 26.6719C86.2079 26.3593 86.6424 26.1871 87.0928 26.1928C87.3126 26.1723 87.5343 26.1986 87.7431 26.2701C87.952 26.3417 88.1433 26.4567 88.3043 26.6077C88.4654 26.7587 88.5925 26.9422 88.6774 27.146C88.7622 27.3498 88.8028 27.5693 88.7964 27.7899H87.9865C87.9944 27.6685 87.9774 27.5466 87.9363 27.432C87.8953 27.3174 87.8312 27.2124 87.748 27.1235C87.6647 27.0346 87.5642 26.9638 87.4525 26.9154C87.3408 26.867 87.2203 26.842 87.0985 26.842C86.9768 26.842 86.8563 26.867 86.7446 26.9154C86.6329 26.9638 86.5323 27.0346 86.4491 27.1235C86.3659 27.2124 86.3018 27.3174 86.2607 27.432C86.2197 27.5466 86.2027 27.6685 86.2106 27.7899C86.2081 27.9444 86.2474 28.0966 86.3244 28.2305C86.4014 28.3644 86.5132 28.475 86.6479 28.5505C86.83 28.6548 87.0241 28.7365 87.2259 28.7939C87.5416 28.8889 87.7393 28.9536 87.823 28.9916C88.0913 29.1065 88.3269 29.2863 88.5086 29.5148C88.6902 29.7434 88.8121 30.0135 88.8634 30.3009C88.9147 30.5883 88.8937 30.8839 88.8024 31.1612C88.711 31.4384 88.5522 31.6886 88.3401 31.8892C87.9723 32.2087 87.4959 32.3748 87.0092 32.3532C86.7518 32.3646 86.4951 32.3187 86.2577 32.2187C86.0203 32.1187 85.8081 31.9672 85.6364 31.7752C85.3119 31.37 85.1384 30.8645 85.1459 30.3454" fill="white"/>
<path d="M91.1429 25.6338H90.3823V24.4208H91.1429V25.6338ZM90.3823 26.3259H91.1429V32.2125H90.3823V26.3259Z" fill="white"/>
<path d="M93.7061 24.417H92.9531V32.2087H93.7061V24.417Z" fill="white"/>
<path d="M100.962 32.2087H100.197V25.1851H98.6381V24.417H102.521V25.1851H100.962V32.2087Z" fill="white"/>
<path d="M104.338 27.0601C104.605 26.7678 104.93 26.5346 105.292 26.3754C105.654 26.2163 106.046 26.1347 106.441 26.1361C106.846 26.1301 107.248 26.2063 107.622 26.3599C107.997 26.5134 108.336 26.7413 108.62 27.0297C108.913 27.3097 109.144 27.6471 109.3 28.0208C109.455 28.3944 109.532 28.7963 109.525 29.201C109.541 30.0257 109.234 30.824 108.67 31.4256C108.399 31.7323 108.065 31.9765 107.691 32.1413C107.317 32.3061 106.911 32.3876 106.502 32.3801C106.098 32.3882 105.696 32.3119 105.323 32.1561C104.95 32.0002 104.613 31.7683 104.335 31.475C104.049 31.1872 103.824 30.8451 103.672 30.469C103.521 30.0928 103.446 29.6902 103.452 29.2847H108.734V29.2543C108.746 28.9415 108.696 28.6295 108.586 28.3364C108.477 28.0433 108.31 27.7749 108.095 27.5469C107.883 27.3216 107.625 27.1444 107.338 27.027C107.051 26.9096 106.743 26.8548 106.434 26.8662C106.142 26.8635 105.853 26.9236 105.587 27.0424C105.32 27.1611 105.083 27.3358 104.89 27.5545C104.711 27.7423 104.565 27.9581 104.456 28.1933H103.627C103.776 27.7648 104.019 27.375 104.338 27.0525V27.0601ZM108.658 29.9159H104.319C104.416 30.3068 104.612 30.6659 104.89 30.9579C105.094 31.1813 105.343 31.3587 105.621 31.478C105.899 31.5974 106.2 31.656 106.502 31.65C106.801 31.6552 107.098 31.5961 107.372 31.4767C107.646 31.3573 107.892 31.1804 108.092 30.9579C108.369 30.6666 108.564 30.3071 108.658 29.9159Z" fill="white"/>
<path d="M111.753 24.417H111V32.2087H111.753V24.417Z" fill="white"/>
<path d="M114.122 27.0601C114.389 26.7678 114.714 26.5346 115.076 26.3754C115.438 26.2163 115.83 26.1347 116.225 26.1361C116.63 26.1301 117.032 26.2063 117.406 26.3599C117.781 26.5134 118.12 26.7413 118.404 27.0297C118.697 27.3097 118.928 27.6471 119.084 28.0208C119.24 28.3944 119.316 28.7963 119.309 29.201C119.325 30.0257 119.018 30.824 118.454 31.4256C118.184 31.7327 117.85 31.9771 117.475 32.142C117.101 32.3068 116.695 32.3881 116.286 32.3801C115.882 32.3882 115.48 32.3119 115.107 32.1561C114.734 32.0002 114.397 31.7683 114.119 31.475C113.833 31.1872 113.608 30.8451 113.456 30.469C113.305 30.0928 113.23 29.6902 113.236 29.2847H118.518V29.2543C118.53 28.9415 118.48 28.6295 118.37 28.3364C118.261 28.0433 118.094 27.7749 117.88 27.5469C117.667 27.3216 117.409 27.1444 117.122 27.027C116.836 26.9096 116.527 26.8548 116.218 26.8662C115.926 26.8635 115.637 26.9236 115.371 27.0424C115.105 27.1611 114.867 27.3358 114.674 27.5545C114.497 27.7433 114.35 27.9589 114.24 28.1933H113.411C113.56 27.7648 113.803 27.375 114.122 27.0525V27.0601ZM118.442 29.9159H114.103C114.2 30.3068 114.397 30.6659 114.674 30.9579C114.878 31.1813 115.127 31.3587 115.405 31.478C115.683 31.5974 115.984 31.656 116.286 31.65C116.585 31.6552 116.882 31.5961 117.156 31.4767C117.43 31.3573 117.676 31.1804 117.876 30.9579C118.153 30.6666 118.349 30.3071 118.442 29.9159Z" fill="white"/>
<path d="M121.5 24.4208V27.3146C121.773 26.9627 122.124 26.6786 122.525 26.4847C122.926 26.2908 123.366 26.1922 123.812 26.1966C124.209 26.1883 124.603 26.2648 124.968 26.4208C125.334 26.5769 125.661 26.809 125.93 27.1017C126.477 27.7021 126.777 28.4871 126.77 29.2995C126.763 30.1119 126.45 30.8916 125.892 31.4824C125.605 31.774 125.261 32.0032 124.882 32.1556C124.502 32.3081 124.095 32.3805 123.686 32.3684C123.267 32.3708 122.852 32.2779 122.473 32.0968C122.094 31.9156 121.761 31.651 121.5 31.3227V32.2125H120.739V24.4208H121.5ZM121.5 29.3262C121.495 29.9266 121.723 30.5056 122.135 30.9424C122.327 31.1694 122.566 31.3516 122.836 31.4764C123.106 31.6012 123.4 31.6655 123.698 31.6649C124.008 31.6724 124.316 31.6112 124.6 31.4856C124.884 31.36 125.137 31.1732 125.341 30.9386C125.763 30.4716 125.992 29.8609 125.979 29.2312C125.985 28.9268 125.93 28.6244 125.819 28.3412C125.707 28.0579 125.541 27.7996 125.329 27.5808C125.125 27.3599 124.877 27.1847 124.6 27.0667C124.323 26.9487 124.025 26.8906 123.724 26.8963C123.416 26.893 123.111 26.9597 122.833 27.0914C122.554 27.2232 122.309 27.4165 122.116 27.6569C121.712 28.1127 121.493 28.7023 121.5 29.311" fill="white"/>
<path d="M128.839 27.0601C129.106 26.7678 129.43 26.5346 129.793 26.3754C130.155 26.2163 130.546 26.1347 130.942 26.1361C131.347 26.1301 131.748 26.2063 132.123 26.3599C132.497 26.5134 132.837 26.7413 133.121 27.0297C133.413 27.3097 133.645 27.6471 133.8 28.0208C133.956 28.3944 134.033 28.7963 134.026 29.201C134.042 30.0257 133.735 30.824 133.17 31.4256C132.9 31.7323 132.566 31.9765 132.192 32.1413C131.817 32.3061 131.412 32.3876 131.003 32.3801C130.598 32.3882 130.197 32.3119 129.824 32.1561C129.45 32.0002 129.114 31.7683 128.835 31.475C128.55 31.1872 128.324 30.8451 128.173 30.469C128.021 30.0928 127.947 29.6902 127.953 29.2847H133.235V29.2543C133.247 28.9415 133.197 28.6295 133.087 28.3364C132.977 28.0433 132.81 27.7749 132.596 27.5469C132.384 27.3216 132.125 27.1444 131.839 27.027C131.552 26.9096 131.244 26.8548 130.934 26.8662C130.643 26.8635 130.354 26.9236 130.087 27.0424C129.821 27.1611 129.583 27.3358 129.39 27.5545C129.212 27.7423 129.066 27.9581 128.957 28.1933H128.128C128.277 27.7648 128.52 27.375 128.839 27.0525V27.0601ZM133.159 29.9159H128.805C128.901 30.3068 129.098 30.6659 129.375 30.9579C129.579 31.1813 129.829 31.3587 130.107 31.478C130.385 31.5974 130.685 31.656 130.988 31.65C131.287 31.6552 131.583 31.5961 131.858 31.4767C132.132 31.3573 132.377 31.1804 132.577 30.9579C132.854 30.6666 133.05 30.3071 133.144 29.9159" fill="white"/>
<path d="M140.012 29.8092V32.2125H139.259V24.417H140.012V28.7483L143.62 24.417H144.529L141.381 28.1855L144.476 32.2125H143.533L140.89 28.7597L140.012 29.8092Z" fill="white"/>
<path d="M146.37 32.2128H145.609V26.3262H146.332V27.0069C146.482 26.7775 146.685 26.5882 146.925 26.4557C147.165 26.3231 147.434 26.2512 147.708 26.2463V27.0677C147.511 27.0684 147.315 27.1099 147.135 27.1898C146.954 27.2696 146.792 27.386 146.659 27.5316C146.445 27.8719 146.348 28.2722 146.381 28.6725L146.37 32.2128Z" fill="white"/>
<path d="M154.697 29.5049H149.374C149.396 30.0903 149.641 30.6451 150.058 31.0564C150.267 31.2558 150.513 31.4114 150.783 31.5139C151.053 31.6164 151.34 31.6639 151.629 31.6535C152.058 31.6704 152.482 31.5542 152.843 31.3207C153.204 31.0872 153.484 30.7478 153.644 30.3491H154.5C153.937 31.7029 152.988 32.3798 151.652 32.3798C151.245 32.3866 150.841 32.3091 150.466 32.152C150.091 31.9949 149.753 31.7617 149.473 31.4671C149.185 31.1775 148.959 30.8329 148.807 30.454C148.656 30.0751 148.582 29.6696 148.59 29.2616C148.573 28.8505 148.641 28.4403 148.791 28.057C148.94 27.6736 149.168 27.3255 149.459 27.0345C149.75 26.7436 150.098 26.5162 150.481 26.3667C150.864 26.2173 151.275 26.149 151.686 26.1662C152.103 26.1491 152.519 26.2267 152.903 26.3934C153.286 26.56 153.627 26.8112 153.899 27.1283C154.439 27.7789 154.72 28.6066 154.686 29.4517L154.697 29.5049ZM153.865 28.8661C153.581 27.5377 152.82 26.8747 151.583 26.8773C151.036 26.8616 150.504 27.0625 150.104 27.4363C149.715 27.8194 149.468 28.3237 149.404 28.8661H153.865Z" fill="white"/>
<path d="M161.104 27.2576V24.4208H161.865V32.2125H161.104V31.3227C160.84 31.656 160.501 31.9227 160.114 32.1016C159.728 32.2806 159.305 32.3667 158.88 32.3532C158.476 32.3621 158.075 32.2854 157.702 32.1281C157.33 31.9708 156.995 31.7365 156.72 31.4405C156.438 31.1503 156.217 30.8068 156.069 30.4301C155.922 30.0533 155.851 29.6509 155.861 29.2464C155.849 28.8434 155.919 28.4423 156.067 28.0672C156.215 27.6921 156.437 27.3507 156.72 27.0636C156.999 26.7742 157.335 26.5462 157.707 26.3942C158.079 26.2423 158.478 26.1698 158.88 26.1814C159.31 26.1646 159.738 26.2523 160.127 26.4371C160.515 26.6219 160.854 26.8982 161.112 27.2424L161.104 27.2576ZM161.135 29.311C161.144 28.692 160.92 28.0921 160.507 27.6302C160.314 27.3919 160.069 27.1999 159.791 27.0683C159.514 26.9367 159.21 26.8688 158.903 26.8697C158.601 26.8644 158.302 26.9226 158.024 27.0405C157.746 27.1584 157.496 27.3334 157.29 27.5542C157.079 27.7731 156.913 28.0316 156.802 28.3148C156.691 28.5981 156.638 28.9004 156.644 29.2046C156.63 29.8339 156.857 30.4446 157.279 30.912C157.482 31.1466 157.735 31.3334 158.019 31.459C158.303 31.5845 158.611 31.6458 158.922 31.6383C159.22 31.6385 159.515 31.574 159.786 31.4493C160.057 31.3246 160.298 31.1425 160.492 30.9158C160.908 30.4806 161.138 29.9012 161.135 29.2996" fill="white"/>
<path d="M164.402 25.6338H163.641V24.4208H164.402V25.6338ZM163.641 26.3259H164.402V32.2125H163.641V26.3259Z" fill="white"/>
<path d="M166.718 32.2087V27.0827H165.596V26.3221H166.718V24.417H167.47V26.3221H168.588V27.0827H167.47V32.2087H166.718Z" fill="white"/>
<path d="M170.535 25.6338H169.775V24.4208H170.535V25.6338ZM169.775 26.3259H170.535V32.2125H169.775V26.3259Z" fill="white"/>
<path d="M176.129 32.2087V24.417H179.978V25.1851H176.882V27.9117H179.978V28.6836H176.882V32.2087H176.129Z" fill="white"/>
<path d="M181.316 29.2732C181.302 28.4601 181.609 27.6742 182.172 27.0867C182.438 26.7837 182.768 26.5418 183.136 26.3777C183.505 26.2137 183.905 26.1312 184.309 26.136C184.713 26.1306 185.114 26.207 185.488 26.3605C185.862 26.5141 186.2 26.7417 186.484 27.0296C186.776 27.3096 187.008 27.647 187.164 28.0207C187.319 28.3944 187.396 28.7962 187.389 29.201C187.406 30.026 187.099 30.8248 186.533 31.4256C186.263 31.7328 185.929 31.9774 185.555 32.1423C185.181 32.3071 184.775 32.3883 184.366 32.38C183.962 32.3881 183.56 32.3118 183.187 32.156C182.814 32.0002 182.477 31.7682 182.198 31.475C181.911 31.1858 181.685 30.8419 181.534 30.4636C181.382 30.0854 181.308 29.6806 181.316 29.2732ZM182.107 29.2732C182.09 29.896 182.315 30.5012 182.735 30.9616C182.939 31.1907 183.191 31.3726 183.472 31.4948C183.754 31.6169 184.059 31.6763 184.366 31.6689C184.672 31.6764 184.976 31.6157 185.257 31.4915C185.537 31.3672 185.786 31.1823 185.986 30.9502C186.395 30.4858 186.613 29.8842 186.598 29.2656C186.62 28.6368 186.393 28.0248 185.967 27.562C185.753 27.3367 185.493 27.1592 185.205 27.0413C184.918 26.9233 184.608 26.8675 184.297 26.8775C183.995 26.8728 183.695 26.9363 183.421 27.0633C183.146 27.1904 182.904 27.3778 182.712 27.6115C182.311 28.0715 182.096 28.6636 182.107 29.2732Z" fill="white"/>
<path d="M188.872 26.3259H189.602V26.9952C189.832 26.7338 190.118 26.5274 190.439 26.3911C190.759 26.2549 191.106 26.1923 191.454 26.2081C191.833 26.176 192.214 26.2454 192.558 26.4091C192.901 26.5729 193.195 26.825 193.409 27.1397C193.66 27.52 193.789 28.1931 193.789 29.1361V32.2125H193.029V28.9308C193.067 28.4253 192.947 27.9204 192.686 27.4858C192.524 27.2954 192.319 27.1469 192.087 27.0529C191.855 26.9589 191.604 26.9222 191.355 26.9458C191.053 26.9221 190.75 26.984 190.481 27.1246C190.212 27.2651 189.988 27.4786 189.834 27.7405C189.625 28.2548 189.538 28.8106 189.579 29.3643V32.2277H188.849L188.872 26.3259Z" fill="white"/>
<path d="M200.516 27.2576V24.4208H201.277V32.2125H200.516V31.3227C200.252 31.66 199.913 31.9305 199.525 32.1122C199.137 32.2939 198.712 32.3816 198.284 32.3684C197.88 32.3766 197.479 32.2996 197.107 32.1423C196.735 31.9851 196.4 31.7511 196.124 31.4558C195.843 31.1652 195.622 30.8216 195.475 30.4448C195.328 30.0681 195.258 29.6658 195.269 29.2616C195.257 28.8589 195.326 28.4579 195.473 28.0828C195.62 27.7077 195.842 27.3662 196.124 27.0789C196.403 26.7894 196.739 26.5614 197.111 26.4094C197.483 26.2575 197.882 26.185 198.284 26.1966C198.714 26.1798 199.142 26.2676 199.531 26.4523C199.92 26.6371 200.258 26.9134 200.516 27.2576ZM200.539 29.3262C200.548 28.7072 200.324 28.1074 199.912 27.6455C199.718 27.4071 199.473 27.2151 199.195 27.0835C198.918 26.9519 198.614 26.8841 198.307 26.8849C198.005 26.8796 197.706 26.9378 197.428 27.0557C197.15 27.1736 196.9 27.3487 196.695 27.5694C196.483 27.7883 196.317 28.0468 196.207 28.3301C196.096 28.6133 196.042 28.9157 196.048 29.2198C196.034 29.8491 196.261 30.4599 196.683 30.9272C196.887 31.1621 197.14 31.3491 197.425 31.4746C197.71 31.6002 198.019 31.6613 198.33 31.6535C198.628 31.6537 198.922 31.5891 199.192 31.4644C199.463 31.3397 199.703 31.1577 199.896 30.931C200.312 30.4958 200.542 29.9164 200.539 29.3148" fill="white"/>
<path d="M203.026 26.3259H203.787V29.4517C203.751 29.9911 203.855 30.5304 204.087 31.0184C204.237 31.2383 204.444 31.4135 204.686 31.5253C204.928 31.6371 205.195 31.6814 205.46 31.6535C205.869 31.6704 206.271 31.547 206.601 31.3037C206.909 31.054 207.115 30.6993 207.179 30.3073C207.228 29.947 207.248 29.5833 207.239 29.2198V26.3259H208V32.2125H207.239V31.5927C207.024 31.8555 206.751 32.0643 206.44 32.2023C206.13 32.3403 205.791 32.4037 205.452 32.3874C204.537 32.3874 203.891 32.1111 203.513 31.5584C203.159 30.9029 203 30.1604 203.053 29.4175L203.026 26.3259Z" fill="white"/>
</svg>
