<svg width="164" height="46" viewBox="0 0 164 46" fill="none" xmlns="http://www.w3.org/2000/svg">
<path fill-rule="evenodd" clip-rule="evenodd" d="M43.1031 25.174C42.4126 24.306 41.6057 23.5374 40.7051 22.8899C40.7051 22.8899 40.6362 22.8179 40.5912 22.782C40.6362 22.746 40.7051 22.6741 40.7051 22.6741C41.6063 22.0273 42.4133 21.2586 43.1031 20.3899C43.8933 19.4526 44.4665 18.3523 44.7818 17.1676C44.6446 17.1365 44.5053 17.1155 44.3651 17.1046L44.4251 16.652C44.2364 16.6226 44.0463 16.6036 43.8555 16.595V16.1574C43.8555 16.1574 43.4449 16.1094 43.238 16.1094V15.5819C42.8583 15.3839 42.4901 15.1647 42.1349 14.9254L42.1859 14.8685C42.0925 14.7538 41.9924 14.6447 41.8861 14.5417C41.9674 14.0668 42.0816 13.598 42.2279 13.1389L41.8532 12.7642C42.003 12.6203 42.2608 12.2936 42.2608 12.2936L41.9611 11.9938C42.123 11.808 42.2129 11.6941 42.3238 11.5502L41.9611 11.2744C42.052 11.1676 42.1351 11.0544 42.2099 10.9357C41.1498 10.3195 39.9664 9.94588 38.7447 9.8416C37.6476 9.71497 36.5383 9.73816 35.4474 9.91054C35.3945 9.90745 35.3415 9.90745 35.2886 9.91054C35.2886 9.85359 35.2886 9.75167 35.2886 9.75167C35.4634 8.66106 35.4876 7.55159 35.3605 6.45438C35.2562 5.2327 34.8826 4.04929 34.2664 2.98923C34.1472 3.06323 34.034 3.14641 33.9277 3.23802L33.6519 2.87532C33.4976 2.98817 33.3495 3.10924 33.2083 3.23802L32.9085 2.93827C32.9085 2.93827 32.5818 3.19606 32.4379 3.34294L32.0572 2.95326C31.6494 3.08372 31.234 3.18883 30.8132 3.268V3.19606C30.6661 3.17767 30.5177 3.17165 30.3696 3.17808C30.0925 2.78365 29.8421 2.37105 29.6202 1.94308H29.0597C29.0597 1.73625 29.0147 1.3226 29.0147 1.3226H28.5771C28.5677 1.13179 28.5477 0.941642 28.5171 0.753061L28.0675 0.813015C28.0567 0.672784 28.0356 0.533533 28.0046 0.396362C26.8206 0.711832 25.7204 1.28389 24.7822 2.07198C23.9147 2.764 23.1453 3.57073 22.4951 4.47001C22.4951 4.47001 22.4261 4.54195 22.3902 4.58691C22.3542 4.54195 22.2823 4.47001 22.2823 4.47001C21.6331 3.57081 20.8647 2.76407 19.9981 2.07198C19.0595 1.28446 17.9595 0.712473 16.7758 0.396362C16.7437 0.533452 16.7216 0.672706 16.7098 0.813015L16.2602 0.753061C16.2293 0.941524 16.2103 1.13175 16.2032 1.3226H15.7716C15.7716 1.3226 15.7236 1.73625 15.7266 1.94308H15.1961C14.9753 2.37169 14.7249 2.78436 14.4467 3.17808C14.2986 3.17172 14.1502 3.17774 14.0031 3.19606V3.268C13.5832 3.18911 13.1688 3.084 12.7621 2.95326L12.3874 3.32795C12.2405 3.18107 11.9168 2.92328 11.9168 2.92328L11.617 3.22304C11.4748 3.09417 11.3257 2.97309 11.1704 2.86034L10.8976 3.22304C10.7903 3.13141 10.676 3.04823 10.5559 2.97424C9.94294 4.03463 9.5695 5.21634 9.46179 6.4364C9.33792 7.53375 9.36211 8.64278 9.53373 9.73369C9.53063 9.7866 9.53063 9.83965 9.53373 9.89256C9.48083 9.88891 9.42775 9.88891 9.37486 9.89256C8.28422 9.71799 7.17479 9.69378 6.07757 9.82061C4.85606 9.92577 3.67284 10.2994 2.61241 10.9147C2.68828 11.0334 2.77242 11.1466 2.86421 11.2534L2.50151 11.5292C2.61418 11.6836 2.73526 11.8317 2.86421 11.9729L2.56445 12.2726C2.56445 12.2726 2.82224 12.5963 2.96912 12.7432L2.59443 13.1179C2.74006 13.5774 2.85522 14.0461 2.93915 14.5208C2.8313 14.6221 2.73111 14.7313 2.63939 14.8475L2.68735 14.9044C2.33343 15.1431 1.96613 15.3613 1.58726 15.5579V16.0885C1.37743 16.0885 0.966766 16.1334 0.966766 16.1334V16.607C0.775039 16.6157 0.583919 16.6347 0.394237 16.664L0.457186 17.1166C0.316929 17.1272 0.177656 17.1483 0.0405273 17.1796C0.354797 18.364 0.926986 19.4644 1.71615 20.4019C2.40743 21.2692 3.21428 22.0378 4.11418 22.686C4.15086 22.7244 4.18991 22.7605 4.23108 22.794C4.18991 22.8275 4.15086 22.8635 4.11418 22.9019C3.21497 23.551 2.40823 24.3194 1.71615 25.186C0.926986 26.1235 0.354797 27.2239 0.0405273 28.4083C0.177656 28.4397 0.316929 28.4607 0.457186 28.4713L0.394237 28.9239C0.583919 28.9532 0.775039 28.9722 0.966766 28.9809V29.4215C0.966766 29.4215 1.37743 29.4665 1.58726 29.4665V29.997C1.96734 30.1926 2.33476 30.4119 2.68735 30.6535L2.63939 30.7075C2.73037 30.8242 2.83061 30.9335 2.93915 31.0342C2.85556 31.509 2.7404 31.9776 2.59443 32.437L2.94514 32.7937C2.79826 32.9406 2.54047 33.2644 2.54047 33.2644L2.84023 33.5641C2.71128 33.7052 2.5902 33.8533 2.47753 34.0077L2.84023 34.2835C2.74844 34.3904 2.6643 34.5036 2.58843 34.6222C3.64886 35.2376 4.83208 35.6112 6.05359 35.7163C7.15081 35.8432 8.26024 35.819 9.35088 35.6444C9.40277 35.6481 9.45486 35.6481 9.50675 35.6444C9.50675 35.7014 9.50675 35.8033 9.50675 35.8033C9.33473 36.8941 9.31054 38.0032 9.43481 39.1006C9.54055 40.322 9.91411 41.5051 10.5289 42.5657C10.6497 42.4927 10.7641 42.4095 10.8706 42.3169L11.1434 42.6796C11.2987 42.5669 11.4478 42.4458 11.59 42.3169L11.8898 42.6167C11.8898 42.6167 12.2135 42.3589 12.3604 42.212L12.7351 42.5867C13.1418 42.456 13.5562 42.3508 13.9761 42.272V42.3469C14.1234 42.3627 14.2717 42.3677 14.4197 42.3619C14.698 42.7556 14.9484 43.1683 15.1691 43.5969H15.6997C15.6997 43.8037 15.7446 44.2174 15.7446 44.2174H16.1853C16.1923 44.4082 16.2113 44.5984 16.2422 44.7869L16.6918 44.7269C16.7036 44.8672 16.7257 45.0065 16.7578 45.1436C17.942 44.8287 19.0422 44.2566 19.9801 43.468C20.8467 42.7759 21.6151 41.9692 22.2643 41.0699C22.2643 41.0699 22.3362 40.998 22.3722 40.953C22.4049 40.9939 22.44 41.033 22.4771 41.0699C23.127 41.9685 23.8954 42.7751 24.7612 43.468C25.7002 44.2566 26.8014 44.8287 27.9866 45.1436C28.0177 45.0064 28.0387 44.8672 28.0495 44.7269L28.4991 44.7869C28.5297 44.5983 28.5497 44.4082 28.5591 44.2174H28.9967C28.9967 44.2174 29.0447 43.8037 29.0417 43.5969H29.5723C29.793 43.1683 30.0434 42.7556 30.3216 42.3619C30.4697 42.3677 30.618 42.3627 30.7653 42.3469V42.272C31.186 42.3511 31.6015 42.4562 32.0093 42.5867L32.384 42.212C32.5278 42.3589 32.8546 42.6167 32.8546 42.6167L33.1543 42.3169C33.2948 42.4466 33.443 42.5677 33.598 42.6796L33.8707 42.3169C33.9778 42.4088 34.0921 42.492 34.2125 42.5657C34.842 41.5135 35.2319 40.3355 35.3545 39.1156C35.4813 38.0183 35.4571 36.9089 35.2826 35.8183C35.2826 35.8183 35.2826 35.7163 35.2826 35.6594C35.3355 35.6631 35.3885 35.6631 35.4414 35.6594C36.5321 35.8343 37.6415 35.8585 38.7387 35.7313C39.9603 35.6266 41.1436 35.2529 42.2039 34.6372C42.1274 34.5163 42.0423 34.4011 41.9491 34.2925L42.3118 34.0167C42.2009 33.8639 42.111 33.759 41.9491 33.5731L42.2488 33.2734C42.2488 33.2734 41.9911 32.9496 41.8412 32.8027L42.2159 32.428C42.0693 31.969 41.9551 31.5002 41.8742 31.0252C41.9811 30.923 42.0813 30.8138 42.1739 30.6985L42.039 30.5396L42.015 30.5156L41.6793 30.096C42.1379 30.057 42.5516 30.018 42.8783 29.9821C42.8454 30.012 42.3628 30.3058 42.021 30.5096L42.045 30.5336L42.1289 30.6385C42.4827 30.397 42.8511 30.1778 43.232 29.9821V29.4515C43.4389 29.4515 43.8495 29.4065 43.8495 29.4065V28.9659C44.0404 28.9589 44.2306 28.9398 44.4191 28.9089L44.3561 28.4593C44.4973 28.4463 44.6374 28.4243 44.7758 28.3934C44.4599 27.2089 43.8867 26.1087 43.0972 25.171L43.1031 25.174ZM43.6517 16.3373V16.7479C43.6517 16.7479 44.1673 16.7929 44.1883 16.8019L44.1343 17.0387C44.0414 17.0837 42.3837 16.9847 40.4833 16.8588L41.0468 16.1904L43.6517 16.3373ZM43.0102 16.0945C42.9802 16.1184 42.2548 16.0735 41.2117 15.9985L41.5115 15.6538C42.0206 15.6788 42.5279 15.7318 43.0312 15.8127L43.0102 16.0945ZM42.021 15.0483C42.3598 15.2551 42.8454 15.5489 42.8783 15.5789C42.5456 15.5399 42.1319 15.5009 41.6793 15.462L42.021 15.0483ZM41.6433 14.7486L41.7812 14.8954L37.4288 19.9913C36.9492 20.5518 36.4786 21.1183 35.99 21.6729C36.0499 21.3941 36.0739 20.9894 36.1429 20.6477C36.2118 20.306 36.2748 19.9553 36.2748 19.9553C36.4546 19.7185 40.5193 15.2342 41.9701 13.4087C41.9701 13.4746 41.6433 14.7576 41.6433 14.7576V14.7486ZM41.9101 13.1329C41.9341 13.2408 37.6866 18.0998 36.2148 19.7634C35.0686 18.7507 33.8021 17.8829 32.4439 17.1796C33.7891 17.6153 35.0538 18.2684 36.1878 19.113C37.9864 17.2695 41.5834 12.959 41.6883 12.9471L41.9101 13.1329ZM32.8696 3.21405L33.1693 3.49582C33.1693 3.49582 33.565 3.16008 33.586 3.15109L33.7149 3.35792C33.6819 3.45684 32.4379 4.55694 31.0171 5.81291L30.9451 4.94062L32.8696 3.21405ZM32.0602 3.28298L32.2431 3.49281C32.2431 3.53178 31.6945 4.01139 30.9122 4.69183L30.8732 4.2392C31.2529 3.89527 31.6533 3.57493 32.0722 3.27999L32.0602 3.28298ZM31.7964 3.22004C31.5327 3.42687 31.2149 3.69065 30.8642 3.98741L30.8192 3.45084C31.2029 3.35492 31.7545 3.22004 31.7964 3.22004ZM30.3306 3.49582H30.5315C30.7653 6.45438 31.0381 9.42494 31.2209 12.3745C31.068 12.1347 30.7983 11.832 30.6064 11.5412L30.2077 10.9597C30.1688 10.6599 29.872 4.61989 29.6082 2.30279C29.6562 2.35075 30.3336 3.48682 30.3336 3.48682L30.3306 3.49582ZM29.0927 2.1709L29.3714 2.14991C29.4673 2.21286 29.899 8.65158 30.0429 10.8578C28.5151 10.9523 27.0049 11.2352 25.5466 11.7001C26.8043 11.0539 28.1607 10.6214 29.5603 10.4201C29.5183 7.84823 29.0177 2.25483 29.0897 2.1709H29.0927ZM15.4389 2.14991L15.7206 2.1709C15.7896 2.25483 15.289 7.84823 15.247 10.4201C16.6476 10.6214 18.005 11.0539 19.2637 11.7001C17.8053 11.2355 16.2951 10.9526 14.7674 10.8578C14.9083 8.65158 15.343 2.21286 15.4359 2.14991H15.4389ZM14.2758 3.49582H14.4737C14.4737 3.49582 15.1541 2.35974 15.1991 2.31178C14.9323 4.62888 14.6355 10.6749 14.5996 10.9687L14.2009 11.5502C14.0091 11.85 13.7393 12.1497 13.6014 12.3835C13.7842 9.43394 14.06 6.46338 14.2938 3.50481L14.2758 3.49582ZM13.9941 3.45084L13.9491 3.98741C13.5954 3.68765 13.2777 3.42687 13.0139 3.22004C13.0588 3.22004 13.6134 3.35492 13.9941 3.45084ZM12.7381 3.27699C13.1563 3.57391 13.5567 3.8952 13.9371 4.2392L13.9011 4.68883C13.1158 4.00839 12.5702 3.52878 12.5672 3.48981L12.7381 3.27699ZM11.2123 3.1481C11.2363 3.1481 11.632 3.49281 11.632 3.49281L11.9318 3.20804L13.8592 4.91665L13.7722 5.79492C12.3424 4.53895 11.0984 3.43886 11.0745 3.33994L11.2123 3.1481ZM3.09202 12.9291C3.20293 12.9291 6.80297 17.2515 8.5925 19.095C9.7258 18.2492 10.9907 17.596 12.3364 17.1616C10.9782 17.8649 9.71171 18.7327 8.56552 19.7455C7.10273 18.0848 2.8702 13.2228 2.8702 13.1149L3.09202 12.9291ZM2.81924 13.3907C4.27005 15.2162 8.33471 19.7005 8.51457 19.9373C8.51457 19.9373 8.58351 20.321 8.64346 20.6297C8.70341 20.9385 8.73638 21.3761 8.79933 21.6549C8.31073 21.1003 7.83712 20.5338 7.36051 19.9733L3.00809 14.8775L3.14298 14.7306C3.14298 14.7306 2.81925 13.4476 2.81625 13.3817L2.81924 13.3907ZM2.76529 15.0423L3.113 15.456C2.65438 15.495 2.24372 15.5339 1.91399 15.5699C1.94396 15.5399 2.42957 15.2462 2.76829 15.0423H2.76529ZM3.27787 15.6418L3.58062 16.0075C2.54347 16.0795 1.81807 16.1274 1.7821 16.1035L1.76111 15.8217C2.26333 15.7404 2.76971 15.6874 3.27787 15.6628V15.6418ZM1.12863 16.7569V16.3463L3.71851 16.1964L4.28504 16.8678C2.3846 16.9907 0.723966 17.0926 0.63404 17.0477L0.577087 16.8109C0.601067 16.8109 1.11664 16.7569 1.11664 16.7569H1.12863ZM2.7563 30.5186C2.41757 30.3148 1.93197 30.021 1.902 29.991C2.23473 30.027 2.64539 30.066 3.10101 30.105L2.7563 30.5186ZM1.74912 29.7542L1.77011 29.4725C1.79708 29.4485 2.52249 29.4935 3.56863 29.5684L3.26888 29.9131C2.76072 29.8886 2.25434 29.8355 1.75212 29.7542H1.74912ZM3.13698 30.8304L3.00209 30.6835L7.35452 25.5877C7.83113 25.0271 8.30474 24.4606 8.79034 23.906C8.73039 24.1848 8.70641 24.5895 8.63746 24.9312C8.56852 25.2729 8.50857 25.6236 8.50857 25.6236C8.32572 25.8604 4.26106 30.3448 2.81325 32.1733C2.81325 32.1043 3.13998 30.8214 3.13998 30.8214L3.13698 30.8304ZM2.8732 32.446C2.85222 32.3381 7.09673 27.4761 8.56852 25.8155C9.71471 26.8282 10.9812 27.696 12.3394 28.3994C10.9937 27.9649 9.7288 27.3117 8.5955 26.4659C6.79698 28.3124 3.19993 32.6229 3.09502 32.6319L2.8732 32.446ZM11.9228 42.3859L11.623 42.1011C11.623 42.1011 11.2273 42.4368 11.2034 42.4458L11.0745 42.239C11.1104 42.1431 12.3514 41.04 13.7722 39.784L13.8472 40.6563L11.9228 42.3859ZM12.7291 42.3169L12.5463 42.1041C12.5463 42.0651 13.0948 41.5855 13.8802 40.9051L13.9161 41.3547C13.535 41.6978 13.1346 42.0191 12.7171 42.3169H12.7291ZM12.9929 42.3739C13.2567 42.167 13.5744 41.9033 13.9281 41.6065L13.9731 42.1431C13.5864 42.239 13.0378 42.3739 12.9929 42.3739ZM14.4587 42.0981H14.2608C14.027 39.1395 13.7513 36.169 13.5684 33.2194C13.7213 33.4562 13.9911 33.762 14.1679 34.0527L14.5666 34.6342C14.6056 34.934 14.9023 40.974 15.1661 43.2911C15.1211 43.2432 14.4407 42.1071 14.4407 42.1071L14.4587 42.0981ZM15.6817 43.423L15.4029 43.444C15.31 43.381 14.8753 36.9423 14.7345 34.7362C16.2621 34.6413 17.7723 34.3584 19.2308 33.8938C17.9716 34.5397 16.6145 34.9732 15.2141 35.1768C15.256 37.7457 15.7566 43.3391 15.6847 43.423H15.6817ZM29.3355 43.444L29.0567 43.423C28.9847 43.3391 29.4853 37.7457 29.5273 35.1768C28.1279 34.9732 26.7717 34.5397 25.5136 33.8938C26.972 34.3587 28.4822 34.6416 30.0099 34.7362C29.866 36.9423 29.4344 43.381 29.3385 43.444H29.3355ZM30.5015 42.0981H30.3007C30.3007 42.0981 29.6232 43.2342 29.5753 43.2821C29.842 40.965 30.1388 34.919 30.1748 34.6252L30.5734 34.0437C30.7653 33.744 31.0351 33.4442 31.1879 33.2104C31.0051 36.16 30.7293 39.1305 30.4985 42.0891L30.5015 42.0981ZM30.7983 42.1431L30.8432 41.6065C31.1939 41.9063 31.5117 42.167 31.7755 42.3739C31.7335 42.3739 31.1759 42.239 30.7983 42.1431ZM32.0512 42.3169C31.6337 42.0191 31.2334 41.6978 30.8522 41.3547L30.8912 40.9051C31.6735 41.5855 32.2191 42.0651 32.2221 42.1041L32.0512 42.3169ZM33.577 42.4458C33.556 42.4458 33.1603 42.1011 33.1603 42.1011L32.8606 42.3859L30.9242 40.6563L30.9961 39.784C32.4289 41.037 33.6729 42.1431 33.6939 42.239L33.577 42.4458ZM41.6883 32.6499C41.5804 32.6499 37.9774 28.3274 36.1908 26.4839C35.0561 27.3292 33.7903 27.9823 32.4439 28.4173C33.8036 27.7149 35.0712 26.847 36.2178 25.8335C37.6776 27.4941 41.9131 32.3561 41.9131 32.464L41.6883 32.6499ZM41.7692 30.6925L41.6344 30.8394C41.6344 30.8394 41.9581 32.1223 41.9611 32.1912C40.5103 30.3627 36.4456 25.8784 36.2658 25.6416C36.2658 25.6416 36.1968 25.2609 36.1339 24.9492C36.0709 24.6374 36.0409 24.2028 35.981 23.927C37.9384 26.1392 39.8448 28.4233 41.7692 30.6925ZM41.5025 29.9221L41.2027 29.5774C42.2369 29.5054 42.9623 29.4575 43.0012 29.4815L43.0222 29.7632C42.5189 29.8441 42.0116 29.8972 41.5025 29.9221ZM40.4863 28.7231C42.3867 28.6002 44.0444 28.5013 44.1373 28.5432L44.1912 28.783C44.1703 28.783 43.6547 28.834 43.6547 28.834V29.2447L41.0618 29.3945L35.8131 23.1806L33.4391 24.4636L33.3462 24.3767L33.1333 24.5715L33.1723 24.6105L32.9685 24.7184L32.2191 25.3958C33.4181 24.7424 34.6471 24.0739 35.7322 23.5553C35.7662 23.6996 35.758 23.8507 35.7086 23.9904C35.6591 24.1302 35.5706 24.2528 35.4534 24.3437C34.2874 25.0061 33.1094 25.5637 31.9793 26.1872C31.8024 26.2831 31.4128 26.4869 30.9751 26.7327V26.9396C32.6627 26.1272 34.6561 25.168 35.9091 24.3617C35.9521 24.4669 35.9532 24.5847 35.9119 24.6907C35.8706 24.7967 35.7902 24.8828 35.6872 24.9312C34.37 25.8522 32.9642 26.6394 31.4907 27.2813L30.9841 27.5061V27.7549C32.4688 27.2344 33.8795 26.523 35.1807 25.6386L35.954 25.0961L36.0499 25.7345C35.981 25.7975 35.6962 26.0523 35.6213 26.1152C34.292 27.3185 32.7093 28.2077 30.9901 28.7171V28.9449C31.3942 28.8962 31.7948 28.8211 32.1891 28.7201C32.336 28.6841 32.4889 28.6392 32.6238 28.6002C33.7582 28.253 34.838 27.7474 35.8311 27.0984C35.969 26.9995 36.1069 26.9246 36.2418 26.8137L41.9851 33.2524L41.7033 33.5521C41.7033 33.5521 42.039 33.9478 42.048 33.9688L41.8412 34.1007C41.6583 34.0347 37.9234 29.7003 36.2987 27.8658C36.0379 27.9887 35.7742 28.0666 35.5134 28.1655C34.0476 28.9539 32.336 29.1278 31.0171 29.1098V29.3915C32.8328 29.4627 34.6362 29.0653 36.2538 28.2375C38.445 30.5995 39.9617 32.3411 41.9161 34.5563C41.0588 35.0839 39.8178 35.3746 38.5409 35.5455C37.981 35.5987 37.4185 35.6187 36.8563 35.6054C36.3017 35.6054 35.6393 35.5665 35.2916 35.3536C34.9868 35.1378 34.7046 34.8918 34.4493 34.6192C33.6279 33.7979 32.7946 32.9976 31.9673 32.2032L31.053 31.304V31.6037L31.8084 32.3561C32.6028 33.1834 33.4031 34.0197 34.2274 34.8411C34.4984 35.0979 34.7444 35.3799 34.9618 35.6834C35.1747 36.0341 35.2136 36.6965 35.2136 37.2481C35.2276 37.8104 35.2066 38.373 35.1507 38.9327C34.9828 40.2216 34.6891 41.4536 34.1645 42.3079C33.0434 41.3187 32.0422 40.4435 31.0231 39.5352L31.6226 32.542L29.0357 31.7716C29.0357 31.7296 29.0357 31.6877 29.0357 31.6457H28.7509V31.6996L28.5291 31.6337L27.519 31.5827C28.8289 31.9664 30.1718 32.3651 31.3048 32.7638C31.2248 32.8842 31.112 32.9791 30.9798 33.0376C30.8475 33.096 30.7014 33.1154 30.5585 33.0935C29.2665 32.7398 28.0375 32.3021 26.7965 31.9424C26.6047 31.8855 26.1821 31.7566 25.7024 31.6187L25.5586 31.7686C27.3271 32.3861 29.4104 33.1175 30.8702 33.4322C30.6754 33.732 30.5704 33.717 30.3097 33.678C28.7284 33.3982 27.179 32.9614 25.6845 32.3741L25.1629 32.1942L24.992 32.3711C26.4106 33.0574 27.9133 33.5542 29.4614 33.8489L30.3906 34.0137L30.0099 34.5323L29.4374 34.4993C27.6469 34.4091 25.8994 33.9184 24.3236 33.0635L24.1647 33.2284C24.4854 33.4795 24.8218 33.7097 25.1719 33.9178L25.5646 34.1396C26.6016 34.6929 27.7117 35.0966 28.8618 35.3386C29.0297 35.3656 29.1796 35.4106 29.3534 35.4286L28.8618 44.0435H28.4512C28.4512 44.0435 28.4062 44.5591 28.3972 44.5831L28.1604 44.5261C28.0765 44.3523 28.4991 38.6449 28.649 36.1989C28.3762 36.103 28.1364 35.9741 27.8757 35.8632C26.281 35.3836 24.9501 34.2955 24.0298 33.3543L23.835 33.5581C25.0721 34.8882 26.6309 35.8772 28.3613 36.4298C28.2384 39.6491 28.0825 41.9512 27.8966 44.9038C26.9194 44.67 25.8433 44.0045 24.8092 43.2132C24.3756 42.8558 23.9642 42.4724 23.5772 42.0651C23.1845 41.6754 22.7439 41.1659 22.648 40.7822C22.5865 40.4138 22.5614 40.0403 22.573 39.6671C22.573 38.507 22.549 37.35 22.5251 36.2049V34.922L22.3122 35.1408V36.2079C22.2912 37.356 22.2643 38.513 22.2643 39.6761C22.2774 40.0484 22.2523 40.421 22.1893 40.7882C22.0934 41.1869 21.6528 41.6874 21.2601 42.0741C20.8738 42.4821 20.4623 42.8656 20.0281 43.2222C18.997 44.0135 17.9298 44.676 16.9406 44.9098C16.7578 41.9602 16.5989 39.6581 16.479 36.4388C18.1339 35.909 19.6342 34.9829 20.8494 33.741L20.6516 33.5251C19.7523 34.4244 18.4694 35.4256 16.9616 35.8782C16.7008 35.9891 16.461 36.118 16.1883 36.2139C16.3381 38.6599 16.7608 44.3672 16.6769 44.5411L16.4401 44.598C16.4401 44.5741 16.3891 44.0585 16.3891 44.0585H15.9754L15.4838 35.4436C15.6577 35.4256 15.8106 35.3806 15.9784 35.3536C17.1285 35.1112 18.2386 34.7076 19.2757 34.1546C19.4076 34.0797 19.5395 34.0107 19.6684 33.9328C19.9579 33.7609 20.2381 33.5738 20.5077 33.3723L20.3339 33.1834C18.8025 33.9698 17.122 34.4234 15.4029 34.5143L14.8334 34.5473L14.4197 33.9928L15.349 33.8279C16.8379 33.5466 18.2846 33.0751 19.6534 32.425L19.4826 32.2362L19.1288 32.3711C17.6339 32.9646 16.0835 33.4074 14.5006 33.693C14.2369 33.732 14.1349 33.735 13.9431 33.4472C15.6905 33.003 17.4126 32.4646 19.1019 31.8345L18.961 31.6757L18.0138 31.9574C16.7728 32.3171 15.5468 32.7548 14.2548 33.1085C14.1076 33.1284 13.9577 33.105 13.8236 33.0412C13.6894 32.9773 13.5768 32.8757 13.4995 32.7488C14.8214 32.2842 16.4281 31.8195 17.9358 31.3789L17.0366 31.3939L16.0594 31.6936C16.0594 31.6007 16.0594 31.5078 16.0594 31.4179H15.7806C15.7806 31.5378 15.7806 31.6547 15.7806 31.7746L13.1727 32.536L13.7722 39.5292C12.7531 40.4285 11.7549 41.3127 10.6308 42.3019C10.1063 41.4476 9.8155 40.2037 9.64464 38.9267C9.58838 38.367 9.56836 37.8043 9.58469 37.2421C9.58469 36.6905 9.62066 36.0431 9.83648 35.6774C10.0523 35.3726 10.2983 35.0904 10.5709 34.8351C11.3922 34.0167 12.1925 33.1804 12.9869 32.3561L13.8862 31.4419H13.5864L12.828 32.1942C12.0037 32.9886 11.1644 33.7919 10.3431 34.6133C10.0887 34.8857 9.80753 35.1317 9.50375 35.3476C9.15304 35.5605 8.49059 35.6024 7.93604 35.5994C7.37481 35.6128 6.81328 35.5927 6.25442 35.5395C4.96548 35.3686 3.73349 35.0749 2.8762 34.5503C4.83059 32.3351 6.35034 30.5936 8.54154 28.2315C10.0869 29.0272 11.8034 29.4326 13.5414 29.4125V29.1128C12.0655 29.1474 10.6028 28.8277 9.27594 28.1805C9.01515 28.0726 8.75437 27.9947 8.49358 27.8808C6.87791 29.7063 3.13998 34.0407 2.95713 34.1037L2.7503 33.9748C2.7503 33.9538 3.09502 33.5581 3.09502 33.5581L2.79526 33.2584L8.53855 26.8197C8.67643 26.9276 8.81432 27.0055 8.95221 27.1044C9.93775 27.7423 11.0085 28.2378 12.1326 28.5762C12.2765 28.6182 12.4323 28.6631 12.5642 28.6991C12.8904 28.7817 13.2206 28.8478 13.5534 28.8969V28.6392C11.915 28.1119 10.4063 27.2447 9.12606 26.0942L8.69742 25.7136L8.79633 25.0751C9.29992 25.4318 9.41383 25.5067 9.5667 25.6176C10.8192 26.4703 12.1749 27.1602 13.6014 27.671V27.4132L13.2537 27.2603C11.7801 26.6185 10.3743 25.8312 9.05712 24.9102C8.95418 24.8618 8.87377 24.7757 8.83249 24.6697C8.79121 24.5638 8.79221 24.446 8.8353 24.3407C10.3884 25.2615 11.9893 26.099 13.6314 26.8496V26.6368C13.2507 26.427 12.9239 26.2501 12.7651 26.1662C11.674 25.5427 10.5049 25.0001 9.34189 24.3227C9.22362 24.2327 9.13404 24.1103 9.08402 23.9703C9.034 23.8304 9.0257 23.6789 9.06012 23.5343C10.3251 24.1339 11.7909 24.9462 13.1697 25.7016L12.5223 25.0751L11.623 24.5895C11.689 24.5205 11.7519 24.4576 11.8179 24.3946L11.617 24.1998C11.5301 24.2807 11.4402 24.3587 11.3532 24.4426L8.97619 23.1597L3.7305 29.3736L1.14062 29.2237V28.813C1.14062 28.813 0.625048 28.7681 0.601068 28.7591L0.65802 28.5223C0.747947 28.4773 2.40858 28.5792 4.30902 28.7021L4.46489 28.5193C3.10101 28.4383 1.76711 28.3544 0.268341 28.2585C0.502149 27.2813 1.1676 26.2052 1.95895 25.174C2.31434 24.7387 2.69678 24.3262 3.10401 23.939C3.49369 23.5463 4.00327 23.1087 4.38995 23.0128C4.75801 22.9488 5.13166 22.9226 5.50504 22.9348C6.66508 22.9348 7.82213 22.9109 8.96719 22.8899H10.2591L10.0373 22.6741H8.97619C7.82813 22.6531 6.67108 22.6291 5.50804 22.6291C5.13465 22.6413 4.761 22.6152 4.39295 22.5512C3.99428 22.4552 3.49369 22.0176 3.10701 21.6249C2.69978 21.2377 2.31734 20.8252 1.96195 20.3899C1.1676 19.3588 0.505146 18.2917 0.271338 17.3055C1.77011 17.2125 3.09202 17.1256 4.46789 17.0447L8.97619 22.4043L11.3502 21.1213L11.4462 21.2083L11.659 21.0164L11.62 20.9774L11.8238 20.8665L12.5732 20.2041C11.3742 20.8575 10.1422 21.526 9.05712 22.0446C9.02255 21.9005 9.03079 21.7494 9.08085 21.6099C9.1309 21.4704 9.22058 21.3485 9.33889 21.2592C10.5019 20.5938 11.68 20.0362 12.813 19.4127C12.9899 19.3168 13.3796 19.113 13.8142 18.8672V18.6604C12.1255 19.4326 10.4786 20.2931 8.88027 21.2382C8.83718 21.133 8.83617 21.0152 8.87745 20.9092C8.91873 20.8032 8.99915 20.7171 9.10208 20.6687C10.4193 19.7477 11.8251 18.9605 13.2986 18.3186L13.8082 18.0938V17.845C12.3235 18.3655 10.9128 19.0769 9.61166 19.9613C9.45879 20.0722 9.34488 20.1471 8.8413 20.5038L8.74238 19.8654L9.17103 19.4847C10.4911 18.2811 12.063 17.3871 13.7722 16.8678V16.64C13.3683 16.6903 12.9679 16.7654 12.5732 16.8648C12.4293 16.9008 12.2735 16.9458 12.1416 16.9877C11.0219 17.3269 9.95614 17.8235 8.97619 18.4625C8.8383 18.5584 8.70041 18.6364 8.56253 18.7443L2.81025 12.3056L3.11001 12.0058C3.11001 12.0058 2.77428 11.6101 2.76529 11.5892L2.97212 11.4603C3.15497 11.5232 6.8899 15.8577 8.51457 17.6921C8.77535 17.5693 9.03614 17.4913 9.29992 17.3924C10.7657 16.604 12.4743 16.4332 13.7962 16.4482V16.1664C11.9812 16.1009 10.1799 16.5034 8.56552 17.3354C6.37432 14.9734 4.85757 13.2318 2.90018 11.0166C3.75747 10.4921 4.99845 10.1983 6.2784 10.0274C6.83726 9.97419 7.39879 9.95418 7.96002 9.9675C8.51457 9.9675 9.17702 10.0065 9.52773 10.2193C9.83151 10.4352 10.1127 10.6813 10.367 10.9537C11.1884 11.775 12.0247 12.5754 12.849 13.3697L13.7483 14.2839V13.9842L12.9959 13.2318C12.1985 12.4045 11.3982 11.5682 10.5769 10.7439C10.3037 10.4902 10.0576 10.2089 9.84247 9.90455C9.62965 9.55384 9.58768 8.89138 9.59068 8.33984C9.57736 7.77761 9.59738 7.21507 9.65063 6.65521C9.82149 5.36627 10.1123 4.13729 10.6368 3.27999C11.7609 4.26918 12.7591 5.14445 13.7812 6.05571L13.1817 13.046L15.7686 13.8163C15.7686 13.8583 15.7686 13.9003 15.7686 13.9452H16.0684V13.8913L16.2872 13.9572L17.2973 14.0082C15.9874 13.6245 14.6445 13.2258 13.5115 12.8272C13.5888 12.7003 13.7014 12.5987 13.8356 12.5348C13.9697 12.4709 14.1196 12.4475 14.2668 12.4674C15.5588 12.8212 16.7848 13.2588 18.0258 13.6185C18.2206 13.6754 18.6432 13.8043 19.1199 13.9422L19.2667 13.7954C17.4982 13.1749 15.4119 12.4435 13.9551 12.1287C14.1469 11.829 14.2548 11.829 14.5126 11.8829C16.0949 12.1627 17.6453 12.5995 19.1408 13.1868L19.6594 13.3847L19.8333 13.2078C18.4134 12.522 16.9099 12.0252 15.3609 11.7301L14.4317 11.5652L14.8154 11.0466L15.3849 11.0796C17.1764 11.1694 18.925 11.6601 20.5017 12.5154L20.6576 12.3505C20.3374 12.0988 20.001 11.8685 19.6504 11.6611L19.2607 11.4393C18.2233 10.887 17.1133 10.4833 15.9634 10.2403C15.7956 10.2133 15.6427 10.1683 15.4689 10.1503L15.9634 1.53542H16.3741C16.3741 1.53542 16.4161 1.01985 16.4251 0.99587L16.6649 1.05281C16.7458 1.22667 16.3232 6.93399 16.1733 9.37998C16.4461 9.4759 16.6859 9.6048 16.9466 9.71571C18.5413 10.1953 19.8752 11.2834 20.7925 12.2246L20.9903 12.0208C19.7586 10.6791 18.2017 9.67769 16.47 9.1132C16.5899 5.89384 16.7488 3.59173 16.9346 0.642153C17.9118 0.875961 18.988 1.54142 20.0191 2.32977C20.4533 2.68642 20.8647 3.06986 21.2511 3.47783C21.6468 3.86751 22.0844 4.37709 22.1803 4.76377C22.2433 5.13093 22.2684 5.50358 22.2553 5.87586C22.2553 7.03591 22.2823 8.19295 22.3032 9.33801V10.633L22.5161 10.4111V9.344C22.54 8.19595 22.564 7.03891 22.564 5.87586C22.5524 5.5036 22.5775 5.1311 22.639 4.76377C22.7349 4.3651 23.1755 3.86451 23.5682 3.47783C23.9562 3.0705 24.3687 2.68711 24.8032 2.32977C25.8343 1.53842 26.9015 0.875961 27.8876 0.642153C28.0735 3.59173 28.2324 5.89384 28.3523 9.1132C26.6971 9.64225 25.1966 10.5685 23.9819 11.811L24.1767 12.0268C25.076 11.1275 26.3619 10.1264 27.8667 9.67374C28.1275 9.56283 28.3673 9.43393 28.64 9.33801C28.4902 6.89202 28.0675 1.18471 28.1514 1.01085L28.3882 0.9539C28.3882 0.97788 28.4422 1.49345 28.4422 1.49345H28.8529L29.3444 10.1084C29.1706 10.1264 29.0207 10.1713 28.8529 10.1983C27.7028 10.4409 26.5928 10.8445 25.5556 11.3973L25.1629 11.6191C24.8739 11.7903 24.5947 11.9775 24.3266 12.1797L24.4974 12.3685C26.0288 11.5821 27.7093 11.1286 29.4284 11.0376L30.0009 11.0046L30.3816 11.5232L29.4524 11.6881C27.9635 11.97 26.5169 12.4414 25.1479 13.0909L25.3218 13.2798L25.6755 13.1449C27.17 12.5575 28.7194 12.1207 30.3007 11.841C30.5644 11.802 30.6694 11.799 30.8612 12.0868C29.1128 12.531 27.3897 13.0693 25.6994 13.6994L25.8433 13.8583L26.7876 13.5765C28.0315 13.2168 29.2575 12.7792 30.5495 12.4255C30.6967 12.4055 30.8466 12.4289 30.9807 12.4928C31.1149 12.5567 31.2275 12.6583 31.3048 12.7852C29.9799 13.2498 28.3733 13.7144 26.8655 14.158L27.7648 14.1431L29.0237 13.7654L28.7449 13.8493C28.7449 13.9422 28.7449 14.0352 28.7449 14.1251H29.0237C29.0237 14.0052 29.0237 13.8883 29.0237 13.7684L31.6106 12.998L31.0111 6.00775C32.0302 5.10849 33.0314 4.20923 34.1525 3.23203C34.6771 4.08933 34.9708 5.33031 35.1387 6.60726C35.1946 7.16695 35.2156 7.72957 35.2016 8.29187C35.2016 8.84342 35.1627 9.50588 34.9498 9.85659C34.7331 10.1607 34.4872 10.4428 34.2154 10.6989C33.3941 11.5172 32.5938 12.3535 31.7994 13.1809L30.8852 14.0951H31.1849L31.9373 13.3397C32.7646 12.5454 33.601 11.742 34.4223 10.9207C34.6776 10.6482 34.9598 10.4021 35.2646 10.1863C35.6123 9.97349 36.2748 9.93152 36.8293 9.93452C37.3915 9.9212 37.9541 9.94122 38.5139 9.99447C39.8029 10.1653 41.0318 10.4591 41.8891 10.9837C39.9347 13.1988 38.418 14.9404 36.2268 17.3025C34.6812 16.5077 32.9647 16.1033 31.2269 16.1244L31.2119 16.4242C32.4949 16.4242 34.0955 16.625 35.4834 17.3714C35.7442 17.4763 36.008 17.5543 36.2688 17.6712C37.8934 15.8367 41.6284 11.5022 41.8112 11.4393L42.018 11.5682C42.018 11.5892 41.6733 11.9848 41.6733 11.9848L41.9551 12.2846L36.2538 18.7443C36.1189 18.6364 35.981 18.5584 35.8431 18.4595C34.8557 17.8211 33.7829 17.3256 32.6567 16.9877C32.5128 16.9458 32.357 16.9008 32.2251 16.8648C31.9073 16.7839 31.5746 16.718 31.2359 16.667L31.2209 16.9248C32.8615 17.4512 34.3723 18.3185 35.6543 19.4697C35.7292 19.5326 36.014 19.7874 36.0829 19.8504L35.987 20.4889L35.2136 19.9463C33.9552 19.0918 32.5922 18.4027 31.158 17.896V18.1508L31.5027 18.3036C32.9762 18.9455 34.382 19.7327 35.6992 20.6537C35.8022 20.7021 35.8826 20.7882 35.9239 20.8942C35.9651 21.0002 35.9641 21.118 35.921 21.2232C34.3683 20.3019 32.7673 19.4643 31.125 18.7143V18.9301L31.9913 19.4007C33.1243 20.0212 34.2994 20.5788 35.4654 21.2442C35.5829 21.3341 35.6718 21.4562 35.7212 21.5956C35.7707 21.735 35.7787 21.8857 35.7442 22.0296C34.4792 21.4301 33.0164 20.6177 31.6376 19.8654L32.285 20.4918L33.1843 20.9774L32.9895 21.1693L33.1873 21.3641C33.2772 21.2832 33.3671 21.2053 33.4511 21.1213L35.8251 22.4043L40.3544 17.0447C41.7183 17.1256 43.0522 17.2125 44.536 17.3055C44.3022 18.2827 43.6367 19.3588 42.8484 20.3899C42.491 20.8244 42.1076 21.2369 41.7003 21.6249C41.3106 22.0176 40.801 22.4552 40.4144 22.5542C40.047 22.6156 39.6745 22.6407 39.3023 22.6291C38.1392 22.6291 36.9852 22.6531 35.8371 22.6741H34.5452L34.767 22.8899H35.8341C36.9792 22.9109 38.1392 22.9348 39.3023 22.9348C39.6747 22.9226 40.0473 22.9487 40.4144 23.0128C40.813 23.1087 41.3136 23.5463 41.7003 23.942C42.1083 24.3284 42.4917 24.7398 42.8484 25.174C43.6397 26.2052 44.3022 27.2723 44.536 28.2585C43.0372 28.3544 41.7183 28.4383 40.3544 28.5193L40.4863 28.7231Z" fill="#1268B3"/>
<path d="M35.9541 23.0067L31.8564 19.05L32.1562 13.3547L26.4609 13.4536L22.642 9.22705L18.6643 13.3277L12.969 13.0429L13.0649 18.7382L8.85034 22.5571L12.945 26.5138L12.6452 32.2092L18.3405 32.1102L22.1654 36.3308L26.1222 32.2361L31.8175 32.5209L31.7186 26.8256L35.9541 23.0067ZM25.8224 31.4418L22.1924 35.1917L18.6943 31.3219L13.4755 31.4118L13.7393 26.1991L9.98641 22.5721L13.8592 19.074L13.7693 13.8582L18.979 14.119L22.606 10.3691L26.1042 14.2389L31.3199 14.149L31.0561 19.3587L34.809 22.9857L30.9392 26.4989L31.0291 31.7146L25.8224 31.4418Z" fill="#1268B3"/>
<path d="M15.9213 16.9548L22.1891 15.3631C22.2796 15.3357 22.3734 15.3206 22.4679 15.3182C22.6021 15.3137 22.7358 15.3372 22.8606 15.3871L29.0954 16.8529L22.6867 18.9272C22.5098 18.9441 22.3313 18.9248 22.1621 18.8702L15.9213 16.9548Z" fill="#1268B3"/>
<path d="M19.0295 18.2347L21.7993 19.4068C21.9875 19.465 22.1838 19.4933 22.3808 19.4907C22.5627 19.4881 22.7433 19.4599 22.9173 19.4068L25.9628 18.2078L25.9898 19.9403C25.6624 20.2862 25.282 20.5776 24.8627 20.8036C24.1065 21.1909 23.2626 21.3748 22.4138 21.3372C21.4318 21.3549 20.4692 21.0634 19.662 20.5039C19.4443 20.3438 19.2434 20.162 19.0625 19.9613C19.0625 19.3888 19.0445 18.8163 19.0325 18.2407" fill="#1268B3"/>
<path d="M18.6973 20.8875C19.1295 21.2642 19.5962 21.5994 20.0912 21.8886C20.7566 22.2753 21.1523 22.3832 21.6979 22.8179C22.0222 23.0783 22.3105 23.3807 22.5552 23.7171C22.7378 23.3656 22.9896 23.0546 23.2956 22.8029C23.8261 22.3652 24.2668 22.3323 24.9172 21.9965C25.442 21.7258 25.914 21.3634 26.3111 20.9264C26.4776 21.2794 26.529 21.6757 26.458 22.0595C26.2421 23.1416 25.0701 23.5583 25.0042 23.5762C24.4266 23.8284 23.9141 24.2087 23.5054 24.6883C23.0988 25.1646 22.8111 25.7307 22.6661 26.34C22.6562 26.3675 22.6384 26.3916 22.615 26.4092C22.5915 26.4268 22.5634 26.4371 22.5342 26.4389C22.499 26.4392 22.4648 26.4265 22.4383 26.4033C22.4118 26.3801 22.3947 26.348 22.3903 26.313C22.3008 25.737 22.0492 25.1985 21.6649 24.7603C21.2003 24.2507 20.8406 24.2507 19.7495 23.4204C18.9851 22.8389 18.8502 22.5901 18.7633 22.4342C18.5579 21.9466 18.5376 21.4009 18.7063 20.8994" fill="#1268B3"/>
<path d="M15.0011 20.8035C15.1899 21.1032 15.4717 21.5558 15.7984 22.1134C16.371 23.0966 16.6527 23.6811 16.8266 23.9899C17.2313 24.7063 18.0046 25.6505 19.6413 26.5557C19.6719 26.3259 19.6409 26.0921 19.5514 25.8783C19.4435 25.6485 19.2796 25.4496 19.0748 25.2998C18.5382 24.8382 18.3044 24.7482 18.0886 24.5534C17.8278 24.3196 17.546 23.8909 17.507 23.0546C17.7828 23.2135 18.1845 23.4503 18.6701 23.7441C19.932 24.5174 20.5615 24.9041 20.8883 25.2428C21.5491 25.9537 21.9787 26.8485 22.1202 27.8087C22.2542 28.6254 22.1894 29.4623 21.9314 30.2487C21.1734 29.9789 20.4476 29.626 19.7672 29.1966C18.2633 28.2433 17.0257 26.9242 16.1701 25.3627C15.4156 23.9606 15.0143 22.3957 15.0011 20.8035Z" fill="#1268B3"/>
<path d="M29.8691 20.8035C29.6802 21.1032 29.3985 21.5558 29.0717 22.1134C28.4992 23.0966 28.2144 23.6811 28.0406 23.9899C27.6389 24.7063 26.8655 25.6505 25.2289 26.5557C25.197 26.3262 25.227 26.0923 25.3158 25.8783C25.4259 25.6491 25.5906 25.4504 25.7954 25.2998C26.329 24.8382 26.5628 24.7482 26.7816 24.5534C27.0004 24.3585 27.3212 23.8909 27.3601 23.0546C27.0874 23.2135 26.6827 23.4503 26.2001 23.7441C24.9381 24.5174 24.3086 24.9041 23.9819 25.2428C23.3211 25.9537 22.8915 26.8485 22.7499 27.8087C22.6129 28.6253 22.6777 29.463 22.9388 30.2487C23.7002 29.9777 24.4291 29.6228 25.112 29.1906C26.6161 28.2376 27.8537 26.9185 28.709 25.3567C29.458 23.955 29.8561 22.3927 29.8691 20.8035Z" fill="#1268B3"/>
<path d="M54.278 25.7855H53.6755V20.2491H52.4465V19.6436H55.507V20.2491H54.278V25.7855Z" fill="#1268B3"/>
<path d="M56.9369 21.7269C57.147 21.4965 57.4031 21.3127 57.6886 21.1872C57.9741 21.0618 58.2827 20.9975 58.5945 20.9985C58.9135 20.9939 59.2302 21.0539 59.5254 21.175C59.8206 21.296 60.0882 21.4756 60.3121 21.703C60.5426 21.9237 60.725 22.1896 60.8477 22.4842C60.9705 22.7787 61.031 23.0955 61.0255 23.4146C61.0392 24.0649 60.797 24.6946 60.3511 25.1681C60.1381 25.4102 59.8749 25.6029 59.5798 25.7328C59.2847 25.8628 58.9648 25.9268 58.6425 25.9205C58.3237 25.9269 58.0072 25.8667 57.713 25.7439C57.4188 25.6211 57.1534 25.4382 56.9339 25.2071C56.7087 24.9802 56.5312 24.7105 56.4118 24.414C56.2924 24.1175 56.2334 23.8001 56.2385 23.4805H60.402V23.4565C60.4115 23.21 60.3718 22.9641 60.2854 22.733C60.1989 22.502 60.0674 22.2904 59.8984 22.1106C59.7309 21.9331 59.5273 21.7934 59.3014 21.7009C59.0755 21.6083 58.8325 21.5651 58.5885 21.5741C58.3586 21.572 58.131 21.6194 57.921 21.713C57.711 21.8066 57.5236 21.9442 57.3715 22.1166C57.2328 22.2663 57.1176 22.4361 57.0298 22.6202H56.3763C56.4948 22.2829 56.6862 21.9758 56.9369 21.721V21.7269ZM60.3421 23.9781H56.9369C57.0131 24.2862 57.168 24.5692 57.3865 24.7994C57.5473 24.9756 57.7439 25.1154 57.9631 25.2094C58.1823 25.3035 58.419 25.3497 58.6575 25.345C58.8932 25.3491 59.1271 25.3025 59.3433 25.2084C59.5594 25.1143 59.7529 24.9748 59.9104 24.7994C60.1291 24.5698 60.2832 24.2865 60.3571 23.9781" fill="#1268B3"/>
<path d="M62.1766 19.6465H62.7761V21.7028C62.9481 21.4931 63.1666 21.3264 63.4143 21.2161C63.662 21.1058 63.9321 21.0548 64.203 21.0673C64.9164 21.0673 65.42 21.2951 65.7017 21.7448C65.9775 22.2658 66.1031 22.8531 66.0644 23.4414V25.8004H65.4649V23.4324C65.4932 22.9961 65.4172 22.5594 65.2431 22.1584C65.0423 21.8077 64.6826 21.6368 64.146 21.6368C63.9072 21.6188 63.6682 21.6682 63.4562 21.7795C63.2442 21.8909 63.0677 22.0595 62.947 22.2663C62.7846 22.6713 62.7169 23.1081 62.7492 23.5433V25.8004H62.1497L62.1766 19.6465Z" fill="#1268B3"/>
<path d="M67.1673 24.3286H67.7668V24.3466C67.76 24.595 67.8383 24.8382 67.9886 25.036C68.063 25.1355 68.1599 25.2159 68.2714 25.2706C68.383 25.3253 68.5059 25.3528 68.6301 25.3508C68.8437 25.3575 69.0515 25.28 69.2086 25.1349C69.2859 25.0646 69.3471 24.9783 69.388 24.8821C69.4288 24.7858 69.4484 24.6819 69.4454 24.5774C69.45 24.4654 69.4302 24.3537 69.3872 24.2502C69.3442 24.1466 69.2792 24.0537 69.1966 23.9779C69.0177 23.8407 68.8142 23.7389 68.5971 23.6781C68.2746 23.5789 67.9707 23.427 67.6978 23.2285C67.5771 23.1171 67.4828 22.9802 67.4216 22.8278C67.3604 22.6753 67.3339 22.5112 67.3441 22.3472C67.3407 22.1736 67.3742 22.0013 67.4424 21.8416C67.5106 21.6819 67.612 21.5386 67.7398 21.421C67.9954 21.1745 68.3379 21.0388 68.693 21.0433C68.8663 21.0271 69.041 21.0479 69.2056 21.1043C69.3702 21.1606 69.521 21.2513 69.648 21.3704C69.7749 21.4894 69.8752 21.634 69.942 21.7947C70.0089 21.9553 70.0409 22.1283 70.0359 22.3023H69.3974C69.4037 22.2065 69.3902 22.1105 69.3579 22.0201C69.3256 21.9297 69.275 21.847 69.2094 21.7769C69.1438 21.7069 69.0645 21.6511 68.9765 21.6129C68.8884 21.5747 68.7935 21.555 68.6975 21.555C68.6015 21.555 68.5066 21.5747 68.4185 21.6129C68.3305 21.6511 68.2512 21.7069 68.1856 21.7769C68.12 21.847 68.0694 21.9297 68.0371 22.0201C68.0048 22.1105 67.9913 22.2065 67.9976 22.3023C67.9956 22.424 68.0266 22.544 68.0872 22.6496C68.1479 22.7551 68.2361 22.8423 68.3423 22.9018C68.4858 22.984 68.6388 23.0484 68.7979 23.0936C69.0467 23.1686 69.2026 23.2195 69.2685 23.2495C69.4801 23.34 69.6658 23.4818 69.809 23.6619C69.9521 23.8421 70.0483 24.055 70.0887 24.2816C70.1291 24.5081 70.1126 24.7411 70.0406 24.9597C69.9686 25.1782 69.8434 25.3755 69.6762 25.5336C69.3862 25.7854 69.0107 25.9163 68.6271 25.8993C68.4242 25.9083 68.2219 25.8721 68.0347 25.7933C67.8476 25.7145 67.6803 25.5951 67.5449 25.4437C67.2891 25.1243 67.1524 24.7258 67.1583 24.3166" fill="#1268B3"/>
<path d="M71.8854 20.6027H71.2859V19.6465H71.8854V20.6027ZM71.2859 21.1482H71.8854V25.7884H71.2859V21.1482Z" fill="#1268B3"/>
<path d="M73.9059 19.6436H73.3124V25.7855H73.9059V19.6436Z" fill="#1268B3"/>
<path d="M79.6251 25.7855H79.0226V20.2491H77.7936V19.6436H80.8541V20.2491H79.6251V25.7855Z" fill="#1268B3"/>
<path d="M82.287 21.7269C82.4971 21.4965 82.7532 21.3127 83.0387 21.1872C83.3242 21.0618 83.6328 20.9975 83.9446 20.9985C84.2636 20.9939 84.5803 21.0539 84.8755 21.175C85.1707 21.296 85.4383 21.4756 85.6622 21.703C85.8927 21.9237 86.0751 22.1896 86.1979 22.4842C86.3206 22.7787 86.3811 23.0955 86.3756 23.4146C86.388 24.0646 86.146 24.6939 85.7012 25.1681C85.4879 25.4099 85.2247 25.6023 84.9296 25.7323C84.6346 25.8622 84.3149 25.9264 83.9926 25.9205C83.6738 25.9269 83.3573 25.8667 83.0631 25.7439C82.7689 25.6211 82.5035 25.4382 82.284 25.2071C82.0588 24.9802 81.8813 24.7105 81.7619 24.414C81.6425 24.1175 81.5835 23.8001 81.5886 23.4805H85.7521V23.4565C85.7616 23.21 85.7219 22.9641 85.6355 22.733C85.549 22.502 85.4175 22.2904 85.2486 22.1106C85.081 21.9331 84.8774 21.7934 84.6515 21.7009C84.4256 21.6083 84.1826 21.5651 83.9386 21.5741C83.7087 21.572 83.4811 21.6194 83.2711 21.713C83.0611 21.8066 82.8737 21.9442 82.7216 22.1166C82.581 22.2647 82.4656 22.4348 82.3799 22.6202H81.7264C81.8439 22.2824 82.0354 21.9752 82.287 21.721V21.7269ZM85.6922 23.9781H82.272C82.3482 24.2862 82.5031 24.5692 82.7216 24.7994C82.8824 24.9756 83.079 25.1154 83.2982 25.2094C83.5174 25.3035 83.7541 25.3497 83.9926 25.345C84.2283 25.3491 84.4622 25.3025 84.6784 25.2084C84.8945 25.1143 85.088 24.9748 85.2456 24.7994C85.4642 24.5698 85.6183 24.2865 85.6922 23.9781Z" fill="#1268B3"/>
<path d="M88.132 19.6436H87.5385V25.7855H88.132V19.6436Z" fill="#1268B3"/>
<path d="M89.9995 21.7269C90.2096 21.4965 90.4657 21.3127 90.7512 21.1872C91.0367 21.0618 91.3453 20.9975 91.6571 20.9985C91.9762 20.9939 92.2928 21.0539 92.588 21.175C92.8832 21.296 93.1509 21.4756 93.3747 21.703C93.6052 21.9237 93.7876 22.1896 93.9104 22.4842C94.0331 22.7787 94.0937 23.0955 94.0881 23.4146C94.1005 24.0646 93.8585 24.6939 93.4137 25.1681C93.2007 25.4102 92.9375 25.6029 92.6424 25.7328C92.3473 25.8628 92.0275 25.9268 91.7051 25.9205C91.3864 25.9269 91.0698 25.8667 90.7756 25.7439C90.4814 25.6211 90.2161 25.4382 89.9965 25.2071C89.7714 24.9802 89.5939 24.7105 89.4744 24.414C89.355 24.1175 89.2961 23.8001 89.3011 23.4805H93.4647V23.4565C93.4741 23.21 93.4344 22.9641 93.348 22.733C93.2615 22.502 93.13 22.2904 92.9611 22.1106C92.7935 21.9331 92.59 21.7934 92.3641 21.7009C92.1382 21.6083 91.8951 21.5651 91.6511 21.5741C91.4213 21.572 91.1936 21.6194 90.9836 21.713C90.7737 21.8066 90.5863 21.9442 90.4341 22.1166C90.2945 22.2655 90.1792 22.4354 90.0924 22.6202H89.439C89.5564 22.2824 89.7479 21.9752 89.9995 21.721V21.7269ZM93.4047 23.9781H89.9845C90.0607 24.2862 90.2156 24.5692 90.4341 24.7994C90.595 24.9756 90.7915 25.1154 91.0107 25.2094C91.2299 25.3035 91.4666 25.3497 91.7051 25.345C91.9408 25.3491 92.1747 25.3025 92.3909 25.2084C92.6071 25.1143 92.8005 24.9748 92.9581 24.7994C93.1768 24.5698 93.3308 24.2865 93.4047 23.9781Z" fill="#1268B3"/>
<path d="M95.8147 19.6465V21.9276C96.03 21.6502 96.3066 21.4263 96.6227 21.2734C96.9389 21.1205 97.2861 21.0428 97.6372 21.0463C97.9502 21.0398 98.261 21.1 98.5489 21.223C98.8368 21.3461 99.0952 21.529 99.3068 21.7597C99.7383 22.233 99.9749 22.8518 99.9694 23.4922C99.9638 24.1326 99.7164 24.7472 99.2769 25.2129C99.0508 25.4428 98.7797 25.6234 98.4805 25.7436C98.1813 25.8638 97.8606 25.9209 97.5383 25.9113C97.2074 25.9132 96.8803 25.84 96.5818 25.6972C96.2832 25.5544 96.021 25.3458 95.8147 25.087V25.7884H95.2152V19.6465H95.8147ZM95.8147 23.5133C95.8113 23.9866 95.9906 24.4429 96.3153 24.7873C96.4668 24.9662 96.6555 25.1098 96.8683 25.2082C97.0811 25.3066 97.3129 25.3573 97.5473 25.3568C97.792 25.3627 98.035 25.3144 98.2588 25.2154C98.4827 25.1165 98.6819 24.9692 98.8422 24.7843C99.1754 24.4162 99.3556 23.9348 99.3458 23.4384C99.3502 23.1985 99.3072 22.96 99.2192 22.7368C99.1313 22.5135 99.0001 22.3099 98.8332 22.1374C98.6724 21.9633 98.4766 21.8252 98.2585 21.7322C98.0405 21.6392 97.8053 21.5934 97.5683 21.5979C97.3253 21.5952 97.0849 21.6478 96.8653 21.7517C96.6456 21.8555 96.4524 22.0079 96.3003 22.1974C95.9822 22.5567 95.8092 23.0215 95.8147 23.5013" fill="#1268B3"/>
<path d="M101.6 21.7269C101.81 21.4965 102.066 21.3127 102.352 21.1872C102.637 21.0618 102.946 20.9975 103.258 20.9985C103.577 20.9939 103.894 21.0539 104.189 21.175C104.484 21.296 104.752 21.4756 104.975 21.703C105.206 21.9237 105.388 22.1896 105.511 22.4842C105.634 22.7787 105.694 23.0955 105.689 23.4146C105.701 24.0646 105.459 24.6939 105.014 25.1681C104.801 25.4099 104.538 25.6023 104.243 25.7323C103.948 25.8622 103.628 25.9264 103.306 25.9205C102.987 25.9269 102.67 25.8667 102.376 25.7439C102.082 25.6211 101.817 25.4382 101.597 25.2071C101.372 24.9802 101.195 24.7105 101.075 24.414C100.956 24.1175 100.897 23.8001 100.902 23.4805H105.065V23.4565C105.075 23.21 105.035 22.9641 104.949 22.733C104.862 22.502 104.731 22.2904 104.562 22.1106C104.394 21.9331 104.191 21.7934 103.965 21.7009C103.739 21.6083 103.496 21.5651 103.252 21.5741C103.022 21.572 102.794 21.6194 102.584 21.713C102.374 21.8066 102.187 21.9442 102.035 22.1166C101.894 22.2647 101.779 22.4348 101.693 22.6202H101.04C101.157 22.2824 101.349 21.9752 101.6 21.721V21.7269ZM105.005 23.9781H101.573C101.649 24.2862 101.804 24.5692 102.023 24.7994C102.184 24.9756 102.38 25.1154 102.599 25.2094C102.819 25.3035 103.055 25.3497 103.294 25.345C103.53 25.3491 103.763 25.3025 103.98 25.2084C104.196 25.1143 104.389 24.9748 104.547 24.7994C104.765 24.5698 104.92 24.2865 104.993 23.9781" fill="#1268B3"/>
<path d="M110.407 23.8941V25.7885H109.814V19.6436H110.407V23.0577L113.252 19.6436H113.968L111.486 22.6141L113.926 25.7885H113.183L111.1 23.0667L110.407 23.8941Z" fill="#1268B3"/>
<path d="M115.419 25.7886H114.819V21.1484H115.389V21.685C115.507 21.5041 115.668 21.355 115.857 21.2505C116.046 21.146 116.258 21.0893 116.474 21.0854V21.7329C116.318 21.7334 116.164 21.7662 116.022 21.8291C115.88 21.8921 115.752 21.9838 115.647 22.0986C115.478 22.3668 115.402 22.6823 115.428 22.9979L115.419 25.7886Z" fill="#1268B3"/>
<path d="M121.983 23.6541H117.787C117.805 24.1156 117.998 24.5529 118.326 24.8771C118.491 25.0343 118.685 25.1569 118.898 25.2378C119.11 25.3186 119.337 25.356 119.564 25.3478C119.903 25.3611 120.237 25.2695 120.522 25.0854C120.806 24.9014 121.027 24.6339 121.153 24.3196H121.828C121.384 25.3867 120.636 25.9203 119.582 25.9203C119.262 25.9257 118.944 25.8645 118.648 25.7407C118.353 25.6169 118.086 25.4331 117.865 25.2009C117.638 24.9725 117.46 24.701 117.34 24.4023C117.221 24.1036 117.163 23.7839 117.169 23.4623C117.156 23.1383 117.21 22.8149 117.328 22.5128C117.445 22.2106 117.625 21.9362 117.854 21.7068C118.083 21.4775 118.358 21.2982 118.66 21.1804C118.962 21.0626 119.285 21.0088 119.609 21.0223C119.939 21.0088 120.267 21.0701 120.569 21.2014C120.871 21.3327 121.139 21.5308 121.354 21.7807C121.78 22.2935 122.001 22.946 121.974 23.6122L121.983 23.6541ZM121.327 23.1506C121.103 22.1034 120.504 21.5809 119.528 21.5829C119.097 21.5705 118.678 21.7288 118.362 22.0235C118.056 22.3255 117.861 22.7231 117.811 23.1506H121.327Z" fill="#1268B3"/>
<path d="M127.034 21.8826V19.6465H127.633V25.7884H127.034V25.087C126.825 25.3497 126.558 25.56 126.253 25.7011C125.949 25.8421 125.616 25.91 125.28 25.8993C124.962 25.9064 124.645 25.8459 124.352 25.7219C124.059 25.5979 123.795 25.4132 123.578 25.1799C123.355 24.9512 123.181 24.6804 123.065 24.3834C122.948 24.0864 122.892 23.7692 122.9 23.4504C122.891 23.1327 122.947 22.8165 123.063 22.5208C123.18 22.2251 123.355 21.9561 123.578 21.7298C123.797 21.5016 124.062 21.3218 124.355 21.2021C124.649 21.0823 124.964 21.0252 125.28 21.0343C125.619 21.0211 125.957 21.0902 126.263 21.2359C126.569 21.3816 126.836 21.5994 127.04 21.8707L127.034 21.8826ZM127.058 23.5013C127.065 23.0133 126.888 22.5405 126.563 22.1764C126.41 21.9885 126.217 21.8372 125.999 21.7334C125.78 21.6297 125.54 21.5762 125.298 21.5769C125.06 21.5727 124.824 21.6186 124.605 21.7115C124.386 21.8045 124.189 21.9424 124.027 22.1165C123.861 22.289 123.73 22.4928 123.643 22.7161C123.555 22.9393 123.513 23.1777 123.518 23.4174C123.507 23.9134 123.686 24.3949 124.018 24.7633C124.179 24.9482 124.378 25.0955 124.602 25.1945C124.826 25.2934 125.069 25.3417 125.313 25.3358C125.548 25.336 125.781 25.2852 125.995 25.1868C126.208 25.0885 126.398 24.945 126.551 24.7663C126.879 24.4232 127.06 23.9665 127.058 23.4923" fill="#1268B3"/>
<path d="M129.633 20.6027H129.034V19.6465H129.633V20.6027ZM129.034 21.1482H129.633V25.7884H129.034V21.1482Z" fill="#1268B3"/>
<path d="M131.458 25.7855V21.7448H130.574V21.1453H131.458V19.6436H132.052V21.1453H132.933V21.7448H132.052V25.7855H131.458Z" fill="#1268B3"/>
<path d="M134.468 20.6027H133.869V19.6465H134.468V20.6027ZM133.869 21.1482H134.468V25.7884H133.869V21.1482Z" fill="#1268B3"/>
<path d="M138.878 25.7855V19.6436H141.911V20.2491H139.471V22.3983H141.911V23.0068H139.471V25.7855H138.878Z" fill="#1268B3"/>
<path d="M142.966 23.4715C142.955 22.8305 143.197 22.211 143.641 21.7479C143.851 21.509 144.11 21.3184 144.401 21.1891C144.692 21.0597 145.007 20.9947 145.325 20.9985C145.644 20.9942 145.96 21.0544 146.254 21.1755C146.549 21.2966 146.816 21.476 147.04 21.7029C147.27 21.9236 147.453 22.1896 147.575 22.4841C147.698 22.7787 147.759 23.0955 147.753 23.4145C147.767 24.0648 147.525 24.6945 147.079 25.1681C146.866 25.4103 146.603 25.6031 146.308 25.7331C146.012 25.863 145.693 25.927 145.37 25.9205C145.051 25.9269 144.735 25.8667 144.441 25.7439C144.146 25.621 143.881 25.4382 143.662 25.207C143.435 24.9791 143.257 24.708 143.138 24.4098C143.018 24.1117 142.96 23.7926 142.966 23.4715ZM143.59 23.4715C143.576 23.9624 143.753 24.4395 144.084 24.8024C144.245 24.983 144.444 25.1264 144.666 25.2226C144.888 25.3189 145.128 25.3657 145.37 25.3599C145.612 25.3658 145.851 25.318 146.072 25.22C146.293 25.1221 146.489 24.9764 146.647 24.7934C146.97 24.4273 147.142 23.9531 147.13 23.4655C147.147 22.9698 146.968 22.4873 146.632 22.1226C146.463 21.945 146.259 21.8051 146.032 21.7121C145.805 21.6191 145.561 21.5751 145.316 21.583C145.078 21.5793 144.842 21.6293 144.625 21.7295C144.409 21.8296 144.218 21.9773 144.066 22.1615C143.751 22.5242 143.581 22.9909 143.59 23.4715Z" fill="#1268B3"/>
<path d="M148.922 21.1482H149.498V21.6758C149.679 21.4698 149.905 21.307 150.157 21.1996C150.41 21.0923 150.683 21.0429 150.958 21.0553C151.257 21.0301 151.557 21.0848 151.828 21.2138C152.098 21.3429 152.33 21.5416 152.498 21.7897C152.696 22.0895 152.798 22.62 152.798 23.3634V25.7884H152.199V23.2016C152.229 22.8031 152.135 22.4051 151.929 22.0625C151.801 21.9124 151.639 21.7954 151.456 21.7213C151.274 21.6472 151.076 21.6182 150.88 21.6368C150.641 21.6181 150.402 21.667 150.19 21.7778C149.978 21.8886 149.802 22.0569 149.681 22.2633C149.516 22.6687 149.447 23.1069 149.48 23.5433V25.8004H148.904L148.922 21.1482Z" fill="#1268B3"/>
<path d="M158.101 21.8826V19.6465H158.7V25.7884H158.101V25.087C157.893 25.3529 157.625 25.5662 157.319 25.7094C157.014 25.8526 156.679 25.9218 156.341 25.9113C156.023 25.9178 155.707 25.8571 155.413 25.7331C155.12 25.6092 154.856 25.4248 154.639 25.1919C154.417 24.9629 154.243 24.692 154.127 24.395C154.011 24.0981 153.956 23.781 153.964 23.4623C153.955 23.1449 154.01 22.8288 154.126 22.5332C154.242 22.2375 154.416 21.9683 154.639 21.7418C154.858 21.5136 155.123 21.3338 155.416 21.2141C155.71 21.0943 156.025 21.0372 156.341 21.0463C156.68 21.0331 157.017 21.1022 157.324 21.2479C157.63 21.3936 157.897 21.6114 158.101 21.8826ZM158.119 23.5133C158.126 23.0253 157.949 22.5525 157.624 22.1884C157.471 22.0005 157.278 21.8491 157.06 21.7454C156.841 21.6417 156.601 21.5882 156.359 21.5889C156.121 21.5847 155.885 21.6306 155.666 21.7235C155.447 21.8165 155.25 21.9544 155.088 22.1284C154.922 22.301 154.791 22.5048 154.704 22.728C154.616 22.9513 154.574 23.1897 154.579 23.4294C154.568 23.9254 154.747 24.4069 155.079 24.7753C155.24 24.9605 155.44 25.1078 155.664 25.2068C155.889 25.3058 156.132 25.3539 156.377 25.3478C156.612 25.3479 156.844 25.2971 157.057 25.1987C157.27 25.1004 157.46 24.9569 157.612 24.7783C157.94 24.4352 158.121 23.9785 158.119 23.5043" fill="#1268B3"/>
<path d="M160.079 21.1482H160.679V23.6122C160.651 24.0373 160.732 24.4625 160.916 24.8472C161.034 25.0205 161.197 25.1585 161.388 25.2467C161.578 25.3348 161.789 25.3697 161.998 25.3477C162.32 25.3611 162.637 25.2638 162.897 25.072C163.14 24.8752 163.303 24.5956 163.353 24.2866C163.391 24.0026 163.407 23.7159 163.4 23.4293V21.1482H164V25.7884H163.4V25.2998C163.231 25.507 163.015 25.6715 162.77 25.7803C162.526 25.8891 162.259 25.9391 161.992 25.9263C161.27 25.9263 160.761 25.7084 160.463 25.2728C160.184 24.7561 160.059 24.1707 160.1 23.5852L160.079 21.1482Z" fill="#1268B3"/>
</svg>
