<svg width="24" height="24" viewBox="0 0 24 24" fill="none" xmlns="http://www.w3.org/2000/svg">
<path fill-rule="evenodd" clip-rule="evenodd" d="M7.33143 8.14537C7.33143 7.48952 8.06055 7.06296 8.68024 7.35626L17.3006 11.4364C17.7912 11.6686 17.7912 12.3314 17.3006 12.5637L8.68024 16.6437C8.06055 16.937 7.33143 16.5105 7.33143 15.8546V8.14537ZM9.27567 6.22897C7.77071 5.51665 6 6.5526 6 8.14537V15.8546C6 17.4474 7.77072 18.4833 9.27567 17.771L17.896 13.6909C19.368 12.9942 19.368 11.0058 17.896 10.3091L9.27567 6.22897Z" fill="white"/>
<path fill-rule="evenodd" clip-rule="evenodd" d="M12 1.26316C6.07021 1.26316 1.26316 6.07021 1.26316 12C1.26316 17.9298 6.07021 22.7368 12 22.7368C17.9298 22.7368 22.7368 17.9298 22.7368 12C22.7368 6.07021 17.9298 1.26316 12 1.26316ZM0 12C0 5.37258 5.37258 0 12 0C18.6274 0 24 5.37258 24 12C24 18.6274 18.6274 24 12 24C5.37258 24 0 18.6274 0 12Z" fill="white"/>
</svg>
