<svg width="20" height="14" viewBox="0 0 20 14" fill="none" xmlns="http://www.w3.org/2000/svg">
<path d="M19.5834 2.42252C19.4701 2.01855 19.2495 1.65281 18.945 1.36419C18.6319 1.06669 18.2482 0.853886 17.83 0.745856C16.265 0.333356 9.99503 0.333356 9.99503 0.333356C7.38113 0.303617 4.76788 0.434418 2.17003 0.725023C1.75185 0.841034 1.36883 1.0586 1.05503 1.35836C0.746693 1.65502 0.523359 2.02086 0.406693 2.42169C0.126437 3.93148 -0.00973061 5.46448 2.6038e-05 7.00002C-0.00997396 8.53419 0.125859 10.0667 0.406693 11.5784C0.520859 11.9775 0.743359 12.3417 1.05253 12.6359C1.36169 12.93 1.74669 13.1425 2.17003 13.255C3.75586 13.6667 9.99503 13.6667 9.99503 13.6667C12.6122 13.6965 15.2288 13.5657 17.83 13.275C18.2482 13.167 18.6319 12.9542 18.945 12.6567C19.2534 12.3625 19.4725 11.9967 19.5825 11.5984C19.8701 10.0892 20.0099 8.55552 20 7.01919C20.0217 5.47636 19.882 3.93549 19.5834 2.42169V2.42252ZM8.00169 9.85336V4.14752L13.2184 7.00086L8.00169 9.85336Z" fill="#1268B3"/>
</svg>
