<svg width="23" height="17" viewBox="0 0 23 17" fill="none" xmlns="http://www.w3.org/2000/svg">
<path d="M22.5209 3.23591C22.3907 2.77134 22.137 2.35074 21.7869 2.01882C21.4268 1.6767 20.9855 1.43197 20.5046 1.30774C18.7049 0.833365 11.4944 0.833366 11.4944 0.833366C8.48838 0.799165 5.48314 0.949587 2.4956 1.28378C2.0147 1.41719 1.57423 1.66739 1.21335 2.01212C0.85877 2.35328 0.601937 2.77399 0.46777 3.23495C0.145476 4.9712 -0.011117 6.73415 0.000103186 8.50003C-0.0113968 10.2643 0.144811 12.0267 0.46777 13.7651C0.599061 14.2242 0.854936 14.643 1.21048 14.9812C1.56602 15.3195 2.00877 15.5639 2.4956 15.6933C4.31931 16.1667 11.4944 16.1667 11.4944 16.1667C14.5042 16.2009 17.5132 16.0505 20.5046 15.7163C20.9855 15.5921 21.4268 15.3473 21.7869 15.0052C22.1414 14.6669 22.3935 14.2462 22.52 13.7881C22.8507 12.0525 23.0115 10.2888 23.0001 8.52207C23.025 6.74782 22.8644 4.97582 22.5209 3.23495V3.23591ZM9.20202 11.7814V5.21966L15.2012 8.50099L9.20202 11.7814Z" fill="white"/>
</svg>
