<svg width="50" height="50" viewBox="0 0 50 50" fill="none" xmlns="http://www.w3.org/2000/svg">
<path fill-rule="evenodd" clip-rule="evenodd" d="M22.8376 5.20834L25 5.20834C25.5753 5.20834 26.0417 5.67471 26.0417 6.25001C26.0417 6.82531 25.5753 7.29168 25 7.29168H22.9167C19.9409 7.29168 17.8139 7.29389 16.1975 7.51121C14.6111 7.7245 13.6733 8.12767 12.9838 8.81716C12.2943 9.50665 11.8912 10.4444 11.6779 12.0309C11.4605 13.6473 11.4583 15.7743 11.4583 18.75V31.25C11.4583 34.2257 11.4605 36.3527 11.6779 37.9692C11.8912 39.5556 12.2943 40.4934 12.9838 41.1829C13.6733 41.8724 14.6111 42.2755 16.1975 42.4888C17.8139 42.7061 19.9409 42.7083 22.9167 42.7083H27.0833C30.0591 42.7083 32.1861 42.7061 33.8025 42.4888C35.3889 42.2755 36.3267 41.8724 37.0162 41.1829C37.7057 40.4934 38.1088 39.5556 38.3221 37.9692C38.5395 36.3527 38.5417 34.2257 38.5417 31.25V27.0833C38.5417 26.508 39.008 26.0417 39.5833 26.0417C40.1586 26.0417 40.625 26.508 40.625 27.0833V31.3291C40.625 34.2083 40.625 36.4754 40.3869 38.2468C40.1425 40.0642 39.6304 41.5149 38.4893 42.656C37.3482 43.7971 35.8976 44.3092 34.0801 44.5536C32.3088 44.7917 30.0417 44.7917 27.1625 44.7917H22.8375C19.9583 44.7917 17.6912 44.7917 15.9199 44.5536C14.1024 44.3092 12.6518 43.7971 11.5107 42.656C10.3696 41.5149 9.85746 40.0642 9.61311 38.2468C9.37496 36.4754 9.37498 34.2083 9.375 31.3291V18.6709C9.37498 15.7917 9.37496 13.5246 9.61311 11.7533C9.85746 9.93579 10.3696 8.48512 11.5107 7.34402C12.6518 6.20293 14.1024 5.69081 15.9199 5.44646C17.6912 5.20831 19.9584 5.20832 22.8376 5.20834Z" fill="#1268B3"/>
<path fill-rule="evenodd" clip-rule="evenodd" d="M37.5 5.20834C38.0753 5.20834 38.5417 5.67471 38.5417 6.25001L38.5417 18.75C38.5417 19.3253 38.0753 19.7917 37.5 19.7917C36.9247 19.7917 36.4584 19.3253 36.4584 18.75L36.4584 6.25001C36.4584 5.67471 36.9247 5.20834 37.5 5.20834Z" fill="#1268B3"/>
<path fill-rule="evenodd" clip-rule="evenodd" d="M44.7916 12.5C44.7916 13.0753 44.3253 13.5417 43.75 13.5417L31.25 13.5417C30.6747 13.5417 30.2083 13.0753 30.2083 12.5C30.2083 11.9247 30.6747 11.4583 31.25 11.4583L43.75 11.4583C44.3253 11.4583 44.7916 11.9247 44.7916 12.5Z" fill="#1268B3"/>
<path fill-rule="evenodd" clip-rule="evenodd" d="M17.7084 27.0833C17.7084 26.508 18.1747 26.0417 18.75 26.0417L31.25 26.0417C31.8253 26.0417 32.2917 26.508 32.2917 27.0833C32.2917 27.6586 31.8253 28.125 31.25 28.125L18.75 28.125C18.1747 28.125 17.7084 27.6586 17.7084 27.0833Z" fill="#1268B3"/>
<path fill-rule="evenodd" clip-rule="evenodd" d="M17.7084 18.75C17.7084 18.1747 18.1747 17.7083 18.75 17.7083L27.0834 17.7083C27.6587 17.7083 28.125 18.1747 28.125 18.75C28.125 19.3253 27.6587 19.7917 27.0834 19.7917L18.75 19.7917C18.1747 19.7917 17.7084 19.3253 17.7084 18.75Z" fill="#1268B3"/>
<path fill-rule="evenodd" clip-rule="evenodd" d="M17.7084 35.4167C17.7084 34.8414 18.1747 34.375 18.75 34.375L27.0834 34.375C27.6587 34.375 28.125 34.8414 28.125 35.4167C28.125 35.992 27.6587 36.4583 27.0834 36.4583L18.75 36.4583C18.1747 36.4583 17.7084 35.992 17.7084 35.4167Z" fill="#1268B3"/>
</svg>
