<svg width="50" height="50" viewBox="0 0 50 50" fill="none" xmlns="http://www.w3.org/2000/svg">
<path fill-rule="evenodd" clip-rule="evenodd" d="M26.5714 8.13212V14.6556C26.5714 15.5598 26.5722 16.1744 26.6103 16.6495C26.6474 17.1123 26.7146 17.3489 26.7972 17.514C26.9958 17.9113 27.3126 18.2342 27.7024 18.4366C27.8644 18.5207 28.0966 18.5893 28.5507 18.6271C29.0168 18.6659 29.6199 18.6667 30.5071 18.6667H36.908C36.8995 18.5723 36.8877 18.4998 36.8713 18.43C36.8205 18.2146 36.7368 18.0087 36.6233 17.8198C36.5101 17.6315 36.348 17.4568 35.7758 16.8736L28.3308 9.286C27.7586 8.70279 27.5871 8.53764 27.4024 8.42227C27.2171 8.30652 27.015 8.22122 26.8037 8.1695C26.7352 8.15275 26.664 8.14072 26.5714 8.13212ZM36.9285 20.7778H30.4643C29.6306 20.7778 28.9425 20.7778 28.382 20.7312C27.7998 20.6827 27.2647 20.5787 26.762 20.3176C25.9825 19.9128 25.3487 19.2669 24.9515 18.4724C24.6954 17.9602 24.5933 17.4147 24.5457 16.8214C24.4999 16.2502 24.5 15.5489 24.5 14.6992V8.11117H16.0071C15.12 8.11117 14.5169 8.11199 14.0507 8.15081C13.5966 8.18862 13.3644 8.25715 13.2024 8.34127C12.8127 8.54367 12.4958 8.86663 12.2972 9.26386C12.2147 9.42895 12.1474 9.66561 12.1103 10.1284C12.0722 10.6035 12.0714 11.2181 12.0714 12.1223V37.8778C12.0714 38.782 12.0722 39.3966 12.1103 39.8717C12.1474 40.3345 12.2147 40.5711 12.2972 40.7362C12.4958 41.1334 12.8127 41.4564 13.2024 41.6588C13.3644 41.7429 13.5966 41.8114 14.0507 41.8493C14.5169 41.8881 15.12 41.8889 16.0071 41.8889H32.9928C33.88 41.8889 34.4831 41.8881 34.9492 41.8493C35.4033 41.8114 35.6355 41.7429 35.7975 41.6588C36.1873 41.4564 36.5041 41.1334 36.7027 40.7362C36.7853 40.5711 36.8525 40.3345 36.8896 39.8717C36.9277 39.3966 36.9285 38.782 36.9285 37.8778V20.7778ZM25.6534 6.00003C26.3111 5.99971 26.808 5.99947 27.2872 6.11673C27.7099 6.22016 28.114 6.39075 28.4847 6.62225C28.9049 6.88469 29.2561 7.24297 29.721 7.71715C29.7455 7.74219 29.7704 7.76754 29.7956 7.79322L37.2405 15.3808C37.2657 15.4065 37.2906 15.4318 37.3151 15.4568C37.7804 15.9305 38.1319 16.2885 38.3894 16.7167C38.6166 17.0945 38.784 17.5064 38.8855 17.9372C39.0005 18.4256 39.0003 18.932 39 19.6023C39 19.6377 38.9999 19.6735 38.9999 19.7098V37.9214C39 38.7711 39 39.4723 38.9542 40.0436C38.9066 40.6369 38.8045 41.1823 38.5484 41.6946C38.1512 42.4891 37.5174 43.135 36.7379 43.5398C36.2352 43.8008 35.7001 43.9049 35.1179 43.9534C34.5574 44 33.8693 44 33.0356 44H15.9643C15.1306 44 14.4425 44 13.882 43.9534C13.2999 43.9049 12.7647 43.8008 12.262 43.5398C11.4825 43.135 10.8487 42.4891 10.4515 41.6946C10.1954 41.1823 10.0933 40.6369 10.0458 40.0436C9.99998 39.4723 9.99999 38.7711 10 37.9214V12.0787C9.99999 11.229 9.99998 10.5277 10.0458 9.95647C10.0933 9.36314 10.1954 8.81773 10.4515 8.30544C10.8487 7.51098 11.4825 6.86506 12.262 6.46026C12.7647 6.19923 13.2999 6.09519 13.882 6.04672C14.4426 6.00004 15.1306 6.00005 15.9644 6.00007L25.5479 6.00007C25.5835 6.00007 25.6187 6.00005 25.6534 6.00003ZM16.2143 26.0556C16.2143 25.4726 16.678 25 17.25 25L31.75 25C32.322 25 32.7857 25.4726 32.7857 26.0556C32.7857 26.6386 32.322 27.1111 31.75 27.1111L17.25 27.1111C16.678 27.1111 16.2143 26.6385 16.2143 26.0556ZM16.2143 32.3889C16.2143 31.8059 16.678 31.3334 17.25 31.3334H25.5357C26.1077 31.3334 26.5714 31.8059 26.5714 32.3889C26.5714 32.9719 26.1077 33.4445 25.5357 33.4445H17.25C16.678 33.4445 16.2143 32.9719 16.2143 32.3889Z" fill="white"/>
</svg>
