<svg width="50" height="50" viewBox="0 0 50 50" fill="none" xmlns="http://www.w3.org/2000/svg">
<g clip-path="url(#clip0_177_811)">
<path d="M24.9809 8.83252H25.1653C25.6078 8.84165 26.0479 8.89605 26.4778 8.99476C27.1449 9.14819 27.773 9.42354 28.326 9.80496C28.879 10.1864 29.346 10.6663 29.7 11.2173C30.8007 12.814 30.8365 14.5163 30.0633 16.2469C29.6368 17.1998 29.1635 18.132 28.7232 19.0797C28.2685 20.0244 27.8905 20.9998 27.5922 21.9976C27.5506 22.0749 27.4896 22.1415 27.4143 22.1918C27.3391 22.242 27.2519 22.2744 27.1602 22.286C26.3678 22.286 25.578 22.286 24.7883 22.286H22.8621C22.7493 22.2935 22.6378 22.2603 22.5503 22.1933C22.4628 22.1262 22.406 22.0304 22.3915 21.9255C22.332 21.6746 22.2548 21.4277 22.1604 21.1864C21.8412 20.4627 21.5303 19.739 21.2111 19.0179C20.8313 18.1526 20.4461 17.2899 20.0443 16.4426C19.3234 14.9154 19.2188 13.396 19.9425 11.8611C20.0363 11.6659 20.1467 11.4782 20.2727 11.2997L20.2948 11.2636L20.369 11.158L20.4406 11.0576C21.0964 10.1613 22.0355 9.47954 23.1262 9.10807L23.2336 9.0746L23.2803 9.06172L23.3849 9.03082C23.9084 8.89123 24.4503 8.82186 24.9946 8.82479M24.9946 8.56726C24.4243 8.56464 23.8564 8.63747 23.3079 8.78359L23.2528 8.79904L23.1978 8.81449H23.173H23.151L23.0905 8.83252L23.0409 8.85054C21.8915 9.23633 20.9015 9.95195 20.2122 10.8954L20.1379 11.0009L20.1021 11.055L20.0636 11.1117C20.0562 11.1181 20.0506 11.126 20.0471 11.1349C19.9142 11.3252 19.7974 11.525 19.6976 11.7323C18.9767 13.2775 19.0097 14.8485 19.7995 16.5199C20.2287 17.429 20.625 18.3226 20.9662 19.0952C21.1175 19.4403 21.2688 19.7854 21.4174 20.1253L21.9128 21.2585C21.9906 21.447 22.0531 21.6407 22.0999 21.8379L22.1329 21.9641C22.1634 22.1243 22.2549 22.2687 22.3905 22.3706C22.5262 22.4724 22.6966 22.5247 22.8703 22.5178H24.7965C25.4982 22.5178 26.3265 22.5178 27.1712 22.5178C27.3235 22.5057 27.4693 22.4543 27.5922 22.3693C27.7151 22.2842 27.8104 22.169 27.8674 22.0362C28.1635 21.0512 28.5369 20.088 28.9846 19.1544C29.1662 18.7656 29.3561 18.369 29.5349 17.9878C29.8101 17.4444 30.0688 16.8804 30.3192 16.3216C31.1612 14.4339 31.0319 12.662 29.9339 11.055C29.5614 10.4754 29.0701 9.97044 28.4883 9.56913C27.9065 9.16783 27.2457 8.87811 26.5438 8.71663C26.0929 8.61533 25.6317 8.55922 25.168 8.54923L24.9946 8.56726Z" fill="#1268B3"/>
<path d="M25.0083 23.2801H26.8436C27.2426 23.2801 27.2949 23.3471 27.2344 23.7282C26.84 26.1136 27.0014 28.5506 27.7077 30.8722C27.8315 31.2894 27.7902 31.3409 27.3197 31.3435H22.6776C22.218 31.3435 22.1768 31.2894 22.3006 30.867C22.7886 29.2818 23.0141 27.6359 22.9692 25.9868C22.9445 25.2296 22.8454 24.4751 22.7684 23.7205C22.7299 23.3445 22.7684 23.2827 23.1756 23.2827H25.0083M25.0083 23.0252H23.1729C23.0718 23.0143 22.9694 23.0239 22.8725 23.0532C22.7757 23.0825 22.6867 23.1309 22.6115 23.1951C22.5528 23.276 22.5127 23.3675 22.4937 23.4637C22.4748 23.5599 22.4774 23.6588 22.5015 23.754L22.5592 24.269C22.6198 24.8356 22.6831 25.4228 22.7023 25.9945C22.7486 27.6176 22.5267 29.2377 22.0447 30.7975C21.9704 31.055 21.9236 31.2508 22.0584 31.4207C22.1407 31.4937 22.2399 31.5479 22.3483 31.5792C22.4566 31.6104 22.5712 31.6179 22.6831 31.601H27.3279C27.6031 31.601 27.8315 31.583 27.9663 31.4156C28.0181 31.3211 28.0463 31.2168 28.0487 31.1106C28.051 31.0044 28.0276 30.8991 27.9801 30.8026C27.2887 28.5156 27.1301 26.1162 27.515 23.7668C27.546 23.6705 27.5542 23.569 27.539 23.4693C27.5238 23.3697 27.4856 23.2744 27.427 23.19C27.3506 23.1244 27.2597 23.0754 27.1608 23.0464C27.0619 23.0175 26.9573 23.0093 26.8546 23.0226H25.0165L25.0083 23.0252Z" fill="#1268B3"/>
<path d="M14.75 38.4823C14.8326 38.4823 14.9206 38.4823 15.0032 38.4823H35.041C35.6849 38.4823 35.7592 38.5209 35.7895 38.8763C35.8527 39.6489 35.6491 39.9991 35.096 40.079C34.9701 40.094 34.8432 40.1001 34.7163 40.097H25.3936C22.0475 40.097 18.7024 40.097 15.3581 40.097C14.2409 40.097 14.1639 39.5819 14.2575 38.7656C14.2575 38.6625 14.4446 38.5415 14.5739 38.4926C14.6358 38.4725 14.701 38.4629 14.7665 38.4642M14.7665 38.2067C14.667 38.2048 14.5681 38.2205 14.4748 38.2531C14.3152 38.3123 14.0098 38.49 13.985 38.7398C13.9355 39.2034 13.9162 39.6798 14.2327 40.0069C14.4638 40.2438 14.8243 40.3545 15.3664 40.3545C18.9711 40.3545 22.4657 40.3545 25.4101 40.3545H34.719C34.8607 40.3578 35.0023 40.3509 35.1428 40.3339C36.0729 40.2 36.1142 39.4274 36.0646 38.8557C36.0151 38.284 35.6629 38.2247 35.0437 38.2247H15.0059H14.8958H14.7528L14.7665 38.2067Z" fill="#1268B3"/>
<path d="M24.6203 32.3247H31.4335C33.0267 32.3247 34.3255 32.8784 35.1923 34.1789C35.8169 35.124 35.8417 36.1722 35.7647 37.2307C35.7647 37.326 35.594 37.4496 35.4895 37.4882C35.4143 37.5082 35.3365 37.5178 35.2583 37.5165H35.0052H15.0499C14.2244 37.5165 14.2464 37.5165 14.2244 36.7311C14.1969 35.7885 14.3289 34.8923 14.8985 34.0836C15.7763 32.8372 17.0669 32.335 18.6051 32.3324C20.623 32.3324 22.6326 32.3324 24.634 32.3324M24.634 32.0749C22.6253 32.0749 20.6157 32.0749 18.6051 32.0749C16.8633 32.0749 15.5397 32.7058 14.6674 33.942C14.1391 34.694 13.9162 35.5541 13.9492 36.7388V36.7851C13.974 37.6633 14.0978 37.7741 15.0499 37.7741H35.1208H35.2583C35.3666 37.7761 35.4745 37.7613 35.5775 37.7303C35.6953 37.6966 35.8014 37.6343 35.8851 37.5496C35.9687 37.465 36.0268 37.3612 36.0536 37.2487C36.1306 36.1799 36.1086 35.0519 35.44 34.045C34.5704 32.7341 33.2386 32.0697 31.4472 32.0671H24.634V32.0749Z" fill="#1268B3"/>
<path d="M16.8332 43.8106H16.8194C15.6637 43.5814 15.1519 42.9247 15.2152 41.7504C15.2179 41.7273 15.2179 41.7039 15.2152 41.6808C15.2124 41.644 15.2124 41.607 15.2152 41.5701C15.2344 41.3126 15.1464 41.2327 14.8409 41.2044C14.3595 41.1715 13.9088 40.9706 13.5781 40.6416C13.2473 40.3125 13.0607 39.8792 13.0551 39.4274C13.0221 38.1629 13.0028 37.0246 13.0551 35.8786C13.1095 34.7066 13.6199 33.5937 14.4901 32.7494C15.3603 31.9051 16.5303 31.3877 17.7797 31.2945C18.4209 31.2405 19.0758 31.2379 19.7059 31.2327H20.3663H20.4021C20.9717 31.2327 20.9717 31.2327 21.1231 30.7177C21.9637 27.973 22.0102 25.0685 21.2579 22.3015C20.8314 20.8944 20.2715 19.5257 19.5849 18.2119C19.4473 17.9312 19.3097 17.6504 19.1776 17.3697C18.7236 16.4091 18.2751 15.3764 18.2503 14.2381C18.1927 12.7337 18.7174 11.2605 19.7279 10.0893C19.7431 10.0702 19.7597 10.0521 19.7775 10.0352L19.8105 9.98369H19.8243C20.5653 9.14566 21.5257 8.50152 22.6117 8.114C23.312 7.85117 24.0586 7.71316 24.8131 7.7071H24.9672C26.2355 7.71463 27.4777 8.0449 28.5609 8.66255L28.6104 8.6883C28.9358 8.87959 29.2416 9.09855 29.524 9.34243L29.612 9.41712C29.8538 9.63635 30.0808 9.86944 30.2917 10.115C31.2196 11.197 31.7374 12.5367 31.7639 13.9239C31.7815 14.8904 31.5691 15.8484 31.142 16.7285C30.9549 17.1328 30.765 17.5346 30.5724 17.9389C30.044 19.054 29.4937 20.2052 29.0672 21.3718C27.9977 24.3497 27.9209 27.5615 28.8471 30.5812C28.8471 30.6275 28.8773 30.6739 28.8938 30.7202C28.9204 30.7858 28.9424 30.8529 28.9599 30.9211C29.0122 31.1426 29.1332 31.2224 29.4249 31.225H30.0413C30.7732 31.225 31.5327 31.225 32.2757 31.2894C33.5398 31.4057 34.7151 31.9502 35.5805 32.8204C36.446 33.6906 36.9421 34.8267 36.9756 36.0151C37.0003 37.1277 36.9893 38.2376 36.9756 39.2806C36.9756 40.3726 36.2821 41.0834 35.1072 41.2044C34.8788 41.2302 34.8045 41.3023 34.81 41.5006C34.81 41.6577 34.81 41.8122 34.81 41.9693V42.0311C34.81 42.9814 34.3725 43.4964 33.3929 43.7488C33.3563 43.7577 33.3204 43.7689 33.2855 43.7823L33.203 43.8081L16.8332 43.8106ZM24.4086 42.5075H32.9388C33.3296 42.5075 33.4231 42.3968 33.4451 42.2217C33.4795 41.9419 33.4795 41.6593 33.4451 41.3795C33.3992 41.31 33.3293 41.2573 33.247 41.2302C33.1883 41.2182 33.1278 41.2156 33.0682 41.2224H17.2459C16.902 41.2224 16.6516 41.2224 16.5828 41.2894C16.514 41.3563 16.5195 41.5881 16.525 41.91C16.525 42.4509 16.6048 42.5127 17.1936 42.5127H24.3976L24.4086 42.5075ZM14.7611 38.611C14.7125 38.6095 14.664 38.6165 14.6181 38.6316C14.5245 38.6627 14.4443 38.7215 14.3897 38.799C14.3429 39.242 14.3511 39.5716 14.5327 39.7648C14.6475 39.8516 14.7797 39.9159 14.9215 39.954C15.0633 39.992 15.2118 40.003 15.3583 39.9863H25.3194H34.7192C34.8415 39.9895 34.9639 39.9835 35.0852 39.9682C35.4786 39.9116 35.729 39.7107 35.6602 38.9046C35.6382 38.6471 35.6355 38.6291 35.0494 38.6291H15.0115H14.8767L14.7611 38.611ZM34.9943 37.3852H35.1264H35.2475C35.3099 37.3873 35.3723 37.3795 35.4319 37.362C35.5139 37.3357 35.5838 37.2839 35.63 37.2152C35.7125 36.0589 35.652 35.1086 35.0796 34.2459C34.2789 33.0406 33.0874 32.4431 31.4392 32.4431H24.6562C22.6383 32.4431 20.6204 32.4431 18.6025 32.4431C16.9873 32.4431 15.8123 32.9994 15.0088 34.1377C14.53 34.8176 14.3291 35.6108 14.3594 36.713V36.7594C14.3594 37.0607 14.3594 37.259 14.4364 37.3156C14.5135 37.3723 14.7116 37.3723 15.0473 37.3723L34.9943 37.3852ZM26.3815 31.2224H27.3226C27.5483 31.2224 27.6143 31.2044 27.6308 31.1915C27.6473 31.1786 27.6308 31.1117 27.5785 30.916C26.8669 28.5725 26.7036 26.1129 27.0997 23.705C27.1328 23.5119 27.1217 23.4475 27.0997 23.4475C27.0777 23.4475 27.0392 23.414 26.8246 23.414H24.9892H23.1565C22.9612 23.414 22.9034 23.4321 22.8814 23.4449C22.8643 23.53 22.8643 23.6174 22.8814 23.7025C22.8979 23.8776 22.9172 24.0527 22.9364 24.2175C22.9997 24.7893 23.063 25.3816 23.0823 25.9662C23.1309 27.6284 22.9045 29.2877 22.4109 30.8851C22.3476 31.0885 22.3476 31.1426 22.3558 31.1735C22.4521 31.2003 22.5531 31.209 22.653 31.1992H26.354L26.3815 31.2224ZM24.7856 22.1727C25.4872 22.1727 26.3183 22.1727 27.1603 22.1727C27.2843 22.1479 27.393 22.0786 27.463 21.9796C27.7628 20.9757 28.1427 19.9944 28.5994 19.0437C28.781 18.6497 28.9709 18.2582 29.1497 17.8693C29.4249 17.3285 29.6808 16.7671 29.9312 16.2134C30.7182 14.4493 30.5999 12.7985 29.579 11.3023C28.8808 10.2186 27.7516 9.4387 26.4393 9.13383C26.019 9.03919 25.5892 8.98653 25.157 8.97674H24.9727C24.4423 8.97398 23.9143 9.04161 23.4042 9.17761L23.2749 9.21624L23.1511 9.25487C22.0894 9.61803 21.1749 10.2814 20.5342 11.1529L20.3911 11.3563L20.3663 11.395C20.2455 11.567 20.1396 11.7478 20.0499 11.9358C19.3785 13.3805 19.4115 14.8459 20.1517 16.4117C20.581 17.3285 20.9772 18.2325 21.3212 18.987L21.7725 20.0172L22.2678 21.1503C22.3531 21.3554 22.4211 21.5663 22.4714 21.7813L22.5044 21.9075C22.5134 21.9839 22.5543 22.0538 22.6183 22.1021C22.6822 22.1503 22.7639 22.1729 22.8456 22.165H24.7718L24.7856 22.1727Z" fill="#1268B3"/>
<path d="M24.9643 7.83329C26.2073 7.84001 27.4248 8.16318 28.4865 8.76814L28.5498 8.80419C28.8627 8.98852 29.1566 9.19976 29.4276 9.43515L29.5156 9.50983C29.7521 9.72456 29.9744 9.95246 30.1815 10.1923C31.0944 11.2505 31.6029 12.5641 31.6262 13.9239C31.6401 14.874 31.4287 15.8152 31.007 16.6795C30.2943 18.2247 29.5101 19.7442 28.9295 21.3332C27.8123 24.3875 27.8041 27.5011 28.7066 30.6172C28.7396 30.728 28.7892 30.8387 28.8167 30.952C28.8882 31.2559 29.0918 31.3538 29.4138 31.3563C30.3631 31.3563 31.3152 31.3563 32.2563 31.4233C33.4884 31.5322 34.6349 32.0608 35.478 32.9088C36.3211 33.7567 36.802 34.8649 36.8296 36.0228C36.8544 37.1096 36.8434 38.1964 36.8296 39.2832C36.8296 40.3133 36.183 40.9597 35.0823 41.0859C34.7879 41.1168 34.6585 41.2404 34.664 41.5109C34.664 41.686 34.664 41.8611 34.664 42.0259C34.664 42.917 34.2623 43.3857 33.3487 43.6201C33.2882 43.6355 33.2304 43.6587 33.1726 43.6767H16.8331C15.6773 43.4475 15.2811 42.8037 15.3361 41.7452C15.3361 41.6886 15.3361 41.6293 15.3361 41.5701C15.3636 41.2353 15.2068 41.0988 14.8408 41.0679C14.3933 41.0386 13.9743 40.8518 13.668 40.5451C13.3616 40.2383 13.1908 39.8344 13.1898 39.4145C13.1595 38.235 13.1348 37.053 13.1898 35.876C13.2482 34.7369 13.7466 33.6565 14.5924 32.8355C15.4381 32.0146 16.5737 31.5091 17.7879 31.413C18.6437 31.3409 19.5077 31.3589 20.369 31.346C21.0596 31.346 21.0734 31.346 21.2578 30.7408C22.1073 27.9753 22.1528 25.0478 21.3899 22.2603C20.9221 20.5245 20.0718 18.933 19.3013 17.3131C18.8335 16.3241 18.4098 15.3326 18.385 14.2227C18.3256 12.7479 18.8399 11.303 19.8324 10.1562C19.8489 10.1356 19.8682 10.1176 19.8847 10.0996C20.6152 9.25655 21.5713 8.60967 22.6556 8.22474C23.3413 7.9682 24.0718 7.83286 24.8102 7.82557H24.9616M22.8455 22.2938H24.7717C25.5614 22.2938 26.3512 22.2938 27.1436 22.2938C27.2353 22.2821 27.3225 22.2498 27.3977 22.1995C27.473 22.1492 27.5341 22.0826 27.5757 22.0053C27.8786 21.0027 28.2622 20.023 28.7231 19.0746C29.1634 18.1269 29.6367 17.1946 30.0632 16.2417C30.8364 14.5111 30.7896 12.8088 29.7 11.2121C29.3459 10.6612 28.8789 10.1812 28.3259 9.79981C27.7729 9.41839 27.1448 9.14304 26.4777 8.98961C26.0478 8.8909 25.6077 8.8365 25.1652 8.82737H24.9808C24.4365 8.82444 23.8945 8.89381 23.3711 9.0334L23.2665 9.0643L23.2197 9.07717L23.1124 9.11065C22.0217 9.48212 21.0825 10.1638 20.4268 11.0602L20.3552 11.1606L20.2809 11.2662L20.2589 11.3023C20.1329 11.4808 20.0224 11.6685 19.9287 11.8637C19.216 13.4089 19.3096 14.918 20.0305 16.4452C20.4323 17.3002 20.8175 18.1629 21.1972 19.0205C21.5164 19.7416 21.8274 20.4653 22.1466 21.1889C22.241 21.4303 22.3182 21.6772 22.3777 21.9281C22.3922 22.033 22.449 22.1288 22.5365 22.1958C22.6239 22.2629 22.7355 22.2961 22.8483 22.2886M23.7316 31.3357H27.3088C27.7793 31.3357 27.8206 31.2817 27.6967 30.8645C26.9905 28.5429 26.829 26.1059 27.2235 23.7205C27.284 23.3393 27.2235 23.2724 26.8327 23.2724H24.9973H23.1647C22.7547 23.2724 22.7189 23.3342 22.7575 23.7102C22.8345 24.4648 22.9336 25.2193 22.9583 25.9765C23.0032 27.6256 22.7777 29.2715 22.2897 30.8567C22.1658 31.2791 22.2071 31.3332 22.6666 31.3332H23.7206M15.0252 37.5011H34.9942H35.2474C35.3255 37.5023 35.4034 37.4928 35.4785 37.4727C35.5969 37.4341 35.7537 37.3105 35.7537 37.2152C35.8308 36.1567 35.806 35.1086 35.1813 34.1634C34.3146 32.8629 33.0158 32.3118 31.4225 32.3092H24.6093C22.5914 32.3092 20.5818 32.3092 18.5804 32.3092C17.0422 32.3092 15.7516 32.8243 14.8738 34.0604C14.3042 34.8691 14.1722 35.7653 14.1997 36.7079C14.2217 37.4805 14.1997 37.4933 15.0252 37.4933M15.3389 40.0918H25.3716H34.7191C34.846 40.0949 34.9729 40.0889 35.0988 40.0738C35.6491 39.994 35.8555 39.636 35.7922 38.8711C35.762 38.5157 35.6877 38.4771 35.0438 38.4771H15.0059C14.9234 38.4771 14.8353 38.4771 14.7528 38.4771C14.6873 38.4758 14.622 38.4854 14.5602 38.5055C14.4308 38.5544 14.2547 38.6754 14.2437 38.7784C14.1584 39.5974 14.2437 40.1099 15.3444 40.1099M32.8121 41.0808H17.2458C16.379 41.0808 16.3708 41.0808 16.3873 41.8997C16.3873 42.5075 16.5304 42.6285 17.1935 42.6285H32.9415C33.2552 42.6285 33.5386 42.5693 33.5826 42.2294C33.6184 41.9393 33.6184 41.6464 33.5826 41.3563C33.5826 41.2585 33.412 41.14 33.3074 41.0988C33.2344 41.0777 33.1582 41.0681 33.0818 41.0705H32.8231M24.9698 7.56031H24.813C24.038 7.57338 23.2725 7.72277 22.5566 8.00069C21.4712 8.38853 20.5084 9.02732 19.7581 9.8575H19.7333L19.6645 9.96051L19.6178 10.012C18.5866 11.2072 18.0512 12.7107 18.1098 14.2459C18.1346 15.4073 18.5886 16.4555 19.0509 17.429C19.183 17.7097 19.3261 17.9904 19.4554 18.2711C20.1398 19.5755 20.6979 20.9347 21.123 22.3324C21.871 25.0772 21.8254 27.9588 20.9909 30.6816C20.9614 30.8152 20.9123 30.9443 20.845 31.0653C20.6989 31.0964 20.5488 31.1077 20.3993 31.0988H20.3635H19.7058C19.0702 31.0988 18.4125 31.0988 17.7631 31.1606C16.4805 31.2569 15.2798 31.7885 14.3868 32.6556C13.4938 33.5226 12.9703 34.6652 12.9146 35.8683C12.8569 37.0143 12.8761 38.1578 12.9146 39.4274C12.9192 39.9135 13.1205 40.3799 13.478 40.7326C13.8354 41.0853 14.3224 41.2981 14.8408 41.328C15.116 41.3512 15.0995 41.4027 15.0885 41.5572C15.0857 41.5975 15.0857 41.6379 15.0885 41.6783C15.0898 41.6988 15.0898 41.7195 15.0885 41.7401C15.0197 42.9917 15.5645 43.6896 16.8 43.9342H16.8275H33.2331L33.2772 43.9214L33.3405 43.9008C33.3717 43.8882 33.4039 43.8778 33.4368 43.8699C34.4714 43.6123 34.9419 43.0355 34.9557 42.0311V41.9718C34.9557 41.8173 34.9557 41.6551 34.9557 41.4954C34.9557 41.3821 34.9557 41.3512 35.1346 41.3306C36.3673 41.1941 37.1103 40.4266 37.124 39.2703C37.124 38.2402 37.1461 37.1199 37.124 36.0022C37.0823 34.7843 36.5674 33.6225 35.6758 32.7345C34.7842 31.8465 33.5772 31.2933 32.2811 31.1786C31.5326 31.1168 30.7704 31.1143 30.0357 31.1117H29.4165C29.1606 31.1117 29.1166 31.0447 29.0836 30.9082C29.0669 30.8356 29.0448 30.7642 29.0176 30.6945C29.0004 30.6515 28.9857 30.6076 28.9735 30.5631C28.0521 27.5684 28.1279 24.3819 29.1909 21.4285C29.6147 20.267 30.1623 19.1107 30.6906 18.0058C30.8832 17.6015 31.0731 17.1998 31.2602 16.7954C31.6996 15.8949 31.9187 14.9138 31.9013 13.9239C31.8707 12.5171 31.3444 11.1591 30.4044 10.061V10.0481C30.1934 9.80343 29.9664 9.57121 29.7247 9.35273C29.689 9.32183 29.6615 9.29608 29.6312 9.2729C29.3479 9.02559 29.0401 8.80397 28.7121 8.61104H28.6928L28.6406 8.58014C27.5363 7.95425 26.2717 7.61965 24.9808 7.61181L24.9698 7.56031ZM22.8538 22.286V22.0285C22.7464 22.0285 22.6887 22.0131 22.6501 21.8611L22.6171 21.7401C22.5633 21.5184 22.4925 21.3006 22.4052 21.0885L21.9099 19.9554C21.7613 19.6103 21.61 19.2652 21.4587 18.9252C21.1202 18.1526 20.7184 17.2487 20.2864 16.3344C19.5627 14.8021 19.5297 13.3728 20.1874 11.9564C20.2755 11.7774 20.3785 11.6052 20.4956 11.4413C20.4997 11.4328 20.5053 11.425 20.5121 11.4181L20.5451 11.3692L20.5836 11.3126L20.6524 11.2173C21.2779 10.3682 22.169 9.72136 23.2032 9.36561L23.2555 9.35016L23.305 9.33471H23.3243H23.3463L23.3958 9.31925L23.4509 9.3038C23.9477 9.1727 24.4618 9.10768 24.9781 9.11065H25.1569C25.579 9.11975 25.9988 9.17156 26.4089 9.26517C27.042 9.41152 27.6379 9.67339 28.1625 10.0358C28.6871 10.3982 29.1301 10.8539 29.4661 11.3769C30.4594 12.8346 30.5668 14.4467 29.8045 16.1696C29.5569 16.7233 29.2872 17.2822 29.0286 17.8204C28.8414 18.2041 28.6516 18.593 28.4782 18.9973C28.0209 19.9507 27.6401 20.9346 27.339 21.9409C27.2901 21.9918 27.2273 22.0292 27.1574 22.0491C26.3319 22.0491 25.5064 22.0491 24.7965 22.0491H22.8703V22.3066L22.8538 22.286ZM23.0381 23.5325H23.1812H25.0138H26.8492H26.9868C26.9868 23.5634 26.9868 23.6098 26.9675 23.6793C26.5702 26.101 26.7344 28.5744 27.4491 30.9314C27.4656 30.9932 27.4794 31.037 27.4849 31.0705H27.3225H22.5318C22.5318 31.0379 22.5456 30.9889 22.5731 30.9237C23.0698 29.3127 23.2982 27.6397 23.25 25.9636C23.2307 25.3739 23.1647 24.779 23.1042 24.2047L23.0464 23.6896C23.0464 23.6175 23.0464 23.5711 23.0464 23.5402L23.0381 23.5325ZM14.5271 37.2204C14.4999 37.0672 14.488 36.912 14.4914 36.7568V36.7079C14.4611 35.6391 14.6537 34.8691 15.1188 34.2098C15.892 33.1127 17.0449 32.577 18.5969 32.5745C20.6148 32.5745 22.6245 32.5745 24.6259 32.5745H31.4391C33.0378 32.5745 34.1907 33.1436 34.964 34.3077C35.5143 35.1343 35.5748 36.0486 35.4978 37.1663C35.4681 37.1956 35.4326 37.2192 35.3932 37.2358C35.3465 37.2471 35.2984 37.2523 35.2501 37.2513H35.1346H34.997H15.0417C14.8698 37.2591 14.6975 37.2513 14.5271 37.2281V37.2204ZM14.5271 38.8274C14.5696 38.7875 14.6201 38.756 14.6757 38.7347C14.7058 38.7304 14.7364 38.7304 14.7665 38.7347H14.8794H15.0197H35.0575C35.2094 38.7298 35.3614 38.7385 35.5116 38.7604C35.5228 38.8035 35.5292 38.8475 35.5308 38.8918C35.5969 39.6772 35.352 39.7777 35.0713 39.8189C34.9591 39.832 34.8459 39.8372 34.7328 39.8343H25.3908C22.4465 39.8343 18.9519 39.8343 15.3581 39.8343C15.1034 39.8725 14.8427 39.8161 14.6317 39.6772C14.4859 39.5304 14.4804 39.2368 14.5189 38.8428L14.5271 38.8274ZM32.8342 41.328H33.0928C33.1382 41.3256 33.1837 41.3299 33.2277 41.3409C33.269 41.358 33.3064 41.3825 33.3377 41.413C33.3685 41.6697 33.3685 41.9289 33.3377 42.1856C33.3377 42.2731 33.3157 42.3581 32.969 42.3581H17.2238C16.701 42.3581 16.701 42.3401 16.69 41.8817C16.6749 41.7056 16.6813 41.5285 16.7092 41.3538C16.8911 41.3263 17.0756 41.3168 17.2596 41.3254L32.8342 41.328Z" fill="#1268B3"/>
</g>
<defs>
<clipPath id="clip0_177_811">
<rect width="24.2424" height="36.3636" fill="white" transform="translate(12.8789 7.57576)"/>
</clipPath>
</defs>
</svg>
