<svg width="50" height="50" viewBox="0 0 50 50" fill="none" xmlns="http://www.w3.org/2000/svg">
<g clip-path="url(#clip0_177_2182)">
<path d="M24.9806 8.83252H25.165C25.6075 8.84165 26.0477 8.89605 26.4776 8.99476C27.1447 9.14819 27.7728 9.42354 28.3258 9.80496C28.8787 10.1864 29.3457 10.6663 29.6998 11.2173C30.8005 12.814 30.8363 14.5163 30.063 16.2469C29.6365 17.1998 29.1632 18.132 28.723 19.0797C28.2683 20.0244 27.8902 20.9998 27.592 21.9976C27.5504 22.0749 27.4894 22.1415 27.4141 22.1918C27.3388 22.242 27.2516 22.2744 27.16 22.286C26.3675 22.286 25.5778 22.286 24.788 22.286H22.8618C22.7491 22.2935 22.6375 22.2603 22.55 22.1933C22.4626 22.1262 22.4058 22.0304 22.3913 21.9255C22.3318 21.6746 22.2546 21.4277 22.1602 21.1864C21.841 20.4627 21.53 19.739 21.2108 19.0179C20.8311 18.1526 20.4458 17.2899 20.0441 16.4426C19.3232 14.9154 19.2186 13.396 19.9423 11.8611C20.036 11.6659 20.1464 11.4782 20.2725 11.2997L20.2945 11.2636L20.3688 11.158L20.4403 11.0576C21.0961 10.1613 22.0353 9.47954 23.126 9.10807L23.2333 9.0746L23.2801 9.06172L23.3847 9.03082C23.9081 8.89123 24.4501 8.82186 24.9944 8.82479M24.9944 8.56726C24.4241 8.56464 23.8562 8.63747 23.3076 8.78359L23.2526 8.79904L23.1975 8.81449H23.1728H23.1508L23.0902 8.83252L23.0407 8.85054C21.8912 9.23633 20.9013 9.95195 20.212 10.8954L20.1377 11.0009L20.1019 11.055L20.0634 11.1117C20.056 11.1181 20.0503 11.126 20.0469 11.1349C19.914 11.3252 19.7971 11.525 19.6974 11.7323C18.9764 13.2775 19.0095 14.8485 19.7992 16.5199C20.2285 17.429 20.6247 18.3226 20.9659 19.0952C21.1173 19.4403 21.2686 19.7854 21.4172 20.1253L21.9125 21.2585C21.9903 21.447 22.0529 21.6407 22.0996 21.8379L22.1326 21.9641C22.1631 22.1243 22.2547 22.2687 22.3903 22.3706C22.5259 22.4724 22.6964 22.5247 22.8701 22.5178H24.7963C25.498 22.5178 26.3262 22.5178 27.171 22.5178C27.3233 22.5057 27.469 22.4543 27.5919 22.3693C27.7149 22.2842 27.8101 22.169 27.8672 22.0362C28.1633 21.0512 28.5367 20.088 28.9844 19.1544C29.166 18.7656 29.3558 18.369 29.5347 17.9878C29.8099 17.4444 30.0685 16.8804 30.3189 16.3216C31.161 14.4339 31.0316 12.662 29.9337 11.055C29.5611 10.4754 29.0698 9.97044 28.488 9.56913C27.9063 9.16783 27.2454 8.87811 26.5436 8.71663C26.0926 8.61533 25.6314 8.55922 25.1678 8.54923L24.9944 8.56726Z" fill="white"/>
<path d="M25.0083 23.2801H26.8436C27.2426 23.2801 27.2949 23.3471 27.2344 23.7282C26.84 26.1136 27.0014 28.5506 27.7077 30.8722C27.8315 31.2894 27.7902 31.3409 27.3197 31.3435H22.6776C22.218 31.3435 22.1768 31.2894 22.3006 30.867C22.7886 29.2818 23.0141 27.6359 22.9692 25.9868C22.9445 25.2296 22.8454 24.4751 22.7684 23.7205C22.7299 23.3445 22.7684 23.2827 23.1756 23.2827H25.0083M25.0083 23.0252H23.1729C23.0718 23.0143 22.9694 23.0239 22.8725 23.0532C22.7757 23.0825 22.6867 23.1309 22.6115 23.1951C22.5528 23.276 22.5127 23.3675 22.4937 23.4637C22.4748 23.5599 22.4774 23.6588 22.5015 23.754L22.5592 24.269C22.6198 24.8356 22.6831 25.4228 22.7023 25.9945C22.7486 27.6176 22.5267 29.2377 22.0447 30.7975C21.9704 31.055 21.9236 31.2508 22.0584 31.4207C22.1407 31.4937 22.2399 31.5479 22.3483 31.5792C22.4566 31.6104 22.5712 31.6179 22.6831 31.601H27.3279C27.6031 31.601 27.8315 31.583 27.9663 31.4156C28.0181 31.3211 28.0463 31.2168 28.0487 31.1106C28.051 31.0044 28.0276 30.8991 27.9801 30.8026C27.2887 28.5156 27.1301 26.1162 27.515 23.7668C27.546 23.6705 27.5542 23.569 27.539 23.4693C27.5238 23.3697 27.4856 23.2744 27.427 23.19C27.3506 23.1244 27.2597 23.0754 27.1608 23.0464C27.0619 23.0175 26.9573 23.0093 26.8546 23.0226H25.0165L25.0083 23.0252Z" fill="white"/>
<path d="M14.7502 38.4823C14.8328 38.4823 14.9208 38.4823 15.0034 38.4823H35.0412C35.6851 38.4823 35.7594 38.5209 35.7897 38.8763C35.853 39.6489 35.6494 39.9991 35.0963 40.079C34.9704 40.094 34.8434 40.1001 34.7165 40.097H25.3938C22.0477 40.097 18.7026 40.097 15.3584 40.097C14.2412 40.097 14.1641 39.5819 14.2577 38.7656C14.2577 38.6625 14.4448 38.5415 14.5741 38.4926C14.636 38.4725 14.7013 38.4629 14.7668 38.4642M14.7668 38.2067C14.6673 38.2048 14.5683 38.2205 14.4751 38.2531C14.3155 38.3123 14.01 38.49 13.9853 38.7398C13.9358 39.2034 13.9165 39.6798 14.2329 40.0069C14.4641 40.2438 14.8245 40.3545 15.3666 40.3545C18.9713 40.3545 22.466 40.3545 25.4103 40.3545H34.7193C34.8609 40.3578 35.0026 40.3509 35.143 40.3339C36.0731 40.2 36.1144 39.4274 36.0649 38.8557C36.0153 38.284 35.6631 38.2247 35.044 38.2247H15.0062H14.8961H14.753L14.7668 38.2067Z" fill="white"/>
<path d="M24.6205 32.3247H31.4337C33.027 32.3247 34.3258 32.8784 35.1925 34.1789C35.8172 35.124 35.8419 36.1722 35.7649 37.2307C35.7649 37.326 35.5943 37.4496 35.4897 37.4882C35.4146 37.5082 35.3367 37.5178 35.2586 37.5165H35.0054H15.0501C14.2246 37.5165 14.2467 37.5165 14.2246 36.7311C14.1971 35.7885 14.3292 34.8923 14.8988 34.0836C15.7766 32.8372 17.0671 32.335 18.6053 32.3324C20.6232 32.3324 22.6329 32.3324 24.6343 32.3324M24.6343 32.0749C22.6256 32.0749 20.6159 32.0749 18.6053 32.0749C16.8635 32.0749 15.5399 32.7058 14.6677 33.942C14.1393 34.694 13.9165 35.5541 13.9495 36.7388V36.7851C13.9742 37.6633 14.0981 37.7741 15.0501 37.7741H35.121H35.2586C35.3668 37.7761 35.4747 37.7613 35.5778 37.7303C35.6956 37.6966 35.8017 37.6343 35.8853 37.5496C35.9689 37.465 36.0271 37.3612 36.0538 37.2487C36.1309 36.1799 36.1089 35.0519 35.4402 34.045C34.5707 32.7341 33.2388 32.0697 31.4475 32.0671H24.6343V32.0749Z" fill="white"/>
<path d="M16.8329 43.8106H16.8192C15.6635 43.5814 15.1516 42.9247 15.2149 41.7504C15.2177 41.7273 15.2177 41.7039 15.2149 41.6808C15.2122 41.644 15.2122 41.607 15.2149 41.5701C15.2342 41.3126 15.1461 41.2327 14.8407 41.2044C14.3593 41.1715 13.9086 40.9706 13.5778 40.6416C13.2471 40.3125 13.0605 39.8792 13.0548 39.4274C13.0218 38.1629 13.0026 37.0246 13.0548 35.8786C13.1093 34.7066 13.6197 33.5937 14.4899 32.7494C15.3601 31.9051 16.53 31.3877 17.7795 31.2945C18.4206 31.2405 19.0755 31.2379 19.7057 31.2327H20.3661H20.4019C20.9715 31.2327 20.9715 31.2327 21.1228 30.7177C21.9634 27.973 22.0099 25.0685 21.2576 22.3015C20.8312 20.8944 20.2713 19.5257 19.5846 18.2119C19.447 17.9312 19.3094 17.6504 19.1774 17.3697C18.7233 16.4091 18.2748 15.3764 18.25 14.2381C18.1925 12.7337 18.7172 11.2605 19.7277 10.0893C19.7429 10.0702 19.7594 10.0521 19.7772 10.0352L19.8103 9.98369H19.824C20.5651 9.14566 21.5254 8.50152 22.6115 8.114C23.3118 7.85117 24.0584 7.71316 24.8128 7.7071H24.9669C26.2352 7.71463 27.4775 8.0449 28.5606 8.66255L28.6102 8.6883C28.9355 8.87959 29.2414 9.09855 29.5237 9.34243L29.6118 9.41712C29.8536 9.63635 30.0806 9.86944 30.2914 10.115C31.2194 11.197 31.7372 12.5367 31.7636 13.9239C31.7812 14.8904 31.5688 15.8484 31.1417 16.7285C30.9546 17.1328 30.7647 17.5346 30.5721 17.9389C30.0438 19.054 29.4935 20.2052 29.067 21.3718C27.9975 24.3497 27.9207 27.5615 28.8468 30.5812C28.8468 30.6275 28.8771 30.6739 28.8936 30.7202C28.9201 30.7858 28.9422 30.8529 28.9596 30.9211C29.0119 31.1426 29.133 31.2224 29.4247 31.225H30.041C30.773 31.225 31.5325 31.225 32.2754 31.2894C33.5396 31.4057 34.7148 31.9502 35.5803 32.8204C36.4458 33.6906 36.9418 34.8267 36.9753 36.0151C37.0001 37.1277 36.9891 38.2376 36.9753 39.2806C36.9753 40.3726 36.2819 41.0834 35.1069 41.2044C34.8785 41.2302 34.8042 41.3023 34.8097 41.5006C34.8097 41.6577 34.8097 41.8122 34.8097 41.9693V42.0311C34.8097 42.9814 34.3722 43.4964 33.3926 43.7488C33.3561 43.7577 33.3202 43.7689 33.2853 43.7823L33.2027 43.8081L16.8329 43.8106ZM24.4083 42.5075H32.9386C33.3293 42.5075 33.4229 42.3968 33.4449 42.2217C33.4793 41.9419 33.4793 41.6593 33.4449 41.3795C33.399 41.31 33.3291 41.2573 33.2468 41.2302C33.188 41.2182 33.1276 41.2156 33.0679 41.2224H17.2457C16.9017 41.2224 16.6513 41.2224 16.5825 41.2894C16.5137 41.3563 16.5192 41.5881 16.5247 41.91C16.5247 42.4509 16.6045 42.5127 17.1934 42.5127H24.3973L24.4083 42.5075ZM14.7609 38.611C14.7122 38.6095 14.6637 38.6165 14.6178 38.6316C14.5243 38.6627 14.4441 38.7215 14.3894 38.799C14.3426 39.242 14.3509 39.5716 14.5325 39.7648C14.6472 39.8516 14.7794 39.9159 14.9212 39.954C15.063 39.992 15.2116 40.003 15.358 39.9863H25.3191H34.7189C34.8412 39.9895 34.9636 39.9835 35.0849 39.9682C35.4784 39.9116 35.7288 39.7107 35.66 38.9046C35.638 38.6471 35.6352 38.6291 35.0491 38.6291H15.0113H14.8765L14.7609 38.611ZM34.9941 37.3852H35.1262H35.2472C35.3097 37.3873 35.372 37.3795 35.4316 37.362C35.5136 37.3357 35.5835 37.2839 35.6297 37.2152C35.7123 36.0589 35.6518 35.1086 35.0794 34.2459C34.2787 33.0406 33.0872 32.4431 31.4389 32.4431H24.656C22.6381 32.4431 20.6202 32.4431 18.6023 32.4431C16.987 32.4431 15.812 32.9994 15.0085 34.1377C14.5297 34.8176 14.3289 35.6108 14.3591 36.713V36.7594C14.3591 37.0607 14.3591 37.259 14.4362 37.3156C14.5132 37.3723 14.7114 37.3723 15.0471 37.3723L34.9941 37.3852ZM26.3813 31.2224H27.3224C27.548 31.2224 27.6141 31.2044 27.6306 31.1915C27.6471 31.1786 27.6306 31.1117 27.5783 30.916C26.8667 28.5725 26.7034 26.1129 27.0995 23.705C27.1325 23.5119 27.1215 23.4475 27.0995 23.4475C27.0775 23.4475 27.0389 23.414 26.8243 23.414H24.9889H23.1563C22.9609 23.414 22.9031 23.4321 22.8811 23.4449C22.8641 23.53 22.8641 23.6174 22.8811 23.7025C22.8976 23.8776 22.9169 24.0527 22.9362 24.2175C22.9995 24.7893 23.0628 25.3816 23.082 25.9662C23.1307 27.6284 22.9042 29.2877 22.4106 30.8851C22.3473 31.0885 22.3473 31.1426 22.3556 31.1735C22.4519 31.2003 22.5528 31.209 22.6528 31.1992H26.3538L26.3813 31.2224ZM24.7853 22.1727C25.487 22.1727 26.318 22.1727 27.16 22.1727C27.2841 22.1479 27.3927 22.0786 27.4627 21.9796C27.7626 20.9757 28.1424 19.9944 28.5992 19.0437C28.7808 18.6497 28.9706 18.2582 29.1495 17.8693C29.4247 17.3285 29.6806 16.7671 29.931 16.2134C30.718 14.4493 30.5996 12.7985 29.5788 11.3023C28.8806 10.2186 27.7513 9.4387 26.4391 9.13383C26.0188 9.03919 25.589 8.98653 25.1568 8.97674H24.9724C24.4421 8.97398 23.914 9.04161 23.404 9.17761L23.2746 9.21624L23.1508 9.25487C22.0892 9.61803 21.1746 10.2814 20.5339 11.1529L20.3909 11.3563L20.3661 11.395C20.2452 11.567 20.1394 11.7478 20.0496 11.9358C19.3782 13.3805 19.4113 14.8459 20.1515 16.4117C20.5807 17.3285 20.977 18.2325 21.3209 18.987L21.7722 20.0172L22.2675 21.1503C22.3528 21.3554 22.4209 21.5663 22.4711 21.7813L22.5042 21.9075C22.5132 21.9839 22.5541 22.0538 22.618 22.1021C22.682 22.1503 22.7637 22.1729 22.8454 22.165H24.7715L24.7853 22.1727Z" fill="white"/>
<path d="M24.9646 7.83329C26.2075 7.84001 27.425 8.16318 28.4867 8.76814L28.55 8.80419C28.8629 8.98852 29.1568 9.19976 29.4278 9.43515L29.5159 9.50983C29.7523 9.72456 29.9747 9.95246 30.1818 10.1923C31.0946 11.2505 31.6031 12.5641 31.6264 13.9239C31.6404 14.874 31.4289 15.8152 31.0073 16.6795C30.2946 18.2247 29.5104 19.7442 28.9298 21.3332C27.8126 24.3875 27.8043 27.5011 28.7069 30.6172C28.7399 30.728 28.7894 30.8387 28.8169 30.952C28.8885 31.2559 29.0921 31.3538 29.414 31.3563C30.3634 31.3563 31.3155 31.3563 32.2565 31.4233C33.4886 31.5322 34.6351 32.0608 35.4782 32.9088C36.3213 33.7567 36.8023 34.8649 36.8299 36.0228C36.8546 37.1096 36.8436 38.1964 36.8299 39.2832C36.8299 40.3133 36.1832 40.9597 35.0825 41.0859C34.7881 41.1168 34.6588 41.2404 34.6643 41.5109C34.6643 41.686 34.6643 41.8611 34.6643 42.0259C34.6643 42.917 34.2625 43.3857 33.349 43.6201C33.2884 43.6355 33.2306 43.6587 33.1729 43.6767H16.8333C15.6776 43.4475 15.2813 42.8037 15.3364 41.7452C15.3364 41.6886 15.3364 41.6293 15.3364 41.5701C15.3639 41.2353 15.207 41.0988 14.8411 41.0679C14.3936 41.0386 13.9745 40.8518 13.6682 40.5451C13.3619 40.2383 13.1911 39.8344 13.1901 39.4145C13.1598 38.235 13.135 37.053 13.1901 35.876C13.2484 34.7369 13.7468 33.6565 14.5926 32.8355C15.4384 32.0146 16.574 31.5091 17.7881 31.413C18.6439 31.3409 19.5079 31.3589 20.3692 31.346C21.0599 31.346 21.0737 31.346 21.258 30.7408C22.1075 27.9753 22.1531 25.0478 21.3901 22.2603C20.9223 20.5245 20.072 18.933 19.3016 17.3131C18.8338 16.3241 18.41 15.3326 18.3853 14.2227C18.3259 12.7479 18.8401 11.303 19.8327 10.1562C19.8492 10.1356 19.8684 10.1176 19.8849 10.0996C20.6154 9.25655 21.5715 8.60967 22.6559 8.22474C23.3415 7.9682 24.0721 7.83286 24.8105 7.82557H24.9618M22.8457 22.2938H24.7719C25.5617 22.2938 26.3514 22.2938 27.1439 22.2938C27.2355 22.2821 27.3227 22.2498 27.398 22.1995C27.4732 22.1492 27.5343 22.0826 27.5759 22.0053C27.8788 21.0027 28.2624 20.023 28.7234 19.0746C29.1636 18.1269 29.6369 17.1946 30.0634 16.2417C30.8367 14.5111 30.7899 12.8088 29.7002 11.2121C29.3461 10.6612 28.8792 10.1812 28.3262 9.79981C27.7732 9.41839 27.1451 9.14304 26.478 8.98961C26.0481 8.8909 25.608 8.8365 25.1654 8.82737H24.9811C24.4368 8.82444 23.8948 8.89381 23.3713 9.0334L23.2668 9.0643L23.22 9.07717L23.1127 9.11065C22.0219 9.48212 21.0828 10.1638 20.427 11.0602L20.3555 11.1606L20.2812 11.2662L20.2592 11.3023C20.1331 11.4808 20.0227 11.6685 19.929 11.8637C19.2163 13.4089 19.3098 14.918 20.0308 16.4452C20.4325 17.3002 20.8177 18.1629 21.1975 19.0205C21.5167 19.7416 21.8276 20.4653 22.1468 21.1889C22.2412 21.4303 22.3184 21.6772 22.378 21.9281C22.3924 22.033 22.4492 22.1288 22.5367 22.1958C22.6242 22.2629 22.7357 22.2961 22.8485 22.2886M23.7318 31.3357H27.309C27.7795 31.3357 27.8208 31.2817 27.697 30.8645C26.9907 28.5429 26.8293 26.1059 27.2237 23.7205C27.2842 23.3393 27.2237 23.2724 26.833 23.2724H24.9976H23.1649C22.7549 23.2724 22.7192 23.3342 22.7577 23.7102C22.8348 24.4648 22.9338 25.2193 22.9586 25.9765C23.0034 27.6256 22.7779 29.2715 22.2899 30.8567C22.1661 31.2791 22.2074 31.3332 22.6669 31.3332H23.7208M15.0254 37.5011H34.9945H35.2476C35.3257 37.5023 35.4036 37.4928 35.4788 37.4727C35.5971 37.4341 35.754 37.3105 35.754 37.2152C35.831 36.1567 35.8062 35.1086 35.1816 34.1634C34.3148 32.8629 33.016 32.3118 31.4228 32.3092H24.6096C22.5917 32.3092 20.582 32.3092 18.5806 32.3092C17.0424 32.3092 15.7519 32.8243 14.8741 34.0604C14.3045 34.8691 14.1724 35.7653 14.1999 36.7079C14.2219 37.4805 14.1999 37.4933 15.0254 37.4933M15.3391 40.0918H25.3718H34.7193C34.8462 40.0949 34.9731 40.0889 35.099 40.0738C35.6494 39.994 35.8558 39.636 35.7925 38.8711C35.7622 38.5157 35.6879 38.4771 35.044 38.4771H15.0062C14.9236 38.4771 14.8356 38.4771 14.753 38.4771C14.6875 38.4758 14.6223 38.4854 14.5604 38.5055C14.4311 38.5544 14.255 38.6754 14.244 38.7784C14.1587 39.5974 14.244 40.1099 15.3446 40.1099M32.8124 41.0808H17.2461C16.3793 41.0808 16.371 41.0808 16.3875 41.8997C16.3875 42.5075 16.5306 42.6285 17.1938 42.6285H32.9417C33.2554 42.6285 33.5388 42.5693 33.5829 42.2294C33.6186 41.9393 33.6186 41.6464 33.5829 41.3563C33.5829 41.2585 33.4123 41.14 33.3077 41.0988C33.2347 41.0777 33.1584 41.0681 33.082 41.0705H32.8234M24.9701 7.56031H24.8132C24.0382 7.57338 23.2728 7.72277 22.5568 8.00069C21.4714 8.38853 20.5087 9.02732 19.7584 9.8575H19.7336L19.6648 9.96051L19.618 10.012C18.5869 11.2072 18.0514 12.7107 18.1101 14.2459C18.1349 15.4073 18.5889 16.4555 19.0512 17.429C19.1832 17.7097 19.3263 17.9904 19.4557 18.2711C20.14 19.5755 20.6981 20.9347 21.1232 22.3324C21.8713 25.0772 21.8257 27.9588 20.9911 30.6816C20.9616 30.8152 20.9126 30.9443 20.8453 31.0653C20.6992 31.0964 20.549 31.1077 20.3995 31.0988H20.3637H19.7061C19.0704 31.0988 18.4128 31.0988 17.7634 31.1606C16.4808 31.2569 15.28 31.7885 14.387 32.6556C13.4941 33.5226 12.9705 34.6652 12.9149 35.8683C12.8571 37.0143 12.8764 38.1578 12.9149 39.4274C12.9195 39.9135 13.1208 40.3799 13.4782 40.7326C13.8357 41.0853 14.3227 41.2981 14.8411 41.328C15.1162 41.3512 15.0997 41.4027 15.0887 41.5572C15.0859 41.5975 15.0859 41.6379 15.0887 41.6783C15.0901 41.6988 15.0901 41.7195 15.0887 41.7401C15.0199 42.9917 15.5648 43.6896 16.8003 43.9342H16.8278H33.2334L33.2774 43.9214L33.3407 43.9008C33.3719 43.8882 33.4041 43.8778 33.437 43.8699C34.4717 43.6123 34.9422 43.0355 34.956 42.0311V41.9718C34.956 41.8173 34.956 41.6551 34.956 41.4954C34.956 41.3821 34.956 41.3512 35.1348 41.3306C36.3676 41.1941 37.1105 40.4266 37.1243 39.2703C37.1243 38.2402 37.1463 37.1199 37.1243 36.0022C37.0825 34.7843 36.5676 33.6225 35.676 32.7345C34.7845 31.8465 33.5775 31.2933 32.2813 31.1786C31.5329 31.1168 30.7706 31.1143 30.0359 31.1117H29.4168C29.1609 31.1117 29.1169 31.0447 29.0838 30.9082C29.0671 30.8356 29.0451 30.7642 29.0178 30.6945C29.0006 30.6515 28.9859 30.6076 28.9738 30.5631C28.0523 27.5684 28.1282 24.3819 29.1912 21.4285C29.6149 20.267 30.1625 19.1107 30.6908 18.0058C30.8834 17.6015 31.0733 17.1998 31.2604 16.7954C31.6999 15.8949 31.9189 14.9138 31.9016 13.9239C31.8709 12.5171 31.3447 11.1591 30.4047 10.061V10.0481C30.1936 9.80343 29.9666 9.57121 29.725 9.35273C29.6892 9.32183 29.6617 9.29608 29.6314 9.2729C29.3481 9.02559 29.0404 8.80397 28.7124 8.61104H28.6931L28.6408 8.58014C27.5366 7.95425 26.272 7.61965 24.9811 7.61181L24.9701 7.56031ZM22.854 22.286V22.0285C22.7467 22.0285 22.6889 22.0131 22.6504 21.8611L22.6174 21.7401C22.5636 21.5184 22.4928 21.3006 22.4055 21.0885L21.9102 19.9554C21.7616 19.6103 21.6102 19.2652 21.4589 18.9252C21.1204 18.1526 20.7187 17.2487 20.2867 16.3344C19.563 14.8021 19.53 13.3728 20.1876 11.9564C20.2757 11.7774 20.3787 11.6052 20.4958 11.4413C20.5 11.4328 20.5056 11.425 20.5123 11.4181L20.5453 11.3692L20.5839 11.3126L20.6527 11.2173C21.2781 10.3682 22.1692 9.72136 23.2035 9.36561L23.2558 9.35016L23.3053 9.33471H23.3246H23.3466L23.3961 9.31925L23.4511 9.3038C23.948 9.1727 24.4621 9.10768 24.9783 9.11065H25.1572C25.5792 9.11975 25.999 9.17156 26.4092 9.26517C27.0422 9.41152 27.6381 9.67339 28.1627 10.0358C28.6874 10.3982 29.1303 10.8539 29.4663 11.3769C30.4597 12.8346 30.567 14.4467 29.8048 16.1696C29.5571 16.7233 29.2875 17.2822 29.0288 17.8204C28.8417 18.2041 28.6518 18.593 28.4785 18.9973C28.0212 19.9507 27.6404 20.9346 27.3393 21.9409C27.2904 21.9918 27.2276 22.0292 27.1577 22.0491C26.3322 22.0491 25.5066 22.0491 24.7967 22.0491H22.8705V22.3066L22.854 22.286ZM23.0384 23.5325H23.1815H25.0141H26.8495H26.9871C26.9871 23.5634 26.9871 23.6098 26.9678 23.6793C26.5704 26.101 26.7346 28.5744 27.4493 30.9314C27.4658 30.9932 27.4796 31.037 27.4851 31.0705H27.3228H22.5321C22.5321 31.0379 22.5458 30.9889 22.5733 30.9237C23.0701 29.3127 23.2984 27.6397 23.2503 25.9636C23.231 25.3739 23.1649 24.779 23.1044 24.2047L23.0466 23.6896C23.0466 23.6175 23.0466 23.5711 23.0466 23.5402L23.0384 23.5325ZM14.5274 37.2204C14.5002 37.0672 14.4882 36.912 14.4916 36.7568V36.7079C14.4613 35.6391 14.654 34.8691 15.119 34.2098C15.8922 33.1127 17.0452 32.577 18.5971 32.5745C20.615 32.5745 22.6247 32.5745 24.6261 32.5745H31.4393C33.038 32.5745 34.191 33.1436 34.9642 34.3077C35.5146 35.1343 35.5751 36.0486 35.498 37.1663C35.4683 37.1956 35.4328 37.2192 35.3935 37.2358C35.3468 37.2471 35.2986 37.2523 35.2504 37.2513H35.1348H34.9972H15.0419C14.87 37.2591 14.6977 37.2513 14.5274 37.2281V37.2204ZM14.5274 38.8274C14.5698 38.7875 14.6203 38.756 14.676 38.7347C14.7061 38.7304 14.7367 38.7304 14.7668 38.7347H14.8796H15.0199H35.0578C35.2096 38.7298 35.3617 38.7385 35.5118 38.7604C35.523 38.8035 35.5295 38.8475 35.5311 38.8918C35.5971 39.6772 35.3522 39.7777 35.0715 39.8189C34.9593 39.832 34.8461 39.8372 34.7331 39.8343H25.3911C22.4467 39.8343 18.9521 39.8343 15.3584 39.8343C15.1036 39.8725 14.843 39.8161 14.6319 39.6772C14.4861 39.5304 14.4806 39.2368 14.5191 38.8428L14.5274 38.8274ZM32.8344 41.328H33.0931C33.1385 41.3256 33.184 41.3299 33.2279 41.3409C33.2693 41.358 33.3066 41.3825 33.338 41.413C33.3687 41.6697 33.3687 41.9289 33.338 42.1856C33.338 42.2731 33.316 42.3581 32.9692 42.3581H17.224C16.7012 42.3581 16.7012 42.3401 16.6902 41.8817C16.6751 41.7056 16.6816 41.5285 16.7095 41.3538C16.8913 41.3263 17.0758 41.3168 17.2598 41.3254L32.8344 41.328Z" fill="white"/>
</g>
<defs>
<clipPath id="clip0_177_2182">
<rect width="24.2424" height="36.3636" fill="white" transform="translate(12.8789 7.57576)"/>
</clipPath>
</defs>
</svg>
