<svg width="50" height="50" viewBox="0 0 50 50" fill="none" xmlns="http://www.w3.org/2000/svg">
<path fill-rule="evenodd" clip-rule="evenodd" d="M22.8376 5.20831L25 5.20831C25.5753 5.20831 26.0417 5.67468 26.0417 6.24998C26.0417 6.82528 25.5753 7.29165 25 7.29165H22.9167C19.9409 7.29165 17.8139 7.29386 16.1975 7.51118C14.6111 7.72447 13.6733 8.12764 12.9838 8.81713C12.2943 9.50662 11.8912 10.4444 11.6779 12.0308C11.4605 13.6473 11.4583 15.7743 11.4583 18.75V31.25C11.4583 34.2257 11.4605 36.3527 11.6779 37.9691C11.8912 39.5556 12.2943 40.4933 12.9838 41.1828C13.6733 41.8723 14.6111 42.2755 16.1975 42.4888C17.8139 42.7061 19.9409 42.7083 22.9167 42.7083H27.0833C30.0591 42.7083 32.1861 42.7061 33.8025 42.4888C35.3889 42.2755 36.3267 41.8723 37.0162 41.1828C37.7057 40.4933 38.1088 39.5556 38.3221 37.9691C38.5395 36.3527 38.5417 34.2257 38.5417 31.25V27.0833C38.5417 26.508 39.008 26.0416 39.5833 26.0416C40.1586 26.0416 40.625 26.508 40.625 27.0833V31.329C40.625 34.2083 40.625 36.4754 40.3869 38.2467C40.1425 40.0642 39.6304 41.5149 38.4893 42.656C37.3482 43.7971 35.8976 44.3092 34.0801 44.5535C32.3088 44.7917 30.0417 44.7917 27.1625 44.7916H22.8375C19.9583 44.7917 17.6912 44.7917 15.9199 44.5535C14.1024 44.3092 12.6518 43.7971 11.5107 42.656C10.3696 41.5149 9.85746 40.0642 9.61311 38.2467C9.37496 36.4754 9.37498 34.2083 9.375 31.3291V18.6709C9.37498 15.7917 9.37496 13.5245 9.61311 11.7532C9.85746 9.93576 10.3696 8.48509 11.5107 7.34399C12.6518 6.2029 14.1024 5.69078 15.9199 5.44643C17.6912 5.20828 19.9584 5.20829 22.8376 5.20831Z" fill="#1268B3"/>
<path fill-rule="evenodd" clip-rule="evenodd" d="M37.4997 5.20831C38.075 5.20831 38.5413 5.67468 38.5413 6.24998L38.5413 18.75C38.5413 19.3253 38.075 19.7916 37.4997 19.7916C36.9244 19.7916 36.458 19.3253 36.458 18.75L36.458 6.24998C36.458 5.67468 36.9244 5.20831 37.4997 5.20831Z" fill="#1268B3"/>
<path fill-rule="evenodd" clip-rule="evenodd" d="M44.792 12.5C44.792 13.0753 44.3256 13.5416 43.7503 13.5416L31.2503 13.5416C30.675 13.5416 30.2087 13.0753 30.2087 12.5C30.2087 11.9247 30.675 11.4583 31.2503 11.4583L43.7503 11.4583C44.3256 11.4583 44.792 11.9247 44.792 12.5Z" fill="#1268B3"/>
<path fill-rule="evenodd" clip-rule="evenodd" d="M17.708 27.0834C17.708 26.5081 18.1744 26.0417 18.7497 26.0417L31.2497 26.0417C31.825 26.0417 32.2913 26.5081 32.2913 27.0834C32.2913 27.6587 31.825 28.125 31.2497 28.125L18.7497 28.125C18.1744 28.125 17.708 27.6587 17.708 27.0834Z" fill="#1268B3"/>
<path fill-rule="evenodd" clip-rule="evenodd" d="M17.708 18.75C17.708 18.1747 18.1744 17.7083 18.7497 17.7083L27.083 17.7083C27.6583 17.7083 28.1247 18.1747 28.1247 18.75C28.1247 19.3253 27.6583 19.7916 27.083 19.7916L18.7497 19.7916C18.1744 19.7916 17.708 19.3253 17.708 18.75Z" fill="#1268B3"/>
<path fill-rule="evenodd" clip-rule="evenodd" d="M17.708 35.4167C17.708 34.8414 18.1744 34.375 18.7497 34.375L27.083 34.375C27.6583 34.375 28.1247 34.8414 28.1247 35.4167C28.1247 35.992 27.6583 36.4583 27.083 36.4583L18.7497 36.4583C18.1744 36.4583 17.708 35.992 17.708 35.4167Z" fill="#1268B3"/>
</svg>
