<svg width="50" height="50" viewBox="0 0 50 50" fill="none" xmlns="http://www.w3.org/2000/svg">
<path d="M25 9L25.4915 8.12912C25.1864 7.95696 24.8136 7.95696 24.5085 8.12912L25 9ZM4 20.8519L3.5085 19.981C3.20698 20.1511 3.01493 20.4652 3.00083 20.8111C2.98673 21.1571 3.15258 21.4857 3.43925 21.6798L4 20.8519ZM46 20.8519L46.5607 21.6798C46.8474 21.4857 47.0133 21.1571 46.9992 20.8111C46.9851 20.4652 46.793 20.1511 46.4915 19.981L46 20.8519ZM28.6667 27.963C28.6667 28.5152 29.1144 28.963 29.6667 28.963C30.219 28.963 30.6667 28.5152 30.6667 27.963H28.6667ZM11 35.0741H10C10 35.4757 10.2403 35.8384 10.6102 35.995L11 35.0741ZM39 35.0741L39.3898 35.995C39.7597 35.8384 40 35.4757 40 35.0741H39ZM25 41L24.6102 41.9209C24.8594 42.0264 25.1406 42.0264 25.3898 41.9209L25 41ZM24.5085 8.12912L3.5085 19.981L4.4915 21.7227L25.4915 9.87088L24.5085 8.12912ZM46.4915 19.981L25.4915 8.12912L24.5085 9.87088L45.5085 21.7227L46.4915 19.981ZM3.43925 21.6798L10.4392 26.4206L11.5608 24.7646L4.56075 20.0239L3.43925 21.6798ZM39.5607 26.4206L46.5607 21.6798L45.4392 20.0239L38.4392 24.7646L39.5607 26.4206ZM28.6667 11.3704V27.963H30.6667V11.3704H28.6667ZM12 35.0741V25.5926H10V35.0741H12ZM11 25.5926C11.8972 26.0342 11.8968 26.035 11.8964 26.0359C11.8963 26.0361 11.8959 26.0369 11.8956 26.0374C11.8951 26.0385 11.8946 26.0394 11.8942 26.0403C11.8933 26.042 11.8926 26.0435 11.892 26.0447C11.8907 26.0471 11.89 26.0484 11.8899 26.0486C11.8897 26.049 11.8917 26.0452 11.8963 26.0373C11.9053 26.0216 11.9242 25.9899 11.9546 25.9443C12.0154 25.8533 12.1225 25.7066 12.2893 25.5218C12.6218 25.1533 13.1973 24.6268 14.127 24.0871C15.9841 23.009 19.3018 21.8519 25 21.8519V19.8519C19.0315 19.8519 15.3492 21.065 13.123 22.3574C12.0111 23.0028 11.274 23.6615 10.8044 24.1819C10.5702 24.4416 10.4039 24.6652 10.2915 24.8334C10.2353 24.9175 10.1927 24.9876 10.1619 25.0414C10.1464 25.0683 10.1339 25.091 10.1242 25.1094C10.1193 25.1186 10.1151 25.1267 10.1115 25.1336C10.1097 25.1371 10.1081 25.1403 10.1067 25.1432C10.1059 25.1446 10.1053 25.146 10.1046 25.1473C10.1043 25.148 10.1038 25.1489 10.1037 25.1492C10.1032 25.1501 10.1028 25.151 11 25.5926ZM25 21.8519C30.6982 21.8519 34.0159 23.009 35.873 24.0871C36.8027 24.6268 37.3782 25.1533 37.7107 25.5218C37.8775 25.7066 37.9846 25.8533 38.0454 25.9443C38.0758 25.9899 38.0947 26.0216 38.1037 26.0373C38.1083 26.0452 38.1103 26.049 38.1101 26.0486C38.11 26.0484 38.1093 26.0471 38.108 26.0447C38.1074 26.0435 38.1067 26.042 38.1058 26.0403C38.1054 26.0394 38.1049 26.0385 38.1044 26.0374C38.1041 26.0369 38.1037 26.0361 38.1036 26.0359C38.1032 26.035 38.1028 26.0342 39 25.5926C39.8972 25.151 39.8968 25.1501 39.8963 25.1492C39.8962 25.1489 39.8957 25.148 39.8954 25.1473C39.8947 25.146 39.8941 25.1446 39.8933 25.1432C39.8919 25.1403 39.8903 25.1371 39.8885 25.1336C39.8849 25.1267 39.8807 25.1186 39.8758 25.1094C39.8661 25.091 39.8536 25.0683 39.8381 25.0414C39.8073 24.9876 39.7647 24.9175 39.7085 24.8334C39.5961 24.6652 39.4298 24.4416 39.1956 24.1819C38.726 23.6615 37.9889 23.0028 36.877 22.3574C34.6508 21.065 30.9685 19.8519 25 19.8519V21.8519ZM38 25.5926V35.0741H40V25.5926H38ZM38.6102 34.1532L24.6102 40.0791L25.3898 41.9209L39.3898 35.995L38.6102 34.1532ZM25.3898 40.0791L11.3898 34.1532L10.6102 35.995L24.6102 41.9209L25.3898 40.0791Z" fill="white"/>
</svg>
