<svg width="50" height="50" viewBox="0 0 50 50" fill="none" xmlns="http://www.w3.org/2000/svg">
<path d="M39.6875 23C39.6875 23.5523 40.1352 24 40.6875 24C41.2398 24 41.6875 23.5523 41.6875 23H39.6875ZM29.125 38C29.6773 38 30.125 37.5523 30.125 37C30.125 36.4477 29.6773 36 29.125 36V38ZM6.50409 34.452L7.39674 34.0012L7.39674 34.0012L6.50409 34.452ZM8.52529 36.4914L8.98252 35.602H8.98252L8.52529 36.4914ZM38.1622 9.50864L37.705 10.398V10.398L38.1622 9.50864ZM40.1834 11.548L39.2908 11.9988V11.9988L40.1834 11.548ZM8.52529 9.50864L8.06807 8.61929V8.61929L8.52529 9.50864ZM6.50409 11.548L5.61145 11.0973H5.61145L6.50409 11.548ZM15.25 26.6667C14.6977 26.6667 14.25 27.1144 14.25 27.6667C14.25 28.219 14.6977 28.6667 15.25 28.6667V26.6667ZM24.5 28.6667C25.0523 28.6667 25.5 28.219 25.5 27.6667C25.5 27.1144 25.0523 26.6667 24.5 26.6667V28.6667ZM15.25 17.3333C14.6977 17.3333 14.25 17.781 14.25 18.3333C14.25 18.8856 14.6977 19.3333 15.25 19.3333V17.3333ZM31.4375 19.3333C31.9898 19.3333 32.4375 18.8856 32.4375 18.3333C32.4375 17.781 31.9898 17.3333 31.4375 17.3333V19.3333ZM42.104 44.444C42.3492 44.9389 42.9492 45.1412 43.444 44.896C43.9389 44.6508 44.1412 44.0508 43.896 43.556L42.104 44.444ZM32.854 43.556C32.6088 44.0508 32.8111 44.6508 33.306 44.896C33.8008 45.1412 34.4008 44.9389 34.646 44.444L32.854 43.556ZM13.4 10H33.2875V8H13.4V10ZM7 29.5333V16.4667H5V29.5333H7ZM39.6875 16.4667V23H41.6875V16.4667H39.6875ZM29.125 36H13.4V38H29.125V36ZM5 29.5333C5 30.8238 4.99924 31.8512 5.06627 32.6791C5.13424 33.5184 5.27675 34.2399 5.61145 34.9027L7.39674 34.0012C7.22734 33.6657 7.11781 33.2347 7.05975 32.5177C7.00076 31.7892 7 30.8565 7 29.5333H5ZM13.4 36C12.0882 36 11.1651 35.9992 10.4445 35.9398C9.7358 35.8814 9.31194 35.7714 8.98252 35.602L8.06807 37.3807C8.72799 37.72 9.44637 37.8643 10.2801 37.933C11.102 38.0008 12.1215 38 13.4 38V36ZM5.61145 34.9027C6.14951 35.9682 7.00894 36.8362 8.06807 37.3807L8.98252 35.602C8.30115 35.2517 7.74551 34.6919 7.39674 34.0012L5.61145 34.9027ZM33.2875 10C34.5993 10 35.5224 10.0008 36.243 10.0602C36.9517 10.1186 37.3756 10.2286 37.705 10.398L38.6194 8.61929C37.9595 8.28001 37.2411 8.1357 36.4074 8.06696C35.5855 7.99921 34.566 8 33.2875 8V10ZM41.6875 16.4667C41.6875 15.1762 41.6883 14.1488 41.6212 13.3209C41.5533 12.4816 41.4107 11.7601 41.076 11.0973L39.2908 11.9988C39.4602 12.3343 39.5697 12.7653 39.6278 13.4823C39.6867 14.2108 39.6875 15.1435 39.6875 16.4667H41.6875ZM37.705 10.398C38.3864 10.7483 38.942 11.3081 39.2908 11.9988L41.076 11.0973C40.538 10.0318 39.6786 9.1638 38.6194 8.61929L37.705 10.398ZM13.4 8C12.1215 8 11.102 7.99921 10.2801 8.06696C9.44637 8.1357 8.72799 8.28001 8.06807 8.61929L8.98252 10.398C9.31194 10.2286 9.7358 10.1186 10.4445 10.0602C11.1651 10.0008 12.0882 10 13.4 10V8ZM7 16.4667C7 15.1435 7.00076 14.2108 7.05975 13.4823C7.11781 12.7653 7.22734 12.3343 7.39674 11.9988L5.61145 11.0973C5.27675 11.7601 5.13424 12.4816 5.06627 13.3209C4.99924 14.1488 5 15.1762 5 16.4667H7ZM8.06807 8.61929C7.00894 9.1638 6.14951 10.0318 5.61145 11.0973L7.39674 11.9988C7.74551 11.3081 8.30115 10.7483 8.98252 10.398L8.06807 8.61929ZM15.25 28.6667H24.5V26.6667H15.25V28.6667ZM15.25 19.3333H31.4375V17.3333H15.25V19.3333ZM42 32.3333C42 34.3669 40.3686 36 38.375 36V38C41.49 38 44 35.4545 44 32.3333H42ZM38.375 36C36.3814 36 34.75 34.3669 34.75 32.3333H32.75C32.75 35.4545 35.26 38 38.375 38V36ZM34.75 32.3333C34.75 30.2998 36.3814 28.6667 38.375 28.6667V26.6667C35.26 26.6667 32.75 29.2122 32.75 32.3333H34.75ZM38.375 28.6667C40.3686 28.6667 42 30.2998 42 32.3333H44C44 29.2122 41.49 26.6667 38.375 26.6667V28.6667ZM43 44C43.896 43.556 43.8958 43.5555 43.8955 43.5549C43.8954 43.5547 43.8951 43.5542 43.8949 43.5538C43.8945 43.553 43.8941 43.5522 43.8937 43.5514C43.8929 43.5497 43.8919 43.5478 43.8909 43.5459C43.8889 43.5419 43.8866 43.5374 43.884 43.5323C43.8787 43.5221 43.8721 43.5097 43.8642 43.4952C43.8484 43.4662 43.8272 43.4288 43.8004 43.3842C43.7468 43.295 43.6701 43.1766 43.5677 43.0389C43.3633 42.7639 43.0535 42.408 42.6164 42.0552C41.7294 41.3392 40.3548 40.6667 38.375 40.6667V42.6667C39.864 42.6667 40.8018 43.1608 41.3602 43.6115C41.6457 43.842 41.8418 44.0695 41.9626 44.232C42.0228 44.313 42.0635 44.3768 42.0867 44.4153C42.0982 44.4345 42.1053 44.4472 42.1081 44.4524C42.1095 44.455 42.1099 44.4557 42.1092 44.4543C42.1088 44.4536 42.1082 44.4525 42.1074 44.4507C42.1069 44.4499 42.1064 44.4489 42.1059 44.4478C42.1056 44.4472 42.1053 44.4466 42.105 44.446C42.1048 44.4457 42.1046 44.4452 42.1045 44.445C42.1042 44.4445 42.104 44.444 43 44ZM38.375 40.6667C36.3952 40.6667 35.0206 41.3392 34.1336 42.0552C33.6965 42.408 33.3867 42.7639 33.1823 43.0389C33.0799 43.1766 33.0032 43.295 32.9496 43.3842C32.9228 43.4288 32.9016 43.4662 32.8858 43.4952C32.8779 43.5097 32.8713 43.5221 32.866 43.5323C32.8634 43.5374 32.8611 43.5419 32.8591 43.5459C32.8581 43.5478 32.8571 43.5497 32.8563 43.5514C32.8559 43.5522 32.8555 43.553 32.8551 43.5538C32.8549 43.5542 32.8546 43.5547 32.8545 43.5549C32.8542 43.5555 32.854 43.556 33.75 44C34.646 44.444 34.6458 44.4445 34.6455 44.445C34.6454 44.4452 34.6452 44.4457 34.645 44.446C34.6447 44.4466 34.6444 44.4472 34.6441 44.4478C34.6436 44.4489 34.6431 44.4499 34.6426 44.4507C34.6418 44.4525 34.6412 44.4536 34.6408 44.4543C34.6401 44.4557 34.6405 44.455 34.6419 44.4524C34.6447 44.4472 34.6518 44.4345 34.6633 44.4153C34.6864 44.3768 34.7272 44.313 34.7874 44.232C34.9082 44.0695 35.1043 43.842 35.3898 43.6115C35.9482 43.1608 36.886 42.6667 38.375 42.6667V40.6667Z" fill="white"/>
</svg>
