<svg width="58" height="57" viewBox="0 0 58 57" fill="none" xmlns="http://www.w3.org/2000/svg">
<path fill-rule="evenodd" clip-rule="evenodd" d="M20.8413 16.445C20.8413 15.7963 21.3672 15.2704 22.016 15.2704L31.4131 15.2704C32.0619 15.2704 32.5878 15.7963 32.5878 16.445C32.5878 17.0938 32.0619 17.6197 31.4131 17.6197L22.016 17.6197C21.3672 17.6197 20.8413 17.0938 20.8413 16.445Z" fill="#1268B3"/>
<path fill-rule="evenodd" clip-rule="evenodd" d="M20.8413 35.2394C20.8413 34.5906 21.3672 34.0647 22.016 34.0647L29.0638 34.0647C29.7126 34.0647 30.2385 34.5906 30.2385 35.2394C30.2385 35.8881 29.7126 36.414 29.0638 36.414L22.016 36.414C21.3672 36.414 20.8413 35.8881 20.8413 35.2394Z" fill="#1268B3"/>
<path fill-rule="evenodd" clip-rule="evenodd" d="M20.8413 25.8422C20.8413 25.1934 21.3672 24.6675 22.016 24.6675L36.1117 24.6675C36.7604 24.6675 37.2863 25.1934 37.2863 25.8422C37.2863 26.4909 36.7604 27.0168 36.1117 27.0168L22.016 27.0168C21.3672 27.0168 20.8413 26.4909 20.8413 25.8422Z" fill="#1268B3"/>
<path fill-rule="evenodd" clip-rule="evenodd" d="M26.6253 50.5098L29.0638 50.5098C29.7125 50.5098 30.2384 49.9839 30.2384 49.3351C30.2384 48.6864 29.7125 48.1605 29.0638 48.1605H26.7145C23.3589 48.1605 20.9603 48.158 19.1376 47.9129C17.3486 47.6724 16.2911 47.2178 15.5136 46.4402C14.7361 45.6627 14.2815 44.6053 14.0409 42.8163C13.7959 40.9935 13.7934 38.595 13.7934 35.2394V21.1436C13.7934 17.788 13.7959 15.3895 14.0409 13.5667C14.2815 11.7777 14.7361 10.7203 15.5136 9.94276C16.2911 9.16525 17.3486 8.71061 19.1376 8.47009C20.9603 8.22503 23.3589 8.22253 26.7145 8.22253H31.4131C34.7687 8.22253 37.1672 8.22503 38.99 8.47009C40.779 8.71061 41.8364 9.16525 42.6139 9.94276C43.3914 10.7203 43.8461 11.7777 44.0866 13.5667C44.3317 15.3895 44.3342 17.788 44.3342 21.1436V25.8422C44.3342 26.4909 44.8601 27.0169 45.5088 27.0169C46.1575 27.0169 46.6835 26.4909 46.6835 25.8422V21.0545C46.6835 17.8077 46.6835 15.2511 46.4149 13.2537C46.1394 11.2042 45.5619 9.56833 44.2751 8.28156C42.9884 6.9948 41.3525 6.41729 39.303 6.14175C37.3056 5.8732 34.7491 5.87322 31.5023 5.87324H26.6252C23.3785 5.87322 20.822 5.8732 18.8245 6.14175C16.775 6.41729 15.1392 6.9948 13.8524 8.28156C12.5656 9.56833 11.9881 11.2042 11.7126 13.2537C11.4441 15.2511 11.4441 17.8077 11.4441 21.0544V35.3286C11.4441 38.5753 11.4441 41.1319 11.7126 43.1293C11.9881 45.1788 12.5656 46.8147 13.8524 48.1014C15.1392 49.3882 16.775 49.9657 18.8245 50.2413C20.822 50.5098 23.3785 50.5098 26.6253 50.5098Z" fill="#1268B3"/>
<path fill-rule="evenodd" clip-rule="evenodd" d="M41.9849 36.414C39.3899 36.414 37.2863 38.5176 37.2863 41.1126C37.2863 43.7076 39.3899 45.8112 41.9849 45.8112C44.5798 45.8112 46.6835 43.7076 46.6835 41.1126C46.6835 38.5176 44.5798 36.414 41.9849 36.414ZM34.937 41.1126C34.937 37.2202 38.0925 34.0647 41.9849 34.0647C45.8773 34.0647 49.0328 37.2202 49.0328 41.1126C49.0328 45.005 45.8773 48.1605 41.9849 48.1605C38.0925 48.1605 34.937 45.005 34.937 41.1126Z" fill="#1268B3"/>
<path fill-rule="evenodd" clip-rule="evenodd" d="M45.8528 44.9806C46.3116 44.5219 47.0553 44.5219 47.514 44.9806L51.038 48.5045C51.4967 48.9632 51.4967 49.707 51.038 50.1657C50.5792 50.6244 49.8355 50.6244 49.3768 50.1657L45.8528 46.6418C45.3941 46.1831 45.3941 45.4393 45.8528 44.9806Z" fill="#1268B3"/>
</svg>
