<svg width="40" height="40" viewBox="0 0 40 40" fill="none" xmlns="http://www.w3.org/2000/svg">
<path fill-rule="evenodd" clip-rule="evenodd" d="M17.8133 2.12021e-07H22.1867C26.0874 -1.5097e-05 29.1225 -2.68817e-05 31.4857 0.317696C33.8956 0.641698 35.7638 1.31337 37.2252 2.77478C38.6866 4.23619 39.3583 6.1044 39.6823 8.51429C40 10.8775 40 13.9125 40 17.8132V22.1868C40 26.0875 40 29.1225 39.6823 31.4857C39.3583 33.8956 38.6866 35.7638 37.2252 37.2252C35.7638 38.6866 33.8956 39.3583 31.4857 39.6823C29.1225 40 26.0875 40 22.1868 40H17.8132C13.9125 40 10.8775 40 8.51429 39.6823C6.1044 39.3583 4.23619 38.6866 2.77478 37.2252C1.31337 35.7638 0.641698 33.8956 0.317696 31.4857C-2.68817e-05 29.1225 -1.5097e-05 26.0874 2.12021e-07 22.1867V17.8133C-1.5097e-05 13.9126 -2.68817e-05 10.8775 0.317696 8.51429C0.641698 6.1044 1.31337 4.23619 2.77478 2.77478C4.23619 1.31337 6.1044 0.641698 8.51429 0.317696C10.8775 -2.68817e-05 13.9126 -1.5097e-05 17.8133 2.12021e-07ZM8.79481 2.40419C6.61837 2.6968 5.26848 3.25837 4.26342 4.26342C3.25837 5.26848 2.6968 6.61837 2.40419 8.79481C2.1075 11.0015 2.10526 13.8953 2.10526 17.8947V22.1053C2.10526 26.1047 2.1075 28.9985 2.40419 31.2052C2.6968 33.3816 3.25837 34.7315 4.26342 35.7366C5.26848 36.7416 6.61837 37.3032 8.79481 37.5958C11.0015 37.8925 13.8953 37.8947 17.8947 37.8947H22.1053C26.1047 37.8947 28.9985 37.8925 31.2052 37.5958C33.3816 37.3032 34.7315 36.7416 35.7366 35.7366C36.7416 34.7315 37.3032 33.3816 37.5958 31.2052C37.8925 28.9985 37.8947 26.1047 37.8947 22.1053V17.8947C37.8947 13.8953 37.8925 11.0015 37.5958 8.79481C37.3032 6.61837 36.7416 5.26848 35.7366 4.26342C34.7315 3.25837 33.3816 2.6968 31.2052 2.40419C28.9985 2.1075 26.1047 2.10526 22.1053 2.10526H17.8947C13.8953 2.10526 11.0015 2.1075 8.79481 2.40419Z" fill="#1268B3"/>
<path d="M32.6316 10.5263C32.6316 12.2704 31.2177 13.6842 29.4737 13.6842C27.7296 13.6842 26.3158 12.2704 26.3158 10.5263C26.3158 8.78226 27.7296 7.36842 29.4737 7.36842C31.2177 7.36842 32.6316 8.78226 32.6316 10.5263Z" fill="#1268B3"/>
<path fill-rule="evenodd" clip-rule="evenodd" d="M5.26316 23.5273V20.3206C5.92834 19.6014 6.73 18.788 7.59302 18.0265C8.73995 17.0145 10.0679 16.0284 11.3763 15.5165C12.6952 15.0004 14.2664 14.883 15.4812 16.0978L15.5341 16.1507L15.5789 16.2106C17.1413 18.2937 17.7589 20.8371 18.2349 22.7976C18.2878 23.0158 18.339 23.2267 18.3896 23.429C18.6578 24.5017 18.8902 25.2711 19.1921 25.7743C19.333 26.0091 19.461 26.1355 19.5685 26.2051C19.6651 26.2676 19.7925 26.3159 20 26.3159C20.4656 26.3159 20.8959 26.1315 21.393 25.7285C21.8428 25.3637 22.2635 24.8932 22.7684 24.3285C22.8541 24.2326 22.9422 24.134 23.0334 24.0327C24.2114 22.7238 25.8081 21.0527 28.421 21.0527C30.5147 21.0527 32.3461 22.3371 33.5502 23.4317C34.0164 23.8556 34.4174 24.2776 34.7368 24.6396V27.711C34.622 27.5916 34.4753 27.44 34.3213 27.2809C33.929 26.8755 33.4901 26.422 33.415 26.3319C33.1081 25.9636 32.668 25.4749 32.134 24.9895C31.0223 23.9788 29.6958 23.158 28.421 23.158C26.8235 23.158 25.7885 24.1185 24.5982 25.4411C24.5196 25.5284 24.4395 25.6182 24.3579 25.7097C23.8622 26.2658 23.312 26.8828 22.7189 27.3638C21.9988 27.9476 21.1133 28.4211 20 28.4211C19.418 28.4211 18.8875 28.272 18.4249 27.9726C17.9732 27.6804 17.6407 27.2805 17.3868 26.8574C16.8993 26.0448 16.6053 24.9721 16.3472 23.9396C16.2952 23.7317 16.2439 23.5221 16.1922 23.3114C15.7059 21.3279 15.1949 19.2443 13.9445 17.5408C13.5816 17.2131 13.0533 17.1209 12.1434 17.477C11.1821 17.8531 10.0758 18.6434 8.98591 19.6051C7.9122 20.5525 6.92441 21.603 6.20048 22.4234C5.83989 22.8321 5.54784 23.1802 5.34681 23.425L5.26316 23.5273Z" fill="#1268B3"/>
</svg>
