<svg width="50" height="50" viewBox="0 0 50 50" fill="none" xmlns="http://www.w3.org/2000/svg">
<path fill-rule="evenodd" clip-rule="evenodd" d="M18.6738 7.29166H31.3262C33.2256 7.29164 34.7566 7.29161 35.9608 7.4535C37.2109 7.62158 38.2635 7.98116 39.0995 8.81715C39.9355 9.65315 40.2951 10.7057 40.4632 11.9559C40.6251 13.16 40.625 14.691 40.625 16.5905V35.4929C40.625 37.3923 40.6251 38.9233 40.4632 40.1274C40.2951 41.3776 39.9355 42.4302 39.0995 43.2662C38.2635 44.1022 37.2109 44.4617 35.9608 44.6298C34.7567 44.7917 33.2257 44.7917 31.3263 44.7917H18.6738C16.7743 44.7917 15.2433 44.7917 14.0392 44.6298C12.7891 44.4617 11.7365 44.1022 10.9005 43.2662C10.0645 42.4302 9.70492 41.3776 9.53684 40.1274C9.37495 38.9233 9.37497 37.3923 9.375 35.4929V16.5905C9.37497 14.691 9.37495 13.16 9.53684 11.9559C9.70492 10.7057 10.0645 9.65315 10.9005 8.81715C11.7365 7.98116 12.7891 7.62158 14.0392 7.4535C15.2434 7.29161 16.7744 7.29164 18.6738 7.29166ZM14.3168 9.51826C13.2977 9.65528 12.758 9.9059 12.3736 10.2903C11.9892 10.6747 11.7386 11.2144 11.6016 12.2335C11.4605 13.2826 11.4583 14.673 11.4583 16.6667V35.4167C11.4583 37.4103 11.4605 38.8007 11.6016 39.8498C11.7386 40.869 11.9892 41.4086 12.3736 41.793C12.758 42.1774 13.2977 42.4281 14.3168 42.5651C15.3659 42.7061 16.7564 42.7083 18.75 42.7083H31.25C33.2436 42.7083 34.6341 42.7061 35.6832 42.5651C36.7023 42.4281 37.242 42.1774 37.6264 41.793C38.0108 41.4086 38.2614 40.869 38.3984 39.8498C38.5395 38.8007 38.5417 37.4103 38.5417 35.4167V16.6667C38.5417 14.673 38.5395 13.2826 38.3984 12.2335C38.2614 11.2144 38.0108 10.6747 37.6264 10.2903C37.242 9.9059 36.7023 9.65528 35.6832 9.51826C34.6341 9.37721 33.2436 9.375 31.25 9.375H18.75C16.7564 9.375 15.3659 9.37721 14.3168 9.51826Z" fill="#1268B3"/>
<path fill-rule="evenodd" clip-rule="evenodd" d="M17.7085 18.75C17.7085 18.1747 18.1749 17.7083 18.7502 17.7083H31.2502C31.8255 17.7083 32.2918 18.1747 32.2918 18.75C32.2918 19.3253 31.8255 19.7917 31.2502 19.7917H18.7502C18.1749 19.7917 17.7085 19.3253 17.7085 18.75Z" fill="#1268B3"/>
<path fill-rule="evenodd" clip-rule="evenodd" d="M17.7085 27.0833C17.7085 26.508 18.1749 26.0417 18.7502 26.0417H31.2502C31.8255 26.0417 32.2918 26.508 32.2918 27.0833C32.2918 27.6586 31.8255 28.125 31.2502 28.125H18.7502C18.1749 28.125 17.7085 27.6586 17.7085 27.0833Z" fill="#1268B3"/>
<path fill-rule="evenodd" clip-rule="evenodd" d="M17.7085 35.4167C17.7085 34.8414 18.1749 34.375 18.7502 34.375H27.0835C27.6588 34.375 28.1252 34.8414 28.1252 35.4167C28.1252 35.992 27.6588 36.4583 27.0835 36.4583H18.7502C18.1749 36.4583 17.7085 35.992 17.7085 35.4167Z" fill="#1268B3"/>
</svg>
