<svg width="50" height="50" viewBox="0 0 50 50" fill="none" xmlns="http://www.w3.org/2000/svg">
<path fill-rule="evenodd" clip-rule="evenodd" d="M14.3345 35.0136C17.4177 33.2392 21.1662 32.2917 25.0001 32.2917C28.834 32.2917 32.5825 33.2392 35.6657 35.0136C38.7483 36.7876 41.0317 39.3141 42.0798 42.2476C42.2733 42.7894 41.9911 43.3855 41.4493 43.579C40.9076 43.7726 40.3115 43.4903 40.1179 42.9486C39.2668 40.5663 37.3654 38.3955 34.6265 36.8193C31.8882 35.2434 28.504 34.375 25.0001 34.375C21.4962 34.375 18.1119 35.2434 15.3736 36.8193C12.6347 38.3955 10.7334 40.5663 9.88227 42.9486C9.68872 43.4903 9.09263 43.7726 8.55087 43.579C8.00911 43.3855 7.72683 42.7894 7.92038 42.2476C8.96844 39.3141 11.2519 36.7876 14.3345 35.0136Z" fill="white"/>
<path fill-rule="evenodd" clip-rule="evenodd" d="M25 9.375C20.9729 9.375 17.7083 12.6396 17.7083 16.6667C17.7083 20.6937 20.9729 23.9583 25 23.9583C29.0271 23.9583 32.2917 20.6937 32.2917 16.6667C32.2917 12.6396 29.0271 9.375 25 9.375ZM15.625 16.6667C15.625 11.489 19.8223 7.29167 25 7.29167C30.1777 7.29167 34.375 11.489 34.375 16.6667C34.375 21.8443 30.1777 26.0417 25 26.0417C19.8223 26.0417 15.625 21.8443 15.625 16.6667Z" fill="white"/>
</svg>
