<svg width="50" height="50" viewBox="0 0 50 50" fill="none" xmlns="http://www.w3.org/2000/svg">
<path fill-rule="evenodd" clip-rule="evenodd" d="M13.8461 18.0135C14.2529 17.6067 14.9125 17.6067 15.3193 18.0135L23.9577 26.6519L23.9577 10.4167C23.9577 9.8414 24.4241 9.37503 24.9994 9.37503C25.5746 9.37503 26.041 9.8414 26.041 10.4167L26.041 26.6519L34.6794 18.0135C35.0862 17.6067 35.7458 17.6067 36.1526 18.0135C36.5594 18.4203 36.5594 19.0798 36.1526 19.4866L24.9993 30.6398L13.8461 19.4866C13.4393 19.0798 13.4393 18.4203 13.8461 18.0135Z" fill="white"/>
<path fill-rule="evenodd" clip-rule="evenodd" d="M10.4167 32.2917C10.992 32.2917 11.4583 32.7581 11.4583 33.3334V35.4167C11.4583 37.1426 12.8574 38.5417 14.5833 38.5417L35.4167 38.5417C37.1426 38.5417 38.5417 37.1426 38.5417 35.4167V33.3334C38.5417 32.7581 39.008 32.2917 39.5833 32.2917C40.1586 32.2917 40.625 32.7581 40.625 33.3334V35.4167C40.625 38.2932 38.2931 40.625 35.4167 40.625L14.5833 40.625C11.7069 40.625 9.375 38.2932 9.375 35.4167V33.3334C9.375 32.7581 9.84137 32.2917 10.4167 32.2917Z" fill="white"/>
</svg>
