<svg width="50" height="50" viewBox="0 0 50 50" fill="none" xmlns="http://www.w3.org/2000/svg">
<path fill-rule="evenodd" clip-rule="evenodd" d="M5.20837 43.75C5.20837 43.1747 5.67474 42.7083 6.25004 42.7083H43.75C44.3253 42.7083 44.7917 43.1747 44.7917 43.75C44.7917 44.3253 44.3253 44.7917 43.75 44.7917H6.25004C5.67474 44.7917 5.20837 44.3253 5.20837 43.75Z" fill="#1268B3"/>
<path fill-rule="evenodd" clip-rule="evenodd" d="M8.33329 28.125C8.90859 28.125 9.37496 28.5914 9.37496 29.1667V33.3333C9.37496 33.9086 8.90859 34.375 8.33329 34.375C7.758 34.375 7.29163 33.9086 7.29163 33.3333V29.1667C7.29163 28.5914 7.758 28.125 8.33329 28.125Z" fill="#1268B3"/>
<path fill-rule="evenodd" clip-rule="evenodd" d="M25 17.7083C25.5753 17.7083 26.0417 18.1747 26.0417 18.75V25C26.0417 25.5753 25.5753 26.0417 25 26.0417C24.4247 26.0417 23.9584 25.5753 23.9584 25V18.75C23.9584 18.1747 24.4247 17.7083 25 17.7083Z" fill="#1268B3"/>
<path fill-rule="evenodd" clip-rule="evenodd" d="M16.6667 19.7917C17.242 19.7917 17.7083 20.258 17.7083 20.8333V33.3333C17.7083 33.9086 17.242 34.375 16.6667 34.375C16.0914 34.375 15.625 33.9086 15.625 33.3333V20.8333C15.625 20.258 16.0914 19.7917 16.6667 19.7917Z" fill="#1268B3"/>
<path fill-rule="evenodd" clip-rule="evenodd" d="M33.3333 21.875C33.9086 21.875 34.375 22.3414 34.375 22.9167V27.0833C34.375 27.6586 33.9086 28.125 33.3333 28.125C32.758 28.125 32.2916 27.6586 32.2916 27.0833V22.9167C32.2916 22.3414 32.758 21.875 33.3333 21.875Z" fill="#1268B3"/>
<path fill-rule="evenodd" clip-rule="evenodd" d="M41.6667 9.375C42.242 9.375 42.7083 9.84137 42.7083 10.4167V31.25C42.7083 31.8253 42.242 32.2917 41.6667 32.2917C41.0914 32.2917 40.625 31.8253 40.625 31.25V10.4167C40.625 9.84137 41.0914 9.375 41.6667 9.375Z" fill="#1268B3"/>
</svg>
