<svg width="50" height="50" viewBox="0 0 50 50" fill="none" xmlns="http://www.w3.org/2000/svg">
<g clip-path="url(#clip0_306_1539)">
<path d="M46.8492 2H3.1508C2.57726 2.00908 2.03022 2.24632 1.62782 2.66051C1.22542 3.07471 0.99993 3.63269 1 4.21389V5.70128C1 6.27925 1.22676 6.83351 1.63011 7.2422C2.03346 7.65089 2.58038 7.88055 3.1508 7.88055V35C3.15073 35.5812 3.37622 36.1391 3.77862 36.5533C4.18102 36.9675 4.72806 37.2047 5.3016 37.2138H24.1466L16.8749 44.5817C16.7942 44.6563 16.7296 44.7471 16.6855 44.8484C16.6414 44.9497 16.6186 45.0592 16.6186 45.1698C16.6186 45.2805 16.6414 45.39 16.6855 45.4913C16.7296 45.5925 16.7942 45.6833 16.8749 45.7578C16.9487 45.8382 17.0387 45.9015 17.1389 45.9433C17.2391 45.9851 17.347 46.0044 17.4552 46C17.6473 45.9603 17.8178 45.8493 17.9332 45.6887L24.7611 38.7705L31.589 45.6887C31.6641 45.7673 31.7544 45.8294 31.8542 45.8711C31.9541 45.9128 32.0613 45.9331 32.1693 45.9309C32.2773 45.9331 32.3845 45.9128 32.4843 45.8711C32.5842 45.8294 32.6747 45.7673 32.7498 45.6887C32.8306 45.6141 32.8949 45.5233 32.939 45.422C32.9831 45.3208 33.0061 45.2113 33.0061 45.1006C33.0061 44.9899 32.9831 44.8805 32.939 44.7793C32.8949 44.678 32.8306 44.5872 32.7498 44.5126L25.4781 37.1447H44.3229C44.8964 37.1356 45.4435 36.8983 45.8459 36.4841C46.2483 36.07 46.4738 35.5121 46.4737 34.9309V7.8113C47.0441 7.8113 47.5913 7.58174 47.9946 7.17306C48.3979 6.76437 48.6245 6.21011 48.6245 5.63214V4.17926C48.6256 3.66334 48.4488 3.16323 48.1246 2.76534C47.8005 2.36744 47.3493 2.09673 46.8492 2ZM45.1764 35C45.1764 35.1376 45.1226 35.2696 45.0266 35.3669C44.9305 35.4642 44.8002 35.5189 44.6644 35.5189H5.33577C5.19996 35.5189 5.06966 35.4642 4.97362 35.3669C4.87759 35.2696 4.8236 35.1376 4.8236 35V7.88055H45.2447L45.1764 35ZM47.3272 5.70128C47.3275 5.83311 47.2782 5.96014 47.1895 6.05651C47.1007 6.15288 46.979 6.21134 46.8492 6.22013H3.1508C3.02099 6.21134 2.8993 6.15288 2.81053 6.05651C2.72176 5.96014 2.67272 5.83311 2.67301 5.70128V4.17926C2.66831 4.11282 2.67714 4.04614 2.69905 3.98334C2.72096 3.92053 2.75546 3.86292 2.80032 3.81422C2.84518 3.76552 2.89939 3.72679 2.95972 3.70032C3.02005 3.67385 3.08505 3.66025 3.1508 3.66042H46.8492C46.9149 3.66025 46.9801 3.67385 47.0405 3.70032C47.1008 3.72679 47.155 3.76552 47.1999 3.81422C47.2447 3.86292 47.2792 3.92053 47.3011 3.98334C47.3231 4.04614 47.3319 4.11282 47.3272 4.17926V5.70128Z" fill="#1268B3"/>
<path d="M12.2997 28.3931H19.8788C20.2061 28.3931 20.5301 28.3277 20.8325 28.2008C21.1349 28.0739 21.4095 27.888 21.641 27.6535C21.8724 27.419 22.056 27.1406 22.1813 26.8342C22.3065 26.5278 22.3709 26.1995 22.3709 25.8679V15.8364C22.3709 15.1635 22.1095 14.5177 21.643 14.0386C21.1766 13.5595 20.5429 13.2858 19.8788 13.2767H12.2997C11.6297 13.2767 10.9871 13.5464 10.5134 14.0264C10.0396 14.5065 9.77344 15.1576 9.77344 15.8364V25.8679C9.78241 26.5407 10.0526 27.183 10.5254 27.6556C10.9983 28.1282 11.6356 28.3931 12.2997 28.3931ZM11.4462 15.8364C11.4462 15.6071 11.5362 15.3872 11.6963 15.225C11.8563 15.0628 12.0734 14.9717 12.2997 14.9717H19.8788C20.1051 14.9717 20.3222 15.0628 20.4822 15.225C20.6423 15.3872 20.7323 15.6071 20.7323 15.8364V25.8679C20.7323 26.0972 20.6423 26.3172 20.4822 26.4794C20.3222 26.6416 20.1051 26.7327 19.8788 26.7327H12.2997C12.0734 26.7327 11.8563 26.6416 11.6963 26.4794C11.5362 26.3172 11.4462 26.0972 11.4462 25.8679V15.8364Z" fill="#1268B3"/>
<path d="M27.1855 14.7987H35.6862C35.9066 14.7898 36.115 14.6948 36.2678 14.5336C36.4205 14.3723 36.5057 14.1574 36.5055 13.934C36.5055 13.7138 36.4191 13.5026 36.2655 13.3469C36.1118 13.1912 35.9035 13.1037 35.6862 13.1037H27.1855C26.965 13.1035 26.7529 13.1899 26.5937 13.3447C26.4346 13.4995 26.3409 13.7107 26.332 13.934C26.332 14.1633 26.4218 14.3832 26.5819 14.5454C26.7419 14.7076 26.9592 14.7987 27.1855 14.7987Z" fill="#1268B3"/>
<path d="M27.1855 19.3302H40.3633C40.5838 19.3304 40.7959 19.244 40.955 19.0892C41.1142 18.9344 41.2079 18.7234 41.2168 18.5001C41.2079 18.2768 41.1142 18.0656 40.955 17.9108C40.7959 17.756 40.5838 17.6696 40.3633 17.6698H27.1855C26.965 17.6696 26.7529 17.756 26.5937 17.9108C26.4346 18.0656 26.3409 18.2768 26.332 18.5001C26.3409 18.7234 26.4346 18.9344 26.5937 19.0892C26.7529 19.244 26.965 19.3304 27.1855 19.3302Z" fill="#1268B3"/>
<path d="M27.1855 23.8963H33.5696C33.7869 23.8963 33.9952 23.8087 34.1488 23.6531C34.3025 23.4974 34.3889 23.2862 34.3889 23.066C34.3891 22.8425 34.3039 22.6277 34.1511 22.4665C33.9984 22.3053 33.79 22.2102 33.5696 22.2012H27.1855C26.9592 22.2012 26.7419 22.2924 26.5819 22.4546C26.4218 22.6168 26.332 22.8367 26.332 23.066C26.3409 23.2893 26.4346 23.5005 26.5937 23.6553C26.7529 23.81 26.965 23.8965 27.1855 23.8963Z" fill="#1268B3"/>
<path d="M27.1855 28.3931H40.3633C40.5896 28.3931 40.8067 28.302 40.9667 28.1398C41.1268 27.9776 41.2168 27.7576 41.2168 27.5283C41.2079 27.305 41.1142 27.0938 40.955 26.939C40.7959 26.7842 40.5838 26.6979 40.3633 26.6981H27.1855C26.965 26.6979 26.7529 26.7842 26.5937 26.939C26.4346 27.0938 26.3409 27.305 26.332 27.5283C26.332 27.7576 26.4218 27.9776 26.5819 28.1398C26.7419 28.302 26.9592 28.3931 27.1855 28.3931Z" fill="#1268B3"/>
</g>
<defs>
<clipPath id="clip0_306_1539">
<rect width="48" height="44" fill="white" transform="translate(1 2)"/>
</clipPath>
</defs>
</svg>
