<svg width="48" height="48" viewBox="0 0 48 48" fill="none" xmlns="http://www.w3.org/2000/svg">
<path d="M24 42C21.6362 42 19.2956 41.5344 17.1117 40.6298C14.9278 39.7252 12.9435 38.3994 11.2721 36.7279C9.60062 35.0565 8.27475 33.0722 7.37017 30.8883C6.46558 28.7044 6 26.3638 6 24C6 21.6362 6.46558 19.2956 7.37017 17.1117C8.27475 14.9278 9.60063 12.9435 11.2721 11.2721C12.9435 9.60062 14.9278 8.27475 17.1117 7.37017C19.2956 6.46558 21.6362 6 24 6C26.3638 6 28.7044 6.46558 30.8883 7.37017C33.0722 8.27476 35.0565 9.60063 36.7279 11.2721C38.3994 12.9435 39.7252 14.9278 40.6298 17.1117C41.5344 19.2956 42 21.6362 42 24C42 26.3638 41.5344 28.7044 40.6298 30.8883C39.7252 33.0722 38.3994 35.0565 36.7279 36.7279C35.0565 38.3994 33.0722 39.7252 30.8883 40.6298C28.7044 41.5344 26.3638 42 24 42L24 42Z" stroke="white" stroke-width="2" stroke-linecap="round"/>
<path d="M18 18L30 30" stroke="white" stroke-width="2" stroke-linecap="round"/>
<path d="M30 18L18 30" stroke="white" stroke-width="2" stroke-linecap="round"/>
</svg>
