<svg width="22" height="24" viewBox="0 0 22 24" fill="none" xmlns="http://www.w3.org/2000/svg">
      <path d="M21.9999 23.9875C21.7996 20.5696 21.4742 17.1894 21.2989 16.5884C20.9984 15.5368 17.4678 13.759 16.3786 13.1956L16.1408 13.0203L15.8778 16.4257L15.3145 15.9625L14.4882 22.6354L13.5868 16.0501L14.05 15.1236L13.2613 14.3724L15.014 12.1815V12.144C14.9515 12.0814 14.8888 12.0313 14.8388 11.9937C14.9514 11.0673 15.3145 10.2034 15.327 10.0282C15.327 10.0156 15.7652 9.72769 15.9154 9.2895C16.0031 9.01407 16.1908 8.51329 16.1908 8.51329C16.1908 8.51329 16.3036 8.50076 16.4162 8.30044C16.5289 8.11265 17.1674 6.49763 16.8795 6.23472C16.7918 6.15961 16.6666 6.10953 16.5915 6.08449C16.6917 6.07197 16.8794 5.84662 16.9921 4.63222C17.0422 4.13144 17.0421 2.41627 16.5038 1.64006C16.1658 1.1518 15.64 0.625979 15.2894 0.625979C14.9389 0.625979 14.4756 0.550826 14.4756 0.550826C14.2753 0.350513 14.05 0 13.3864 0C12.7229 0 11.3584 0.312986 10.3568 0.701093C9.34272 1.0892 8.76671 1.51485 8.52884 2.21595C8.29097 2.91705 7.9781 5.17055 8.17841 5.48354C8.41628 5.85913 8.39117 5.87168 8.41621 5.9468C8.41621 5.9468 8.10323 6.29734 8.26598 6.76056C8.41622 7.22379 8.86697 8.61346 9.25508 8.48827C9.35523 8.8263 9.61813 9.77778 9.55553 10.9045L9.45528 11.3928L12.4851 14.3099L11.6088 15.0986L12.3348 16.0501V22.748C11.9843 20.9077 10.9076 17.7402 10.4193 15.8748C10.3818 15.7496 9.63068 16.4131 9.5806 16.2879C9.50548 16.0375 8.15335 12.507 8.15335 12.507C8.15335 12.507 2.94514 13.9718 1.98113 15.1612C1.28003 16.025 0.816896 19.9061 0.503906 24H21.9999V23.9875Z" fill="#0059A7"/>
      <path d="M7.53963 12.8701L8.11548 13.0204L8.19067 12.5947L9.50514 11.5305L11.308 13.1956L13.5364 13.3334L14.9137 12.0814L16.3408 13.3334L16.5035 13.7465L16.7666 13.6714L16.8165 13.4335L14.7884 11.6557L14.4129 11.6307C14.4129 11.6307 9.86818 11.0297 9.48007 11.2801C9.09197 11.543 7.5271 12.8701 7.5271 12.8701H7.53963Z" fill="#0059A7"/>
      </svg>