<svg width="24" height="24" viewBox="0 0 24 24" fill="none" xmlns="http://www.w3.org/2000/svg">
  <path d="M24 12C24 18.6274 18.6274 24 12 24C5.37258 24 0 18.6274 0 12C0 5.37258 5.37258 0 12 0C18.6274 0 24 5.37258 24 12ZM4.08881 12C4.08881 16.3692 7.63077 19.9112 12 19.9112C16.3692 19.9112 19.9112 16.3692 19.9112 12C19.9112 7.63077 16.3692 4.08881 12 4.08881C7.63077 4.08881 4.08881 7.63077 4.08881 12Z" fill="#CECECE"/>
  <path d="M12 2C12 0.895432 12.9015 -0.0169651 13.9908 0.166283C15.2261 0.374101 16.4254 0.774759 17.5436 1.35725C19.2555 2.24891 20.7269 3.54034 21.8332 5.12197C22.9395 6.70359 23.648 8.52874 23.8985 10.4425C24.149 12.3564 23.9342 14.3024 23.2722 16.1154C22.6103 17.9285 21.5208 19.5552 20.0961 20.8574C18.6714 22.1596 16.9537 23.0989 15.0886 23.5957C13.2234 24.0925 11.266 24.1321 9.38236 23.711C8.15185 23.436 6.97653 22.9697 5.89791 22.3327C4.94682 21.771 4.84523 20.4924 5.55692 19.6477L5.61414 19.5797C6.32582 18.735 7.58219 18.6551 8.57808 19.1328C9.11742 19.3916 9.68629 19.5892 10.2743 19.7207C11.5161 19.9982 12.8066 19.9722 14.0362 19.6447C15.2658 19.3172 16.3982 18.6979 17.3375 17.8394C18.2767 16.9809 18.995 15.9085 19.4314 14.7132C19.8678 13.5179 20.0094 12.2349 19.8443 10.9732C19.6791 9.71152 19.2121 8.50826 18.4827 7.46555C17.7534 6.42283 16.7833 5.57144 15.6547 4.9836C15.1204 4.70526 14.558 4.4899 13.9788 4.34028C12.9093 4.064 12 3.19338 12 2.08881V2Z" fill="#0059A7"/>
  </svg>