<svg width="22" height="24" viewBox="0 0 22 24" fill="none" xmlns="http://www.w3.org/2000/svg">
   <path d="M18.8111 14.4075C19.3001 14.4828 16.8675 13.2414 16.253 13.0408C17.1684 12.5267 17.9458 11.6238 17.996 9.86836C16.1778 11.6113 15.5384 8.58938 15.2123 4.32606C15.0117 1.79314 13.2938 0.714771 12.065 0.326056C11.0995 -0.0626582 9.98342 -0.0501221 9.33139 0.0878089C7.96462 0.37621 6.19659 1.02823 5.88311 3.3229C5.65741 4.35111 5.65742 5.59248 5.58218 6.16928C4.99284 10.8213 4.1904 11.1599 3.30012 10.3323C3.30012 10.9969 3.36283 11.7116 4.56659 12.6521C4.88007 12.9028 5.25625 13.0157 5.67004 13.0533C4.60421 13.5423 3.3126 14.6332 2.92388 14.6332C2.27185 14.6332 1.53215 14.9342 1.31898 16.627C1.21867 17.4671 0.742151 20.6019 0.503906 24H21.2938C20.8299 19.4608 20.2029 15.1473 20.0776 14.9593C19.6387 14.3072 18.7484 14.395 18.8111 14.4075ZM6.67309 16.2006L5.7201 16.2383L6.46002 15.2351C6.46002 15.2351 6.19665 14.9592 5.00543 15.5737C5.36907 15.0846 6.34717 12.953 6.46002 12.6144C7.43807 11.7869 7.55091 11.4985 8.01486 10.8213C8.01486 10.8213 7.438 12.4138 7.32515 13.3919C7.19976 14.3699 9.13084 20.8276 8.94275 21.3417C8.81736 19.9875 6.67309 16.2132 6.67309 16.2132V16.2006ZM13.7829 15.3856C12.7296 14.7712 12.1402 15.1975 12.1402 15.1975L12.8424 16.2508C12.8424 16.2508 11.576 16.0126 10.8236 17.3668C9.60733 19.5486 8.94275 21.3166 8.94275 21.3166C8.94275 21.3166 10.3096 16.9154 11.0117 15.5612C11.9146 13.8433 12.7295 12.5893 12.6417 11.9373C12.554 11.2853 12.2657 10.4577 12.2657 10.4577C12.2657 10.4577 13.4067 12.1756 14.3847 12.6646C13.8079 12.9154 13.4819 13.4169 13.7703 15.3856H13.7829Z" fill="#E73B8E"/>
   </svg>