<svg width="118" height="55" viewBox="0 0 118 55" fill="none" xmlns="http://www.w3.org/2000/svg">
<path fill-rule="evenodd" clip-rule="evenodd" d="M77.7079 22.2723C77.0872 21.4921 76.3619 20.8012 75.5524 20.2191C75.5524 20.2191 75.4904 20.1545 75.45 20.1221C75.4904 20.0898 75.5524 20.0251 75.5524 20.0251C76.3624 19.4437 77.0879 18.7528 77.7079 17.972C78.4182 17.1295 78.9334 16.1404 79.2168 15.0755C79.0935 15.0475 78.9683 15.0286 78.8423 15.0189L78.8962 14.612C78.7266 14.5856 78.5557 14.5685 78.3842 14.5608V14.1675C78.3842 14.1675 78.0151 14.1244 77.8292 14.1244V13.6501C77.4879 13.4722 77.1569 13.2752 76.8376 13.0601L76.8834 13.0089C76.7995 12.9058 76.7095 12.8077 76.614 12.7152C76.687 12.2882 76.7897 11.8669 76.9212 11.4542L76.5844 11.1174C76.7191 10.9881 76.9508 10.6944 76.9508 10.6944L76.6814 10.4249C76.8269 10.2579 76.9077 10.1555 77.0074 10.0262L76.6814 9.77826C76.7631 9.68222 76.8378 9.58047 76.905 9.47379C75.9521 8.91994 74.8884 8.58407 73.7903 8.49034C72.8041 8.37651 71.807 8.39736 70.8264 8.55231C70.7788 8.54953 70.7312 8.54953 70.6836 8.55231C70.6836 8.50112 70.6836 8.40951 70.6836 8.40951C70.8408 7.42918 70.8625 6.4319 70.7483 5.44565C70.6545 4.34751 70.3187 3.28377 69.7648 2.33091C69.6577 2.39742 69.5559 2.47219 69.4603 2.55454L69.2125 2.22852C69.0738 2.32995 68.9407 2.43878 68.8137 2.55454L68.5442 2.2851C68.5442 2.2851 68.2506 2.51682 68.1212 2.64885L67.779 2.29858C67.4125 2.41585 67.0391 2.51033 66.6608 2.58149V2.51683C66.5286 2.50029 66.3952 2.49488 66.2621 2.50066C66.0129 2.14612 65.7879 1.77525 65.5885 1.39055H65.0846C65.0846 1.20464 65.0442 0.832817 65.0442 0.832817H64.6508C64.6424 0.661301 64.6244 0.490383 64.5969 0.320872L64.1928 0.374763C64.183 0.248713 64.1641 0.123544 64.1362 0.000244141C63.0719 0.283812 62.083 0.798021 61.2397 1.50642C60.4599 2.12845 59.7683 2.8536 59.1839 3.66195C59.1839 3.66195 59.1219 3.72661 59.0895 3.76703C59.0572 3.72661 58.9925 3.66195 58.9925 3.66195C58.4091 2.85367 57.7184 2.12852 56.9394 1.50642C56.0957 0.798535 55.107 0.284388 54.0429 0.000244141C54.014 0.123471 53.9942 0.248642 53.9836 0.374763L53.5795 0.320872C53.5517 0.490276 53.5346 0.661267 53.5283 0.832817H53.1403C53.1403 0.832817 53.0972 1.20464 53.0999 1.39055H52.623C52.4245 1.77581 52.1994 2.14676 51.9494 2.50066C51.8162 2.49495 51.6828 2.50035 51.5506 2.51683V2.58149C51.1732 2.51058 50.8006 2.41609 50.4351 2.29858L50.0983 2.63538C49.9663 2.50335 49.6753 2.27163 49.6753 2.27163L49.4058 2.54107C49.278 2.42523 49.144 2.3164 49.0044 2.21505L48.7592 2.54107C48.6627 2.45871 48.56 2.38394 48.452 2.31743C47.901 3.2706 47.5654 4.3328 47.4685 5.42949C47.3572 6.41587 47.3789 7.41275 47.5332 8.39334C47.5304 8.4409 47.5304 8.48858 47.5332 8.53614C47.4857 8.53286 47.4379 8.53286 47.3904 8.53614C46.4101 8.37923 45.4128 8.35746 44.4265 8.47147C43.3286 8.566 42.265 8.90182 41.3118 9.45494C41.38 9.56162 41.4556 9.66337 41.5381 9.75941L41.2121 10.0073C41.3134 10.1461 41.4222 10.2792 41.5381 10.4061L41.2687 10.6755C41.2687 10.6755 41.5004 10.9665 41.6324 11.0985L41.2956 11.4353C41.4265 11.8484 41.5301 12.2696 41.6055 12.6963C41.5086 12.7874 41.4185 12.8856 41.3361 12.99L41.3792 13.0412C41.061 13.2557 40.7309 13.4518 40.3903 13.6286V14.1055C40.2017 14.1055 39.8326 14.1459 39.8326 14.1459V14.5716C39.6602 14.5794 39.4884 14.5965 39.3179 14.6228L39.3745 15.0297C39.2485 15.0392 39.1233 15.0581 39 15.0863C39.2825 16.151 39.7968 17.14 40.5062 17.9828C41.1276 18.7624 41.8528 19.4532 42.6617 20.0359C42.6947 20.0704 42.7298 20.1028 42.7668 20.1329C42.7298 20.163 42.6947 20.1954 42.6617 20.2299C41.8534 20.8134 41.1283 21.5041 40.5062 22.283C39.7968 23.1258 39.2825 24.1148 39 25.1795C39.1233 25.2077 39.2485 25.2266 39.3745 25.2361L39.3179 25.643C39.4884 25.6693 39.6602 25.6864 39.8326 25.6942V26.0902C39.8326 26.0902 40.2017 26.1307 40.3903 26.1307V26.6076C40.732 26.7834 41.0622 26.9804 41.3792 27.1976L41.3361 27.2462C41.4178 27.3511 41.5079 27.4493 41.6055 27.5398C41.5304 27.9666 41.4269 28.3879 41.2956 28.8008L41.6109 29.1215C41.4789 29.2535 41.2471 29.5445 41.2471 29.5445L41.5166 29.8139C41.4007 29.9408 41.2918 30.0739 41.1906 30.2127L41.5166 30.4606C41.4341 30.5566 41.3584 30.6584 41.2903 30.7651C42.2434 31.3182 43.307 31.654 44.405 31.7485C45.3913 31.8625 46.3885 31.8408 47.3688 31.6839C47.4155 31.6872 47.4623 31.6872 47.509 31.6839C47.509 31.735 47.509 31.8267 47.509 31.8267C47.3543 32.8072 47.3326 33.8041 47.4443 34.7905C47.5393 35.8884 47.8751 36.9519 48.4278 37.9053C48.5364 37.8397 48.6391 37.7648 48.7349 37.6816L48.9801 38.0076C49.1197 37.9063 49.2537 37.7975 49.3816 37.6816L49.651 37.9511C49.651 37.9511 49.942 37.7193 50.074 37.5873L50.4108 37.9241C50.7764 37.8066 51.149 37.7121 51.5263 37.6412V37.7086C51.6587 37.7228 51.792 37.7273 51.9251 37.722C52.1752 38.0759 52.4003 38.4469 52.5987 38.8321H53.0756C53.0756 39.018 53.116 39.3899 53.116 39.3899H53.5121C53.5184 39.5614 53.5355 39.7324 53.5633 39.9018L53.9675 39.8479C53.9781 39.974 53.9979 40.0992 54.0267 40.2225C55.0912 39.9394 56.0802 39.4251 56.9232 38.7163C57.7022 38.0942 58.3929 37.369 58.9764 36.5607C58.9764 36.5607 59.041 36.4961 59.0734 36.4557C59.1028 36.4924 59.1343 36.5275 59.1677 36.5607C59.7519 37.3684 60.4425 38.0935 61.2208 38.7163C62.0649 39.4252 63.0547 39.9394 64.12 40.2225C64.148 40.0992 64.1669 39.974 64.1766 39.8479L64.5808 39.9018C64.6082 39.7323 64.6262 39.5614 64.6346 39.3899H65.028C65.028 39.3899 65.0711 39.018 65.0684 38.8321H65.5454C65.7438 38.4469 65.9689 38.0759 66.219 37.722C66.352 37.7272 66.4853 37.7227 66.6177 37.7086V37.6412C66.9959 37.7124 67.3694 37.8069 67.7359 37.9241L68.0727 37.5873C68.2021 37.7193 68.4957 37.9511 68.4957 37.9511L68.7652 37.6816C68.8915 37.7982 69.0246 37.907 69.164 38.0076L69.4091 37.6816C69.5054 37.7642 69.6081 37.839 69.7163 37.9053C70.2822 36.9595 70.6327 35.9006 70.7429 34.804C70.8569 33.8177 70.8351 32.8205 70.6782 31.8401C70.6782 31.8401 70.6782 31.7485 70.6782 31.6973C70.7258 31.7006 70.7735 31.7006 70.821 31.6973C71.8013 31.8545 72.7986 31.8763 73.7849 31.762C74.8829 31.6678 75.9466 31.332 76.8996 30.7785C76.8309 30.6698 76.7543 30.5663 76.6706 30.4687L76.9966 30.2208C76.8969 30.0834 76.8161 29.9891 76.6706 29.822L76.94 29.5526C76.94 29.5526 76.7083 29.2616 76.5736 29.1295L76.9104 28.7927C76.7786 28.3801 76.676 27.9588 76.6032 27.5318C76.6994 27.4399 76.7894 27.3418 76.8727 27.2381L76.7514 27.0953L76.7299 27.0737L76.4281 26.6965C76.8403 26.6615 77.2122 26.6264 77.5059 26.5941C77.4762 26.621 77.0424 26.8851 76.7353 27.0683L76.7568 27.0899L76.8323 27.1842C77.1502 26.9671 77.4814 26.77 77.8238 26.5941V26.1172C78.0097 26.1172 78.3788 26.0768 78.3788 26.0768V25.6807C78.5504 25.6744 78.7214 25.6573 78.8908 25.6295L78.8342 25.2253C78.9611 25.2136 79.0871 25.1938 79.2114 25.1661C78.9275 24.1014 78.4123 23.1124 77.7026 22.2696L77.7079 22.2723ZM78.201 14.3291V14.6983C78.201 14.6983 78.6645 14.7387 78.6833 14.7468L78.6348 14.9596C78.5513 15 77.0613 14.9111 75.353 14.798L75.8596 14.1971L78.201 14.3291ZM77.6244 14.1109C77.5975 14.1324 76.9454 14.092 76.0078 14.0247L76.2772 13.7148C76.7348 13.7372 77.1909 13.7849 77.6433 13.8576L77.6244 14.1109ZM76.7353 13.1705C77.0397 13.3564 77.4762 13.6205 77.5059 13.6474C77.2068 13.6124 76.835 13.5774 76.4281 13.5424L76.7353 13.1705ZM76.3958 12.9011L76.5197 13.0331L72.6074 17.6136C72.1763 18.1175 71.7533 18.6267 71.3141 19.1252C71.368 18.8746 71.3895 18.5109 71.4515 18.2037C71.5135 17.8965 71.5701 17.5813 71.5701 17.5813C71.7317 17.3684 75.3854 13.3376 76.6895 11.6967C76.6895 11.756 76.3958 12.9092 76.3958 12.9092V12.9011ZM76.6356 11.4488C76.6571 11.5458 72.8391 15.9134 71.5162 17.4088C70.4859 16.4985 69.3475 15.7184 68.1266 15.0863C69.3358 15.4779 70.4726 16.065 71.4919 16.8242C73.1086 15.1671 76.3419 11.2925 76.4362 11.2818L76.6356 11.4488ZM68.5092 2.53299L68.7787 2.78627C68.7787 2.78627 69.1343 2.48449 69.1532 2.4764L69.269 2.66232C69.2394 2.75123 68.1212 3.74008 66.8441 4.86904L66.7794 4.08497L68.5092 2.53299ZM67.7817 2.59496L67.9461 2.78357C67.9461 2.8186 67.453 3.2497 66.7498 3.86134L66.7147 3.45448C67.056 3.14532 67.416 2.85739 67.7925 2.59227L67.7817 2.59496ZM67.5446 2.53838C67.3075 2.72429 67.0219 2.9614 66.7067 3.22815L66.6662 2.74584C67.0111 2.65962 67.5069 2.53838 67.5446 2.53838ZM66.227 2.78627H66.4076C66.6177 5.44565 66.8629 8.11582 67.0273 10.7671C66.8899 10.5516 66.6474 10.2794 66.4749 10.0181L66.1166 9.49536C66.0815 9.22591 65.8148 3.79667 65.5777 1.71389C65.6208 1.757 66.2297 2.77818 66.2297 2.77818L66.227 2.78627ZM65.1143 1.59533L65.3648 1.57647C65.4511 1.63305 65.8391 7.42066 65.9684 9.40375C64.5951 9.48872 63.2376 9.74303 61.9268 10.1609C63.0573 9.58008 64.2765 9.19127 65.5346 9.01036C65.4969 6.69855 65.0469 1.67078 65.1116 1.59533H65.1143ZM52.8412 1.57647L53.0945 1.59533C53.1564 1.67078 52.7065 6.69855 52.6688 9.01036C53.9277 9.19128 55.1478 9.58008 56.2793 10.1609C54.9683 9.74332 53.6109 9.48902 52.2377 9.40375C52.3643 7.42066 52.755 1.63305 52.8385 1.57647H52.8412ZM51.7958 2.78627H51.9736C51.9736 2.78627 52.5852 1.76508 52.6256 1.72197C52.3858 3.80475 52.1191 9.23939 52.0868 9.50344L51.7284 10.0262C51.556 10.2956 51.3135 10.565 51.1895 10.7752C51.3539 8.1239 51.6018 5.45374 51.8119 2.79435L51.7958 2.78627ZM51.5425 2.74584L51.5021 3.22815C51.1841 2.95871 50.8985 2.72429 50.6614 2.53838C50.7018 2.53838 51.2003 2.65962 51.5425 2.74584ZM50.4135 2.58957C50.7895 2.85647 51.1493 3.14527 51.4913 3.45448L51.459 3.85864C50.753 3.24701 50.2626 2.8159 50.26 2.78087L50.4135 2.58957ZM49.0421 2.47371C49.0636 2.47371 49.4193 2.78357 49.4193 2.78357L49.6887 2.5276L51.4212 4.06342L51.3431 4.85288C50.0579 3.72392 48.9397 2.73507 48.9181 2.64615L49.0421 2.47371ZM41.7429 11.2656C41.8426 11.2656 45.0786 15.1509 46.6872 16.808C47.7059 16.0478 48.8429 15.4606 50.0525 15.0701C48.8316 15.7023 47.6932 16.4823 46.6629 17.3927C45.348 15.9 41.5435 11.5296 41.5435 11.4326L41.7429 11.2656ZM41.4977 11.6805C42.8018 13.3214 46.4554 17.3523 46.6171 17.5651C46.6171 17.5651 46.6791 17.91 46.733 18.1875C46.7869 18.4651 46.8165 18.8584 46.8731 19.109C46.4339 18.6106 46.0082 18.1013 45.5798 17.5975L41.6675 13.017L41.7887 12.8849C41.7887 12.8849 41.4977 11.7317 41.495 11.6724L41.4977 11.6805ZM41.4492 13.1651L41.7618 13.537C41.3495 13.572 40.9804 13.607 40.684 13.6394C40.711 13.6124 41.1474 13.3484 41.4519 13.1651H41.4492ZM41.91 13.704L42.1821 14.0327C41.2498 14.0974 40.5978 14.1405 40.5655 14.119L40.5466 13.8657C40.998 13.7926 41.4532 13.745 41.91 13.7229V13.704ZM39.9781 14.7064V14.3372L42.306 14.2025L42.8153 14.806C41.107 14.9165 39.6143 15.0081 39.5335 14.9677L39.4823 14.7548C39.5039 14.7548 39.9673 14.7064 39.9673 14.7064H39.9781ZM41.4411 27.0764C41.1367 26.8932 40.7002 26.6291 40.6732 26.6022C40.9723 26.6345 41.3414 26.6695 41.751 26.7046L41.4411 27.0764ZM40.5358 26.3893L40.5547 26.1361C40.5789 26.1145 41.231 26.1549 42.1713 26.2223L41.9019 26.5321C41.4451 26.5101 40.9899 26.4624 40.5385 26.3893H40.5358ZM41.7833 27.3566L41.6621 27.2246L45.5744 22.6441C46.0028 22.1402 46.4285 21.631 46.865 21.1325C46.8111 21.3831 46.7895 21.7469 46.7276 22.054C46.6656 22.3612 46.6117 22.6764 46.6117 22.6764C46.4474 22.8893 42.7937 26.9201 41.4923 28.5637C41.4923 28.5017 41.786 27.3485 41.786 27.3485L41.7833 27.3566ZM41.5462 28.8089C41.5274 28.7119 45.3426 24.3416 46.6656 22.8489C47.6959 23.7592 48.8343 24.5393 50.0552 25.1715C48.8456 24.7809 47.7085 24.1938 46.6899 23.4336C45.0732 25.0933 41.8399 28.9679 41.7456 28.976L41.5462 28.8089ZM49.6807 37.7436L49.4112 37.4876C49.4112 37.4876 49.0556 37.7894 49.034 37.7975L48.9181 37.6116C48.9505 37.5253 50.066 36.5338 51.3431 35.4048L51.4105 36.1889L49.6807 37.7436ZM50.4055 37.6816L50.2411 37.4903C50.2411 37.4553 50.7342 37.0242 51.4401 36.4125L51.4724 36.8167C51.1298 37.1251 50.77 37.4139 50.3947 37.6816H50.4055ZM50.6426 37.7328C50.8797 37.5469 51.1653 37.3098 51.4832 37.043L51.5236 37.5253C51.1761 37.6116 50.683 37.7328 50.6426 37.7328ZM51.9601 37.4849H51.7823C51.5721 34.8255 51.3242 32.1554 51.1599 29.5041C51.2973 29.7169 51.5398 29.9918 51.6988 30.2531L52.0571 30.7758C52.0922 31.0453 52.3589 36.4745 52.596 38.5573C52.5556 38.5142 51.944 37.493 51.944 37.493L51.9601 37.4849ZM53.0595 38.6759L52.8089 38.6947C52.7253 38.6381 52.3347 32.8505 52.208 30.8674C53.5812 30.7822 54.9387 30.5279 56.2496 30.1103C55.1178 30.6909 53.8979 31.0805 52.6391 31.2635C52.6768 33.5726 53.1268 38.6004 53.0621 38.6759H53.0595ZM65.3325 38.6947L65.0819 38.6759C65.0173 38.6004 65.4672 33.5726 65.5049 31.2635C64.247 31.0805 63.028 30.6908 61.8971 30.1103C63.208 30.5282 64.5655 30.7825 65.9387 30.8674C65.8094 32.8505 65.4214 38.6381 65.3352 38.6947H65.3325ZM66.3806 37.4849H66.2001C66.2001 37.4849 65.5912 38.5061 65.5481 38.5492C65.7879 36.4664 66.0546 31.0318 66.0869 30.7677L66.4453 30.245C66.6177 29.9756 66.8602 29.7062 66.9977 29.496C66.8333 32.1473 66.5854 34.8175 66.3779 37.4768L66.3806 37.4849ZM66.6474 37.5253L66.6878 37.043C67.003 37.3125 67.2886 37.5469 67.5258 37.7328C67.488 37.7328 66.9869 37.6116 66.6474 37.5253ZM67.7736 37.6816C67.3983 37.4139 67.0385 37.1251 66.6959 36.8167L66.7309 36.4125C67.4341 37.0242 67.9245 37.4553 67.9272 37.4903L67.7736 37.6816ZM69.1451 37.7975C69.1262 37.7975 68.7706 37.4876 68.7706 37.4876L68.5011 37.7436L66.7605 36.1889L66.8252 35.4048C68.1131 36.5311 69.2313 37.5253 69.2502 37.6116L69.1451 37.7975ZM76.4362 28.9921C76.3392 28.9921 73.1005 25.1068 71.4946 23.4497C70.4747 24.2095 69.3369 24.7966 68.1266 25.1876C69.3488 24.5562 70.4882 23.7761 71.5189 22.865C72.8311 24.3577 76.6383 28.7281 76.6383 28.8251L76.4362 28.9921ZM76.5089 27.2327L76.3877 27.3647C76.3877 27.3647 76.6787 28.5179 76.6814 28.5799C75.3773 26.9363 71.7236 22.9055 71.562 22.6926C71.562 22.6926 71.5 22.3504 71.4434 22.0702C71.3868 21.79 71.3599 21.3993 71.306 21.1514C73.0655 23.1399 74.7791 25.193 76.5089 27.2327ZM76.2691 26.5402L75.9997 26.2304C76.9293 26.1657 77.5813 26.1226 77.6163 26.1441L77.6352 26.3974C77.1828 26.4701 76.7268 26.5178 76.2691 26.5402ZM75.3557 25.4625C77.064 25.352 78.554 25.2631 78.6375 25.3008L78.686 25.5163C78.6672 25.5163 78.2037 25.5621 78.2037 25.5621V25.9313L75.873 26.066L71.1551 20.4805L69.0212 21.6337L68.9376 21.5556L68.7463 21.7307L68.7814 21.7657L68.5981 21.8627L67.9245 22.4717C69.0023 21.8843 70.107 21.2834 71.0824 20.8173C71.1129 20.947 71.1055 21.0827 71.0611 21.2084C71.0167 21.334 70.9371 21.4442 70.8318 21.5259C69.7837 22.1214 68.7248 22.6225 67.709 23.183C67.55 23.2692 67.1997 23.4524 66.8063 23.6734V23.8593C68.3233 23.1291 70.1151 22.2669 71.2414 21.5421C71.2801 21.6367 71.281 21.7426 71.2439 21.8379C71.2068 21.9331 71.1345 22.0105 71.042 22.054C69.858 22.8819 68.5943 23.5895 67.2698 24.1664L66.8144 24.3685V24.5922C68.149 24.1243 69.417 23.4848 70.5866 22.6899L71.2818 22.2022L71.368 22.7761C71.306 22.8327 71.05 23.0617 70.9827 23.1183C69.7878 24.1999 68.3651 24.9992 66.8198 25.4571V25.6618C67.1831 25.6181 67.5431 25.5506 67.8976 25.4598C68.0296 25.4274 68.167 25.387 68.2883 25.352C69.308 25.0399 70.2786 24.5855 71.1713 24.0021C71.2952 23.9132 71.4192 23.8458 71.5404 23.7461L76.7029 29.5337L76.4496 29.8032C76.4496 29.8032 76.7514 30.1588 76.7595 30.1777L76.5736 30.2962C76.4092 30.2369 73.052 26.3408 71.5916 24.6918C71.3572 24.8023 71.1201 24.8724 70.8857 24.9613C69.5681 25.6699 68.0296 25.8262 66.8441 25.81V26.0633C68.4761 26.1273 70.0972 25.7701 71.5512 25.026C73.5208 27.1491 74.8842 28.7146 76.641 30.7058C75.8703 31.18 74.7549 31.4414 73.607 31.5949C73.1038 31.6427 72.5982 31.6607 72.0928 31.6488C71.5943 31.6488 70.9988 31.6138 70.6863 31.4225C70.4123 31.2285 70.1587 31.0073 69.9292 30.7624C69.1909 30.0241 68.4419 29.3047 67.6982 28.5907L66.8764 27.7823V28.0518L67.5554 28.7281C68.2694 29.4717 68.9888 30.2235 69.7298 30.9617C69.9734 31.1926 70.1944 31.4461 70.3899 31.7189C70.5812 32.0341 70.6162 32.6296 70.6162 33.1254C70.6288 33.6308 70.6099 34.1365 70.5597 34.6396C70.4088 35.7982 70.1447 36.9056 69.6732 37.6735C68.6655 36.7844 67.7656 35.9976 66.8495 35.1812L67.3883 28.8951L65.0631 28.2027C65.0631 28.1649 65.0631 28.1272 65.0631 28.0895H64.8071V28.138L64.6077 28.0787L63.6997 28.0329C64.8771 28.3778 66.0842 28.7362 67.1027 29.0945C67.0308 29.2027 66.9294 29.2881 66.8105 29.3406C66.6917 29.3931 66.5603 29.4106 66.4318 29.3909C65.2705 29.073 64.1658 28.6796 63.0503 28.3563C62.8779 28.3051 62.498 28.1892 62.0669 28.0653L61.9375 28.2C63.5272 28.755 65.3999 29.4125 66.712 29.6954C66.5369 29.9648 66.4426 29.9513 66.2082 29.9163C64.7868 29.6648 63.3941 29.2722 62.0507 28.7442L61.5819 28.5826L61.4283 28.7416C62.7034 29.3584 64.0541 29.805 65.4457 30.0699L66.2809 30.2181L65.9387 30.6842L65.4241 30.6546C63.8147 30.5734 62.2439 30.1324 60.8274 29.364L60.6846 29.5122C60.9729 29.7378 61.2753 29.9448 61.59 30.1319L61.9429 30.3313C62.8751 30.8286 63.8729 31.1914 64.9068 31.409C65.0577 31.4333 65.1924 31.4737 65.3487 31.4899L64.9068 39.2336H64.5376C64.5376 39.2336 64.4972 39.697 64.4891 39.7186L64.2763 39.6674C64.2008 39.5111 64.5808 34.381 64.7155 32.1823C64.4703 32.0961 64.2547 31.9802 64.0203 31.8805C62.5869 31.4494 61.3906 30.4714 60.5634 29.6253L60.3883 29.8085C61.5003 31.0041 62.9015 31.8931 64.4568 32.3898C64.3463 35.2836 64.2062 37.3529 64.0392 40.0069C63.1608 39.7967 62.1935 39.1986 61.2639 38.4872C60.8742 38.166 60.5044 37.8214 60.1565 37.4553C59.8036 37.105 59.4075 36.647 59.3213 36.3021C59.266 35.971 59.2434 35.6353 59.2539 35.2998C59.2539 34.257 59.2323 33.217 59.2108 32.1877V31.0345L59.0195 31.2312V32.1904C59.0006 33.2224 58.9764 34.2624 58.9764 35.3078C58.9882 35.6425 58.9656 35.9774 58.909 36.3075C58.8228 36.6658 58.4267 37.1158 58.0738 37.4634C57.7265 37.8301 57.3566 38.1748 56.9664 38.4953C56.0395 39.2067 55.0803 39.8021 54.1911 40.0123C54.0267 37.361 53.8839 35.2917 53.7762 32.3979C55.2637 31.9217 56.6123 31.0892 57.7046 29.9729L57.5268 29.7789C56.7185 30.5872 55.5653 31.4872 54.21 31.894C53.9755 31.9937 53.76 32.1096 53.5148 32.1958C53.6495 34.3944 54.0294 39.5246 53.954 39.6809L53.7411 39.7321C53.7411 39.7105 53.6953 39.2471 53.6953 39.2471H53.3235L52.8816 31.5033C53.0379 31.4872 53.1753 31.4467 53.3262 31.4225C54.36 31.2046 55.3578 30.8417 56.2901 30.3447C56.4086 30.2774 56.5272 30.2154 56.643 30.1453C56.9032 29.9909 57.1551 29.8227 57.3975 29.6415L57.2412 29.4717C55.8646 30.1786 54.3541 30.5863 52.8089 30.6681L52.2969 30.6977L51.9251 30.1992L52.7604 30.051C54.0988 29.7982 55.3992 29.3744 56.6295 28.79L56.476 28.6203L56.158 28.7416C54.8143 29.275 53.4206 29.6731 51.9979 29.9298C51.7607 29.9648 51.6691 29.9675 51.4967 29.7088C53.0674 29.3095 54.6153 28.8256 56.1338 28.2592L56.0071 28.1164L55.1557 28.3697C54.0402 28.693 52.9382 29.0864 51.7769 29.4044C51.6446 29.4223 51.5098 29.4013 51.3892 29.3439C51.2687 29.2864 51.1674 29.1951 51.0979 29.081C52.2862 28.6634 53.7304 28.2458 55.0856 27.8497L54.2773 27.8632L53.3989 28.1326C53.3989 28.0491 53.3989 27.9656 53.3989 27.8847H53.1484C53.1484 27.9925 53.1484 28.0976 53.1484 28.2054L50.8042 28.8897L51.3431 35.1758C50.427 35.9841 49.5298 36.779 48.5194 37.6681C48.0478 36.9002 47.7865 35.7821 47.6329 34.6342C47.5823 34.1312 47.5643 33.6254 47.579 33.12C47.579 32.6242 47.6113 32.0422 47.8053 31.7135C47.9993 31.4395 48.2205 31.1859 48.4655 30.9564C49.2037 30.2208 49.9232 29.469 50.6372 28.7281L51.4455 27.9063H51.1761L50.4944 28.5826C49.7534 29.2966 48.999 30.0187 48.2607 30.757C48.0321 31.0019 47.7793 31.223 47.5063 31.4171C47.191 31.6084 46.5956 31.6461 46.0971 31.6434C45.5926 31.6554 45.0879 31.6374 44.5855 31.5895C43.4269 31.436 42.3195 31.1719 41.5489 30.7004C43.3057 28.7092 44.6717 27.1438 46.6414 25.0206C48.0304 25.7358 49.5734 26.1002 51.1356 26.0822V25.8127C49.809 25.8439 48.4942 25.5565 47.3015 24.9748C47.0671 24.8778 46.8327 24.8077 46.5982 24.7053C45.146 26.3462 41.786 30.2423 41.6217 30.2989L41.4358 30.1831C41.4358 30.1642 41.7456 29.8085 41.7456 29.8085L41.4762 29.5391L46.6387 23.7515C46.7626 23.8485 46.8865 23.9185 47.0105 24.0075C47.8964 24.5809 48.8588 25.0262 49.8693 25.3304C49.9986 25.3681 50.1387 25.4086 50.2573 25.4409C50.5504 25.5152 50.8472 25.5745 51.1464 25.6187V25.387C49.6736 24.9131 48.3175 24.1336 47.1668 23.0994L46.7815 22.7573L46.8704 22.1833C47.323 22.504 47.4254 22.5713 47.5628 22.671C48.6887 23.4374 49.9073 24.0576 51.1895 24.5167V24.285L50.877 24.1476C49.5525 23.5706 48.2888 22.863 47.1048 22.0352C47.0123 21.9917 46.94 21.9143 46.9029 21.819C46.8658 21.7237 46.8667 21.6178 46.9054 21.5232C48.3014 22.3509 49.7405 23.1037 51.2165 23.7784V23.5871C50.8743 23.3985 50.5806 23.2396 50.4378 23.1641C49.457 22.6037 48.4062 22.116 47.3608 21.507C47.2545 21.4261 47.1739 21.3161 47.129 21.1903C47.084 21.0645 47.0766 20.9284 47.1075 20.7984C48.2445 21.3373 49.5621 22.0675 50.8015 22.7465L50.2195 22.1833L49.4112 21.7469C49.4705 21.6849 49.5271 21.6283 49.5864 21.5717L49.4058 21.3966C49.3277 21.4693 49.2469 21.5394 49.1687 21.6148L47.032 20.4616L42.3168 26.0471L39.9889 25.9124V25.5433C39.9889 25.5433 39.5254 25.5029 39.5039 25.4948L39.555 25.2819C39.6359 25.2415 41.1286 25.3331 42.8368 25.4436L42.977 25.2792C41.751 25.2065 40.552 25.131 39.2048 25.0448C39.4149 24.1664 40.0131 23.1991 40.7244 22.2723C41.0439 21.881 41.3876 21.5102 41.7537 21.1622C42.104 20.8092 42.562 20.4158 42.9096 20.3296C43.2404 20.272 43.5763 20.2486 43.9119 20.2595C44.9547 20.2595 45.9947 20.238 47.024 20.2191H48.1853L47.9859 20.0251H47.032C46.0001 20.0063 44.96 19.9847 43.9146 19.9847C43.579 19.9957 43.2431 19.9722 42.9123 19.9146C42.5539 19.8284 42.104 19.435 41.7564 19.0821C41.3903 18.734 41.0466 18.3632 40.7271 17.972C40.0131 17.0451 39.4176 16.0859 39.2075 15.1994C40.5547 15.1159 41.7429 15.0378 42.9796 14.965L47.032 19.7826L49.166 18.6294L49.2522 18.7076L49.4435 18.5351L49.4085 18.5001L49.5917 18.4004L50.2653 17.8049C49.1876 18.3923 48.0802 18.9932 47.1048 19.4593C47.0737 19.3298 47.0811 19.1939 47.1261 19.0685C47.1711 18.9431 47.2517 18.8336 47.3581 18.7534C48.4035 18.1552 49.4624 17.654 50.4809 17.0936C50.6399 17.0074 50.9901 16.8242 51.3808 16.6032V16.4173C49.8629 17.1115 48.3825 17.8849 46.9458 18.7345C46.9071 18.6399 46.9062 18.534 46.9433 18.4387C46.9804 18.3434 47.0527 18.2661 47.1452 18.2226C48.3292 17.3947 49.5929 16.6871 50.9174 16.1101L51.3754 15.9081V15.6844C50.0409 16.1523 48.7729 16.7917 47.6033 17.5867C47.4658 17.6864 47.3635 17.7537 46.9108 18.0744L46.8219 17.5005L47.2072 17.1583C48.3938 16.0764 49.8067 15.2728 51.3431 14.806V14.6013C50.98 14.6465 50.6201 14.7139 50.2653 14.8033C50.136 14.8357 49.9959 14.8761 49.8773 14.9138C48.8709 15.2187 47.9129 15.6651 47.032 16.2395C46.9081 16.3257 46.7842 16.3957 46.6602 16.4927L41.4896 10.7051L41.7591 10.4357C41.7591 10.4357 41.4573 10.08 41.4492 10.0612L41.6351 9.94532C41.7995 10.0019 45.1567 13.898 46.6171 15.547C46.8515 15.4365 47.0859 15.3665 47.323 15.2776C48.6406 14.5689 50.1764 14.4154 51.3647 14.4288V14.1756C49.7332 14.1166 48.114 14.4785 46.6629 15.2264C44.6933 13.1032 43.3299 11.5377 41.5705 9.54655C42.3411 9.07503 43.4566 8.81097 44.6071 8.65739C45.1094 8.60952 45.6142 8.59153 46.1186 8.60351C46.6171 8.60351 47.2126 8.63853 47.5278 8.82983C47.8009 9.02392 48.0536 9.24509 48.2823 9.48997C49.0205 10.2282 49.7723 10.9476 50.5132 11.6617L51.3216 12.4835V12.214L50.6453 11.5377C49.9285 10.7941 49.2091 10.0423 48.4709 9.30136C48.2253 9.07336 48.0041 8.82053 47.8107 8.54692C47.6194 8.23168 47.5817 7.63621 47.5844 7.14044C47.5724 6.63507 47.5904 6.12942 47.6383 5.62617C47.7919 4.46758 48.0532 3.36287 48.5248 2.59227C49.5352 3.48143 50.4324 4.26819 51.3512 5.08729L50.8123 11.3707L53.1376 12.0631C53.1376 12.1009 53.1376 12.1386 53.1376 12.179H53.407V12.1305L53.6037 12.1898L54.5117 12.2356C53.3343 11.8907 52.1272 11.5323 51.1087 11.174C51.1782 11.0599 51.2794 10.9686 51.4 10.9112C51.5206 10.8537 51.6553 10.8327 51.7877 10.8506C52.949 11.1686 54.051 11.562 55.1665 11.8853C55.3416 11.9365 55.7215 12.0523 56.1499 12.1763L56.282 12.0443C54.6923 11.4865 52.817 10.8291 51.5075 10.5462C51.6799 10.2767 51.7769 10.2767 52.0086 10.3252C53.4309 10.5767 54.8245 10.9694 56.1688 11.4973L56.6349 11.6751L56.7912 11.5162C55.515 10.8997 54.1634 10.4531 52.7711 10.1878L51.9359 10.0396L52.2808 9.5735L52.7927 9.60313C54.4031 9.68388 55.9748 10.1249 57.3921 10.8938L57.5322 10.7456C57.2444 10.5193 56.9419 10.3123 56.6269 10.1258L56.2766 9.92646C55.3441 9.42998 54.3463 9.06717 53.3127 8.8487C53.1618 8.82445 53.0244 8.78403 52.8681 8.76786L53.3127 1.02412H53.6819C53.6819 1.02412 53.7196 0.560682 53.7277 0.539127L53.9432 0.590313C54.016 0.746589 53.6361 5.87676 53.5013 8.0754C53.7465 8.16162 53.9621 8.27748 54.1965 8.37718C55.6299 8.80828 56.8289 9.78635 57.6534 10.6324L57.8313 10.4492C56.7241 9.24317 55.3246 8.343 53.7681 7.8356C53.8759 4.9418 54.0187 2.87248 54.1857 0.22118C55.0641 0.431344 56.0314 1.02951 56.9583 1.73814C57.3485 2.05872 57.7184 2.40339 58.0657 2.7701C58.4213 3.12037 58.8147 3.57842 58.9009 3.926C58.9575 4.25603 58.9801 4.591 58.9683 4.92563C58.9683 5.96837 58.9925 7.00841 59.0114 8.03768V9.20166L59.2027 9.00227V8.04306C59.2243 7.0111 59.2458 5.97106 59.2458 4.92563C59.2354 4.59102 59.258 4.25619 59.3132 3.926C59.3994 3.56764 59.7955 3.11768 60.1485 2.7701C60.4973 2.40397 60.868 2.05934 61.2585 1.73814C62.1854 1.02681 63.1446 0.431344 64.0311 0.22118C64.1982 2.87248 64.341 4.9418 64.4487 7.8356C62.9609 8.31114 61.6122 9.1437 60.5203 10.2606L60.6954 10.4546C61.5037 9.64624 62.6596 8.74631 64.0122 8.33945C64.2467 8.23976 64.4622 8.1239 64.7074 8.03768C64.5727 5.83904 64.1928 0.708872 64.2682 0.552596L64.4811 0.501401C64.4811 0.522956 64.5296 0.986392 64.5296 0.986392H64.8987L65.3406 8.73014C65.1843 8.74631 65.0496 8.78672 64.8987 8.81097C63.865 9.02899 62.8672 9.39183 61.9348 9.88874L61.5819 10.0881C61.3221 10.242 61.0712 10.4102 60.8301 10.592L60.9837 10.7617C62.3603 10.0548 63.8708 9.64716 65.416 9.56541L65.9307 9.53577L66.2729 10.0019L65.4376 10.1501C64.0993 10.4035 62.799 10.8273 61.5684 11.4111L61.7247 11.5808L62.0426 11.4596C63.386 10.9316 64.7788 10.539 66.2001 10.2875C66.4372 10.2525 66.5315 10.2498 66.704 10.5085C65.1324 10.9077 63.5835 11.3916 62.0642 11.958L62.1935 12.1008L63.0422 11.8476C64.1604 11.5243 65.2624 11.1309 66.4237 10.8129C66.5561 10.795 66.6908 10.816 66.8114 10.8734C66.932 10.9309 67.0332 11.0222 67.1027 11.1363C65.9118 11.5539 64.4676 11.9715 63.1123 12.3703L63.9206 12.3568L65.0523 12.0173L64.8017 12.0928C64.8017 12.1763 64.8017 12.2598 64.8017 12.3407H65.0523C65.0523 12.2329 65.0523 12.1278 65.0523 12.02L67.3776 11.3276L66.8387 5.04419C67.7548 4.23586 68.6547 3.42754 69.6624 2.54916C70.1339 3.31976 70.398 4.43525 70.5489 5.58307C70.5991 6.08616 70.618 6.59189 70.6055 7.09733C70.6055 7.5931 70.5704 8.18857 70.3791 8.50381C70.1843 8.77713 69.9632 9.03072 69.719 9.26094C68.9807 9.99652 68.2613 10.7483 67.5473 11.4919L66.7255 12.3137H66.995L67.6713 11.6347C68.4149 10.9207 69.1667 10.1986 69.9049 9.46033C70.1344 9.21535 70.3881 8.99418 70.6621 8.80019C70.9746 8.60889 71.5701 8.57117 72.0685 8.57386C72.5739 8.56189 73.0795 8.57989 73.5828 8.62775C74.7414 8.78133 75.8461 9.04538 76.6167 9.51691C74.8599 11.5081 73.4966 13.0735 71.527 15.1967C70.1377 14.4824 68.5947 14.1188 67.0327 14.1378L67.0192 14.4073C68.1724 14.4073 69.6112 14.5878 70.8587 15.2587C71.0932 15.353 71.3303 15.4231 71.5647 15.5281C73.0251 13.8792 76.3823 9.98305 76.5466 9.92646L76.7326 10.0423C76.7326 10.0612 76.4227 10.4168 76.4227 10.4168L76.676 10.6863L71.5512 16.4927C71.43 16.3957 71.306 16.3257 71.1821 16.2368C70.2945 15.6629 69.3302 15.2175 68.3179 14.9138C68.1886 14.8761 68.0485 14.8357 67.9299 14.8033C67.6443 14.7306 67.3452 14.6713 67.0408 14.6255L67.0273 14.8572C68.502 15.3305 69.86 16.11 71.0123 17.1448C71.0797 17.2014 71.3357 17.4304 71.3976 17.487L71.3114 18.0609L70.6162 17.5732C69.4851 16.8051 68.2599 16.1857 66.9707 15.7302V15.9593L67.2806 16.0967C68.6051 16.6736 69.8687 17.3812 71.0527 18.2091C71.1453 18.2526 71.2176 18.33 71.2547 18.4252C71.2918 18.5205 71.2909 18.6264 71.2521 18.721C69.8564 17.8928 68.4173 17.14 66.9411 16.4658V16.6598L67.7198 17.0828C68.7382 17.6406 69.7944 18.1417 70.8426 18.7399C70.9482 18.8207 71.0281 18.9304 71.0725 19.0557C71.117 19.181 71.1242 19.3165 71.0932 19.4458C69.9561 18.9069 68.6412 18.1768 67.4018 17.5005L67.9838 18.0636L68.7921 18.5001L68.617 18.6725L68.7948 18.8477C68.8757 18.7749 68.9565 18.7049 69.0319 18.6294L71.1659 19.7826L75.2372 14.965C76.4631 15.0378 77.6621 15.1159 78.9959 15.1994C78.7857 16.0778 78.1875 17.0451 77.4789 17.972C77.1577 18.3626 76.8131 18.7333 76.447 19.0821C76.0967 19.435 75.6386 19.8284 75.2911 19.9173C74.9609 19.9726 74.626 19.9951 74.2914 19.9847C73.246 19.9847 72.2086 20.0063 71.1767 20.0251H70.0154L70.2148 20.2191H71.174C72.2033 20.238 73.246 20.2595 74.2914 20.2595C74.6262 20.2485 74.9611 20.272 75.2911 20.3296C75.6494 20.4158 76.0994 20.8092 76.447 21.1649C76.8137 21.5121 77.1583 21.882 77.4789 22.2723C78.1902 23.1991 78.7857 24.1584 78.9959 25.0448C77.6487 25.131 76.4631 25.2065 75.2372 25.2792L75.3557 25.4625Z" fill="white"/>
<path d="M71.2818 20.3242L67.5986 16.7676L67.868 11.6482L62.7486 11.7371L59.3159 7.93799L55.7405 11.6239L50.6211 11.368L50.7073 16.4874L46.9189 19.92L50.5995 23.4767L50.3301 28.5961L55.4495 28.5071L58.8875 32.3009L62.4442 28.6203L67.5635 28.8763L67.4746 23.7569L71.2818 20.3242ZM62.1747 27.9063L58.9118 31.277L55.7674 27.7985L51.0764 27.8793L51.3135 23.1938L47.9401 19.9335L51.4213 16.7891L51.3405 12.1009L56.0234 12.3353L59.2836 8.96456L62.428 12.443L67.1163 12.3622L66.8792 17.0451L70.2526 20.3053L66.7741 23.4632L66.8549 28.1515L62.1747 27.9063Z" fill="white"/>
<path d="M53.2749 14.8842L58.9089 13.4535C58.9903 13.4289 59.0745 13.4153 59.1595 13.4131C59.2802 13.4091 59.4004 13.4302 59.5125 13.475L65.1168 14.7926L59.3562 16.6571C59.1972 16.6724 59.0367 16.655 58.8847 16.6059L53.2749 14.8842Z" fill="white"/>
<path d="M56.0688 16.0347L58.5585 17.0883C58.7277 17.1406 58.9041 17.166 59.0812 17.1637C59.2447 17.1614 59.4071 17.136 59.5635 17.0883L62.301 16.0105L62.3253 17.5679C62.031 17.8788 61.689 18.1407 61.3122 18.3439C60.6324 18.6919 59.8738 18.8572 59.1108 18.8235C58.2282 18.8394 57.3629 18.5773 56.6374 18.0744C56.4417 17.9305 56.2611 17.7671 56.0985 17.5867C56.0985 17.0721 56.0823 16.5575 56.0715 16.0401" fill="white"/>
<path d="M55.7705 18.4192C56.159 18.7578 56.5785 19.0591 57.0234 19.3191C57.6216 19.6667 57.9773 19.7637 58.4676 20.1544C58.7592 20.3885 59.0183 20.6603 59.2382 20.9627C59.4024 20.6467 59.6288 20.3672 59.9038 20.1409C60.3807 19.7475 60.7768 19.7179 61.3614 19.4161C61.8331 19.1728 62.2574 18.847 62.6143 18.4542C62.764 18.7715 62.8102 19.1278 62.7464 19.4727C62.5524 20.4454 61.4989 20.8199 61.4396 20.8361C60.9205 21.0627 60.4598 21.4046 60.0924 21.8357C59.7269 22.2638 59.4683 22.7727 59.3379 23.3203C59.329 23.3451 59.3131 23.3667 59.292 23.3825C59.2709 23.3984 59.2457 23.4076 59.2194 23.4092C59.1877 23.4095 59.157 23.3981 59.1332 23.3772C59.1094 23.3564 59.094 23.3275 59.09 23.2961C59.0096 22.7784 58.7835 22.2943 58.438 21.9004C58.0204 21.4423 57.697 21.4423 56.7163 20.696C56.0292 20.1733 55.9079 19.9496 55.8298 19.8095C55.6452 19.3713 55.627 18.8807 55.7786 18.43" fill="white"/>
<path d="M52.4478 18.3438C52.6175 18.6132 52.8708 19.02 53.1645 19.5212C53.6791 20.405 53.9324 20.9304 54.0887 21.2079C54.4524 21.8519 55.1476 22.7006 56.6187 23.5143C56.6462 23.3078 56.6183 23.0976 56.5379 22.9054C56.4409 22.6989 56.2936 22.5201 56.1095 22.3854C55.6272 21.9704 55.417 21.8896 55.223 21.7145C54.9886 21.5043 54.7353 21.119 54.7003 20.3673C54.9482 20.5101 55.3092 20.7229 55.7457 20.987C56.8801 21.6821 57.4459 22.0297 57.7396 22.3342C58.3336 22.9732 58.7197 23.7774 58.847 24.6406C58.9674 25.3747 58.9091 26.127 58.6772 26.8338C57.9959 26.5913 57.3435 26.2742 56.7319 25.8881C55.3801 25.0312 54.2677 23.8456 53.4986 22.442C52.8203 21.1816 52.4597 19.7749 52.4478 18.3438Z" fill="white"/>
<path d="M65.8122 18.3438C65.6425 18.6132 65.3892 19.02 65.0955 19.5212C64.5809 20.405 64.3249 20.9304 64.1687 21.2079C63.8076 21.8519 63.1124 22.7006 61.6413 23.5143C61.6126 23.308 61.6396 23.0978 61.7194 22.9054C61.8184 22.6994 61.9664 22.5208 62.1505 22.3854C62.6301 21.9704 62.8403 21.8896 63.037 21.7145C63.2337 21.5393 63.522 21.119 63.557 20.3673C63.3118 20.5101 62.9481 20.7229 62.5143 20.987C61.3799 21.6821 60.8141 22.0297 60.5204 22.3342C59.9264 22.9732 59.5403 23.7774 59.413 24.6406C59.2898 25.3746 59.3481 26.1276 59.5828 26.8338C60.2672 26.5903 60.9224 26.2713 61.5362 25.8827C62.8882 25.0261 64.0007 23.8404 64.7695 22.4366C65.4428 21.1766 65.8006 19.7722 65.8122 18.3438Z" fill="white"/>
<path d="M1.92936 54.4704H1.29466V48.6381H0V48.0002H3.22401V48.6381H1.92936V54.4704Z" fill="white"/>
<path d="M4.7302 50.195C4.95155 49.9523 5.22129 49.7586 5.52205 49.6264C5.8228 49.4943 6.1479 49.4266 6.47641 49.4277C6.81248 49.4227 7.14607 49.486 7.45705 49.6135C7.76802 49.741 8.04993 49.9303 8.28577 50.1697C8.52859 50.4022 8.7207 50.6824 8.85004 50.9927C8.97937 51.303 9.04313 51.6367 9.03731 51.9728C9.05169 52.6578 8.79656 53.3212 8.32682 53.82C8.10244 54.075 7.82517 54.278 7.51432 54.4149C7.20347 54.5518 6.86652 54.6193 6.52693 54.6126C6.19116 54.6194 5.85767 54.556 5.54776 54.4266C5.23785 54.2972 4.95833 54.1046 4.72704 53.8611C4.48987 53.6221 4.30288 53.338 4.17707 53.0257C4.05126 52.7133 3.98917 52.3789 3.99445 52.0423H8.3805V52.017C8.39044 51.7573 8.34866 51.4982 8.25759 51.2548C8.16652 51.0114 8.02797 50.7886 7.85001 50.5992C7.6735 50.4122 7.45908 50.265 7.22111 50.1675C6.98313 50.07 6.72708 50.0245 6.47009 50.034C6.22792 50.0318 5.9881 50.0817 5.76691 50.1803C5.54571 50.2789 5.3483 50.4239 5.18806 50.6055C5.04197 50.7631 4.9206 50.942 4.82809 51.136H4.13971C4.26448 50.7806 4.4661 50.4572 4.7302 50.1887V50.195ZM8.31735 52.5664H4.7302C4.81045 52.891 4.97367 53.1892 5.20385 53.4316C5.37326 53.6172 5.58033 53.7645 5.81123 53.8636C6.04212 53.9627 6.29151 54.0114 6.54272 54.0063C6.79106 54.0107 7.03743 53.9616 7.26516 53.8625C7.49288 53.7633 7.69664 53.6164 7.86264 53.4316C8.093 53.1898 8.25532 52.8913 8.33314 52.5664" fill="white"/>
<path d="M10.2501 48.0034H10.8816V50.1696C11.0628 49.9487 11.293 49.7731 11.5539 49.6569C11.8149 49.5407 12.0994 49.487 12.3847 49.5001C13.1362 49.5001 13.6667 49.7401 13.9636 50.2138C14.2541 50.7626 14.3864 51.3814 14.3456 52.001V54.4862H13.7141V51.9916C13.7439 51.532 13.6638 51.072 13.4804 50.6495C13.2689 50.2801 12.8899 50.1001 12.3247 50.1001C12.0732 50.0811 11.8214 50.1332 11.598 50.2504C11.3747 50.3677 11.1888 50.5454 11.0616 50.7632C10.8905 51.1899 10.8193 51.65 10.8532 52.1084V54.4862H10.2217L10.2501 48.0034Z" fill="white"/>
<path d="M15.5072 52.9357H16.1388V52.9546C16.1317 53.2162 16.2141 53.4724 16.3724 53.6809C16.4508 53.7856 16.5529 53.8703 16.6704 53.928C16.7879 53.9856 16.9174 54.0145 17.0482 54.0124C17.2733 54.0195 17.4921 53.9378 17.6576 53.7851C17.7391 53.7109 17.8035 53.6201 17.8466 53.5187C17.8896 53.4173 17.9103 53.3078 17.9071 53.1977C17.912 53.0797 17.8911 52.9621 17.8458 52.853C17.8005 52.7439 17.732 52.6461 17.645 52.5662C17.4565 52.4217 17.2422 52.3145 17.0134 52.2504C16.6737 52.1459 16.3536 51.9859 16.0661 51.7768C15.939 51.6594 15.8396 51.5152 15.7751 51.3546C15.7107 51.194 15.6828 51.0211 15.6935 50.8484C15.6899 50.6655 15.7253 50.484 15.7971 50.3158C15.869 50.1476 15.9757 49.9965 16.1103 49.8727C16.3796 49.6131 16.7405 49.4701 17.1145 49.4748C17.297 49.4577 17.4811 49.4796 17.6545 49.539C17.8279 49.5984 17.9868 49.694 18.1205 49.8193C18.2542 49.9447 18.3598 50.0971 18.4303 50.2663C18.5007 50.4355 18.5344 50.6178 18.5291 50.801H17.8566C17.8632 50.7002 17.849 50.599 17.8149 50.5038C17.7809 50.4086 17.7276 50.3214 17.6585 50.2476C17.5894 50.1739 17.5059 50.115 17.4131 50.0748C17.3204 50.0346 17.2203 50.0139 17.1192 50.0139C17.0181 50.0139 16.9181 50.0346 16.8253 50.0748C16.7326 50.115 16.6491 50.1739 16.5799 50.2476C16.5108 50.3214 16.4576 50.4086 16.4235 50.5038C16.3895 50.599 16.3753 50.7002 16.3819 50.801C16.3798 50.9293 16.4124 51.0557 16.4764 51.1669C16.5403 51.2781 16.6331 51.3699 16.745 51.4326C16.8962 51.5192 17.0574 51.5871 17.225 51.6347C17.4871 51.7136 17.6513 51.7673 17.7208 51.7989C17.9436 51.8943 18.1393 52.0436 18.2901 52.2334C18.4409 52.4231 18.5422 52.6474 18.5848 52.8861C18.6274 53.1247 18.6099 53.3702 18.5341 53.6005C18.4582 53.8307 18.3263 54.0385 18.1502 54.2051C17.8448 54.4703 17.4492 54.6082 17.045 54.5903C16.8313 54.5998 16.6182 54.5616 16.421 54.4786C16.2239 54.3956 16.0477 54.2698 15.9051 54.1103C15.6356 53.7739 15.4916 53.3541 15.4977 52.923" fill="white"/>
<path d="M20.4777 49.0107H19.8462V48.0034H20.4777V49.0107ZM19.8462 49.5854H20.4777V54.4735H19.8462V49.5854Z" fill="white"/>
<path d="M22.6062 48.0002H21.981V54.4704H22.6062V48.0002Z" fill="white"/>
<path d="M28.631 54.4704H27.9963V48.6381H26.7017V48.0002H29.9257V48.6381H28.631V54.4704Z" fill="white"/>
<path d="M31.4348 50.195C31.6561 49.9523 31.9259 49.7586 32.2266 49.6264C32.5274 49.4943 32.8525 49.4266 33.181 49.4277C33.5171 49.4227 33.8507 49.486 34.1616 49.6135C34.4726 49.741 34.7545 49.9303 34.9904 50.1697C35.2332 50.4022 35.4253 50.6824 35.5546 50.9927C35.684 51.303 35.7477 51.6367 35.7419 51.9728C35.7549 52.6576 35.5 53.3205 35.0314 53.82C34.8068 54.0747 34.5294 54.2775 34.2187 54.4143C33.9079 54.5512 33.5711 54.6188 33.2315 54.6126C32.8958 54.6194 32.5623 54.556 32.2524 54.4266C31.9424 54.2972 31.6629 54.1046 31.4316 53.8611C31.1945 53.6221 31.0075 53.338 30.8817 53.0257C30.7559 52.7133 30.6938 52.3789 30.699 52.0423H35.0851V52.017C35.095 51.7573 35.0533 51.4982 34.9622 51.2548C34.8711 51.0114 34.7326 50.7886 34.5546 50.5992C34.3781 50.4122 34.1637 50.265 33.9257 50.1675C33.6877 50.07 33.4317 50.0245 33.1747 50.034C32.9325 50.0318 32.6927 50.0817 32.4715 50.1803C32.2503 50.2789 32.0529 50.4239 31.8927 50.6055C31.7445 50.7615 31.6229 50.9407 31.5327 51.136H30.8443C30.968 50.7801 31.1698 50.4565 31.4348 50.1887V50.195ZM35.0219 52.5664H31.419C31.4992 52.891 31.6625 53.1892 31.8927 53.4316C32.0621 53.6172 32.2691 53.7645 32.5 53.8636C32.7309 53.9627 32.9803 54.0114 33.2315 54.0063C33.4799 54.0107 33.7262 53.9616 33.954 53.8625C34.1817 53.7633 34.3854 53.6164 34.5514 53.4316C34.7818 53.1898 34.9441 52.8913 35.0219 52.5664Z" fill="white"/>
<path d="M37.5925 48.0002H36.9673V54.4704H37.5925V48.0002Z" fill="white"/>
<path d="M39.5598 50.195C39.7811 49.9523 40.0509 49.7586 40.3516 49.6264C40.6524 49.4943 40.9775 49.4266 41.306 49.4277C41.6421 49.4227 41.9757 49.486 42.2866 49.6135C42.5976 49.741 42.8795 49.9303 43.1154 50.1697C43.3582 50.4022 43.5503 50.6824 43.6796 50.9927C43.809 51.303 43.8727 51.6367 43.8669 51.9728C43.8799 52.6576 43.625 53.3205 43.1564 53.82C42.932 54.075 42.6548 54.278 42.3439 54.4149C42.0331 54.5518 41.6961 54.6193 41.3565 54.6126C41.0207 54.6194 40.6873 54.556 40.3773 54.4266C40.0674 54.2972 39.7879 54.1046 39.5566 53.8611C39.3195 53.6221 39.1325 53.338 39.0067 53.0257C38.8809 52.7133 38.8188 52.3789 38.824 52.0423H43.2101V52.017C43.22 51.7573 43.1782 51.4982 43.0872 51.2548C42.9961 51.0114 42.8576 50.7886 42.6796 50.5992C42.5031 50.4122 42.2887 50.265 42.0507 50.1675C41.8127 50.07 41.5567 50.0245 41.2997 50.034C41.0575 50.0318 40.8177 50.0817 40.5965 50.1803C40.3753 50.2789 40.1779 50.4239 40.0177 50.6055C39.8705 50.7623 39.749 50.9413 39.6577 51.136H38.9693C39.093 50.7801 39.2948 50.4565 39.5598 50.1887V50.195ZM43.1469 52.5664H39.544C39.6242 52.891 39.7875 53.1892 40.0177 53.4316C40.1871 53.6172 40.3941 53.7645 40.625 53.8636C40.8559 53.9627 41.1053 54.0114 41.3565 54.0063C41.6049 54.0107 41.8512 53.9616 42.079 53.8625C42.3067 53.7633 42.5104 53.6164 42.6764 53.4316C42.9068 53.1898 43.0691 52.8913 43.1469 52.5664Z" fill="white"/>
<path d="M45.6857 48.0034V50.4064C45.9126 50.1142 46.2039 49.8783 46.5369 49.7173C46.8699 49.5562 47.2357 49.4743 47.6056 49.478C47.9354 49.4711 48.2628 49.5346 48.5661 49.6642C48.8693 49.7938 49.1415 49.9865 49.3645 50.2296C49.8189 50.7281 50.0682 51.38 50.0624 52.0546C50.0565 52.7292 49.796 53.3767 49.3329 53.8672C49.0947 54.1094 48.8091 54.2997 48.494 54.4263C48.1788 54.5529 47.8409 54.6131 47.5014 54.603C47.1528 54.605 46.8083 54.5278 46.4938 54.3774C46.1793 54.227 45.903 54.0072 45.6857 53.7346V54.4735H45.0542V48.0034H45.6857ZM45.6857 52.0768C45.6821 52.5754 45.871 53.0561 46.2131 53.4189C46.3727 53.6073 46.5715 53.7587 46.7957 53.8623C47.0198 53.9659 47.2639 54.0194 47.5109 54.0188C47.7687 54.025 48.0246 53.9742 48.2605 53.8699C48.4963 53.7657 48.7061 53.6105 48.875 53.4157C49.226 53.0279 49.4158 52.5208 49.4055 51.9979C49.4102 51.7452 49.3648 51.494 49.2722 51.2588C49.1795 51.0236 49.0413 50.8091 48.8655 50.6274C48.6961 50.444 48.4898 50.2985 48.2601 50.2005C48.0305 50.1026 47.7826 50.0543 47.533 50.0591C47.2771 50.0563 47.0238 50.1117 46.7924 50.2211C46.561 50.3305 46.3575 50.491 46.1973 50.6906C45.8622 51.0691 45.6799 51.5587 45.6857 52.0642" fill="white"/>
<path d="M51.78 50.195C52.0014 49.9523 52.2711 49.7586 52.5719 49.6264C52.8726 49.4943 53.1977 49.4266 53.5262 49.4277C53.8623 49.4227 54.1959 49.486 54.5069 49.6135C54.8178 49.741 55.0997 49.9303 55.3356 50.1697C55.5784 50.4022 55.7705 50.6824 55.8998 50.9927C56.0292 51.303 56.0929 51.6367 56.0871 51.9728C56.1001 52.6576 55.8452 53.3205 55.3766 53.82C55.152 54.0747 54.8746 54.2775 54.5639 54.4143C54.2531 54.5512 53.9163 54.6188 53.5767 54.6126C53.241 54.6194 52.9075 54.556 52.5976 54.4266C52.2877 54.2972 52.0081 54.1046 51.7768 53.8611C51.5397 53.6221 51.3527 53.338 51.2269 53.0257C51.1011 52.7133 51.039 52.3789 51.0443 52.0423H55.4303V52.017C55.4402 51.7573 55.3985 51.4982 55.3074 51.2548C55.2163 51.0114 55.0778 50.7886 54.8998 50.5992C54.7233 50.4122 54.5089 50.265 54.2709 50.1675C54.0329 50.07 53.7769 50.0245 53.5199 50.034C53.2777 50.0318 53.0379 50.0817 52.8167 50.1803C52.5955 50.2789 52.3981 50.4239 52.2379 50.6055C52.0897 50.7615 51.9681 50.9407 51.8779 51.136H51.1895C51.3132 50.7801 51.515 50.4565 51.78 50.1887V50.195ZM55.3671 52.5664H51.7516C51.8318 52.891 51.995 53.1892 52.2252 53.4316C52.3946 53.6172 52.6017 53.7645 52.8326 53.8636C53.0635 53.9627 53.3129 54.0114 53.5641 54.0063C53.8124 54.0107 54.0588 53.9616 54.2865 53.8625C54.5143 53.7633 54.718 53.6164 54.884 53.4316C55.1144 53.1898 55.2767 52.8913 55.3545 52.5664" fill="white"/>
<path d="M61.0578 52.4779V54.4735H60.4326V48.0002H61.0578V51.5969L64.0545 48.0002H64.8092L62.1946 51.1295L64.765 54.4735H63.9819L61.7873 51.6063L61.0578 52.4779Z" fill="white"/>
<path d="M66.3371 54.4737H65.7056V49.5856H66.3055V50.1508C66.4301 49.9603 66.5994 49.8032 66.7987 49.6931C66.9979 49.583 67.221 49.5233 67.4486 49.5193V50.2013C67.2846 50.2019 67.1225 50.2364 66.9725 50.3027C66.8225 50.369 66.6879 50.4656 66.5771 50.5866C66.3997 50.8691 66.3189 51.2015 66.3466 51.5339L66.3371 54.4737Z" fill="white"/>
<path d="M73.2526 52.2252H68.8318C68.8507 52.7113 69.0539 53.172 69.4002 53.5135C69.5735 53.6791 69.7781 53.8083 70.0021 53.8934C70.2261 53.9786 70.4649 54.018 70.7044 54.0093C71.061 54.0234 71.4132 53.9269 71.7128 53.733C72.0124 53.5391 72.2447 53.2573 72.378 52.9262H73.0884C72.6211 54.0504 71.8327 54.6124 70.7233 54.6124C70.3857 54.6181 70.0506 54.5537 69.7391 54.4233C69.4277 54.2928 69.1467 54.0992 68.9139 53.8546C68.6752 53.6141 68.4874 53.3279 68.3615 53.0133C68.2356 52.6987 68.1744 52.3619 68.1814 52.0231C68.1671 51.6818 68.2238 51.3411 68.3479 51.0228C68.472 50.7045 68.6609 50.4154 68.9025 50.1738C69.144 49.9322 69.4331 49.7434 69.7514 49.6193C70.0698 49.4952 70.4104 49.4385 70.7517 49.4527C71.0985 49.4385 71.444 49.503 71.7623 49.6414C72.0805 49.7798 72.3634 49.9884 72.5895 50.2516C73.0383 50.7919 73.2712 51.4792 73.2432 52.181L73.2526 52.2252ZM72.5611 51.6947C72.3253 50.5916 71.6938 50.0411 70.6665 50.0432C70.2119 50.0302 69.7705 50.197 69.4381 50.5074C69.115 50.8255 68.91 51.2444 68.8571 51.6947H72.5611Z" fill="white"/>
<path d="M78.5727 50.359V48.0034H79.2043V54.4735H78.5727V53.7346C78.3529 54.0114 78.0713 54.2329 77.7506 54.3815C77.4298 54.5301 77.0788 54.6016 76.7255 54.5904C76.39 54.5978 76.0567 54.5341 75.7476 54.4034C75.4384 54.2728 75.1605 54.0783 74.9319 53.8325C74.6978 53.5915 74.5141 53.3063 74.3915 52.9934C74.269 52.6806 74.2101 52.3464 74.2183 52.0105C74.2088 51.6759 74.2672 51.3428 74.3898 51.0313C74.5125 50.7198 74.6969 50.4364 74.9319 50.198C75.1633 49.9576 75.4424 49.7683 75.7513 49.6421C76.0601 49.516 76.392 49.4558 76.7255 49.4654C77.0827 49.4514 77.4379 49.5243 77.7607 49.6777C78.0836 49.8312 78.3644 50.0606 78.5791 50.3464L78.5727 50.359ZM78.598 52.0642C78.6053 51.5501 78.4193 51.0521 78.077 50.6685C77.916 50.4706 77.7128 50.3111 77.4822 50.2018C77.2517 50.0926 76.9996 50.0362 76.7444 50.0369C76.4939 50.0325 76.2452 50.0809 76.0146 50.1788C75.7839 50.2767 75.5764 50.422 75.4056 50.6053C75.2302 50.7871 75.0925 51.0018 75.0004 51.237C74.9083 51.4722 74.8635 51.7233 74.8688 51.9758C74.8573 52.4983 75.0459 53.0055 75.3961 53.3936C75.565 53.5884 75.7748 53.7436 76.0107 53.8478C76.2465 53.9521 76.5024 54.0029 76.7602 53.9967C77.008 53.9969 77.253 53.9434 77.4781 53.8398C77.7032 53.7362 77.9032 53.5851 78.0644 53.3968C78.4093 53.0354 78.6006 52.5543 78.598 52.0547" fill="white"/>
<path d="M81.3107 49.0107H80.6792V48.0034H81.3107V49.0107ZM80.6792 49.5854H81.3107V54.4735H80.6792V49.5854Z" fill="white"/>
<path d="M83.2338 54.4704V50.2138H82.3022V49.5823H83.2338V48.0002H83.859V49.5823H84.7874V50.2138H83.859V54.4704H83.2338Z" fill="white"/>
<path d="M86.404 49.0107H85.7725V48.0034H86.404V49.0107ZM85.7725 49.5854H86.404V54.4735H85.7725V49.5854Z" fill="white"/>
<path d="M91.0493 54.4704V48.0002H94.2449V48.6381H91.6745V50.9022H94.2449V51.5432H91.6745V54.4704H91.0493Z" fill="white"/>
<path d="M95.3564 52.0327C95.3446 51.3575 95.5999 50.7049 96.0669 50.2171C96.2884 49.9654 96.5617 49.7646 96.8679 49.6284C97.1742 49.4921 97.5063 49.4236 97.8415 49.4276C98.1771 49.4231 98.5101 49.4866 98.8205 49.6141C99.1309 49.7416 99.4123 49.9306 99.6478 50.1697C99.8906 50.4022 100.083 50.6824 100.212 50.9927C100.341 51.3029 100.405 51.6366 100.399 51.9727C100.414 52.6578 100.159 53.3211 99.6888 53.82C99.4645 54.0752 99.1873 54.2783 98.8764 54.4152C98.5656 54.5521 98.2285 54.6194 97.8889 54.6126C97.5531 54.6193 97.2197 54.556 96.9097 54.4266C96.5998 54.2972 96.3203 54.1046 96.089 53.8611C95.8507 53.6209 95.663 53.3353 95.5372 53.0212C95.4113 52.7072 95.3499 52.371 95.3564 52.0327ZM96.0132 52.0327C95.9989 52.5499 96.1857 53.0525 96.5342 53.4348C96.704 53.625 96.9131 53.776 97.147 53.8775C97.3809 53.9789 97.634 54.0282 97.8889 54.0221C98.1433 54.0283 98.3959 53.9779 98.6285 53.8747C98.8611 53.7715 99.068 53.618 99.2341 53.4253C99.5737 53.0397 99.7553 52.5401 99.7425 52.0264C99.7606 51.5043 99.5723 50.996 99.2183 50.6118C99.0404 50.4247 98.8249 50.2773 98.586 50.1793C98.3471 50.0814 98.0902 50.0351 97.8321 50.0434C97.5809 50.0394 97.332 50.0922 97.1041 50.1977C96.8761 50.3032 96.6748 50.4588 96.5153 50.6528C96.183 51.0348 96.0041 51.5265 96.0132 52.0327Z" fill="white"/>
<path d="M101.631 49.5854H102.237V50.1412C102.428 49.9241 102.665 49.7527 102.932 49.6396C103.198 49.5264 103.486 49.4745 103.775 49.4875C104.09 49.4609 104.406 49.5185 104.691 49.6545C104.976 49.7904 105.22 49.9998 105.398 50.2612C105.606 50.5769 105.714 51.1359 105.714 51.919V54.4736H105.082V51.7485C105.114 51.3287 105.015 50.9094 104.798 50.5485C104.663 50.3905 104.493 50.2672 104.3 50.1891C104.108 50.111 103.899 50.0805 103.693 50.1001C103.441 50.0804 103.19 50.1319 102.966 50.2486C102.743 50.3653 102.557 50.5426 102.43 50.7601C102.256 51.1872 102.184 51.6487 102.218 52.1084V54.4862H101.612L101.631 49.5854Z" fill="white"/>
<path d="M111.3 50.359V48.0034H111.932V54.4735H111.3V53.7346C111.081 54.0148 110.799 54.2394 110.477 54.3902C110.155 54.5411 109.802 54.614 109.447 54.603C109.111 54.6098 108.778 54.5458 108.469 54.4153C108.16 54.2847 107.882 54.0904 107.653 53.8452C107.419 53.6039 107.236 53.3185 107.114 53.0057C106.992 52.6929 106.934 52.3588 106.942 52.0231C106.933 51.6887 106.99 51.3558 107.113 51.0443C107.235 50.7328 107.418 50.4493 107.653 50.2106C107.884 49.9703 108.163 49.7809 108.472 49.6548C108.781 49.5286 109.113 49.4684 109.447 49.478C109.804 49.4641 110.159 49.5369 110.482 49.6904C110.805 49.8438 111.085 50.0733 111.3 50.359ZM111.319 52.0768C111.326 51.5628 111.14 51.0647 110.798 50.6811C110.637 50.4832 110.434 50.3237 110.203 50.2145C109.973 50.1052 109.721 50.0489 109.465 50.0496C109.215 50.0452 108.966 50.0935 108.736 50.1914C108.505 50.2893 108.297 50.4347 108.127 50.618C107.951 50.7998 107.814 51.0144 107.721 51.2496C107.629 51.4848 107.585 51.7359 107.59 51.9884C107.578 52.511 107.767 53.0182 108.117 53.4062C108.286 53.6013 108.497 53.7566 108.733 53.8608C108.97 53.9651 109.226 54.0158 109.484 54.0093C109.732 54.0095 109.976 53.9559 110.201 53.8523C110.425 53.7487 110.625 53.5976 110.785 53.4094C111.13 53.048 111.322 52.5669 111.319 52.0674" fill="white"/>
<path d="M113.384 49.5854H114.015V52.181C113.986 52.6288 114.072 53.0767 114.265 53.482C114.39 53.6645 114.561 53.81 114.762 53.9028C114.963 53.9957 115.185 54.0325 115.405 54.0093C115.744 54.0233 116.079 53.9208 116.352 53.7188C116.608 53.5115 116.779 53.2169 116.832 52.8915C116.873 52.5923 116.89 52.2903 116.883 51.9884V49.5854H117.514V54.4735H116.883V53.9588C116.704 54.177 116.477 54.3504 116.219 54.465C115.961 54.5796 115.68 54.6322 115.398 54.6187C114.638 54.6187 114.102 54.3893 113.788 53.9304C113.495 53.386 113.362 52.7694 113.406 52.1526L113.384 49.5854Z" fill="white"/>
</svg>
